<svg id="Calque_1" data-name="Calque 1" xmlns="http://www.w3.org/2000/svg" viewBox="0 0 439.39 515.07"><defs><style>.cls-1,.cls-2{fill:#ecca50;}.cls-1{stroke:#ecca50;stroke-miterlimit:10;}.cls-3{fill:#11393a;}</style></defs><title>clients-phone</title><g id="Calque_3" data-name="Calque 3"><path class="cls-1" d="M63.06,140.14a142.15,142.15,0,0,1-43.17,3.36c-2.58-.18-4.39,2.3-4.45,4.61a4.78,4.78,0,0,0,4.62,4.46,152.17,152.17,0,0,0,45.47-3.66,4.59,4.59,0,0,0,3-5.7,4.31,4.31,0,0,0-5.15-3.14Z" transform="translate(-2.97 -2.27)"/><path class="cls-1" d="M61.36,151.91a153.1,153.1,0,0,1-41.47,2.7,6.7,6.7,0,0,1-6.44-6.36v-.18A7.12,7.12,0,0,1,15.74,143a5.84,5.84,0,0,1,4.15-1.57,139.41,139.41,0,0,0,42.51-3.29l.36-.08a6.44,6.44,0,0,1,7.73,4.68,6.67,6.67,0,0,1-4.43,8.15h-.14C64.46,151.28,62.91,151.63,61.36,151.91Zm-43.8-3.86a2.72,2.72,0,0,0,2.57,2.43A149,149,0,0,0,65,147a2.58,2.58,0,0,0,1.63-3.13,2.27,2.27,0,0,0-2.71-1.75h0l-.35.07a143.69,143.69,0,0,1-43.8,3.39,1.63,1.63,0,0,0-1.28.52,3.11,3.11,0,0,0-1,2Z" transform="translate(-2.97 -2.27)"/><path class="cls-1" d="M80.89,82.17c-16.6-10-33.27-20.28-49.83-30.29a4.5,4.5,0,0,0-5.16,7.37h0a5,5,0,0,0,.58.35l.4.2c16.6,10,33.24,20.25,49.83,30.3a4.5,4.5,0,0,0,4.59-7.73A2.22,2.22,0,0,0,80.89,82.17Z" transform="translate(-2.97 -2.27)"/><path class="cls-1" d="M80.31,92.65a6.44,6.44,0,0,1-4.64-.77q-12.47-7.55-25-15.15L25.9,61.63l-.47-.26a6.54,6.54,0,0,1-2.59-8.88v0h0a6.55,6.55,0,0,1,8.9-2.57h0l.31.18,23.71,14.4q13,8,26,15.84a2.87,2.87,0,0,1,.49.26,6.54,6.54,0,0,1-2,12Zm-52-39.3a2.43,2.43,0,0,0-1.86,2.9h0a2.48,2.48,0,0,0,1.19,1.57l.22.1L28,58,53,73.2l24.9,15.16a2.44,2.44,0,0,0,2.46-4.21h0L80.11,84l-.2-.1Q66.85,76,53.74,68L30.05,53.58A2.4,2.4,0,0,0,28.29,53.35Z" transform="translate(-2.97 -2.27)"/><path class="cls-1" d="M123.63,54.22A183,183,0,0,1,117,9c-.1-5.84-9.12-5.51-9,.34A201.59,201.59,0,0,0,115,57C116.5,62.6,125.19,59.83,123.63,54.22Z" transform="translate(-2.97 -2.27)"/><path class="cls-1" d="M120.37,61.93a6.64,6.64,0,0,1-3.07,0A6,6,0,0,1,113,57.56a203.13,203.13,0,0,1-7-48.1,6.23,6.23,0,0,1,3-5.68,7.07,7.07,0,0,1,7-.17A6.08,6.08,0,0,1,119.11,9a180.79,180.79,0,0,0,6.58,44.71h0A6.37,6.37,0,0,1,124.17,60,7.42,7.42,0,0,1,120.37,61.93ZM112,6.88a3,3,0,0,0-.86.32,2.2,2.2,0,0,0-1,2.05A198.75,198.75,0,0,0,117,56.4a1.85,1.85,0,0,0,1.37,1.47,3.05,3.05,0,0,0,2.77-.82,2.23,2.23,0,0,0,.45-2.27,183.8,183.8,0,0,1-6.74-45.73,2,2,0,0,0-.95-1.85A2.86,2.86,0,0,0,112,7Z" transform="translate(-2.97 -2.27)"/></g><rect class="cls-2" x="20.28" y="239.9" width="14.75" height="14.75"/><rect class="cls-2" x="362.95" y="472.31" width="14.75" height="14.75"/><rect class="cls-2" x="305.61" y="225.15" width="14.75" height="14.75"/><rect class="cls-2" x="53.61" y="420.53" width="14.75" height="14.75"/><rect class="cls-2" x="377.7" y="114.56" width="14.75" height="14.75"/><path class="cls-3" d="M106,517.34c-2.54-2-5.25-4.12-4.08-7.66a10.19,10.19,0,0,1,4.25-4.86c1.27-.8,3.33-.44,5-.44q53.83,0,107.67,0,43.54,0,87.08,0c20.32,0,33.74-13.13,33.85-33.38.14-24.6,0-49.19.07-73.78a16.3,16.3,0,0,0-5.37-12.53c-12.79-12.28-25.34-24.81-38.14-37.09a47.47,47.47,0,0,1-15.26-36.4c.11-9.29.05-18.58,0-27.88,0-5.1-1.89-7-7-7q-96.3,0-192.6,0c-5,0-6.87,2-6.92,7.15-.07,9.44-.13,18.88,0,28.31.19,14.27-5,26.09-15.3,35.94-12.7,12.16-25.13,24.6-37.83,36.77a17.05,17.05,0,0,0-5.58,13.3c.14,24.31,0,48.62.07,72.93,0,20.17,13.47,33.62,33.6,33.66,9.15,0,18.3.06,27.45,0,3.81,0,7.29.36,8.51,4.72,1.16,4.09-1.21,6.44-4.4,8.28H42.55c-4.73-1.51-9.74-2.44-14.13-4.63-16.1-8-24.9-21.34-25.21-39.3-.45-26.16-.15-52.33-.1-78.5,0-7.4,3.07-13.49,8.35-18.62,12.93-12.54,25.7-25.26,38.73-37.7C58.12,331,62,322.06,61.7,311.07c-.25-9-.07-18,0-27,.05-13.29,7.47-20.65,20.78-20.67h6.61c0-4,0-7.81,0-11.6,0-5.29-.14-10.59,0-15.87.5-14.32,11.38-25,25.28-24.91,13.64.06,24.48,10.72,24.9,24.85.27,9,0,18,0,27.25h77.35c0-9.17-.09-18.27,0-27.37a24.79,24.79,0,0,1,19.41-24.11C251,208,265.87,219,266.54,234.32c.35,8,.12,16,.15,24,0,1.54,0,3.07,0,5.05,3.28,0,6.11-.05,8.93,0,10.36.18,18.22,7.79,18.41,18.13.18,9.86.16,19.73,0,29.59a35.09,35.09,0,0,0,11.37,27.18c12.72,12.13,25.09,24.64,37.84,36.76A29.17,29.17,0,0,1,352.9,398c-.19,9.28,0,18.57,0,27.79,17.93,4.43,33.56-7.15,32.87-24.15a22.31,22.31,0,0,0-6.21-14.68c-2.33-2.51-4.82-4.88-7.22-7.33-15.29-15.65-15.46-37.09-.43-53,.58-.61,1.15-1.25,1.92-2.09l-21.11-23.16c-4.24-4.64-8.57-9.21-12.72-13.95-8.23-9.41-7.74-22.17,1.29-30.82,6.7-6.41,13.65-12.56,20.82-19.14a295.15,295.15,0,0,0-68.16-74.63c-6.51,5.92-12.81,11.69-19.15,17.42-11.48,10.36-23.73,9.82-34.21-1.59Q218.8,155,197.17,131.15c-9.47-10.42-8.65-23.63,1.85-33,14.26-12.69,30.29-21,50-20,14.25.73,27.33,5.63,39.9,12A6.34,6.34,0,0,1,291.75,99c-1.62,3.13-5,4.11-8.91,2.61-7.17-2.78-14.21-6-21.56-8.2-21.4-6.24-39.34.65-54.81,15.58-4.14,4-3.89,9,.43,13.69q18.48,20.29,37,40.53c2.32,2.53,4.6,5.1,6.95,7.59,4.5,4.75,9.43,5,14.29.69,6-5.33,11.84-10.79,17.76-16.17,7.17-6.51,13.51-6.91,21.07-1a303.83,303.83,0,0,1,67.87,74.45c4.57,7.06,3.63,13.81-2.6,19.64-5.95,5.57-12.06,11-18,16.5-5.33,4.94-5.6,9.53-.75,14.86q21.93,24.12,44,48.12c4.57,5,9.49,5,14.57.41,20.78-18.94,25.34-39.89,14.95-69-10.08-28.31-25.56-53.55-44.27-76.88-20.24-25.25-43.47-47.34-70.38-65.48-1.68-1.13-3.79-3-4-4.65a9.54,9.54,0,0,1,2.22-6.75c2.35-2.5,5.6-1.82,8.18.24C330,117.07,344.84,127.63,358.05,140c31.33,29.27,56.4,63.28,73.46,102.89a159.36,159.36,0,0,1,10.85,36.83v14.58a3.81,3.81,0,0,0-.57,1.14c-2.28,17.69-11.86,31.21-24.53,42.94-6,5.55-13.19,8-20.92,5.37-5.06-1.75-9.44-5.43-14.48-8.45-9.8,7.38-11.29,22.93-2.28,33.09,3.22,3.63,7,6.8,10.08,10.51,9.68,11.56,11.93,24.66,5.95,38.43s-17.22,21.26-32.49,22c-3.25.16-6.5,0-10.26,0v5.1c0,9,.1,18,0,27-.29,20.9-12.15,37.53-31,43.63-2.67.86-5.42,1.52-8.14,2.27Zm20.35-254.08c0-6.12.07-11.81,0-17.49-.07-4.28.08-8.62-.64-12.8-.93-5.4-6-9-11.52-9.05s-11.13,3.63-11.47,9c-.64,10-.19,20.15-.19,30.35Zm127.32-.07c0-9.48.14-18.47-.05-27.46a11.82,11.82,0,0,0-11.7-11.8,11.94,11.94,0,0,0-12.31,11.66c-.23,6.85-.07,13.71-.08,20.57,0,2.36,0,4.71,0,7Z" transform="translate(-2.97 -2.27)"/><path class="cls-3" d="M98.63,406c.31-58.86,62.49-97.23,114.8-70.54a11.49,11.49,0,0,1,5.15,6.08c.5,1.5-1.09,4.79-2.62,5.59a9,9,0,0,1-7.12.17,70.7,70.7,0,0,0-31.38-7.49c-33.69.11-63,27-65.37,60-2.55,35.6,21.39,66.23,55.8,71.37A66,66,0,0,0,231.1,366.65c-.34-.47-.7-.91-1-1.38-2.66-3.86-2.41-7.54.66-9.86s6.9-1.5,9.68,2.08a77,77,0,0,1,14,28.64c11,43.27-15.8,87.3-58.92,96.83a79.15,79.15,0,0,1-95.19-62.12C99.38,416,99.18,410.93,98.63,406Z" transform="translate(-2.97 -2.27)"/><path class="cls-3" d="M206.78,405.76a28.89,28.89,0,1,1-29-28.81A29,29,0,0,1,206.78,405.76Zm-13,0A15.8,15.8,0,0,0,178,390a16,16,0,0,0-16.08,16,16.22,16.22,0,0,0,15.91,15.87A15.94,15.94,0,0,0,193.81,405.76Z" transform="translate(-2.97 -2.27)"/><path class="cls-3" d="M220.75,378.37a8.15,8.15,0,0,1-.17,16.3,8.15,8.15,0,1,1,.17-16.3Z" transform="translate(-2.97 -2.27)"/><path class="cls-3" d="M139.52,412.75a8.21,8.21,0,0,1-8,8.35,8.41,8.41,0,0,1-8.32-8.05,8.08,8.08,0,0,1,8-8.23A8,8,0,0,1,139.52,412.75Z" transform="translate(-2.97 -2.27)"/><path class="cls-3" d="M142.38,445.18a8.2,8.2,0,0,1-8.07-8.25,8,8,0,0,1,8.16-8.05,8.11,8.11,0,0,1,8.14,8.14A8.39,8.39,0,0,1,142.38,445.18Z" transform="translate(-2.97 -2.27)"/><path class="cls-3" d="M177.71,351a8.12,8.12,0,0,1,8.24,8,8,8,0,0,1-7.95,8.25,8.18,8.18,0,0,1-8.34-8A8.4,8.4,0,0,1,177.71,351Z" transform="translate(-2.97 -2.27)"/><path class="cls-3" d="M203.12,358.49a8.1,8.1,0,0,1,8.36,7.9,8.43,8.43,0,0,1-8,8.38,8.2,8.2,0,0,1-8.28-8A7.94,7.94,0,0,1,203.12,358.49Z" transform="translate(-2.97 -2.27)"/><path class="cls-3" d="M164.58,459.18a8,8,0,0,1-8-8.2,8.19,8.19,0,0,1,8.22-8.08,8.4,8.4,0,0,1,8.06,8.32A8.11,8.11,0,0,1,164.58,459.18Z" transform="translate(-2.97 -2.27)"/><path class="cls-3" d="M199.37,451.36a8.11,8.11,0,0,1-8.44,7.81,7.89,7.89,0,0,1-7.83-8.32,8.16,8.16,0,0,1,8.33-7.94A8.42,8.42,0,0,1,199.37,451.36Z" transform="translate(-2.97 -2.27)"/><path class="cls-3" d="M152.48,374.77a8.21,8.21,0,0,1-8.08-8.21,7.9,7.9,0,0,1,8.09-8.07,8.08,8.08,0,0,1,8.18,8.07A8.41,8.41,0,0,1,152.48,374.77Z" transform="translate(-2.97 -2.27)"/><path class="cls-3" d="M224.68,404.82a8,8,0,0,1,8,8.26,8.37,8.37,0,0,1-8.35,8,8.24,8.24,0,0,1-7.9-8.4A7.91,7.91,0,0,1,224.68,404.82Z" transform="translate(-2.97 -2.27)"/><path class="cls-3" d="M143.25,386.61a8.05,8.05,0,0,1-8.18,8.05,8.14,8.14,0,1,1,8.18-8.05Z" transform="translate(-2.97 -2.27)"/></svg>