<svg id="Calque_1" data-name="Calque 1" xmlns="http://www.w3.org/2000/svg" viewBox="0 0 445.25 517.9"><defs><style>.cls-1,.cls-2{fill:#ecca50;}.cls-1{stroke:#ecca50;stroke-miterlimit:10;}.cls-3{fill:#11393a;}</style></defs><title>clients-inactif</title><g id="Calque_3" data-name="Calque 3"><path class="cls-1" d="M269.24,61.66A173.23,173.23,0,0,1,260.9,9.5c0-3.15-3.24-5.11-6-4.94a5.81,5.81,0,0,0-5,6,184.93,184.93,0,0,0,8.93,54.93A5.59,5.59,0,0,0,266,68.69a5.26,5.26,0,0,0,3.31-6.58Z" transform="translate(1.96 -1.61)"/><path class="cls-1" d="M254.75,60.76a187.16,187.16,0,0,1-7.37-50.16,8.2,8.2,0,0,1,7.11-8.46l.21,0a8.76,8.76,0,0,1,6.39,2.29,7.22,7.22,0,0,1,2.32,4.89,169.7,169.7,0,0,0,8.18,51.37l.13.43A7.86,7.86,0,0,1,266.79,71a8.15,8.15,0,0,1-10.35-4.59V66.2C255.83,64.47,255.25,62.62,254.75,60.76Zm.39-53.64a3.32,3.32,0,0,0-2.71,3.37,181.49,181.49,0,0,0,8.68,54.18,3.14,3.14,0,0,0,4,1.68,2.77,2.77,0,0,0,1.85-3.47v0l-.12-.42a175.1,175.1,0,0,1-8.44-52.92A2,2,0,0,0,257.61,8a3.77,3.77,0,0,0-2.49-1Z" transform="translate(1.96 -1.61)"/><path class="cls-1" d="M341.48,77.63C352,56.47,362.86,35.19,373.4,14.06a5.49,5.49,0,0,0-9.47-5.54h0a5.6,5.6,0,0,0-.36.74l-.21.51C352.77,30.93,342,52.17,331.42,73.34a5.48,5.48,0,0,0,9.85,4.81A2.36,2.36,0,0,0,341.48,77.63Z" transform="translate(1.96 -1.61)"/><path class="cls-1" d="M328.67,78a7.84,7.84,0,0,1,.49-5.71q7.93-15.9,16-31.84T361,8.76l.26-.61a8,8,0,0,1,10.55-4h0a8,8,0,0,1,4,10.57h0l-.19.4L360.51,45.35Q352.13,62,343.81,78.56a2.62,2.62,0,0,1-.26.62A8,8,0,0,1,328.7,77.9Zm42.67-67.12a3,3,0,0,0-3.71-2h0a3,3,0,0,0-1.79,1.6l-.11.27-.1.26-16,31.79-16,31.77A3,3,0,0,0,339,77.14h0l.13-.26.1-.26Q347.57,60,356,43.24L371.23,13A3,3,0,0,0,371.34,10.84Z" transform="translate(1.96 -1.61)"/><path class="cls-1" d="M379.67,126.85A223.83,223.83,0,0,1,434,114.3c7.1-.7,5.8-11.63-1.3-10.93a246.24,246.24,0,0,0-57.26,13.21C368.78,119,373,129.3,379.67,126.85Z" transform="translate(1.96 -1.61)"/><path class="cls-1" d="M370,123.65a8.13,8.13,0,0,1-.3-3.73,7.27,7.27,0,0,1,4.88-5.69,247.66,247.66,0,0,1,57.8-13.31,7.6,7.6,0,0,1,7.2,3.16,8.59,8.59,0,0,1,.89,8.45,7.39,7.39,0,0,1-6.26,4.37,221.08,221.08,0,0,0-53.72,12.41h0a7.77,7.77,0,0,1-7.78-1.23A9,9,0,0,1,370,123.65Zm66.11-15.59a4,4,0,0,0-.48-1,2.68,2.68,0,0,0-2.59-1,242.24,242.24,0,0,0-56.65,13,2.25,2.25,0,0,0-1.65,1.8,3.73,3.73,0,0,0,1.27,3.29,2.7,2.7,0,0,0,2.81.32,223.81,223.81,0,0,1,54.94-12.69,2.45,2.45,0,0,0,2.14-1.34A3.57,3.57,0,0,0,436,108Z" transform="translate(1.96 -1.61)"/></g><path class="cls-2" d="M105,102.28h7.8v7.9a6.55,6.55,0,0,0,13.1,0v-7.9h7.9a6.52,6.52,0,0,0,5.9-7.1,6.6,6.6,0,0,0-5.9-5.9h-7.9v-8a6.55,6.55,0,0,0-13.1,0v7.9h-7.9a6.52,6.52,0,0,0-5.9,7.1,7,7,0,0,0,6,6Z" transform="translate(1.96 -1.61)"/><path class="cls-2" d="M335.47,492.58h-7.9v-7.9a6.52,6.52,0,0,0-7.1-5.9,6.6,6.6,0,0,0-5.9,5.9v7.9h-7.9a6.55,6.55,0,0,0,0,13.1h7.9v7.9a6.52,6.52,0,0,0,7.1,5.9,6.6,6.6,0,0,0,5.9-5.9v-7.9h7.9a6.55,6.55,0,0,0,0-13.1Z" transform="translate(1.96 -1.61)"/><path class="cls-2" d="M118.67,340.68a20.9,20.9,0,1,0-20.9,20.9h0A21,21,0,0,0,118.67,340.68Zm-20.9,7.8a7.9,7.9,0,1,1,7.9-7.9h0A7.85,7.85,0,0,1,97.77,348.48Z" transform="translate(1.96 -1.61)"/><path class="cls-2" d="M112.17,304a20.9,20.9,0,1,0-20.9-20.9h0A21,21,0,0,0,112.17,304Zm0-28.9a7.9,7.9,0,1,1-7.9,7.9h0A7.92,7.92,0,0,1,112.17,275.08Z" transform="translate(1.96 -1.61)"/><path class="cls-3" d="M399.57,297.08a11.63,11.63,0,0,0-22.3-4.6,115.9,115.9,0,0,1-106.6,70.4h-.3c-63.6-.2-115.4-52-115.6-115.6a115.64,115.64,0,0,1,70.4-106.9,11.68,11.68,0,0,0,6.1-15.3,11.48,11.48,0,0,0-10.7-7h-.3a179.56,179.56,0,0,0-116.9,43.3,6.52,6.52,0,1,0,8.5,9.9h0a166.75,166.75,0,0,1,102-40.1,128.75,128.75,0,0,0-72.1,116.2c.2,70.7,57.9,128.4,128.6,128.6h.4a128.89,128.89,0,0,0,115.8-72.2c-3.4,88.8-76.6,160-166.2,160a176,176,0,0,1-21.8-1.4.84.84,0,0,1-.6-.8,18.66,18.66,0,0,0-.4-2.5,21,21,0,0,0-24.6-16.5,20.65,20.65,0,0,0-13.6,9.4.62.62,0,0,1-.7.1,164.75,164.75,0,0,1-46.8-28.4,6.6,6.6,0,0,0-9.2.7,6.51,6.51,0,0,0,.7,9.2,178.63,178.63,0,0,0,50.5,30.6,13.44,13.44,0,0,0,16.5-5.2,8.16,8.16,0,0,1,7.2-3.7,8,8,0,0,1,7.2,6.4,3.4,3.4,0,0,1,.1,1,13.76,13.76,0,0,0,11.9,12.8,184.22,184.22,0,0,0,23.5,1.5c98.9,0,179.4-80.5,179.4-179.4l-.1-.5Z" transform="translate(1.96 -1.61)"/><path class="cls-3" d="M53.77,297.48A166.29,166.29,0,0,1,94,189.08a6.53,6.53,0,0,0-1-9.2,6.42,6.42,0,0,0-8.9.7,179.43,179.43,0,0,0,0,233.9A6.52,6.52,0,1,0,94,406h0A167.14,167.14,0,0,1,53.77,297.48Z" transform="translate(1.96 -1.61)"/><path class="cls-2" d="M400.27,406.18a6.49,6.49,0,0,0-6.5,6.5v14.4a6.52,6.52,0,0,0,7.1,5.9,6.6,6.6,0,0,0,5.9-5.9v-14.4a6.49,6.49,0,0,0-6.5-6.5Z" transform="translate(1.96 -1.61)"/><path class="cls-2" d="M400.27,463.78a6.49,6.49,0,0,0-6.5,6.5v14.4a6.52,6.52,0,0,0,7.1,5.9,6.6,6.6,0,0,0,5.9-5.9v-14.4A6.49,6.49,0,0,0,400.27,463.78Z" transform="translate(1.96 -1.61)"/><path class="cls-2" d="M436.27,442.18h-14.4a6.52,6.52,0,1,0-1,13h15.4a6.52,6.52,0,0,0,1-13Z" transform="translate(1.96 -1.61)"/><path class="cls-2" d="M378.67,442.18h-14.4a6.5,6.5,0,0,0-6,7,6.62,6.62,0,0,0,6,6h14.4a6.52,6.52,0,0,0,1-13Z" transform="translate(1.96 -1.61)"/><path class="cls-2" d="M40.07,131.08a6.49,6.49,0,0,0,6.5-6.5h0v-14.5a6.5,6.5,0,0,0-7-6,6.62,6.62,0,0,0-6,6v14.4A6.78,6.78,0,0,0,40.07,131.08Z" transform="translate(1.96 -1.61)"/><path class="cls-2" d="M46.67,182.18v-14.4a6.5,6.5,0,0,0-7-6,6.62,6.62,0,0,0-6,6v14.4a6.5,6.5,0,0,0,7,6A6.62,6.62,0,0,0,46.67,182.18Z" transform="translate(1.96 -1.61)"/><path class="cls-2" d="M61.77,152.68h14.4a6.52,6.52,0,0,0,1-13H61.77a6.52,6.52,0,0,0,0,13Z" transform="translate(1.96 -1.61)"/><path class="cls-2" d="M18.47,139.58H4.07a6.5,6.5,0,0,0-6,7,6.62,6.62,0,0,0,6,6h14.4a6.52,6.52,0,0,0,1-13Z" transform="translate(1.96 -1.61)"/></svg>