<svg id="Calque_1" data-name="Calque 1" xmlns="http://www.w3.org/2000/svg" viewBox="0 0 440.44 516.85"><defs><style>.cls-1,.cls-2{fill:#ecca50;}.cls-1{stroke:#ecca50;stroke-miterlimit:10;}.cls-3{fill:#11393a;}</style></defs><title>clients-internet</title><g id="Calque_3" data-name="Calque 3"><path class="cls-1" d="M214.26,95.05a168.24,168.24,0,0,1-20.87-46.87c-.82-2.94-4.31-4-6.91-3.13A5.66,5.66,0,0,0,183.33,52a180.08,180.08,0,0,0,22.11,49.32,5.43,5.43,0,0,0,7.57,1.15,5.12,5.12,0,0,0,1.47-7Z" transform="translate(-1.92 -1.63)"/><path class="cls-1" d="M200.44,97.82A181.43,181.43,0,0,1,181,52.59a7.94,7.94,0,0,1,4.55-9.71l.2-.07a8.47,8.47,0,0,1,6.56.55,6.92,6.92,0,0,1,3.4,4,164.92,164.92,0,0,0,20.52,46.16l.23.37a7.63,7.63,0,0,1-2.16,10.48,7.89,7.89,0,0,1-10.86-1.71l0-.16C202.37,101,201.37,99.45,200.44,97.82ZM187.39,47.38a3.25,3.25,0,0,0-1.7,3.85A176,176,0,0,0,207.38,99.9a3.05,3.05,0,0,0,4.14.59,2.7,2.7,0,0,0,.87-3.72v0l-.22-.36A170,170,0,0,1,191,48.83a1.94,1.94,0,0,0-1.08-1.23,3.66,3.66,0,0,0-2.58-.28Z" transform="translate(-1.92 -1.63)"/><path class="cls-1" d="M286.05,92c4.6-22.5,9.45-45.18,14.06-67.64a5.33,5.33,0,0,0-10.27-2.83h0a6.74,6.74,0,0,0-.16.78l-.07.53C285,45.33,280.18,68,275.53,90.46A5.33,5.33,0,0,0,286,92.52,2.5,2.5,0,0,0,286.05,92Z" transform="translate(-1.92 -1.63)"/><path class="cls-1" d="M274.11,95.49a7.71,7.71,0,0,1-1-5.49q3.48-16.89,7-33.86t7-33.69l.1-.63a7.75,7.75,0,0,1,8.9-6.41h0a7.77,7.77,0,0,1,6.4,8.92h0l-.08.42-6.68,32.17q-3.73,17.7-7.37,35.35a2.93,2.93,0,0,1-.1.65,7.75,7.75,0,0,1-14.25,2.5Zm23.26-73.66a2.89,2.89,0,0,0-4-.93h0a2.93,2.93,0,0,0-1.29,1.95l0,.28,0,.27L285,57.24l-7.06,33.81a2.89,2.89,0,0,0,5.68,1.08h0l.05-.28,0-.27q3.65-17.72,7.38-35.51l6.74-32.18A2.82,2.82,0,0,0,297.37,21.83Z" transform="translate(-1.92 -1.63)"/><path class="cls-1" d="M334.19,128.62a216.86,216.86,0,0,1,47.86-25.36c6.49-2.43,2.54-12.37-3.95-9.94A238.87,238.87,0,0,0,327.66,120C322,124,328.55,132.59,334.19,128.62Z" transform="translate(-1.92 -1.63)"/><path class="cls-1" d="M324.29,128a7.9,7.9,0,0,1-1.21-3.42,7.07,7.07,0,0,1,3.16-6.57,240.37,240.37,0,0,1,50.91-26.93,7.41,7.41,0,0,1,7.56,1.15,8.37,8.37,0,0,1,2.94,7.72,7.19,7.19,0,0,1-4.78,5.67,214.52,214.52,0,0,0-47.32,25.07h0a7.53,7.53,0,0,1-7.61.79A8.81,8.81,0,0,1,324.29,128Zm58.15-31.16a3.72,3.72,0,0,0-.7-.83,2.62,2.62,0,0,0-2.68-.28,236,236,0,0,0-49.92,26.35,2.23,2.23,0,0,0-1.1,2.11,3.66,3.66,0,0,0,2,2.77,2.64,2.64,0,0,0,2.71-.4A218.08,218.08,0,0,1,381.16,101a2.39,2.39,0,0,0,1.68-1.79,3.43,3.43,0,0,0-.48-2.28Z" transform="translate(-1.92 -1.63)"/></g><rect class="cls-2" x="49.67" y="502.1" width="14.75" height="14.75"/><rect class="cls-2" y="67.83" width="14.75" height="14.75"/><rect class="cls-2" x="99.85" y="109.67" width="14.75" height="14.75"/><rect class="cls-2" x="93.61" width="14.75" height="14.75"/><rect class="cls-2" x="14.75" y="231.7" width="14.75" height="14.75"/><rect class="cls-2" x="22.13" y="417.54" width="14.75" height="14.75"/><rect class="cls-2" x="305.51" y="456.41" width="14.75" height="14.75"/><rect class="cls-2" x="425.69" y="353.03" width="14.75" height="14.75"/><path class="cls-3" d="M59,302V282c.19-.91.41-1.82.55-2.73,1.3-8.23,2.13-16.55,4-24.66a152.17,152.17,0,0,1,22.16-51C88,200,91.56,199,94.71,201s3.69,5.64,1.45,9.32c-1,1.6-2.1,3.12-3,4.76-3.41,6.26-6.75,12.56-10.39,19.34,20.77,0,40.61,0,60.45-.08a3.2,3.2,0,0,0,2.25-1.81c3.7-9.77,10.52-15.85,20.88-17.7a3.09,3.09,0,0,0,2.91-2.92c.77-4,1.61-8,2.58-11.9,4.07-16.54,9.25-32.67,18.23-47.32,1.18-1.92,2.47-3.77,3.92-6-1.28.11-2.11.11-2.91.27a145.15,145.15,0,0,0-43.58,16c-4.43,2.52-8.66,5.41-13,8.1s-9.42.62-10-4.18c-.39-3.08,1.33-5,3.73-6.68a158.16,158.16,0,0,1,68.44-26.73c34.47-4.8,67.16.67,97.94,16.95,6.42,3.4,12.53,7.4,18.83,11.15,11.81-7,23.9-6.22,33.12,2.3,9.49,8.76,10.7,20.45,3.57,34.85.26.4.52.85.82,1.27a156.27,156.27,0,0,1,26.78,65c1,5.83,1.56,11.72,2.33,17.59V302c-.18.81-.41,1.6-.53,2.42-1.09,7.41-1.78,14.91-3.3,22.23-12.9,62.15-66.09,113-128.73,123.09-5.95,1-11.95,1.66-17.93,2.47H210.08a23.65,23.65,0,0,0-2.75-.49,157.6,157.6,0,0,1-73.77-24.42c-2.62-1.66-5.2-3.4-7.71-5-12.12,7.19-24.19,6.37-33.4-2.15-9.49-8.79-10.71-20.52-3.56-34.85-.43-.65-.87-1.36-1.35-2a155.51,155.51,0,0,1-26.18-63.92C60.41,313.59,59.75,307.8,59,302Zm301.38,35c.28-.79.58-1.55.81-2.32a148.08,148.08,0,0,0,.26-84.79c-.68-2.37-1.64-3-4-3-26.34.09-52.67.06-79,.06h-3.29c.11,2,.23,3.66.29,5.31.6,15.21,1.3,30.41,1.71,45.63.16,6-.41,12.08-.5,18.13,0,1,.43,2.51,1.09,2.79,8.22,3.56,13.4,9.7,15.95,18.18Zm-196.43-.1c-.3-3.82-.79-7.44-.84-11.06q-.4-28.59-.59-57.19c0-2-.4-3.1-2.42-4a24.85,24.85,0,0,1-14.27-15.31c-.69-2-1.59-2.47-3.54-2.46-20.36.07-40.73,0-61.1,0H78.5q-14,45.24-.07,89.94Zm78.39,0c3.23-10.13,9.75-16.77,20.21-19.38.67-.17,1.39-1.62,1.44-2.51a438.33,438.33,0,0,0-.66-58.1c-.23-3.29-.64-6.57-1-9.72a5.7,5.7,0,0,0-1-.23c-21.1,0-42.19,0-63.28-.08-1.85,0-2.17,1-2.66,2.33a25.67,25.67,0,0,1-13.63,15.16c-2.13,1-4.43,1.66-6.69,2.48a433.65,433.65,0,0,0,1.5,70.05Zm18.61-102.5c-.68-4.28-1.24-8.19-1.93-12.08-3.26-18.4-7.62-36.5-15.6-53.53-3.46-7.39-7.46-14.49-13.71-20-6.89-6-13.51-6.37-20.08-.06a63.83,63.83,0,0,0-11,14.26c-9.13,16-13.5,33.76-17.12,51.67a3.43,3.43,0,0,0,1.51,2.75,26.07,26.07,0,0,1,12.41,14.72c.64,1.93,1.58,2.28,3.35,2.27,12.12-.06,24.24,0,36.36,0ZM178.08,349.77c.65,4.09,1.22,8,1.9,11.89,3.26,18.5,7.66,36.68,15.71,53.78,3.61,7.67,7.75,15,14.52,20.48,6.32,5.1,12.45,5.48,18.34-.06a64.94,64.94,0,0,0,11.75-14.81c9.2-16,13.53-33.72,17.18-51.61.15-.76-.63-1.94-1.31-2.58a24.17,24.17,0,0,0-3.17-2,27.23,27.23,0,0,1-10.67-15.11Zm115.63-.09c-4.79,12.22-9.49,16.37-21.72,19.71a4.21,4.21,0,0,0-2.19,2.76c-1.44,5.64-2.48,11.39-4,17-4.3,16.05-9.66,31.69-19.16,45.57-.5.73-1,1.5-1.77,2.79a148.45,148.45,0,0,0,110.8-87.85Zm47.13-143.13c-11.77,4.88-22.12,3.65-30.72-4.86s-9.86-19.06-5.33-30.13c-13.36-11.06-49.88-26-59.32-24.37,17.58,26.37,23.32,56.59,28.17,87.06H356.4C351,224.65,345.94,215.64,340.84,206.55Zm-146.9,231c-18-26.92-23.75-57.14-28.61-87.77H82.55c5.41,9.61,10.51,18.69,15.59,27.73,11.65-4.77,21.83-3.68,30.37,4.55,8.94,8.6,10.26,19.08,5.58,30.62A146.62,146.62,0,0,0,193.94,437.53ZM342.37,183.27a13.78,13.78,0,1,0-13.86,13.61A13.81,13.81,0,0,0,342.37,183.27Zm-172,71.19a13.76,13.76,0,1,0-13.6-13.86A13.84,13.84,0,0,0,170.39,254.46ZM124.16,401.08a13.78,13.78,0,1,0-13.86,13.61A13.82,13.82,0,0,0,124.16,401.08Zm157.53-57.47a13.68,13.68,0,0,0-13.38-14,13.76,13.76,0,1,0-.53,27.52A13.69,13.69,0,0,0,281.69,343.61Z" transform="translate(-1.92 -1.63)"/><path class="cls-3" d="M115.39,184.46a6.21,6.21,0,0,1-6.43,6.16,6.31,6.31,0,0,1-6.06-6.26,6.39,6.39,0,0,1,6.47-6.2A6.3,6.3,0,0,1,115.39,184.46Z" transform="translate(-1.92 -1.63)"/></svg>