<svg id="Calque_1" data-name="Calque 1" xmlns="http://www.w3.org/2000/svg" viewBox="0 0 440.83 518.39"><defs><style>.cls-1,.cls-2{fill:#ecca50;}.cls-1{stroke:#ecca50;stroke-miterlimit:10;}.cls-3{fill:#11393a;}</style></defs><title>clients-actif</title><g id="Calque_3" data-name="Calque 3"><path class="cls-1" d="M268.4,60.33a173.33,173.33,0,0,1-8.34-52.16c0-3.15-3.23-5.11-6-4.95a5.81,5.81,0,0,0-5,6A185,185,0,0,0,258,64.2a5.59,5.59,0,0,0,7.22,3.15,5.26,5.26,0,0,0,3.32-6.57Z" transform="translate(0 -0.28)"/><path class="cls-1" d="M253.92,59.42a186.7,186.7,0,0,1-7.38-50.15A8.19,8.19,0,0,1,253.65.81l.22,0a8.72,8.72,0,0,1,6.38,2.29A7.2,7.2,0,0,1,262.57,8a169.64,169.64,0,0,0,8.18,51.36l.13.44A7.85,7.85,0,0,1,266,69.62,8.13,8.13,0,0,1,255.6,65v-.17C255,63.13,254.42,61.29,253.92,59.42Zm.38-53.64a3.33,3.33,0,0,0-2.7,3.38,181.27,181.27,0,0,0,8.67,54.18,3.15,3.15,0,0,0,4,1.68,2.78,2.78,0,0,0,1.85-3.47v0l-.13-.42a175.41,175.41,0,0,1-8.44-52.92,2,2,0,0,0-.75-1.52,3.74,3.74,0,0,0-2.49-1Z" transform="translate(0 -0.28)"/><path class="cls-1" d="M340.64,76.3C351.18,55.14,362,33.86,372.56,12.73a5.48,5.48,0,1,0-9.46-5.54h0a3.94,3.94,0,0,0-.37.74l-.21.5C351.94,29.6,341.17,50.84,330.58,72a5.48,5.48,0,0,0,9.85,4.81A1.67,1.67,0,0,0,340.64,76.3Z" transform="translate(0 -0.28)"/><path class="cls-1" d="M327.84,76.63a7.87,7.87,0,0,1,.48-5.72q7.94-15.88,16-31.83T360.2,7.42l.26-.6A8,8,0,0,1,371,2.8h0a8,8,0,0,1,4,10.57h0l-.18.39L359.68,44Q351.28,60.63,343,77.23a2.81,2.81,0,0,1-.26.62,8,8,0,0,1-14.85-1.29ZM370.5,9.51a3,3,0,0,0-3.7-2h0A3,3,0,0,0,365,9.13l-.11.28-.1.26-16,31.79-16,31.77a3,3,0,0,0,5.37,2.57h0l.12-.26.1-.26q8.34-16.66,16.75-33.38L370.4,11.67A2.88,2.88,0,0,0,370.5,9.51Z" transform="translate(0 -0.28)"/><path class="cls-1" d="M378.83,125.52A223.37,223.37,0,0,1,433.17,113c7.1-.7,5.81-11.64-1.3-10.93a245.85,245.85,0,0,0-57.26,13.21C368,117.68,372.17,128,378.83,125.52Z" transform="translate(0 -0.28)"/><path class="cls-1" d="M369.14,122.32a8.14,8.14,0,0,1-.3-3.73,7.29,7.29,0,0,1,4.88-5.7,247.76,247.76,0,0,1,57.8-13.3,7.6,7.6,0,0,1,7.21,3.15,8.64,8.64,0,0,1,.89,8.46,7.43,7.43,0,0,1-6.27,4.37A220.26,220.26,0,0,0,379.63,128h0a7.78,7.78,0,0,1-7.78-1.23A9,9,0,0,1,369.14,122.32Zm66.11-15.59a3.81,3.81,0,0,0-.48-1,2.7,2.7,0,0,0-2.58-1,243.21,243.21,0,0,0-56.66,13,2.29,2.29,0,0,0-1.65,1.81,3.75,3.75,0,0,0,1.28,3.29,2.7,2.7,0,0,0,2.8.32,223.83,223.83,0,0,1,54.94-12.7,2.46,2.46,0,0,0,2.15-1.34,3.57,3.57,0,0,0,.12-2.39Z" transform="translate(0 -0.28)"/></g><rect class="cls-2" y="52.78" width="14.75" height="14.75"/><rect class="cls-2" x="383.12" y="209.47" width="14.75" height="14.75"/><rect class="cls-2" x="368.37" y="380.3" width="14.75" height="14.75"/><rect class="cls-2" x="49.92" y="325.93" width="14.75" height="14.75"/><rect class="cls-2" x="2" y="503.64" width="14.75" height="14.75"/><rect class="cls-2" x="404.59" y="460.61" width="14.75" height="14.75"/><rect class="cls-2" x="19.25" y="194.72" width="14.75" height="14.75"/><rect class="cls-2" x="100.56" y="75.79" width="14.75" height="14.75"/><path class="cls-3" d="M182.75,332.09c-1.18,2.92-1.83,4.94-2.77,6.82-7.43,14.91-19.51,23-36.16,24-3,.18-4.15,1.12-5.07,3.83-5.27,15.49-10.77,30.9-16.15,46.35a21.31,21.31,0,0,0,.59,16c8.9,20.7,17.72,41.44,26.62,62.14,2.87,6.68,3.12,13.69,2.7,20.75a6.71,6.71,0,0,1-6.86,6.4c-3.61,0-7.08-2.74-6.7-6.48,1.08-10.65-3.79-19.52-7.72-28.73Q120.76,458.59,110.32,434a34.73,34.73,0,0,1-.51-26.05c5.63-15.81,11.09-31.69,16.7-47.79-17-8.44-26.55-21.85-25.43-40.91S113.15,288,132.57,281c-2.69-2-4.81-3.33-6.52-5q-15.66-15.47-31.16-31.1c-4.64-4.65-4.68-7.86-.09-12.47q16.47-16.5,33-32.94c1.09-1.09,2.12-2.22,3.24-3.39-24.49-13-33.2-27.44-29.4-48.37,3.06-16.78,17.74-30.82,34.53-33,20.71-2.67,35.33,6.62,46.65,30,5.17-5.2,10.2-10.29,15.27-15.36q10.52-10.55,21.08-21c4.58-4.55,8-4.58,12.55,0C245.47,122,259.18,135.74,273,149.43c2.4,2.38,4.58,5.25,2.82,8.29a12,12,0,0,1-6.82,5c-13.5,3.37-22.36,14.05-22.23,27.53.12,13.16,9.35,24.11,22.57,26.78,14.25,2.87,28.59-6.64,32-21.06a15,15,0,0,1,3-6.43c2.34-2.57,6.44-2.22,9.28.59q21.78,21.56,43.38,43.3c3.59,3.61,3.26,7.29-.71,11.28Q339.66,261.36,323,278c-1.09,1.09-2.13,2.24-3.27,3.45,21.19,9.46,30.9,23,30.15,41.78-.72,18.28-11.3,31.49-31.35,38.77,0,12.92.1,26,0,39a20.56,20.56,0,0,1-21.31,20.75A47.72,47.72,0,0,1,268,411.48c-1.11-.85-2.2-1.73-3.31-2.6l-1.32.59c1.85,5.07,3.73,10.14,5.56,15.23,2.48,6.85,5.69,13.55,7.23,20.61,2.83,13,.84,25.71-4.9,37.77-.68,1.43-1.27,2.91-2.08,4.26-4.27,7.17-7.25,14.65-6,23.24a3.1,3.1,0,0,1,0,.86c-.33,4.1-3.1,6.89-6.86,6.91a6.83,6.83,0,0,1-6.9-6.84c-.48-8.83.26-17.22,4.71-25.41a86.94,86.94,0,0,0,8.69-22.76c2.25-10.34.06-20.61-5-30-6.11-11.26-8.61-23.23-8.48-36,.26-26.16.15-52.33.05-78.49-.06-14.53-13.27-24.43-26.83-20.31-8.87,2.7-14.59,10.69-14.61,20.63q0,40.33,0,80.65c0,4.31,0,8.62,0,12.93,0,5.82-2.49,9-6.9,9s-6.92-3.19-6.92-9c0-21.42-.06-42.84.06-64.26,0-3.1-.66-5.41-3.05-7.54C188.23,338.37,185.78,335.35,182.75,332.09ZM311.9,208c-10.16,17.13-24.6,25.64-44.17,22.57-17.78-2.8-29.6-13.67-33.59-31.12-4.74-20.78,3.87-36.35,21.51-46.84l-31.18-30.94a32.52,32.52,0,0,1-2.91,3.8c-12.71,12.74-25.48,25.4-38.17,38.14-2.68,2.69-5.44,5-9.45,3.34s-4.2-5.18-4.19-9a36.3,36.3,0,0,0-1.39-11c-4.39-13.63-18.52-21.09-32.75-17.63-13.59,3.3-22.68,16.34-20.69,29.7,2.22,14.94,14.42,25.1,29.24,24.12,4-.26,7.56,0,9.4,4.19s-.71,6.77-3.34,9.39c-11.53,11.47-23,23-34.56,34.42-2.44,2.42-5.11,4.61-7.73,7,1,1.2,1.38,1.79,1.88,2.29q16.32,16.33,32.66,32.65,4.58,4.59,9.14,9.17c2.35,2.36,3.27,5.07,1.76,8.22-1.4,2.94-3.87,4.08-7.07,3.85-1.43-.1-2.88-.16-4.31-.15a27.59,27.59,0,0,0,.09,55.17c16,.1,28.38-12.93,27.75-29.35-.15-3.88-.35-7.59,4-9.46s7,.85,9.71,3.59c3.25,3.3,6.56,6.54,10.26,10.23,1.73-24.74,11.56-37.7,30.25-40.24A33.47,33.47,0,0,1,251,291.94c7.81,6.56,11.5,15.29,12.5,26.67,2.13-2.5,3.3-3.95,4.55-5.34,2.49-2.76,5.41-4.49,9.16-2.66s4.21,5,3.87,8.75a27.55,27.55,0,1,0,55,2.08c-.13-15.89-13-27.91-29.29-27.26-3.94.16-7.7.27-9.48-4s.84-7,3.61-9.74q19.29-19.15,38.46-38.45c1.08-1.09,2.11-2.22,3.25-3.42-9.62-9.61-19-19-28.35-28.3C313.58,209.52,312.83,208.85,311.9,208ZM268.55,333.07l-1.29-.36c-1.35,2.35-3.78,4.66-3.86,7.05-.38,11.9-.47,23.84,0,35.73.61,17.44,15.85,32.13,33.07,32.45,4.94.09,8.13-2.29,8.19-6.79.16-12.62.06-25.24.06-38.13C286.6,360.25,274.47,350.38,268.55,333.07Z" transform="translate(0 -0.28)"/></svg>