<svg id="Calque_1" data-name="Calque 1" xmlns="http://www.w3.org/2000/svg" viewBox="0 0 443.06 503.01"><defs><style>.cls-1,.cls-2{fill:#ecca50;}.cls-1{stroke:#ecca50;stroke-miterlimit:10;}.cls-3{fill:#11393a;}</style></defs><title>clients-coordonnees</title><g id="Calque_3" data-name="Calque 3"><path class="cls-1" d="M254.82,81.56A168.3,168.3,0,0,1,234,34.7c-.82-3-4.31-4-6.91-3.14a5.66,5.66,0,0,0-3.15,6.92A179.81,179.81,0,0,0,246,87.8,5.42,5.42,0,0,0,253.57,89,5.12,5.12,0,0,0,255,82Z" transform="translate(0 -1.32)"/><path class="cls-1" d="M241,84.33A181.43,181.43,0,0,1,221.54,39.1a8,8,0,0,1,4.55-9.71l.21-.07a8.47,8.47,0,0,1,6.56.55,7,7,0,0,1,3.4,4A164.6,164.6,0,0,0,256.77,80l.23.37a7.63,7.63,0,0,1-2.15,10.49A7.9,7.9,0,0,1,244,89.18l-.06-.16C242.93,87.55,241.93,86,241,84.33ZM228,33.9a3.23,3.23,0,0,0-1.69,3.84,176.19,176.19,0,0,0,21.68,48.68,3.06,3.06,0,0,0,4.15.58,2.71,2.71,0,0,0,.87-3.72v0l-.23-.35a170.49,170.49,0,0,1-21.14-47.56,2,2,0,0,0-1.09-1.24,3.72,3.72,0,0,0-2.58-.28Z" transform="translate(0 -1.32)"/><path class="cls-1" d="M326.61,78.49c4.6-22.49,9.45-45.17,14.06-67.64A5.33,5.33,0,0,0,330.4,8h0a5.36,5.36,0,0,0-.15.78l-.08.53C325.53,31.84,320.74,54.47,316.1,77a5.32,5.32,0,0,0,10.44,2A2,2,0,0,0,326.61,78.49Z" transform="translate(0 -1.32)"/><path class="cls-1" d="M314.67,82a7.63,7.63,0,0,1-1-5.48q3.46-16.9,7-33.87t7-33.69l.1-.63a7.75,7.75,0,0,1,8.9-6.41h0a7.76,7.76,0,0,1,6.4,8.92h0l-.07.42L336.4,43.43q-3.72,17.7-7.37,35.35a3.51,3.51,0,0,1-.09.65,7.76,7.76,0,0,1-14.26,2.5ZM337.94,8.34a2.89,2.89,0,0,0-4-.92h0a2.94,2.94,0,0,0-1.28,1.95l0,.29,0,.27-7.05,33.82-7.06,33.82a2.89,2.89,0,0,0,5.68,1.07h0l.05-.27,0-.27q3.66-17.73,7.38-35.52l6.75-32.18A2.89,2.89,0,0,0,337.94,8.34Z" transform="translate(0 -1.32)"/><path class="cls-1" d="M374.75,115.14a217.32,217.32,0,0,1,47.86-25.37c6.49-2.43,2.54-12.37-3.95-9.93a239.11,239.11,0,0,0-50.44,26.72C362.58,110.5,369.11,119.1,374.75,115.14Z" transform="translate(0 -1.32)"/><path class="cls-1" d="M364.86,114.55a7.91,7.91,0,0,1-1.22-3.42,7.06,7.06,0,0,1,3.16-6.56,240.65,240.65,0,0,1,50.91-26.94,7.39,7.39,0,0,1,7.56,1.16,8.37,8.37,0,0,1,3,7.71,7.22,7.22,0,0,1-4.79,5.67,214.74,214.74,0,0,0-47.32,25.07h0a7.51,7.51,0,0,1-7.6.79A8.63,8.63,0,0,1,364.86,114.55ZM423,83.4a3.77,3.77,0,0,0-.7-.84,2.62,2.62,0,0,0-2.68-.28,236,236,0,0,0-49.92,26.36,2.19,2.19,0,0,0-1.09,2.1,3.6,3.6,0,0,0,2,2.77,2.62,2.62,0,0,0,2.71-.4,218.08,218.08,0,0,1,48.39-25.65,2.37,2.37,0,0,0,1.68-1.79,3.4,3.4,0,0,0-.48-2.27Z" transform="translate(0 -1.32)"/></g><rect class="cls-2" y="488.26" width="14.75" height="14.75"/><rect class="cls-2" x="428.31" y="418.1" width="14.75" height="14.75"/><rect class="cls-2" x="218.74" y="458.93" width="14.75" height="14.75"/><rect class="cls-2" x="114.54" y="425.48" width="14.75" height="14.75"/><rect class="cls-2" x="44.16" y="51.94" width="14.75" height="14.75"/><rect class="cls-2" x="139.94" y="68.38" width="14.75" height="14.75"/><path class="cls-3" d="M416.18,381.31c-1.74,7-4.71,13.34-10.6,17.93A27.43,27.43,0,0,1,389,405.31c-1.12,0-2.25.05-3.37.05q-161.1,0-322.21.05c-11.57,0-20.91-3.93-26.57-14.13a30.05,30.05,0,0,1-3.79-13.82q-.37-85.87-.13-171.77c0-8.57,3.72-15.58,10.11-21.29a8.8,8.8,0,0,0,2.62-4.54c1.87-9.41,3.45-18.87,5.2-28.31,2.92-15.78,17.34-25.65,33.16-22.82q32.55,5.82,65.13,11.58c4.44.79,6.58,3.43,5.77,7.09-.72,3.29-3.59,4.74-8.05,3.95Q132,148.73,117.1,146c-11.65-2.09-23.29-4.23-34.94-6.29C72.25,138,64,143.63,62,153.52c-1.59,8-2.94,16.1-4.42,24.31H292.08l.08-.62c-7.24-1.32-14.47-2.65-21.71-3.94q-47.1-8.36-94.21-16.68c-3.13-.56-5.86-1.63-6.3-5.3-.48-4,2.75-6.68,7.37-5.88,16.45,2.84,32.89,5.77,49.33,8.69,42.8,7.62,85.58,15.44,128.45,22.7,8.63,1.46,17.62,1,26.45,1.11,20.66.15,27.64,4.83,34.64,23.75ZM224.55,394.13q81,0,162.05,0c11.54,0,18.34-6.87,18.35-18.42q0-84,0-168c0-11.52-6.87-18.47-18.35-18.47q-162,0-324.1,0c-11.48,0-18.34,7-18.34,18.47q0,84,0,168a24.32,24.32,0,0,0,.33,4.83c1.76,8.53,8.43,13.58,18,13.58Q143.53,394.15,224.55,394.13Z" transform="translate(0 -1.32)"/><path class="cls-3" d="M113.53,280.66c2.46-3.37,4.51-6.18,6.58-9,4.64-6.27,9.85-6.74,15.33-1.31,3.26,3.23,6.41,6.57,9.87,10.13,6.54-11,7.54-21.84,3.41-33.19-.3-.81-.73-1.58-1.06-2.39-1.52-3.73-.55-6.8,2.58-8.18s6-.05,7.72,3.76a46.05,46.05,0,0,1,2.64,32.82c-6.77,23.54-30.41,38.56-54.24,34.51-23.52-4-40.73-25.58-39.7-49.82,1.43-33.7,38.5-55.54,68.75-40.5,4,2,5.42,4.85,4,8-1.56,3.37-4.58,4.08-8.93,2.11-14.58-6.59-30.43-4-41.56,6.83a36.51,36.51,0,0,0-8.15,40.35c.33.77.75,1.51,1.32,2.67,2-2.75,3.85-5.25,5.74-7.69,4-5.14,9.45-5.56,14.12-1C105.74,272.54,109.42,276.45,113.53,280.66Zm-.11,16.59L95,278.9,89.18,287A36.14,36.14,0,0,0,113.42,297.25Zm23.68-7.95L128,280c-1.91,2.65-4,5.53-6,8.34C127.77,295.74,129.72,295.79,137.1,289.3Z" transform="translate(0 -1.32)"/><path class="cls-3" d="M317,326.76H259.38c-1.37,0-3.13.42-4-.26-1.74-1.3-3.9-3.12-4.17-5-.22-1.62,1.63-3.88,3.11-5.27.89-.82,2.83-.71,4.29-.71q58.19,0,116.37,0a16.68,16.68,0,0,1,2.24,0,5.65,5.65,0,0,1,5.27,5.75,5.45,5.45,0,0,1-5.59,5.36c-5.24.14-10.48.06-15.72.06Z" transform="translate(0 -1.32)"/><path class="cls-3" d="M316.59,349.22H259.34a23.11,23.11,0,0,1-3.73-.13c-2.83-.48-4.84-2.43-4.51-5.07.24-2,2-4,3.57-5.45.77-.75,2.6-.56,4-.56q58,0,116,0a13.76,13.76,0,0,1,3.7.3,5.52,5.52,0,0,1-.74,10.81,24.36,24.36,0,0,1-3.73.11Z" transform="translate(0 -1.32)"/><path class="cls-3" d="M317,371.68H259.38c-1.37,0-3.13.42-4-.26-1.73-1.3-3.9-3.11-4.17-5-.22-1.62,1.63-3.87,3.11-5.26.88-.83,2.82-.71,4.29-.72q58.19,0,116.37,0a18.57,18.57,0,0,1,2.24.05,5.65,5.65,0,0,1,5.27,5.75,5.45,5.45,0,0,1-5.59,5.36c-5.24.14-10.48.06-15.72.06Z" transform="translate(0 -1.32)"/><path class="cls-3" d="M316.59,212.8h57.62a26.84,26.84,0,0,1,3.36.08,5.16,5.16,0,0,1,4.83,4.9,5.07,5.07,0,0,1-3.75,5.75,13.32,13.32,0,0,1-4,.48q-58,0-116,0a16.67,16.67,0,0,1-2.24-.06c-3.39-.43-5.69-3-5.47-6s2.49-5,5.81-5.16c2.49-.09,5,0,7.49,0Z" transform="translate(0 -1.32)"/><path class="cls-3" d="M114.63,319.84h39.64a23.5,23.5,0,0,1,3.36.09c2.84.44,4.88,2.32,4.57,5-.23,2-1.88,4.09-3.48,5.48-1,.86-3.08.64-4.68.64q-39.45.06-78.91,0c-.87,0-1.75,0-2.61,0-3.7-.31-6-2.71-5.87-5.95.16-3.09,2.49-5.2,6.1-5.22C86.71,319.81,100.67,319.84,114.63,319.84Z" transform="translate(0 -1.32)"/><path class="cls-3" d="M350.64,235.26c8.35,0,16.71,0,25.06,0,4.17,0,6.64,2,6.76,5.32.13,3.47-2.46,5.86-6.72,5.87q-25.42.07-50.87,0c-4,0-6.59-2.34-6.61-5.63s2.52-5.53,6.57-5.55C333.43,235.23,342,235.26,350.64,235.26Z" transform="translate(0 -1.32)"/><path class="cls-3" d="M114.58,342.3c6.23,0,12.46,0,18.69,0,4.12,0,6.6,2.08,6.67,5.41s-2.42,5.74-6.43,5.77q-19,.11-38.12,0c-4,0-6.44-2.53-6.29-5.89.14-3.21,2.54-5.25,6.42-5.28C101.87,342.26,108.23,342.3,114.58,342.3Z" transform="translate(0 -1.32)"/><path class="cls-3" d="M112.4,252.49a5.58,5.58,0,0,1,5.79,5.51,5.79,5.79,0,0,1-5.42,5.61A5.64,5.64,0,0,1,107,258,5.46,5.46,0,0,1,112.4,252.49Z" transform="translate(0 -1.32)"/></svg>