<svg xmlns="http://www.w3.org/2000/svg" viewBox="0 0 439.49 317.51"><defs><style>.cls-1{fill:#edcb50;}.cls-2,.cls-3,.cls-4,.cls-6{fill:#0f393a;}.cls-2,.cls-3,.cls-4,.cls-5{stroke:#0f393a;stroke-miterlimit:10;}.cls-2{stroke-width:1.2px;}.cls-4{stroke-width:2px;}.cls-5{fill:none;stroke-width:12px;}</style></defs><title>commandes</title><g id="Calque_1" data-name="Calque 1"><g id="Calque_3" data-name="Calque 3"><path class="cls-1" d="M322,118.53a119.51,119.51,0,0,1-14-33.48c-.51-2-3-2.89-4.83-2.32a4,4,0,0,0-2.33,4.84,127,127,0,0,0,14.87,35.24,3.84,3.84,0,0,0,5.33.93,3.62,3.62,0,0,0,1.12-5Z" transform="translate(-5.17 -63.41)"/><path class="cls-1" d="M312.15,120.27A127.8,127.8,0,0,1,299.09,88a5.61,5.61,0,0,1,3.34-6.85l.14-.08a6.08,6.08,0,0,1,4.63.49,4.94,4.94,0,0,1,2.38,3,117.19,117.19,0,0,0,13.8,33l.17.26a5.37,5.37,0,0,1-1.71,7.36,5.58,5.58,0,0,1-7.64-1.38l-.06-.11C313.48,122.59,312.77,121.44,312.15,120.27Zm-8.47-35.91a2.31,2.31,0,0,0-1.27,2.73A124.77,124.77,0,0,0,317,121.89a2.15,2.15,0,0,0,2.93.47,1.92,1.92,0,0,0,.66-2.63l-.16-.26a120.53,120.53,0,0,1-14.21-34,1.45,1.45,0,0,0-.74-.9A2.67,2.67,0,0,0,303.68,84.36Z" transform="translate(-5.17 -63.41)"/><path class="cls-1" d="M372.77,117.47c3.6-15.83,7.38-31.8,11-47.6a3.75,3.75,0,1,0-7.18-2.15h0a2.55,2.55,0,0,0-.11.55l-.07.36c-3.62,15.85-7.37,31.77-11,47.62a3.77,3.77,0,0,0,7.37,1.6A1.64,1.64,0,0,0,372.77,117.47Z" transform="translate(-5.17 -63.41)"/><path class="cls-1" d="M364.28,119.76a5.42,5.42,0,0,1-.61-3.9Q366.39,104,369.17,92t5.49-23.73l.08-.44a5.49,5.49,0,0,1,6.41-4.37h0a5.49,5.49,0,0,1,4.37,6.41h0l-.06.3q-2.64,11.34-5.24,22.67-2.88,12.45-5.73,24.87a3.69,3.69,0,0,1-.08.46,5.49,5.49,0,0,1-10.12,1.55ZM381.87,68a2.05,2.05,0,0,0-2.81-.71h0a2,2,0,0,0-.95,1.3l0,.21,0,.18q-2.74,11.9-5.51,23.82t-5.5,23.81a2,2,0,0,0,4,.85h0l0-.2,0-.19q2.83-12.47,5.76-25l5.24-22.61A2.09,2.09,0,0,0,381.87,68Z" transform="translate(-5.17 -63.41)"/><path class="cls-1" d="M406.24,144.12a154,154,0,0,1,34.23-17.2c4.62-1.62,2-8.7-2.63-7.07a169.56,169.56,0,0,0-36,18.11C397.73,140.68,402.19,146.83,406.24,144.12Z" transform="translate(-5.17 -63.41)"/><path class="cls-1" d="M399.26,143.56a5.66,5.66,0,0,1-.76-2.46,5,5,0,0,1,2.34-4.59,170.82,170.82,0,0,1,36.42-18.27,5.25,5.25,0,0,1,5.31.94,5.9,5.9,0,0,1,2,5.52,5.1,5.1,0,0,1-3.46,3.94,151.43,151.43,0,0,0-33.85,17h0a5.32,5.32,0,0,1-5.41.41A6,6,0,0,1,399.26,143.56Zm41.59-21.13a2.59,2.59,0,0,0-.48-.61,1.85,1.85,0,0,0-1.89-.24,166.94,166.94,0,0,0-35.7,17.86,1.56,1.56,0,0,0-.82,1.48,2.6,2.6,0,0,0,1.39,2,1.85,1.85,0,0,0,1.9-.27,154.07,154.07,0,0,1,34.62-17.39,1.7,1.7,0,0,0,1.24-1.3,2.44,2.44,0,0,0-.32-1.61Z" transform="translate(-5.17 -63.41)"/></g></g><g id="Calque_2" data-name="Calque 2"><path class="cls-2" d="M71.13,154.75V262.36c0,6.44,10,6.45,10,0V154.75C81.13,148.32,71.13,148.31,71.13,154.75Z" transform="translate(-5.17 -63.41)"/><path class="cls-3" d="M117.61,331.71H81.52V315.58c0-6.43-10-6.45-10,0v19.57a4.68,4.68,0,0,0,1.22,3.29,4.56,4.56,0,0,0,4.56,3.27H96.57V354.8H91c-6.43,0-6.45,10,0,10h10.17a4.55,4.55,0,0,0,4.33-2.67,4.74,4.74,0,0,0,1.07-3.12v-17.3h11C124,341.71,124.05,331.71,117.61,331.71Z" transform="translate(-5.17 -63.41)"/><path class="cls-3" d="M322.26,331.71H318q-.36-22.15,0-44.31c.1-6.44-9.9-6.44-10,0q-.36,22.16,0,44.31H188.49a5,5,0,0,0-2-.39c-6.26,0-6.44,9.45-.52,10a5,5,0,0,0,2.08.42H322.26C328.7,341.71,328.71,331.71,322.26,331.71Z" transform="translate(-5.17 -63.41)"/><path class="cls-4" d="M418.36,266.17a17.82,17.82,0,0,0-4.36-9.62c-5.29-5.8-11.92-8.41-19.1-10.84a4.41,4.41,0,0,0-1.13-.37,4.91,4.91,0,0,0-2-.23l-9.41-39.33a5.3,5.3,0,0,0,6.52-4.69c.7-8.83-.3-17.26-7.38-23.37a29.48,29.48,0,0,0-15.28-6.59,5,5,0,0,0-2.52-.64H319V152.8a5.68,5.68,0,0,0,0-.61,6,6,0,0,0-.16-1.27,4.83,4.83,0,0,0-3.37-5.15,4.7,4.7,0,0,0-3-1l-.37,0a5,5,0,0,0-1.2-.15H80.83a5.53,5.53,0,0,0-.84.06l-.2,0c-3.22-.13-6.73-.25-8.6,3-1.32,2.25-1,5.35-1,7.87a5,5,0,0,0,.19,1.21c-.22,2.65,1.38,5.48,4.81,5.48s4.94-2.7,4.82-5.29a4.31,4.31,0,0,0,.18-1.4c0-.25,0-.51,0-.76l.19-.1.16,0,.26,0H309V262.36c0,6.44,10,6.45,10,0v-7.13h72.85c5.17,1.73,9.91,3.38,14,7.31,2.22,2.15,2.85,4.88,2.92,7.74H388.39a5.43,5.43,0,0,0-1.38.17,4.7,4.7,0,0,0-4.79,4.83v20a6.06,6.06,0,0,0,0,.76,5,5,0,0,0,.71,2.45c2.54,4.4,8,8.24,12.59,10.18,4.39,1.84,9,1.43,13.65,1.34v21H391.91c-6.43,0-6.44,10,0,10h21.52a4.72,4.72,0,0,0,3.11-1.06,4.54,4.54,0,0,0,2.68-4.33V269A4.79,4.79,0,0,0,418.36,266.17ZM319,180.49h36.64a5.06,5.06,0,0,0,1.6.19c5.94-.2,12.28.23,17.12,4.08,3.53,2.81,4.57,6.45,4.73,10.39h-.49a5.39,5.39,0,0,0-5.66,0H319Zm0,64.74V205.15H372q4.8,20,9.59,40.08Zm90.18,54.86c-2.83.17-5.71.44-8.34-.2a18.58,18.58,0,0,1-8.66-5.62v-14h17Z" transform="translate(-5.17 -63.41)"/><circle class="cls-5" cx="146.24" cy="280.53" r="30.98"/><circle class="cls-5" cx="351.9" cy="280.53" r="30.98"/><circle class="cls-6" cx="146.24" cy="280.53" r="11.93"/><circle class="cls-6" cx="351.9" cy="280.53" r="11.93"/><path class="cls-6" d="M394.65,332.1c-6.43,0-6.44,10,0,10S401.1,332.1,394.65,332.1Z" transform="translate(-5.17 -63.41)"/><path class="cls-1" d="M291.35,307.45h-90c-6.44,0-6.45,10,0,10h90C297.78,317.45,297.79,307.45,291.35,307.45Z" transform="translate(-5.17 -63.41)"/><path class="cls-1" d="M110.17,308.62h-61c-6.43,0-6.44,10,0,10h61C116.61,318.62,116.62,308.62,110.17,308.62Z" transform="translate(-5.17 -63.41)"/><path class="cls-1" d="M33.09,308.62H10c-6.43,0-6.45,10,0,10H33.09C39.52,318.62,39.53,308.62,33.09,308.62Z" transform="translate(-5.17 -63.41)"/><path class="cls-1" d="M44,282.05q-7.83-.26-15.66.19c-6.4.37-6.44,10.37,0,10q7.83-.45,15.66-.19C50.48,292.27,50.47,282.27,44,282.05Z" transform="translate(-5.17 -63.41)"/><path class="cls-1" d="M141.09,282.8H62.43c-6.43,0-6.44,10,0,10h78.66C147.52,292.8,147.53,282.8,141.09,282.8Z" transform="translate(-5.17 -63.41)"/></g></svg>