<svg id="Calque_1" data-name="Calque 1" xmlns="http://www.w3.org/2000/svg" viewBox="0 0 448.01 461.99"><defs><style>.cls-1{fill:#11393a;}.cls-2{fill:#edcb50;}</style></defs><title>livraison-poemop-a</title><path class="cls-1" d="M404.68,295.37a6.7,6.7,0,0,0-3,3l-35.24,70.55a4.86,4.86,0,0,1-9-3.5l10.24-35.79a6.63,6.63,0,0,0-10-7.41l-58.63,37.31a8.58,8.58,0,0,1-8.49.45,8,8,0,0,1-2.44-1.8,8.63,8.63,0,0,1,.4-12.21,8.29,8.29,0,0,1,.72-.61l42.84-32.13a6.63,6.63,0,0,0-5.4-11.76l-69.34,16a10.11,10.11,0,0,1-12.14-7.55c0-.11,0-.22-.07-.33a10.19,10.19,0,0,1,7.81-11.9l76.62-16.42a6.63,6.63,0,0,0-.2-13l-55.18-10a11.07,11.07,0,0,1,2.9-21.93l63.8,5.31a6.58,6.58,0,0,0,6.32-3.32,6.67,6.67,0,0,0-.37-7.13l-25.38-35.52a9.14,9.14,0,0,1,13.46-12.2l41.91,36.68a6.69,6.69,0,0,0,6.83,1.17l60.29-24.12a6.43,6.43,0,0,0,3.6-8.35v0L447,187.6a5.47,5.47,0,0,0-7.12-3h0l-57.41,23L373,199.22l-23.9-129H349a6.42,6.42,0,0,0-7.34-5.34l-.32.06-221.57,41a6.6,6.6,0,0,0-4.25,2.77L73,170.45a6.57,6.57,0,0,0-1.05,5l18.89,102L57.51,264.12a5.67,5.67,0,0,0-7.37,3.16h0l-.65,1.64a5.83,5.83,0,0,0,3.24,7.58h0l60.85,24.34a6.61,6.61,0,0,0,6.82-1.16L162.34,263a9.15,9.15,0,0,1,13.46,12.2l-25.37,35.52a6.61,6.61,0,0,0-.37,7.12,6.53,6.53,0,0,0,6.31,3.33l63.8-5.31a11.07,11.07,0,0,1,2.9,21.93l-55.18,10a6.63,6.63,0,0,0-.2,13l76.62,16.42a10.13,10.13,0,0,1-4.12,19.84l-.28-.06-69.34-16a6.62,6.62,0,0,0-5.46,11.75L208,424.92a8.63,8.63,0,0,1-9.06,14.61c-.26-.13-.51-.28-.75-.43L139.5,401.76a6.63,6.63,0,0,0-9.49,8.55l13.26,26.51a8.2,8.2,0,0,1-11,11,8.44,8.44,0,0,1-3.75-3.9l-33-66a6.7,6.7,0,0,0-3-3L58.78,358a6.76,6.76,0,0,0-9,3h0a6.53,6.53,0,0,0,2.89,8.76h0l32,16,32.15,64.3a21.46,21.46,0,1,0,38.4-19.19l-2.56-5.11,38.45,24.47a21.88,21.88,0,0,0,24.87-36l-17.86-13.35,38.8,9A23.32,23.32,0,0,0,249.36,365l24.88-4.61c.21.55.38,1.11.64,1.66a21.88,21.88,0,0,0,29.36,9.78,22.36,22.36,0,0,0,2-1.11l43.91-27.94-5.44,19a18.08,18.08,0,0,0,11.69,22.16,17.64,17.64,0,0,0,5.67.93,18.21,18.21,0,0,0,16.26-10l34.32-68.64,31.54-15.77a7,7,0,0,0,3.12-9.38l-.36-.72a5.46,5.46,0,0,0-7.31-2.45h0ZM296.17,127.17l-66.29,12.27,31.86-46.33L328,80.83ZM177.75,149.09l31.85-46.33,33.7-6.25-31.85,46.34Zm32.3,7.5,13.27,71.68-39.1,7.24L171,163.82Zm-85.16-38.15,66.28-12.28L159.31,152.5,93,164.77ZM153.61,253l-38.85,34-9.32-3.73L86.23,179.51l71.68-13.27,14.48,78.2a6.56,6.56,0,0,0,2.86,4.24A22.35,22.35,0,0,0,153.61,253Zm65.47,49.63-49.54,4.13,17-23.88a22.17,22.17,0,0,0-4.89-31,21.4,21.4,0,0,0-3.78-2.22,6.74,6.74,0,0,0,1,.17,6.22,6.22,0,0,0,1.22-.11l52.13-9.65a6.63,6.63,0,0,0,5.31-7.72l-14.45-78.21,71.69-13.25,1.91,10.46a5.43,5.43,0,0,0,6.32,4.34l2.39-.44a5.38,5.38,0,0,0,4.33-6.27v0l-2.65-14.31,31.86-46.34,17.91,96.74-13.25-11.59a22.4,22.4,0,0,0-33,29.87l17.09,23.88-49.54-4.12a24.32,24.32,0,0,0-26.28,22.19c0,.31-.05.63-.06.94a23.92,23.92,0,0,0,2.61,12.12,24.29,24.29,0,0,0,17.36,12.92l22.25,4-43.9,9.41a23.42,23.42,0,0,0-18.22,20.37,24.33,24.33,0,0,0-12.83-2.47ZM273.2,347.1l-57,10.55-13-2.8,22.25-4a24,24,0,0,0,19.8-22.07,23.16,23.16,0,0,0,15,1.65l38.8-9-17.76,13.32a22,22,0,0,0-8.12,12.35Z" transform="translate(0 0.02)"/><path class="cls-2" d="M374.54,453.74h0a6.62,6.62,0,0,0,6.61,6.63h0a46.47,46.47,0,0,0,45.77-38.77,6.61,6.61,0,0,0-5.51-7.55,7.17,7.17,0,0,0-1-.08h0a6.66,6.66,0,0,0-6.54,5.59,33.19,33.19,0,0,1-32.67,27.55h0a6.62,6.62,0,0,0-6.63,6.61Z" transform="translate(0 0.02)"/><path class="cls-2" d="M361.28,427.23h0a6.63,6.63,0,0,0-6.63,6.63h0a6.62,6.62,0,0,0,6.62,6.62h0a46.47,46.47,0,0,0,45.82-39.11,6.3,6.3,0,0,0-5.26-7.2,5.51,5.51,0,0,0-1-.08h0a7.14,7.14,0,0,0-7,6A33.19,33.19,0,0,1,361.28,427.23Z" transform="translate(0 0.02)"/><g id="Calque_3" data-name="Calque 3"><path class="cls-2" d="M55,133.73a155.47,155.47,0,0,1-46.74-7.32c-2.62-.83-5.25,1.33-5.88,3.77a5.21,5.21,0,0,0,3.77,5.9,165.34,165.34,0,0,0,49.27,7.6,5,5,0,0,0,4.68-5.28,4.72,4.72,0,0,0-4.76-4.65Z" transform="translate(0 0.02)"/><path class="cls-2" d="M50.2,145.81a166.89,166.89,0,0,1-44.77-7.6,7.32,7.32,0,0,1-5.31-8.4v-.2a7.9,7.9,0,0,1,3.72-4.8,6.43,6.43,0,0,1,5-.57,152.49,152.49,0,0,0,46,7.23h.41a7,7,0,0,1,7,6.92,7.29,7.29,0,0,1-6.76,7.53h-.16C53.68,145.92,51.93,145.92,50.2,145.81ZM4.57,130.65a3,3,0,0,0,2.16,3.27,162.57,162.57,0,0,0,48.6,7.59,2.81,2.81,0,0,0,2.53-2.92,2.51,2.51,0,0,0-2.47-2.54H55a157,157,0,0,1-47.42-7.47,1.87,1.87,0,0,0-1.51.21A3.41,3.41,0,0,0,4.57,130.65Z" transform="translate(0 0.02)"/><path class="cls-2" d="M88.55,76.63C73.45,61.81,58.32,46.7,43.24,31.92a4.89,4.89,0,1,0-7.3,6.5h0a4.18,4.18,0,0,0,.53.5l.36.33C51.93,54.1,67,69.15,82.14,84A4.92,4.92,0,1,0,89,76.92,2.34,2.34,0,0,0,88.55,76.63Z" transform="translate(0 0.02)"/><path class="cls-2" d="M85.29,87.63a7.08,7.08,0,0,1-4.74-2Q69.21,74.49,57.87,63.24T35.31,40.92l-.44-.39a7.16,7.16,0,0,1-.46-10.1h0A7.16,7.16,0,0,1,44.51,30h0l.28.27Q55.58,40.92,66.37,51.55,78.21,63.28,90,74.92a4.28,4.28,0,0,1,.45.4,7.15,7.15,0,0,1-5.2,12.29ZM39.93,32.74a2.68,2.68,0,0,0-2.71,2.63h0a2.67,2.67,0,0,0,.8,1.94l.21.17.19.16Q49.73,48.82,61.07,60T83.73,82.42a2.66,2.66,0,0,0,3.68-3.85h0l-.2-.17L87,78.23Q75.13,66.56,63.24,54.75L41.73,33.48A2.7,2.7,0,0,0,39.93,32.74Z" transform="translate(0 0.02)"/><path class="cls-2" d="M141,57.73A200.22,200.22,0,0,1,145.34,8c1.36-6.24-8.3-8.16-9.64-1.92a219.86,219.86,0,0,0-4.56,52.38C131.37,64.81,141.25,64.07,141,57.73Z" transform="translate(0 0.02)"/><path class="cls-2" d="M135.61,65.09a7.54,7.54,0,0,1-3.25-.84,6.53,6.53,0,0,1-3.49-5.73,222.69,222.69,0,0,1,4.64-52.9A6.85,6.85,0,0,1,138.18.36a7.74,7.74,0,0,1,7.5,1.56,6.66,6.66,0,0,1,2,6.54,197.67,197.67,0,0,0-4.29,49.18h0a6.92,6.92,0,0,1-3.25,6.28A8,8,0,0,1,135.61,65.09Zm5-60.6a3.35,3.35,0,0,0-1,.13,2.39,2.39,0,0,0-1.56,1.93,217.31,217.31,0,0,0-4.6,51.82,2,2,0,0,0,1.08,1.91,3.35,3.35,0,0,0,3.15-.18,2.4,2.4,0,0,0,1-2.29,201,201,0,0,1,4.38-50.3,2.21,2.21,0,0,0-.6-2.27,3.25,3.25,0,0,0-2-.75Z" transform="translate(0 0.02)"/></g></svg>