<svg id="Calque_1" data-name="Calque 1" xmlns="http://www.w3.org/2000/svg" viewBox="0 0 441.77 517.45"><defs><style>.cls-1,.cls-3{fill:#ecca50;}.cls-1{stroke:#ecca50;stroke-miterlimit:10;}.cls-2{fill:#11393a;}</style></defs><title>total-clients</title><g id="Calque_3" data-name="Calque 3"><path class="cls-1" d="M120,74.79A110.34,110.34,0,0,1,91.21,57.44c-1.55-1.28-3.82-.53-4.89.9a3.7,3.7,0,0,0,.9,4.9A117.79,117.79,0,0,0,117.6,81.45a3.55,3.55,0,0,0,4.49-2.22,3.35,3.35,0,0,0-1.83-4.31Z" transform="translate(0.39 -0.28)"/><path class="cls-1" d="M113.6,81.46a119,119,0,0,1-27.41-17A5.21,5.21,0,0,1,85,57.53l.08-.11a5.55,5.55,0,0,1,3.73-2.17,4.61,4.61,0,0,1,3.33.88,107.89,107.89,0,0,0,28.33,17.11l.27.12a5,5,0,0,1,2.77,6.44A5.18,5.18,0,0,1,117,83l-.09-.06C115.85,82.47,114.72,82,113.6,81.46ZM87.68,59.26a2.13,2.13,0,0,0,.53,2.7,115.49,115.49,0,0,0,29.91,18,2,2,0,0,0,2.44-1.24,1.76,1.76,0,0,0-.92-2.32h0l-.25-.11A111.52,111.52,0,0,1,90.18,58.68a1.29,1.29,0,0,0-1.05-.26,2.41,2.41,0,0,0-1.49.81Z" transform="translate(0.39 -0.28)"/><path class="cls-1" d="M157.41,46.23c-6-13.81-11.85-27.82-17.8-41.62A3.49,3.49,0,1,0,133,6.94h0a4.1,4.1,0,0,0,.21.48l.16.31c5.94,13.83,11.85,27.79,17.8,41.62a3.49,3.49,0,0,0,6.38-2.81A1.17,1.17,0,0,0,157.41,46.23Z" transform="translate(0.39 -0.28)"/><path class="cls-1" d="M152.32,52.59A5,5,0,0,1,149.74,50q-4.47-10.38-8.93-20.83L132,8.44l-.19-.37a5.08,5.08,0,0,1,2.38-6.78h0A5.1,5.1,0,0,1,141,3.67h0l.11.25,8.47,19.8q4.64,10.91,9.29,21.76a1.72,1.72,0,0,1,.2.38,5.08,5.08,0,0,1-6.72,6.69ZM137.2,4.29a1.89,1.89,0,0,0-2.48,1h0a1.94,1.94,0,0,0,0,1.53l.09.16.09.16L143.82,28l8.89,20.81a1.89,1.89,0,1,0,3.45-1.55h0l-.08-.16L156,46.9Q151.32,36,146.65,25.05L138.21,5.23A1.89,1.89,0,0,0,137.2,4.29Z" transform="translate(0.39 -0.28)"/><path class="cls-1" d="M197,47.87A141.92,141.92,0,0,1,213.23,16.3c2.57-3.75-3.28-7.6-5.85-3.86A156.3,156.3,0,0,0,190.3,45.7C188.74,49.94,195.48,52.11,197,47.87Z" transform="translate(0.39 -0.28)"/><path class="cls-1" d="M191.49,51.26a5.15,5.15,0,0,1-1.94-1.38,4.61,4.61,0,0,1-.76-4.71A157.31,157.31,0,0,1,206,11.61a4.82,4.82,0,0,1,4.5-2.21,5.47,5.47,0,0,1,4.47,3,4.73,4.73,0,0,1-.44,4.85,140.41,140.41,0,0,0-16,31.21h0a4.94,4.94,0,0,1-3.79,3.28A5.72,5.72,0,0,1,191.49,51.26Zm19.56-38.54a2.43,2.43,0,0,0-.69-.18,1.7,1.7,0,0,0-1.55.85,154.57,154.57,0,0,0-16.94,32.88,1.44,1.44,0,0,0,.2,1.54,2.38,2.38,0,0,0,2.12.73,1.71,1.71,0,0,0,1.31-1.23,142.69,142.69,0,0,1,16.38-31.92,1.55,1.55,0,0,0,.23-1.6,2.25,2.25,0,0,0-1.11-1Z" transform="translate(0.39 -0.28)"/></g><path class="cls-2" d="M306.14,402.39c9.49,2.2,18.85,3.39,27.49,6.56,30.67,11.25,50.48,40.08,50.76,72.66.07,8.76,0,17.52,0,26.28,0,7.6-2.22,9.84-9.77,9.84H66.79c-8.23,0-10.48-2.05-10.27-10.18.34-13.47-.61-27.22,1.74-40.36,6.53-36.44,36.91-61.78,74-63.45.72,0,1.43-.11,2.1-.16,1.39-7.94,1.3-7.81-5.21-12.17-54.17-36.19-81.36-87-79.5-152C52,157.76,115.49,88.51,196.41,77.56c91.41-12.37,175.23,47.74,192.24,137.85a170.59,170.59,0,0,1-77.27,176.06C306.26,394.68,305.05,398.09,306.14,402.39ZM306,377.74c51.58-32,86.25-102.23,64.93-175.09A156.84,156.84,0,0,0,64.65,228.79C56.22,300.51,98.6,357,134.93,377.25c0-3.22-.18-6.35,0-9.44a7,7,0,0,1,9.08-6.49c2.86.76,5.6,2,8.46,2.76,10.54,2.82,21.11,5.53,32.28,8.45,0-5.54-.12-10,0-14.4.1-2.49-.9-3.72-2.88-5.31-5.63-4.49-11.57-9-15.85-14.63-3.25-4.28-6.12-6-11.38-5.91-9.14.08-16-4.53-19.48-13s-2.05-16.48,4.38-23c5.41-5.51,10.77-10.64,11.51-19.12.24-2.75.32-4.87-.77-7.46-4.86-11.58-10.31-23-13.88-35-4.72-15.87-.51-26,13.54-35A88.33,88.33,0,0,1,170.44,190c26.09-8.32,52.81-9,79.71-5,15.06,2.26,29.62,6.19,42.25,15.3,10.71,7.74,15.68,17.69,12.87,31.19-2.87,13.81-8.77,26.36-14.87,38.9A10,10,0,0,0,290,277c2.87,10.08,2.88,19.6-3.9,28.32a7.43,7.43,0,0,0-1.44,4c-.91,19.26-9.51,33.9-26,43.93-1.08.66-2.35,2.07-2.4,3.19-.26,5-.12,10-.12,15.26a25,25,0,0,0,3.44-.38c12-3.17,24.06-6.31,36.06-9.6,6.22-1.71,10.22,1.06,10.38,7.51C306,371.87,306,374.54,306,377.74Zm0,40.4c0,2-.07,3.79,0,5.53.21,4.49-1.89,7.14-6.12,8.62q-76.81,26.82-154.14,1.58c-10.4-3.4-10.35-3.53-10.91-14.53a5.17,5.17,0,0,0-.52-1.34,62.69,62.69,0,0,0-31,8.28c-25.59,14.47-38.47,45.48-32,76.86h42.34V453.88H128v49.39h185.2V453.91h14.32v49.31h41.78c0-10.76,1.09-21.38-.2-31.7C365.3,441.58,336.27,417.19,306,418.14ZM233.08,225.42a9.66,9.66,0,0,0-.34,3c1.94,8.17-1.14,14.48-7.07,19.84-2.09,1.89-3.93,4-6,6-10.74,10.18-26.44,9.91-36.67-.75-2.16-2.25-4.25-3.68-7.38-2.44a7.29,7.29,0,0,0-5.07,7.12c-.07,4.6.38,9.25-.19,13.78a12,12,0,0,1-3.6,7c-4.46,3.83-4.47,13.42,0,17.24a13,13,0,0,1,3.63,7c.74,3.73.61,7.65.73,11.5.09,2.87,1.49,3.61,4.25,3.58,13.36-.14,26.72-.06,40.08-.06h4.63v14.47H180.41l-.69,1.44c4.78,3,9.3,6.6,14.38,8.93,7.66,3.53,15.68,6.29,23.63,9.13a8.75,8.75,0,0,0,5.45,0c8-2.84,15.87-5.8,23.68-9,11.79-4.85,19.28-13.66,22.15-26,1-4.41.41-9.2,1.27-13.67a13.81,13.81,0,0,1,3.84-7.31c3.78-3.38,4.31-13.86.06-16.6a8.31,8.31,0,0,1-4.07-7.8c.07-9.65,0-19.29,0-28.94,0-6.72-1.38-8.47-8-10.19q-12.48-3.24-25-6.38C235.85,225.92,234.58,225.72,233.08,225.42Zm-77.06,25,1.5-.19c.22-.36.46-.72.67-1.1,8.05-14.73,23.38-16.89,35.29-5,4.5,4.5,10.84,4.85,15.65.66,2.46-2.14,4.5-4.74,6.94-6.91s3-4.23,2.52-7.42c-1.93-12.3,8.15-21.65,20.17-18.78q15.13,3.61,30.15,7.74a21.14,21.14,0,0,1,15.68,20.35c.05,2.54,0,5.08,0,7.62l1.44.19c1.85-7,3.87-13.88,5.47-20.9,1-4.35-.18-8.66-3.92-11.14-6.24-4.13-12.51-8.8-19.48-11.15-28-9.43-56.56-9.44-85.21-3.13-10.21,2.25-19.94,5.77-28.15,12.62-4.18,3.49-6.77,7.75-5.4,13.23C151.3,234.92,153.77,242.62,156,250.38ZM291.53,402.6q-71.25,30.79-142.1,0a15.59,15.59,0,0,0-.25,1.83c0,4,.22,8-.1,12-.26,3.15,1,4.27,3.84,5.17A218.82,218.82,0,0,0,261,428.36c10.38-2,20.56-5,30.54-7.46Zm-.18-24.36q-70.89,21.61-141.87,0c-.77,8.29-.79,8.34,6.49,11.52q64.77,28.22,129.48-.2C292.34,386.51,292.3,386.41,291.35,378.24Zm-92.09-4.17H241.6V360.53c-5.75,2.16-11,4.53-16.54,6a18.18,18.18,0,0,1-9.32,0c-5.5-1.53-10.77-3.89-16.48-6Zm-46.2-70.52c-4.69,3.56-6.19,6.73-4.51,10.31s4.51,4.78,9.16,4C155.13,313.12,158.46,307.17,153.06,303.55Z" transform="translate(0.39 -0.28)"/><path class="cls-3" d="M407.64,76.06a57.21,57.21,0,0,1,5.07,4.38,6.06,6.06,0,0,1,1.09,3.33c1.5,11.78,8.21,18.11,19.89,19.83,5.11.76,7.62,3.82,7.69,7.81s-2.57,6.85-7.86,8.18c-2,.51-4,1.15-6,1.65-6.35,1.59-10.28,5.57-11.94,11.88-.75,2.86-1.43,5.75-2.35,8.55a7.73,7.73,0,0,1-14.72,0c-.87-2.67-1.6-5.39-2.26-8.12-1.64-6.72-5.82-10.81-12.53-12.4-2.3-.54-4.59-1.16-6.87-1.78-4-1.1-6.57-3.64-6.54-7.9,0-4,2.43-6.54,6.3-7.6,1.86-.5,3.73-1,5.61-1.37q11.92-2.52,14.47-14.41a61.61,61.61,0,0,1,1.66-6.45C399.57,78,402.56,75.9,407.64,76.06Zm-8.48,35.24,6.26,7.28,6.82-7-6.14-7.11Z" transform="translate(0.39 -0.28)"/><path class="cls-3" d="M36.63,353.69C38.07,355,40.24,357,42.29,359a3.63,3.63,0,0,1,.71,2.08c1.4,12.4,8.47,18.9,20.71,20.57,4.64.64,7.14,4,7,7.91-.19,4.56-3,6.86-7.19,7.82-1.44.34-2.87.73-4.33,1-8.33,1.65-13.31,6.65-15,14.95a53.69,53.69,0,0,1-1.51,6C41.42,423,38.79,425.08,35,425a7.3,7.3,0,0,1-7.22-5.57c-.86-2.83-1.62-5.69-2.38-8.56-1.62-6.16-5.58-10-11.7-11.57-2.57-.69-5.17-1.3-7.73-2-3.84-1.08-6.26-3.58-6.31-7.62S1.79,382.5,5.74,382c13-1.69,20.16-8.73,21.76-21.8C28,356.22,31.16,354.29,36.63,353.69Zm5.42,35.49c-2-2-4.74-4.65-6.74-6.62l-6.67,7c1.86,2.12,4.31,4.94,6,6.86Z" transform="translate(0.39 -0.28)"/><path class="cls-3" d="M27.77,111.77v13.71H14V111.77Z" transform="translate(0.39 -0.28)"/><path class="cls-3" d="M412.55,403.62H399V389.76h13.55Z" transform="translate(0.39 -0.28)"/><path class="cls-3" d="M156.09,140.28V154H142.3v-13.7Z" transform="translate(0.39 -0.28)"/><path class="cls-3" d="M298.7,140.4V154H284.84V140.4Z" transform="translate(0.39 -0.28)"/><path class="cls-3" d="M99.48,190.11h13.73v13.8H99.48Z" transform="translate(0.39 -0.28)"/><path class="cls-3" d="M341.42,190.17v13.68H327.66V190.17Z" transform="translate(0.39 -0.28)"/><path class="cls-3" d="M99.06,254.3V268H85.27V254.3Z" transform="translate(0.39 -0.28)"/><path class="cls-3" d="M341.83,268.08v-13.7h13.78v13.7Z" transform="translate(0.39 -0.28)"/></svg>