<svg id="Calque_1" data-name="Calque 1" xmlns="http://www.w3.org/2000/svg" viewBox="0 0 395.56 517.18"><defs><style>.cls-1{fill:#edcb50;}.cls-2{fill:#11393a;}</style></defs><title>cotation-poemop</title><circle class="cls-1" cx="197.07" cy="204.9" r="69.08"/><path class="cls-1" d="M55.77,138.25A157.31,157.31,0,0,1,8.2,132.37c-2.69-.74-5.27,1.52-5.83,4a5.25,5.25,0,0,0,4,5.85,166.86,166.86,0,0,0,50.15,6.08,5.09,5.09,0,0,0,4.56-5.5,4.79,4.79,0,0,0-5-4.56Z" transform="translate(0 0)"/><path class="cls-1" d="M51.33,150.67a169.28,169.28,0,0,1-45.59-6.25,7.42,7.42,0,0,1-5.65-8.36v-.18a7.92,7.92,0,0,1,3.6-5,6.42,6.42,0,0,1,5.06-.74A154.84,154.84,0,0,0,55.56,136H56a7.1,7.1,0,0,1,7.34,6.78,7.39,7.39,0,0,1-6.6,7.86h-.17C54.84,150.64,53.08,150.67,51.33,150.67ZM4.61,136.79A3.06,3.06,0,0,0,6.89,140a164.69,164.69,0,0,0,49.47,6.07,2.83,2.83,0,0,0,2.46-3,2.54,2.54,0,0,0-2.58-2.49h-.4a159.29,159.29,0,0,1-48.26-6,1.82,1.82,0,0,0-1.52.26A3.49,3.49,0,0,0,4.61,136.79Z" transform="translate(0 0)"/><path class="cls-1" d="M87.88,79.32C72.11,64.77,56.29,50,40.53,35.49a5,5,0,0,0-7.18,6.87,4.35,4.35,0,0,0,.55.5l.38.32C50.05,57.72,65.86,72.46,81.63,87a5,5,0,0,0,6.68-7.37A3.19,3.19,0,0,0,87.88,79.32Z" transform="translate(0 0)"/><path class="cls-1" d="M85,90.56a7.14,7.14,0,0,1-4.87-1.87q-11.85-10.9-23.7-21.92T32.79,44.93l-.46-.38a7.25,7.25,0,0,1,9.44-11l.29.26Q53.33,44.19,64.6,54.65,77,66.14,89.34,77.56a5.71,5.71,0,0,1,.47.39A7.25,7.25,0,0,1,85,90.56ZM37.2,36.48a2.7,2.7,0,0,0-1.78,4.69l.21.17.2.15Q47.65,52.41,59.51,63.42T83.18,85.34a2.7,2.7,0,0,0,3.61-4h0l-.22-.16L86.38,81Q74,69.55,61.53,58,50.27,47.56,39,37.16A2.66,2.66,0,0,0,37.2,36.48Z" transform="translate(0 0)"/><path class="cls-1" d="M140.39,58.45a202.14,202.14,0,0,1,2.75-50.51c1.17-6.37-8.68-8-9.84-1.63a223,223,0,0,0-2.88,53.19C130.86,65.88,140.84,64.87,140.39,58.45Z" transform="translate(0 0)"/><path class="cls-1" d="M135.16,66.08a7.55,7.55,0,0,1-3.31-.74,6.61,6.61,0,0,1-3.73-5.69,224.87,224.87,0,0,1,2.95-53.72A6.94,6.94,0,0,1,135.63.44a7.84,7.84,0,0,1,7.6,1.36,6.76,6.76,0,0,1,2.22,6.56,199.51,199.51,0,0,0-2.72,49.94h0a7,7,0,0,1-3,6.46A8.1,8.1,0,0,1,135.16,66.08Zm3-61.53a3.39,3.39,0,0,0-1,.17,2.41,2.41,0,0,0-1.52,2,219.92,219.92,0,0,0-2.95,52.63,2.1,2.1,0,0,0,1.16,1.9A3.41,3.41,0,0,0,137,61a2.45,2.45,0,0,0,1.08-2.36,203.77,203.77,0,0,1,2.78-51.07,2.23,2.23,0,0,0-.69-2.28,3.19,3.19,0,0,0-2-.7Z" transform="translate(0 0)"/><path class="cls-2" d="M390.17,412.46a6.87,6.87,0,0,0,.71-.8C398,402,397,388,388,379.76c-10.26-9.42-23.17-6.66-34.69-1.4-1.81.83-3.58,1.72-5.35,2.63a25.46,25.46,0,0,0-13.28-15.85c-9.59-4.86-20.76-3.88-30.76-.9a116.73,116.73,0,0,0-18.25,7.38,32,32,0,0,0-33.92-14.48c-9,2-18,6.23-26.44,9.84-4.25,1.81-8.46,3.68-12.64,5.65-4.62,2.17-9.16,5.07-14.25,5.88a5,5,0,0,0-1.66.55c-33.62-9.44-68.93-15.41-102.54-2.52-20.76,8-40.39,19.4-60.2,29.56-5.94,3-.7,12,5.19,9,3.64-1.87,7.26-3.81,11-5.77a250,250,0,0,0-10.31,39.94c-1.3,7.58-2.58,15.51,1,22.66a29.09,29.09,0,0,0,9.82,10.53c-15.35,8.81-30.1,19-47.15,24.48C-2.73,509,0,519,6.36,516.9c21.8-7.06,39.87-21.43,60.38-31.23a143.69,143.69,0,0,1,65.06-13.62A140.65,140.65,0,0,1,165.75,477c11.51,3.12,22.57,7.79,33.95,11.36,22.18,7,45.81,11.23,69.11,9.41,23.8-1.85,44.69-11,65.1-22.83,10.77-6.23,21.46-12.71,32.18-19.07,8.89-5.27,19.53-10.31,25-19.52,4.15-6.94,4.77-16.61-.37-23.21A7.56,7.56,0,0,0,390.17,412.46Zm-69.12-40.35c7.47.39,16.43,4.76,17.43,13.08a4.75,4.75,0,0,0,.16.82c-1.24.66-2.5,1.33-3.77,2-7.19,3.6-14.81,6-22.42,8.53a333.26,333.26,0,0,0-40.06,16.61,35.51,35.51,0,0,0-14.9-14.36c-.66-.34-1.32-.64-2-.95,13.06-5.19,25.11-12.94,38-18.56,8.49-3.79,18.13-7.68,27.59-7.16Zm-75.15-2.2c6.23-2.29,12.27-4.35,18.89-2.29a21.59,21.59,0,0,1,11.59,8.71c-11.62,6.12-23.14,12.36-35.91,15.24a4.61,4.61,0,0,0-1,.34l-6.51-2L213.51,384c3-1.53,6-3.17,8.91-4.5Q234,374.28,245.9,369.91Zm136.59,60.57c-4.64,8.76-17.1,13.68-25.2,18.48C347.21,455,337.16,461,327,466.88c-20,11.56-40.48,20-63.8,20.76-22.22.81-44.24-3.81-65.24-10.8-10.68-3.55-21.14-7.81-32.06-10.59A154.58,154.58,0,0,0,68,473.72q-3.23,1.38-6.36,2.93c-5-2.54-10.52-5.94-12.21-11.64-2.08-6.84.92-15.9,2.34-22.64A255,255,0,0,1,64,401.89c22.29-11.75,45.33-22.4,70.79-22.68,33.68-.37,66.43,11.83,98.23,21.58,8,2.44,16.54,4.47,23.46,9.34,6.16,4.31,11.24,12.68,7.26,20.05a4.53,4.53,0,0,0-.32.71c-10.6-1.42-21-3.38-31.2-7.08-12.75-4.64-25.05-9.42-38.59-11.37a134.83,134.83,0,0,0-40.31.34c-6.58,1-3.78,11,2.76,10,23.23-3.58,45.41.37,67.14,8.69a155.07,155.07,0,0,0,33.8,9c10.93,1.55,22.09,3.23,33.16,3.11,19.9-.1,36.11-9.48,53.37-18.16,8.09-4.06,16.72-7.92,25.85-8.75,4.08-.36,10.23-.86,13.09,2.72,2.54,3.12,1.68,7.84,0,11.09ZM382,406.4a4.58,4.58,0,0,0-.47.76c-5.19-1.44-11.21-1.09-16.42-.27-20,3.11-36,16.61-54.81,23-11.8,4-23.87,3.65-36,2.31a21.63,21.63,0,0,0,1.24-9.16,314.87,314.87,0,0,1,33.31-14.33c11.42-4.15,23-7.43,33.8-13.09,8.8-4.61,20.75-13.68,31.26-11.9,11.11,1.9,14.24,14.29,8.12,22.65Z" transform="translate(0 0)"/><path class="cls-2" d="M215.18,203.06a83.54,83.54,0,0,0-13.65-8.63c-4.39-2.28-9.5-4.15-10.56-9.58a9.62,9.62,0,0,1,1.49-7.42c1.91-2.56,4.84-2.83,7.82-2.85,4.06,0,14.33,2.22,11.3,8.59-2.08,4.29,4.35,8.05,6.4,3.71,5.19-10.93-4.57-18.6-15-19.65V155.65c0-4.77-7.41-4.77-7.41,0v12c-5.66,1.3-10.44,5-11.79,11.6A17.76,17.76,0,0,0,185.9,192c2.75,4.45,7.41,6.56,11.86,8.91,7.34,3.81,23.28,11.58,17.38,22.2-2.91,5.19-9.55,7.26-15.2,7.16s-12.66-3.76-10.91-10.38c1.23-4.62-5.93-6.59-7.15-2-2.46,9.34,4.52,17.35,13.31,19.23q-.19,6.48,0,13c.13,4.76,7.55,4.78,7.42,0-.12-4.16-.12-8.33,0-12.54,7.57-.53,15.15-4.06,18.95-10.73C226.5,218,222.47,208.93,215.18,203.06Z" transform="translate(0 0)"/><path class="cls-2" d="M199,254.7a4.71,4.71,0,0,1-4.87-4.54v0c-.11-4-.1-8.14,0-12.19a18.93,18.93,0,0,1-11.48-8.3,15.18,15.18,0,0,1-1.77-12.06,4.37,4.37,0,0,1,3.12-3.24,5.19,5.19,0,0,1,4.92,1.31,4.48,4.48,0,0,1,1.13,4.42,5.72,5.72,0,0,0,.91,5.19c2,2.62,5.95,3.87,9,3.93,4.81.12,11.42-1.58,14.27-6.63a7.75,7.75,0,0,0,.82-6.28c-1.89-6.23-11.34-11.17-17-14.1l-2-1c-4.15-2.14-8.4-4.35-11.05-8.64A18.85,18.85,0,0,1,182.72,179c1.26-6.23,5.42-10.49,11.77-12.2V155.65a4.75,4.75,0,0,1,9.49,0V166.3c6.66.92,12.32,4.24,14.91,8.83,2.08,3.65,2.08,7.86,0,12.19a4.14,4.14,0,0,1-3.41,2.51,5.12,5.12,0,0,1-4.5-2.25,4.77,4.77,0,0,1-.36-4.86,3.2,3.2,0,0,0,0-3.27c-1.71-2.7-7.59-3.84-10.38-3.84-3.29,0-5.49.43-7,2.44a8.51,8.51,0,0,0-1.25,6.58c.83,4.29,4.51,6.12,8.39,8.06l1.63.83a84.09,84.09,0,0,1,13.81,8.72h0c8.69,7,11.27,16.81,6.59,25.06-3.53,6.23-10.52,10.38-18.84,11.17-.08,3.84-.08,7.72,0,11.56a4.42,4.42,0,0,1-4.21,4.64,2.61,2.61,0,0,1-.28,0Zm-13.73-38.41a2.9,2.9,0,0,0-.72.09,2.28,2.28,0,0,0-1.64,1.77,13.08,13.08,0,0,0,1.52,10.44,17.27,17.27,0,0,0,11,7.51l.85.18v.86c-.14,4.29-.15,8.64,0,12.93a2.61,2.61,0,0,0,2.65,2.56h.15a2.35,2.35,0,0,0,2.47-2.21,1.5,1.5,0,0,0,0-.3c-.12-4.15-.12-8.42,0-12.59v-1l.94-.07c8-.56,14.82-4.38,18.13-10.2,5-8.88.16-17.4-6.09-22.42A81.91,81.91,0,0,0,201,195.37l-1.61-.82c-4-2-8.47-4.23-9.5-9.5a10.7,10.7,0,0,1,1.65-8.21c2.25-3,5.65-3.28,8.67-3.3s9.83,1.17,12.12,4.8a5.2,5.2,0,0,1,.12,5.28,2.66,2.66,0,0,0,.21,2.78,3.1,3.1,0,0,0,2.61,1.37,2.06,2.06,0,0,0,1.7-1.33c1.78-3.75,1.8-7.27.06-10.3-2.34-4.15-7.93-7.26-14.24-7.87l-.94-.11V155.71a2.67,2.67,0,1,0-5.33,0v12.82l-.81.19c-3.45.79-9.47,3.24-11,10.79a16.78,16.78,0,0,0,2.09,11.87c2.34,3.79,6.17,5.77,10.22,7.88l2,1c5.94,3.11,15.88,8.21,18,15.33a9.85,9.85,0,0,1-1,7.89c-3.28,5.86-10.75,7.81-16.12,7.7-3.3-.08-8.07-1.36-10.63-4.77a7.86,7.86,0,0,1-1.27-6.92,2.36,2.36,0,0,0-.58-2.42A3.12,3.12,0,0,0,185.25,216.29Z" transform="translate(0 0)"/><path class="cls-2" d="M198.56,277.3A74.45,74.45,0,1,1,273,202.8v0h0A74.53,74.53,0,0,1,198.56,277.3Zm0-141.47a67,67,0,1,0,67,67h0A67.1,67.1,0,0,0,198.56,135.83Z" transform="translate(0 0)"/><path class="cls-2" d="M198.56,278.34A75.49,75.49,0,1,1,274,202.8v0a75.57,75.57,0,0,1-75.48,75.49Zm0-148.89h0a73.41,73.41,0,0,0,0,146.81h0a73.41,73.41,0,1,0,1.75-146.81Zm0,141.48h0a68.07,68.07,0,0,1,0-136.14h0a68.07,68.07,0,0,1,0,136.14Zm0-134.06a66,66,0,1,0,0,132h0a66,66,0,0,0,0-132Z" transform="translate(0 0)"/><path class="cls-2" d="M198.92,307a104.48,104.48,0,1,1,71.73-180.46,3.72,3.72,0,0,1-5.1,5.4h0a96.65,96.65,0,1,0,22.89,33,3.7,3.7,0,1,1,6.72-3.11,1.75,1.75,0,0,1,.11.24,104.49,104.49,0,0,1-96.35,145Z" transform="translate(0 0)"/><path class="cls-2" d="M198.92,308a105.52,105.52,0,1,1,72.44-182.24,4.75,4.75,0,0,1-6.53,6.89,95.64,95.64,0,1,0,22.66,32.63,4.74,4.74,0,0,1,8.63-3.92h0l.12.3a104.13,104.13,0,0,1,8.23,40.87A105.67,105.67,0,0,1,198.92,308Zm.18-209h-.18A103.45,103.45,0,1,0,302.39,202.49a102.36,102.36,0,0,0-8.08-40.08c0-.08-.06-.14-.08-.21a2.67,2.67,0,0,0-3.54-1.3h0a2.66,2.66,0,0,0-1.3,3.54A96.72,96.72,0,0,1,297,202.5a98.1,98.1,0,1,1-30.75-71.32,2.67,2.67,0,1,0,3.66-3.88h0A102.6,102.6,0,0,0,199.1,99.05Z" transform="translate(0 0)"/></svg>