<svg id="Calque_2" data-name="Calque 2" xmlns="http://www.w3.org/2000/svg" viewBox="0 0 122.54 18.97"><defs><style>.cls-1{fill:#0f393a;}.cls-2{fill:#f8f6f4;}</style></defs><title>achat-fioul</title><path class="cls-1" d="M1.29,36.25a3.29,3.29,0,0,1-.4-3L3.74,21.72s0-1.76,4.11-2c0,0,5.72-1.13,6.06,3.42s-.39-6.16,11.25-2.84c0,0,4.21-1.66,5.29.69,0,0,5.77-3.52,7.72,1.46,0,0,2.84-5,9-1.56,0,0,.69-1.44,4.5-1.29s8.42-1.87,8.71,4.21c0,0,.78,4.42-3.23,4.42l.1,7.33s-.49,3.92-6.55,1.67c0,0-6.17,2.44-7.93-1.76,0,0-.59,4.3-6.16,2,0,0-2.87,2.35-6.08-.78,0,0-1.75,2.64-6.05.58,0,0-3.23,2.06-8-.39,0,0-5.25,3.59-7.73-1.27C8.73,35.61,4.29,39.3,1.29,36.25Z" transform="translate(-0.71 -19.34)"/><polygon class="cls-2" points="1.92 15.81 5.57 2.83 10.6 2.83 14.12 15.81 10.33 15.81 9.29 13.27 6.42 13.27 5.64 15.81 1.92 15.81"/><polygon class="cls-1" points="6.55 10.53 7.73 6.68 8.7 10.53 6.55 10.53"/><polygon class="cls-2" points="36.36 15.81 40.01 2.83 45.03 2.83 48.55 15.81 44.77 15.81 43.73 13.27 40.86 13.27 40.07 15.81 36.36 15.81"/><polygon class="cls-1" points="40.99 10.53 42.16 6.68 43.14 10.53 40.99 10.53"/><polygon class="cls-2" points="24.94 2.83 28.59 2.83 28.59 7.46 31.66 7.46 31.66 2.83 34.79 2.83 34.79 16.14 31.79 16.14 31.79 11.05 28.59 11.05 28.59 15.81 24.94 15.81 24.94 2.83"/><polygon class="cls-2" points="48.55 2.83 48.55 6.09 50.83 6.09 50.83 16.14 54.36 16.14 54.36 6.42 56.77 6.42 56.77 2.83 48.55 2.83"/><path class="cls-2" d="M22.84,31.9c1.46-.76,1.75.37,2,1.39.35,1.21-.38,1.84-1.43,2.05-2.48.5-4.83.36-6.56-1.86a8.38,8.38,0,0,1-.16-9c1.58-2.29,3.85-2.74,6.4-2.27.81.16,1.82.45,1.61,1.62S24,26,22.42,25.72C20,25.37,19.47,27,19.49,29,19.52,31.05,20.54,32.17,22.84,31.9Z" transform="translate(-0.71 -19.34)"/><polygon class="cls-1" points="60.62 17.77 60.62 0.81 70.01 0.81 70.01 4.92 65.31 4.92 65.31 7.92 68.77 7.92 68.77 11.51 65.31 11.51 65.31 17.77 60.62 17.77"/><polygon class="cls-1" points="71.25 17.77 80.38 17.77 80.38 13.86 78.23 13.86 78.23 4.45 80.38 4.45 80.38 0.81 71.25 0.81 71.25 4.45 73.59 4.45 73.59 13.79 71.25 13.79 71.25 17.77"/><path class="cls-1" d="M97.29,28.71c0-5.37-2.89-8.68-7.53-8.66s-7.83,3.61-7.88,8.57c0,5.28,2.86,8.61,7.57,8.66C94.48,37.33,97.28,34.26,97.29,28.71Z" transform="translate(-0.71 -19.34)"/><path class="cls-2" d="M86.88,28.75c.09-2,.44-4,2.83-4s2.83,2.09,2.82,3.92-.51,3.87-2.89,3.88S87,30.51,86.88,28.75Z" transform="translate(-0.71 -19.34)"/><path class="cls-1" d="M112.5,22.35c-.15,3,0,5.93-.06,8.89-.09,3.89-2.35,5.8-6.66,5.77s-6.52-1.92-6.59-5.82c0-1.43,0-2.87,0-4.3h0c0-1.24.06-2.49,0-3.73V20.45l4.69,0,0,2.63c-.08,2.39,0,4.78,0,7.17,0,1.39.48,2.21,2,2.22s1.58-1.05,1.58-2.16c0-2.68.1-5.36,0-8V20.45h5.15Z" transform="translate(-0.71 -19.34)"/><polygon class="cls-1" points="113.1 0.81 117.89 0.81 117.89 12.93 122.54 12.93 122.54 17.67 113.1 17.67 113.1 0.81"/></svg>