<svg xmlns="http://www.w3.org/2000/svg" viewBox="0 0 433.31 266.08"><defs><style>.cls-1,.cls-2{fill:#ecca50;}.cls-1{stroke:#ecca50;}.cls-1,.cls-4{stroke-miterlimit:10;}.cls-3{fill:#11393a;}.cls-4{fill:none;stroke:#11393a;stroke-width:11px;}</style></defs><title>achat-groupe-fioul</title><g id="Calque_1" data-name="Calque 1"><g id="Calque_3" data-name="Calque 3"><path class="cls-1" d="M345.53,239.38a116.2,116.2,0,0,1-7.69-34.55c-.14-2.05-2.37-3.29-4.24-3.06a3.9,3.9,0,0,0-3.08,4.24,123.73,123.73,0,0,0,8.2,36.39,3.74,3.74,0,0,0,4.95,1.81,3.53,3.53,0,0,0,1.94-4.59Z" transform="translate(-29.66 -195.94)"/><path class="cls-1" d="M335.81,239.36a125,125,0,0,1-7-33.26,5.48,5.48,0,0,1,4.4-6l.14-.06a5.85,5.85,0,0,1,4.36,1.28,4.81,4.81,0,0,1,1.76,3.32,114,114,0,0,0,7.56,34l.11.28a5.24,5.24,0,0,1-2.9,6.77,5.46,5.46,0,0,1-7.11-2.64l0-.12C336.68,241.81,336.22,240.59,335.81,239.36Zm-1.93-35.92a2.23,2.23,0,0,0-1.67,2.39,121.45,121.45,0,0,0,8,35.92,2.1,2.1,0,0,0,2.73,1A1.87,1.87,0,0,0,344,240.3l-.11-.27A118,118,0,0,1,336.14,205a1.35,1.35,0,0,0-.56-1A2.49,2.49,0,0,0,333.88,203.44Z" transform="translate(-29.66 -195.94)"/><path class="cls-1" d="M394.48,247.13c6.19-14.57,12.57-29.24,18.76-43.8a3.66,3.66,0,1,0-6.55-3.29h0a2.28,2.28,0,0,0-.21.51l-.13.34c-6.21,14.58-12.56,29.22-18.76,43.8a3.67,3.67,0,1,0,6.77,2.82A2.4,2.4,0,0,0,394.48,247.13Z" transform="translate(-29.66 -195.94)"/><path class="cls-1" d="M385.93,247.87A5.33,5.33,0,0,1,386,244q4.67-11,9.39-21.92t9.35-21.81l.15-.41a5.36,5.36,0,0,1,6.91-3.09h0a5.34,5.34,0,0,1,3.08,6.9h0l-.11.27q-4.46,10.41-8.93,20.84-4.92,11.44-9.81,22.89a3.52,3.52,0,0,1-.15.42,5.35,5.35,0,0,1-10-.26Zm25.81-46.61a2,2,0,0,0-2.58-1.16h0a2,2,0,0,0-1.14,1.09l-.06.19-.06.17q-4.66,10.94-9.39,21.91t-9.38,21.9a2,2,0,0,0,3.69,1.51h0l.06-.19.07-.18q4.88-11.48,9.84-23,4.47-10.43,8.92-20.8A2,2,0,0,0,411.74,201.26Z" transform="translate(-29.66 -195.94)"/><path class="cls-1" d="M422,278.49a150.14,150.14,0,0,1,35.82-10.6c4.72-.76,3.41-8-1.3-7.24a164.76,164.76,0,0,0-37.72,11.16C414.43,273.71,417.65,280.39,422,278.49Z" transform="translate(-29.66 -195.94)"/><path class="cls-1" d="M415.4,276.74a5.55,5.55,0,0,1-.31-2.49,4.88,4.88,0,0,1,3-4A166,166,0,0,1,456.23,259a5.09,5.09,0,0,1,4.94,1.81,5.77,5.77,0,0,1,.94,5.62,5,5,0,0,1-4,3.18,148.5,148.5,0,0,0-35.43,10.47h0a5.15,5.15,0,0,1-5.24-.51A5.94,5.94,0,0,1,415.4,276.74ZM459,263.64a2.35,2.35,0,0,0-.36-.66,1.79,1.79,0,0,0-1.77-.56,162.82,162.82,0,0,0-37.35,11,1.54,1.54,0,0,0-1,1.28,2.52,2.52,0,0,0,1,2.15,1.79,1.79,0,0,0,1.88.09,150.27,150.27,0,0,1,36.22-10.71,1.65,1.65,0,0,0,1.42-1,2.44,2.44,0,0,0,0-1.6Z" transform="translate(-29.66 -195.94)"/></g></g><g id="Calque_2" data-name="Calque 2"><path class="cls-2" d="M58.41,331.7v35.21c0,7.53,11.7,7.54,11.7,0V331.7C70.11,324.17,58.41,324.15,58.41,331.7Z" transform="translate(-29.66 -195.94)"/><path class="cls-2" d="M88.17,331.7v35.21c0,7.53,11.7,7.54,11.7,0V331.7C99.87,324.17,88.17,324.15,88.17,331.7Z" transform="translate(-29.66 -195.94)"/><path class="cls-2" d="M118.69,331.7v35.21c0,7.53,11.7,7.54,11.7,0V331.7C130.39,324.17,118.69,324.15,118.69,331.7Z" transform="translate(-29.66 -195.94)"/><path class="cls-2" d="M148.43,331.7v35.21c0,7.53,11.7,7.54,11.7,0V331.7C160.13,324.17,148.43,324.15,148.43,331.7Z" transform="translate(-29.66 -195.94)"/><path class="cls-2" d="M179,331.7v35.21c0,7.53,11.7,7.54,11.7,0V331.7C190.65,324.17,179,324.15,179,331.7Z" transform="translate(-29.66 -195.94)"/><path class="cls-2" d="M209.48,331.7v35.21c0,7.53,11.7,7.54,11.7,0V331.7C221.18,324.17,209.48,324.15,209.48,331.7Z" transform="translate(-29.66 -195.94)"/><path class="cls-2" d="M239.22,331.7v35.21c0,7.53,11.7,7.54,11.7,0V331.7C250.92,324.17,239.22,324.15,239.22,331.7Z" transform="translate(-29.66 -195.94)"/><path class="cls-2" d="M269.35,331.7v35.21c0,7.53,11.7,7.54,11.7,0V331.7C281.05,324.17,269.35,324.15,269.35,331.7Z" transform="translate(-29.66 -195.94)"/><path class="cls-3" d="M323.72,360.13v32.09c0,7.53,11.7,7.54,11.7,0V360.13C335.42,352.6,323.72,352.59,323.72,360.13Z" transform="translate(-29.66 -195.94)"/><path class="cls-3" d="M295.52,420.93H182.43c-7.52,0-7.54,11.7,0,11.7H295.52C303.05,432.63,303.06,420.93,295.52,420.93Z" transform="translate(-29.66 -195.94)"/><path class="cls-3" d="M89.88,417.76l-9.78,9.77c-5.32,5.33,2.94,13.61,8.28,8.28L98.15,426C103.47,420.71,95.21,412.43,89.88,417.76Z" transform="translate(-29.66 -195.94)"/><path class="cls-3" d="M157.46,427.53l-9.78-9.77c-5.32-5.33-13.61,2.94-8.27,8.27l9.77,9.78C154.51,441.13,162.79,432.87,157.46,427.53Z" transform="translate(-29.66 -195.94)"/><path class="cls-3" d="M338.59,427.53l-9.78-9.77c-5.32-5.33-13.6,2.94-8.27,8.27l9.78,9.78C335.64,441.13,343.92,432.87,338.59,427.53Z" transform="translate(-29.66 -195.94)"/><circle class="cls-4" cx="58.71" cy="231.04" r="29.54"/><circle class="cls-4" cx="118.77" cy="231.04" r="29.54"/><circle class="cls-4" cx="299.91" cy="231.04" r="29.54"/><path class="cls-3" d="M413.7,413.28a6.4,6.4,0,0,0-.22-1.69V363a5.92,5.92,0,0,0-.58-2.62c0-.22-.09-.45-.15-.68-3.84-14.05-7.64-28.13-11.53-42.17-1.68-6-3.58-12.5-7.61-17.45-3.87-4.74-8.19-4.42-13.18-4.57a6.1,6.1,0,0,0-2.34-.45H333a6.87,6.87,0,0,0-1.32-.13,6.25,6.25,0,0,0-1.55.2h-.12l-.45,0-.52,0c-3.8,0-5.67,3-5.64,5.92a6.84,6.84,0,0,0-.1,1.5c0,.11,0,.22,0,.33a6.37,6.37,0,0,0,0,1.07,6.86,6.86,0,0,0,.08,1.63,6.17,6.17,0,0,0,.09,1.21,6.59,6.59,0,0,0-.07.91v11.36h-12.1V282.57h29c7.52,0,7.54-11.7,0-11.7h-45.2a6.43,6.43,0,0,0-1.35.14,23,23,0,0,0-6.77,1.12c-4.43,1.49-7.64,4.61-10.85,7.87s-5.71,7-9.09,9.84c-4.18,3.53-7.82,5.21-13.28,4.9a6.13,6.13,0,0,0-1.37.06H36.87a5.76,5.76,0,0,0-2.47.53,5.12,5.12,0,0,0-3,2.37A6,6,0,0,0,30,301.26a6.67,6.67,0,0,0-.24,2.88V391.7a6.72,6.72,0,0,0,.14,1.38,1.49,1.49,0,0,1,0,.21,6.5,6.5,0,0,0,.45,3.09,6.12,6.12,0,0,0,.9,2.35,5.26,5.26,0,0,0,4.51,3.53,6.1,6.1,0,0,0,3.26.36,5.83,5.83,0,0,0,1.78.27H151.72c7.53,0,7.54-11.7,0-11.7H41.42V306.5H253.65a6.84,6.84,0,0,0,.79-.05c9.36.32,17.44-4.07,23.65-11.1a119.87,119.87,0,0,1,9.14-9.85c3.61-3.26,7.87-3,12.42-2.61v88a6.11,6.11,0,0,0-.2,2.95c1.51,9.07-8.25,15.53-16.25,17.26H197.57c-7.53,0-7.55,11.7,0,11.7h86.08a6.38,6.38,0,0,0,1.75-.24c14-2.31,25.86-13.92,25.66-28a6.07,6.07,0,0,0,.29-1.91V330.76h12.1v6.94c0,7.52,11.7,7.54,11.7,0v-30a7,7,0,0,0-.07-.94h12.5v27.67a6.34,6.34,0,0,0,.2,1.56,16.76,16.76,0,0,0,3.78,11.73,18.4,18.4,0,0,0,4.71,4.48,25.26,25.26,0,0,0,4.59,1.93,5.29,5.29,0,0,0,.82.29l1.13.41a4.85,4.85,0,0,0,3.61-.16l31.49.14a6.9,6.9,0,0,0,1.33-.13q1.13,4.06,2.23,8.14a6,6,0,0,0,.31.87v9.5H395.5a5.85,5.85,0,0,0,0,11.7h6.28v12.37h-50.5c-7.53,0-7.54,11.7,0,11.7h50.5v4.91a6,6,0,0,0,.2,1.57l0,1.88a12.63,12.63,0,0,1,0,3.14s-.21.07-.39.13a6,6,0,0,1-1.74.22,7.32,7.32,0,0,0-.95-.07h-.34l-.63-.06a3.94,3.94,0,0,0-1.24.06h-33.4c-7.53,0-7.54,11.7,0,11.7h35.44c4.67.28,9.36-1,12.4-4.82C414.33,423.56,413.66,418.17,413.7,413.28ZM364.35,343a7.94,7.94,0,0,1-3.86-2.73c-1.45-1.88-1.12-3.68-.91-6a4.4,4.4,0,0,0-.3-2V306.76H375.9a6.58,6.58,0,0,0,1,.22c2,.24,4.9-.62,6.78,0s3.22,4.34,4,6.27c2.05,5.29,3.26,11,4.76,16.44l3.65,13.36Z" transform="translate(-29.66 -195.94)"/></g></svg>