<svg xmlns="http://www.w3.org/2000/svg" viewBox="0 0 549.32 666.5"><defs><style>.cls-1,.cls-3{fill:#ecca50;stroke:#ecca50;}.cls-1,.cls-2,.cls-3{stroke-miterlimit:10;}.cls-2{fill:#11393a;stroke:#11393a;}.cls-2,.cls-3{stroke-width:3px;}</style></defs><title>activites-poemop</title><g id="Calque_2" data-name="Calque 2"><path class="cls-1" d="M178.27-44a210,210,0,0,1,2.35-64.08c.68-3.67-2.64-6.85-6-7.31a7,7,0,0,0-7.33,6A224,224,0,0,0,165-41.82a6.8,6.8,0,0,0,7.86,5.44,6.41,6.41,0,0,0,5.5-7.15Z" transform="translate(71.15 118.98)"/><path class="cls-1" d="M161.21-48.47a226.69,226.69,0,0,1,3.06-61.48,9.94,9.94,0,0,1,10.49-8.5l.24,0a10.66,10.66,0,0,1,7,4.23,8.66,8.66,0,0,1,1.58,6.66,206.79,206.79,0,0,0-2.34,63.05l.05.55a9.47,9.47,0,0,1-8.18,10.56,9.88,9.88,0,0,1-11.24-7.88l0-.22C161.66-43.8,161.41-46.14,161.21-48.47Zm13.1-63.86a4.06,4.06,0,0,0-4,3.41,220.25,220.25,0,0,0-2.39,66.62,3.79,3.79,0,0,0,4.33,2.93,3.39,3.39,0,0,0,3-3.73v0l0-.48a213,213,0,0,1,2.39-65,2.45,2.45,0,0,0-.52-2A4.62,4.62,0,0,0,174.31-112.33Z" transform="translate(71.15 118.98)"/><path class="cls-1" d="M260.52-8c17.56-22.7,35.42-45.49,52.94-68.17a6.65,6.65,0,0,0-.6-9.38,6.66,6.66,0,0,0-9.39.6,7.86,7.86,0,0,0-.59.8l-.39.54c-17.56,22.7-35.38,45.47-52.94,68.17a6.65,6.65,0,0,0,1.28,9.32,6.64,6.64,0,0,0,9.31-1.28A3.19,3.19,0,0,0,260.52-8Z" transform="translate(71.15 118.98)"/><path class="cls-1" d="M245.19-10.61a9.59,9.59,0,0,1,1.93-6.7q13.19-17.05,26.49-34.13T300-85.39l.46-.65A9.69,9.69,0,0,1,314-88.27a9.7,9.7,0,0,1,2.23,13.53l-.32.42q-12.56,16.2-25.19,32.44Q276.83-24.06,263-6.26a8,8,0,0,1-.47.67A9.7,9.7,0,0,1,249-3.75,9.73,9.73,0,0,1,245.19-10.61Zm66.57-69.88a3.62,3.62,0,0,0-4-3.22,3.6,3.6,0,0,0-2.48,1.39l-.2.3-.18.28q-13.17,17-26.49,34.09T252-13.57a3.6,3.6,0,0,0,.71,5.05,3.61,3.61,0,0,0,5.05-.71h0l.2-.3.2-.28q13.81-17.88,27.77-35.77Q298.51-61.79,311.06-78A3.59,3.59,0,0,0,311.76-80.49Z" transform="translate(71.15 118.98)"/><path class="cls-1" d="M294.39,59.56A271.12,271.12,0,0,1,362,57.4c8.62.82,9.65-12.49,1-13.29a297.87,297.87,0,0,0-71.22,2.29C283.39,47.72,285.9,60.91,294.39,59.56Z" transform="translate(71.15 118.98)"/><path class="cls-1" d="M283.62,53.48a10.13,10.13,0,0,1,.61-4.5,8.83,8.83,0,0,1,7.14-5.62,301.27,301.27,0,0,1,71.94-2.28,9.27,9.27,0,0,1,7.84,5.45,10.48,10.48,0,0,1-.93,10.28,9,9,0,0,1-8.49,3.72,267.37,267.37,0,0,0-66.87,2.14h0a9.36,9.36,0,0,1-9-3.31A10.81,10.81,0,0,1,283.62,53.48ZM366,50.42a4.69,4.69,0,0,0-.35-1.37,3.24,3.24,0,0,0-2.85-1.8,295.22,295.22,0,0,0-70.47,2.15,2.77,2.77,0,0,0-2.4,1.76,4.54,4.54,0,0,0,.75,4.22,3.24,3.24,0,0,0,3.27,1.16,273.29,273.29,0,0,1,68.39-2.19,3,3,0,0,0,3-1.17,4.33,4.33,0,0,0,.69-2.8Z" transform="translate(71.15 118.98)"/></g><g id="Calque_3" data-name="Calque 3"><path class="cls-2" d="M326.13,320a10.65,10.65,0,0,0-7.54-3.13A10.88,10.88,0,0,0,311,320l-7.54,7.54L279,303.07A192.06,192.06,0,1,0-13.36,327.59c66.46,66.46,171,75,247.07,20.75l24.52,24.51-7.54,7.55a10.67,10.67,0,0,0,0,15.09l134.9,134.88A53.34,53.34,0,1,0,461,454.94Zm-52.81,37.73-22.85-22.85q4-3.57,7.76-7.33c2.52-2.51,5-5.11,7.34-7.76l22.85,22.84ZM1.73,312.5a170.71,170.71,0,1,1,241.42,0C175.49,380.16,67.53,378.3,1.73,312.5Zm316.86,30.17,30.17,30.18L303.5,418.11l-30.18-30.17ZM445.93,515.29a32,32,0,0,1-45.25,0L318.59,433.2l45.26-45.26L445.94,470A32,32,0,0,1,445.93,515.29Z" transform="translate(71.15 118.98)"/><path class="cls-3" d="M122.45,184.25a55.47,55.47,0,1,1,55.46-55.47h0A55.51,55.51,0,0,1,122.45,184.25Zm0-94.29a38.83,38.83,0,1,0,38.83,38.83A38.82,38.82,0,0,0,122.45,90Z" transform="translate(71.15 118.98)"/><path class="cls-3" d="M214,306.28h-183A8.33,8.33,0,0,1,22.6,298V259.13a52.74,52.74,0,0,1,52.7-52.69h94.29a52.74,52.74,0,0,1,52.69,52.69V298A8.32,8.32,0,0,1,214,306.28ZM39.24,289.64h166.4V259.13a36.08,36.08,0,0,0-36-36H75.3a36.09,36.09,0,0,0-36,36Z" transform="translate(71.15 118.98)"/></g></svg>