<svg id="Calque_1" data-name="Calque 1" xmlns="http://www.w3.org/2000/svg" viewBox="0 0 381.1 462.86"><defs><style>.cls-1,.cls-2,.cls-4{fill:#11393a;}.cls-1,.cls-4{stroke:#11393a;stroke-miterlimit:10;}.cls-1{stroke-width:0.75px;}.cls-3{fill:#edcb50;}.cls-4{stroke-width:2px;}</style></defs><title>artisan-de-confiance</title><path class="cls-1" d="M46.3,105.41a119.38,119.38,0,0,1-36.16-4.47c-2-.56-4,1.16-4.44,3a4,4,0,0,0,3.05,4.45,127.23,127.23,0,0,0,38.13,4.62,3.86,3.86,0,0,0,3.46-4.18,3.64,3.64,0,0,0-3.77-3.47Z" transform="translate(0 0.06)"/><path class="cls-1" d="M42.93,114.85A128.07,128.07,0,0,1,8.27,110.1,5.65,5.65,0,0,1,4,103.75v-.14a6.09,6.09,0,0,1,2.74-3.78,4.91,4.91,0,0,1,3.85-.56,117.47,117.47,0,0,0,35.58,4.41h.31A5.38,5.38,0,0,1,52,108.83a5.62,5.62,0,0,1-5,6h-.13C45.6,114.83,44.26,114.85,42.93,114.85ZM7.41,104.31a2.3,2.3,0,0,0,1.74,2.44,125.38,125.38,0,0,0,37.6,4.63,2.16,2.16,0,0,0,1.87-2.31,1.92,1.92,0,0,0-2-1.9h-.3a121.26,121.26,0,0,1-36.69-4.54,1.37,1.37,0,0,0-1.16.2A2.65,2.65,0,0,0,7.41,104.31Z" transform="translate(0 0.06)"/><path class="cls-1" d="M70.71,60.61c-12-11-24-22.28-36-33.32a3.78,3.78,0,1,0-5,5.61l.29.24C42,44.2,54,55.4,66,66.46A3.78,3.78,0,0,0,71,60.86,1.59,1.59,0,0,0,70.71,60.61Z" transform="translate(0 0.06)"/><path class="cls-1" d="M68.48,69.16a5.43,5.43,0,0,1-3.69-1.42q-9-8.29-18-16.67T28.83,34.47l-.34-.29a5.51,5.51,0,1,1,7.17-8.37l.22.2Q44.45,33.92,53,41.86q9.41,8.74,18.81,17.41l.36.3a5.51,5.51,0,0,1-3.7,9.59ZM32.18,28.05a2.05,2.05,0,0,0-2,2.09,2.08,2.08,0,0,0,.66,1.48l.16.12.15.12q9,8.3,18,16.67t18,16.66a2.05,2.05,0,1,0,2.74-3h0L69.72,62l-.15-.13q-9.43-8.7-18.89-17.48-8.57-7.93-17.11-15.83A2,2,0,0,0,32.18,28.05Z" transform="translate(0 0.06)"/><path class="cls-1" d="M110.63,44.75a153.94,153.94,0,0,1,2.09-38.4c.89-4.84-6.6-6.08-7.48-1.24a169.64,169.64,0,0,0-2.19,40.44C103.38,50.4,111,49.63,110.63,44.75Z" transform="translate(0 0.06)"/><path class="cls-1" d="M106.65,50.55a5.8,5.8,0,0,1-2.52-.57,5,5,0,0,1-2.83-4.32,170.92,170.92,0,0,1,2.25-40.84A5.26,5.26,0,0,1,107,.65a6,6,0,0,1,5.78,1,5.15,5.15,0,0,1,1.68,5,151.92,151.92,0,0,0-2.06,38h0a5.34,5.34,0,0,1-2.31,4.91A6.12,6.12,0,0,1,106.65,50.55ZM109,3.77a2.62,2.62,0,0,0-.79.13A1.84,1.84,0,0,0,107,5.43a167.5,167.5,0,0,0-2.24,40,1.6,1.6,0,0,0,.88,1.45,2.6,2.6,0,0,0,2.42-.22,1.83,1.83,0,0,0,.82-1.79A155.48,155.48,0,0,1,111,6a1.72,1.72,0,0,0-.52-1.74,2.55,2.55,0,0,0-1.55-.53Z" transform="translate(0 0.06)"/><path class="cls-2" d="M375.9,361.91a7.16,7.16,0,0,0,.69-.77c6.83-9.33,5.88-22.83-2.74-30.74-9.88-9.07-22.32-6.41-33.42-1.35-1.74.8-3.45,1.66-5.15,2.54a24.57,24.57,0,0,0-12.8-15.27c-9.24-4.69-20-3.74-29.63-.87a112.57,112.57,0,0,0-17.59,7.11,30.88,30.88,0,0,0-32.68-13.95c-8.7,1.91-17.32,6-25.47,9.48-4.09,1.74-8.15,3.54-12.18,5.44-4.45,2.09-8.82,4.89-13.73,5.67a4.79,4.79,0,0,0-1.6.53c-32.39-9.1-66.41-14.85-98.79-2.43-20,7.68-38.91,18.69-58,28.48-5.72,2.94-.67,11.57,5,8.63,3.51-1.8,7-3.67,10.55-5.56a241.84,241.84,0,0,0-9.93,38.48c-1.25,7.3-2.48,14.94,1,21.83a28.08,28.08,0,0,0,9.46,10.15c-14.78,8.49-29,18.28-45.42,23.58-6.1,2-3.49,11.63,2.66,9.64,21-6.8,38.41-20.65,58.17-30.09A138.28,138.28,0,0,1,127,419.32a135.49,135.49,0,0,1,32.71,4.77c11.09,3,21.74,7.5,32.71,10.94,21.37,6.71,44.13,10.82,66.58,9.07,22.93-1.79,43.06-10.58,62.72-22,10.38-6,20.68-12.24,31-18.37,8.57-5.08,18.82-9.93,24.13-18.81,4-6.68,4.59-16-.36-22.36A5.89,5.89,0,0,0,375.9,361.91ZM309.31,323c7.2.38,15.83,4.59,16.79,12.6a4.26,4.26,0,0,0,.16.79c-1.2.64-2.41,1.28-3.63,1.89-6.93,3.47-14.27,5.74-21.6,8.22a320.79,320.79,0,0,0-38.6,16,34.25,34.25,0,0,0-14.36-13.83c-.63-.33-1.27-.62-1.91-.92,12.58-5,24.19-12.46,36.57-17.88,8.18-3.65,17.47-7.4,26.58-6.9Zm-72.4-2.12c6-2.2,11.82-4.19,18.2-2.2a20.78,20.78,0,0,1,11.16,8.39C255.08,333,244,339,231.68,341.78a4.35,4.35,0,0,0-1,.33l-6.27-1.88q-9.34-2.88-18.71-5.73c2.91-1.48,5.77-3.06,8.59-4.34Q225.44,325.12,236.91,320.91ZM368.5,379.27c-4.47,8.44-16.47,13.18-24.27,17.8-9.72,5.77-19.4,11.61-29.19,17.27-19.26,11.13-39,19.23-61.46,20-21.41.78-42.63-3.67-62.86-10.41-10.29-3.42-20.37-7.52-30.89-10.2a148.88,148.88,0,0,0-94.28,7.2c-2.07.88-4.11,1.83-6.13,2.82C54.6,421.3,49.29,418,47.66,412.53c-2-6.59.89-15.31,2.26-21.81a245.66,245.66,0,0,1,11.77-39c21.47-11.32,43.67-21.58,68.2-21.85,32.45-.35,64,11.4,94.64,20.79,7.67,2.35,15.93,4.31,22.6,9,5.94,4.15,10.83,12.22,7,19.32a3.47,3.47,0,0,0-.31.68c-10.22-1.37-20.27-3.25-30.06-6.82-12.29-4.47-24.14-9.07-37.18-10.95a130,130,0,0,0-38.84.32c-6.34,1-3.64,10.62,2.66,9.64,22.38-3.45,43.75.36,64.69,8.37a149.11,149.11,0,0,0,32.56,8.69c10.53,1.49,21.28,3.11,32,3,19.17-.1,34.79-9.14,51.42-17.5,7.79-3.91,16.11-7.63,24.9-8.43,3.93-.35,9.86-.83,12.61,2.62,2.45,3,1.62,7.56,0,10.69Zm-.52-23.2a4.93,4.93,0,0,0-.45.73c-5-1.39-10.8-1.05-15.82-.26-19.25,3-34.7,16-52.8,22.19-11.37,3.88-23,3.51-34.72,2.22a20.85,20.85,0,0,0,1.2-8.82,301.94,301.94,0,0,1,32.09-13.81c11-4,22.15-7.16,32.56-12.61,8.48-4.44,20-13.18,30.12-11.46,10.7,1.83,13.72,13.76,7.82,21.82Z" transform="translate(0 0.06)"/><circle class="cls-3" cx="185.31" cy="182.55" r="52.35"/><path class="cls-2" d="M186.44,237.36a56.43,56.43,0,1,1,56.38-56.46V181h0A56.48,56.48,0,0,1,186.44,237.36Zm0-107.21A50.8,50.8,0,1,0,237.24,181h0a50.84,50.84,0,0,0-50.8-50.81Z" transform="translate(0 0.06)"/><path class="cls-4" d="M186.44,238.14a57.21,57.21,0,1,1,57.17-57.24V181a57.27,57.27,0,0,1-57.2,57.21Zm0-112.83h0a55.63,55.63,0,0,0,0,111.26h0a55.63,55.63,0,1,0,1.33-111.26Zm0,107.22h0a51.59,51.59,0,0,1,0-103.17h0a51.59,51.59,0,0,1,0,103.17Zm0-101.6a50,50,0,1,0,0,100h0a50,50,0,0,0,0-100Z" transform="translate(0 0.06)"/><path class="cls-4" d="M200.37,157.11a87.73,87.73,0,0,0-13.43,17.47,86.24,86.24,0,0,0-4.82,9.73c-.63,1.49-1.22,3-1.78,4.51-.16.48-.31,1-.47,1.43-1.33-1.43-2.58-3-3.8-4.23l-6.85-7c-3.54-3.63-9.09,1.93-5.56,5.56l7.36,7.57c2.23,2.29,4.5,5.28,7.08,7.08,5.36,3.71,7.81-2.42,9.17-6.5a78.16,78.16,0,0,1,18.69-30C209.5,159.06,203.93,153.49,200.37,157.11Z" transform="translate(0 0.06)"/><path class="cls-4" d="M270.59,162.84h-9a76.74,76.74,0,0,0-9.27-22.32l6.36-6.36a12.08,12.08,0,0,0,0-17l-9.47-9.47a12.08,12.08,0,0,0-17.05,0L225.81,114a78.77,78.77,0,0,0-22.33-9.27v-9a12.07,12.07,0,0,0-12-12H178.05a12.07,12.07,0,0,0-12,12v9A77.07,77.07,0,0,0,143.68,114l-6.35-6.36a12.08,12.08,0,0,0-17.05,0l-9.47,9.47a11.87,11.87,0,0,0-3.52,8.52,12,12,0,0,0,3.52,8.53l6.36,6.36a78.71,78.71,0,0,0-9.27,22.32H99a12.07,12.07,0,0,0-12,12v13.39a12.07,12.07,0,0,0,12,12.11h9a77.07,77.07,0,0,0,9.27,22.33l-6.36,6.35a12.11,12.11,0,0,0,0,17.05l9.47,9.47a12.08,12.08,0,0,0,17.05,0l6.36-6.36a78.83,78.83,0,0,0,22.32,9.27v9a12.07,12.07,0,0,0,12,12h13.4a12.07,12.07,0,0,0,12-12v-9.07a76.58,76.58,0,0,0,22.32-9.27l6.36,6.36a12.08,12.08,0,0,0,17,0l9.47-9.47a12.1,12.1,0,0,0,0-17l-6.36-6.36a78.8,78.8,0,0,0,9.26-22.32h8.87a12.07,12.07,0,0,0,12-12V174.88A12.07,12.07,0,0,0,270.59,162.84Zm3.92,25.57a3.93,3.93,0,0,1-3.92,3.92H258.27a4.07,4.07,0,0,0-4,3.25A69.43,69.43,0,0,1,243.73,221a4.1,4.1,0,0,0,.47,5.15l8.73,8.72a3.86,3.86,0,0,1,1.15,2.78,4,4,0,0,1-1.15,2.77l-9.47,9.47a3.92,3.92,0,0,1-5.55,0l-8.72-8.73a4.09,4.09,0,0,0-5.14-.47,70,70,0,0,1-25.44,10.55,4.07,4.07,0,0,0-3.25,4v12.31a3.92,3.92,0,0,1-3.92,3.93H178.05a3.93,3.93,0,0,1-3.93-3.93V255.24a4.06,4.06,0,0,0-3.24-4,69.41,69.41,0,0,1-25.44-10.55,3.94,3.94,0,0,0-2.23-.68,3.9,3.9,0,0,0-2.84,1.22L131.64,250a3.84,3.84,0,0,1-2.77,1.15A3.94,3.94,0,0,1,126.1,250l-9.47-9.47a3.82,3.82,0,0,1-1.15-2.78,3.91,3.91,0,0,1,1.15-2.77l8.72-8.73a4.09,4.09,0,0,0,.48-5.14,70.13,70.13,0,0,1-10.56-25.43,4.05,4.05,0,0,0-4-3.25H99a3.93,3.93,0,0,1-3.93-3.92V175h.07a3.93,3.93,0,0,1,3.93-3.93h12.31a4.06,4.06,0,0,0,4-3.24A69.41,69.41,0,0,1,126,142.41a4.09,4.09,0,0,0-.47-5.14l-8.8-8.73a3.84,3.84,0,0,1-1.15-2.77,4,4,0,0,1,1.15-2.77l9.47-9.47a3.82,3.82,0,0,1,2.78-1.15,3.91,3.91,0,0,1,2.77,1.15l8.73,8.72a4.08,4.08,0,0,0,5.14.48A70.13,70.13,0,0,1,171,112.17a4.05,4.05,0,0,0,3.25-4V95.87A3.93,3.93,0,0,1,178.18,92h13.4a3.93,3.93,0,0,1,3.92,3.92v12.38a4.05,4.05,0,0,0,3.25,4,69.61,69.61,0,0,1,25.43,10.55,4.08,4.08,0,0,0,5.14-.47l8.73-8.73a3.84,3.84,0,0,1,2.77-1.15,3.88,3.88,0,0,1,2.78,1.15l9.47,9.47a3.88,3.88,0,0,1,1.15,2.78,4,4,0,0,1-1.15,2.77l-8.87,8.66a4.09,4.09,0,0,0-.47,5.14,69.91,69.91,0,0,1,10.55,25.44,4.06,4.06,0,0,0,4,3.24h12.32a3.93,3.93,0,0,1,3.92,3.93Z" transform="translate(0 0.06)"/></svg>