<svg id="Calque_1" data-name="Calque 1" xmlns="http://www.w3.org/2000/svg" viewBox="0 0 486.08 460.88"><defs><style>.cls-1{fill:#11393b;stroke:#11393b;stroke-miterlimit:10;stroke-width:2px;}.cls-2{fill:#edcb50;}</style></defs><title>avis-clients-poemop2</title><path class="cls-1" d="M314.82,212.4l-107,.31c-17.64,0-35.16-.24-52.75-1.58-17.37-1.32-34.71-2.42-52,.66-5.55,1-3.2,9.43,2.33,8.45,17-3,34.28-1.51,51.35-.21,17.6,1.34,35.15,1.49,52.79,1.44l105.21-.31C320.46,221.15,320.46,212.39,314.82,212.4Z" transform="translate(73.54 0)"/><path class="cls-1" d="M318.94,255.14c-70.71-1.24-141.57,2.28-212.24,4.25-5.63.16-5.65,8.93,0,8.77,70.67-2,141.53-5.49,212.24-4.25C324.58,264,324.58,255.24,318.94,255.14Z" transform="translate(73.54 0)"/><path class="cls-1" d="M316.28,311.39c-69.92.66-139.89-5-209.77-.35-5.59.37-5.64,9.14,0,8.77,69.88-4.62,139.85,1,209.77.35C321.92,320.1,321.94,311.33,316.28,311.39Z" transform="translate(73.54 0)"/><path class="cls-1" d="M370,343l-.09-152.67a5.85,5.85,0,0,0-.07-.72c0-8.77-.47-17-6.9-24-6.78-7.42-17.06-11.11-27-10.52H206.68v-46a5.49,5.49,0,0,0,.21-1.13c.7-9.57,1.09-23.67-5.83-31.3-7.23-8-19.53-7.13-29.32-6.77a5.08,5.08,0,0,0-.67.07H-35.47a5.69,5.69,0,0,0-.83.07c-5.86.27-12.45-.08-17.94,1.86S-64.1,78.41-66.73,83.5c-6.45,12.27-5.59,25.55-5.54,38.94a4.68,4.68,0,0,0,.21,1.39V230.08a.59.59,0,0,1,0,.29c-.87,10.29-1,21.31,5.54,29.92a21.51,21.51,0,0,0,9.88,7.41c4.25,1.5,8.84.41,13.15.88l.07,2.25.18,5.26c.12,3.77.24,7.55.37,11.32q.35,10.47.69,20.91c.13,3.77.25,7.55.38,11.32.1,2.83-.21,6.14,1.17,8.77,3.12,5.91,8.92,2.63,12.4-.78,18.49-18.27,36.82-36.82,52.13-57.87H51.49V342.7a4.62,4.62,0,0,0,.09,1c-.63,10.94,0,24.55,9.51,31.66,8,5.89,18,8.16,27.72,7.66a5.07,5.07,0,0,0,1,.1h174c3.1,1.13,5.14,3.8,7.2,6.33,2.67,3.31,5.3,6.65,7.95,10,5.2,6.53,10.4,13,15.51,19.64,5.56,7.17,11,14.43,16.22,21.85,3.85,5.47,7.21,12.4,12.7,16.42,4.49,3.28,11.56,4.22,13.76-2.13,1.27-3.66,1-8.19,1.25-12q.51-6.89.94-13.77c1-16.43,1.36-32.9,0-49.31,8.7-.25,18,1,25-5.17,8.85-7.89,4.47-19.67,5.82-29.81A3.76,3.76,0,0,0,370,343ZM58.34,167.56a43.23,43.23,0,0,0-6.57,14.69c-.88,4.25-.64,8.88-.36,13.36V261H21a4.06,4.06,0,0,0-4.18,3.6A318.78,318.78,0,0,1-8.5,295q-6.88,7.37-14,14.5-3.42,3.45-6.85,6.85c-.93.92-2.31,2.63-3.74,4.18,0-.87-.05-1.75-.08-2.63-.08-2.61-.16-5.22-.26-7.83L-34,293.48q-.27-7.85-.52-15.68c-.15-4.31.81-10.42-1.07-14.38C-37.35,259.67-42,260-45.51,260c-4.39.05-8.54.22-12.07-2.81-6.71-5.76-6.65-15.39-6-23.68a4.37,4.37,0,0,0,.3-1.64V111.12a4.58,4.58,0,0,0-.3-1.64c.13-6.32.76-12.56,3.11-18.67,1.69-4.38,4.52-8.91,9.15-10.6,4.79-1.72,11.15-1.09,16.19-1.42h209a4.33,4.33,0,0,0,1.56-.26c6.76-.39,15.39-.71,19.54,4.5,2.43,3,2.74,8,3.12,11.73.19,1.93.29,3.87.32,5.81a4.33,4.33,0,0,0-.44,2v52.53H87.21C76.66,154.1,64.48,158.68,58.34,167.56Zm299.8,201.22c-6.14,4.78-16.32,1.94-23.44,2.88-2.16.28-4.64,1.76-4.38,4.39a319.34,319.34,0,0,1,.6,48.22c-.43,8-1,16.07-1.63,24.1l-.13,1.76c-.05.18-.09.33-.12.48a12.31,12.31,0,0,1-2.45-2.22,93.22,93.22,0,0,1-5.9-8.41c-8.56-12.44-17.81-24.4-27.18-36.24q-7.1-9-14.26-17.92c-3.86-4.85-7.59-9.73-13.86-11.4a4.43,4.43,0,0,0-2.17,0H94.2a4.56,4.56,0,0,0-2.58-.32c-8.46,1.31-18.2-.4-25.21-5.55-7.59-5.56-6.6-18.08-6-26.26a4.51,4.51,0,0,0-.2-1.67V202.09a4.34,4.34,0,0,0,.27-1.75c-.2-4.52-.42-9.07-.31-13.6.11-4.21,2.17-8.49,4.23-12.12,4.13-7.31,12.61-10.89,20.84-10.75a4.32,4.32,0,0,0,1.13.14H336.81q.33,0,.66,0c7.25-.07,14.38,2.5,19.29,8,4.47,5,4.55,11.53,4.39,18v1.56c0,1.28-.06,2.56,0,3.8v.54q0,74.7.06,149.39a4.19,4.19,0,0,0,.14,1.12C360.94,353.22,364.22,364,358.14,368.78Z" transform="translate(73.54 0)"/><path class="cls-1" d="M178.22,113.91c-17.75,1.43-35.51,2.88-53.31,3.57s-35.85.42-53.77.3l-107.64-.7c-5.64,0-5.65,8.77,0,8.77l107.64.7c17.92.12,35.85.39,53.77-.31s35.56-2.13,53.31-3.57C183.81,122.23,183.85,113.45,178.22,113.91Z" transform="translate(73.54 0)"/><path class="cls-1" d="M26.63,163.34h-61.8c-5.63,0-5.64,8.77,0,8.77H26.59C32.27,172.11,32.27,163.34,26.63,163.34Z" transform="translate(73.54 0)"/><path class="cls-1" d="M31.47,213.44h-68c-5.65,0-5.66,8.77,0,8.77h68C37.07,222.21,37.08,213.44,31.47,213.44Z" transform="translate(73.54 0)"/><path class="cls-2" d="M256.84,53.71a156.36,156.36,0,0,1-8.09-47c-.06-2.78-3-4.58-5.49-4.4a5.24,5.24,0,0,0-4.42,5.5,166.35,166.35,0,0,0,8.64,49.49A5.07,5.07,0,0,0,254,60.09,4.77,4.77,0,0,0,256.94,54Z" transform="translate(73.54 0)"/><path class="cls-2" d="M243.77,53.05a168.9,168.9,0,0,1-7.17-45.2A7.38,7.38,0,0,1,242.93.07l.18,0a7.85,7.85,0,0,1,5.76,2A6.42,6.42,0,0,1,251,6.62,153.36,153.36,0,0,0,259,52.84l.12.39a7.05,7.05,0,0,1-4.34,8.94,7.35,7.35,0,0,1-9.38-4l0-.16C244.81,56.38,244.28,54.71,243.77,53.05Zm-.2-48.47a3,3,0,0,0-2.41,3.1,163.86,163.86,0,0,0,8.44,48.83A2.83,2.83,0,0,0,253.21,58a2.52,2.52,0,0,0,1.62-3.17h0l-.11-.38a158.36,158.36,0,0,1-8.2-47.66,1.88,1.88,0,0,0-.68-1.38A3.49,3.49,0,0,0,243.57,4.58Z" transform="translate(73.54 0)"/><path class="cls-2" d="M322.21,67.31C331.51,48.11,341,28.8,350.3,9.63a4.94,4.94,0,1,0-8.41-5.18,2.59,2.59,0,0,0-.19.33,5,5,0,0,0-.32.66l-.19.45c-9.32,19.21-18.8,38.48-28.1,57.69A4.95,4.95,0,0,0,322,67.81,4.24,4.24,0,0,0,322.21,67.31Z" transform="translate(73.54 0)"/><path class="cls-2" d="M310.66,67.76a7.06,7.06,0,0,1,.38-5.17q7-14.43,14-28.88T339.1,5l.23-.54A7.21,7.21,0,0,1,352.62,10a1.75,1.75,0,0,1-.11.24l-.16.35q-6.64,13.71-13.41,27.47-7.32,15.06-14.58,30.11a5.55,5.55,0,0,1-.24.56,7.21,7.21,0,0,1-13.4-1Zm37.76-61A2.69,2.69,0,0,0,345,5a2.66,2.66,0,0,0-1.61,1.42l-.09.25-.09.23q-7,14.33-14.07,28.82L315.13,64.58A2.68,2.68,0,0,0,320,66.85h0l.1-.25.1-.24q7.32-15.11,14.74-30.26L348.28,8.68A2.77,2.77,0,0,0,348.42,6.74Z" transform="translate(73.54 0)"/><path class="cls-2" d="M357.18,111.29a201.21,201.21,0,0,1,48.87-11.91c6.4-.72,5.12-10.56-1.28-9.83a221.89,221.89,0,0,0-51.46,12.55C347.36,104.36,351.2,113.57,357.18,111.29Z" transform="translate(73.54 0)"/><path class="cls-2" d="M348.41,108.51a7.53,7.53,0,0,1-.24-3.37,6.52,6.52,0,0,1,4.34-5.15,223.73,223.73,0,0,1,52-12.65A6.91,6.91,0,0,1,411,90.1a7.8,7.8,0,0,1,.9,7.63,6.75,6.75,0,0,1-5.61,4A199.1,199.1,0,0,0,358,113.5h0a7,7,0,0,1-7-1A8,8,0,0,1,348.41,108.51ZM407.86,93.7a3.63,3.63,0,0,0-.46-1,2.43,2.43,0,0,0-2.35-.87,219.57,219.57,0,0,0-50.94,12.36,2.11,2.11,0,0,0-1.47,1.65,3.41,3.41,0,0,0,1.19,3,2.42,2.42,0,0,0,2.55.34,202.85,202.85,0,0,1,49.36-12,2.22,2.22,0,0,0,2-1.31,3.27,3.27,0,0,0,.14-2.16Z" transform="translate(73.54 0)"/></svg>