<svg id="Calque_1" data-name="Calque 1" xmlns="http://www.w3.org/2000/svg" viewBox="0 0 68.22 47.01"><defs><style>.cls-1,.cls-2{fill:#0f393a;}.cls-1{stroke:#0f393a;stroke-miterlimit:10;stroke-width:0.5px;}</style></defs><title>bois-et-pellets</title><g id="Calque_1-2" data-name="Calque 1"><path class="cls-1" d="M95.92,30.5a25.79,25.79,0,0,0-8.37-4.83l.06-.12A10.66,10.66,0,0,0,81,12.7C84.13,11.16,86.37,8,85.49,4,83.9-3.23,74.4-2.81,68.8-2.64a.89.89,0,0,0,.12,1.77,62,62,0,0,1,6.54-.06L73.58,24.55l-1.83.35c-3,.71-7.26,2.07-7.85,5.66-.53,3.07,2.13,5.37,4.72,6.31,6.72,2.6,15.63-3.18,18.52-9.61a24.81,24.81,0,0,1,7.72,4.48C95.57,32.63,96.81,31.27,95.92,30.5ZM82.3,1.79c4.07,4.3-.11,9.49-4.89,10.08-.41,0-.77-.06-1.18-.06l.94-12.5A9.12,9.12,0,0,1,82.3,1.79Zm-6.19,12a7.78,7.78,0,0,0,1.18-.06c6,.47,10.08,5.48,8.55,11.44a28.57,28.57,0,0,0-10.5-.83Zm-6,21.87c-3.25-.7-6.9-3.83-2.36-7.37a11,11,0,0,1,3.89-1.41c.59-.18,1.12-.3,1.71-.42l-.29,3.9a.9.9,0,0,0,.88.88.87.87,0,0,0,.88-.77l.36-4.3a28.22,28.22,0,0,1,3.89-.24,27.09,27.09,0,0,1,6.13.89C83,31.86,75.76,36.87,70.1,35.63Z" transform="translate(-63.59 3.57)"/><path class="cls-1" d="M101.35-1a3.73,3.73,0,0,0-1.59.11c-5.9,1.6-8,8.2-8.43,13.74-.36,4.43.59,14,7.13,13.15,5.6-.7,8-9,8.26-13.68C107,8.21,106.36-.16,101.35-1ZM105,11.75c-.12,3.13-3.31,16.1-9.44,11.44-3.24-2.42-2.77-9.43-2.06-12.85.76-3.9,2.18-8.14,6-9.67a3.58,3.58,0,0,1,.77-.18c4.3-.3,4.83,8.43,4.72,11.26Z" transform="translate(-63.59 3.57)"/><path class="cls-1" d="M117.39-1.16l-5.07.29a.92.92,0,0,0-.77,1,.88.88,0,0,0,.83.77L114,.84,112,22l-2.12.12a.92.92,0,0,0-.77,1,1,1,0,0,0,.83.77l5.54-.29a.93.93,0,0,0,.77-1,.88.88,0,0,0-.83-.76l-1.59.06L115.8.9V.72l1.71-.11a1,1,0,0,0,.88-.95,1.06,1.06,0,0,0-1-.82Z" transform="translate(-63.59 3.57)"/><path class="cls-1" d="M131.31-1.87c-4.19-4.42-9.14,2.3-10,6.19-.59,2.48.36,4.48,2,6.31,1.94,2.12,4.36,3.48,5.36,6.43,1.65,4.78-3.71,10.32-8.19,6.66-.89-.71-2.07.59-1.18,1.36a7.14,7.14,0,0,0,10-1.18A7.34,7.34,0,0,0,130.66,21a9.48,9.48,0,0,0-2.13-7.73c-1.35-1.71-3.3-2.83-4.59-4.59-1.18-1.6-1-3.54-.36-5.37S127.71-3,130.13-.45C130.89.31,132.07-1,131.31-1.87Z" transform="translate(-63.59 3.57)"/><path class="cls-2" d="M88.79,40.47v2.89H86.37V34.69H90a3.37,3.37,0,0,1,2.36.77,2.75,2.75,0,0,1,.88,2.06A3.32,3.32,0,0,1,92.86,39a2.37,2.37,0,0,1-1.12,1,3.12,3.12,0,0,1-1.77.35Zm1.95-2.89c0-.65-.36-.94-1.07-.94h-.94v1.94h.94C90.38,38.58,90.74,38.23,90.74,37.58Z" transform="translate(-63.59 3.57)"/><path class="cls-2" d="M100.64,40.35H96.1c.06.77.36,1.18,1,1.18a1,1,0,0,0,.59-.18.58.58,0,0,0,.3-.47h2.53a2.5,2.5,0,0,1-.59,1.3,2.44,2.44,0,0,1-1.17.88,3.52,3.52,0,0,1-1.6.36A4,4,0,0,1,95.34,43a3.08,3.08,0,0,1-1.24-1.24,4.26,4.26,0,0,1,0-3.78,3.08,3.08,0,0,1,1.24-1.24,3.73,3.73,0,0,1,1.76-.41,4,4,0,0,1,1.83.41,3.8,3.8,0,0,1,1.18,1.18,3.09,3.09,0,0,1,.41,1.77A.7.7,0,0,1,100.64,40.35ZM98,38.58a1.12,1.12,0,0,0-.71-.29.94.94,0,0,0-.77.29,1.09,1.09,0,0,0-.35.83h2.12a.88.88,0,0,0-.29-.83Z" transform="translate(-63.59 3.57)"/><path class="cls-2" d="M104.12,34.28v9.08H101.7V34.28Z" transform="translate(-63.59 3.57)"/><path class="cls-2" d="M107.9,34.28v9.08h-2.42V34.28Z" transform="translate(-63.59 3.57)"/><path class="cls-2" d="M115.8,40.35h-4.6c.06.77.35,1.18,1,1.18a1,1,0,0,0,.59-.18.57.57,0,0,0,.29-.47h2.54a2.58,2.58,0,0,1-.59,1.3,2.46,2.46,0,0,1-1.18.88,3.38,3.38,0,0,1-1.53.36,4,4,0,0,1-1.83-.41,3.21,3.21,0,0,1-1.24-1.24,4.26,4.26,0,0,1,0-3.78,3.21,3.21,0,0,1,1.24-1.24,3.77,3.77,0,0,1,1.77-.41,4,4,0,0,1,1.83.41,3.52,3.52,0,0,1,1.24,1.18,3.17,3.17,0,0,1,.41,1.77A2.86,2.86,0,0,1,115.8,40.35Zm-2.72-1.77a1.1,1.1,0,0,0-.7-.29.92.92,0,0,0-.77.29,1.06,1.06,0,0,0-.35.83h2.12a.82.82,0,0,0-.3-.83Z" transform="translate(-63.59 3.57)"/><path class="cls-2" d="M120.87,41.3v2.06h-1a2.85,2.85,0,0,1-2-.59,2.62,2.62,0,0,1-.71-2.06V38.52h-.88v-2h.88V34.87h2.42v1.65h1.24v2h-1.24v2.24a1.13,1.13,0,0,0,.12.48.47.47,0,0,0,.47.11Z" transform="translate(-63.59 3.57)"/><path class="cls-2" d="M126.77,37.05a3,3,0,0,1,1,1.77h-2.24a.85.85,0,0,0-.36-.53,1.15,1.15,0,0,0-.65-.18.49.49,0,0,0-.41.12.41.41,0,0,0,0,.59c.06.06.12.12.18.12a5.59,5.59,0,0,0,1,.29l1.3.35a2,2,0,0,1,.88.65,1.8,1.8,0,0,1,.42,1.18,1.72,1.72,0,0,1-.36,1.06,1.8,1.8,0,0,1-.94.71,3.19,3.19,0,0,1-1.48.24,3.53,3.53,0,0,1-2.3-.65A2.69,2.69,0,0,1,121.75,41h2.3a.71.71,0,0,0,.36.59,1.52,1.52,0,0,0,.7.18.87.87,0,0,0,.42-.12c.12-.06.12-.18.12-.3a.45.45,0,0,0-.3-.41,4.87,4.87,0,0,0-1-.29,5.26,5.26,0,0,1-1.3-.36,2.28,2.28,0,0,1-.88-.59,1.46,1.46,0,0,1-.36-1.18,1.9,1.9,0,0,1,.71-1.53,3.26,3.26,0,0,1,2.06-.59A3.68,3.68,0,0,1,126.77,37.05Z" transform="translate(-63.59 3.57)"/><path class="cls-2" d="M103.89,30.92a2.11,2.11,0,0,0,1.41-.53,2.15,2.15,0,0,0,.41-.36c.12-.12.18-.17.24-.17s.12.11.12.23a1,1,0,0,1-.18.59,2.27,2.27,0,0,1-.47.59,3,3,0,0,1-2.18.71,1.58,1.58,0,0,1-1.48-.83,1.69,1.69,0,0,1-.12-.76,3.44,3.44,0,0,1,.24-1.07,3.25,3.25,0,0,1,.53-.94,2.4,2.4,0,0,1,.77-.59,1.69,1.69,0,0,1,.94-.23,1.17,1.17,0,0,1,.77.23.69.69,0,0,1,.23.65.87.87,0,0,1-.23.65,1.32,1.32,0,0,1-.53.41,3.59,3.59,0,0,1-.71.3,4,4,0,0,0-.77.29v.12a.52.52,0,0,0,.3.47C103.47,30.8,103.71,30.86,103.89,30.92Zm-.06-2.6c-.3,0-.53.36-.71,1.12l.35-.23.3-.18a.54.54,0,0,0,.29-.47C104.06,28.38,104,28.32,103.83,28.32Z" transform="translate(-63.59 3.57)"/><path class="cls-2" d="M106,31.45a2.14,2.14,0,0,1-.12-.59v-.95a14.54,14.54,0,0,1,.24-1.59h-.42a.12.12,0,0,1-.11-.12.87.87,0,0,1,.05-.35.54.54,0,0,1,.24-.29h.47c.3-.95.59-1.42,1-1.42s.41.18.53.47c0,.12.06.18.06.3l-.42.65.83.05c.12,0,.18,0,.18.06v.12c0,.12-.06.3-.06.41s-.12.24-.18.24l-.94-.06c-.12.59-.18,1.24-.24,1.83s.06.71.18.77a1.34,1.34,0,0,0,.65-.3,1.78,1.78,0,0,0,.64-.53.43.43,0,0,1,.36-.24c.06,0,.12.12.12.3a1.26,1.26,0,0,1-.24.65,3,3,0,0,1-.59.59,3.52,3.52,0,0,1-.77.41,1.52,1.52,0,0,1-.7.18.68.68,0,0,1-.48-.18C106.13,31.68,106.07,31.57,106,31.45Z" transform="translate(-63.59 3.57)"/></g></svg>