<svg xmlns="http://www.w3.org/2000/svg" viewBox="0 0 439.45 622"><defs><style>.cls-1{fill:#ecca50;stroke:#ecca50;stroke-miterlimit:10;}.cls-2{fill:#11393a;}.cls-3{fill:none;stroke:#11393a;stroke-linecap:round;stroke-linejoin:round;stroke-width:11px;}.cls-4{fill:#fff;}</style></defs><title>changement-de-chaudiere</title><g id="Calque_1" data-name="Calque 1"><g id="Calque_1-2" data-name="Calque 1"><g id="Calque_3" data-name="Calque 3"><path class="cls-1" d="M75.75,164.68A154,154,0,0,1,30.89,149.8c-2.44-1.21-5.44.41-6.45,2.78A5.21,5.21,0,0,0,27.22,159,164.75,164.75,0,0,0,74.6,174.62a5.09,5.09,0,0,0,5.51-4.45,4.78,4.78,0,0,0-4-5.43Z" transform="translate(-1.7)"/><path class="cls-1" d="M69,175.82A166.25,166.25,0,0,1,26.09,161a7.29,7.29,0,0,1-3.85-9.16l0-.2a7.81,7.81,0,0,1,4.44-4.13,6.26,6.26,0,0,1,5,.23,152.81,152.81,0,0,0,44.19,14.66l.4.07a7,7,0,0,1,5.77,8,7.15,7.15,0,0,1-7.94,6.28l-.2,0A39.2,39.2,0,0,1,69,175.82ZM26.55,153.34A3,3,0,0,0,28.18,157a162.77,162.77,0,0,0,46.69,15.48A2.7,2.7,0,0,0,77.81,170a2.47,2.47,0,0,0-2.06-2.87l-.39-.07A158.64,158.64,0,0,1,29.82,152a1.59,1.59,0,0,0-1.51-.05A2.78,2.78,0,0,0,26.55,153.34Z" transform="translate(-1.7)"/><path class="cls-1" d="M118.28,113.87c-12.47-17.08-25-34.47-37.34-51.53a4.89,4.89,0,1,0-8.27,5.21h0a2.2,2.2,0,0,0,.41.57l.34.37c12.45,17.17,24.88,34.45,37.33,51.63a4.88,4.88,0,0,0,7.86-5.79A1.76,1.76,0,0,0,118.28,113.87Z" transform="translate(-1.7)"/><path class="cls-1" d="M113.22,124.18a7.18,7.18,0,0,1-4.31-2.75c-6.28-8.54-12.45-17.17-18.71-25.82L71.57,69.9l-.33-.46a7.23,7.23,0,0,1,1.16-10h0a7.24,7.24,0,0,1,10,1.17h0l.25.35,17.8,24.55q9.75,13.65,19.54,27c.18.13.24.35.33.46a7.22,7.22,0,0,1-1.47,10A6.92,6.92,0,0,1,113.22,124.18ZM77.55,62.58a2.67,2.67,0,0,0-3.09,2.12h0a2.73,2.73,0,0,0,.48,2l.16.23.17.23C81.45,75.7,87.71,84.35,93.88,93s12.45,17.18,18.71,25.82a2.68,2.68,0,0,0,3.76.53,2.61,2.61,0,0,0,.53-3.77h0l-.16-.23-.17-.23q-9.93-13.36-19.63-27L79.19,63.67A2.68,2.68,0,0,0,77.55,62.58Z" transform="translate(-1.7)"/><path class="cls-1" d="M173.07,103.84a202,202,0,0,1,12.41-48.32c2.4-5.89-6.84-9.45-9.16-3.45A224.56,224.56,0,0,0,163.17,103C162.43,109.26,172.32,110.2,173.07,103.84Z" transform="translate(-1.7)"/><path class="cls-1" d="M166.53,110.25a8.08,8.08,0,0,1-3.13-1.33,6.49,6.49,0,0,1-2.51-6.2,223.52,223.52,0,0,1,13.23-51.43,7,7,0,0,1,5.5-4.45,7.68,7.68,0,0,1,7,2.79,6.64,6.64,0,0,1,.9,6.74,198.55,198.55,0,0,0-12.32,47.83h0a7,7,0,0,1-4.19,5.69A9,9,0,0,1,166.53,110.25Zm14.89-59a3.4,3.4,0,0,0-1-.06,2.57,2.57,0,0,0-1.89,1.61,219.49,219.49,0,0,0-13,50.34,2.1,2.1,0,0,0,.77,2,3.31,3.31,0,0,0,3.19.33,2.14,2.14,0,0,0,1.36-2.1,207,207,0,0,1,12.59-48.8,2.2,2.2,0,0,0-.21-2.36,3.77,3.77,0,0,0-1.85-1.12h.1Z" transform="translate(-1.7)"/></g></g></g><g id="Calque_2-2" data-name="Calque 2"><path class="cls-1" d="M132.65,461.54c-7.53,0-7.54,11.7,0,11.7S140.19,461.54,132.65,461.54Z" transform="translate(-1.7)"/><path class="cls-1" d="M108.13,535.11c-7.53,0-7.54,11.7,0,11.7S115.67,535.11,108.13,535.11Z" transform="translate(-1.7)"/><path class="cls-1" d="M364.3,527.28c-7.52,0-7.54,11.7,0,11.7S371.85,527.28,364.3,527.28Z" transform="translate(-1.7)"/><path class="cls-2" d="M402.65,413.13c-3.1,4.12-8.49,6.82-12.92,9.26-4.9,2.69-9.38,3.33-14.69,3.21a7.42,7.42,0,0,0-1.28-.12l-214.43.46c-7.53,0-7.55,11.71,0,11.7l213.36-.45c.22,0,.44.05.68.06,14.75.68,30.36-6.23,39.38-18.21C417.28,413,407.13,407.18,402.65,413.13Z" transform="translate(-1.7)"/><path class="cls-3" d="M350.28,247.54c7.44-.58,73.34-11.48,56.15,56.94,0,0,52.44,23.87,16.83,93.13" transform="translate(-1.7)"/><path class="cls-3" d="M114.52,199.61S237,73.22,341.87,222.3" transform="translate(-1.7)"/><path class="cls-3" d="M100.91,217.55s-11.43,20.8-14.56,38c0,0-75.92,11.73-79,82.56-1.17,26.56,8,46.27,19.87,60.53,17,20.41,42.25,32.22,68.82,33.12l31,1.05" transform="translate(-1.7)"/><path class="cls-3" d="M114.52,320.13s-4.3-45.7,44.61-46.13" transform="translate(-1.7)"/><path class="cls-3" d="M246.39,196.09s31.7,2.34,27.78,29.34" transform="translate(-1.7)"/><path class="cls-3" d="M341.87,335s.78,50.09-52,52.43" transform="translate(-1.7)"/><circle class="cls-3" cx="57.06" cy="489.63" r="12.72"/><circle class="cls-3" cx="187.35" cy="517.01" r="21.97"/><circle class="cls-3" cx="293.41" cy="485.91" r="20.61"/><circle class="cls-3" cx="259.43" cy="566.13" r="11.61"/><circle class="cls-3" cx="393.12" cy="484.35" r="14.35"/><rect class="cls-4" x="187.35" y="584.22" width="175.25" height="37.78"/><rect class="cls-4" x="108.51" width="150.23" height="41.09"/></g></svg>