<svg id="Calque_1" data-name="Calque 1" xmlns="http://www.w3.org/2000/svg" viewBox="0 0 439.41 622"><defs><style>.cls-1{fill:#ecca50;stroke:#ecca50;stroke-miterlimit:10;}.cls-2{fill:#11393a;}.cls-3{fill:none;stroke:#11393a;stroke-linecap:round;stroke-linejoin:round;stroke-width:11px;}.cls-4{fill:#72817e;}</style></defs><title>changement-de-chaudiere-no</title><g id="Calque_1-2" data-name="Calque 1"><g id="Calque_1-2-2" data-name="Calque 1-2"><g id="Calque_3" data-name="Calque 3"><path class="cls-1" d="M74.05,164.68A153.91,153.91,0,0,1,29.19,149.8c-2.44-1.21-5.44.41-6.45,2.78A5.21,5.21,0,0,0,25.52,159,164.81,164.81,0,0,0,72.9,174.62a5.08,5.08,0,0,0,5.51-4.45,4.78,4.78,0,0,0-4-5.43Z" transform="translate(-0.05)"/><path class="cls-1" d="M67.3,175.82A166.1,166.1,0,0,1,24.39,161a7.29,7.29,0,0,1-3.85-9.16v-.2A7.77,7.77,0,0,1,25,147.51a6.26,6.26,0,0,1,5,.23A152.61,152.61,0,0,0,74.17,162.4l.4.07a7,7,0,0,1,5.77,8,7.14,7.14,0,0,1-7.92,6.28H72.2A40.69,40.69,0,0,1,67.3,175.82ZM24.85,153.34A3,3,0,0,0,26.48,157a162.77,162.77,0,0,0,46.69,15.48A2.71,2.71,0,0,0,76.11,170v0a2.47,2.47,0,0,0-2-2.86h-.06l-.39-.07A158.49,158.49,0,0,1,28.12,152a1.59,1.59,0,0,0-1.51-.05A2.79,2.79,0,0,0,24.85,153.34Z" transform="translate(-0.05)"/><path class="cls-1" d="M116.58,113.87c-12.47-17.08-25-34.47-37.34-51.53a4.89,4.89,0,1,0-8.45,4.93l.18.28h0a2.29,2.29,0,0,0,.41.57l.34.37c12.45,17.17,24.88,34.45,37.33,51.63a4.88,4.88,0,1,0,7.86-5.79A1.68,1.68,0,0,0,116.58,113.87Z" transform="translate(-0.05)"/><path class="cls-1" d="M111.52,124.18a7.2,7.2,0,0,1-4.31-2.75c-6.28-8.54-12.45-17.17-18.71-25.82L69.87,69.9l-.33-.46a7.23,7.23,0,0,1,1.16-10h0a7.24,7.24,0,0,1,10,1.17h0L81,61l17.8,24.55q9.75,13.65,19.54,27c.18.13.24.35.33.46a7.22,7.22,0,0,1-1.47,10A6.94,6.94,0,0,1,111.52,124.18ZM75.85,62.58a2.67,2.67,0,0,0-3.09,2.12h0a2.74,2.74,0,0,0,.48,2l.16.23.17.23C79.75,75.7,86,84.35,92.18,93s12.45,17.18,18.71,25.82a2.69,2.69,0,0,0,3.75.54h0a2.61,2.61,0,0,0,.63-3.64l-.1-.13h0l-.16-.23-.17-.23q-9.93-13.37-19.63-27L77.49,63.67A2.66,2.66,0,0,0,75.85,62.58Z" transform="translate(-0.05)"/><path class="cls-1" d="M171.37,103.84a201.63,201.63,0,0,1,12.41-48.32c2.4-5.89-6.84-9.45-9.16-3.45A224.58,224.58,0,0,0,161.47,103C160.73,109.26,170.62,110.2,171.37,103.84Z" transform="translate(-0.05)"/><path class="cls-1" d="M164.83,110.25a8.13,8.13,0,0,1-3.13-1.33,6.5,6.5,0,0,1-2.51-6.2,223.41,223.41,0,0,1,13.23-51.43,7,7,0,0,1,5.5-4.45,7.68,7.68,0,0,1,7,2.79,6.65,6.65,0,0,1,.9,6.74A198.69,198.69,0,0,0,173.5,104.2h0a7,7,0,0,1-4.19,5.69A9,9,0,0,1,164.83,110.25Zm14.89-59a3.37,3.37,0,0,0-1-.06,2.57,2.57,0,0,0-1.89,1.61,219.43,219.43,0,0,0-13,50.34,2.1,2.1,0,0,0,.77,2,3.31,3.31,0,0,0,3.19.33,2.13,2.13,0,0,0,1.36-2.1,206.71,206.71,0,0,1,12.59-48.8,2.2,2.2,0,0,0-.21-2.36,3.7,3.7,0,0,0-1.85-1.12h.1Z" transform="translate(-0.05)"/></g></g></g><g id="Calque_2-2" data-name="Calque 2-2"><path class="cls-1" d="M131,461.54c-7.53,0-7.54,11.7,0,11.7S138.49,461.54,131,461.54Z" transform="translate(-0.05)"/><path class="cls-1" d="M106.43,535.11c-7.53,0-7.54,11.7,0,11.7S114,535.11,106.43,535.11Z" transform="translate(-0.05)"/><path class="cls-1" d="M362.6,527.28c-7.52,0-7.54,11.7,0,11.7S370.15,527.28,362.6,527.28Z" transform="translate(-0.05)"/><path class="cls-2" d="M401,413.13c-3.1,4.12-8.49,6.82-12.92,9.26-4.9,2.69-9.38,3.33-14.69,3.21a6.85,6.85,0,0,0-1.28-.12l-214.43.46c-7.53,0-7.55,11.71,0,11.7L371,437.19c.22,0,.44.05.68.06,14.75.68,30.36-6.23,39.38-18.21C415.58,413,405.43,407.18,401,413.13Z" transform="translate(-0.05)"/><path class="cls-3" d="M348.58,247.54c7.44-.58,73.34-11.48,56.15,56.94,0,0,52.44,23.87,16.83,93.13" transform="translate(-0.05)"/><path class="cls-3" d="M112.82,199.61S235.3,73.22,340.17,222.3" transform="translate(-0.05)"/><path class="cls-3" d="M99.21,217.55s-11.43,20.8-14.56,38c0,0-75.92,11.73-79,82.56-1.17,26.56,8,46.27,19.87,60.53,17,20.41,42.25,32.22,68.82,33.12l31,1.05" transform="translate(-0.05)"/><path class="cls-3" d="M112.82,320.13s-4.3-45.7,44.61-46.13" transform="translate(-0.05)"/><path class="cls-3" d="M244.69,196.09s31.7,2.34,27.78,29.34" transform="translate(-0.05)"/><path class="cls-3" d="M340.17,335s.78,50.09-52,52.43" transform="translate(-0.05)"/><circle class="cls-3" cx="57.01" cy="489.63" r="12.72"/><circle class="cls-3" cx="187.3" cy="517.01" r="21.97"/><circle class="cls-3" cx="293.36" cy="485.91" r="20.61"/><circle class="cls-3" cx="259.38" cy="566.13" r="11.61"/><circle class="cls-3" cx="393.07" cy="484.35" r="14.35"/><rect class="cls-4" x="187.3" y="584.22" width="175.25" height="37.78"/><rect class="cls-4" x="108.46" width="150.23" height="41.09"/></g></svg>