<svg id="Calque_1" data-name="Calque 1" xmlns="http://www.w3.org/2000/svg" viewBox="0 0 246.19 256.49"><defs><style>.cls-1{fill:#edcb50;}.cls-2,.cls-3{fill:#11393a;}.cls-2{stroke:#11393a;stroke-miterlimit:10;stroke-width:5px;}</style></defs><title>check</title><circle class="cls-1" cx="142.71" cy="157.15" r="66.55"/><path class="cls-2" d="M83.71,196.78a103.42,103.42,0,0,1-31.3-3.87c-1.77-.49-3.47,1-3.84,2.64a3.46,3.46,0,0,0,2.64,3.85,109.77,109.77,0,0,0,33,4,3.36,3.36,0,0,0,3-3.62,3.15,3.15,0,0,0-3.27-3Z" transform="translate(-46.03 -104.8)"/><path class="cls-2" d="M104.84,158c-10.38-9.57-20.79-19.29-31.16-28.84A3.27,3.27,0,0,0,69,133.68a3.8,3.8,0,0,0,.37.33l.25.21c10.38,9.57,20.78,19.27,31.16,28.84a3.27,3.27,0,1,0,4.39-4.85A1.86,1.86,0,0,0,104.84,158Z" transform="translate(-46.03 -104.8)"/><path class="cls-2" d="M139.39,144.27A133.2,133.2,0,0,1,141.2,111c.77-4.19-5.71-5.26-6.47-1.07a146.58,146.58,0,0,0-1.9,35C133.12,149.16,139.69,148.49,139.39,144.27Z" transform="translate(-46.03 -104.8)"/><path class="cls-3" d="M190.18,331.7a71.73,71.73,0,1,1,71.68-71.78V260h0A71.8,71.8,0,0,1,190.18,331.7Zm0-136.3A64.58,64.58,0,1,0,254.76,260h0A64.64,64.64,0,0,0,190.18,195.4Z" transform="translate(-46.03 -104.8)"/><path class="cls-3" d="M190.18,332.7a72.73,72.73,0,1,1,72.68-72.78V260a72.8,72.8,0,0,1-72.72,72.73Zm0-143.45h0a70.73,70.73,0,0,0,0,141.45h0a70.73,70.73,0,1,0,1.69-141.45Zm0,136.31h0a65.58,65.58,0,0,1,0-131.16h0a65.58,65.58,0,1,1,0,131.16Zm0-129.16a63.58,63.58,0,1,0,0,127.16h0a63.58,63.58,0,1,0,0-127.16Z" transform="translate(-46.03 -104.8)"/><path class="cls-3" d="M190.53,360.29a100.66,100.66,0,1,1,69.1-173.86,3.58,3.58,0,0,1-4.91,5.2h0a93.13,93.13,0,1,0,22,31.76,3.57,3.57,0,1,1,6.48-3,.94.94,0,0,1,.1.23,100.66,100.66,0,0,1-92.82,139.67Z" transform="translate(-46.03 -104.8)"/><path class="cls-3" d="M190.53,361.29a101.66,101.66,0,1,1,69.79-175.58,4.57,4.57,0,1,1-6.29,6.64,92.14,92.14,0,1,0,21.83,31.43,4.56,4.56,0,0,1,8.31-3.78h0l.12.29a100.27,100.27,0,0,1,7.93,39.37A101.82,101.82,0,0,1,190.53,361.29ZM190.7,160h-.17a99.66,99.66,0,1,0,99.68,99.65A98.29,98.29,0,0,0,282.43,221c0-.08-.06-.14-.08-.2a2.56,2.56,0,0,0-3.41-1.25h0a2.58,2.58,0,0,0-1.25,3.41A93.27,93.27,0,0,1,285,259.63a94.51,94.51,0,1,1-29.63-68.71,2.57,2.57,0,1,0,3.53-3.74h0A98.8,98.8,0,0,0,190.7,160Z" transform="translate(-46.03 -104.8)"/><path class="cls-3" d="M207.89,229.68a111.26,111.26,0,0,0-17.07,22.21,107.73,107.73,0,0,0-6.13,12.37c-.8,1.9-1.56,3.81-2.26,5.74-.21.6-.4,1.21-.61,1.81-1.68-1.81-3.28-3.77-4.83-5.37l-8.7-8.93c-4.5-4.62-11.56,2.46-7.07,7.07l9.36,9.62c2.83,2.91,5.71,6.72,9,9,6.81,4.72,9.93-3.07,11.66-8.26A99.17,99.17,0,0,1,215,236.75C219.49,232.16,212.42,225.08,207.89,229.68Z" transform="translate(-46.03 -104.8)"/></svg>