<svg id="Capa_1" data-name="Capa 1" xmlns="http://www.w3.org/2000/svg" viewBox="0 0 453.23 512"><defs><style>.cls-1{fill:#f5f3ee;}</style></defs><title>commande-fioul</title><path class="cls-1" d="M481.52,310.85l-35.83-70.39a10,10,0,0,0-8.92-5.47H75.23a10,10,0,0,0-8.92,5.47L30.48,310.85a10,10,0,0,0,8.91,14.54H51.88V502a10,10,0,0,0,10,10h388.2a10,10,0,0,0,10-10V325.39h12.52a10,10,0,0,0,8.91-14.54ZM430.64,255l25.65,50.38H298L272.32,255ZM81.36,255H239.68L214,305.38H55.71ZM440.08,492H266V436.54a10,10,0,1,0-20,0V492H71.89V325.39H220.16a10,10,0,0,0,8.92-5.46L246,286.7v60a10,10,0,0,0,20,0v-60l16.91,33.23a10,10,0,0,0,8.92,5.46H440.08Z" transform="translate(-29.39)"/><path class="cls-1" d="M170.44,437.2h-57a10,10,0,0,0,0,20h57a10,10,0,1,0,0-20Z" transform="translate(-29.39)"/><path class="cls-1" d="M256,205.57c56.61,0,102.67-46.12,102.67-102.8A102.69,102.69,0,1,0,256,205.57ZM256,20a82.78,82.78,0,1,1-82.69,82.76A82.81,82.81,0,0,1,256,20Z" transform="translate(-29.39)"/><path class="cls-1" d="M211.14,117.78l26.63,22.57a10,10,0,0,0,6.47,2.37c.29,0,.57,0,.86,0a10,10,0,0,0,6.82-3.55L302,79.24A10,10,0,0,0,286.69,66.4L243,118.58l-18.95-16.07a10,10,0,0,0-12.94,15.27Z" transform="translate(-29.39)"/><path class="cls-1" d="M59.45,112.78h43.29a10,10,0,0,0,0-20H59.45a10,10,0,1,0,0,20Z" transform="translate(-29.39)"/><path class="cls-1" d="M54.78,43.16,98.07,66a10,10,0,0,0,9.34-17.7L64.12,25.46a10,10,0,1,0-9.34,17.7Z" transform="translate(-29.39)"/><path class="cls-1" d="M50.6,175.89a10,10,0,0,0,8.86,5.35,9.86,9.86,0,0,0,4.65-1.16l43.29-22.8a10,10,0,1,0-9.33-17.7l-43.28,22.8a10,10,0,0,0-4.19,13.51Z" transform="translate(-29.39)"/><path class="cls-1" d="M409.23,112.78h43.29a10,10,0,1,0,0-20H409.23a10,10,0,0,0,0,20Z" transform="translate(-29.39)"/><path class="cls-1" d="M409.24,67.15A10,10,0,0,0,413.9,66l43.29-22.83a10,10,0,0,0-9.33-17.7L404.57,48.29a10,10,0,0,0,4.67,18.86Z" transform="translate(-29.39)"/><path class="cls-1" d="M404.57,157.28l43.29,22.8a10,10,0,0,0,13.51-4.19,10,10,0,0,0-4.19-13.51l-43.28-22.8a10,10,0,1,0-9.33,17.7Z" transform="translate(-29.39)"/><path class="cls-1" d="M256,381.61a10,10,0,0,0-10,10v.06a10,10,0,1,0,10-10.07Z" transform="translate(-29.39)"/></svg>