<svg id="Calque_1" data-name="Calque 1" xmlns="http://www.w3.org/2000/svg" viewBox="0 0 384 448"><defs><style>.cls-1{fill:#0f393a;}</style></defs><title>connecion-poemop</title><path class="cls-1" d="M192,213.33A106.67,106.67,0,1,1,298.65,106.65v0A106.78,106.78,0,0,1,192,213.33ZM192,32a74.67,74.67,0,1,0,74.67,74.67A74.67,74.67,0,0,0,192,32Z" transform="translate(0.02 0.01)"/><path class="cls-1" d="M368,448H16A16,16,0,0,1,0,432V357.33A101.45,101.45,0,0,1,101.33,256H282.65A101.45,101.45,0,0,1,384,357.33V432A16,16,0,0,1,368,448ZM32,416H352V357.33A69.4,69.4,0,0,0,282.65,288H101.33A69.41,69.41,0,0,0,32,357.32Z" transform="translate(0.02 0.01)"/></svg>