<svg id="Calque_1" data-name="Calque 1" xmlns="http://www.w3.org/2000/svg" viewBox="0 0 381.1 462.8"><defs><style>.cls-1{fill:#edcb50;}.cls-2{fill:#11393a;}</style></defs><title>dollar</title><circle class="cls-1" cx="189.86" cy="161.94" r="66.55"/><path class="cls-2" d="M117.39,109.07a103.45,103.45,0,0,1-31.3-3.87c-1.77-.49-3.47,1-3.84,2.64a3.46,3.46,0,0,0,2.64,3.85,110.13,110.13,0,0,0,33,4,3.35,3.35,0,0,0,3-3.62,3.15,3.15,0,0,0-3.27-3Z" transform="translate(-50.02 -18.09)"/><path class="cls-2" d="M114.47,117.24a111.36,111.36,0,0,1-30-4.11,4.89,4.89,0,0,1-3.72-5.5l0-.12a5.23,5.23,0,0,1,2.37-3.27,4.23,4.23,0,0,1,3.33-.49,101.79,101.79,0,0,0,30.8,3.82l.27,0a4.66,4.66,0,0,1,4.83,4.46,4.86,4.86,0,0,1-4.34,5.17h-.11C116.78,117.22,115.62,117.24,114.47,117.24Zm-30.74-9.13a2,2,0,0,0,1.5,2.12,108.43,108.43,0,0,0,32.55,4,1.87,1.87,0,0,0,1.62-2,1.67,1.67,0,0,0-1.72-1.64l-.24,0a104.87,104.87,0,0,1-31.76-3.93,1.2,1.2,0,0,0-1,.17A2.27,2.27,0,0,0,83.73,108.11Z" transform="translate(-50.02 -18.09)"/><path class="cls-2" d="M138.52,70.29C128.14,60.72,117.73,51,107.36,41.45A3.27,3.27,0,1,0,103,46.3l.25.21c10.38,9.57,20.78,19.27,31.16,28.84a3.27,3.27,0,1,0,4.39-4.85A1.71,1.71,0,0,0,138.52,70.29Z" transform="translate(-50.02 -18.09)"/><path class="cls-2" d="M136.59,77.69a4.71,4.71,0,0,1-3.2-1.23q-7.8-7.18-15.6-14.43T102.27,47.66l-.3-.25a4.77,4.77,0,1,1,6.4-7.07q7.41,6.84,14.83,13.72,8.14,7.56,16.28,15.07a3.88,3.88,0,0,1,.31.26,4.77,4.77,0,0,1-3.2,8.3ZM105.17,42.1A1.78,1.78,0,0,0,104,45.19l.14.11.13.1q7.78,7.18,15.58,14.43t15.58,14.42a1.77,1.77,0,0,0,2.37-2.64l-.14-.11-.13-.11q-8.17-7.53-16.35-15.13-7.41-6.87-14.81-13.71A1.78,1.78,0,0,0,105.17,42.1Z" transform="translate(-50.02 -18.09)"/><path class="cls-2" d="M173.07,56.56a133.2,133.2,0,0,1,1.81-33.24c.77-4.19-5.71-5.26-6.47-1.07a146.58,146.58,0,0,0-1.9,35C166.8,61.45,173.37,60.78,173.07,56.56Z" transform="translate(-50.02 -18.09)"/><path class="cls-2" d="M169.63,61.58a5,5,0,0,1-2.18-.49A4.34,4.34,0,0,1,165,57.35,148,148,0,0,1,166.94,22a4.56,4.56,0,0,1,3-3.61,5.16,5.16,0,0,1,5,.89,4.45,4.45,0,0,1,1.46,4.32,131.57,131.57,0,0,0-1.79,32.86h0a4.6,4.6,0,0,1-2,4.25A5.29,5.29,0,0,1,169.63,61.58Zm2-40.49a2.31,2.31,0,0,0-.69.11,1.6,1.6,0,0,0-1,1.32A145,145,0,0,0,168,57.15a1.37,1.37,0,0,0,.76,1.25,2.23,2.23,0,0,0,2.1-.19,1.6,1.6,0,0,0,.71-1.55,134.24,134.24,0,0,1,1.83-33.61,1.47,1.47,0,0,0-.45-1.5A2.14,2.14,0,0,0,171.61,21.09Z" transform="translate(-50.02 -18.09)"/><path class="cls-2" d="M425.92,380a7.16,7.16,0,0,0,.69-.77c6.83-9.33,5.88-22.83-2.74-30.74-9.88-9.07-22.32-6.41-33.42-1.35-1.74.8-3.45,1.66-5.15,2.54a24.54,24.54,0,0,0-12.8-15.27c-9.24-4.69-20-3.74-29.63-.87a113,113,0,0,0-17.59,7.11A30.87,30.87,0,0,0,292.6,326.7c-8.7,1.91-17.32,6-25.47,9.48-4.09,1.74-8.15,3.54-12.18,5.44-4.45,2.09-8.82,4.89-13.73,5.67a4.79,4.79,0,0,0-1.6.53c-32.39-9.1-66.41-14.85-98.79-2.43-20,7.68-38.91,18.69-58,28.48-5.72,2.94-.67,11.57,5,8.63,3.51-1.8,7-3.67,10.55-5.56a241.84,241.84,0,0,0-9.93,38.48c-1.25,7.3-2.48,14.94,1,21.83a28.08,28.08,0,0,0,9.46,10.15c-14.78,8.49-29,18.28-45.42,23.58-6.1,2-3.49,11.63,2.66,9.64,21-6.8,38.41-20.65,58.17-30.09A138.33,138.33,0,0,1,177,437.41a135.49,135.49,0,0,1,32.71,4.77c11.09,3,21.74,7.5,32.71,10.94,21.37,6.71,44.13,10.82,66.58,9.07,22.93-1.79,43.06-10.58,62.72-22,10.38-6,20.68-12.24,31-18.37,8.57-5.08,18.82-9.93,24.13-18.81,4-6.68,4.59-16-.36-22.36A6.27,6.27,0,0,0,425.92,380Zm-66.59-38.88c7.2.38,15.83,4.59,16.79,12.6a4.43,4.43,0,0,0,.16.79c-1.2.64-2.41,1.28-3.63,1.89-6.93,3.47-14.27,5.74-21.6,8.22a320.79,320.79,0,0,0-38.6,16,34.25,34.25,0,0,0-14.36-13.83c-.63-.33-1.27-.62-1.91-.92,12.58-5,24.19-12.46,36.57-17.88C340.93,344.34,350.22,340.59,359.33,341.09ZM286.93,339c6-2.2,11.82-4.19,18.2-2.2a20.77,20.77,0,0,1,11.16,8.39C305.1,351.08,294,357.1,281.7,359.87a4.51,4.51,0,0,0-1,.33l-6.27-1.88q-9.35-2.88-18.71-5.73c2.91-1.48,5.77-3.06,8.59-4.34Q275.46,343.21,286.93,339Zm131.59,58.36c-4.47,8.44-16.47,13.18-24.27,17.8-9.72,5.77-19.4,11.61-29.19,17.27-19.26,11.13-39,19.23-61.46,20-21.41.78-42.63-3.67-62.86-10.41-10.29-3.42-20.37-7.52-30.89-10.2a148.88,148.88,0,0,0-94.28,7.2c-2.07.88-4.11,1.83-6.13,2.82-4.82-2.45-10.13-5.72-11.76-11.22-2-6.59.89-15.31,2.26-21.81a245.35,245.35,0,0,1,11.77-39c21.47-11.32,43.67-21.58,68.2-21.85,32.45-.35,64,11.4,94.64,20.79,7.67,2.35,15.93,4.31,22.6,9,5.94,4.15,10.83,12.22,7,19.32a3.82,3.82,0,0,0-.31.68c-10.22-1.37-20.27-3.25-30.06-6.82-12.29-4.47-24.14-9.07-37.18-10.95a130,130,0,0,0-38.84.32c-6.34,1-3.64,10.62,2.66,9.64,22.38-3.45,43.75.36,64.69,8.37A149,149,0,0,0,297.67,407c10.53,1.49,21.28,3.11,31.95,3,19.17-.1,34.79-9.14,51.42-17.5,7.79-3.91,16.11-7.63,24.9-8.43,3.93-.35,9.86-.83,12.61,2.62C421,389.7,420.17,394.25,418.52,397.38ZM418,374.16a4.93,4.93,0,0,0-.45.73c-5-1.39-10.8-1.05-15.82-.26-19.25,3-34.7,16-52.8,22.19-11.37,3.88-23,3.51-34.72,2.22a20.87,20.87,0,0,0,1.2-8.82,301.94,301.94,0,0,1,32.09-13.81c11-4,22.15-7.16,32.56-12.61,8.48-4.44,20-13.18,30.12-11.46,10.7,1.83,13.72,13.76,7.82,21.82Z" transform="translate(-50.02 -18.09)"/><path class="cls-2" d="M257.33,178.25a80.29,80.29,0,0,0-13.15-8.31c-4.23-2.2-9.15-4-10.17-9.23a9.24,9.24,0,0,1,1.43-7.15c1.84-2.47,4.67-2.73,7.54-2.75,3.91,0,13.8,2.14,10.88,8.28-2,4.13,4.19,7.76,6.17,3.57,5-10.53-4.4-17.92-14.48-18.93V132.58c0-4.6-7.14-4.6-7.14,0v11.56c-5.45,1.25-10.06,4.78-11.36,11.17a17.13,17.13,0,0,0,2.07,12.24c2.65,4.29,7.14,6.32,11.43,8.58,7.07,3.67,22.43,11.16,16.74,21.39-2.8,5-9.2,7-14.64,6.9s-12.2-3.62-10.51-10c1.18-4.45-5.72-6.35-6.89-1.9-2.37,9,4.35,16.72,12.82,18.53q-.19,6.24,0,12.5c.13,4.59,7.28,4.61,7.15,0q-.17-6,0-12.08c7.29-.51,14.6-3.91,18.26-10.34C268.24,192.68,264.36,183.91,257.33,178.25Z" transform="translate(-50.02 -18.09)"/><path class="cls-2" d="M241.72,228a4.53,4.53,0,0,1-4.69-4.42c-.1-3.89-.09-7.84,0-11.74a18.27,18.27,0,0,1-11.06-8,14.61,14.61,0,0,1-1.7-11.62,4.2,4.2,0,0,1,3-3.12,5,5,0,0,1,4.74,1.26,4.32,4.32,0,0,1,1.09,4.26,5.52,5.52,0,0,0,.88,5c1.91,2.53,5.73,3.73,8.68,3.79,4.63.11,11-1.52,13.75-6.39a7.49,7.49,0,0,0,.79-6.05c-1.82-6-10.93-10.76-16.37-13.58l-1.93-1c-4-2.06-8.09-4.19-10.64-8.32a18.14,18.14,0,0,1-2.2-13c1.21-6,5.22-10.1,11.34-11.75V132.58a4.57,4.57,0,0,1,9.14,0v10.26c6.42.88,11.87,4.08,14.37,8.5,2,3.52,2,7.58,0,11.75a4,4,0,0,1-3.29,2.42,4.93,4.93,0,0,1-4.33-2.17,4.57,4.57,0,0,1-.35-4.68,3.08,3.08,0,0,0,0-3.15c-1.65-2.61-7.31-3.7-10-3.7-3.17,0-5.29.41-6.74,2.35A8.23,8.23,0,0,0,235,160.5c.8,4.13,4.34,5.89,8.08,7.76l1.57.8a81.26,81.26,0,0,1,13.31,8.4v0c8.37,6.72,10.86,16.2,6.35,24.15-3.4,6-10.14,10-18.15,10.76-.08,3.7-.08,7.44,0,11.14a4.27,4.27,0,0,1-4.33,4.47ZM228.5,191a2.74,2.74,0,0,0-.7.09,2.2,2.2,0,0,0-1.58,1.7,12.62,12.62,0,0,0,1.47,10.06,16.61,16.61,0,0,0,10.59,7.23l.82.18,0,.83c-.13,4.13-.14,8.32,0,12.45A2.51,2.51,0,0,0,241.8,226a2.26,2.26,0,0,0,2.38-2.42c-.11-4-.11-8.11,0-12.13l0-.91.91-.07c7.74-.54,14.27-4.22,17.46-9.83,4.86-8.55.16-16.76-5.86-21.6a79.3,79.3,0,0,0-13-8.2l-1.55-.79c-3.83-1.91-8.16-4.07-9.15-9.15a10.27,10.27,0,0,1,1.59-7.91c2.16-2.91,5.44-3.16,8.35-3.18s9.47,1.13,11.68,4.63a5,5,0,0,1,.11,5.08,2.59,2.59,0,0,0,.2,2.68,3,3,0,0,0,2.52,1.32,2,2,0,0,0,1.64-1.28c1.71-3.61,1.73-7,.05-9.92-2.25-4-7.64-7-13.72-7.59l-.9-.1v-12a2.57,2.57,0,0,0-5.14,0v12.36l-.78.18c-3.32.76-9.12,3.12-10.6,10.39A16.15,16.15,0,0,0,230,167c2.25,3.65,5.94,5.56,9.85,7.59l1.93,1c5.72,3,15.3,7.91,17.37,14.77a9.48,9.48,0,0,1-1,7.6c-3.16,5.65-10.36,7.53-15.53,7.42-3.18-.07-7.77-1.31-10.24-4.59a7.55,7.55,0,0,1-1.22-6.67,2.29,2.29,0,0,0-.56-2.33A3,3,0,0,0,228.5,191Z" transform="translate(-50.02 -18.09)"/><path class="cls-2" d="M241.32,249.78A71.73,71.73,0,1,1,313,178.05h0A71.81,71.81,0,0,1,241.32,249.78Zm0-136.3a64.58,64.58,0,1,0,64.58,64.59v0A64.65,64.65,0,0,0,241.32,113.48Z" transform="translate(-50.02 -18.09)"/><path class="cls-2" d="M241.32,250.78A72.73,72.73,0,1,1,314,178.05a72.8,72.8,0,0,1-72.72,72.73Zm0-143.45h0a70.73,70.73,0,0,0,0,141.45h0a70.73,70.73,0,1,0,0-141.45Zm0,136.31h0a65.58,65.58,0,1,1,0-131.16h0a65.58,65.58,0,1,1,0,131.16Zm0-129.16a63.58,63.58,0,1,0,0,127.16h0a63.58,63.58,0,1,0,0-127.16Z" transform="translate(-50.02 -18.09)"/><path class="cls-2" d="M241.67,278.37a100.66,100.66,0,1,1,69.1-173.86,3.58,3.58,0,0,1-4.91,5.2h0a93.13,93.13,0,1,0,22.05,31.76,3.57,3.57,0,0,1,6.48-3,2.29,2.29,0,0,1,.1.23,100.67,100.67,0,0,1-92.82,139.67Z" transform="translate(-50.02 -18.09)"/><path class="cls-2" d="M241.67,279.37a101.66,101.66,0,1,1,69.79-175.58,4.57,4.57,0,1,1-6.29,6.64A92.13,92.13,0,1,0,327,141.86a4.58,4.58,0,0,1,2.24-6,4.57,4.57,0,0,1,6.07,2.23l.12.29a100.34,100.34,0,0,1,7.93,39.37A101.82,101.82,0,0,1,241.67,279.37Zm.17-201.32h-.17a99.66,99.66,0,1,0,99.68,99.65,98.5,98.5,0,0,0-7.78-38.61c0-.08-.06-.14-.08-.2a2.57,2.57,0,0,0-3.42-1.25,2.57,2.57,0,0,0-1.25,3.41,93.38,93.38,0,0,1,7.36,36.66A94.51,94.51,0,1,1,306.55,109a2.57,2.57,0,1,0,3.53-3.74A98.82,98.82,0,0,0,241.84,78.05Z" transform="translate(-50.02 -18.09)"/></svg>