<svg id="Calque_1" data-name="Calque 1" xmlns="http://www.w3.org/2000/svg" viewBox="0 0 393.7 542.21"><defs><style>.cls-1,.cls-3{fill:#ecca50;}.cls-1{stroke:#ecca50;stroke-miterlimit:10;}.cls-2{fill:#11393a;}.cls-4{fill:#01eca5;}.cls-5{fill:#fff;}</style></defs><title>facture-poemop</title><g id="Calque_3" data-name="Calque 3"><path class="cls-1" d="M55,40.92A155.47,155.47,0,0,1,8.24,33.6C5.62,32.77,3,34.93,2.36,37.37a5.21,5.21,0,0,0,3.77,5.9,165.39,165.39,0,0,0,49.27,7.6,5,5,0,0,0,4.68-5.28,4.72,4.72,0,0,0-4.76-4.65Z" transform="translate(0.5 93.33)"/><path class="cls-1" d="M50.2,53A166.89,166.89,0,0,1,5.43,45.4,7.32,7.32,0,0,1,.12,37v-.2A7.9,7.9,0,0,1,3.84,32a6.43,6.43,0,0,1,5-.57,152.54,152.54,0,0,0,46,7.23h.41a7,7,0,0,1,7,6.92,7.27,7.27,0,0,1-6.76,7.53h-.16C53.68,53.11,51.93,53.11,50.2,53ZM4.57,37.84a3,3,0,0,0,2.16,3.27,162.57,162.57,0,0,0,48.6,7.59,2.81,2.81,0,0,0,2.53-2.92,2.51,2.51,0,0,0-2.47-2.54H55A157.08,157.08,0,0,1,7.58,35.77,1.87,1.87,0,0,0,6.07,36,3.41,3.41,0,0,0,4.57,37.84Z" transform="translate(0.5 93.33)"/><path class="cls-1" d="M88.55-16.18C73.45-31,58.32-46.11,43.24-60.89a4.91,4.91,0,0,0-6.93-.38,4.91,4.91,0,0,0-.37,6.88h0a4.18,4.18,0,0,0,.53.5l.36.33C51.93-38.71,67-23.66,82.14-8.81a4.91,4.91,0,0,0,7-.13,4.9,4.9,0,0,0-.13-7A2,2,0,0,0,88.55-16.18Z" transform="translate(0.5 93.33)"/><path class="cls-1" d="M85.29-5.18a7.1,7.1,0,0,1-4.74-2Q69.21-18.32,57.87-29.57T35.31-51.89l-.44-.39a7.17,7.17,0,0,1-.46-10.1h0a7.16,7.16,0,0,1,10.1-.46h0l.28.27q10.8,10.68,21.58,21.31Q78.22-29.53,90-17.89a4.28,4.28,0,0,1,.45.4,7.15,7.15,0,0,1,.18,10.11A7.15,7.15,0,0,1,85.29-5.2ZM39.93-60.07a2.68,2.68,0,0,0-2.71,2.63h0A2.67,2.67,0,0,0,38-55.5l.21.17.19.16Q49.73-44,61.07-32.77T83.73-10.39a2.67,2.67,0,0,0,3.77-.08,2.67,2.67,0,0,0-.09-3.77h0l-.2-.17L87-14.58Q75.13-26.25,63.24-38.06L41.73-59.33A2.68,2.68,0,0,0,39.93-60.07Z" transform="translate(0.5 93.33)"/><path class="cls-1" d="M141-35.08a200.69,200.69,0,0,1,4.33-49.74c1.36-6.24-8.3-8.16-9.64-1.92a219.86,219.86,0,0,0-4.56,52.38C131.37-28,141.25-28.74,141-35.08Z" transform="translate(0.5 93.33)"/><path class="cls-1" d="M135.61-27.72a7.54,7.54,0,0,1-3.25-.84,6.53,6.53,0,0,1-3.49-5.73,222.69,222.69,0,0,1,4.64-52.9,6.86,6.86,0,0,1,4.67-5.26,7.74,7.74,0,0,1,7.5,1.56,6.66,6.66,0,0,1,2,6.54,197.67,197.67,0,0,0-4.29,49.18h0a6.9,6.9,0,0,1-3.25,6.28A7.93,7.93,0,0,1,135.61-27.72Zm5-60.6a3.39,3.39,0,0,0-1,.13,2.39,2.39,0,0,0-1.56,1.93,217.83,217.83,0,0,0-4.6,51.82,2,2,0,0,0,1.08,1.91,3.35,3.35,0,0,0,3.15-.18,2.4,2.4,0,0,0,1-2.29,201,201,0,0,1,4.38-50.3,2.21,2.21,0,0,0-.6-2.27,3.25,3.25,0,0,0-2-.75Z" transform="translate(0.5 93.33)"/></g><path class="cls-2" d="M240.9,448.88a9.93,9.93,0,0,1-4.54-1.09l-19-9.68-19,9.68a10.06,10.06,0,0,1-9.1,0l-19-9.68-19,9.68a10,10,0,0,1-9.09,0l-19-9.68-14,7.13a10,10,0,0,1-14.54-8.91V28.57a15,15,0,0,1,15-15h49a5,5,0,0,1,0,10h-49a5,5,0,0,0-5,5V436.33l14-7.13a10.06,10.06,0,0,1,9.1,0l19,9.68,19-9.68a10,10,0,0,1,9.09,0l19,9.68,19-9.68a10.06,10.06,0,0,1,9.1,0l19,9.68,19-9.68a10,10,0,0,1,9.09,0l19,9.68,18.95-9.68a10.06,10.06,0,0,1,9.1,0l14,7.13V243.13a5,5,0,1,1,10,0v193.2a10,10,0,0,1-14.55,8.91l-14-7.13-19,9.68a10,10,0,0,1-9.09,0l-19-9.68-19,9.68a10,10,0,0,1-4.55,1.09Z" transform="translate(0.5 93.33)"/><path class="cls-2" d="M222.38,203.13H135.86a5,5,0,0,1,0-10h86.52a5,5,0,0,1,0,10Z" transform="translate(0.5 93.33)"/><path class="cls-3" d="M147.38,183.1H135.86a5,5,0,0,1,0-10h11.52a5,5,0,0,1,0,10Z" transform="translate(0.5 93.33)"/><path class="cls-2" d="M242.38,248.54H135.86a5,5,0,0,1,0-10H242.38a5,5,0,0,1,0,10Z" transform="translate(0.5 93.33)"/><path class="cls-3" d="M147.38,228.51H135.86a5,5,0,0,1,0-10h11.52a5,5,0,0,1,0,10Z" transform="translate(0.5 93.33)"/><path class="cls-2" d="M232.38,294H135.86a5,5,0,0,1,0-10h96.52a5,5,0,0,1,0,10Z" transform="translate(0.5 93.33)"/><path class="cls-3" d="M147.38,273.91H135.86a5,5,0,0,1,0-10h11.52a5,5,0,0,1,0,10Z" transform="translate(0.5 93.33)"/><path class="cls-2" d="M192.38,339.35H135.86a5,5,0,0,1,0-10h56.52a5,5,0,0,1,0,10Z" transform="translate(0.5 93.33)"/><path class="cls-2" d="M238.14,339.35H216.62a5,5,0,0,1,0-10h21.52a5,5,0,0,1,0,10Z" transform="translate(0.5 93.33)"/><path class="cls-3" d="M147.38,319.32H135.86a5,5,0,0,1,0-10h11.52a5,5,0,0,1,0,10Z" transform="translate(0.5 93.33)"/><path class="cls-2" d="M296,203.13H279.47a5,5,0,0,1,0-10H296a5,5,0,0,1,0,10Z" transform="translate(0.5 93.33)"/><path class="cls-2" d="M301,198.13a5,5,0,0,1-5,5H285.55a53.36,53.36,0,0,1-2.95-10H296a5,5,0,0,1,5,5Z" transform="translate(0.5 93.33)"/><path class="cls-2" d="M296,248.54H279.47a5,5,0,0,1,0-10H296a5,5,0,0,1,0,10Z" transform="translate(0.5 93.33)"/><path class="cls-2" d="M296,294H279.47a5,5,0,0,1,0-10H296a5,5,0,0,1,0,10Z" transform="translate(0.5 93.33)"/><path class="cls-2" d="M296,339.35H279.47a5,5,0,0,1,0-10H296a5,5,0,0,1,0,10Z" transform="translate(0.5 93.33)"/><path class="cls-3" d="M294.34,319.38a5,5,0,0,1-5-5v-.12a5,5,0,0,1,10,0v.12A5,5,0,0,1,294.34,319.38Z" transform="translate(0.5 93.33)"/><path class="cls-2" d="M296,397.23H271.85a5,5,0,0,1,0-10H296a5,5,0,0,1,0,10Z" transform="translate(0.5 93.33)"/><path class="cls-2" d="M170,397.23H135.86a5,5,0,0,1,0-10H170a5,5,0,0,1,0,10Z" transform="translate(0.5 93.33)"/><path class="cls-3" d="M294.34,274a5,5,0,0,1-5-5v-.11a5,5,0,0,1,10,0V269A5,5,0,0,1,294.34,274Z" transform="translate(0.5 93.33)"/><path class="cls-3" d="M294.34,228.56a5,5,0,0,1-5-5v-.11a5,5,0,0,1,10,0v.11A5,5,0,0,1,294.34,228.56Z" transform="translate(0.5 93.33)"/><path class="cls-4" d="M294.34,183.16a5,5,0,0,1-5-5V178a5,5,0,0,1,10,0v.12A5,5,0,0,1,294.34,183.16Z" transform="translate(0.5 93.33)"/><circle class="cls-3" cx="335.43" cy="253.6" r="53.27"/><path class="cls-2" d="M339.93,102.23V28.57a15,15,0,0,0-15-15H188.05a5,5,0,0,0,0,10H324.93a5,5,0,0,1,5,5v73.66a58.27,58.27,0,1,0,10,0Zm-5,106.31a48.27,48.27,0,1,1,48.27-48.27A48.32,48.32,0,0,1,334.93,208.54Z" transform="translate(0.5 93.33)"/><path class="cls-5" d="M341.45,155.27h-1.52V145.09h9.45a5,5,0,0,0,0-10h-9.45v-2.51a5,5,0,0,0-10,0v2.51h-1.52a15.09,15.09,0,0,0,0,30.18h1.52v10.18h-9.45a5,5,0,0,0,0,10h9.45V188a5,5,0,0,0,10,0v-2.51h1.52a15.09,15.09,0,1,0,0-30.18Zm-13,0a5.09,5.09,0,0,1,0-10.18h1.52v10.18Zm13,20.18h-1.52V165.27h1.52a5.09,5.09,0,1,1,0,10.18Z" transform="translate(0.5 93.33)"/><path class="cls-2" d="M238.14,144H196.62a5,5,0,0,1,0-10h41.52a5,5,0,0,1,0,10Z" transform="translate(0.5 93.33)"/><path class="cls-2" d="M265.64,107H169.12a5,5,0,0,1,0-10h96.52a5,5,0,0,1,0,10Z" transform="translate(0.5 93.33)"/><path class="cls-2" d="M290.64,85.06H144.12a5,5,0,0,1,0-10H290.64a5,5,0,0,1,0,10Z" transform="translate(0.5 93.33)"/><path class="cls-3" d="M147.38,63.11H135.86a5,5,0,0,1,0-10h11.52a5,5,0,0,1,0,10Z" transform="translate(0.5 93.33)"/></svg>