<?xml version="1.0" encoding="utf-8"?>
<!-- Generator: Adobe Illustrator 24.0.0, SVG Export Plug-In . SVG Version: 6.00 Build 0)  -->
<svg version="1.1" xmlns="http://www.w3.org/2000/svg" xmlns:xlink="http://www.w3.org/1999/xlink" x="0px" y="0px"
	 viewBox="0 0 442.4 622" style="enable-background:new 0 0 442.4 622;" xml:space="preserve">
<style type="text/css">
	.st0{fill:#ECCA50;stroke:#ECCA50;stroke-miterlimit:10;}
	.st1{fill:#11393A;}
	.st2{fill:#ECCA50;}
</style>
<g id="Calque_1">
	<title>groupement-electricite-poemop</title>
	<g id="Calque_3">
		<path class="st0" d="M68.9,131.8c-15.9,0-31.6-2.5-46.7-7.3c-2.6-0.8-5.3,1.3-5.9,3.8c-0.5,2.6,1.2,5.2,3.8,5.9
			c15.9,5,32.6,7.6,49.3,7.6c2.7-0.2,4.8-2.5,4.7-5.3c0-2.6-2.2-4.7-4.8-4.7L68.9,131.8z"/>
		<path class="st0" d="M64.1,143.9c-15.2-0.5-30.3-3-44.8-7.6c-3.7-1-6-4.6-5.3-8.4v-0.2c0.5-2,1.9-3.8,3.7-4.8
			c1.5-0.9,3.3-1.1,5-0.6c14.9,4.7,30.4,7.2,46,7.2h0.4c3.8,0,7,3.1,7,6.9c0.2,3.9-2.8,7.3-6.8,7.5h-0.2
			C67.6,144,65.9,144,64.1,143.9z M18.5,128.7c-0.2,1.5,0.7,2.8,2.2,3.3c15.7,5,32.1,7.5,48.6,7.6c1.5-0.1,2.6-1.4,2.5-2.9
			c0-1.4-1.1-2.5-2.5-2.5h-0.4c-16.1,0-32.1-2.6-47.4-7.4c-0.5-0.2-1.1-0.1-1.5,0.2C19.3,127.3,18.7,128,18.5,128.7z"/>
		<path class="st0" d="M102.5,74.7C87.4,59.9,72.2,44.8,57.2,30c-1.8-2-4.9-2.2-6.9-0.4c-2,1.8-2.2,4.9-0.4,6.9c0,0,0,0,0,0
			c0.2,0.2,0.3,0.4,0.5,0.5l0.4,0.3C65.9,52.2,81,67.2,96.1,82.1c1.9,1.9,5.1,1.8,6.9-0.1c1.9-1.9,1.8-5.1-0.1-6.9
			C102.8,74.9,102.6,74.8,102.5,74.7z"/>
		<path class="st0" d="M99.2,85.7c-1.8-0.1-3.5-0.8-4.7-2c-7.6-7.4-15.1-14.9-22.7-22.4S56.7,46.4,49.2,39l-0.4-0.4
			c-2.9-2.7-3.1-7.2-0.5-10.1c0,0,0,0,0,0c2.7-2.9,7.2-3.1,10.1-0.5c0,0,0,0,0,0l0.3,0.3c7.2,7.1,14.4,14.2,21.6,21.3
			C88.2,57.5,96.1,65.3,104,73c0.2,0.1,0.3,0.3,0.4,0.4c2.8,2.7,2.9,7.3,0.2,10.1C103.2,85,101.2,85.8,99.2,85.7z M53.9,30.8
			c-1.5,0-2.7,1.2-2.7,2.6c0,0,0,0,0,0c0,0.7,0.3,1.4,0.8,1.9l0.2,0.2l0.2,0.2c7.5,7.4,15.1,14.9,22.6,22.4s15.1,14.9,22.7,22.4
			c1.1,1,2.7,1,3.8-0.1s1-2.7-0.1-3.8l0,0l-0.2-0.2l-0.2-0.2C93,68.5,85.1,60.7,77.2,52.8C70,45.7,62.8,38.6,55.7,31.6
			C55.2,31.1,54.5,30.8,53.9,30.8z"/>
		<path class="st0" d="M154.9,55.8c-0.6-16.7,0.8-33.4,4.3-49.7c1.4-6.2-8.3-8.2-9.6-1.9c-3.6,17.2-5.1,34.8-4.6,52.4
			C145.3,62.9,155.2,62.2,154.9,55.8z"/>
		<path class="st0" d="M149.5,63.2c-1.1,0-2.2-0.3-3.3-0.8c-2.1-1.1-3.5-3.3-3.5-5.7c-0.6-17.8,1-35.5,4.6-52.9
			c0.5-2.5,2.3-4.5,4.7-5.3c2.6-0.8,5.4-0.2,7.4,1.6c1.8,1.6,2.6,4.2,2,6.5c-3.5,16.1-4.9,32.7-4.3,49.2l0,0
			c0.2,2.5-1.1,4.9-3.2,6.3C152.7,62.8,151.1,63.2,149.5,63.2z M154.5,2.6c-0.3,0-0.7,0-1,0.1c-0.8,0.3-1.4,1-1.6,1.9
			c-3.6,17-5.1,34.4-4.6,51.8c0,0.8,0.4,1.5,1.1,1.9c1,0.5,2.2,0.4,3.2-0.2c0.8-0.5,1.2-1.4,1-2.3C152,39,153.5,22.1,157,5.6
			c0.3-0.8,0-1.7-0.6-2.3c-0.6-0.5-1.3-0.7-2-0.8H154.5z"/>
	</g>
	<g id="Calque_2_1_">
		<path class="st1" d="M434.6,502.5c0.3-0.3,0.6-0.6,0.8-0.9c7.9-10.8,6.8-26.5-3.2-35.7c-11.5-10.5-25.9-7.4-38.8-1.6
			c-2,0.9-4,1.9-6,3c-2.2-7.7-7.6-14.2-14.9-17.7c-10.7-5.4-23.2-4.3-34.4-1c-7,2.2-13.9,4.9-20.4,8.3c-8-12.9-23.1-19.3-37.9-16.2
			c-10.1,2.2-20.1,7-29.6,11c-4.8,2-9.5,4.1-14.1,6.3c-5.2,2.4-10.2,5.7-15.9,6.6c-0.7,0.1-1.3,0.3-1.9,0.6
			c-37.6-10.6-77.1-17.2-114.7-2.8c-23.2,8.9-45.2,21.7-67.3,33.1c-6.6,3.4-0.8,13.4,5.8,10c4.1-2.1,8.1-4.3,12.2-6.5
			c-5.1,14.5-8.9,29.5-11.5,44.7c-1.4,8.5-2.9,17.3,1.2,25.3c2.6,4.8,6.4,8.8,11,11.8c-17.2,9.9-33.7,21.2-52.7,27.4
			c-7.1,2.3-4,13.5,3.1,11.2c24.4-7.9,44.6-24,67.5-34.9c22.7-10.7,47.6-15.9,72.8-15.2c12.8,0.3,25.6,2.1,38,5.5
			c12.9,3.5,25.2,8.7,38,12.7c24.8,7.8,51.2,12.6,77.3,10.5c26.6-2.1,50-12.3,72.8-25.5c12-7,24-14.2,36-21.3
			c10-5.9,21.9-11.5,28-21.8c4.6-7.8,5.3-18.6-0.4-26C435.1,502.9,434.8,502.7,434.6,502.5z M357.3,457.3
			c8.4,0.4,18.4,5.3,19.5,14.6c0,0.3,0.1,0.6,0.2,0.9c-1.4,0.7-2.8,1.5-4.2,2.2c-8,4-16.6,6.7-25.1,9.5
			c-15.3,5.2-30.3,11.4-44.8,18.6c-3.8-6.9-9.7-12.4-16.7-16c-0.7-0.4-1.5-0.7-2.2-1.1c14.6-5.8,28.1-14.5,42.4-20.8
			C335.9,461.1,346.7,456.8,357.3,457.3L357.3,457.3z M273.3,454.9c7-2.5,13.7-4.9,21.1-2.5c5.3,1.6,9.9,5.1,13,9.7
			c-13,6.8-25.9,13.8-40.1,17c-0.4,0.1-0.8,0.2-1.2,0.4l-7.3-2.2c-7.2-2.2-14.5-4.4-21.7-6.6c3.4-1.7,6.7-3.5,10-5
			C255.7,461.7,264.4,458.1,273.3,454.9L273.3,454.9z M426,522.6c-5.2,9.8-19.1,15.3-28.2,20.7c-11.3,6.7-22.5,13.5-33.9,20
			c-22.4,13-45.3,22.4-71.3,23.3c-24.9,0.9-49.5-4.3-73-12.1c-11.9-4-23.6-8.7-35.9-11.8c-36.4-9.2-74.8-6.2-109.4,8.4
			c-2.4,1-4.8,2.1-7.1,3.3c-5.6-2.8-11.8-6.6-13.7-13c-2.3-7.7,1-17.8,2.6-25.3c3.3-15.4,7.9-30.6,13.7-45.3
			c24.9-13.1,50.7-25,79.2-25.4c37.7-0.4,74.3,13.2,109.9,24.1c8.9,2.7,18.5,5,26.2,10.5c6.9,4.8,12.6,14.2,8.1,22.4
			c-0.2,0.2-0.3,0.5-0.4,0.8c-11.9-1.6-23.5-3.8-34.9-7.9c-14.3-5.2-28-10.5-43.1-12.7c-15-2.1-30.2-2-45.1,0.4
			c-7.4,1.2-4.2,12.3,3.1,11.2c26-4,50.8,0.4,75.1,9.7c12.2,4.8,24.9,8.2,37.8,10.1c12.2,1.7,24.7,3.6,37.1,3.5
			c22.3-0.1,40.4-10.6,59.7-20.3c9-4.5,18.7-8.9,28.9-9.8c4.6-0.4,11.4-1,14.6,3C428.9,513.7,427.9,519,426,522.6L426,522.6z
			 M425.4,495.7c-0.2,0.3-0.4,0.6-0.5,0.9c-5.8-1.6-12.5-1.2-18.4-0.3c-22.3,3.5-40.3,18.6-61.3,25.8c-13.2,4.5-26.7,4.1-40.3,2.6
			c1.2-3.3,1.7-6.8,1.4-10.2c12.1-6,24.5-11.4,37.2-16c12.8-4.6,25.7-8.3,37.8-14.6c9.8-5.1,23.2-15.3,35-13.3
			C428.8,472.5,432.3,486.4,425.4,495.7L425.4,495.7z"/>
		<path class="st2" d="M235.1,185.7c-12.3,0-22.2,9.9-22.2,22.2V219h-11.1v-11.1c0-12.3-9.9-22.2-22.2-22.3s-22.2,9.9-22.3,22.2
			s9.9,22.2,22.2,22.3c0,0,0,0,0,0h11.1v61.1c0,3.1,2.5,5.6,5.6,5.6c3.1,0,5.6-2.5,5.6-5.6v-61.1h11.1v61.1c0,3.1,2.5,5.6,5.6,5.6
			c3.1,0,5.6-2.5,5.6-5.6v-61.1h11.1c12.3,0,22.2-10,22.2-22.2C257.3,195.6,247.4,185.7,235.1,185.7L235.1,185.7z M168.4,207.9
			c-0.3-6.1,4.4-11.4,10.5-11.7c6.1-0.3,11.4,4.4,11.7,10.5c0,0.4,0,0.8,0,1.2V219h-11.1C173.4,219,168.4,214,168.4,207.9
			L168.4,207.9z M235.1,219H224v-11.1c0-6.1,5-11.1,11.1-11.1s11.1,5,11.1,11.1S241.3,219,235.1,219C235.1,219,235.1,219,235.1,219z
			"/>
		<path class="st1" d="M212.2,97c-55.3-2.7-102.2,40-104.9,95.2c-1.5,31.6,12,62.1,36.5,82.2c4.4,3.5,7,8.7,7.1,14.3v14.7
			c0,7.9,5,15,12.5,17.6v7.4c0,4.6,1.8,9.1,4.9,12.5c-6.5,7.1-6.5,17.9,0,25c-7,7.6-6.4,19.5,1.2,26.4c3.5,3.2,8,4.9,12.7,4.9
			c3.4,0.1,6.2-2.6,6.3-5.9c0,0,0,0,0,0c0-1.3-0.4-2.6-1.1-3.7c-0.2-0.4-0.4-0.7-0.7-1.1c-0.5-0.5-1.1-0.9-1.7-1.1
			c-0.2-0.1-0.4-0.2-0.6-0.2c-0.6-0.2-1.3-0.4-2-0.4c-0.1,0-0.1,0-0.2,0c-3.5,0-6.3-2.8-6.3-6.3c0-3.5,2.8-6.3,6.3-6.3c0,0,0,0,0,0
			h25c3.5,0,6.3-2.8,6.3-6.3c0-3.5-2.8-6.3-6.3-6.3c0,0,0,0,0,0h-25c-3.5,0-6.3-2.8-6.3-6.3c0-3.5,2.8-6.2,6.3-6.3h25
			c3.5,0,6.3-2.8,6.3-6.3c0-3.5-2.8-6.2-6.3-6.3h-25c-3.5,0-6.3-2.8-6.3-6.3l0,0v-6.3h31.3c3.5,0,6.3-2.8,6.3-6.3
			c0-3.5-2.8-6.2-6.3-6.3h-37.5c-3.5,0-6.3-2.8-6.3-6.3l0,0v-14.7c-0.1-9.4-4.4-18.2-11.7-24c-37.4-30.7-42.8-86-12-123.4
			c17.6-21.4,44.2-33.2,71.9-31.9c46.3,2.8,82.6,40.7,83.4,87c0.2,26.6-11.8,51.9-32.5,68.6c-7.3,6-11.4,15-11.3,24.4v14
			c0,3.5-2.8,6.3-6.3,6.3c0,0,0,0,0,0h-18.8c-3.5,0-6.3,2.8-6.3,6.3c0,3.5,2.8,6.3,6.3,6.3c0,0,0,0,0,0h12.6v6.3
			c0,3.5-2.8,6.3-6.3,6.3l0,0h-6.3c-3.5,0-6.3,2.8-6.3,6.3c0,3.5,2.8,6.3,6.3,6.3c0,0,0,0,0,0h6.3c3.5,0,6.3,2.8,6.3,6.3
			c0,3.5-2.8,6.2-6.3,6.3h-6.3c-3.5,0-6.3,2.8-6.3,6.3c0,3.5,2.8,6.2,6.3,6.3h6.3c3.5,0,6.3,2.8,6.3,6.3c0,3.5-2.8,6.3-6.3,6.3
			c0,0,0,0,0,0h-31.3c-3.5,0-6.3,2.8-6.3,6.3c0,3.5,2.8,6.2,6.3,6.3h24c-3.5,9.8-14.2,14.9-24,11.4c-3-1.1-5.7-2.9-7.8-5.2
			c-2.3-2.6-6.3-2.8-8.8-0.5c-2.6,2.3-2.8,6.3-0.5,8.8l0,0l0,0c11.5,12.9,31.2,14.1,44.1,2.6c5.3-4.7,8.9-11.1,10.1-18.2
			c9.8-3.1,15.3-13.5,12.2-23.3c-0.8-2.6-2.2-5-4-7c6.5-7.1,6.5-17.9,0-25c3.1-3.4,4.9-7.9,4.9-12.5v-7.4
			c7.5-2.7,12.5-9.7,12.5-17.7v-13.9c-0.1-5.6,2.4-11,6.6-14.6c23.8-19.1,37.4-48,37.2-78.5C306.6,143.5,265,100.2,212.2,97z"/>
	</g>
</g>
<g id="Calque_2">
</g>
</svg>
