<svg xmlns="http://www.w3.org/2000/svg" viewBox="0 0 411.51 577.3"><defs><style>.cls-1{fill:#fff;}.cls-2{fill:#ecca50;}</style></defs><title>groupement-abonnement-telephone</title><g id="Calque_4" data-name="Calque 4"><path class="cls-1" d="M388.68,202.4a32.3,32.3,0,0,0,10.93-18.24c2.55-12.34-1.49-26.66-11.14-34.82a32.06,32.06,0,0,0,5.53-9c7.13-18.12-6.33-33.68-21.6-41.41q.06-24.24.1-48.48c0-13.92,1.84-30.42-8.67-41.34-8.65-9-22.22-10.64-34-10.87-16.9-.31-33.86.29-50.77.47L173.37-.2c-7.54.08-16.07-.77-23.28,1.93C143.9,4.05,139.78,9.07,137.24,15c-6.19,14.54-5.56,31.31-5.59,46.79l-.21,102.69c-4.49-1.57-9.71-1.79-14.53-1.85-8.71-.1-18.21.78-25.41,6.16-7.89,5.9-10.16,15.25-10.52,24.64-.45,12.15-.2,24.3-.79,36.45-.63,12.7-1.56,25.39-2.5,38.07-1.81,24.67-3.65,49.39-3.19,74.15.24,12.91,2.39,26.16,1.07,39-1.29,12.6-8.32,21-17.71,28.84A646.18,646.18,0,0,1-8.65,458.27c-5.83,3.73-.42,13.08,5.45,9.32Q25.33,449.34,52,428.47c8.08-6.31,16.83-12.53,23.48-20.41,6.41-7.59,9.72-16.23,10.78-26.06,1.11-10.32-.28-20.76-.71-31.08-.51-12-.4-24.07,0-36.09.87-23.46,3-46.84,4.54-70.26.75-11.71,1.34-23.43,1.53-35.16.14-8.82-2.07-21.44,3.42-29.1,5.05-7,15.49-7,23.24-6.81,3.89.1,10.18-.46,12.54,3.36a6.76,6.76,0,0,1,.53,1.08c0,1.28,0,2.57,0,3.85a5.24,5.24,0,0,0,.77,2.84c-.09,2-.32,4-.38,5.58q-.67,17.67-1.36,35.34c-.42,11.07-1.32,22.23-.91,33.3.38,10.18,2.29,20.56,8.23,29.06,6.2,8.89,14.21,16.74,21.39,24.85,7.91,8.94,17.69,18,21.69,29.51s2.34,24.35,1.67,36.22c-.61,10.7-.66,21.7-2.77,32.24-1.79,8.87-5.08,17.61-13.57,21.93-6.2,3.15-.74,12.47,5.45,9.32,7.49-3.81,12.19-10.06,15.19-17.3a5.08,5.08,0,0,0,3.65,1.41l87.93.09C263.88,455.1,233,470.75,201.31,473c-9.09.64-18.34-.42-27.33,1.38-8.37,1.67-16.38,5.78-23.77,9.93-15.78,8.85-28.79,20.75-41.38,33.59L61.45,566.18c-4.87,5,2.76,12.61,7.64,7.64l42.5-43.32c13.19-13.45,26.13-26.53,42.57-36,7.65-4.41,16-8.92,24.89-10.05,9.09-1.16,18.4-.09,27.55-1.11,17.25-1.94,34.28-7.05,49-16.49s26.91-22.83,33.92-38.94a6.47,6.47,0,0,0,.46-1.69l14.26,0c9.57,0,19.13.06,28.69,0,7.54,0,14.66-.8,20.84-5.5,13-9.92,14.22-26.86,14.36-41.95q.29-32.75.51-65.49a6.05,6.05,0,0,0-.27-1.82c11.18-4.53,21.84-12.17,27.15-23.18,3.5-7.25,3-14.82-.41-22A36.54,36.54,0,0,0,388.3,256a33.8,33.8,0,0,0,10.19-15.17C402.53,228.81,399.26,210.82,388.68,202.4Zm-2.51-13.25c-7.45,12.45-24,12.73-36.7,15.07a169.27,169.27,0,0,0-20.78,5.68c-7.14,2.28-13,2.86-18.53-2.93-2.44-2.56-4.24-5.22-2.52-8.68,1.4-2.82,4.19-5,6.5-7.08a80,80,0,0,1,17.29-11.37,5.52,5.52,0,0,0,1.09-.7c7.67-2,15.2-5.59,21.08-8.32,8.51-3.95,18.73-8.23,27-14.32C390.6,162.79,391.67,180,386.17,189.15ZM369,109.09c6.24,3.16,12,7.87,14.59,14.46,3.21,8,.34,15.63-5.8,21.22a4.29,4.29,0,0,0-2,1.68c-6.05,4.79-13.59,8.09-20.38,11.51-8.14,4.1-16.46,7.91-25.26,10.38-6.87,1.92-20.92,3.17-18.09-8.31,1.93-7.8,8.19-15,13.73-20.52C338.41,127,354.52,119,369,109.09ZM143.1,37.57c.58-6.37,1.6-13.25,4.36-19.1,3.63-7.67,10.38-7.7,17.94-7.78q47.83-.55,95.68-1l47.84-.5c12.48-.13,26.26-1.72,38.33,2.24,14.28,4.67,14.63,18.37,14.5,31.14h-219C142.83,40.89,143,39.23,143.1,37.57ZM165.51,303.7q-6-6.76-12-13.51c-4-4.51-8-8.95-10.26-14.63-4-10.17-3.14-21.65-2.74-32.33L142,205.92q.36-9.33.72-18.66a43.76,43.76,0,0,0-.5-10.17l.19-93.27c0-10.1-.28-20.31-.09-30.46H361.7q-.06,23.88-.1,47.76c-14.53,9.7-30.22,17.94-42.84,30.18C309,140.74,293,160.71,305,174a19.53,19.53,0,0,0,7.09,5c-1.46,1.09-2.9,2.23-4.3,3.41-5.12,4.32-10.64,9.57-11.6,16.53-1.86,13.49,13,23.85,25.32,23.43-5.29,4.08-10.7,8.28-15,13.23-9.81,11.17-11.48,29.19,3.76,36.55a29.16,29.16,0,0,0,13.19,2.72,124.78,124.78,0,0,0-9.3,11.54c-4,5.5-6.89,12-5.51,18.9A15.93,15.93,0,0,0,321,317.66c6.46,1.53,13.46.56,20-.1a126.24,126.24,0,0,0,16.86-2.72q-.16,22.34-.34,44.67H194.07c-.09-10.2-1.77-20.23-6.95-29.21C181.43,320.45,173,312.16,165.51,303.7ZM348.77,410.85c-5.5,5.22-12.79,4.59-19.84,4.59l-26.7,0-52.43-.06-59.35-.06a5.58,5.58,0,0,0-.72,0,117.33,117.33,0,0,0,2.41-18c.63-9,1.32-18,1.69-27h163.6C357.71,384,359,401.13,348.77,410.85ZM378,293.35c-9.62,8.51-22.79,11.77-35.23,13.21-5.66.66-12,1.7-17.65.92-6.87-.94-6.94-6.83-4-12,5.44-9.54,14.72-20.17,25.13-24.46,5.54-1.36,11-2.84,16.52-4.4,4.86-1.39,10.12-2.65,15-4.54a5.94,5.94,0,0,0,.75.08c2.58.12,5,5.44,6.1,7.39a17.27,17.27,0,0,1,2.58,9C386.92,284.35,382.13,289.65,378,293.35Zm5.61-47.64c-5.26,5.87-13.66,7.53-20.91,9.65-5.44,1.6-10.93,3.08-16.43,4.46a5.4,5.4,0,0,0-1.93.36c-.27.1-.54.22-.81.33-2,.48-4,1-6,1.41-7.42,1.71-16.73,4.4-23.74-.05-7.16-4.55-4.21-13.26.32-18.59,5-5.85,11.72-10.52,17.71-15.27a108.63,108.63,0,0,1,20.41-13.18c.14-.06.27-.14.4-.21,6.24-1.09,12.56-1.83,18.7-3.43A50.2,50.2,0,0,0,378,208.9c6.48,2,9.69,9.35,10.9,15.65C390.34,232,388.69,240,383.56,245.71Z" transform="translate(11.15 1.87)"/><path class="cls-2" d="M202.59,86.22a134.64,134.64,0,0,1-34.18,27c-6.08,3.38-.64,12.71,5.45,9.32a144.18,144.18,0,0,0,36.37-28.72C214.91,88.73,207.29,81.08,202.59,86.22Z" transform="translate(11.15 1.87)"/><path class="cls-2" d="M255.26,85.65a1091.25,1091.25,0,0,1-85.15,81.44c-5.29,4.54,2.38,12.15,7.63,7.64A1093.24,1093.24,0,0,0,262.9,93.29C267.65,88.22,260,80.57,255.26,85.65Z" transform="translate(11.15 1.87)"/><path class="cls-2" d="M102,493.28c-19.71,16.6-33.45,39.46-54.52,54.54-5.19,3.71-.2,12.39,5,8.63,21.85-15.63,36.13-38.91,56.54-56.1C114,496.2,106.87,489.15,102,493.28Z" transform="translate(11.15 1.87)"/><path class="cls-2" d="M97,224.7c-3.33,36.76-6.58,73.63-4.53,110.56.35,6.4,10.35,6.44,10,0-2-36.93,1.2-73.8,4.53-110.56C107.56,218.3,97.56,218.34,97,224.7Z" transform="translate(11.15 1.87)"/></g></svg>