<svg xmlns="http://www.w3.org/2000/svg" viewBox="0 0 598.44 680.28"><defs><style>.cls-1{fill:none;stroke-linecap:round;stroke-linejoin:round;stroke-width:14px;}.cls-1,.cls-3{stroke:#11393a;}.cls-2,.cls-4{fill:#ecca50;stroke:#ecca50;}.cls-2,.cls-3,.cls-4{stroke-miterlimit:10;}.cls-2,.cls-3{stroke-width:3px;}.cls-3{fill:#11393a;}</style></defs><title>groupement-gaz</title><g id="Calque_5" data-name="Calque 5"><path class="cls-1" d="M109.22,425.09a5.6,5.6,0,0,0,7.32-8c-16.86-26.24-32.83-70.4-7.39-127.28,42.42-94.84,68.24-144,68.24-144s13.73,57.32,51,108.29c35.83,49.06,55.43,110.75,23.82,162.15a5.6,5.6,0,0,0,7.31,7.93c39.13-20,83-60.16,88-140.06,1.82-24.42-.91-58.6-14.61-101.73-17.6-54.67-39.24-80.18-51.77-91.14a5.6,5.6,0,0,0-9.26,4.6c3.65,59-18.54,74-31.17,40.22-5-13.47-8-36.78-8-65.16,0-47.25-13.71-95.89-43.93-135.41a153.3,153.3,0,0,0-27.6-28.07,5.6,5.6,0,0,0-9,4.84c2.32,32,.22,123.82-80.32,233.49-73,101.73-44.72,179.86-34.68,201C56.29,387.38,83.07,411.19,109.22,425.09Z" transform="translate(124.11 100.7)"/><path class="cls-2" d="M160.37,6.33c-2.44,35.88-21,67.75-38.71,98.12-4.21,7.21,7,13.73,11.18,6.53,19-32.52,37.87-66.29,40.47-104.65C173.88-2,160.93-1.95,160.37,6.33Z" transform="translate(124.11 100.7)"/><path class="cls-2" d="M323.86,239.28c-1.64-8.16-14.13-4.7-12.48,3.44a166.84,166.84,0,0,1-12.47,103.66c-3.53,7.49,7.63,14.07,11.18,6.53A181.65,181.65,0,0,0,323.86,239.28Z" transform="translate(124.11 100.7)"/></g><g id="Calque_2" data-name="Calque 2"><path class="cls-3" d="M469.78,566.72c0-.22,0-.44,0-.67V451.61a5.87,5.87,0,0,0-3.16-5.46,314.11,314.11,0,0,0-38.35-35.1c-10.39-8-25.48-22.39-39.85-16.65-16.78,6.7-8.14,27.28.83,36.5,11.34,11.66,24.93,21.68,38.19,31.16v104h-48.3c.15-17,.49-34.09.29-51.12-.19-15.46-6.84-26-21.68-31.07-15.34-5.26-32.75-4.35-48.74-4.58q-28.64-.42-57.28-.7-56.1-.56-112.2-.56-28.64,0-57.29.14c-17,.08-35-1.36-51.8,1.72C-7.86,487-9.87,534.82-7.92,566.1H-51.5V464.35c13.26-9.49,26.85-19.51,38.19-31.16,9-9.22,17.61-29.8.83-36.5-14.37-5.74-29.47,8.63-39.85,16.65a312.51,312.51,0,0,0-38.35,35.1,5.86,5.86,0,0,0-3.16,5.45V566.57c-5.2,2.2-4.41,11.52,2.41,11.52H467C473.7,578.09,474.61,569.17,469.78,566.72Zm-532.19-110a6,6,0,0,0-2,4.71V566.1H-80.9V456.93a308.86,308.86,0,0,1,26.25-25.17c9.09-7.71,19.22-16.95,30.13-22,1.78-.83,5.06-2.21,7-1.18,2.83,1.48,1.54,5.69.55,7.94-2.28,5.17-6.94,9.06-11.09,12.71a407.67,407.67,0,0,1-32.81,26A6.87,6.87,0,0,0-62.41,456.69Zm96.07,34.8c14.94-2.67,31.1-1.21,46.23-1.29q25.65-.12,51.32-.14,50.73,0,101.45.38,25.67.21,51.32.53c16.81.22,33.76-.12,50.54,1.07,7.74.54,16.13,1.28,23.23,4.71,7.83,3.78,9.6,9.81,9.72,18.07H8.57C12.45,502.44,20,493.93,33.66,491.49ZM367.18,566.1H4.07A169.64,169.64,0,0,1,5.8,526.8H367.53C367.52,539.9,367.3,553,367.18,566.1Zm73.23,0s0,0,0-.05V459.11a5.93,5.93,0,0,0-2.05-4.7,6.81,6.81,0,0,0-1.56-1.51,410.38,410.38,0,0,1-32.81-26c-4.15-3.66-8.81-7.55-11.09-12.72-1-2.24-2.28-6.46.55-7.94,2-1,5.25.35,7,1.18,10.9,5.06,21,14.3,30.13,22a308.8,308.8,0,0,1,26.24,25.17V566.05s0,0,0,.05Z" transform="translate(124.11 100.7)"/><path class="cls-3" d="M127.56,451.52v25.32c0,7.72,12,7.73,12,0V451.52C139.54,443.8,127.56,443.79,127.56,451.52Z" transform="translate(124.11 100.7)"/><path class="cls-3" d="M235.91,451.52v25.32c0,7.72,12,7.73,12,0V451.52C247.89,443.8,235.91,443.79,235.91,451.52Z" transform="translate(124.11 100.7)"/><path class="cls-4" d="M-50.5,144.27a210.26,210.26,0,0,1-63.68,7.46c-3.73-.11-6.37,3.65-6.31,7.07a7,7,0,0,0,7.07,6.33,224.18,224.18,0,0,0,67.1-8,6.81,6.81,0,0,0,4.18-8.6,6.41,6.41,0,0,0-7.9-4.35Z" transform="translate(124.11 100.7)"/><path class="cls-4" d="M-52.32,161.82a226.65,226.65,0,0,1-61.23,6.35,10,10,0,0,1-10-9.07l-.06-.23a10.6,10.6,0,0,1,3.11-7.6,8.61,8.61,0,0,1,6.34-2.58,206.76,206.76,0,0,0,62.66-7.31l.54-.13a9.47,9.47,0,0,1,11.69,6.48A9.88,9.88,0,0,1-45.35,160l-.22.05C-47.77,160.66-50,161.26-52.32,161.82Zm-65.11-3.21a4.06,4.06,0,0,0,4,3.47,220.51,220.51,0,0,0,66.21-7.8A3.8,3.8,0,0,0-45,149.55a3.39,3.39,0,0,0-4.15-2.42h0l-.47.11a213.27,213.27,0,0,1-64.62,7.56,2.42,2.42,0,0,0-1.89.82A4.57,4.57,0,0,0-117.43,158.61Z" transform="translate(124.11 100.7)"/><path class="cls-4" d="M-27.47,57.5c-25.12-13.9-50.36-28.07-75.45-41.93a6.66,6.66,0,0,0-9.18,2,6.66,6.66,0,0,0,2,9.18,6.21,6.21,0,0,0,.88.47l.59.3c25.12,13.89,50.34,28,75.45,41.92a6.64,6.64,0,0,0,9-2.68,6.64,6.64,0,0,0-2.68-9A3.36,3.36,0,0,0-27.47,57.5Z" transform="translate(124.11 100.7)"/><path class="cls-4" d="M-27.71,73a9.57,9.57,0,0,1-6.92-.88q-18.87-10.43-37.77-21T-110,30.29l-.71-.35a9.69,9.69,0,0,1-4.27-13,9.7,9.7,0,0,1,13-4.27l.46.25q17.92,9.93,35.9,19.94,19.73,11,39.42,21.91a6.38,6.38,0,0,1,.74.37,9.69,9.69,0,0,1,3.89,13.15A9.74,9.74,0,0,1-27.71,73Zm-79.22-55.13a3.62,3.62,0,0,0-2.57,4.43,3.61,3.61,0,0,0,1.75,2.24l.33.15.3.13q18.83,10.42,37.73,21t37.73,21a3.6,3.6,0,0,0,4.88-1.48,3.6,3.6,0,0,0-1.48-4.88h0l-.33-.15-.31-.15q-19.76-10.93-39.58-22l-35.86-19.93A3.64,3.64,0,0,0-106.93,17.91Z" transform="translate(124.11 100.7)"/><path class="cls-4" d="M34.14,13.72A270.5,270.5,0,0,1,21.68-52.8c-.5-8.65-13.82-7.63-13.29,1a297.05,297.05,0,0,0,13.13,70C24.11,26.4,36.77,21.91,34.14,13.72Z" transform="translate(124.11 100.7)"/><path class="cls-4" d="M29.77,25.29a10.13,10.13,0,0,1-4.55.08,8.82,8.82,0,0,1-6.64-6.2A301,301,0,0,1,5.36-51.58a9.25,9.25,0,0,1,4.18-8.57,10.52,10.52,0,0,1,10.31-.66,9.06,9.06,0,0,1,5,7.83A267.22,267.22,0,0,0,37.13,12.78h0a9.32,9.32,0,0,1-1.9,9.35A10.7,10.7,0,0,1,29.77,25.29ZM14.18-55.64a4.67,4.67,0,0,0-1.3.55A3.23,3.23,0,0,0,11.54-52,294.68,294.68,0,0,0,24.41,17.33a2.8,2.8,0,0,0,2.1,2.1A4.54,4.54,0,0,0,30.57,18a3.24,3.24,0,0,0,.65-3.4A273.05,273.05,0,0,1,18.63-52.62,3,3,0,0,0,17-55.37a4.34,4.34,0,0,0-2.86-.26Z" transform="translate(124.11 100.7)"/></g></svg>