<svg id="Layer_1" data-name="Layer 1" xmlns="http://www.w3.org/2000/svg" viewBox="0 0 2604.43 1817.29"><defs><style>.cls-1,.cls-14{fill:#87bad0;}.cls-1{opacity:0.22;}.cls-2{fill:#347261;}.cls-3{fill:#407f6c;}.cls-4{fill:#2b6050;}.cls-5{fill:#649e89;}.cls-6{fill:#4d8975;}.cls-7{fill:#f8a492;}.cls-8{fill:#e27950;}.cls-9{fill:#fe875e;}.cls-10{fill:#0f393a;}.cls-11{fill:#edcb50;}.cls-12{fill:#f48c7f;}.cls-13{fill:#ef8351;}.cls-15{fill:#f7a491;}.cls-16{fill:#184c4c;}.cls-17{fill:#f47458;}.cls-18{fill:#fff;}.cls-19{fill:#ddba4b;}.cls-20{fill:#7baaba;}.cls-21{fill:#13375b;}.cls-22{fill:#50bfa5;}.cls-23{fill:#a8cff0;}</style></defs><title>header-achat-groupes-poemop</title><path class="cls-1" d="M252.76,1965H2530.23c188.77-157.47,91.63-631.31-66.05-727.37-169.72-103.4,99.79-461-161.66-577.06-170.71-75.78-442.21,6.82-405.69-195.94,50.64-281.16-541.27-353.19-977.35-277.41C448,269.12,878.56,672,360.1,753.14,93.51,794.88,145,1152,169.88,1225.75,191.53,1290,334.77,1392,135.7,1532.34-156.2,1738.18,245.88,1961.17,252.76,1965Z" transform="translate(-29.57 -159)"/><path class="cls-2" d="M2275.74,762.28s-37.28,81.16-62.37,115.45-49,67.07-69,162.23-16.59,104.72-22.07,129.3-41.13,124.16-41.34,142.42-72.06,122.21-90.47,170.87-51,118.15-49.17,153.53l8.19-2.08s6.67-82.5,63.47-165.88,48.68-99.12,113.19-142S2232.33,1165,2232.33,1165s65.62-128.52,62.57-195.34S2309.26,842.61,2275.74,762.28Z" transform="translate(-29.57 -159)"/><path class="cls-2" d="M2188.43,637.44s-2.17,53.32-19.37,85-32,50.91-35.13,85.18S2120,930.22,2072.05,973.36s-54.08,172.36-90.59,211.45-41.27,67.2-34.53,134.25,29.64,160-23.31,281.26l-12-30.17s37.88-99.78,28.71-158.21-41.08-146.71-29.4-189-31.76-50.61-5.6-114.65,15.41-86.29,51-141.66c0,0,3.65-2.59,13-49.44s84.83-132.71,119.61-162S2173.89,678.87,2188.43,637.44Z" transform="translate(-29.57 -159)"/><path class="cls-3" d="M2046.78,901.43s-41.65,71.3-42.24,117.19,4.38,83.23-16.69,146.07,20.75,102.58,8.69,137.28-13,75.78-12.62,106.93-47.7,134.26-55,186.46,2,52.38,2,52.38,8-68.92,19-91.71,44.69-101.37,52.55-131.77,29.15-49.91,47.52-101.39,44.49-94.85,42.5-167.91S2119.94,1004.8,2046.78,901.43Z" transform="translate(-29.57 -159)"/><path class="cls-3" d="M1958.61,1599.9s19.42-90.49,101.31-99.53,130,7.16,187.86-58.95,91.46-171,109.94-189.09c0,0-29.07-15-77.39,30.22s-82.28,79.46-110.26,105.76-50.69,9.16-80.23,26.5c-24.76,14.53-56.77,56.54-70.87,78.54a99.07,99.07,0,0,1-16.25,19.46c-5.67,5.24-12.43,11.66-16.76,16.38-8.67,9.45-33.68,71-33.68,71Z" transform="translate(-29.57 -159)"/><path class="cls-3" d="M1929.74,1583.94s28.87-110.67,9.53-164.83-79.85-94.23-77.42-128.25,41.29-126,9.61-194.42c0,0-12,61.06-23.91,74.64s-93.37,68.36-78.92,140.71,93.67,89.25,113.18,110.55,45.86,21.27,46,35.43,5.31,65.65-3.44,116.46Z" transform="translate(-29.57 -159)"/><path class="cls-4" d="M1961.3,1509.88l40.55-116.8s23.82-93.95,37.62-172.29,7.31-319.36,7.31-319.36-41.65,71.3-42.24,117.19,4.38,83.23-16.69,146.07,20.75,102.58,8.69,137.28-13,75.78-12.62,106.93-47.7,134.26-55,186.46c-4,28.6-3,41.57-1.29,47.46C1921.11,1597.16,1961.3,1509.88,1961.3,1509.88Z" transform="translate(-29.57 -159)"/><path class="cls-2" d="M2161,1440.3c-36.17,7.22-68.51,4.76-111.45,36.72s-68.19,66.09-68.19,66.09-19.3,34.49-27.28,52.68c-1.15,2.78-1.82,4.44-1.82,4.44l6.33-.33s19.42-90.49,101.31-99.53,130,7.16,187.86-58.95,91.46-171,109.94-189.09c0,0-61.53,47.87-99.56,90.24S2197.2,1433.07,2161,1440.3Z" transform="translate(-29.57 -159)"/><path class="cls-4" d="M1847.55,1171.08c-11.88,13.59-93.37,68.36-78.92,140.71s93.67,89.25,113.18,110.55,45.86,21.27,46,35.43,5.31,65.65-3.44,116.46l2.34,4.24c4.27-19.83,10.2-50,12.14-73,3.15-37.23-2.88-52.65-14.85-82.81s-86.34-91.61-105-123.91,35.94-86.3,48-112.37,4.37-90,4.37-90S1859.42,1157.5,1847.55,1171.08Z" transform="translate(-29.57 -159)"/><path class="cls-4" d="M2040.88,1530.47l12.73-30.77c9.88-22.63,35.15-33.43,56.45-24.13h0c53.69,23.43,77,88.65,52.13,145.68l-18.2,41.69c-8,18.26-5.2,38.36,5.56,52.52,9.76,12.87,11.35,30.76,4.58,46.27l-9.59,22A87.44,87.44,0,0,1,2090,1832.4a53,53,0,0,0-32.95,29.77l-13.58,31.12c-15,34.4-53.45,50.83-85.84,36.7l-18.48-8.07c-32.39-14.14-46.47-53.49-31.45-87.9h0c24.29-41.14,22.35-71.84,13.74-92.67a124.58,124.58,0,0,1,1.19-97.21l1.92-4.4a123.67,123.67,0,0,1,75.57-68.39C2014.76,1566.68,2030.05,1555.27,2040.88,1530.47Z" transform="translate(-29.57 -159)"/><path class="cls-5" d="M1811.66,1965c26-33.78,168.9-214.72,262-244.88,102.82-33.28,5.91,98.92,5.91,98.92s182.39-199.44,249.33-181.46c61.35,16.48,0,140.1,0,140.1s69.1-68.46,152.9-68.46c81.55,0-57,242.78-64.46,255.78Z" transform="translate(-29.57 -159)"/><path class="cls-2" d="M2361.32,1573.52a1201.81,1201.81,0,0,0-160,383l-5.11-1.37a1209.54,1209.54,0,0,1,159.38-379.8c17.29-27,36-59.07,68.34-69.61.62-.2.86.75.26,1C2394.62,1517.88,2377.5,1548.26,2361.32,1573.52Z" transform="translate(-29.57 -159)"/><path class="cls-2" d="M2219.28,1961.37a1502.12,1502.12,0,0,1,304.89-308.93c1.21-.91,2.83,1.19,1.62,2.12a1500.47,1500.47,0,0,0-300.18,308.5Z" transform="translate(-29.57 -159)"/><path class="cls-2" d="M2368.13,1501.35c1.92,2.82,9.26,10.18,11.42,19.84,2.9,9.17.61,20.65.36,20.25-.55.23,8.5-7.42,11.33-19.59,3.66-11.68,1.1-27.87-3.46-33.23-7.86-12.13-21.6-13.36-24.27-7.48C2360.68,1487,2364.27,1494.93,2368.13,1501.35Z" transform="translate(-29.57 -159)"/><path class="cls-2" d="M2386,1605.23c-2.78-2-10-9.46-19.62-11.81-9.11-3.07-20.63-1-20.24-.76-.23.55,7.59-8.35,19.82-10.93,11.74-3.43,27.88-.55,33.15,4.11,12,8.1,12.93,21.86,7,24.41C2400.17,1613,2392.3,1609.22,2386,1605.23Z" transform="translate(-29.57 -159)"/><path class="cls-2" d="M2359.05,1650.76c-2.78-2-10-9.46-19.61-11.8-9.11-3.08-20.64-1-20.24-.77-.24.55,7.59-8.35,19.81-10.93,11.75-3.43,27.89-.55,33.16,4.11,12,8.1,12.93,21.86,7,24.41C2373.27,1658.5,2365.39,1654.75,2359.05,1650.76Z" transform="translate(-29.57 -159)"/><path class="cls-2" d="M2455,1756.38c-2.78-2-10-9.47-19.62-11.81-9.11-3.08-20.63-1-20.23-.77-.24.55,7.58-8.35,19.81-10.93,11.74-3.43,27.88-.55,33.15,4.11,12,8.1,12.93,21.86,7,24.41C2469.23,1764.11,2461.36,1760.36,2455,1756.38Z" transform="translate(-29.57 -159)"/><path class="cls-2" d="M2504.05,1713.18c-2.78-2-10-9.46-19.62-11.81-9.11-3.08-20.63-1-20.24-.76-.24.55,7.59-8.35,19.82-10.94,11.74-3.42,27.88-.54,33.15,4.11,12,8.1,12.93,21.86,7,24.42C2518.26,1720.91,2510.39,1717.17,2504.05,1713.18Z" transform="translate(-29.57 -159)"/><path class="cls-2" d="M2330.49,1552.87c2.34,2.48,10.75,8.59,14.4,17.8,4.31,8.59,3.86,20.29,3.55,19.93-.51.32,7.22-8.67,8.1-21.13,1.77-12.11-3.31-27.69-8.65-32.27-9.68-10.74-23.44-9.78-25.15-3.56C2320.87,1539.86,2325.67,1547.14,2330.49,1552.87Z" transform="translate(-29.57 -159)"/><path class="cls-2" d="M2290.92,1604.5c3.33,1.77,15,5,20.82,13.68,6.62,7.74,7.46,21,7,20.72-.62.57,8.29-12.78,7.9-27.07.83-14.27-7.65-29.48-15.12-32.29-13.83-7.83-31.53-.85-33,6.84C2276.89,1594.12,2284,1600.18,2290.92,1604.5Z" transform="translate(-29.57 -159)"/><path class="cls-2" d="M2249.29,1682.71c3.58,1.18,15.58,2.38,22.81,10,7.83,6.52,10.89,19.44,10.41,19.25-.52.66,6-14,3.24-28-1.59-14.21-12.5-27.78-20.34-29.3-14.95-5.38-31.22,4.47-31.36,12.29C2233.7,1674.83,2241.72,1679.62,2249.29,1682.71Z" transform="translate(-29.57 -159)"/><path class="cls-2" d="M2372.5,1737.19c2.61,1.63,11.89,4.89,16.15,12.31,4.94,6.67,4.87,17.5,4.53,17.25-.54.43,7.47-9.92,8-21.56,1.49-11.56-4.54-24.42-10.46-27.14-10.81-7.15-25.6-2.48-27.22,3.69C2361.67,1727.94,2367.1,1733.28,2372.5,1737.19Z" transform="translate(-29.57 -159)"/><path class="cls-2" d="M2436.65,1519.66c-1.56-1.29-5.5-6-11.09-7.85-5.26-2.22-12.16-1.5-11.94-1.33-.16.31,4.85-4.61,12.2-5.6,7.1-1.52,16.52.89,19.43,3.88,6.73,5.31,6.69,13.49,3.07,14.74S2440.22,1522.29,2436.65,1519.66Z" transform="translate(-29.57 -159)"/><path class="cls-2" d="M2421.71,1486.42c.07,2,1.42,8-.56,13.57-1.45,5.52-6.23,10.55-6.23,10.28-.35-.06,6.61-1,11.88-6.25,5.54-4.69,9.38-13.63,8.79-17.76-.1-8.57-6.6-13.54-9.8-11.43S2421.8,1482,2421.71,1486.42Z" transform="translate(-29.57 -159)"/><path class="cls-2" d="M2539.36,1669.18c-1.56-1.28-5.5-6-11.09-7.84-5.26-2.22-12.16-1.5-11.94-1.34-.17.32,4.85-4.6,12.2-5.6,7.1-1.51,16.52.9,19.43,3.88,6.73,5.32,6.69,13.5,3.07,14.75S2542.93,1671.82,2539.36,1669.18Z" transform="translate(-29.57 -159)"/><path class="cls-2" d="M2521.33,1635.66c.24,2,2.08,7.9.56,13.57-1,5.62-5.35,11-5.37,10.75-.35,0,6.51-1.57,11.34-7.19,5.12-5.14,8.22-14.35,7.3-18.42-.8-8.54-7.69-13-10.71-10.6S2521.07,1631.23,2521.33,1635.66Z" transform="translate(-29.57 -159)"/><path class="cls-2" d="M2508.79,1852.28c-76.09,8.34-147,41.93-215.19,74.68-46,22.09-43.68,28.38-53,31.67a1.89,1.89,0,0,1-2.3-2.58c3.6-7.14,13.06-12,19.63-16.08a256.48,256.48,0,0,1,23.77-13c17.37-8.43,35.18-16,52.88-23.7,36-15.65,72.61-30.37,110.65-40.33a388.34,388.34,0,0,1,63.56-11.33.31.31,0,0,1,.05.62Z" transform="translate(-29.57 -159)"/><path class="cls-2" d="M2440.21,1828.68c.49,3.13,3.75,12.19,1.74,21.14-1.19,8.83-7.64,17.55-7.68,17.12-.56,0,10.05-2.87,17.22-12,7.67-8.34,11.91-22.92,10.21-29.21-1.8-13.27-12.83-19.72-17.39-15.84S2439.51,1821.78,2440.21,1828.68Z" transform="translate(-29.57 -159)"/><path class="cls-2" d="M2373.17,1852.69c.5,3.12,3.75,12.18,1.74,21.14-1.19,8.83-7.63,17.55-7.68,17.11-.55,0,10.05-2.87,17.22-12,7.68-8.34,11.92-22.93,10.22-29.22-1.81-13.27-12.84-19.72-17.4-15.84S2372.47,1845.79,2373.17,1852.69Z" transform="translate(-29.57 -159)"/><path class="cls-2" d="M2305.06,1883.05c.49,3.12,3.74,12.18,1.74,21.14-1.19,8.83-7.64,17.55-7.68,17.11-.56,0,10.05-2.87,17.22-12,7.67-8.34,11.91-22.93,10.21-29.22-1.8-13.26-12.84-19.72-17.39-15.84S2304.36,1876.15,2305.06,1883.05Z" transform="translate(-29.57 -159)"/><path class="cls-2" d="M2460.22,1891.32c-1.38-2.58-4-11.07-10.51-16.55-5.81-5.85-15.43-8.67-15.22-8.33-.39.33,9-3.49,19.36-.8,10.31,1.86,21.58,10.24,23.84,15.83,6.07,10.78,1.54,21.69-4,21.38S2463.55,1896.79,2460.22,1891.32Z" transform="translate(-29.57 -159)"/><path class="cls-2" d="M2390.49,1916c-1.37-2.58-4-11.07-10.51-16.55-5.81-5.85-15.43-8.67-15.22-8.33-.39.33,9-3.49,19.37-.8,10.31,1.86,21.57,10.24,23.83,15.83,6.07,10.78,1.54,21.69-4,21.38S2393.83,1921.47,2390.49,1916Z" transform="translate(-29.57 -159)"/><path class="cls-2" d="M2513.32,1865.91c-1.2-1.44-4-6.42-8.79-9-4.41-2.91-10.82-3.41-10.65-3.22-.2.26,5.2-3.38,12-3.06,6.72-.19,14.9,3.58,17.06,6.79,5.24,6,3.84,13.42.33,13.95S2516.14,1868.91,2513.32,1865.91Z" transform="translate(-29.57 -159)"/><path class="cls-2" d="M2505.28,1833.13c-.28,1.85-.05,7.56-2.78,12.27-2.25,4.78-7.45,8.57-7.4,8.31-.31-.11,6.2.17,11.87-3.69,5.83-3.35,10.83-10.85,11-14.71,1.34-7.83-3.75-13.45-7-12.06S2506.11,1829.1,2505.28,1833.13Z" transform="translate(-29.57 -159)"/><path class="cls-2" d="M545.5,1387c-89.42-79.73-135.39-194.22-158.21-276.24-24.78-89-28.39-160.09-28.42-160.8l-4.86-.3c0,.72,3.65,72.3,28.58,161.93,23,82.82,69.5,198.49,160,279.2Z" transform="translate(-29.57 -159)"/><path class="cls-2" d="M369.05,929.39c4.41,20.5.72,39.87-8.68,53.85-14.73-10.84-26.32-28.22-30.72-48.72s-.72-39.87,8.68-53.85C353.06,891.51,364.64,908.89,369.05,929.39Z" transform="translate(-29.57 -159)"/><path class="cls-2" d="M341.63,987.77c15.4,14.33,24.41,33.16,26.15,51.28-16.91.77-35.52-6.09-50.92-20.42s-24.41-33.16-26.16-51.29C307.62,966.57,326.22,973.44,341.63,987.77Z" transform="translate(-29.57 -159)"/><path class="cls-2" d="M334.4,1049.1a78.47,78.47,0,0,1,44.13,35.53c-13.89,8.93-32.5,11.49-51.65,5.49a78.45,78.45,0,0,1-44.13-35.54C296.64,1045.66,315.25,1043.09,334.4,1049.1Z" transform="translate(-29.57 -159)"/><path class="cls-2" d="M363.88,1122.88c15.17,4.79,27.29,17,34.16,32.47-11.5,9.66-26.55,13.32-41.72,8.54s-27.29-17-34.16-32.47C333.66,1121.76,348.72,1118.1,363.88,1122.88Z" transform="translate(-29.57 -159)"/><path class="cls-2" d="M389.78,1017.58a52.41,52.41,0,0,1,43-15.49,58.86,58.86,0,0,1-16.67,44.62,52.49,52.49,0,0,1-43,15.49A58.82,58.82,0,0,1,389.78,1017.58Z" transform="translate(-29.57 -159)"/><path class="cls-2" d="M403.61,1070.46a52.45,52.45,0,0,1,43-15.5A58.79,58.79,0,0,1,430,1099.58a52.45,52.45,0,0,1-43,15.5A58.76,58.76,0,0,1,403.61,1070.46Z" transform="translate(-29.57 -159)"/><path class="cls-4" d="M491.61,1495.16c-82.57-12-153.23-61-198-99.87-48.56-42.24-77.93-82.16-78.22-82.56l-2.94,1.69c.29.4,29.87,40.62,78.75,83.15,45.17,39.31,116.57,88.72,200.16,100.91Z" transform="translate(-29.57 -159)"/><path class="cls-4" d="M213.43,1296.84c10.43,10.22,15.72,22.9,15.62,34.63-12.73-.65-26.13-6.31-36.56-16.53s-15.71-22.9-15.61-34.64C189.6,1281,203,1286.61,213.43,1296.84Z" transform="translate(-29.57 -159)"/><path class="cls-4" d="M219.89,1341.3c14.46,2.42,26.91,9.9,34.88,19.77-9.53,6.94-23,10.09-37.43,7.67s-26.92-9.91-34.89-19.78C192,1342,205.44,1338.88,219.89,1341.3Z" transform="translate(-29.57 -159)"/><path class="cls-4" d="M239.22,1379.72a54.68,54.68,0,0,1,39.3,3.72c-4.66,10.52-14.49,19.15-27.93,23a54.66,54.66,0,0,1-39.29-3.72C216,1392.21,225.79,1383.58,239.22,1379.72Z" transform="translate(-29.57 -159)"/><path class="cls-4" d="M284.67,1411.3c10.66-3,22.4-.58,32.32,5.76a30.22,30.22,0,0,1-21,21c-10.65,3-22.39.58-32.31-5.76A30.22,30.22,0,0,1,284.67,1411.3Z" transform="translate(-29.57 -159)"/><path class="cls-4" d="M259.32,1340.15a36.52,36.52,0,0,1,19.07-25.52,41,41,0,0,1,7.44,32.33,36.53,36.53,0,0,1-19.08,25.52A40.92,40.92,0,0,1,259.32,1340.15Z" transform="translate(-29.57 -159)"/><path class="cls-4" d="M287.65,1365.58a36.55,36.55,0,0,1,19.08-25.53,41,41,0,0,1,7.43,32.34,36.53,36.53,0,0,1-19.08,25.52A41,41,0,0,1,287.65,1365.58Z" transform="translate(-29.57 -159)"/><path class="cls-5" d="M541.33,1742.29c-95.25,36.16-200.09,17.06-271.27-5.33-77.28-24.31-132.69-57.63-133.24-58l-2.11,4c.56.34,56.37,33.92,134.15,58.4,71.89,22.62,177.81,41.9,274.23,5.29Z" transform="translate(-29.57 -159)"/><path class="cls-5" d="M125.1,1659.65a68.79,68.79,0,0,1,37.57,35.09c-13.95,7.13-31.65,8.2-48.94,1.49a68.79,68.79,0,0,1-37.57-35.09C90.11,1654,107.81,1652.94,125.1,1659.65Z" transform="translate(-29.57 -159)"/><path class="cls-5" d="M158.85,1713.21A60.9,60.9,0,0,1,208,1717a58.54,58.54,0,0,1-35.25,33.4,61,61,0,0,1-49.12-3.77A58.56,58.56,0,0,1,158.85,1713.21Z" transform="translate(-29.57 -159)"/><path class="cls-5" d="M202.66,1750.89c12-13.42,28.21-20.11,44.12-19.81a63.23,63.23,0,0,1-15.85,47.31c-12,13.42-28.2,20.11-44.11,19.81A63.19,63.19,0,0,1,202.66,1750.89Z" transform="translate(-29.57 -159)"/><path class="cls-5" d="M264,1770.34c12-13.41,28.2-20.1,44.11-19.8a63.2,63.2,0,0,1-15.84,47.31c-12,13.41-28.2,20.1-44.11,19.81A63.21,63.21,0,0,1,264,1770.34Z" transform="translate(-29.57 -159)"/><path class="cls-5" d="M206.29,1707.49c-10.55-13.73-15.25-30.28-14.13-45.29,13.89,1.62,28.09,9.69,38.63,23.42s15.25,30.28,14.13,45.29C231,1729.29,216.83,1721.22,206.29,1707.49Z" transform="translate(-29.57 -159)"/><path class="cls-5" d="M270,1727.42c-10.74-13.57-15.7-30.06-14.83-45.12,13.89,1.38,28.19,9.21,38.93,22.78s15.7,30.07,14.83,45.13C295,1748.83,280.72,1741,270,1727.42Z" transform="translate(-29.57 -159)"/><path class="cls-5" d="M344.55,1775.67a23.72,23.72,0,0,1,15-14.17,27.16,27.16,0,0,1,.88,21.61,23.73,23.73,0,0,1-15,14.17A27.2,27.2,0,0,1,344.55,1775.67Z" transform="translate(-29.57 -159)"/><path class="cls-2" d="M745.75,1958S867.1,1478,826.86,1429.82c-55.61-66.65-101.49,154.44-106,135.66-42.51-177.34-53.83-404.25-191-428.26-78-13.66,18,168.73,12.23,218.06S395.88,1240.83,310.52,1155s-129.46-31.48-75.52,76.41c52.16,104.33,220.89,218.34,186.11,231.87S175.18,1342.1,149.32,1399.7c-31.7,70.62,285,166.72,255.21,182.59s-181.21-36.39-177.07,17.61,207.63,52,204.15,75.75c-5.63,38.46-140.22-48.6-146.14,4.62-6.05,54.43,177.07,44.5,173.9,87-1.82,24.4-41.12-12.41-46.91,21.39-13.2,77.05,228.2,170.92,228.2,170.92Z" transform="translate(-29.57 -159)"/><path class="cls-4" d="M838.28,1960.91s-115.49-177.07-171.06-210.5c-59.22-35.62-14.14,71-14.14,71s-121-144-154.64-114.74-3.11,63.14-3.11,63.14-108.63-32.19-128.16,7.68C337.17,1838.8,516,1889.61,516,1889.61s-76.78-.82-62.65,40.55C474.67,1992.55,838.28,1960.91,838.28,1960.91Z" transform="translate(-29.57 -159)"/><path class="cls-5" d="M367.17,1777.52c19.53-39.87,128.16-7.68,128.16-7.68s-30.53-33.88,3.11-63.14S628.88,1765,628.88,1765s-10.15-72.22,62.74-8.6c52.07,45.44,146.66,204.49,146.66,204.49Z" transform="translate(-29.57 -159)"/><path class="cls-6" d="M698.09,1516.32l5.18-3.54c-94-142.4-122.73-311.47-130.25-428.23-8.16-126.7,6.17-220.87,6.31-221.81l-6.42-1.87c-.15,1-14.58,95.75-6.39,223.21C574.09,1201.83,603.06,1372.4,698.09,1516.32Z" transform="translate(-29.57 -159)"/><path class="cls-6" d="M597.84,840.56c.21,28.6-9.71,52.25-25.56,66.44a127.5,127.5,0,0,1-26.59-76.68c-.2-28.61,9.72-52.26,25.56-66.45A127.38,127.38,0,0,1,597.84,840.56Z" transform="translate(-29.57 -159)"/><path class="cls-6" d="M546.91,904.86c16,25.29,22.61,53.69,20,78.06-22-6.26-44.15-23.19-60.18-48.48s-22.6-53.69-20-78.06C508.74,862.63,530.89,879.56,546.91,904.86Z" transform="translate(-29.57 -159)"/><path class="cls-6" d="M521.22,981.68a125.24,125.24,0,0,1,47.4,65.25c-20.29,5.67-45,1-68-15a125.15,125.15,0,0,1-47.4-65.25C473.48,961,498.15,965.63,521.22,981.68Z" transform="translate(-29.57 -159)"/><path class="cls-6" d="M551.31,1115.8a52.25,52.25,0,0,1,21.63,26c-8.26,3.08-18.65,2-28.71-4.06a52.2,52.2,0,0,1-21.63-26C530.86,1108.66,541.25,1109.79,551.31,1115.8Z" transform="translate(-29.57 -159)"/><path class="cls-6" d="M559.49,1165.48a52.2,52.2,0,0,1,21.62,26c-8.26,3.07-18.64,1.94-28.7-4.06a52.13,52.13,0,0,1-21.63-26C539,1158.35,549.42,1159.48,559.49,1165.48Z" transform="translate(-29.57 -159)"/><path class="cls-6" d="M601,964.38c18.59-10.54,40.33-10.43,59.61-1.72-3.24,21.47-14.81,40.46-33.4,51s-40.33,10.43-59.61,1.72C570.84,993.9,582.42,974.91,601,964.38Z" transform="translate(-29.57 -159)"/><path class="cls-6" d="M604.72,1039.22c18.59-10.53,40.33-10.42,59.61-1.71-3.23,21.47-14.81,40.46-33.4,51s-40.33,10.42-59.61,1.71C574.55,1068.75,586.13,1049.75,604.72,1039.22Z" transform="translate(-29.57 -159)"/><path class="cls-6" d="M601,1146.34c12.1-6.85,26.25-6.78,38.8-1.11-2.1,14-9.64,26.33-21.74,33.19s-26.25,6.78-38.8,1.11C581.4,1165.56,588.93,1153.2,601,1146.34Z" transform="translate(-29.57 -159)"/><path class="cls-7" d="M1927.85,1568.63c10.92,1.78,10.28,3.56,11.68,3.75,1.66.22,21.38-9.68,21.38-9.68s58.33-28.79,61.42-30.46l42.1-53,32.45,15s-47.35,56.31-50.35,58.79-86.62,31.81-93.89,34.64c0,0-7.34,6.7-12.08,10.75s-11.09,5.65-12.6,6.57a53.06,53.06,0,0,1-12.86,4.51c-6.37,1.39-1.06-2.94-1.06-2.94s11.28-4.76,10.72-5.62c-.43-.67-6.42,2.31-13.45,3.92-1.81.41-3.6.82-5.24,1.17-4.32.93-6.21-1.54-1.88-3.26a42.45,42.45,0,0,1,6-2c2.09-.44,3.85-1.54,5.54-2.18a47.86,47.86,0,0,0,5.7-2.28c-.18-.15.3-.9-1.64-.52-2.32.46-7,2.55-10.5,2.94-2,.23-6.06,1-6.06,1s-7.24.69-7.29-.32c-.1-2.22,4.35-3.45,7.09-3.4a28.21,28.21,0,0,1,6-1.51s8.39-3.32,7.9-4.56c-.19-.49-5.27.27-10.66.64-5.7.39-9.83.39-10.14-.72-.48-1.75,4.06-2.41,4.06-2.41s4-.58,5.31-.88c1.53-.35,6-1.77,6-1.77s15.44-5.67,14.88-6.8-3.11-3.53-4.2-3.52-3,1.09-4.12,1.1-3.43-.21-3.59-1.58,5.88-4.2,5.88-4.2S1924.69,1568.12,1927.85,1568.63Z" transform="translate(-29.57 -159)"/><path class="cls-8" d="M2035.13,1512.08s10.51,9.54,14.88,12.68c3.63,2.61,21.33,11.14,21.33,11.14s17.6-27,25.3-40.48c9.34-16.41,15.81-40.8,13.6-41.46-6.2-1.86-14.72-3-22.59.62C2060.41,1467.08,2035.13,1512.08,2035.13,1512.08Z" transform="translate(-29.57 -159)"/><path class="cls-9" d="M1938.05,1582.72c-4.68.74-9.46-.15-11.53-4.43C1926.06,1583.37,1933.75,1585.89,1938.05,1582.72Z" transform="translate(-29.57 -159)"/><path class="cls-10" d="M632.62,1393.6c.65-15.7-1.66-31.21-8.65-45.82-6-12.58-20.91-19.72-34.49-19.73-43.12-.06-48.6,57.16-76.05,79.23-8.39,6.74-17.77,12.23-25.7,19.51-29.31,26.85-16.11,76.56,10.8,100.11,18.68,16.33,48,25.62,71,12.84,12-6.66,21.13-17.74,27.63-29.89,9.22-17.23,15.17-37.11,21.72-55.48C625.91,1434.82,631.75,1414.47,632.62,1393.6Z" transform="translate(-29.57 -159)"/><path class="cls-11" d="M639.66,1469.63c-13.47-40.86-31.25-40.22-31.25-40.22l14.37,87c8.31-2.27,19.14-7.33,27.45-9.68C647.48,1493.81,643,1479.69,639.66,1469.63Z" transform="translate(-29.57 -159)"/><path class="cls-12" d="M707.73,1609l-49.24-37.56s-5-35.05-11.59-66.14c-8.31,2.34-15.81,8.86-24.12,11.13l12.52,69.64,64.54,33.3,18.22,23.42,4.15-24Z" transform="translate(-29.57 -159)"/><path class="cls-13" d="M1156.58,1550.31a84.83,84.83,0,0,1,42,11.08,46.05,46.05,0,0,0,5.08,2.45c37.84,15.54,79.24-13.24,79.24-54.15V1308.52H1081.77c-40.91,0-69.69-41.41-54.15-79.24a45.37,45.37,0,0,1,2.45-5.09A85.3,85.3,0,0,0,951.8,1097c-44.3,2-80,38.44-81.21,82.77A85,85,0,0,0,881,1223.14a44.77,44.77,0,0,1,2.42,5.16c15.42,38.46-13.82,80.22-55.25,80.22H628.76v458.39c0,108.13,87.66,195.78,195.79,195.78h458.39v-200.5c0-41.11-41.53-70.07-79.61-54.58a45.5,45.5,0,0,0-5.1,2.43,85.3,85.3,0,1,1-41.65-159.73Z" transform="translate(-29.57 -159)"/><path class="cls-11" d="M1592.59,1438.72a84.77,84.77,0,0,1,13-41.48,46.4,46.4,0,0,0,2.68-5c17.29-37.07-9.52-79.77-50.38-81.68l-201-9.4-9.39,201c-1.91,40.86-44.62,67.67-81.69,50.38a46.4,46.4,0,0,1-5-2.68,85.3,85.3,0,0,0-130.76,72.24c0,44.35,34.66,81.68,78.89,85a84.93,84.93,0,0,0,43.85-8.42,48.05,48.05,0,0,1,5.28-2.17c39.14-13.61,79.48,17.55,77.55,58.94l-9.32,199.22,457.89,21.41c108,5,199.67-78.42,204.72-186.43l21.4-457.89-200.28-9.36c-41.06-1.92-71.93,38.21-58.24,77a47.14,47.14,0,0,0,2.19,5.21,85.3,85.3,0,1,1-161.5,34.15Z" transform="translate(-29.57 -159)"/><path class="cls-14" d="M1032.64,1122.31a84.75,84.75,0,0,1-9,42.54,44.13,44.13,0,0,0-2.19,5.2c-13.62,38.57,17.2,78.48,58,76.42l200.92-10.1-10.1-200.92c-2-40.85,37.85-71.68,76.42-58.06a44.13,44.13,0,0,1,5.2,2.19A85.29,85.29,0,0,0,1475.14,895c-4.27-44.14-42.4-77.94-86.74-76.95a84.92,84.92,0,0,0-42.84,12.62,45.88,45.88,0,0,1-5,2.68c-37.63,17.33-80.8-9.78-82.88-51.16l-10-199.19L789.81,606c-108,5.43-191.14,97.38-185.71,205.37l23,457.81,200.25-10.07c41.06-2.06,67.9-45,50.51-82.25a45.62,45.62,0,0,0-2.68-5,85.3,85.3,0,1,1,157.44-49.62Z" transform="translate(-29.57 -159)"/><path class="cls-10" d="M1443.88,1011.42a84.84,84.84,0,0,1-42.05-11.08,44.38,44.38,0,0,0-5.08-2.45c-37.84-15.54-79.24,13.24-79.24,54.15v201.17h201.18c40.9,0,69.68,41.41,54.14,79.25a44.32,44.32,0,0,1-2.45,5.08,85.3,85.3,0,0,0,78.28,127.24c44.29-2,80-38.44,81.2-82.77a84.91,84.91,0,0,0-10.45-43.42,46.51,46.51,0,0,1-2.42-5.16c-15.42-38.46,13.82-80.22,55.26-80.22h199.44V794.82C1971.69,686.69,1884,599,1775.9,599H1317.51v200.5c0,41.11,41.54,70.07,79.61,54.58a46.53,46.53,0,0,0,5.11-2.43,85.29,85.29,0,1,1,41.65,159.73Z" transform="translate(-29.57 -159)"/><path class="cls-15" d="M497.83,1899.09s-3,21.12-8.27,27.93c-1.75,2.29-5,5.18-7.06,9.32-3.28,6.43-1.47,16,.95,21.29,1.24,2.71-.09,2.7,2.74,3.58a17.33,17.33,0,0,0,20.81-9.8,49.75,49.75,0,0,0,4.08-18c.89-19.18,6.84-28.93,6.84-28.93Z" transform="translate(-29.57 -159)"/><path class="cls-15" d="M589.26,1908.75s1.88,23.81.35,31.55c-.81,4.15-5.35,12.68-3.27,16.58s4.46,4.87,4.46,4.87l54,.88c2.94,0,1-1.85-1.38-3.6-3.88-2.86-7-4.75-19.4-10.76-.81-.39-3.75-2.27-4.81-2.92a37.22,37.22,0,0,1-7.73-6.83c-3.87-4.33-4.21-25.3-4.21-25.3Z" transform="translate(-29.57 -159)"/><path class="cls-10" d="M631.45,1592.19s6.79,38.66,2.33,64-25.88,260.33-25.88,260.33l-23.8,1.34s-5-98.15-4.1-111.8,8-36.49,8-36.49l-2.36-79.25,30-104.11Z" transform="translate(-29.57 -159)"/><path class="cls-16" d="M561.49,1584.05s-18.74,28.28-23.21,51.68,3.28,95.31-5.31,126c-4.64,16.59-22.26,42.23-24.93,63.68S494.86,1903,494.86,1903l23.79,4.73,55.29-140.32,43.37-126.83,11.12-65.32Z" transform="translate(-29.57 -159)"/><path class="cls-11" d="M576.66,1423.18s-24.81-1.58-34.63,9.14,21.78,95.57,23.56,109.22-9.1,49.94-9.1,49.94,58.3,11.76,75,.71c0,0,1.78-98.16,0-107.91s-16.66-49.4-20.24-53.3S576.66,1423.18,576.66,1423.18Z" transform="translate(-29.57 -159)"/><path class="cls-15" d="M584.92,1390s-.13.73-.36,2c-1.1,6-5.36,25.82-8.24,31.27-3.48,6.6,11.91,27.61,26.72,25,4.4-.77-3.73-19.31-3.34-21.28.75-3.76,1.76-8.89,2.8-14.15.59-3,1.18-6,1.74-8.81l2.87-14.61Z" transform="translate(-29.57 -159)"/><path class="cls-17" d="M584.56,1391.92c.23-1.24.36-2,.36-2l22.19-.56L604.24,1404c-.56,2.81-1.15,5.81-1.73,8.76a20.78,20.78,0,0,1-10.59-5.33,28,28,0,0,1-8-12C584.16,1394.06,584.39,1392.85,584.56,1391.92Z" transform="translate(-29.57 -159)"/><path class="cls-15" d="M599.86,1339.39s-10.46-1.21-17,7.29-13.62,34.78,2.67,49.07,32.38-1.89,34.76-19S623.59,1338.77,599.86,1339.39Z" transform="translate(-29.57 -159)"/><path class="cls-15" d="M625.09,1376.46c-1.94,3.79-5.21,5.89-7.29,4.69s-2.19-5.25-.25-9,5.21-5.88,7.29-4.68S627,1372.67,625.09,1376.46Z" transform="translate(-29.57 -159)"/><path class="cls-10" d="M601,1336.58s-14,25-24,26.15-11.31,14.43-11.31,14.43,3.57-30.6,13.47-36.5S601,1336.58,601,1336.58Z" transform="translate(-29.57 -159)"/><path class="cls-13" d="M508.62,1947.19c-13,2.37-21.6-5.23-26.08-10.92-3.3,6.44-4.91,16.06-2.48,21.36,2.13,4.67,8.37,4.53,13.28,4.72,5.2.19,9.22-2.7,11.79-7.24A42.68,42.68,0,0,0,508.62,1947.19Z" transform="translate(-29.57 -159)"/><path class="cls-13" d="M619.18,1945.35c-14.28,3.67-24.83,1.17-30.73-1.21-1.52,4.32-3.54,9.75-2.47,12.87,1.31,3.83,3.18,4.7,4.82,4.74,13,.35,47.76.81,57.71.94a1.63,1.63,0,0,0,1.26-2.67C647.3,1957.07,620.24,1946,619.18,1945.35Z" transform="translate(-29.57 -159)"/><path class="cls-15" d="M579.68,1369c.81,4.44-.82,8.51-3.65,9.09s-5.79-2.54-6.6-7,.82-8.51,3.65-9.09S578.87,1364.57,579.68,1369Z" transform="translate(-29.57 -159)"/><path class="cls-18" d="M596,1384.38l12.62.57s-.51,4.78-6.06,4.69C595.78,1389.53,596,1384.38,596,1384.38Z" transform="translate(-29.57 -159)"/><path class="cls-8" d="M1672,378.26c1.58.06,5.88,1.5,12.18,13.4,8,15.2,19.79,61.1,19.79,61.1l-35.08,13.06-4.51-9.58-7.42-73.76S1671.53,378.24,1672,378.26Z" transform="translate(-29.57 -159)"/><path class="cls-13" d="M1625.59,371.64c10,0,34.85,2.94,46.37,6.62,0,0,8.47,72.73-7.62,128-3.59,12.37,3,51.28,3,51.28l-103.94-1.37s12.32-94.07,7.68-109.27-4.75-68.15-4.75-68.15.71-.11,23.35-4A235.27,235.27,0,0,1,1625.59,371.64Z" transform="translate(-29.57 -159)"/><path class="cls-15" d="M1613.48,692.54s2.3,26.54,6.53,33.89-.22,19.84-.44,21.56-8.9,4.16-22.7,2.69-13.58-4.65-12.46-9.8,8.45-11.76,8.9-16.66-4.23-22.53-4.23-22.53Z" transform="translate(-29.57 -159)"/><path class="cls-19" d="M1655.59,535.64s71.75-4,87.78,5.72S1732,598.68,1732,598.68s-49.92-2.3-147.71,3.35c-23.16,1.33-25.16-60.38-20.83-65.49S1655.59,535.64,1655.59,535.64Z" transform="translate(-29.57 -159)"/><path class="cls-13" d="M1595.15,752.74c-14.21-1.51-12.45-8.49-11.31-13.79.72-3.32,4.8-7.23,7.23-10.92,1.27,1,3.33,2.79,9.5,4.62,6.41,1.89,15.19-1.86,20.79-4.2a68.49,68.49,0,0,1,1.89,18.32C1623,748.54,1609.35,754.26,1595.15,752.74Z" transform="translate(-29.57 -159)"/><path class="cls-11" d="M1603,587c2.87,21.69,17.06,129.68,17.06,129.68l-32.93,4.08s-40.5-141-38.42-162.51,17.23-23.37,17.23-23.37S1595.4,529.55,1603,587Z" transform="translate(-29.57 -159)"/><path class="cls-15" d="M1565.18,386.83c9.71-3.64,14.47,83.92,15.78,120,17.21,1.66,47.21,0,54.67-.55,3.52-.26,11.62-3.23,15.11-3.68a34.81,34.81,0,0,1,8.59-.41c.64.11,18.58,7.45,20.11,9.06,1.91,2,7,7,6.18,9.2s-9.89-6.06-9.89-6.06l-4.41-2.48c5.49,5.37,16,12.43,14.46,15s-10.92-4.66-17.66-9.54c5.78,5.21,13,14.55,11.3,16-1.49,1.31-9.65-9.5-18.37-12.61-3.23-1.15-6.46,2-9,2.43-1.87.28-4.75.88-6.59.36l-9.44-2.67c-3.22.29-3.3,2.19-6.55,2.88-3.77.8-10,1.65-14.76,2.82-27.67,6.76-36.89,9.9-45.36,9.9C1543.7,536.42,1542.21,395.45,1565.18,386.83Z" transform="translate(-29.57 -159)"/><path class="cls-8" d="M1546.73,469c-1.82-36.92-1.55-82.42,19.15-90.18,8.16-3.07,22.56,15.35,20,90.93C1574.8,470.7,1558.58,471.44,1546.73,469Z" transform="translate(-29.57 -159)"/><path class="cls-15" d="M1709.79,715.24s-2.88,9.21,2.27,15.31,26.52,12.07,29.33,15.37S1744,752,1744,752l-60-1.65.66-18.13,2.76-13Z" transform="translate(-29.57 -159)"/><path class="cls-13" d="M1715.79,733.59s-15.42,6.23-22.87,2.54-7.22-4.72-9.38-3.34-2.92,18.37-2.92,18.37l67.47,2c4.7-.11,7.07-3.57,3.26-6.53a54.44,54.44,0,0,0-7.36-4.37C1738.71,739.21,1715.79,733.59,1715.79,733.59Z" transform="translate(-29.57 -159)"/><path class="cls-11" d="M1707.51,552.65c4.64-9.76,15.19-22.47,33.75-14.82,17.7,7.3,22.45,25.24,16.87,43.61s-42.36,126.37-43.64,141.22l-29.36.2s5.34-85.52,6.65-106.19C1693,596.78,1699.48,569.54,1707.51,552.65Z" transform="translate(-29.57 -159)"/><path class="cls-10" d="M1755.17,453.18H1657a6.41,6.41,0,0,0-5.92,4l-30.21,73.95h-54.11a2.74,2.74,0,0,0-2.73,2.75h0a2.74,2.74,0,0,0,2.73,2.74h154a10.73,10.73,0,0,0,9.8-6.37l30.43-68A6.42,6.42,0,0,0,1755.17,453.18Z" transform="translate(-29.57 -159)"/><path class="cls-18" d="M1702.33,496.24c-.66,3.32-3.55,5.54-6.45,5s-4.71-3.75-4.05-7.07,3.56-5.54,6.46-5S1703,492.92,1702.33,496.24Z" transform="translate(-29.57 -159)"/><path class="cls-10" d="M1648.92,282.81a74.83,74.83,0,0,1-8.68-3.48c-3.18-1.53-7.3-3.33-9.9-3.73-5.48-.85-14.89-.28-20.09,5.35-6.47,7-18,1.27-15.65,38.05,2.62,41.63,25.77,37.06,26.33,36.35s20.64-26.63,20.64-26.63,7,15.36,7,14.8S1684.44,294.77,1648.92,282.81Z" transform="translate(-29.57 -159)"/><path class="cls-15" d="M1631.34,358.43l2,14.87s4.48,21.43-1.28,25.56-24.49-26.17-24.49-26.17l2-37.69Z" transform="translate(-29.57 -159)"/><path class="cls-17" d="M1608.91,347.22C1613.67,360.07,1625,368,1633,371l-1.7-12.61L1609.55,335Z" transform="translate(-29.57 -159)"/><path class="cls-15" d="M1630.16,294A19.83,19.83,0,0,1,1653,314a149,149,0,0,1-1.67,19.08c-2.65,17.17-14.37,32.29-22.11,30.94s-27.24-16.16-23.81-40.59C1607.53,308.38,1617.36,296.05,1630.16,294Z" transform="translate(-29.57 -159)"/><path class="cls-15" d="M1610.79,326.38c-.65,3.78-3.68,6.4-6.76,5.87s-5-4-4.38-7.81,3.67-6.4,6.75-5.87S1611.44,322.61,1610.79,326.38Z" transform="translate(-29.57 -159)"/><path class="cls-10" d="M1606.4,318.57s9.37,2.33,12.84-3.69,15.91-19,31.7-13.64-13.9-13.1-15.16-13.1l-16.43-.11s-11.69,9.62-12.11,10.68-3.8,12.57-3.8,12.57Z" transform="translate(-29.57 -159)"/><path class="cls-18" d="M1623.54,343.71l17,3.25s-1.63,6.42-9.16,5.21C1622.23,350.69,1623.54,343.71,1623.54,343.71Z" transform="translate(-29.57 -159)"/><path class="cls-7" d="M1335.27,1530.18a17.55,17.55,0,0,0,1.85,4.5c5.34,9.73,17.74,23.61,17.74,23.61l9.6-21.61s-1.57-6.79-4.28-16.49C1350.92,1522.61,1342.09,1524,1335.27,1530.18Z" transform="translate(-29.57 -159)"/><path class="cls-20" d="M1390.26,1511.44s-53.5,23-55.23,22.6c-1.11-.29-21.94-35.15-22.17-67.94-.1-15.14,15.63-33.36,33.17-29.75,8.84,1.81,8.7,4.27,21.77,23.26S1390.26,1511.44,1390.26,1511.44Z" transform="translate(-29.57 -159)"/><path class="cls-15" d="M1435.92,1924.47s-1.27,21-1.27,21c-.47,2.67-2.31,9.26-2.31,11.69,0,9.11,43.26-7.74,33.57-11.78-.88-.36-5.48-3.12-5.77-6.22-.44-4.78-1.57-14.45-1.57-14.45Z" transform="translate(-29.57 -159)"/><path class="cls-13" d="M1465.8,1945.35s-10.16,2.78-15.36,3.48-12.06-5.17-15.74-3.58c-4,1.74-3.89,17.44-3.89,17.44s54.46,4.47,69.78-.15C1506.66,1960.7,1486.56,1951.84,1465.8,1945.35Z" transform="translate(-29.57 -159)"/><path class="cls-15" d="M1347.43,1924.47s-1.27,21-1.28,21c-.46,2.67-2.3,9.26-2.3,11.69,0,9.11,43.26-7.74,33.56-11.78-.87-.36-6.83-5.19-7.12-8.29-.45-4.77-.21-12.38-.21-12.38Z" transform="translate(-29.57 -159)"/><path class="cls-13" d="M1377.31,1945.35s-10.16,2.78-15.36,3.48-12.06-5.17-15.74-3.58c-4,1.74-4.21,17.44-4.21,17.44s54.71,5.21,70.1-.15C1418.07,1960.45,1398.07,1951.84,1377.31,1945.35Z" transform="translate(-29.57 -159)"/><path class="cls-15" d="M1360.65,1541.83l38.1-53.38c.16-.46.51-1.42,1-2.88,1.92-5.3,5.91-16.32,9.39-27.28l0-.12c1.1-3.83,3.41-10.51,5.65-17,2.49-7.19,5.58-16.11,5.69-17.63-.09-.26-.27-.73-.51-1.35-1.4-3.62-3.29-12.26-4-16-.42-2.39-.85-8.21,2-8.21,4.46,0,2.34,5.81,4.4,9.43a93.22,93.22,0,0,0,3.09-12.09l.75-11.35c.14-.85-.77-7.11,2.37-7.11h.15c2.81.21,2.75,6.86,3.92,18.12.37-1.3.74-2.86,1-4.29a41.65,41.65,0,0,1,1-5.94c-.56-3.14-.23-8.09,3.11-7.62,1.67.23,1.53,7.14,1.53,7.14,0,.94-.11,8.24-.06,9.69.34-2.45,1.68-12.9,4.3-12.9,2.17,0,2.35,2.81,2.3,5,0,1.31-1.39,12.63-1.46,14,1-1.72,2.23-11.69,3.25-11.69,4.23,0,2.7,14.18,1.14,17.87a18.09,18.09,0,0,0-.48,2,34.67,34.67,0,0,1-3.63,10.55c-2.66,4.55-6.33,11.79-6.89,12.9-.41,2.26-1.69,10.39-3.29,20.62-.69,4.37-1.44,9.17-2.22,14.14h0c-.15,1.08-.94,4.5-4,17.33-4.12,17.56-4.55,18.32-4.73,18.64-1.79,3.17-42.87,58.95-44.62,61.33l-1,1.4Z" transform="translate(-29.57 -159)"/><path class="cls-17" d="M1431.51,1417.35s-3.09-7.91-8.59-7.93a6.32,6.32,0,0,1,5.71,1C1431.27,1412.49,1431.51,1417.35,1431.51,1417.35Z" transform="translate(-29.57 -159)"/><path class="cls-15" d="M1351.45,1402.07l-4.91,31s18.69,15,29.58,11.84c9.14-2.65,2.88-14.6,2.88-14.6s-4.87-16.56-3.38-25.24S1351.45,1402.07,1351.45,1402.07Z" transform="translate(-29.57 -159)"/><path class="cls-9" d="M1355,1411.44a76.27,76.27,0,0,0,21.15,6c-.69-4.35-1.08-8.94-.5-12.33.69-4-4.41-4.95-10.09-4.81-7.45.63-14.08,1.8-14.08,1.8l-1,6A15.39,15.39,0,0,0,1355,1411.44Z" transform="translate(-29.57 -159)"/><path class="cls-15" d="M1327.86,1366.29c-.77,0,7.39,34.65,20,40.61s31.45,2.86,35-6.48c3.91-10.32-10.34-45.67-28.1-50.16S1327.86,1366.29,1327.86,1366.29Z" transform="translate(-29.57 -159)"/><path class="cls-21" d="M1342.47,1334.45a39.83,39.83,0,0,0-16.27,18c-4.73,2.25-10.46,7.1-13.21,20.2-3.38,16.09,8.64,28.5,21.38,32.23s14.71,12.16,14.71,12.16l1.45-9.07s-2.84-7.9-7.1-11.86,2-9.71,2.57-14.41c.43-3.62-2.24-10.65-1.66-16.59,0,0,7.08-10.73,14.06-13.38C1370.3,1347.19,1355.41,1327,1342.47,1334.45Z" transform="translate(-29.57 -159)"/><path class="cls-15" d="M1347.84,1387.71c1.65,4,1,8-1.51,8.88s-5.83-1.62-7.48-5.62-1-8,1.51-8.88S1346.19,1383.71,1347.84,1387.71Z" transform="translate(-29.57 -159)"/><path class="cls-7" d="M1394.87,1542.68l73.49-12s-8.36-21-11.35-21-55.57,23-55.57,23l-4.18,8.39Z" transform="translate(-29.57 -159)"/><path class="cls-16" d="M1357.23,1593.07s-7.33,35.44-4.35,62.32,3.23,122.33,3.23,122.33l-11.41,152.74,27,.59s32.08-152.67,31.48-148.75S1414,1674.81,1414,1674.81l-38.24-85.1Z" transform="translate(-29.57 -159)"/><path class="cls-10" d="M1364.4,1591.39s-4.78,31.91,1.19,45.91,51.25,151.33,51.85,162.52,15.65,135,15.65,135l31.45-.88,6.81-137.6-14.25-172.94-13.83-43.73Z" transform="translate(-29.57 -159)"/><path class="cls-15" d="M1346.54,1433.08s7.76,5.09,15,4.5,17.47-7.26,17.47-7.26l-1.43-4.82s-18.71-2.73-19.18-2.43S1346.54,1433.08,1346.54,1433.08Z" transform="translate(-29.57 -159)"/><path class="cls-7" d="M1429.21,1508.61s27.8,26.24,40.35,21.76,17.74-19.79-12.88-42.19C1429.28,1468.13,1429.21,1508.61,1429.21,1508.61Z" transform="translate(-29.57 -159)"/><path class="cls-14" d="M1448.05,1541c-4.13-22.46-34.06-92.37-36.45-105.25-1.16-6.26-17.31-6.4-32.68-5.58-16.24.86-32.38,2.91-32.38,2.91s-14.38,2.37-20.7,8.29-8,22.32,1.08,53.44c7.18,24.57,16.08,38.06,20.49,56,.89,6,1.65,11.92,2.67,18.84,1.61,26.76,0,62.1,0,62.1s78.27,16.24,107.55-8.4C1457.61,1623.3,1452.28,1564,1448.05,1541Z" transform="translate(-29.57 -159)"/><path class="cls-14" d="M1468,1492.7s-30.71,25.35-32.5,25.35c-1.15,0-43.83-31.39-53.68-57.18-5.44-14.26,6-30.21,19-30.16,9.05,0,13.07,2.37,31,17.48S1468,1492.7,1468,1492.7Z" transform="translate(-29.57 -159)"/><path class="cls-10" d="M927.72,361c5-12.11,10.15-24.24,23.21-30.38,10.57-5,21.61-3.09,31,4,26.61,20,3.42,42.05,33.71,80,9.41,11.79,20.8,21.31,26.44,35.12,7.89,19.34-1.51,28.62-16.58,37.89C953.41,531.93,915.62,441,917,420.13,918,404.65,924.48,368.83,927.72,361Z" transform="translate(-29.57 -159)"/><path class="cls-15" d="M852.9,596.85c3-.48,10.42-5.77,13-6.25,2-.37,6.39-1,8.25-1.31,2.28-8.52,13.86-54.93,15.15-68.54,1.41-14.74,11.83-78.51,11.83-78.51l27,4.91S916.94,496.21,913.84,520c-2.66,20.43-25.07,66.37-27.92,71.22,0,.12,0,.23,0,.35-.43,7.21-3.9,4.81-3.9,4.81l-5.65,1.44s-20,1.92-21.28,2.4S849.86,597.33,852.9,596.85Z" transform="translate(-29.57 -159)"/><path class="cls-20" d="M924.7,405c-19.08,6.47-29.93,58.34-29.93,58.34s29.93,8.36,37.6,4c0,0,8.71-38.59,11.83-37.24Z" transform="translate(-29.57 -159)"/><path class="cls-15" d="M777.1,686.47a205,205,0,0,0-9.14,32c-.13.87,1.09,5,1,6-11.72,16-28.57,19.48-43,20.5,7.35-7.18,18.16-14,18.68-16.27a282.79,282.79,0,0,0,7.45-42.09C761.06,690.74,767.15,687.44,777.1,686.47Z" transform="translate(-29.57 -159)"/><path class="cls-4" d="M943.16,514.21,969,586.84s-41.44,7.8-56.93,10.64-102,6.62-104.24,8.16c-1.63,1.14-19.51,59-27.5,90.85-9.06,2-24.57-.4-32.82-3.24,4.46-45.63,20.56-117.91,25.72-125.78C781.57,554.66,943.16,514.21,943.16,514.21Z" transform="translate(-29.57 -159)"/><path class="cls-15" d="M842.43,718.31a203.94,203.94,0,0,0-3,33.17c0,.87,2,4.75,2.07,5.65-8.52,17.9-24.41,24.49-38.4,28.2,5.88-8.44,15.22-17.15,15.31-19.48a283.41,283.41,0,0,0-.57-42.74C827.46,725.5,832.83,721.13,842.43,718.31Z" transform="translate(-29.57 -159)"/><path class="cls-2" d="M973.26,518l10,17.08a49,49,0,0,1-24.55,70.37l-.45.18c-14.68,5.69-99,25.63-100.86,27.55-1.39,1.42-8.11,61.58-10,94.4-8.53,3.65-24.21,4.21-32.85,3-4.17-45.65-1.9-119.67,1.69-128.37C822.12,588,973.26,518,973.26,518Z" transform="translate(-29.57 -159)"/><path class="cls-10" d="M838.16,752c2.24-2.48,10.48,11.17,12.54,14.08,2.32,3.27,1.66,5.74,1.38,6.25-.73,1.35-44.19,26.92-54.79,28.74a5.32,5.32,0,0,1-3.17-.84c-4.14-3.67,14.92-30.75,23.48-34.3C823.14,763.61,828.06,763.13,838.16,752Z" transform="translate(-29.57 -159)"/><path class="cls-10" d="M766.58,719c2.67-2,8.2,12.94,9.68,16.18,1.66,3.65.55,6,.18,6.41-1,1.19-48.45,18.16-59.2,18a5.29,5.29,0,0,1-3-1.43c-3.38-4.37,20.42-27.4,29.5-29.29C749.64,727.59,754.56,728.05,766.58,719Z" transform="translate(-29.57 -159)"/><path class="cls-14" d="M942.79,404.82h0a7.15,7.15,0,0,1-1.92-.4c-3.55-.63-11.29-1.56-17.32,1-7.33,3.1-18.7,32-18,61.66.27,4.54.55,8.6.78,11.43,1.85,22.41,8.28,64.46,8.63,64.69,8.74,5.63,61.51-16.2,65.14-21s5.77-63,7.53-66l3.47-50.66C985,403.76,952.17,404.75,942.79,404.82Z" transform="translate(-29.57 -159)"/><path class="cls-15" d="M964.18,386.16s-3.4,17.58-2.72,24.51S958.87,439.94,944.2,440s-2.79-28.4-1.41-35.19S944.5,377,944.5,377Z" transform="translate(-29.57 -159)"/><path class="cls-17" d="M944.2,387.55c.23-5.76.3-10.55.3-10.55l19.68,9.16s-.7,3.59-1.4,8.17C954.17,396.06,947.93,392.88,944.2,387.55Z" transform="translate(-29.57 -159)"/><path class="cls-15" d="M971.37,337.66A24.39,24.39,0,0,1,981.72,351c2.78,9.12-.38,32.64-20,38.32s-28.07-12.95-24-27.51S950.53,328.78,971.37,337.66Z" transform="translate(-29.57 -159)"/><path class="cls-15" d="M935.27,356.14c.38,3.91,2.54,6.9,4.82,6.68s3.81-3.58,3.43-7.49-2.54-6.9-4.82-6.68S934.88,352.23,935.27,356.14Z" transform="translate(-29.57 -159)"/><path class="cls-10" d="M969.07,336.47s3.55,26.24,12,31S986,383.83,986,383.83s7.7-27,1-35.72S969.07,336.47,969.07,336.47Z" transform="translate(-29.57 -159)"/><path class="cls-15" d="M976.08,371.22c-2.3,3.42-2.29,7.45,0,9s6,0,8.35-3.37,2.3-7.45,0-9S978.38,367.8,976.08,371.22Z" transform="translate(-29.57 -159)"/><path class="cls-18" d="M947.55,372.68l13.8,3.47s-1.66,5.24-7.77,3.89C946.12,378.4,947.55,372.68,947.55,372.68Z" transform="translate(-29.57 -159)"/><path class="cls-22" d="M1016.08,594.66l59.51-3s-24.42,17.55-24.92,17.55-19.45-7.48-20.28-7.48S1016.08,594.66,1016.08,594.66Z" transform="translate(-29.57 -159)"/><path class="cls-15" d="M2207.53,1925.33s1.16,20.64,1.17,20.68c.43,2.62,2.12,9.1,2.12,11.48,0,9-39.71-7.6-30.81-11.56.8-.36,5-3.08,5.29-6.12.41-4.7,1.44-14.19,1.44-14.19Z" transform="translate(-29.57 -159)"/><path class="cls-11" d="M2179.63,1946a144.75,144.75,0,0,0,14.09,3.42c4.78.68,11.07-5.08,14.45-3.52,3.72,1.71,3.57,17.13,3.57,17.13s-50,4.39-64-.15C2142.12,1961.1,2160.57,1952.39,2179.63,1946Z" transform="translate(-29.57 -159)"/><path class="cls-15" d="M2273.65,1924.26s1.17,20.64,1.18,20.68c.42,2.62,2.11,9.1,2.11,11.48,0,8.95-39.71-7.6-30.81-11.56.81-.36,6.28-5.1,6.54-8.15.41-4.69.2-12.16.2-12.16Z" transform="translate(-29.57 -159)"/><path class="cls-11" d="M2246.23,1944.77a141.42,141.42,0,0,0,14.1,3.42c4.77.69,11.07-5.07,14.44-3.52,3.72,1.72,3.87,17.14,3.87,17.14s-49.64,2-64.35-.15C2208.51,1960.8,2227.17,1951.15,2246.23,1944.77Z" transform="translate(-29.57 -159)"/><path class="cls-4" d="M2261.88,1596.4s6.73,34.82,4,61.23-3,120.19-3,120.19l12.65,150-27,.63s-29.44-150-28.9-146.14-9.87-105.61-9.87-105.61l35.1-83.61Z" transform="translate(-29.57 -159)"/><path class="cls-2" d="M2252.46,1573.92s30.49,32.11,19.15,67.18c-4.56,14.09-47,148.68-47.59,159.68s-14.37,132.59-14.37,132.59l-28.87-.87-6.25-135.19,8.25-182.15,17.53-30.72Z" transform="translate(-29.57 -159)"/><path class="cls-13" d="M2067.37,1469.4c10-11.14,31.71-27,31.71-27s13-11.05,18.22-12.87c7.77-2.68,21.07-9.82,40.32,19.34,13.76,20.87,100.65,128.92,114.91,132.55L2179.39,1626c-2.55-21.28-48.58-61.49-55.2-69C2109.38,1540.24,2057.92,1480,2067.37,1469.4Z" transform="translate(-29.57 -159)"/><path class="cls-15" d="M2071.72,1424.13l29,17s.82,24.77-8.67,31.2c-8,5.4-14-7.56-14-7.56s-10.79-15-19-19.6S2071.72,1424.13,2071.72,1424.13Z" transform="translate(-29.57 -159)"/><path class="cls-17" d="M2076.58,1435a60.48,60.48,0,0,1-7.53,18.79c-3.19-3.46-6.79-6.85-10-8.67-3.78-2.15-1.37-6.79,2.31-11.17,5.21-5.42,10.35-9.85,10.35-9.85l5.57,3.26C2077.65,1429.51,2077,1433.31,2076.58,1435Z" transform="translate(-29.57 -159)"/><path class="cls-15" d="M2056.6,1381.56c.49-.6,24.34,29.09,21.4,43s-17.36,26.63-27.38,23.14c-11.08-3.87-31.69-38.82-24.3-55.79S2056.6,1381.56,2056.6,1381.56Z" transform="translate(-29.57 -159)"/><path class="cls-21" d="M2030.49,1372.2c10.4-5.79,27.36-7.45,40-.81,15.58,8.15,19.13,28.68,14.25,41.2s.71,19.59.71,19.59l-8.27-4.82s-4.83-7.54-5.46-13.54-9.39-4.94-13.66-7.67c-3.3-2.1-7.5-8.91-12.83-12.45,0,0-13.41-1.64-20,2.06C2014,1402.07,2015.6,1380.48,2030.49,1372.2Z" transform="translate(-29.57 -159)"/><path class="cls-15" d="M2064.79,1411.16c-.08,4.45,2,8.09,4.7,8.14s4.9-3.53,5-8-2-8.1-4.7-8.14S2064.87,1406.7,2064.79,1411.16Z" transform="translate(-29.57 -159)"/><path class="cls-18" d="M2040.36,1434.79l12.63-9.44s3.34,5.11-2.09,9.42C2044.27,1440,2040.36,1434.79,2040.36,1434.79Z" transform="translate(-29.57 -159)"/><path class="cls-7" d="M2008.65,1622.61c3.16-4.62,4.54-11.29,8.92-16.38a38.62,38.62,0,0,1,6.46-5.55c21-12.31,75.84-44,78-46.5,2.53-2.92,39.93-65.06,39.93-65.06l-33.59-7.61-32.83,58c-2.74,2.17-54.85,40.69-54.85,40.69s-10.36,8.09-16,11.88a45.24,45.24,0,0,1-8.06,3.6c-3.06,1.06-8.88,4-10.06,5-1.37,1.21-4.11,3.78-5.74,5.35s-3.6,3.35-4.36,4.29a11.84,11.84,0,0,1-3,1.88,1.93,1.93,0,0,0,.32,3.59c1.59.45,3.75-.55,5.08-1.17,3.78-1.78,8.39-6.56,8.63-6s-4.44,10.84-4.9,12.05-5.83,13.16-6.11,15.82,1.33,3.28,2.53,2.31c1-.84,9.67-16.8,9.67-16.8s1.11-2,1.54-.87-7.39,15.67-8.16,18.05-.15,4.33,2,3.5c2.68-1,10.07-17,10.07-17s1-2,1.62-1.3-6.2,12.92-6.28,14.33,1.2,2.8,3,1.62c2.17-1.39,8.65-15.72,8.65-15.72s.8-.95,1-.28-4.85,11.51-4.47,13.09a1.27,1.27,0,0,0,1.52,1.06C2002,1638.46,2005.49,1627.23,2008.65,1622.61Z" transform="translate(-29.57 -159)"/><path class="cls-13" d="M2132.73,1522s-10.94-3.48-17.95-6.7c-4.7-2.15-25.2-12.35-25.2-12.35s8.84-37.28,14.81-50.69c21.93-49.19,46.84-15.26,50.22-7.35C2162.18,1462.54,2132.73,1522,2132.73,1522Z" transform="translate(-29.57 -159)"/><path class="cls-18" d="M1368.61,1393.13l10.41-7.79s2.76,4.21-1.72,7.77C1371.84,1397.45,1368.61,1393.13,1368.61,1393.13Z" transform="translate(-29.57 -159)"/><path class="cls-10" d="M2590.76,1962H172.07c-3,0-5.47,3.13-5.47,7h0c0,3.86,2.45,7,5.47,7H2590.76c3,0,5.47-3.12,5.47-7h0C2596.23,1965.08,2593.78,1962,2590.76,1962Z" transform="translate(-29.57 -159)"/><path class="cls-15" d="M1076.94,591.61c-.25-.63-.8-.64-1.36-.66a137.23,137.23,0,0,1-16.33-1.22,11.54,11.54,0,0,1-2.63-.67,6.81,6.81,0,0,0-4.52-.16,9.2,9.2,0,0,1-2.51.26c-2.74,0-10.58-2.68-14.6-3.38a2.36,2.36,0,0,1-1.88-1.76c-4-15.66-12.45-50.79-13.55-62.35-1.41-14.77-11.61-81.39-11.61-81.39l-27.3,7.62s11.23,49.17,14.34,73c2.4,18.41,20.8,57.48,26.57,68.71,2.81,8.37,9.14,8.6,10.6,8.78a3.39,3.39,0,0,1,2.17,1.15,14.74,14.74,0,0,0,3.44,3,8.06,8.06,0,0,1,2.35,2.34c1.16,1.69,2.2,3.46,3.23,5.24.68,1.17,1.39,1.55,2.4,1.27a2.15,2.15,0,0,0,1.58-2.42,10.92,10.92,0,0,0-1.63-5.38,2.92,2.92,0,0,1,.21-3.89,12.37,12.37,0,0,1,2-2.28,3.57,3.57,0,0,1,2.8-1,44.52,44.52,0,0,0,6,1.11l1.65.34.9.19c.14,0,3,.35,4,.35.8,0,2.09.06,3.19.11a17.77,17.77,0,0,0,3.18-.47,3.84,3.84,0,0,0,2.55-1c.29-.27.58-.57.43-1a1,1,0,0,0-.89-.67c-.65-.12-4-.53-4-.67,1,0,4.16-.08,5.17-.1a4.73,4.73,0,0,0,3.47-1.53C1076.76,592.64,1077.19,592.24,1076.94,591.61Z" transform="translate(-29.57 -159)"/><path class="cls-14" d="M991.41,405.47c13.47-2.45,24.59,57.84,24.59,57.84s-29.94,8.36-37.61,4c0,0-8.71-38.59-11.82-37.24Z" transform="translate(-29.57 -159)"/><path class="cls-15" d="M665.63,1489c.89-2.56-11.54-4.62-12.2-7.2s15.69-2.79,16.27-5.06c1.08-4.18-17.92-.88-17.54-2.84s19.8-6.32,17.7-9.68-19.67,6.63-20.2,4.36,17.17-7.82,16.85-12.82c-.17-2.67-29.06,13.31-32.41,11.86s3.61-14,.94-15.86-10.33,25.5-12.17,26.41-40.87,23.19-54.76,26.73c-1.69-4.65-5.33-10.92-6.82-15.32-7.79,5.54-13.58,8.33-21.62,13.38,5.83,14.6,14.12,30.59,18.18,32.43,12.36,5.58,60.16-34.07,69.7-40.85s15-4.59,21.48-6.74S664.73,1491.58,665.63,1489Z" transform="translate(-29.57 -159)"/><path class="cls-11" d="M538,1510s-10.7-47.25-8.84-61,18.14-26.48,29.43-21.75S575,1498,575,1498Z" transform="translate(-29.57 -159)"/><path class="cls-23" d="M3446,842" transform="translate(-29.57 -159)"/></svg>