<svg id="Layer_1" data-name="Layer 1" xmlns="http://www.w3.org/2000/svg" viewBox="0 0 2536.73 1445.76"><defs><style>.cls-1,.cls-23{fill:#87bad0;}.cls-1{opacity:0.22;}.cls-2{fill:#347261;}.cls-3{fill:#407f6c;}.cls-4{fill:#2b6050;}.cls-5{fill:#649e89;}.cls-6{fill:#4d8975;}.cls-7{fill:#ddba4b;}.cls-8{fill:#383552;}.cls-9{fill:#c5c7cf;}.cls-10{fill:#edcb50;}.cls-11{fill:#ffb27d;}.cls-12{fill:#ef8351;}.cls-13{fill:#0f393a;}.cls-14{fill:#184c4c;}.cls-15{fill:#e27950;}.cls-16{fill:#ee9961;}.cls-17{fill:#feb584;}.cls-18{fill:#ebf3fa;}.cls-19{fill:#fff;}.cls-20{fill:#f2f2f2;}.cls-21{fill:#254d71;}.cls-22{fill:#365d7d;}.cls-24{fill:#f0a158;}.cls-25{fill:#edbdba;}.cls-26{fill:#fde5da;}.cls-27{fill:#7baaba;}.cls-28{fill:#feb27d;}.cls-29{fill:#ed975e;}.cls-30{fill:#eac8a9;}.cls-31{fill:#eaeff6;}.cls-32{fill:#ee985e;}.cls-33{fill:#fcecdb;}.cls-34{fill:#86d1cd;}.cls-35{fill:#e4ecf2;}.cls-36{fill:#feb17d;}.cls-37{fill:#ebc8a8;}.cls-38{fill:#ebc7a7;}.cls-39{fill:#a8bed3;}.cls-40{fill:#e7f1fd;}.cls-41{fill:#ee985f;}.cls-42{fill:#b45544;}.cls-43{fill:#83797c;}.cls-44{fill:#606060;}.cls-45{fill:#7ac5c6;}.cls-46{fill:#fae2c9;}.cls-47{fill:#f6dbc3;}.cls-48{fill:#f6d8bf;}.cls-49{fill:#f5d7be;}.cls-50{fill:#f6d7be;}.cls-51{fill:#edc29f;}.cls-52{fill:#ed7e2c;}.cls-53{fill:#eaf2fa;}.cls-54{fill:#5ba9ad;}.cls-55{fill:#af514a;}.cls-56{fill:#f2b378;}.cls-57{fill:#f6c291;}.cls-58{fill:#f3b47a;}.cls-59{fill:#f4b57a;}.cls-60{fill:#f2a45f;}.cls-61{fill:#f3b174;}</style></defs><title>header-artisans-poemop</title><path class="cls-1" d="M229.52,1715.61S-77.57,1450.36,118,1138.49s458-154.91,445.38-518,603.78-394.06,799.94-288.71S1576.72,505,1981.75,463.17s593.4,267.23,460.31,481.64c-155.45,250.45,312.87,274.74-42.94,771.55Z" transform="translate(-49.26 -278.95)"/><path class="cls-2" d="M2359.34,731s-30.42,66.24-50.9,94.22-40,54.74-56.31,132.4-13.54,85.47-18,105.53-33.57,101.33-33.74,116.23-58.81,99.74-73.84,139.45-41.62,96.43-40.13,125.3l6.69-1.7s5.44-67.33,51.8-135.38,39.73-80.89,92.37-115.88,86.64-131.5,86.64-131.5,53.56-104.89,51.07-159.42S2386.7,796.6,2359.34,731Z" transform="translate(-49.26 -278.95)"/><path class="cls-2" d="M2288.09,629.16s-1.78,43.51-15.81,69.37-26.12,41.55-28.67,69.52-11.37,100.05-50.5,135.26S2149,1044,2119.17,1075.88s-33.68,54.84-28.18,109.56S2115.18,1316,2072,1415l-9.8-24.63s30.92-81.43,23.44-129.12-33.53-119.73-24-154.24-25.92-41.31-4.57-93.57,12.58-70.42,41.62-115.61c0,0,3-2.12,10.61-40.35s69.23-108.31,97.62-132.21S2276.22,663,2288.09,629.16Z" transform="translate(-49.26 -278.95)"/><path class="cls-3" d="M2172.48,844.61s-34,58.19-34.47,95.64,3.57,67.92-13.62,119.21,16.93,83.72,7.09,112-10.61,61.84-10.3,87.26-38.93,109.58-44.89,152.18,1.64,42.75,1.64,42.75,6.53-56.25,15.5-74.85,36.47-82.73,42.89-107.54,23.79-40.73,38.78-82.75,36.31-77.41,34.69-137S2232.19,929,2172.48,844.61Z" transform="translate(-49.26 -278.95)"/><path class="cls-3" d="M2100.52,1414.64s15.85-73.85,82.69-81.23,106.09,5.85,153.31-48.11,74.64-139.55,89.73-154.32c0,0-23.73-12.24-63.16,24.67s-67.15,64.85-90,86.31-41.37,7.48-65.48,21.63c-20.2,11.86-46.33,46.14-57.83,64.09a81.13,81.13,0,0,1-13.27,15.89c-4.62,4.27-10.14,9.51-13.67,13.36-7.08,7.72-27.49,58-27.49,58Z" transform="translate(-49.26 -278.95)"/><path class="cls-3" d="M2077,1401.62s23.56-90.32,7.78-134.52-65.17-76.91-63.18-104.67,33.69-102.83,7.84-158.67c0,0-9.79,49.83-19.51,60.91s-76.21,55.79-64.41,114.84,76.44,72.84,92.37,90.22,37.42,17.36,37.54,28.92,4.33,53.58-2.81,95Z" transform="translate(-49.26 -278.95)"/><path class="cls-4" d="M2102.72,1341.18l33.09-95.33s19.44-76.67,30.71-140.61,6-260.63,6-260.63-34,58.19-34.47,95.64,3.57,67.92-13.62,119.21,16.93,83.72,7.09,112-10.61,61.84-10.3,87.26-38.93,109.58-44.89,152.18c-3.26,23.34-2.44,33.92-1.05,38.73C2069.92,1412.41,2102.72,1341.18,2102.72,1341.18Z" transform="translate(-49.26 -278.95)"/><path class="cls-2" d="M2265.7,1284.39c-29.52,5.89-55.91,3.88-91,30s-55.65,53.94-55.65,53.94-15.75,28.14-22.26,43c-.94,2.27-1.49,3.62-1.49,3.62l5.17-.27s15.85-73.85,82.68-81.23,106.1,5.85,153.32-48.11,74.64-139.55,89.72-154.32c0,0-50.22,39.07-81.25,73.65S2295.24,1278.49,2265.7,1284.39Z" transform="translate(-49.26 -278.95)"/><path class="cls-4" d="M2009.89,1064.67c-9.7,11.09-76.21,55.79-64.41,114.84s76.44,72.84,92.37,90.22,37.42,17.36,37.54,28.92,4.33,53.58-2.81,95l1.91,3.46c3.49-16.18,8.32-40.8,9.91-59.57,2.57-30.39-2.35-43-12.12-67.59s-70.47-74.76-85.69-101.12,29.33-70.43,39.17-91.71,3.57-73.45,3.57-73.45S2019.57,1053.59,2009.89,1064.67Z" transform="translate(-49.26 -278.95)"/><path class="cls-4" d="M2167.67,1358l10.39-25.11c8.06-18.47,28.68-27.29,46.07-19.7h0c43.81,19.13,62.84,72.35,42.54,118.9l-14.85,34c-6.53,14.9-4.25,31.31,4.53,42.86,8,10.51,9.27,25.11,3.74,37.77l-7.82,18a71.4,71.4,0,0,1-44.52,39.72,43.27,43.27,0,0,0-26.89,24.3l-11.08,25.39c-12.24,28.08-43.62,41.49-70.06,30l-15.08-6.59c-26.43-11.54-37.92-43.65-25.66-71.74h0c19.82-33.57,18.24-58.63,11.21-75.63a101.7,101.7,0,0,1,1-79.33l1.57-3.59a101,101,0,0,1,61.67-55.82C2146.35,1387.53,2158.83,1378.22,2167.67,1358Z" transform="translate(-49.26 -278.95)"/><path class="cls-5" d="M1980.6,1712.61c21.21-27.57,137.84-175.24,213.82-199.85,83.91-27.16,4.82,80.73,4.82,80.73s148.85-162.77,203.49-148.1c50.07,13.45,0,114.34,0,114.34s56.39-55.87,124.78-55.87c66.56,0-46.52,198.14-52.61,208.75Z" transform="translate(-49.26 -278.95)"/><path class="cls-2" d="M2429.18,1393.11a980.75,980.75,0,0,0-130.57,312.58l-4.18-1.12a987.13,987.13,0,0,1,130.08-310c14.11-22,29.38-48.21,55.77-56.81.51-.17.7.61.21.81C2456.36,1347.7,2442.39,1372.5,2429.18,1393.11Z" transform="translate(-49.26 -278.95)"/><path class="cls-2" d="M2313.26,1709.65a1225.84,1225.84,0,0,1,248.83-252.13c1-.74,2.31,1,1.32,1.73a1224.55,1224.55,0,0,0-245,251.78Z" transform="translate(-49.26 -278.95)"/><path class="cls-2" d="M2434.74,1334.21c1.57,2.31,7.56,8.31,9.32,16.2,2.37,7.48.5,16.85.3,16.52-.45.19,6.93-6,9.24-16,3-9.53.9-22.74-2.82-27.12-6.42-9.89-17.63-10.9-19.81-6.1S2431.59,1329,2434.74,1334.21Z" transform="translate(-49.26 -278.95)"/><path class="cls-2" d="M2449.33,1419c-2.27-1.63-8.16-7.72-16-9.64-7.43-2.5-16.83-.81-16.51-.62-.19.45,6.19-6.81,16.17-8.92,9.58-2.8,22.75-.45,27.06,3.36,9.79,6.61,10.55,17.84,5.71,19.92C2460.89,1425.33,2454.47,1422.25,2449.33,1419Z" transform="translate(-49.26 -278.95)"/><path class="cls-2" d="M2427.33,1456.15c-2.27-1.63-8.16-7.72-16-9.63-7.44-2.51-16.85-.82-16.52-.63-.2.45,6.19-6.81,16.17-8.92,9.59-2.8,22.76-.45,27.06,3.36,9.79,6.61,10.55,17.84,5.71,19.92S2432.51,1459.41,2427.33,1456.15Z" transform="translate(-49.26 -278.95)"/><path class="cls-2" d="M2505.64,1542.35c-2.27-1.63-8.16-7.73-16-9.64-7.44-2.51-16.84-.82-16.51-.63-.2.45,6.18-6.81,16.16-8.92,9.58-2.8,22.76-.45,27.06,3.36,9.79,6.61,10.55,17.84,5.71,19.92S2510.83,1545.6,2505.64,1542.35Z" transform="translate(-49.26 -278.95)"/><path class="cls-2" d="M2545.67,1507.09c-2.27-1.63-8.16-7.72-16-9.64-7.44-2.51-16.84-.81-16.52-.62-.2.45,6.19-6.81,16.17-8.92,9.59-2.8,22.76-.44,27.06,3.35,9.79,6.61,10.55,17.84,5.71,19.93S2550.84,1510.35,2545.67,1507.09Z" transform="translate(-49.26 -278.95)"/><path class="cls-2" d="M2404,1376.26c1.91,2,8.78,7,11.76,14.53,3.51,7,3.15,16.56,2.89,16.26-.41.26,5.9-7.07,6.61-17.24,1.45-9.89-2.7-22.6-7.06-26.34-7.9-8.76-19.13-8-20.52-2.9S2400.09,1371.58,2404,1376.26Z" transform="translate(-49.26 -278.95)"/><path class="cls-2" d="M2371.73,1418.4c2.72,1.44,12.24,4.08,17,11.16,5.4,6.32,6.09,17.14,5.71,16.91-.5.47,6.77-10.43,6.45-22.09.68-11.65-6.24-24.06-12.34-26.35-11.29-6.39-25.73-.7-26.93,5.58S2366.08,1414.87,2371.73,1418.4Z" transform="translate(-49.26 -278.95)"/><path class="cls-2" d="M2337.75,1482.23c2.93,1,12.72,1.94,18.62,8.16,6.39,5.32,8.89,15.86,8.5,15.71-.43.54,4.89-11.43,2.64-22.85-1.3-11.6-10.2-22.68-16.6-23.92-12.2-4.39-25.48,3.65-25.59,10C2325,1475.79,2331.58,1479.7,2337.75,1482.23Z" transform="translate(-49.26 -278.95)"/><path class="cls-2" d="M2438.31,1526.69c2.13,1.33,9.7,4,13.18,10,4,5.45,4,14.29,3.7,14.08-.44.35,6.09-8.09,6.53-17.59,1.21-9.44-3.71-19.93-8.54-22.15-8.82-5.84-20.89-2-22.22,3C2429.47,1519.14,2433.9,1523.5,2438.31,1526.69Z" transform="translate(-49.26 -278.95)"/><path class="cls-2" d="M2490.66,1349.16c-1.27-1.06-4.49-4.9-9-6.41a19.68,19.68,0,0,0-9.74-1.08,21.24,21.24,0,0,1,10-4.58c5.8-1.24,13.49.73,15.86,3.17,5.49,4.34,5.46,11,2.51,12S2493.58,1351.3,2490.66,1349.16Z" transform="translate(-49.26 -278.95)"/><path class="cls-2" d="M2478.47,1322c.06,1.63,1.16,6.53-.46,11.07a19.78,19.78,0,0,1-5.08,8.39,21,21,0,0,0,9.69-5.1c4.53-3.82,7.66-11.12,7.18-14.49-.08-7-5.39-11.05-8-9.33S2478.54,1318.42,2478.47,1322Z" transform="translate(-49.26 -278.95)"/><path class="cls-2" d="M2574.49,1471.18c-1.28-1-4.49-4.89-9-6.39a19.85,19.85,0,0,0-9.75-1.1,21.45,21.45,0,0,1,10-4.57c5.79-1.23,13.48.74,15.86,3.17,5.49,4.34,5.46,11,2.5,12S2577.4,1473.34,2574.49,1471.18Z" transform="translate(-49.26 -278.95)"/><path class="cls-2" d="M2559.77,1443.83c.2,1.63,1.7,6.44.46,11.07a20.18,20.18,0,0,1-4.38,8.78,21.16,21.16,0,0,0,9.25-5.87c4.18-4.2,6.71-11.71,6-15-.65-7-6.28-10.61-8.74-8.65S2559.56,1440.21,2559.77,1443.83Z" transform="translate(-49.26 -278.95)"/><path class="cls-2" d="M2549.54,1620.62c-62.1,6.8-120,34.22-175.62,60.94-37.54,18-35.65,23.16-43.26,25.85a1.55,1.55,0,0,1-1.94-1,1.52,1.52,0,0,1,.07-1.11c2.93-5.82,10.65-9.79,16-13.12a210.5,210.5,0,0,1,19.39-10.61c14.18-6.88,28.72-13.06,43.16-19.34,29.38-12.77,59.26-24.79,90.31-32.91a316.74,316.74,0,0,1,51.87-9.25.25.25,0,1,1,0,.5h0Z" transform="translate(-49.26 -278.95)"/><path class="cls-2" d="M2493.57,1601.35c.4,2.56,3.06,10,1.42,17.26-1,7.2-6.24,14.32-6.27,14-.46,0,8.2-2.34,14.05-9.79,6.26-6.81,9.72-18.71,8.34-23.84-1.47-10.83-10.47-16.1-14.2-12.93S2493,1595.72,2493.57,1601.35Z" transform="translate(-49.26 -278.95)"/><path class="cls-2" d="M2438.86,1621c.4,2.55,3.06,9.94,1.42,17.25-1,7.21-6.23,14.33-6.27,14-.45,0,8.2-2.35,14-9.8,6.27-6.8,9.73-18.71,8.34-23.84-1.48-10.83-10.48-16.1-14.2-12.93S2438.28,1615.32,2438.86,1621Z" transform="translate(-49.26 -278.95)"/><path class="cls-2" d="M2383.27,1645.73c.4,2.54,3.05,9.94,1.42,17.25-1,7.21-6.24,14.32-6.27,14-.46,0,8.2-2.34,14.06-9.79,6.26-6.81,9.72-18.71,8.33-23.85-1.47-10.82-10.48-16.09-14.19-12.92S2382.7,1640.1,2383.27,1645.73Z" transform="translate(-49.26 -278.95)"/><path class="cls-2" d="M2509.9,1652.48c-1.13-2.11-3.27-9-8.58-13.51-4.74-4.77-12.59-7.08-12.42-6.8-.32.27,7.35-2.85,15.8-.65,8.41,1.52,17.61,8.36,19.46,12.92,5,8.8,1.25,17.7-3.27,17.45S2512.62,1656.94,2509.9,1652.48Z" transform="translate(-49.26 -278.95)"/><path class="cls-2" d="M2453,1672.62c-1.12-2.11-3.26-9-8.58-13.51-4.74-4.77-12.59-7.07-12.42-6.8-.32.27,7.35-2.84,15.81-.65,8.41,1.52,17.6,8.36,19.45,12.92,4.95,8.8,1.26,17.7-3.27,17.45S2455.72,1677.08,2453,1672.62Z" transform="translate(-49.26 -278.95)"/><path class="cls-2" d="M2553.23,1631.74c-1-1.18-3.26-5.24-7.17-7.35a18.18,18.18,0,0,0-8.69-2.62,19.76,19.76,0,0,1,9.79-2.5c5.49-.16,12.16,2.92,13.93,5.54,4.27,4.9,3.13,11,.27,11.38S2555.54,1634.19,2553.23,1631.74Z" transform="translate(-49.26 -278.95)"/><path class="cls-2" d="M2546.67,1605c-.23,1.51,0,6.17-2.27,10a18.37,18.37,0,0,1-6,6.78,19.69,19.69,0,0,0,9.68-3c4.76-2.73,8.84-8.85,9-12,1.09-6.39-3.06-11-5.71-9.85S2547.35,1601.7,2546.67,1605Z" transform="translate(-49.26 -278.95)"/><path class="cls-2" d="M481.43,1206c-79.06-70.5-119.71-171.73-139.89-244.25-21.91-78.69-25.1-141.54-25.12-142.17l-4.3-.27c0,.64,3.23,63.93,25.27,143.18,20.33,73.23,61.45,175.5,141.46,246.86Z" transform="translate(-49.26 -278.95)"/><path class="cls-2" d="M325.42,801.41c3.9,18.13.63,35.25-7.68,47.62-13-9.59-23.27-25-27.16-43.08s-.64-35.25,7.67-47.61C311.28,767.92,321.52,783.29,325.42,801.41Z" transform="translate(-49.26 -278.95)"/><path class="cls-2" d="M301.17,853c13.62,12.67,21.59,29.32,23.12,45.34-15,.68-31.4-5.38-45-18S257.69,851,256.14,835C271.1,834.29,287.55,840.36,301.17,853Z" transform="translate(-49.26 -278.95)"/><path class="cls-2" d="M294.78,907.26a69.38,69.38,0,0,1,39,31.41c-12.28,7.9-28.74,10.16-45.67,4.86a69.38,69.38,0,0,1-39-31.43C261.39,904.22,277.85,901.94,294.78,907.26Z" transform="translate(-49.26 -278.95)"/><path class="cls-2" d="M320.85,972.49c13.41,4.24,24.12,15,30.2,28.71-10.17,8.54-23.48,11.78-36.89,7.55S290,993.72,284,980C294.13,971.5,307.44,968.26,320.85,972.49Z" transform="translate(-49.26 -278.95)"/><path class="cls-2" d="M343.75,879.39a46.34,46.34,0,0,1,38-13.7A52,52,0,0,1,367,905.14a46.4,46.4,0,0,1-38,13.7A52,52,0,0,1,343.75,879.39Z" transform="translate(-49.26 -278.95)"/><path class="cls-2" d="M356,926.14a46.36,46.36,0,0,1,38-13.7,52,52,0,0,1-14.68,39.45,46.36,46.36,0,0,1-38,13.7A52,52,0,0,1,356,926.14Z" transform="translate(-49.26 -278.95)"/><path class="cls-4" d="M433.78,1301.65c-73-10.61-135.48-53.94-175.07-88.3-42.93-37.35-68.9-72.65-69.15-73l-2.6,1.49c.25.36,26.41,35.92,69.62,73.52,39.94,34.76,103.07,78.45,177,89.22Z" transform="translate(-49.26 -278.95)"/><path class="cls-4" d="M187.82,1126.3c9.22,9,13.9,20.25,13.81,30.62a50.63,50.63,0,0,1-32.32-14.62c-9.22-9-13.89-20.24-13.8-30.62A50.84,50.84,0,0,1,187.82,1126.3Z" transform="translate(-49.26 -278.95)"/><path class="cls-4" d="M193.53,1165.61c12.79,2.14,23.8,8.75,30.84,17.48-8.42,6.14-20.33,8.92-33.09,6.78s-23.8-8.76-30.85-17.49C168.87,1166.23,180.76,1163.47,193.53,1165.61Z" transform="translate(-49.26 -278.95)"/><path class="cls-4" d="M210.62,1199.58a48.32,48.32,0,0,1,34.75,3.29c-4.12,9.3-12.81,16.93-24.69,20.34a48.39,48.39,0,0,1-34.74-3.29C190.09,1210.62,198.75,1203,210.62,1199.58Z" transform="translate(-49.26 -278.95)"/><path class="cls-4" d="M250.81,1227.5c9.43-2.65,19.81-.51,28.58,5.1a26.72,26.72,0,0,1-18.57,18.56c-9.42,2.66-19.8.52-28.57-5.09A26.74,26.74,0,0,1,250.81,1227.5Z" transform="translate(-49.26 -278.95)"/><path class="cls-4" d="M228.4,1164.59A32.28,32.28,0,0,1,245.26,1142a36.27,36.27,0,0,1,6.58,28.58A32.31,32.31,0,0,1,235,1193.18,36.15,36.15,0,0,1,228.4,1164.59Z" transform="translate(-49.26 -278.95)"/><path class="cls-4" d="M253.45,1187.08a32.26,32.26,0,0,1,16.87-22.57,36.23,36.23,0,0,1,6.56,28.59A32.27,32.27,0,0,1,260,1215.66,36.24,36.24,0,0,1,253.45,1187.08Z" transform="translate(-49.26 -278.95)"/><path class="cls-5" d="M477.74,1520.15c-84.22,32-176.91,15.09-239.85-4.71-68.33-21.49-117.32-51-117.8-51.28l-1.87,3.54c.5.3,49.84,30,118.61,51.63,63.56,20,157.22,37.05,242.47,4.68Z" transform="translate(-49.26 -278.95)"/><path class="cls-5" d="M109.72,1447.09a60.83,60.83,0,0,1,33.22,31c-12.33,6.31-28,7.25-43.27,1.32a60.82,60.82,0,0,1-33.22-31C78.79,1442.09,94.44,1441.15,109.72,1447.09Z" transform="translate(-49.26 -278.95)"/><path class="cls-5" d="M139.56,1494.44a53.85,53.85,0,0,1,43.46,3.35,51.72,51.72,0,0,1-31.17,29.53,53.9,53.9,0,0,1-43.43-3.33A51.81,51.81,0,0,1,139.56,1494.44Z" transform="translate(-49.26 -278.95)"/><path class="cls-5" d="M178.3,1527.76a51.13,51.13,0,0,1,39-17.52,55.92,55.92,0,0,1-14,41.83,51.13,51.13,0,0,1-39,17.52A55.88,55.88,0,0,1,178.3,1527.76Z" transform="translate(-49.26 -278.95)"/><path class="cls-5" d="M232.53,1545c10.61-11.85,24.94-17.77,39-17.5a55.9,55.9,0,0,1-14,41.83c-10.61,11.85-24.93,17.77-39,17.51A55.93,55.93,0,0,1,232.53,1545Z" transform="translate(-49.26 -278.95)"/><path class="cls-5" d="M181.51,1489.38c-9.33-12.14-13.48-26.77-12.49-40,12.28,1.43,24.83,8.57,34.15,20.71s13.48,26.77,12.49,40C203.36,1508.66,190.83,1501.52,181.51,1489.38Z" transform="translate(-49.26 -278.95)"/><path class="cls-5" d="M237.84,1507c-9.5-12-13.88-26.58-13.11-39.9,12.28,1.22,24.92,8.15,34.42,20.14s13.88,26.59,13.11,39.91C259.94,1525.94,247.32,1519,237.84,1507Z" transform="translate(-49.26 -278.95)"/><path class="cls-5" d="M303.75,1549.67A21,21,0,0,1,317,1537.14a24,24,0,0,1,.77,19.11,20.93,20.93,0,0,1-13.26,12.52A24,24,0,0,1,303.75,1549.67Z" transform="translate(-49.26 -278.95)"/><path class="cls-2" d="M622.14,1710.88s107.3-424.4,71.72-467c-49.17-58.93-89.74,136.55-93.72,119.94C562.55,1207,552.54,1006.4,431.26,985.17c-69-12.08,15.91,149.19,10.81,192.8S312.8,1076.78,237.33,1000.89s-114.47-27.83-66.78,67.56c46.12,92.24,195.31,193,164.56,205S117.66,1166.32,94.8,1217.25c-28,62.44,252,147.4,225.65,161.44s-160.22-32.18-156.56,15.57,183.58,46,180.5,67c-5,34-124-43-129.21,4.09-5.35,48.12,156.56,39.34,153.75,76.92-1.6,21.57-36.35-11-41.47,18.91-11.67,68.13,201.77,151.12,201.77,151.12Z" transform="translate(-49.26 -278.95)"/><path class="cls-4" d="M740.29,1713.45s-102.11-156.56-151.24-186.12c-52.36-31.49-12.5,62.78-12.5,62.78s-107-127.32-136.73-101.45-2.75,55.83-2.75,55.83S341,1516,323.75,1551.28c-26.52,54.2,131.59,99.13,131.59,99.13s-67.88-.73-55.39,35.85C418.8,1741.43,740.29,1713.45,740.29,1713.45Z" transform="translate(-49.26 -278.95)"/><path class="cls-5" d="M323.75,1551.3c17.27-35.25,113.32-6.79,113.32-6.79s-27-30,2.75-55.82,115.33,51.54,115.33,51.54-9-63.85,55.47-7.6c46,40.18,129.67,180.8,129.67,180.8Z" transform="translate(-49.26 -278.95)"/><path class="cls-6" d="M616.34,1320.36l4.58-3.13c-84.62-128.2-107-251.9-115.16-378.63-7.21-112,5.46-195.29,5.58-196.12l-5.68-1.65c-.13.88-12.89,84.66-5.65,197.35C506.71,1042.3,532.32,1193.11,616.34,1320.36Z" transform="translate(-49.26 -278.95)"/><path class="cls-6" d="M527.71,722.87c.18,25.29-8.59,46.2-22.6,58.75a112.67,112.67,0,0,1-23.51-67.8c-.18-25.3,8.59-46.21,22.6-58.75A112.65,112.65,0,0,1,527.71,722.87Z" transform="translate(-49.26 -278.95)"/><path class="cls-6" d="M482.67,779.72c14.15,22.36,20,47.48,17.69,69-19.45-5.53-39-20.5-53.21-42.86s-20-47.47-17.68-69C448.93,742.39,468.51,757.35,482.67,779.72Z" transform="translate(-49.26 -278.95)"/><path class="cls-6" d="M460,847.65a110.71,110.71,0,0,1,41.91,57.69c-17.94,5-39.79.88-60.12-13.26a110.63,110.63,0,0,1-41.91-57.7C417.75,829.36,439.56,833.46,460,847.65Z" transform="translate(-49.26 -278.95)"/><path class="cls-6" d="M486.56,966.23a46.2,46.2,0,0,1,19.13,23c-7.3,2.72-16.49,1.77-25.38-3.59a46.2,46.2,0,0,1-19.13-23C468.48,959.92,477.67,960.92,486.56,966.23Z" transform="translate(-49.26 -278.95)"/><path class="cls-6" d="M493.8,1010.16a46.14,46.14,0,0,1,19.11,23c-7.3,2.72-16.48,1.72-25.37-3.59a46.08,46.08,0,0,1-19.13-23C475.68,1003.85,484.89,1004.85,493.8,1010.16Z" transform="translate(-49.26 -278.95)"/><path class="cls-6" d="M530.5,832.35c16.44-9.32,35.66-9.22,52.7-1.52-2.86,19-13.09,35.77-29.53,45.09S518,885.14,501,877.44C503.83,858.45,514.07,841.66,530.5,832.35Z" transform="translate(-49.26 -278.95)"/><path class="cls-6" d="M533.79,898.52c16.44-9.31,35.66-9.21,52.7-1.51-2.85,19-13.09,35.77-29.53,45.09s-35.66,9.21-52.7,1.51C507.11,924.63,517.35,907.83,533.79,898.52Z" transform="translate(-49.26 -278.95)"/><path class="cls-6" d="M530.5,993.23c10.7-6.05,23.21-6,34.31-1-1.86,12.38-8.53,23.28-19.23,29.35s-23.21,6-34.3,1C513.17,1010.23,519.83,999.3,530.5,993.23Z" transform="translate(-49.26 -278.95)"/><path class="cls-7" d="M1271.56,333.35c1.13,1.5,2.77,1.55,4.45,1.64,25.29,1.32,48.21,10.22,69.86,22.57a165.37,165.37,0,0,1,38.8,30.3A186.94,186.94,0,0,1,1411,423.5a180,180,0,0,1,20.06,53.68c1.35,6.68,2.81,13.37,2.61,20.32-.15,5.46.84,11,.91,16.34a132.21,132.21,0,0,1-1.29,20.41c-3,21.3-9,41.74-19,60.93a206.78,206.78,0,0,1-22.47,33.4,142.21,142.21,0,0,0-25.94,50.1c1.83,7.31-1.56,14-2.55,21-3.29,23-1.37,46-1.66,69-.28,23.31-9.82,41.14-29.5,53.63-9.33,5.93-19.87,7.59-30.53,9-1,.07-2,.09-3,.09-10.53,0-21.06.37-31.6.18-3-.39-6.09,0-8.75-1.81-4-6.93-2.89-13.56,2.65-18.73,14.46-13.48,18.4-30.34,18.34-49.34-.06-21.41-1.73-42.89,1.45-64.24a112.31,112.31,0,0,1,5-20.81c1.37-4.36,4.77-7.21,7.75-10.37,8.45-6.89,11.56-16.76,14.78-26.57.69-7.7,4.43-13.76,9.13-19.81,49.91-64.27,49-156.18-2.58-218.89-24.22-29.44-54.59-50.2-92-59.73-2.61-.66-5.56-.62-7.52-3,5.23-2.28,10.83-2.72,16.41-3.24,2.35-.22,5,.66,6.81-1.65Z" transform="translate(-49.26 -278.95)"/><path class="cls-8" d="M2371,1719.6q-546.33,0-1092.66,0c-3.41,0-7.22,1.39-10.21-1.65l1.16-1c12.66-2.95,25.51-.81,38.27-1.33a19.11,19.11,0,0,1,4.72,0q70.13-.54,140.24,0c2.15.06,4.3-.38,6.44,0,29-.31,58-.42,87.06,0,47.68.2,95.36,0,143,0q7.19.06,14.39,0,32.16,0,64.33,0c145.21,0,290.42-.78,435.62.43,53.94.45,107.89.52,161.83,1.12a11.91,11.91,0,0,1,4.07.48l1.7.33Z" transform="translate(-49.26 -278.95)"/><path class="cls-9" d="M221.49,1723.12c0,.48.11,1,.19,1.43-1-.68-3.56,1.61-3.3-1.65Z" transform="translate(-49.26 -278.95)"/><path class="cls-10" d="M1215.27,338.24c7.1-.64,13.58,2.19,19.93,4.43A182,182,0,0,1,1348,457.83a174.72,174.72,0,0,1,7.6,71.5c-3.42,36-16.72,68.48-40.2,96.41-2.58,3.08-4.36,6.29-4.15,10.41.09,1.66,0,3.33-1.4,4.56a5.16,5.16,0,0,1-2.1-3.37,69.06,69.06,0,0,1-.35-9.21,18.64,18.64,0,0,0-1-7.37c-8.77-31.84-39.12-45.7-66.75-37.1-32.42,10.09-45,44.86-32.41,70.56a47.35,47.35,0,0,0,22,23.39c13.91,7.28,21.67,18.6,24.71,33.65,1.82,7.27,1.78,14.67,1.76,22.07,0,27.71,0,55.42,0,83.12,0,3.56.29,7.14-.65,10.65a6.62,6.62,0,0,1-1.8,2.68c-7,3.27-14.44,1.54-21.69,1.81-7.06.26-14.13.17-21.19,0-3-.08-6-.33-8.24-2.78-4.75-2-10-2.38-14.76-4.59-24.22-11.23-36-30.39-36.4-56.75-.24-17.06.19-34.13-.1-51.19-.54-31.16-10.45-59.25-29.22-84-10-13.14-19.92-26.17-27.1-41.15a191.56,191.56,0,0,1-16.72-54.81c-2-13.48-2-26.95-1-40.27,1.28-17.76,6-34.94,12.62-51.65,10.77-27.26,28.26-49.57,49.93-68.66,20.51-18.07,44.69-29.72,71-37A25.84,25.84,0,0,1,1215.27,338.24Z" transform="translate(-49.26 -278.95)"/><path class="cls-4" d="M1137.91,1083.6c-4.64-30.43-10.59-60.49-25.13-88.09a39.28,39.28,0,0,0-2.54-4.24c-6.74-9.57-9.18-10.25-19.51-4.8-11,5.81-22.7,9.64-34.74,12.58-1.59.39-3.29.37-4.53,1.68-12,1.64-23.89,3.52-36,4.08-17.83.83-35.09-1.2-51.76-7.65a22.1,22.1,0,0,1-3-1.42c-7.78-4.35-9-9.83-2.47-15.71,14.62-13.27,30.25-24.25,51.21-25.91,12.6-1,25.32-.37,37.84-2.67,4.67-.86,11-1,11.59-5.94.62-5.72-6.31-6-10.49-7-18-4.27-35.3-3.15-51.7,6.82-13.44,8.17-27.75,14.29-43.62,16.79-15,2.37-27.75-1.09-38.78-11.4a112.73,112.73,0,0,1-17.54-20.75,226.49,226.49,0,0,1-21.59-43.21c1.84-1.93,3.35-.8,4.89-.47,23.36,5,46,1.75,68-6.57,3.69-1.4,9.06-3,8.3-7.75-.61-3.8-5.92-4.1-9.61-5.08-13.35-3.52-27.1-4.44-40.71-6.3-9.8-1.35-19.66-2.27-29.48-3.51-6.71-.84-11.61-4.73-15.61-9.9a45.87,45.87,0,0,1-9.13-23.57,94.7,94.7,0,0,1,5.56-43.81c5.36-14.42,16.52-22.44,30.74-26.33a100.57,100.57,0,0,1,42.53-2.58c4.62.73,9.29,1.1,13.91,1.66,5.34.66,8.17,3.2,10.71,7.63a620.17,620.17,0,0,0,39.94,61.63c4.43,6,8.85,12,14.62,16.74,2.18,1.79,4.55,5.08,7.82,3.2s1.58-5.53,1-8.33c-2-10.6-6.27-20.5-10.62-30.29-5-11.31-10.47-22.44-15.69-33.66-1-2.22-2.61-4.22-2.83-7.54,3.61-1.2,7.22-.46,10.87.29C1017.22,765.6,1033,772,1048.6,779c13.83,6.18,27.41,12.85,40.83,19.88,4.6,2.4,5.48,5.28,4.9,9.85a409.13,409.13,0,0,0-2.82,64.23,64.1,64.1,0,0,0,3.24,18.62c.81,2.4,2.13,4.7,5,4.9,3.08.2,4.08-2.43,5.08-4.66a40.35,40.35,0,0,0,3.16-15.24,413.89,413.89,0,0,0-2.8-63.12c3.11-2,5.13.16,7.15,1.18,15.8,8,28,20.29,39.49,33.36,17,19.27,19.46,41.08,11.2,64.73-.81,2.33-1.54,4.69-2.3,7-2.83,12.89-11.63,22.14-19.62,31.84a51.44,51.44,0,0,1-9.36,9.29c-7.77,5.53-7.61,11.86-4.43,20.06,11.16,28.83,18.09,58.84,23.26,89.26.77,4.57,1.87,9.18.6,13.88C1146.59,1088,1142.13,1089,1137.91,1083.6Z" transform="translate(-49.26 -278.95)"/><path class="cls-10" d="M886.74,1042.5c-1.82,4-3.58,8-5.46,11.88-7.29,15.26-24,22.8-39.84,16.94-15.57-5.77-30.73-12.68-46.07-19.09-3.93-3.64-4-8.2-3-13,3.31-16.43,11.45-30.92,19-45.56,3.41-6.63,9.5-10.43,17.73-9.79,9,.7,13.31-6.63,18.87-11.71,4.08-1.27,6.44,1.23,7.5,4.37,2.07,6.17,6.86,8.68,12.35,10.68,3.85,1.4,7.51,3.16,9.54,7a11.33,11.33,0,0,0,.46,1.17c.34.55.54.47.39-.19a45.87,45.87,0,0,0-7.8-34.89c-5.1-7.33-12.05-11.38-21-11.9-2.41-.14-4.88,0-7.09-1.27-1.66-4.9,4.33-3.84,5.27-6.73,10.31-1.67,18.53,2.22,25.51,9.47,2.1,2.4,4.12,4.86,4.89,8.06,8,16.09,8.55,20.43,5.94,46.89,10.18-.65,20.25.15,30.29,1,26,2.25,50.94,8.1,72.91,23.15.08,1.07.16,2.15.25,3.22-3,2.19-5.23-.15-7.55-1.3-27.1-13.43-54.77-11.77-82.77-3.37C889.38,1029.85,886.65,1035.13,886.74,1042.5Z" transform="translate(-49.26 -278.95)"/><path class="cls-11" d="M788.7,977.82c-17.92-7.17-36.74-11.05-55.54-14.89-5.58-1.15-10.88-4-16.85-3.13-14.18-2.54-27.6-7-39.65-15.14-14.18-13.4-21.93-30.85-29.71-48.16-6.48-14.4-13.06-28.88-14.37-42.66a39,39,0,0,1,1.14,11.65c-.16,2.54.47,5.8-3.37,6.57a50.9,50.9,0,0,1-.34-6.51c1.07-15.54-1.14-31-1.56-46.46,3.69-4.85,9-7.17,14.53-8.92,13.13-4.13,18.63-1.51,23.66,11.2,10.43,26.36,18.09,53.72,28.76,80,5.47,13.48,16,21.1,29.49,25.19,16.57,14.5,34.5,26.13,57.65,25.8,9.16-.12,18.08.25,26.15,5.26,1.78,1.1,3.82,1.81,5.37,3.28,1.72,2.78,1.27,5.53-.07,8.27a6.19,6.19,0,0,1-2.42,2.42,20.34,20.34,0,0,0-5.89,2.81C800.1,976,795.23,981,788.7,977.82Z" transform="translate(-49.26 -278.95)"/><path class="cls-5" d="M957.65,601.14c5.05-3.46,11.14-2.59,16.54-2.94,21.72-1.44,43.27-.05,64,7.47,23.42,8.48,38.32,24.76,44.92,48.67a143.13,143.13,0,0,1,3.64,56.95c-.73,5.68-1.6,11.37-2.24,17.07-.31,2.81-.43,6.34-4.8,6.34-6.45-9-14.43-16.69-22-24.52-22.82-23.48-44.58-47.95-67.42-71.4-9.58-9.84-18.73-20.14-28.48-29.84C959.61,606.75,957.87,604.36,957.65,601.14Z" transform="translate(-49.26 -278.95)"/><path class="cls-4" d="M957.65,601.14c2,2.26,3.85,4.62,5.92,6.78,15,15.62,30.36,30.92,45,46.88q25.29,27.54,51.14,54.55c6.41,6.72,12.5,13.79,19.1,20.36,1.58,1.57,2.26,3,.94,5-23,3.24-45.89,2.92-68.6-2.89-33.07-8.47-51.15-30.33-56.8-63.15-3.67-21.32-2.25-42.63,1.67-63.81A17.32,17.32,0,0,1,957.65,601.14Z" transform="translate(-49.26 -278.95)"/><path class="cls-12" d="M724,926.41c-1.44,1.76-2.77,3.35-5.34,1.43-6.34-4.75-13.08-9-19.09-14.18-3.52-3-5-7.84-6.55-12.21-6.14-17-12.1-34.06-18.18-51.07-4-11.09-8.1-22.11-12-33.21-1.56-4.42-4.1-6.44-9.12-6.48-7.19-.06-13.45,2.2-19.5,5.57-1.89,1-3.34,3-5.79,2.83.1-2.72-.16-5.52.37-8.16,3.4-16.85,9.2-23.33,26.95-23.36,4.64,0,9.28.25,13.93.39,3.52,1.37,3.64,4.5,3.84,7.54a64,64,0,0,1,.06,9.89c-.74,8,2.86,12.89,10.2,15.84,10.75,4.3,21.58,8.28,32.85,10.92,7.27,1.7,8.92.15,8.55-7.36C725,820.1,723.43,815.6,723,811c-.25-2.69-1.42-6.17,3.1-6.86,1.53.57,3,1.19,4.58,1.71,14.48,4.82,21,16.38,25.27,29.82-7.85,2.86-10.5,8.47-9.68,16.62.86,8.52-3.85,15.83-6.28,23.63-1.7,5.49-3.87,10.83-5.11,16.47-2,9.38-5,18.53-7.18,27.88C727.13,922.61,726.43,925.05,724,926.41Z" transform="translate(-49.26 -278.95)"/><path class="cls-12" d="M678,943.05c8.85,6.6,19.37,9.4,29.56,12.94,3,1,6.39,1.27,8.75,3.81-.64,3.4-1.63,6.77-1.84,10.2-.35,5.67-3.33,8.69-8.59,9.92-5.22,4.9-11.71,3.09-17.8,3.39-26.68-2.74-53.41-5.29-79-14.3-4.55-1.61-9.65-2.64-12.08-7.69l-3.33-6.73c.75-14.8,8.7-26.36,17.16-37.61,4.44-5.91,9.37-11.45,14.08-17.16,6.65,6.56,11.16,14.86,17.51,21.63C652.28,931.9,663,941.06,678,943.05Z" transform="translate(-49.26 -278.95)"/><path class="cls-13" d="M694.81,663.66a19.13,19.13,0,0,1,13,12.59c1.07,3.1,2.14,4.54,5.79,3.32,5.64-1.89,10.79.35,15.55,3.24s8.52,6.8,12.07,11c5.86,6.94,10,15,15,22.49,3.07,4.55,3.31,9.79,2,15a41.3,41.3,0,0,1-7.9,16.95c-5.47-2-4.88-6.55-4.3-10.81.51-3.8,1.18-7.53-.15-11.26-.63-1.75-.74-4.07-2.79-4.68-2.41-.72-3,1.79-4.18,3.14-4.07,4.7-7.67,9.9-13.6,12.59-3.21-1.11-6.37-1.48-9.37.63a25.56,25.56,0,0,1-4.28,1.73c-11.71,1.18-11.7,1.18-13.51,12.74-.37,2.32-.1,5-3.2,5.9-1.31-4.26-3.31-7.19-8.65-7-5.12.2-7.65-4-9.54-8-4.32-9.15-4.32-18.63-1.15-28.11,1.21-3.63,2.92-7.1,4.61-11.13-10.09-2.32-12-11-12.79-19.24-.84-8.59,2.87-16.05,10.35-21.11a21,21,0,0,1,6.58-1.5,23.2,23.2,0,0,1,3.23.12,8.44,8.44,0,0,1,1.9.68,7.82,7.82,0,0,1,2.3,1.73c.15.85.22.8.2,0a2.17,2.17,0,0,1,1-1.47A3,3,0,0,1,694.81,663.66Z" transform="translate(-49.26 -278.95)"/><path class="cls-14" d="M347.27,1716.28q90,.06,180.06.24c4.6,0,6.24-1.65,6.69-5.78,1.68-15.51,3.3-31,5.25-46.5,1.84-14.65,4.22-29.23,6.09-43.88,2-15.48,3.51-31,5.43-46.48,1.34-10.86,3.06-21.66,4.48-32.51,1.31-10,2.42-20.11,3.67-30.15,1.5-11.94,3.11-23.87,4.58-35.81,1.84-14.93,3.11-30,5.6-44.79,1.22-7.26.2-14.77,2.81-21.81,6.19,3.71,14.53,4.19,18,12-2.28,24.7-7.37,49-11.28,73.42q-16.59,104-33.81,207.83c-1.85,11.26-1.43,11.75,10,11.76q108.24,0,216.5,0c5,0,10,0,13.75-4.11,5.39,1.47,3.92,4.66,2,8-2.75.1-5.49.28-8.24.28q-274.5,0-549,0c-2.75,0-5.5-.15-8.24-.24a.83.83,0,0,1,.27-1.39Z" transform="translate(-49.26 -278.95)"/><path class="cls-11" d="M695,758.28c2.93-4.15.51-9,1.68-13.41,1.91-7.33,1.65-7.38,9.28-7,2.16.1,4.32,0,6.48,0,1.6-.65,3.08-.85,4,1-.09,2.79-2.49,3.51-4.21,4.73a3.32,3.32,0,0,1-1.37.26c.38.36.79.32,1.28-.15,4.39-2,7.57-6.08,12.52-7,7.4-5.4,12.54-12.87,18.09-20.79a24.68,24.68,0,0,1,5.63,19.82c-.54,4.31-1.49,8.78,2,12.49a87.77,87.77,0,0,1-12,24.13c-2.66,3.76-6,6.72-11,5-2.72-.94-3.18,1.32-4.51,2.41-5.46-4.92-12.89-6.81-18.52-11.87,3.22,8.29,10.55,12.67,16.65,18.17-.22,1.88-.29,3.78-.66,5.63-1.74,8.47-1.77,8.46,5.71,12.38-2.55,1.9-1.59,4.25-1.05,6.71,1.3,5.86,2.88,11.67,2.65,17.79-.25,6.8-1.72,8.19-8.54,6.63-6.14-1.39-12.37-2.73-18.2-5-7.39-2.9-15-5.34-22.15-8.85-5.55-2.7-7.73-6.42-7.45-12.32.24-4.93,0-9.89,0-14.84A11,11,0,0,0,669.7,788c9.64,2.65,14.58-2.8,18.39-10.49C691.13,771.33,694.39,765.28,695,758.28Z" transform="translate(-49.26 -278.95)"/><path class="cls-11" d="M732.62,891.89c2.51-7.81,4.53-15.82,7.69-23.35a49.19,49.19,0,0,0,4-20.76c-.25-10.46.9-11.46,11.67-12.15,6.14,10.76,9.81,22.59,14.66,33.91,3.89,9.08,7.68,18.21,11.73,27.23,3.8,8.5,9.52,15.12,18.12,19.47,17.18,8.67,34.5,16.94,52.64,23.42a19.55,19.55,0,0,1,11.75.07h0a9.29,9.29,0,0,0,1.77,1.6l-.07-.07a5.54,5.54,0,0,0,1.72,1.72l-.07-.07a6,6,0,0,0,1.71,1.73l-.06-.06a8.78,8.78,0,0,0,1.64,1.75l0,0c.52.55,1,1.13,1.51,1.71l.07.1a2.29,2.29,0,0,1,0,3.44c-7.79-6-15.89-11.22-26.39-10.24-8.67,2.93-17.71,4.8-25.86,9.17-9.1-.27-17.94-2.49-26.91-3.71-14.16-1.93-25.18-9.38-34.36-19.56C749.58,916.22,740.23,904.69,732.62,891.89Z" transform="translate(-49.26 -278.95)"/><path class="cls-5" d="M1208.64,878.71a14.78,14.78,0,0,0-1.48-.13c1-7.28-1.87-14.27-1.66-21.49,2.82-2.92,6.64-3.75,10.31-4.8,23.48-6.69,47-13.15,70.35-20.35,4.46-1.38,9.34-.51,13.53-2.92h1.72c2.9,7.08.91,13.68-2,20.19-2.73,3-6.54,3.9-10.24,5-22.24,6.38-44.39,13.07-66.69,19.22A83.12,83.12,0,0,0,1208.64,878.71Z" transform="translate(-49.26 -278.95)"/><path class="cls-15" d="M678,943.05c-2.34,2.76-4.88,1.25-7.49.46-10.82-3.29-19.5-10.06-27-18C637.09,918.86,632,911,626.37,903.6c-.77-1-1-2.51-1.42-3.78,4.25-8.78,5-18.23,5.4-27.76,2.78-6.83.34-14.07,2-22.26,1.62,5.07,2.94,9.14,4.23,13.22,7.6,24.07,17.3,47.19,31.46,68.22C670.89,935.49,673.5,940.1,678,943.05Z" transform="translate(-49.26 -278.95)"/><path class="cls-4" d="M1299.69,829c-6,4.69-13.67,5.38-20.61,7.52-23,7.1-46.31,13.46-69.51,20.05a26,26,0,0,1-4.07.5,4.33,4.33,0,0,1-.15-1.52c-2.45-7,.22-10.77,7.25-12.55,18-4.54,35.42-11.54,54-14Z" transform="translate(-49.26 -278.95)"/><path class="cls-5" d="M1266.6,829.06c-10,4.33-20.73,6.42-31.06,9.76-8.29,2.69-16.77,4.85-25.24,6.95-5.75,1.42-4.76,5.81-5,9.8a88.41,88.41,0,0,1-3.24-26.78l51.27-.15a4.16,4.16,0,0,1,4.95,0Z" transform="translate(-49.26 -278.95)"/><path class="cls-16" d="M721,786.09c-10.68-3.6-18.11-12.14-19.19-22.8,5,5.31,10.92,8.14,16.86,10.88a6.57,6.57,0,0,1,4.2,5.62C722.61,782,722.87,784.35,721,786.09Z" transform="translate(-49.26 -278.95)"/><path class="cls-13" d="M686.39,663.56l-8.54.15c3.56-2.78,7.26-4.65,11.7-1.86-.12.3-.25.6-.38.91C688.23,663,687.21,662.9,686.39,663.56Z" transform="translate(-49.26 -278.95)"/><path class="cls-17" d="M873,951.56c0-1.15,0-2.3,0-3.44,2.59,2.81,5.51,5.45,4.86,9.85Q875.46,954.78,873,951.56Z" transform="translate(-49.26 -278.95)"/><path class="cls-17" d="M864.83,939.73l-11.75-.07C857,937.6,860.93,937.22,864.83,939.73Z" transform="translate(-49.26 -278.95)"/><path class="cls-13" d="M694.81,663.66l-.71.27-.77-.08c-1.29,1.14-2.58.85-3.86,0l.07.11c-.53-.43-.68-.83-.46-1.19s.41-.51.62-.51l-.15-.39C691.47,662,693.5,661.79,694.81,663.66Z" transform="translate(-49.26 -278.95)"/><path class="cls-17" d="M868.26,943l-1.72-1.72Z" transform="translate(-49.26 -278.95)"/><path class="cls-17" d="M873,948l-1.51-1.71A2.07,2.07,0,0,1,873,948Z" transform="translate(-49.26 -278.95)"/><path class="cls-17" d="M871.48,946.33l-1.64-1.75Z" transform="translate(-49.26 -278.95)"/><path class="cls-18" d="M221.91,1716.38c-.1.46-.19.93-.27,1.39l-.77.25-.79-.18A2.17,2.17,0,0,1,221.91,1716.38Z" transform="translate(-49.26 -278.95)"/><path class="cls-17" d="M869.9,944.64l-1.71-1.73Z" transform="translate(-49.26 -278.95)"/><path class="cls-17" d="M866.61,941.33l-1.77-1.6A2.18,2.18,0,0,1,866.61,941.33Z" transform="translate(-49.26 -278.95)"/><path class="cls-14" d="M2088.37,1716.24l134,0q69.13.08,138.29.19c2.92,0,6.06-.94,8.73,1.17-2.19.13-4.38.37-6.57.37l-591.61,0c-1.1,0-2.2,0-3.31,0a1.47,1.47,0,0,1,.23-2.39,7.66,7.66,0,0,1,2.62-1.14c15.63-1,31.29-.35,46.94-.39,5.85,0,9.14-1.86,10.17-8,4.46-26.8,8.68-53.63,13.29-80.4a11.82,11.82,0,0,0-.2-4.1c.21-5,2.4-9.57,2.91-14.5,1.76-8.34,3.39-16.7,4.36-25.17q7.55-43.74,14.39-87.6c.6-3.78,1-7.64,3.43-10.84,7.38-4.13,12.83-.43,18,4.44,2.26,4.7,0,9.15-.75,13.69-1.19,3.1-1,6.44-1.55,9.65q-20.42,96.06-40.67,192.14c-2.14,10.19-1.79,10.56,9,10.57q111.9,0,223.79,0a70.81,70.81,0,0,1,7.43.16A10.2,10.2,0,0,1,2088.37,1716.24Z" transform="translate(-49.26 -278.95)"/><path class="cls-10" d="M1258.33,828.61l-4.95,0c0-.45,0-.9,0-1.34,2-2.31,1.61-5.14,1.59-7.84-.24-34.77.52-69.53-.36-104.3-.19-7.67,3.33-14.26,7.4-20.52,5.72-6.16,11.41-12.4,18.73-16.78,2.22-1.33,4.22-3.68,7.34-2.44a160.65,160.65,0,0,0-6.74,49.24c.44,15.89.64,31.83-.07,47.7-.61,13.61-4.36,26.67-15,36.1C1259.89,814.11,1257,820.33,1258.33,828.61Z" transform="translate(-49.26 -278.95)"/><path class="cls-12" d="M1309.46,637.3c.13,1.13.25,2.27.38,3.41-2.74,10.26-6.53,19.95-15,27a3.2,3.2,0,0,1-1.13-2.16c2.22-8.36,8.82-15,9.55-23.92,1.31-4.08-.06-8.73,2.66-12.5C1312,629.73,1306.79,635.23,1309.46,637.3Z" transform="translate(-49.26 -278.95)"/><path class="cls-12" d="M1294.68,665.38l.15,2.36q-3.36,3.84-6.71,7.69c-8.65,4.87-16,11.41-23,18.31a3,3,0,0,1-2.35-2.34c1-5.17,5.18-7.57,9-10.1,6.68-4.39,13.09-9.06,18.61-14.87C1291.67,665.52,1293,664.6,1294.68,665.38Z" transform="translate(-49.26 -278.95)"/><path class="cls-14" d="M787.13,1717.68c-.37-2.7,1-5.73-1.55-8-4.85-3.28-4.25-8.73-5-13.43C769,1623.13,756.64,1550.12,745,1477c-2.85-18-6-35.84-8.93-53.77-.72-4.34-1.5-8.69-1-13.12,6.3-5.91,10.6.72,15.58,2.62,2.67,1,3.56,3.94,5,6.19,2.24,17.92,4.39,35.85,6.75,53.76,1.92,14.65,4.24,29.24,6.12,43.89,1.95,15.21,3.51,30.46,5.38,45.67,1.33,10.87,2.93,21.69,4.3,32.55s2.58,21.75,3.94,32.61c1.39,11.13,2.91,22.25,4.32,33.37,1.34,10.59,2.67,21.19,3.9,31.79.63,5.44,1.6,10.82,2,16.31.51,6.9,1.66,7.51,9,7.52q50.4,0,100.8,0c16.8,0,33.6-.06,50.4-.09,1.22-.23,1.9,0,1.09,1.36-3.84.1-7.68.29-11.52.29q-75.06,0-150.12,0C790.41,1718,788.77,1717.78,787.13,1717.68Z" transform="translate(-49.26 -278.95)"/><path class="cls-15" d="M1212,1717.91l-136.87-.07c-4.82-5.82-1-13.58-4.46-19.72a12.48,12.48,0,0,1,1.42-7.34c2.18-3.13,5.57-3.41,8.86-3.42,39.63-.12,79.27-.39,118.9.12a14.42,14.42,0,0,1,2.44.39c1.29.37,2.87.75,3.41,1.94C1209.76,1698.72,1214.32,1707.56,1212,1717.91Z" transform="translate(-49.26 -278.95)"/><path class="cls-15" d="M953.69,1717.66c-.36-.46-.72-.91-1.09-1.36-1.77-8.47-3.54-16.93-5.38-25.69,6.3-1.46,12.28-.33,18.16-.9,2.51-1.92,5.45-2.41,8.51-2.43q34.82-.18,69.65,0a16.46,16.46,0,0,1,7.19,1.33c3.12,2,2.93,5.1,2.71,8.21-2.31,6.79.07,14.47-3.84,21C1017.63,1718.2,985.66,1718.51,953.69,1717.66Z" transform="translate(-49.26 -278.95)"/><path class="cls-13" d="M1212,1717.91c-2.23-9.5-3.89-19.16-8-28.13-4.36-6-.82-11,1.91-16.18,3.77-3.19,7.26-1,10.68.69,8.1,4,14,10.55,20.21,16.83,3.9,4,7.9,7.71,13.58,9,6.51,1.42,12.23,4.2,16.43,9.56,1.86,2.37,3.78,4.73,1.89,8l-.54.28-30.12-.1c-5.7-2.62-7.42-8.31-10.27-13.16-1.31-2.23-2.41-5.83-5.5-5-2.79.73-1.31,4.21-1.55,6.49-.43,4,.87,8.18-1.92,11.76Z" transform="translate(-49.26 -278.95)"/><path class="cls-13" d="M1049.6,1717.81c-.27-6.73-.95-13.5,2-19.92,6.75,1.39,13.5,3.77,20.25,0,3,1.51,2.78,4.38,2.92,7,.22,4.3.27,8.61.4,12.92Z" transform="translate(-49.26 -278.95)"/><path class="cls-15" d="M1218.82,1717.88c-.09-7.35-.61-14.7.25-22.4,5.21.52,8.21,3.32,10.24,7.5,2.52,5.17,5,10.36,8.75,14.82A135.78,135.78,0,0,1,1218.82,1717.88Z" transform="translate(-49.26 -278.95)"/><path class="cls-19" d="M1579.2,1384.08c2.76,6.88,3.15,14.29,4.66,21.44,6.69,31.58,13,63.25,19.38,94.89,5.2,25.74,10.31,51.51,15.49,77.26q8.6,42.64,17.23,85.28c3.09,15.28,6.22,30.56,9.25,45.85,1.42,7.15,1.64,7.51,9.12,7.51,11.29,0,22.58-.12,33.87-.19a1.54,1.54,0,0,1,2,.06,1,1,0,0,1-.66,1.6l-143.9-.17a2.24,2.24,0,0,1,1.18-2.34c3.64-1.73,7.55-1.27,11.37-1.28,23.1,0,46.21,0,69.32,0,8.86,0,8.84-.1,6.75-8.86-16.46-69.28-34.35-138.2-51.48-207.31-6.27-25.33-12.48-50.68-18.21-76.14C1567.23,1408.27,1573,1396.08,1579.2,1384.08Z" transform="translate(-49.26 -278.95)"/><path class="cls-15" d="M1454,1717.73c-3,.11-6,.33-9,.33q-62.57,0-125.13,0c-3,0-6-.2-9-.31-.1-8.62,3.31-16.49,5.48-24.61a7.19,7.19,0,0,1,5-5.05,7.35,7.35,0,0,1,1.6-.4c42.75-.93,85.5-.47,128.25-.23a10.7,10.7,0,0,1,4.74,1.22c2.69,1.69,3.08,4.47,2.61,7.11C1457.19,1703.13,1457,1710.72,1454,1717.73Z" transform="translate(-49.26 -278.95)"/><path class="cls-15" d="M1546.15,1716.34a4.31,4.31,0,0,0-.54,1.27c-8.18,1-16.38.42-24.57.42-21,0-42.09-.18-63.14-.29-.51-9,3.09-17.11,5.39-25.5a6.16,6.16,0,0,1,4.65-4.26c22.34-1.45,44.69-.57,67-.52,21.17-.17,21.28,0,15.34,20.16C1549.39,1710.77,1548.53,1713.91,1546.15,1716.34Z" transform="translate(-49.26 -278.95)"/><path class="cls-20" d="M1319.48,1689.85c-2.53,5.78-3.23,12.06-4.94,18.06-1,3.39-1.42,7-3.71,9.84l-3,.07c-4.13-2.29-3.82-6.14-3.25-9.88.84-5.56,2-11.06,3.35-16.52,9-45.69,18.61-91.24,27.52-136.94.79-4,1.22-8.15,3.26-11.82,3.44-4.59,6.86-9.26,12.19-11.81,2.79-1.33,6.07-3.68,8.13,1.16.86,3.35-.14,6.55-1,9.73q-17.36,68.77-34,137.71C1323.16,1683.18,1322.5,1687,1319.48,1689.85Z" transform="translate(-49.26 -278.95)"/><path class="cls-20" d="M1466.57,1689.81c-2.75,5.43-3.14,11.52-4.92,17.21-1.13,3.61-1.17,7.61-3.74,10.72H1454c-2.38-6.62.93-12.74,1.78-19.06.4-2.93,1.13-5.81,1.12-8.8a12.59,12.59,0,0,1-.37-6.5c8.92-45.23,18.06-90.4,27.8-135.46.73-2,1.55-4,2.32-6a10.4,10.4,0,0,1,1.25-2.2c3.36-3.82,6.82-7.57,11.66-9.58,3-1.24,5.82-1.75,6.76,2.57.57,4-.76,7.63-1.69,11.34q-16.92,67.6-33.84,135.21C1469.89,1683,1469.51,1686.91,1466.57,1689.81Z" transform="translate(-49.26 -278.95)"/><path class="cls-15" d="M1309.69,1691.61c-.21,5.49-1.87,10.71-2.91,16.05-.67,3.44-1.64,7,1,10.16-13,.31-26.08.66-39.11-.2-2.28-9.91-9.81-13.65-18.64-15.88-.38-3.14-3.27-4.74-4.51-7.38-1.58-3.37-1.07-5.63,2.89-6.49,17.86-1.2,35.71-.5,53.55-.4C1305,1687.49,1308.93,1686.93,1309.69,1691.61Z" transform="translate(-49.26 -278.95)"/><path class="cls-21" d="M1767.55,1716.29a7.18,7.18,0,0,0,.3,1.6h-64.78a2,2,0,0,1,1-2.68c4.7-2.21,9.72-1.45,14.63-1.49q19-.13,38,0C1760.42,1713.77,1764.43,1713.25,1767.55,1716.29Z" transform="translate(-49.26 -278.95)"/><path class="cls-22" d="M1703,1716.35c0,.51,0,1,0,1.54l-13.57-.11a2.41,2.41,0,0,0-.13-1.43c-.49-1.88-.33-3.42,2-3.84C1695.11,1714.21,1699.71,1713.35,1703,1716.35Z" transform="translate(-49.26 -278.95)"/><path class="cls-14" d="M597,961.32c16,8.45,33.55,11.5,51.05,14.81,13.22,2.51,26.65,3.16,39.95,5,2.19,2.68,1.73,5.72.87,8.63-13.93,47-18.26,95.88-28.92,143.52-1.38,6.15-3.13,12.23-3.93,18.5-.58,2.59-2.31,4.77-2.56,7.48-2.67,11.57-5.85,23.13-11.45,33.53-13.8,25.62-19.45,53.71-26.17,81.51-4.41,18.2-7.64,36.65-11.4,55-.67,3.23-1.09,6.53-2.85,9.42-4.13,3.34-8.41,1.24-12.3-.24a14.2,14.2,0,0,0-8.61-.61c.59-11.68-3.07-22.82-4.44-34.25-4.28-35.7-3.26-70.8,10.62-104.62a9.47,9.47,0,0,1,.6-1.54c11.92-18.38,7.06-14,5.7-35.2-.79-12.34-1.67-24.7-2.27-37-1.88-39-3.5-78-4.64-117C585.82,991.78,588.45,975.77,597,961.32Z" transform="translate(-49.26 -278.95)"/><path class="cls-14" d="M767.61,1365.85c8.78.05,17.57,0,26.35.19,6.79.12,8.16,1.43,8.56,8.11.32,5.47.61,11,.55,16.44-.08,8.39-1.89,10.14-10.13,10.21-12.9.1-25.8.11-38.7.16-6.44,4-13.61,1.57-20.43,2.3q-70.63.24-141.26,0c-6.82-.84-14,1.81-20.48-2.37-12.87,0-25.75,0-38.63-.12-8.28-.07-9.43-1.26-9.54-9.55-.07-5.47-.11-11,0-16.43.15-7.12,1.63-8.68,8.75-8.77,13.15-.16,26.3-.14,39.45-.19,3.25-2.67,7.17-2.45,11-2.45,17.28,0,34.56-.2,51.84.11q35.58-.37,71.16,0c17.13-.33,34.27-.09,51.4-.12C761.06,1363.39,764.59,1363.59,767.61,1365.85Z" transform="translate(-49.26 -278.95)"/><path class="cls-13" d="M634.71,1365.84c-20.86.9-41.73.83-62.6,0-1.54-10.7,3.09-19.51,8.61-28,1.63-1.53,2.09-5.56,5.77-2.68,4.12,3.22,9.53,2.25,14,4.26a66.34,66.34,0,0,0,29.32,17.37C633.2,1357.74,636.26,1361.11,634.71,1365.84Z" transform="translate(-49.26 -278.95)"/><path class="cls-13" d="M572.07,1400.92l20,0c1.28,6.45.62,12.54-3.5,17.95-4.88-1.59-8.86-5.16-14-6.27-1.84-.4-2.31-2.13-2.67-3.77C572,1406.18,572,1403.55,572.07,1400.92Z" transform="translate(-49.26 -278.95)"/><path class="cls-12" d="M1238.53,1079q51.81.12,103.62.22c12.33,0,24.66-.16,37-.25a10.53,10.53,0,0,1,7.86,0c3.3.07,6.6.21,9.9.21h197.38c9.39,0,9.29,0,8.3,9.17q-3.57,32.76-7,65.55c-.62,5.87-.6,5.94-6.3,6.08-4.67.11-9.36.11-14,0-3.13-.07-4.38,1.3-4.58,4.37-.27,4.06.71,8.29-1.44,12.13a6.69,6.69,0,0,1-2.08-3.48c-2.91-10.52-2.91-10.56-14.31-10.57q-193,0-386,0c-5,0-9.92.35-14.82-.63-3.68-.84-5.44-3.63-6.12-6.93-2.74-13.11-12.17-20-23.08-25.87-4.92-2.63-11.06-3.59-13.94-9.32,4.79-12.54,6.53-25.67,7.47-39a3.83,3.83,0,0,1,1.71-1.93,130.86,130.86,0,0,0,19.8.16,17.38,17.38,0,0,0,12.75,0h69.48C1226.27,1078.17,1232.4,1077.41,1238.53,1079Z" transform="translate(-49.26 -278.95)"/><path class="cls-12" d="M1051.69,1685.22l-86.31-.14c-1.19-17.28-2.32-34.56-3.57-51.84-.74-10.14-1.77-20.27-2.48-30.41-2.43-34.57-4.72-69.15-7.16-103.72q-3.17-44.86-6.54-89.7c-2.5-33.18-5.14-66.35-7.64-99.53q-2.68-35.79-5.12-71.6c-.29-4.11-.19-8.25-.27-12.37,2.73-3.81,7-5.13,11.06-6.77,16-6.56,32.61-11.36,49-16.84,3.35-1.12,6.88-2.32,10.11.53,3,9.8,1.38,20.08,3.11,30.06,1,5.65,1.8,11.34,3,17,1,4.8,3.17,8.72,7.53,11.21,1.62,1.36,1.34,3.12,1,4.88-2.16,6.22-4.37,12.43-5.6,18.93-.75,2.26-1.18,4.6-1.77,6.9s-1.13,4.54-1.69,6.82a23,23,0,0,0-.93,7,24.51,24.51,0,0,1-.68,4.9c-4.91,17.9-10.56,35.58-16.08,53.29-3.47,11.13-3.32,11.34,7.28,15.66,3,1.23,6.26,2.18,7.55,5.73,3.56,17.83,4.54,36,7.11,54,9.43,65.67,18.35,131.41,31.75,196.43a73.53,73.53,0,0,0,2.29,9.62,41.28,41.28,0,0,0,1.73,3.77c3.46,8.42,5.09,17.32,6.6,26.22C1055.6,1678.91,1056.13,1683,1051.69,1685.22Z" transform="translate(-49.26 -278.95)"/><path class="cls-14" d="M714.53,1050.28c1.42,2,1,4.22,1.07,6.39,2.12,41,.5,81.88-7.49,122.33-3.08,15.59-1.59,31.31.07,46.87A890.17,890.17,0,0,0,727,1334.6c-4.93,5.42-12.29,2.85-18.07,5.49-2.09-.44-3.2-2-4.22-3.67-21.91-35.51-40.52-72.4-48.69-113.82-2.26-11.49-2.06-23-1.4-34.49.4-7.09.81-14.17.8-21.27,7.27-11,12.41-23.2,18.33-34.94Q694.3,1091.18,714.53,1050.28Z" transform="translate(-49.26 -278.95)"/><path class="cls-12" d="M927,1164.6c-6.88,0-13.76,0-20.64.08-3.38.07-4.86-1.13-5.17-4.68-1.57-17.78-3.35-35.55-5.06-53.32-.56-5.74-1.31-11.47-1.62-17.23-.27-5.27,0-5.37,5.48-5.6,1.93-.08,3.86,0,5.78,0q57,0,114,0c3.29,0,6.59-.29,9.88-.45,5.59,10.39-.05,18.94-5,27.21-3.12,5.16-8.18,9-13.57,11.83-11,5.83-15.48,15-15.09,27.12.14,4.1.47,8.25-.49,12.35-1.21,3.85-4.4,4.84-7.79,4.93-18.17.48-36.34.44-54.51,0A12.26,12.26,0,0,1,927,1164.6Z" transform="translate(-49.26 -278.95)"/><path class="cls-23" d="M993.87,1159.4c0-4.38-.22-8.76-.12-13.13.25-10.93,4.52-19.47,14.56-24.77,15.29-8.08,22.76-20.67,21.35-38.15a101.68,101.68,0,0,1,5.34-39.65c2.34-6.81,5.49-13.17,10.6-18.39,4.6-4.68,10.14-8.26,16.7-7.68,8.6.77,17.22.94,25.82,1.59,9.31.69,16.16,4.85,19.54,13.86a9.74,9.74,0,0,0,3.46,4.49c8.82,6.52,10.83,15.38,8.74,25.6-.72,3.48-1.65,6.92-2.48,10.38-5.49,1.43-5.43-3.21-6.55-6.21-1.63-4.35-1.62-9.21-3.75-13.43-1-1.92-1.68-4.49-4-4.89-2.78-.47-3.23,2.49-4.39,4.18-3.25,4.74-6.18,9.71-10.25,13.86a29.36,29.36,0,0,1-15.55,8.73c-6.82,1.31-8.73,5.43-6.66,11.36,3.21,9.19,2.47,18.33.79,27.59-.55,3-1,6-3.89,7.78-11,3.3-22.58,4.23-33,9.64s-17.41,13-19.91,24.6a182.52,182.52,0,0,0-4.32,30.87c-.13,3.12,1.32,7.52-4.05,8.29C999.28,1183.72,993.46,1172.24,993.87,1159.4Z" transform="translate(-49.26 -278.95)"/><path class="cls-13" d="M714.53,1050.28a24.73,24.73,0,0,1-3,10.93q-24.74,49.17-49.35,98.41c-1.28,2.53-1.65,6.06-5.51,6.49-3.11-1.84-3.46-4.84-3.37-8a9,9,0,0,1,1.41-4.93c-1.32-2.65-.53-5.22.08-7.91,6-26.3,11.69-52.68,15.14-79.46,3.4-26.33,10.76-51.76,17-77.44a37.62,37.62,0,0,0,1.11-7.26l17.83-1.17c3.36,15.72,5,31.68,6.67,47.63C713.3,1035.11,715.1,1042.6,714.53,1050.28Z" transform="translate(-49.26 -278.95)"/><path class="cls-15" d="M993.87,1159.4c2.61,12.18,9.08,23.45,8.53,36.36,2.58,4,2.73,7.9-.56,11.62-3.71-.48-7.05,1-10.4,2.14-19.74,6.65-39.66,12.81-58.84,21-1.41-2.79-1.18-5.83-1.39-8.82q-2.06-28.55-4.17-57.11,29.85-.07,59.7-.14C990.39,1164.46,994.18,1164.88,993.87,1159.4Z" transform="translate(-49.26 -278.95)"/><path class="cls-11" d="M1063,1121.14c3.33-9.72,4.47-19.6,2.14-29.72-.49-2.13-1.31-4.22-1.58-6.37-1-8.39-.51-9.53,7.61-11,9.1-1.62,15.39-6.87,20.37-14.09,3.54-5.13,6.76-10.49,10.26-16a23.05,23.05,0,0,1,9.47,15.3c.54,3,1.09,5.93,1.88,8.83.63,2.34,1.18,4.93,4.28,5.4,0,1.14.09,2.28.13,3.42-1.07,2.32-.35,4.78-.57,7.16-1.26,8.65-1.48,17.72-9.63,23.55-2.69,1-5.6.83-8.37,1.42a11.65,11.65,0,0,1-2.36.14c-7.64-.78-15.2-1.89-21.87-6.13-.62-.26-.65-1.41-1.59-1.19-.34.08,0,.16.69.37,1,.32-.37,0,.58.58,6.38,7.52,14.83,11.72,23.9,15a5.22,5.22,0,0,1,1,2.26,7.48,7.48,0,0,1-.5,3.8c-4.47,7.19-11.38,7.54-18.69,6.54-5.71-.78-11.2-2.29-16-5.76C1063.18,1123.69,1062.4,1122.64,1063,1121.14Z" transform="translate(-49.26 -278.95)"/><path class="cls-7" d="M788.7,977.82c6.47-.06,11.72-4.5,18.06-5,1.11-.79,1.61-2.81,3.62-1.8a1.46,1.46,0,0,0,1.53-1.3c4-3.34,8.24-2.21,12.37-.5,5.64,2.33,11.05,4.49,17.2,1.12,2.48-1.35,5.43-.79,6.8,2.49-1.46,7-8.36,8.87-12.65,13.2-1.41,1.44-3.13.38-4.68.06-8.6-1.79-15.12,2.17-18.39,9.23-6.1,13.17-13.55,25.78-17.25,40-1.51,5.79-2,11.28.06,16.91-19.11-3.91-28.09-24.81-20.41-40.92,4.7-9.88,8.31-20.27,12.41-30.43a2.92,2.92,0,0,0,.87-1.59A4,4,0,0,0,788.7,977.82Z" transform="translate(-49.26 -278.95)"/><path class="cls-13" d="M709.28,1339.79c.35-2.57,1.88-3.77,4.39-3.44,4.61.6,8.88-1.16,13.31-1.74,3.95,4.19,8,8.3,11.81,12.61,3.58,4.06,7.68,6.8,13.23,7.51a26.45,26.45,0,0,1,10.09,3.38c3,1.74,5.11,4.13,5.5,7.74-20.79.9-41.58.79-62.38,0-4.08-4.16-3-9-1.39-13.62C705.36,1348,706.19,1343.39,709.28,1339.79Z" transform="translate(-49.26 -278.95)"/><path class="cls-7" d="M972.31,1030.57c-24.21-9.77-48-10.32-71.09,3.34-5.48,1.76-9.16,6.56-14.48,8.59-3.75-7.48-2.28-12,5.57-15.6,7-3.21,14.64-4.42,22.09-6.08,8-1.79,16.27-1.64,24.49-1.92,16.49-.55,31.17,4.7,45.27,12.47a14.46,14.46,0,0,0,3.13.87c1.28,2.73,2,5.24-2.56,3.49C980.55,1034.12,976.93,1031.15,972.31,1030.57Z" transform="translate(-49.26 -278.95)"/><path class="cls-23" d="M987.2,1040.62c6,6.67,8.33,13.64,10.49,20.7,1.49,4.86-1.52,7.75-4.65,10.41s-7.78,2.46-11.37-.24c-3.3-2.48-5-5.87-3.93-10C979.64,1054.32,983.53,1048.07,987.2,1040.62Z" transform="translate(-49.26 -278.95)"/><path class="cls-13" d="M734.23,1400.87l20,.09c-.71,6.08,2.21,11.87,1.47,18-5.9-4.5-11.83-9-19.46-10.13C733.48,1406.68,733.18,1404,734.23,1400.87Z" transform="translate(-49.26 -278.95)"/><path class="cls-23" d="M1116.12,1083.44c.05-2.24-.58-4.63,1.39-6.47l.6,6.47-.56.45A1,1,0,0,1,1116.12,1083.44Z" transform="translate(-49.26 -278.95)"/><path class="cls-11" d="M788.24,979.29a1.26,1.26,0,0,1-.87,1.59A1.23,1.23,0,0,1,788.24,979.29Z" transform="translate(-49.26 -278.95)"/><path class="cls-12" d="M1309.46,637.3c-3-2-.12-6.18-3-8.22-3.23-2.35-3.28-6.19-4.42-9.5-7.1-20.77-29.25-35-51-32.76-24.26,2.52-41.84,19.25-44.86,42.43-1,7.88,2.17,15.2,2.49,22.88-.41,1.7-.59,3.62-3.12,3.33-14-26.48.1-66.43,37.23-75,33.31-7.72,60.48,14.63,65.24,40.25,1.56,2-.12,4.71,1.42,6.73Z" transform="translate(-49.26 -278.95)"/><path class="cls-12" d="M1263.25,691.87c.62.62,1.23,1.24,1.84,1.87-6.3,8.83-8.49,18.6-8.36,29.48.36,31.88.11,63.77.08,95.66a53.39,53.39,0,0,1-.25,6.58c-.21,1.69-1.7,1.89-3.14,1.85,0-31.08-.18-62.16,0-93.24a217.71,217.71,0,0,0-1.83-25.42c-1.07-1.58-.5-3,.4-4.43C1256.56,700.85,1256.44,693.2,1263.25,691.87Z" transform="translate(-49.26 -278.95)"/><path class="cls-12" d="M1253.43,705.08c-1.5.73-1.65,2.16-1.84,3.57-1-1-1.25-2.35-1.63-3.68-2.78-9.93-8.26-17.62-17.5-22.81-11.35-6.37-21.73-14-26.92-26.7,1.33-.72,1.48-2,1.59-3.32,2.55-.38,3.29,1.7,4.09,3.29,5.27,10.44,13.9,17.28,23.76,23,8.2,4.8,14.61,11.44,18.25,20.43C1254.05,700.94,1255,703,1253.43,705.08Z" transform="translate(-49.26 -278.95)"/><path class="cls-24" d="M1309.43,627.41c-2.24-1.87-1.33-4.41-1.42-6.73C1309.94,622.61,1309.59,625,1309.43,627.41Z" transform="translate(-49.26 -278.95)"/><path class="cls-4" d="M1238.53,1083.6a32.42,32.42,0,0,1-18.39,0c.52-17.21-1.48-34-7.9-50.14a65,65,0,0,0-4.62-8.73c-3.44-5.86-7.6-8.63-14.91-6.41-6,1.83-12.63,1.36-18.89.4-11.49-1.74-19.75-7.86-23.75-19.13a73.54,73.54,0,0,1-4.12-25.09c0-3.67,1.48-5.68,5-6.34,9.23-1.73,18.38-2.9,27.82-.88,11.12,2.38,17.87,9.17,21.64,19.42a56.47,56.47,0,0,1,3.46,21.86c-.13,3.19.37,5.81,3.33,7.83,10.13,6.89,16.68,16.59,21.25,27.78.28.68.75,1.29,1.91,3.25,15.26-45.68,19-91.05,11.54-137.4,4-3.48,8.72-2.61,13.31-2.21,3.83.33,5.91,2.27,5.63,6.46-.41,6.26.56,12.57-.57,18.81v16.17c5.18-3.36,8.8-8.1,14.3-9.9,1.73-.5,2.18.27,1.81,1.84-12.49,13.44-18.33,30.08-21,47.6-3.88,25.54-8.82,50.85-14.23,76.1C1239.83,1071,1238.35,1077.21,1238.53,1083.6Z" transform="translate(-49.26 -278.95)"/><path class="cls-5" d="M1296.46,860.47a117.44,117.44,0,0,1-3.34,28.13c-2.63-5.2-6.57-5.12-11.6-3.63-21.45,6.34-43,12.54-64.53,18.42-7-4.89-7-12.57-8.11-19.86,25.16-8.74,51.09-14.86,76.57-22.49C1289,860,1292.66,857.89,1296.46,860.47Z" transform="translate(-49.26 -278.95)"/><path class="cls-4" d="M1296.46,860.47c-23.68,6.65-47.33,13.44-71.08,19.85-5.37,1.46-10.5,4.75-16.5,3.21-.08-1.61-.16-3.22-.23-4.83.27-2.75,1.63-4.26,4.46-5.06q38.25-10.71,76.42-21.71c2.88-.83,5.65-2,8.47-3.07C1297.7,852.76,1299.15,856.89,1296.46,860.47Z" transform="translate(-49.26 -278.95)"/><path class="cls-4" d="M1217,903.39c.94-2.3,2.93-3,5.14-3.61,20.79-5.91,41.53-12,62.34-17.8,8.22-2.29,8.29-2,8.65,6.62a12.82,12.82,0,0,1-.15,1.52c-1,.91-1.94,2-3.25,2.43-19.83,5.81-39.29,13-59.77,16.47a2.28,2.28,0,0,1-1.46-.61C1224,908.34,1220.25,906.37,1217,903.39Z" transform="translate(-49.26 -278.95)"/><path class="cls-5" d="M1228.49,908.41q30.21-8.88,60.43-17.74a28.59,28.59,0,0,1,4-.55c-.08,12.76-13,18.72-22.22,19.77s-9,.89-9.2,10.45c-.1,4.25,1.19,8.71-1.3,12.73-.08-6-.29-11.93-.18-17.89.07-3.74-1.24-5.52-5.16-5.34-4.34.21-8.69.12-13,.16C1237.43,909.33,1232.65,911.46,1228.49,908.41Z" transform="translate(-49.26 -278.95)"/><path class="cls-10" d="M831.66,949.34c-7.61,1.81-12.75,7.25-18.11,12.36-1.81-.22-3.69-.25-4.82-2.05.95-6.4,5.7-8.75,11.12-10.37,8.29-4.82,16.7-9.2,26.78-8,.48,1.48,1.52,3.2-1.32,3.34a4.64,4.64,0,0,0-3.64,1.36C839.09,949.39,834.92,948,831.66,949.34Z" transform="translate(-49.26 -278.95)"/><path class="cls-11" d="M831.66,949.34c3-2.1,6.53-2.64,10-3.32,9.12-.39,17.79.71,25.06,7,2,1.77,4.33,3.27,5,6.11a23.82,23.82,0,0,1-4.68-1.34C856,952.07,844,950.16,831.66,949.34Z" transform="translate(-49.26 -278.95)"/><path class="cls-25" d="M876.51,995.87l3,3.17c.14,1.11.25,2.39-1,2.77s-1.81-.68-1.87-1.86C876.56,998.59,876.55,997.23,876.51,995.87Z" transform="translate(-49.26 -278.95)"/><path class="cls-26" d="M810.38,971c-1.21.58-1.84,2.34-3.62,1.8C807.33,970.9,807.62,968.45,810.38,971Z" transform="translate(-49.26 -278.95)"/><path class="cls-13" d="M711.09,743.11l4.71-3.58c1.14-1,.6-2.18.15-3.31.94-1.13,2.54-1.05,3.57-1.77,3.28-2.32,3.79.82,5.17,2.33-3.59,4.37-8.4,6.78-13.64,8.5A1.37,1.37,0,0,1,711.09,743.11Z" transform="translate(-49.26 -278.95)"/><path class="cls-13" d="M716,736.22c.93.2,2.45.06,2.47,1.06,0,1.31-1.34,1.94-2.62,2.25-.73-1.33-2.18-1.18-3.34-1.64Z" transform="translate(-49.26 -278.95)"/><path class="cls-13" d="M689.7,662.24c-.06.56-.11,1.13-.16,1.7l-3.15-.38C687.17,662.31,688.39,662.17,689.7,662.24Z" transform="translate(-49.26 -278.95)"/><path class="cls-13" d="M689.47,663.83l3.86,0-.49,1.63.08-.08C691.45,665.57,690.1,665.5,689.47,663.83Z" transform="translate(-49.26 -278.95)"/><path class="cls-13" d="M692.84,665.48l1.13.58c-1.07.94-.89-.14-1.05-.66Z" transform="translate(-49.26 -278.95)"/><path class="cls-13" d="M711.09,743.11c0,.72,0,1.44,0,2.17-.91,1.21-3,1.67-3.23.83C707.28,744,709.64,743.79,711.09,743.11Z" transform="translate(-49.26 -278.95)"/><path class="cls-12" d="M1309.69,1687c-2.39-2.78-5.64-1.69-8.53-1.7-18.72-.09-37.45,0-56.17,0-2.58.77-4.34-.77-5.65-2.46-8.38-10.81-17.74-21-21.47-34.74a1759.46,1759.46,0,0,1-46.31-173.82c-5.68-26.65-10.57-53.44-15.62-80.21-1.73-9.15.29-18-.43-26.89-1.56-19.17-4.4-38.24-6.28-57.39-.33-3.3-.9-6.56.31-9.77,3-3.9,5.18-.67,6.33,1.3,8.11,14,18.87,26.42,24.05,42a21.73,21.73,0,0,0,3.19,6.65c.67.87,1.19,2.21,2.19,2.39,10.26,1.76,10.27,1.73,14.21,10.13a3.16,3.16,0,0,0,1.48,1.86c4.2-7.76,3.08-16.87-4.59-22-9.19-6.16-13.38-14.71-16.36-24.7-3.47-11.56-7.41-23-11.65-34.32,1.46-5.11-.7-9.56-2.49-14.11-3.3-8.36-6.14-16.84-5-26.06.84-2.9,3.05-3.59,6.22-3.23-3-2.18-6.7-2.5-7.83-6.12-.67-2.48-1.18-5-1.9-7.47-2.5-14.07-4-28.29-6.53-42.36-.58-3.26-.85-6.55.52-9.74,2.27-3.64,6.05-3.2,9.56-3.58,35.92-3.87,72-3.73,108-3.27a980,980,0,0,1,274,42.53A73.88,73.88,0,0,1,1550,1212c6.38,2.66,12.37,3.47,17.38-2.61v11.32c-1.83,4.89.38,10.12-1.27,15l-.47,3.3c-3.67,3.48-8.3,2.4-12.58,2.41q-78.9.12-157.8.06c-12.72,0-12.94.32-16.22,12.57-22.3,83.2-45.18,166.24-67.41,249.46-2.76,10.34-2.48,10.43,8.24,10.83,8.16.3,16.52-1.71,24.47,1.71,3.58,8.1-1,14.9-3.52,22-3.74,12-5.38,24.45-7.92,36.7-7.06,34-13.73,68-20.8,101.94C1311.36,1680.15,1312.18,1684,1309.69,1687Z" transform="translate(-49.26 -278.95)"/><path class="cls-5" d="M1388.94,1009.13c-16.79-7.51-31.66-17.71-43.91-31.53-10-11.27-16.36-24.45-16.69-39.43-.24-11.21,2.19-22.46,8.82-32.09,10.81-15.71,23.27-30,38.57-41.52a111.67,111.67,0,0,1,15-9c2.15,4.11-.22,7.46-.17,10.82.24,16.24-.18,32.49.22,48.72A97,97,0,0,0,1394,937a28.93,28.93,0,0,0,1.68,4.64c1.26,2.81,2.79,5.87,6.27,5.78s4.69-3.3,5.51-6.31c.43-1.59,1.17-3.18,1.18-4.78.15-15.38.82-30.73-.93-46.13-1.59-13.89-2.75-27.82-5.3-41.59-.7-3.78,1.46-5.4,4.3-7,9.57-5.42,18.88-11.34,28.61-16.44,22.64-11.87,45.06-24.36,70.43-29.84a46.92,46.92,0,0,1,5.66-.89c.75-.06,1.55.41,2.91.82-2.12,5.17-4.15,10.2-6.23,15.22-7.8,18.78-15.4,37.63-20.59,57.36a43,43,0,0,0-1.2,10.6c0,1.87-.31,4.06,2.08,4.87a5.2,5.2,0,0,0,5.31-1.44,63.21,63.21,0,0,0,9.07-9.57c12.86-17.56,24-36.22,34.36-55.29,5-9.18,9.95-18.39,14.68-27.71,1.62-3.19,3.72-5.42,7.17-6.24,20.47-4.83,41.06-7.6,62-3.6,19.75,3.77,33.26,14.63,39.74,34.07,4.3,12.93,6.88,26,6,39.65a61,61,0,0,1-7.79,25.77c-5.82,10.58-15.87,12.75-26.32,14.49-20.84,3.46-41.77,6.37-62.27,11.64-4,1-8,2.15-11.55,4.31s-3.8,4.29-.53,7a25.65,25.65,0,0,0,10.3,5,189.24,189.24,0,0,0,31.58,5.45,125.75,125.75,0,0,0,43.79-4.46c2,1.95.39,3.67-.18,5.36-7.46,22-16.79,43-31.45,61.3-8.92,11.15-19.73,18.93-34.16,21.14-8.09,1.24-15.88-.75-23.7-1.93-14.63-2.2-27.67-8.91-40.72-15.39-10.33-5.13-21.09-7.89-32.67-6.85-8.5.76-16.88,2.17-24.88,5.3a19.7,19.7,0,0,0-5,2.8c-3.21,2.55-3.07,5,.51,7.13a23,23,0,0,0,11.88,2.87c11.29,0,22.59,0,33.88.08,7.45,0,14.75,1.41,22.07,2.48,13.65,2,24,10.54,34.75,18.12,3.12,2.21,6.47,4.22,8.81,7.41,3.68,5,3.23,9-1.63,12.83-4.17,3.29-9.14,5.07-14,6.83a192.94,192.94,0,0,1-49,10.38c-8.79.76-17.54,1.51-26.32,1.2-13.47-.47-26.78-2.08-39.69-6.4-8.28-2.78-15.54-6.89-21.44-13.37a30.76,30.76,0,0,0-3.79-3.09c-8.4-10.44-6.49-22.41-3.72-33.74,3.93-16,13.77-29.14,24.11-41.77,23.05-28.16,51.79-49.85,81.18-70.66a694.2,694.2,0,0,1,87.26-53c6.48-3.51,12.63-7.67,19.7-10,.28-.61,1-.13,1.39-.55-.79-.34-1.13.72-1.87.58-7,2.48-13.13,6.56-19.6,10-34.64,18.6-68.89,37.87-101.79,59.42-23.5,15.4-45.85,32.43-66,51.95-14.62,14.14-27.75,29.82-34.39,49.74C1392.6,1005.19,1392.05,1008.09,1388.94,1009.13Z" transform="translate(-49.26 -278.95)"/><path class="cls-19" d="M1344.18,1521.44c-10.18-.08-20.36-.11-30.54-.24-8.1-.11-8.08-.16-6-7.8q18-66.37,35.92-132.76,17.17-63.62,34.29-127.23c.14-.53.39-1,.55-1.56,2.31-8,2.31-8,10.51-8.06q82.57,0,165.15,0c3.86,0,7.71-.06,11.56-.09l21.79.14c2.2,3.2.66,6.42-.12,9.52-21.67,85.81-43.54,171.58-64.67,257.52-1.88,7.64-5.91,11.33-13.46,11.78a16.91,16.91,0,0,1-2.8.63,140.49,140.49,0,0,1-16.29.43q-64.35.67-128.68.06C1355.59,1523.42,1349.5,1525.27,1344.18,1521.44Z" transform="translate(-49.26 -278.95)"/><path class="cls-10" d="M1833.58,1256.86a9.48,9.48,0,0,0,1.84-5.31c1-16.41,2-32.82,3.26-49.21q1.68-22.53,5.49-44.83c3.75-21.91,14.14-40.13,30.68-54.9,2.86-2.56,5.83-5,8.74-7.5a5.2,5.2,0,0,1,1.42-1.64h0c16.14,1,30-6.59,44.56-11.64,5.49,1.44,8.49,5.9,11.62,10,12,15.57,18.56,33.59,22.94,52.44,6.58,28.29,8,56.9,5.75,85.91-1.88,24.66-.9,49.45-1,74.18-.06,21.14,1.25,42.31-1,63.42-.3,2.75-.39,5.49-1.8,8-5.36,7.84-13.9,7.61-21.58,7.14-15.34-.94-30.68-2.61-45.6-6.75-6.4-3-14.7-1.32-19.59-8,.33-4.55,4.32-6.06,7.18-8.44,25.69-21.36,44.3-47.19,51.36-80.43,5-23.75,4.06-47.47,0-71.2-.72-4.2-2.13-8.28-1.77-12.61-3,25.65-6.8,51-16.18,75.3-5.16,13.34-13.44,22.64-27.49,27.37-17.47,5.87-34.94,11.72-52.38,17.68a12.59,12.59,0,0,1-6.48.83c-6.17-.77-11.45,2.63-17.22,3.76-6.33,1.23-12.32,4-18.83,4.5-9.3,1-10.47-.16-13.2-12.66a7.93,7.93,0,0,1,.14-2.33c.8-1.16,1.33-2.38.58-3.82a4.12,4.12,0,0,1,.6-2.1c1.45-1.81,3.48-2.91,5.28-4.29,9.41-5.75,19.28-10.73,29.15-15.5,10-4.84,13.54-12.13,13.16-22.38A23.92,23.92,0,0,1,1833.58,1256.86Z" transform="translate(-49.26 -278.95)"/><path class="cls-23" d="M1879.76,1368c5.72,3.39,12.71,3.06,18.49,6.28,1,3.14-1.16,5.23-2.61,7.43a123.11,123.11,0,0,1-28.64,30.56c-4.79,3.64-10.45,3-15.56,4.76-3.83,1.35-4.72,5.64-7.76,7.79-17.28,7.31-33.45,16.14-44.34,32.22-3.52,5.19-6.9,10.49-7.67,17-.92,3.23-1.16,6.29.84,9.37,5.52,8.49,8.6,18.18,13.07,27.2,9.19,24.59,17.14,49.57,24.52,74.75,1.17,4,2,7.94,1,12.07-2.57,13.05-10.56,21.14-23.07,25.07-7.2,2.76-12.48.72-16.67-5.83-6-9.34-15.07-16.56-18.76-27.48-11.23-16-22.78-31.74-33.61-48-11.59-17.39-22.85-35-31-54.4-5-11.76-5.14-22.71,1.91-33.72a157.91,157.91,0,0,1,14.61-19.94c19.44-22,42-40.36,65.59-57.63,13.3-9.75,26.48-19.73,40.93-27.82a3.05,3.05,0,0,1,3.1-.23c13.27,8.24,28,12.94,42.61,18A5.88,5.88,0,0,1,1879.76,1368Z" transform="translate(-49.26 -278.95)"/><path class="cls-14" d="M1843.83,1423.8c1.11-3.75,2.46-7.31,6.6-8.78,30.15-3.48,60.42-1.6,90.64-2,3.27,0,6.64-.46,9.68,1.33,2.91,1.2,6,.7,9,.7q48.65,0,97.28,0c2.2,0,4.4,0,6.6.1,4.2.2,6.5,2.56,7.14,6.61a32.38,32.38,0,0,1,.47,4.9c0,11.81.14,23.62,0,35.43-.12,9.72-2.12,11.59-11.56,11.7-3,0-6,0-9.07,0-7.06,3.9-14.74,1.44-22.11,2.13q-59.18.27-118.34,0c-19.51-.7-39,.41-58.56-.41-3.91-.32-6.73-2.09-8-6-1.08-4.57.22-9.38-1.41-13.9a18.38,18.38,0,0,1-.64-2.83c-.67-7-.37-13.93-.34-20.9C1841.24,1429,1841.48,1426.05,1843.83,1423.8Z" transform="translate(-49.26 -278.95)"/><path class="cls-15" d="M1567.36,1214c-2.73,2.31-.66,5.85-2.44,9.09-6.87-.62-13.37-3.5-20-5.57-36.09-11.34-72.85-19.85-110-26.76-18-3.34-36.07-6-54.22-8.32-16.26-2.09-32.61-3.31-48.89-5.06-43-4.65-86.16-3.11-129.23-2.73-15.49.14-31.11,1.82-46.65,3a4.56,4.56,0,0,0-3.54,1.78c-5.65-4.1-5.55-9.32-2.93-15h408.35c12.18,0,11.31-1.18,11.28,10.92,0,1.92.09,3.85.15,5.78C1569.66,1192.17,1568.4,1203.1,1567.36,1214Z" transform="translate(-49.26 -278.95)"/><path class="cls-7" d="M1879.76,1368c-17.32-4.26-33.72-10.71-48.78-20.36-2.51-3.86-3.16-7.74-1.07-12.15,2.8-5.92,3.69-12.32,3.66-18.84,1.86-2.37,4.81-2.49,7.33-3.37,17.59-6.16,35.42-11.62,52.94-18,10.2-3.75,17.1-10,21.69-19.76,7.28-15.57,10.75-32.14,13.93-48.78,2.25-11.76,3.6-23.69,5.52-36.66,4.06,7.88,4.25,15.72,6.16,23.08,2.69,10.42,1.44,21.2,2.81,31.8.86,6.74-.52,14.16-1.46,21.15-2.33,17.45-7.21,34.23-15.86,49.76-5.63,10.1-12,19.62-20.13,27.9C1898.05,1352.28,1889.61,1360.9,1879.76,1368Z" transform="translate(-49.26 -278.95)"/><path class="cls-27" d="M1772.58,1589.1c6.89,8.82,14.23,17.34,20.5,26.58,3.92,5.77,8.05,7.5,14.27,4.86,2.2,9,4.49,18.1,1.37,27.42-8.13,14.32-19,26.69-28.44,40.11-1.45,2.07-3.52,3.56-6.35,2.14-2.11-7.28-6.81-12.15-13.79-15-7.23-2.94-11.62-1.6-16.18,4.72-2.43,3.38-3.67,8.22-9.14,8.32.28-5.35,3-9.91,4.87-14.73,10-26.44,20.28-52.81,30.48-79.19C1770.86,1592.55,1771.77,1590.85,1772.58,1589.1Z" transform="translate(-49.26 -278.95)"/><path class="cls-11" d="M1929.59,1081.82c-11.13,7.33-22.84,13-36.57,13.21a15.58,15.58,0,0,1-8-1.57c-.52-2.23-1-4.47-1.57-6.7,10.88-4.6,19.46-12.14,27.08-21.45-4.44,6-10.9,8.39-17.12,10.8a21.39,21.39,0,0,0-10.32,7.61c-1.68-2.07-1.36-5.88-5.95-5.33-4,.48-6.46-2.89-8.18-5.94-8.82-15.55-15.61-31.79-15.59-50.11.74-4.6,4.92-4.56,8-5.63a56.4,56.4,0,0,1,18.49-3.23c6.3,0,11,2.06,14.38,7.57,3,4.75,5.72,10.51,13.35,7.31,1.59-.67,3.88.51,4.07,2,1.12,8.42,8.48,15.58,5.07,24.88C1919.32,1064.89,1923.91,1073.62,1929.59,1081.82Z" transform="translate(-49.26 -278.95)"/><path class="cls-13" d="M1916.77,1055.19c-.35-4.39-.87-8.8-3.69-12.38-2.15-2.71-1.34-5.71-1.51-8.63-.11-1.67-.3-3.4-1.92-4.27-2-1.08-3,.53-3.84,1.88-2,3.34-3.93,1.75-5.88,0-3.24-3-6.4-6.14-8-10.25-2.07-5.3-5.92-6.55-11-6.27a70.2,70.2,0,0,0-27.5,7.11,26.43,26.43,0,0,1-14.79-6.59c-1.64-1.43-2.56-3.13-.54-4.82,6.57-5.47,11.22-12.75,17.71-18.34,19.28-16.61,40.57-14.87,60-2.41,7.16,4.61,10.9,11.48,10.51,20.2-.44,9.87-.8,19.74-1.58,29.58C1924.17,1046,1923.29,1052.13,1916.77,1055.19Z" transform="translate(-49.26 -278.95)"/><path class="cls-4" d="M1597.23,842.22A834.45,834.45,0,0,0,1490,910.73c-18.2,13.64-36,27.89-51.33,44.76-13.3,14.6-26,29.75-32.45,49a50.16,50.16,0,0,0-.09,32.25c.42,1.3.73,2.63,1.1,4-10,12.78-15.49,27.7-20.2,43a8.16,8.16,0,0,1-7.86,0c8.4-22.33,11.62-45.51,11.27-69.26-1.16-1.54.1-3.76-1.47-5.18h0c4.75-13.53,10.13-26.81,19.78-37.69,8-9,15.65-18.13,24.7-26.3,20-18.1,41.57-34.07,64-48.86,20.87-13.74,42.54-26.2,64.49-38.18,11.11-6.07,22.42-11.72,33.67-17.51C1597.36,839.94,1597.64,840.74,1597.23,842.22Z" transform="translate(-49.26 -278.95)"/><path class="cls-27" d="M1950.75,1414.32a25.42,25.42,0,0,1-4.8.93q-47.76-.06-95.52-.23c.22-.16.45-.45.67-.45,15.26.11,23.71-10.94,32.68-20.57,5.52-5.94,9.69-13.13,14.47-19.76,8.38,1.4,16.72,3.22,25.15,4.11,10.6,1.13,21.17,3.32,32,1.26a27.86,27.86,0,0,0,10.71-3.9c.23,9.6-4.38,17.64-8.4,25.86C1955.56,1405.92,1952.07,1409.53,1950.75,1414.32Z" transform="translate(-49.26 -278.95)"/><path class="cls-14" d="M2088.37,1716.24l-6.66,0c-2.56-2.4-3.32-5.59-4-8.85-15.44-72.05-30.51-144.17-45.9-216.23-.68-3.2-1.65-6.42-.9-9.77,1.92-4,5-2.14,7.85-1.53,4,.86,7.54,3.43,11.83,3.26,1.53,8.55,3.17,17.1,4.58,25.68,2.57,15.65,4.94,31.34,7.49,47,3,18.36,6.09,36.7,9.13,55.05,3.66,22.13,7.55,44.23,10.87,66.4C2084.59,1690.26,2087.87,1703.05,2088.37,1716.24Z" transform="translate(-49.26 -278.95)"/><path class="cls-5" d="M1471.47,680.61c4.5,3.86,3.8,9.62,4.45,14.45,1.42,10.61,1.41,21.32-1.82,31.84-4.11,13.41-12.73,22.13-26,26.42a100.09,100.09,0,0,1-34.93,4.52c-2.55-.09-5-.25-6.2-3.05,5.75-10.08,14.47-17.76,21.85-26.5,12.38-14.63,24.84-29.21,37.71-43.43C1468,683.22,1469.37,681.5,1471.47,680.61Z" transform="translate(-49.26 -278.95)"/><path class="cls-4" d="M1471.47,680.61c-2.82,7.13-9,11.81-13.77,17.25-8.88,10-17.6,20.27-26.27,30.48-5.29,6.25-11.54,11.69-16.08,18.65a22.79,22.79,0,0,1-8.37,7.8,79.85,79.85,0,0,1-1-44.63c3.74-13.77,13.64-22.2,27.11-26.54C1445.65,679.56,1458.52,679.61,1471.47,680.61Z" transform="translate(-49.26 -278.95)"/><path class="cls-13" d="M1734.82,1688.26c3.87-2.45,5.63-6.56,7.92-10.23,3.75-6,7.56-7.84,14.4-6.06,5.64,1.47,10.34,4.84,14.92,8.32,3.5,2.66,1.71,6.58,2.38,9.92,2.07,9.6,1.08,18.53-5.83,26.14l-.52-.12-.54.06-64.51.06c-2.67,0-5.34-.09-8-.07-2.35,0-3.27-1.39-3.64-3.43-.58-2.27,0-3.91,2.44-4.54a66.11,66.11,0,0,1,11.47-4C1716.39,1701.44,1727,1697.31,1734.82,1688.26Z" transform="translate(-49.26 -278.95)"/><path class="cls-20" d="M1508,1521.29c.67-.47,1.38-1.41,2-1.34,6.67.75,8.62-2.78,10.11-8.82q21.77-88.43,44.2-176.69c7.62-30.23,15.42-60.41,23.15-90.62,6,.54,6.13.57,4.59,6.71-5.64,22.52-11.43,45-17,67.55-1.76,7.13-4.52,14.1-4.34,21.63-1.86,17.67-8.78,34.28-10.8,51.93-2.76,4.86-1,10.2-1.63,15.28-.39,3.32.76,7.35-3.77,9-3.4-3-.68-6.7-1-10.59a131.18,131.18,0,0,1-3.54,21c-7.21,28.54-14.23,57.12-21.45,85.66C1525.36,1524.14,1519.68,1526.66,1508,1521.29Z" transform="translate(-49.26 -278.95)"/><path class="cls-7" d="M1833.58,1256.86c4.19,10.25.86,21.54-8.18,26.47-11.58,6.3-23.32,12.29-35,18.42A47.45,47.45,0,0,1,1782,1304c-2.87-.5-4.7-2.31-6-4.74-1.83-4.78-3.63-9.56-.26-14.42-.15-3.17,1.48-4.88,4.38-5.93C1798.25,1272.37,1815.81,1264.37,1833.58,1256.86Z" transform="translate(-49.26 -278.95)"/><path class="cls-28" d="M1785.43,1309.47c.65,2.3,1.35,4.58,2,6.89,1.92,7.41,2.37,7.8,10.14,8.51-8.13,2.35-16.67,1.89-24.88,3.81a46.25,46.25,0,0,1-24.37-.93c-6.54-2-13-4.41-17.4-10.24-2.67-2.35-3.67-5-1.45-8.2,2.31-1.61,4.86-1.49,7.46-1a27.39,27.39,0,0,0,5.75,1.08c2.39.21,4.79.51,7.18.81,2.08.27-.79-.51-.1-.93,1.81-5.71,9.11-8.24,16.51-5.8a16.94,16.94,0,0,1,6.13,4c2.82,3.72,6.34,2.59,9.87,1.4A3.82,3.82,0,0,1,1785.43,1309.47Z" transform="translate(-49.26 -278.95)"/><path class="cls-29" d="M1775.71,1284.85c-.48,5.14,1.3,10,1.79,15-2,3.18-5.22,3.92-8.55,3.84-14-.31-27.68,1.24-41,5.93-3,1-5.92.91-8.44-1.37-1.58-2.19-.72-4.18.62-6,1.62-2.2,3.44-4.25,5.07-6.45,8-10.82,18.59-14.59,31.69-11.78A55.06,55.06,0,0,0,1775.71,1284.85Z" transform="translate(-49.26 -278.95)"/><path class="cls-30" d="M1559.14,1390.91c-.52-3.19-1-6.19-.07-9.58,3.24-11.85,5.88-23.86,9-35.75.52-2,.66-4.42,2.63-5.87q4.26,22.18,8.53,44.37a19.79,19.79,0,0,1-3.12,11.56,59.07,59.07,0,0,0-7,17.39c-.67,2.59-1,5.4-3,7.46A39.1,39.1,0,0,1,1559.14,1390.91Z" transform="translate(-49.26 -278.95)"/><path class="cls-13" d="M1729.85,1310.31c-.44,2.51.56,4.82,1,7.2-8.8.21-17.61.48-26.41.59-7,.09-7.13,0-9.32-6.67q-11-33.71-21.88-67.44c-2.37-7.32-4.66-14.67-7-22-.6-1.83-1.43-3.58-1.28-5.57a2,2,0,0,1,1.22-1.89,1.64,1.64,0,0,1,2.07.87,70.27,70.27,0,0,1,2.7,6.89q13.17,40.37,26.3,80.74c.76,2.31,1,4.89,2.85,6.78a56.24,56.24,0,0,0,21.48,0C1724.37,1309.29,1727.23,1307.78,1729.85,1310.31Z" transform="translate(-49.26 -278.95)"/><path class="cls-31" d="M1729.85,1310.31c-8.19.29-16.37.62-24.57.84-1.81,0-3.88.74-5.2-1.32h14.37c1.85,0,3.77.15,5.11-1.54a34.28,34.28,0,0,0,21.21-4.8c2.71-1.6,5.57-2.63,8.57-1.7,9.67,3,18.89.33,28.16-1.9,1.61.95,2.55,2.94,4.72,3,2-.57,3.81-.85,3.83,2.13a2.59,2.59,0,0,0-.06,1.46,1.36,1.36,0,0,1-.13,1.71,6.22,6.22,0,0,0-.43,1.28l-2.68.27c-3.48,1.19-7,2.11-10.46.07-5.83-6.7-13-5.54-20.32-3.44-1.87.53-1.65,1.8-1.29,3.18-2.3,2.14-5.12.61-7.66,1.08-1.76-.1-3.58.3-5.27-.55Z" transform="translate(-49.26 -278.95)"/><path class="cls-32" d="M1883.1,1083.72c-.56-4.56,1.54-6.77,5.92-8.11,8.36-2.56,16.23-6.27,22.76-12.84-2.41,10.8-17.3,23.25-28.32,24Z" transform="translate(-49.26 -278.95)"/><path class="cls-13" d="M2050.57,1483.15c-.5,1.85-1,4-3.59,2.37-4.56-2.92-9.75-4-14.83-5.5q-4.37-1.69-3.43-6.28a144.88,144.88,0,0,1,21.85.08C2049.77,1476.93,2050.4,1480,2050.57,1483.15Z" transform="translate(-49.26 -278.95)"/><path class="cls-18" d="M1693.83,1708.31l-2.44,4.54c-1.38.75-1.4,2.3-2,3.5-.39-.06-.78-.14-1.17-.23a11.36,11.36,0,0,0-.49-2.36c-.91-2-1.69-4,.23-5.94C1690.09,1705.69,1691.9,1707.79,1693.83,1708.31Z" transform="translate(-49.26 -278.95)"/><path class="cls-33" d="M1566.08,1240.38c-.11-5.05-.92-10.17,1.27-15C1567.23,1230.39,1568.73,1235.56,1566.08,1240.38Z" transform="translate(-49.26 -278.95)"/><path class="cls-4" d="M1276.36,941.17l-1.81-1.83a11,11,0,0,1,7-3q.71.62.42,1.17c-.18.36-.35.54-.52.54Z" transform="translate(-49.26 -278.95)"/><path class="cls-4" d="M1281.41,938c0-.57.07-1.14.1-1.71.76-1.24,2.8-1.95,3-1.15C1285.26,937.43,1282.58,937.11,1281.41,938Z" transform="translate(-49.26 -278.95)"/><path class="cls-34" d="M1388.94,1009.13c2.06,1.27,1.71,3.24,1.47,5.18C1388.93,1012.86,1389,1011,1388.94,1009.13Z" transform="translate(-49.26 -278.95)"/><path class="cls-11" d="M1885,1093.47a1.85,1.85,0,0,1-1.42,1.64Z" transform="translate(-49.26 -278.95)"/><path class="cls-27" d="M1844.42,1468.07c1.16,2.55,2.32,5.1,5.55,5.6,4,1.23,8.13.45,12.2.56,8.28.23,8.81,1.14,4.89,9.1q-6,35.64-11.92,71.28c-1.55,9.17-3.31,18.3-5,27.45-2.55,6.89-5.26,13.69-10.86,18.83-4,.79-6.71-2.78-10.36-3.26,0-3.18,1-6.13-.11-9.58-6-18.16-11.59-36.48-17.29-54.75-2.44-7.8-6.8-15-7.57-23.31-1-1.6-.48-3.34.1-4.72,6.28-14.84,10.31-30.65,19-44.48,6.51-3.4,12.82-7.56,20.78-5.67l-.1,0C1845.23,1459.36,1844,1463.76,1844.42,1468.07Z" transform="translate(-49.26 -278.95)"/><path class="cls-18" d="M1768.61,1716.35c3.44-8.38,4.22-17.35,5.83-26.14,3.22-.41,4.19-3.28,5.78-5.4q13.52-18,26.93-36.13c3.3,3.53,1,7.27.26,10.86-.87,4.54-2.22,9,.39,14.14,4.37-2,5.61-6,7.46-9.4,7-12.72,14.12-25.39,21.42-37.94,1.45-2.49,2.32-5.74,5.91-6.31,3,5.82-.37,11.41-1.14,16.89-3.27,23.31-7.37,46.5-11.18,69.73-.17,1.08-.49,2.14-.76,3.21-1.59,6.41-1.59,6.5-8,6.52C1803.88,1716.41,1786.25,1716.37,1768.61,1716.35Z" transform="translate(-49.26 -278.95)"/><path class="cls-13" d="M1842.59,1620q-16.38,28.85-32.76,57.74c-6-4.33-7.38-8.12-5.46-15.54,1.16-4.48,3.05-8.79,2.78-13.56,1.84-7.64.83-15.23-.65-22.76-.41-2.07-.44-3.73.85-5.37,11.93-3.18,18.74-11.19,21.6-22.92,1.66-1.68,3.32-2.43,5.4-.47a47.42,47.42,0,0,0,4.38,3.31c4,.48,6.22,2.74,6.64,6.75C1846.63,1612,1844.43,1616,1842.59,1620Z" transform="translate(-49.26 -278.95)"/><path class="cls-27" d="M1906.66,1475.12l-23.37,29.68c-3,.17-2.57-1.49-1.77-3.34l1.92-13.1c-1.29-11.91.57-14.19,12-14C1899.21,1474.36,1903.05,1473.39,1906.66,1475.12Z" transform="translate(-49.26 -278.95)"/><path class="cls-13" d="M1906.66,1475.12c-4.63,0-9.29.19-13.89-.2s-6.2,1.85-7.24,5.73c-.68,2.57.18,5.58-2.09,7.7-5.19-2.57-10.11-6-16.38-5,.14-2.43.29-4.85.44-7.46-5.63-2.53-12,1.08-17.53-2.2,19.94-.38,39.89-.53,59.83,0Z" transform="translate(-49.26 -278.95)"/><path class="cls-35" d="M1845.37,1607.21l-6.64-6.75c3.82-6.13,6.85-12.75,11.44-18.4C1849.23,1590.57,1848.64,1599.14,1845.37,1607.21Z" transform="translate(-49.26 -278.95)"/><path class="cls-27" d="M1881.52,1501.46c.23,1.31.37,2.66,1.77,3.34a9.34,9.34,0,0,1-3.34,4.94C1880.14,1506.92,1879.22,1503.89,1881.52,1501.46Z" transform="translate(-49.26 -278.95)"/><path class="cls-10" d="M1253.43,705.08a37.58,37.58,0,0,0-19-24.59,61.85,61.85,0,0,1-27.29-28.35c-2.12-9-4.32-17.92-2.22-27.52,4.33-19.68,16.33-31.9,35.15-37.64,25.46-7.77,51.81,4.16,62.47,27.87,2,4.55,3,9.39,3.91,14.23-.88,4.39.94,9.09-1.55,13.29-4.42,8.37-8,17.21-13.39,25.06-3.88,5.46-9.24,9.19-14.79,12.73-5.07,3.22-10.19,6.4-13.46,11.71C1258.71,695.33,1258.12,701.73,1253.43,705.08Z" transform="translate(-49.26 -278.95)"/><path class="cls-10" d="M1291.5,667.43c3.28-9,6.21-18.16,13.39-25.06-.58,8.92-5.74,15.81-10.21,23Z" transform="translate(-49.26 -278.95)"/><path class="cls-12" d="M1207.39,1673.78c-1.94,5.16-4.05,10.29-3.37,16q-61.47,0-122.94.14c-2.93,0-7-1.69-8,3.33-3.77-.46-3.46-3.73-4.09-6.18a46,46,0,0,1-1.45-16.24c.87-8.27-.74-14.84-9.58-17.7a3.59,3.59,0,0,1,3.47-3c9.51-.38,10.3-7,10.82-14.26,2.85-39.46,3.11-79,3.64-118.5.31-23.25,1.71-46.62,5.45-69.68,4.78-6.3,5.65.24,6.72,2.49,6.34,13.41,12.29,27,18.77,40.36,13.13,27,20.7,56.23,32.74,83.68,11,25.06,25.3,48.12,41.32,70.24,3.79,5.22,9.07,6.69,14.59,8.3C1199.64,1659.63,1207.21,1664.62,1207.39,1673.78Z" transform="translate(-49.26 -278.95)"/><path class="cls-28" d="M1058.18,1653.16c11.73.66,11.77.66,11.69,13,0,9.17-.3,18.35,3.2,27.1-.42,1.55-.85,3.1-1.27,4.65-7.66,6.49-10.62,6.49-20.25,0q.06-4,.14-8c3.75-6.48.25-12.78-.71-19-.89-5.87-2.72-11.6-4.14-17.39C1050.56,1650.64,1054.34,1650.7,1058.18,1653.16Z" transform="translate(-49.26 -278.95)"/><path class="cls-36" d="M1207.39,1673.78a58.68,58.68,0,0,0-7.86-12.08,18.88,18.88,0,0,1-4.19-7.69c2-3.12,5.32-2.57,8.33-2.88,5.47.27,11.17-1.28,16.29,2,5.14,14.43,14.47,26,25,36.75,1.46,3.47,3.88,6.22,6.47,8.89,1.91,2,.25,2.53-1.38,3-5.66-.33-9.5-3.8-13.08-7.64-5.22-5.61-10.46-11.2-16.88-15.46C1216.27,1676.08,1212.4,1673.38,1207.39,1673.78Z" transform="translate(-49.26 -278.95)"/><path class="cls-12" d="M1360.93,1521.41l130.37,0c2.77,7.18-.46,13.39-3.14,19.7h0c-1.54,1.33-.31,3.48-1.45,4.93q-14.28,70.83-28.6,141.67a8.11,8.11,0,0,1-1.19,2.11l-137.44,0c2.11-12.75,5.86-25.11,8.93-37.63,9.41-38.39,19-76.73,28.54-115.1a56.83,56.83,0,0,0,.8-5.71C1357.84,1527.77,1357.1,1523.87,1360.93,1521.41Z" transform="translate(-49.26 -278.95)"/><path class="cls-12" d="M1554.48,1415.65l-17.94,274-70,.16c1.8-13.37,6-26.2,9.16-39.25,9.28-37.87,18.87-75.66,28.3-113.49a51.44,51.44,0,0,0,.81-5.7c.16-3.62-.56-7.52,3.21-10l-.09-.11c5.16-.2,11.27,1.86,15.18-1.33,3.56-2.91,3.17-9,4.37-13.77,8.6-33.92,17-67.88,26.46-101.84Z" transform="translate(-49.26 -278.95)"/><path class="cls-37" d="M1360.93,1521.41c-1.2,3.29-1.09,7-3.19,10-4.39-1.78-7,1.61-9.73,3.76s-4.83,5-7.22,7.56c-.09-7.29,2.91-14.09,3.39-21.29Z" transform="translate(-49.26 -278.95)"/><path class="cls-38" d="M1508.05,1521.4c-1.21,3.27-1.06,7-3.21,10-4.44-1.64-6.94,1.84-9.87,3.9-2.45,1.71-4,4.55-6.81,5.89-.45-6.8,2.24-13.11,3.14-19.7Z" transform="translate(-49.26 -278.95)"/><path class="cls-38" d="M1486.71,1546.09c-.2-1.84-.38-3.68,1.45-4.93C1488.17,1543,1488.43,1544.81,1486.71,1546.09Z" transform="translate(-49.26 -278.95)"/><path class="cls-39" d="M654.69,1157.91h-3c-.39-2.43.32-4.19,3-4.75C654.68,1154.75,654.68,1156.33,654.69,1157.91Z" transform="translate(-49.26 -278.95)"/><path class="cls-13" d="M1149.49,1164.44c.61,5.08.92,10.22,2.93,15,.89,14.15,4.21,28,5.64,42,.36,3.52.91,7,1.38,10.52.39,1.57-.49,2.24-1.82,2.61-.26,0-.63.09-.79,0-9.66-8-20.33-8.49-31.65-4.29a5,5,0,0,1-3.89-3.27c-1.9-8.69-.8-17.55-1.26-26.31-1.16-22-10-41.55-17.44-61.62-2-5.38-4.78-10.57-4.59-16.57.16-.82.33-1.64.49-2.46,2.51-1.11,4.45.54,6.57,1.33a18.16,18.16,0,0,1,1.68.91,12.85,12.85,0,0,1,3,2.28c3.18,1.61,6.31,3.33,9.54,4.81C1134.71,1136.47,1147.06,1146.17,1149.49,1164.44Z" transform="translate(-49.26 -278.95)"/><path class="cls-23" d="M1109.7,1124.61a3.42,3.42,0,0,1-3.49-1.38,4.27,4.27,0,0,0,1.14-2.16,4.33,4.33,0,0,1-1.22,2.09c-2.82-.35-5.18-1.83-7.64-3.07l-.77-1.83c-2.21-3.38-2.57-6.69.33-9.9h0c2.51-2.07,5.83.15,8.4-1.61,5-3.64,5.81-9.46,7.64-14.71a82.26,82.26,0,0,0,2.08-8.6,3,3,0,0,1,1.43.45,83.23,83.23,0,0,1-3.9,32.78A30.54,30.54,0,0,1,1109.7,1124.61Z" transform="translate(-49.26 -278.95)"/><path class="cls-14" d="M1220,1653.11l-16.28.11a12.29,12.29,0,0,1-5.39-5c-25.32-37.85-48.25-77-62.12-120.67-5.82-18.34-8.81-37.45-15.22-55.7a531.4,531.4,0,0,0-31.83-72.27c-3.14,13-1.23,26.31-3.77,39.21-.48,2.42-.33,5-2.09,7-4.31,42.11-5,84.35-5.54,126.63-.33,24.67-1.35,49.37-4.13,74-.5,4.46-1.89,6.36-6.51,6-2.94-.2-6-.75-8.9.72l-11.34.25-1.62-1.49c6.29-1.88,6.47-5.29,4.8-11.44-8-29.26-12-59.3-16.43-89.24-5.45-36.74-10.71-73.51-15.09-110.38-1.56-13.15.2-26.48,7-38.37,2.5-4.37,1.17-5.41-3-6.59-6.26-1.74-13.2-1.89-18.31-6.79-4.82-2-9.53-4.21-14.47-5.8-4.16-1.34-4.82-3.49-3.59-7.4,5.67-18.07,11.1-36.21,16.76-54.28.73-2.31.53-5,2.43-6.89,6-4.85,12.85-8.37,18.86-13.19,10.68-8.56,18.46-19.18,24.68-32.73-10.51.47-20,3.08-29.41.6a6.13,6.13,0,0,1-2.76-2.06c-5.92.09-7.86-4-9.22-8.72-3.37-11.65-4.33-23.66-5.09-35.67-.34-5.19-.34-10.39-.5-15.59q.28-5.81.56-11.61c1.85-3,1.08-6.42,1.23-9.66a154.83,154.83,0,0,1,5.49-34c2.57-9.35,8.65-15.72,16.88-20.34,11.49-6.44,24.08-9,37-10.6.56.64,1.12,1.29,1.69,1.93a36.72,36.72,0,0,1,6.91,11.12c4.46,10.37,8.34,21,12.81,31.35,7.05,16.37,9.71,33.15,6,50.78-1.17,5.64-1.34,11.47-2.82,17.06-3.47,5.38-9,4.18-14,4.17-4.46,0-6.85,1.09-5.6,6.07.26,1,0-.29.1.8.31,4.57-3.77,9.85-.64,13.29,2.83,3.12,8.24-.57,12.53.19a3.38,3.38,0,0,1,2.58,1.72c1.51,4.15,0,8.17-.59,12.18-2.19,13.81-4.76,27.56-6.82,41.39-1.19,7.92-.45,8.75,7.17,9.07a117.56,117.56,0,0,0,31.06-2.72c5.39-1.21,7.67-3.93,7.37-9.79-.85-17-.25-34-.33-51,0-3.27-.19-6.61,1.41-9.66,10.29-5.36,20.51-11,32.84-8.67,3.46,1.07,7.12,1.94,7.48,6.56a87.51,87.51,0,0,0,8.55,32.86c1.52,3.23,2.33,6.12-1.31,8.44-1.62,4-5.52,5.2-8.95,6.49a16,16,0,0,0-9.34,8.35c0,14,2.52,27.88,3.82,41.81.91,9.83,2.51,19.6,3.78,29.4.14,1.09.62,2.67.1,3.21-5.23,5.48-1.88,11.58-.93,17.13a1872.54,1872.54,0,0,0,46.45,205.55C1209.38,1617.89,1214.73,1635.48,1220,1653.11Z" transform="translate(-49.26 -278.95)"/><path class="cls-13" d="M1004.15,1389.11l28.6,7.05c-12,14.9-13.55,31.31-11.3,48.62,1.37,10.56,2.47,21.15,3.8,31.72,1.12,8.94,1.91,18,3.71,26.76,2,9.93,2.67,20,4.35,30,2.71,16.14,4.3,32.48,7.07,48.61,3.25,18.83,6.21,37.74,11.23,56.23,1.14,4.21,2.48,8.36,3.87,13-3.33,1.42-6.89.4-10.26.83-3.56-5.46-3.49-11.93-4.64-18-8.46-44.46-16.25-89-22.24-133.9-4-29.9-8.38-59.75-12.42-89.64C1005,1403.37,1004.72,1396.22,1004.15,1389.11Z" transform="translate(-49.26 -278.95)"/><path class="cls-13" d="M1018.79,1268.58c.25-.13.5-.38.73-.36,10.23,1,20.37-1.24,30.65-1.41.79,6.69-3.5,10.73-6.21,15.23-9.1,15.1-22.15,25.88-38.1,33.23-.09,0-.38-.34-.58-.53l.42-4.59c.69-2.49.51-5.23,2.13-7.45.12-1.5-.12-3,.41-4.51,1.94-2.56,1.45-6,3-8.67a105.6,105.6,0,0,1,4.95-17.08C1016.7,1270.92,1017.3,1269.45,1018.79,1268.58Z" transform="translate(-49.26 -278.95)"/><path class="cls-40" d="M1085.7,1234q2.05-16.31,4.1-32.6c.92-7.23-.32-14.12-2.65-21-6.06-17.92-13.52-35.28-20.84-52.7-.63-1.5-1.11-3.07-1.66-4.61,5.66,2.6,11.32,5.22,17.69,5.6,6.18.36,11.94-.24,15.66-6.12,9.27,20.24,17.53,41,22.65,62.58,3.21,13.57,1.89,27.91,1.82,41.93-6.9,3.19-12.27-2.66-18.33-2.64,3.8,1.28,8.21,2,12.14,4,2.27,1.13,5.84,2.49,1.33,5.53C1107,1236.81,1096.34,1238.23,1085.7,1234Z" transform="translate(-49.26 -278.95)"/><path class="cls-41" d="M1098.05,1108.36l-.33,9.9c-11-1.38-19.73-6.11-24.56-16.61h0Z" transform="translate(-49.26 -278.95)"/><path class="cls-41" d="M1106.4,1106.75c-2.41,2.57-5.58,1.16-8.4,1.61C1100.34,1105.41,1103.55,1107,1106.4,1106.75Z" transform="translate(-49.26 -278.95)"/><path class="cls-41" d="M1073.16,1101.65c-.23-.13-.68-.31-.67-.38.14-.56.39-.43.67.38Z" transform="translate(-49.26 -278.95)"/><path class="cls-11" d="M1151.06,1303.13c-.67-6.71-.61-6.53,5.62-8.94,4.34-1.67,8.45-3.91,12.67-5.89,2.9,1.4,3,4.42,3.9,6.93,3.56,10.36,7.55,20.63,10.27,31.21,2.06,8,6.36,13.82,13.2,17.78,9.51,5.49,10.28,19.63,7.17,27.19-.42,1-.7,2.18-2,2.2a2.78,2.78,0,0,1-2.52-1.8c-1-2.24-1.88-4.54-2.8-6.82-2.21-5.41-2.73-6-8.4-9.28-1.08.88-.66,2-.37,3s1,2-.49,3.44c-2.93-2.93-7.06-5.46-8-9.52-3.16-14.13-12.74-24.65-19.54-36.73C1157.25,1311.39,1155.19,1306.55,1151.06,1303.13Z" transform="translate(-49.26 -278.95)"/><path class="cls-42" d="M1162.11,1247c-1.22-2.91-4.43-3.08-6.53-4.77-.71-2.5,1.3-3,2.83-3.85a2.21,2.21,0,0,1,2,.42c3.39,2.76,8.79,2.26,11.25,6.61C1168.82,1249.29,1164.82,1243.72,1162.11,1247Z" transform="translate(-49.26 -278.95)"/><path class="cls-43" d="M1160.42,1238.79l-.67,0c-2.47-.83-3-2.57-2.34-4.89l2-1.89C1161.34,1234.06,1160.65,1236.46,1160.42,1238.79Z" transform="translate(-49.26 -278.95)"/><path class="cls-44" d="M1597.23,842.22l-1.61-1.63c6.7-4.3,13.31-8.82,21.5-9.91h0Z" transform="translate(-49.26 -278.95)"/><path class="cls-45" d="M1617.12,830.68c.12-.23.29-.67.36-.66.56.13.42.38-.37.66Z" transform="translate(-49.26 -278.95)"/><path class="cls-46" d="M1428.63,1456.55c-1.41-1.39-3.2-1.11-4.92-1.16-1.7-5.89,1.27-11.05,2.81-16.34,2.86-9.85,4.81-20,10.21-29a16.31,16.31,0,0,1,2.21-2.88,15,15,0,0,1,2.65-2.2c2.42-1.45,5-2.68,7.3-4.29,1.1-.69,2.26-1.29,3.34-2,.74-.57,1.48-1.16,2.17-1.79s1.33-1.35,2-2,1.3-1.48,1.93-2.24c1.27-1.57,2.32-3.28,3.47-4.92a8,8,0,0,0,1.38-3.49c0-.62,0-1.24.07-1.87,0-.94,0-1.88-.1-2.83a12.61,12.61,0,0,0-1.18-3.72,10.65,10.65,0,0,0-3.85-4.91c-3.56-2.38-7.56-2.83-11.68-2.69-.7,0-1.41,0-2.11,0a8.33,8.33,0,0,0-3.88,1.17,34.15,34.15,0,0,0-7.45,5.87c-.74.8-1.51,1.58-2.28,2.36-4.75,2.56-3.1,9.82-8.64,11.8-.2-3,.19-6-1.09-8.93-6.48-14.84-4.57-29.68,1.33-44,12.21-29.53,34.09-48.37,65-56.83a11.22,11.22,0,0,1,7.11.23c19.62,6.6,28.82,20.15,30,39.83,1.38,22.21-8.31,40.33-22.45,56.47-4.16,4.74-8.79,9.11-13.41,13.43-7.84,7.32-12.92,16.27-16.24,26.33-1.46,4.43-3.14,8.8-4.28,13.32-3.93,15.66-13.26,25.44-29.63,27.79C1435.07,1458.81,1431.7,1460.41,1428.63,1456.55Z" transform="translate(-49.26 -278.95)"/><path class="cls-46" d="M1422,1451.93c-5.92-4.37-3.51-10.48-2.56-15.69,1.41-7.69,3.9-15.21,6.32-22.68a33,33,0,0,0,1.26-9.62c4.52-.5,6.24,2.73,8,6,1.53,4.6-1.24,8.45-2.25,12.6-2.11,8.69-5.26,17.08-7.76,25.67C1424.59,1449.57,1425.2,1452.47,1422,1451.93Z" transform="translate(-49.26 -278.95)"/><path class="cls-5" d="M1437.05,1460.25a12.13,12.13,0,0,1-3.29,8.36,167.82,167.82,0,0,0-24.42,5.94c-2.84.85-5.72,1.77-8.76.93a1.29,1.29,0,0,1-.09-2.16,6.43,6.43,0,0,1,.08-1.58c1.2-1.31.63-3.46,2.2-4.6C1413.77,1462.76,1424.83,1458.62,1437.05,1460.25Z" transform="translate(-49.26 -278.95)"/><path class="cls-5" d="M1400.49,1473.32c0,.59,0,1.17.07,1.76,9.25,1.23,17.1-4.45,26-5.32,2.38-.23,4.63-1.75,6.86.3q-1.58,3.33-3.13,6.66c-9.23,5.37-19.45,7.23-29.86,8.4C1397.87,1481.17,1398,1477.24,1400.49,1473.32Z" transform="translate(-49.26 -278.95)"/><path class="cls-12" d="M1541.18,1271.77c-5.18,0-10.36,0-15.54,0-1.4,0-3-.49-3.14-2-.22-2.17,1.66-2.66,3.27-2.67,10.09-.08,20.19,0,30.28,0a3.15,3.15,0,0,1,.81.09c1.61.42,3.32,1,3.09,3-.21,1.82-1.94,1.66-3.22,1.68-5.18.07-10.36,0-15.55,0Z" transform="translate(-49.26 -278.95)"/><path class="cls-4" d="M1400.39,1485.12c9.51-4.37,19.66-6.47,29.86-8.4-1.7,7-6.13,10.62-13.39,10C1411.37,1486.2,1405.59,1488.63,1400.39,1485.12Z" transform="translate(-49.26 -278.95)"/><path class="cls-12" d="M1472.68,1486.16c11.94-1.4,23.88-1.14,37.4-1.19C1504.79,1488.8,1482.2,1489.48,1472.68,1486.16Z" transform="translate(-49.26 -278.95)"/><path class="cls-4" d="M1433.38,1470.06c-9.91,1.48-19.33,4.92-29,7.32-2.47.62-3.62.25-3.82-2.3,9.37-2.67,18.73-5.37,28.11-8,1.93-.54,3.8-.34,5.09,1.53A5.64,5.64,0,0,1,1433.38,1470.06Z" transform="translate(-49.26 -278.95)"/><path class="cls-4" d="M1437.05,1460.25c-7-.2-13.29,2.69-19.91,4.12-5.05,1.08-10,2.69-15,4.07-1.7-5,2.11-6.06,5.4-7.19,4.63-1.58,9.67-1.2,14.35-2.66l6.7-.56,9.81.53Z" transform="translate(-49.26 -278.95)"/><path class="cls-12" d="M1422,1451.93c4.77-14,11.54-27.56,11.27-42.93a2.21,2.21,0,0,1,1.86-.52c.91.43,1.77,1,2.65,1.46l.76.67c-6,15.1-10.09,30.78-14.83,46.26C1421.21,1455.89,1422.24,1453.69,1422,1451.93Z" transform="translate(-49.26 -278.95)"/><path class="cls-12" d="M1349.11,1402.86c4.59-2.59,18-3.13,27.21-1.08C1372.7,1404.58,1357.69,1405.18,1349.11,1402.86Z" transform="translate(-49.26 -278.95)"/><path class="cls-5" d="M1421.93,1458.59c-4.48,2.64-9.6,3.44-14.5,4.74-3,.81-5.1,1.75-5.25,5.11,0,1.34-.29,2.58-1.61,3.3a38.73,38.73,0,0,1,.14-5.71c1.12-6.85,1.94-7.52,9-7.57C1413.75,1458.43,1417.84,1458.54,1421.93,1458.59Z" transform="translate(-49.26 -278.95)"/><path class="cls-12" d="M1422.07,1390.88c2.61-4.45,2.25-10.65,7.86-13.33a1.44,1.44,0,0,1,2.19-.13c-1.58,6.68-5.77,12.66-5.36,19.88a4.13,4.13,0,0,1-1.51,2C1423,1396.93,1422.75,1393.82,1422.07,1390.88Z" transform="translate(-49.26 -278.95)"/><path class="cls-12" d="M1425.25,1399.28l.09-1.91c5.45,2,9.12,5.6,9.86,11.62h-1.93l-6.25-5.06Z" transform="translate(-49.26 -278.95)"/><path class="cls-12" d="M1383.68,1402.15c-.49.29-1,.76-1.17.67a1.81,1.81,0,0,1-1.25-2.32.68.68,0,0,1,1.24-.16A13.42,13.42,0,0,1,1383.68,1402.15Z" transform="translate(-49.26 -278.95)"/><path class="cls-47" d="M1498.42,1475.58c-.53.46-.83.94-1.18,1-1,.11-2.07.45-2.58-.82a3.13,3.13,0,0,1,1.33-.59A13.44,13.44,0,0,1,1498.42,1475.58Z" transform="translate(-49.26 -278.95)"/><path class="cls-48" d="M1506.76,1475.94c-.43.22-.87.61-1.3.6s-.81-.45-1.22-.7c.43-.22.87-.61,1.3-.59S1506.35,1475.69,1506.76,1475.94Z" transform="translate(-49.26 -278.95)"/><path class="cls-49" d="M1447.25,1476c-.44.21-.88.6-1.31.58s-.81-.46-1.21-.71c.44-.21.88-.6,1.31-.58S1446.85,1475.69,1447.25,1476Z" transform="translate(-49.26 -278.95)"/><path class="cls-48" d="M1480.33,1476c-.43.21-.87.6-1.3.58s-.8-.46-1.21-.71c.44-.21.88-.6,1.31-.58S1479.93,1475.69,1480.33,1476Z" transform="translate(-49.26 -278.95)"/><path class="cls-48" d="M1488.61,1476c-.44.21-.88.6-1.31.58s-.8-.46-1.2-.71c.43-.21.87-.6,1.3-.58S1488.2,1475.69,1488.61,1476Z" transform="translate(-49.26 -278.95)"/><path class="cls-50" d="M1462.53,1475.19l1.26.7c-.42.23-.84.65-1.26.65s-.85-.42-1.27-.65Z" transform="translate(-49.26 -278.95)"/><path class="cls-49" d="M1470.74,1476.59l-1.2-.76c.43-.21.87-.6,1.3-.58s.81.45,1.21.71Z" transform="translate(-49.26 -278.95)"/><path class="cls-50" d="M1455.52,1475.89c-.42.24-.84.65-1.27.65s-.84-.42-1.26-.65c.42-.24.84-.65,1.27-.65S1455.1,1475.66,1455.52,1475.89Z" transform="translate(-49.26 -278.95)"/><path class="cls-7" d="M1840.33,1273.5c3.3-7.36,9.5-12.61,13.94-19.17s9.78-12.45,14.78-18.59a4.66,4.66,0,0,1,4-2.24c.34,8.1-1.51,15.64-7,21.5a76.6,76.6,0,0,1-25.72,18.47Z" transform="translate(-49.26 -278.95)"/><path class="cls-51" d="M1786.05,1305c-.8-1.57-2.43-1.63-3.83-2.13,2.52-1.92,5.39-1.28,8.19-1.15C1789.48,1303.54,1787.47,1303.88,1786.05,1305Z" transform="translate(-49.26 -278.95)"/><path class="cls-52" d="M1840.3,1273.47c-.12.23-.29.68-.36.66-.54-.12-.41-.37.39-.63Z" transform="translate(-49.26 -278.95)"/><path class="cls-28" d="M1785.86,1308.2c0-.57.09-1.14.13-1.72a7.2,7.2,0,0,1,.46,1.27C1786.47,1307.86,1786.07,1308.05,1785.86,1308.2Z" transform="translate(-49.26 -278.95)"/><path class="cls-23" d="M1843.82,1455.12l-20.57,6.93c-10,5.7-20.39,10.56-32.11,11.62-3-1.76-1-3.77-.22-5.63a71.44,71.44,0,0,1,28.56-33c7.65-4.74,15.15-9.85,24.35-11.29C1844.3,1434.24,1844.32,1444.68,1843.82,1455.12Z" transform="translate(-49.26 -278.95)"/><path class="cls-53" d="M1791.14,1473.67c10.53-4.34,20.93-9.07,32.11-11.62q-9.63,24-19.27,47.93c-2.83-2.1-3.42-5.5-4.66-8.46-2.64-6.31-5.16-12.72-9.24-18.21C1787.16,1479.39,1787.54,1476.53,1791.14,1473.67Z" transform="translate(-49.26 -278.95)"/><path class="cls-54" d="M1844.42,1468.07c-1.6-4.25-.51-8.64-.7-13C1845.7,1459.33,1844.66,1463.72,1844.42,1468.07Z" transform="translate(-49.26 -278.95)"/><path class="cls-13" d="M1742.86,1310.13l7.82-.57c2,.63,4.32-.3,6.44,1.9-2.25,2.31-4.68,1.12-7,.71s-4.78-.58-7.16-.85c-.63-.24-.84-.5-.65-.77S1742.66,1310.13,1742.86,1310.13Z" transform="translate(-49.26 -278.95)"/><path class="cls-13" d="M1772.29,1309.82l10.46-.07C1776.07,1313.65,1776.07,1313.65,1772.29,1309.82Z" transform="translate(-49.26 -278.95)"/><path class="cls-13" d="M1742.86,1310.13a7.85,7.85,0,0,0,0,1.19c-1.87.23-3.73.43-5.15-1.24Z" transform="translate(-49.26 -278.95)"/><path class="cls-13" d="M1083.26,1445.82c1-12.79,1-25.65,2.74-38.4.61-4.47.5-9,.71-13.51,2.41-.05,2.73,1.46,3.31,2.61,9.47,18.6,18.79,37.25,26.35,56.75a458.4,458.4,0,0,1,19.54,65.26c3.57,15.84,9.73,30.86,16.57,45.53a575.1,575.1,0,0,0,48.36,84.14c1.09,1.58,1.9,3.34,2.84,5l-8.34.79c-7.45,1.07-11.93-2.72-16.2-8.47-22.14-29.77-40.19-61.76-51.87-97-10.15-30.6-23.56-59.74-37.07-88.88C1088,1455,1086.78,1449.84,1083.26,1445.82Z" transform="translate(-49.26 -278.95)"/><path class="cls-11" d="M1157.41,1233.93l2.34,4.89-4.17,3.4c-7.54-.17-14.88-.31-21.76,4.13-3,1.9-7.29,1.62-11,2.34-13.35,5.57-26.72,11.09-41.63,10.45l-18,2.9c.83-9.26,4.94-17.34.85-25.55,7.64-2,15,.32,21.7-2.51,11.37,0,22.74-.06,34-1.78,1.36-2.59,4.08-2.22,6.3-2.92a3.27,3.27,0,0,0,.79-.21C1138.35,1222.24,1148.44,1224.59,1157.41,1233.93Z" transform="translate(-49.26 -278.95)"/><path class="cls-55" d="M1126,1229.28c-1.71,1.81-4,2.38-6.3,2.92-4.78-2.83-10.24-3.71-15.42-5.39-1.57-.51-3.15-1-4.67-1.63a2.28,2.28,0,0,1-1.6-2.54c.3-1.79,1.65-2.09,3.09-1.7,7.15,1.94,14,4.92,21.35,6.13Z" transform="translate(-49.26 -278.95)"/><path class="cls-23" d="M1106.13,1123.16c.71-2.27,1.42-4.54,2.52-8.08,1.36,4.4.5,6.63-2.44,8.15Z" transform="translate(-49.26 -278.95)"/><path class="cls-40" d="M1081.19,1259.14c11.78-3.13,23.67-5.85,35.23-9.79a13.42,13.42,0,0,1,6.4-.66c.32,21.93.56,43.87,1,65.8.07,3.3-.82,5-4.07,5.92-14.69,4.17-29.67,5.08-44.83,4.42-3.57-.16-4-2-3.5-4.86,1.42-8.37,2.88-16.74,4.21-25.12C1077.56,1283,1079.35,1271.05,1081.19,1259.14Z" transform="translate(-49.26 -278.95)"/><path class="cls-13" d="M1048.26,1191.67a2.38,2.38,0,0,1,2.67,1.42c6.79,11.89,10.57,24.48,9,38.37-.31,2.68-1.44,4-4.1,4a44.06,44.06,0,0,1-7.37-.25c-9.51-1.76-10.61-3.61-8.35-13.14q3.3-13.89,6.59-27.79C1046.94,1193.22,1046.92,1192,1048.26,1191.67Z" transform="translate(-49.26 -278.95)"/><path class="cls-12" d="M1464.77,1384.08c.07.58.15,1.15.22,1.72-1,.86-.68,2.28-1.4,3.26-1.6,2.33-2.07,5.54-5.2,6.7-.23-.33-.47-.66-.72-1,.12-5.28,2.2-10.17,3-15.31a4.07,4.07,0,0,1,2.87-2.18,4,4,0,0,1,1.29,3.67A2.48,2.48,0,0,0,1464.77,1384.08Z" transform="translate(-49.26 -278.95)"/><path class="cls-12" d="M1443.49,1367.66l1.82.27c1,.52,2.13,1,1.86,2.5a31.78,31.78,0,0,1-14.39,6.2l-.88-.75c1.54-3.83,5.38-4.82,8.39-6.82C1441.26,1368.36,1442.67,1368.69,1443.49,1367.66Z" transform="translate(-49.26 -278.95)"/><path class="cls-12" d="M1447.07,1369.51l-1.77-1.58c5.3-.9,10.28-.31,14.62,3.19.59,1.65-.55,2.06-1.75,2.43C1454.11,1373.22,1450.22,1372.36,1447.07,1369.51Z" transform="translate(-49.26 -278.95)"/><path class="cls-12" d="M1450.13,1402.37c-1.74,3.35-4.87,4.39-8.28,5-.1-.39-.21-.78-.31-1.17,1.35-3.51,4-4.91,7.63-4.5Z" transform="translate(-49.26 -278.95)"/><path class="cls-12" d="M1458.32,1372.67l1.6-1.55c2.34,1.39,3.25,3.63,3.63,6.17l-1.61,1.92C1459.43,1377.75,1457.62,1375.9,1458.32,1372.67Z" transform="translate(-49.26 -278.95)"/><path class="cls-56" d="M1464.77,1384.08c-1.54-1.08-1.48-2.12.07-3.12C1464.81,1382,1464.79,1383,1464.77,1384.08Z" transform="translate(-49.26 -278.95)"/><path class="cls-57" d="M1453.48,1400.76c-.71,1.38-2,1.62-3.35,1.61l0,0c-.55-2.27.91-2.34,2.5-2.27Z" transform="translate(-49.26 -278.95)"/><path class="cls-46" d="M1463.59,1389.06a3.15,3.15,0,0,1,1.4-3.26C1465,1387.08,1464.8,1388.29,1463.59,1389.06Z" transform="translate(-49.26 -278.95)"/><path class="cls-46" d="M1443.49,1367.66a3.21,3.21,0,0,1-3.2,1.4A3.48,3.48,0,0,1,1443.49,1367.66Z" transform="translate(-49.26 -278.95)"/><path class="cls-58" d="M1440.17,1409a2,2,0,0,1-1.63,1.66l0,0a1.42,1.42,0,0,1,.52-1.84Z" transform="translate(-49.26 -278.95)"/><path class="cls-59" d="M1441.85,1407.32a2.12,2.12,0,0,1-1.68,1.63l.06,0c-.44-1.51.13-2,1.63-1.67Z" transform="translate(-49.26 -278.95)"/><path class="cls-60" d="M1431.8,1377.47l-1.86.08,2-1.67.09.08c.38.38.47.74.29,1.06S1432,1377.47,1431.8,1377.47Z" transform="translate(-49.26 -278.95)"/><path class="cls-61" d="M1458.39,1395.76a2,2,0,0,1-1.68,1.62c0-.36-.1-.73-.16-1.09a1.41,1.41,0,0,1,1.84-.54Z" transform="translate(-49.26 -278.95)"/><path class="cls-61" d="M1456.71,1397.38a2.07,2.07,0,0,1-1.62,1.7l-.2-1.1a1.43,1.43,0,0,1,1.87-.55Z" transform="translate(-49.26 -278.95)"/><path class="cls-57" d="M1455.09,1399.08a2.12,2.12,0,0,1-1.61,1.68l-.1-.11c-.27-1.4.26-2,1.67-1.59Z" transform="translate(-49.26 -278.95)"/><path class="cls-46" d="M1455.05,1399.06a2,2,0,0,0-1.67,1.59c-1.37,0-2.6.33-3.27,1.7-3.37.63-6.54,1.59-8.25,5a96.27,96.27,0,0,1-3.3,3.3c-1.73.7-3.31,1.1-3.36-1.64l-9.86-11.62c-1.09-7.68,1.24-14.26,6.46-19.89a2.94,2.94,0,0,0,.19-1.52l15.08-6.45a25.82,25.82,0,0,1,11.25,3.16c1.17,2.2,3.35,3.84,3.62,6.54.78,5.93-1.87,11.13-3.55,16.54a2,2,0,0,0-1.63,1.68A2.15,2.15,0,0,0,1455.05,1399.06Z" transform="translate(-49.26 -278.95)"/><polygon class="cls-13" points="2486.08 1440.88 0 1440.88 2.15 1432.08 2488.22 1432.08 2486.08 1440.88"/></svg>