<svg id="Layer_1" data-name="Layer 1" xmlns="http://www.w3.org/2000/svg" viewBox="0 0 2604.42 1654.94"><defs><style>.cls-1,.cls-10{fill:#87bad0;}.cls-1{opacity:0.22;}.cls-1,.cls-11{isolation:isolate;}.cls-2{fill:#347261;}.cls-3{fill:#407f6c;}.cls-4{fill:#2b6050;}.cls-5{fill:#649e89;}.cls-6{fill:#4d8975;}.cls-7{fill:#fe875e;}.cls-8{fill:#0f393a;}.cls-9{fill:#a8cff0;}.cls-11,.cls-15{fill:#fff;}.cls-11{opacity:0.78;}.cls-12{fill:#f7a491;}.cls-13{fill:#7baaba;}.cls-14{fill:#f47458;}.cls-16{fill:#7093a0;}.cls-17{fill:#f8a492;}.cls-18{fill:#e27950;}.cls-19{fill:#ef8351;}.cls-20{fill:#13375b;}.cls-21{fill:#184c4c;}.cls-22{opacity:0.3;}.cls-23{fill:#91b3fa;}.cls-24{fill:#ddba4b;}.cls-25{fill:#edcb50;}</style></defs><title>header-grouepement-changement-chaudiere</title><path class="cls-1" d="M223.19,1806.28H2500.66c188.77-143.34,91.63-574.68-66-662.12C2264.89,1050,2534.4,724.52,2273,618.87c-170.71-69-442.21,6.21-405.69-178.36C1917.9,184.57,1326,119,889.91,188,418.43,262.54,849,629.28,330.53,703.14c-266.59,38-215.1,363.07-190.22,430.21,21.65,58.48,164.89,151.33-34.18,279.08C-185.77,1599.81,216.31,1802.79,223.19,1806.28Z" transform="translate(0 -162.33)"/><path class="cls-2" d="M2291.17,603.71s-37.28,81.16-62.37,115.45-49,67.07-69,162.23-16.59,104.72-22.07,129.3-41.13,124.16-41.34,142.42-72.06,122.21-90.47,170.87-51,118.15-49.17,153.53l8.19-2.08s6.67-82.5,63.47-165.88,48.68-99.12,113.19-142,106.16-161.12,106.16-161.12,65.62-128.52,62.57-195.34S2324.69,684,2291.17,603.71Z" transform="translate(0 -162.33)"/><path class="cls-2" d="M2203.86,478.87s-2.17,53.32-19.37,85-32,50.91-35.13,85.18-13.93,122.6-61.88,165.74-54.08,172.36-90.59,211.45-41.27,67.2-34.53,134.25,29.64,160-23.31,281.26l-12-30.17s37.88-99.78,28.71-158.21-41.08-146.71-29.4-189-31.76-50.61-5.6-114.65,15.41-86.29,51-141.66c0,0,3.65-2.59,13-49.44s84.83-132.71,119.61-162S2189.32,520.3,2203.86,478.87Z" transform="translate(0 -162.33)"/><path class="cls-3" d="M2062.21,742.86s-41.65,71.3-42.24,117.19,4.38,83.23-16.69,146.07S2024,1108.7,2012,1143.4s-13,75.78-12.62,106.93-47.7,134.26-55,186.46,2,52.38,2,52.38,8-68.92,19-91.71,44.69-101.37,52.55-131.77,29.15-49.91,47.52-101.39,44.49-94.85,42.5-167.91S2135.37,846.23,2062.21,742.86Z" transform="translate(0 -162.33)"/><path class="cls-3" d="M1974,1441.33s19.42-90.49,101.31-99.53,130,7.16,187.86-59,91.46-171,109.94-189.09c0,0-29.07-15-77.39,30.22s-82.28,79.46-110.26,105.76-50.69,9.16-80.23,26.5c-24.76,14.53-56.77,56.54-70.87,78.54a98.73,98.73,0,0,1-16.25,19.46c-5.67,5.24-12.43,11.66-16.76,16.38-8.67,9.45-33.68,71-33.68,71Z" transform="translate(0 -162.33)"/><path class="cls-3" d="M1945.17,1425.37s28.87-110.67,9.53-164.83-79.85-94.23-77.42-128.25,41.29-126,9.61-194.42c0,0-12,61.06-23.91,74.64s-93.37,68.36-78.92,140.71,93.67,89.25,113.18,110.55,45.86,21.27,46,35.43,5.31,65.65-3.44,116.46Z" transform="translate(0 -162.33)"/><path class="cls-4" d="M1976.73,1351.31l40.55-116.8s23.82-94,37.62-172.29,7.31-319.36,7.31-319.36-41.65,71.3-42.24,117.19,4.38,83.23-16.69,146.07S2024,1108.7,2012,1143.4s-13,75.78-12.62,106.93-47.7,134.26-55,186.46c-4,28.6-3,41.57-1.29,47.46C1936.54,1438.59,1976.73,1351.31,1976.73,1351.31Z" transform="translate(0 -162.33)"/><path class="cls-2" d="M2176.43,1281.73c-36.17,7.22-68.51,4.76-111.45,36.72s-68.19,66.09-68.19,66.09-19.3,34.49-27.28,52.68c-1.15,2.78-1.82,4.44-1.82,4.44l6.33-.33s19.42-90.49,101.31-99.53,130,7.16,187.86-59,91.46-171,109.94-189.09c0,0-61.53,47.87-99.56,90.24S2212.63,1274.5,2176.43,1281.73Z" transform="translate(0 -162.33)"/><path class="cls-4" d="M1863,1012.51c-11.88,13.59-93.37,68.36-78.92,140.71s93.67,89.25,113.18,110.55,45.86,21.27,46,35.43,5.31,65.65-3.44,116.46l2.34,4.24c4.27-19.83,10.2-50,12.14-73,3.15-37.23-2.88-52.65-14.85-82.81s-86.34-91.61-105-123.91,35.94-86.3,48-112.37,4.37-90,4.37-90S1874.85,998.93,1863,1012.51Z" transform="translate(0 -162.33)"/><path class="cls-4" d="M2056.31,1371.9l12.73-30.77c9.88-22.63,35.15-33.43,56.45-24.13h0c53.69,23.43,77,88.65,52.13,145.68l-18.2,41.69c-8,18.26-5.2,38.36,5.56,52.52,9.76,12.87,11.35,30.76,4.58,46.27l-9.59,22a87.42,87.42,0,0,1-54.54,48.67,53,53,0,0,0-32.95,29.77l-13.58,31.12c-15,34.4-53.45,50.83-85.84,36.7l-18.48-8.07c-32.39-14.14-46.47-53.49-31.45-87.9h0c24.29-41.14,22.35-71.84,13.74-92.67a124.62,124.62,0,0,1,1.19-97.21l1.92-4.4a123.69,123.69,0,0,1,75.57-68.39C2030.19,1408.11,2045.48,1396.7,2056.31,1371.9Z" transform="translate(0 -162.33)"/><path class="cls-5" d="M1827.09,1806.43c26-33.78,168.9-214.72,262-244.88,102.82-33.28,5.91,98.92,5.91,98.92S2277.39,1461,2344.33,1479c61.35,16.48,0,140.1,0,140.1s69.1-68.46,152.9-68.46c81.55,0-57,242.78-64.46,255.78Z" transform="translate(0 -162.33)"/><path class="cls-2" d="M2376.75,1415a1202,1202,0,0,0-160,383l-5.11-1.37A1209.54,1209.54,0,0,1,2371,1416.78c17.29-27,36-59.07,68.34-69.61.62-.2.86.75.26,1C2410.05,1359.31,2392.93,1389.69,2376.75,1415Z" transform="translate(0 -162.33)"/><path class="cls-2" d="M2234.71,1802.8a1502.22,1502.22,0,0,1,304.89-308.93c1.21-.91,2.83,1.19,1.62,2.12A1500.9,1500.9,0,0,0,2241,1804.49Z" transform="translate(0 -162.33)"/><path class="cls-2" d="M2383.56,1342.78c1.92,2.82,9.26,10.18,11.42,19.84,2.9,9.17.61,20.65.36,20.25-.55.23,8.5-7.42,11.33-19.59,3.66-11.68,1.1-27.87-3.46-33.23-7.86-12.13-21.6-13.36-24.27-7.48C2376.11,1328.43,2379.7,1336.36,2383.56,1342.78Z" transform="translate(0 -162.33)"/><path class="cls-2" d="M2401.43,1446.66c-2.78-2-10-9.46-19.62-11.81-9.11-3.07-20.63-1-20.24-.76-.23.55,7.59-8.35,19.82-10.93,11.74-3.43,27.88-.55,33.15,4.11,12,8.1,12.93,21.86,7,24.41C2415.6,1454.43,2407.73,1450.65,2401.43,1446.66Z" transform="translate(0 -162.33)"/><path class="cls-2" d="M2374.48,1492.19c-2.78-2-10-9.46-19.61-11.8-9.11-3.08-20.64-1-20.24-.77-.24.55,7.59-8.35,19.81-10.93,11.75-3.43,27.89-.55,33.16,4.11,12,8.1,12.93,21.86,7,24.41C2388.7,1499.93,2380.82,1496.18,2374.48,1492.19Z" transform="translate(0 -162.33)"/><path class="cls-2" d="M2470.43,1597.81c-2.78-2-10-9.47-19.62-11.81-9.11-3.08-20.63-1-20.23-.77-.24.55,7.58-8.35,19.81-10.93,11.74-3.43,27.88-.55,33.15,4.11,12,8.1,12.93,21.86,7,24.41C2484.66,1605.54,2476.79,1601.79,2470.43,1597.81Z" transform="translate(0 -162.33)"/><path class="cls-2" d="M2519.48,1554.61c-2.78-2-10-9.46-19.62-11.81-9.11-3.08-20.63-1-20.24-.76-.24.55,7.59-8.35,19.82-10.94,11.74-3.42,27.88-.54,33.15,4.11,12,8.1,12.93,21.86,7,24.42S2525.82,1558.6,2519.48,1554.61Z" transform="translate(0 -162.33)"/><path class="cls-2" d="M2345.92,1394.3c2.34,2.48,10.75,8.59,14.4,17.8,4.31,8.59,3.86,20.29,3.55,19.93-.51.32,7.22-8.67,8.1-21.13,1.77-12.11-3.31-27.69-8.65-32.27-9.68-10.74-23.44-9.78-25.15-3.56C2336.3,1381.29,2341.1,1388.57,2345.92,1394.3Z" transform="translate(0 -162.33)"/><path class="cls-2" d="M2306.35,1445.93c3.33,1.77,15,5,20.82,13.68,6.62,7.74,7.46,21,7,20.72-.62.57,8.29-12.78,7.9-27.07.83-14.27-7.65-29.48-15.12-32.29-13.83-7.83-31.53-.85-33,6.84C2292.32,1435.55,2299.43,1441.61,2306.35,1445.93Z" transform="translate(0 -162.33)"/><path class="cls-2" d="M2264.72,1524.14c3.58,1.18,15.58,2.38,22.81,10,7.83,6.52,10.89,19.44,10.41,19.25-.52.66,6-14,3.24-28-1.59-14.21-12.5-27.78-20.34-29.3-15-5.38-31.22,4.47-31.36,12.29C2249.13,1516.26,2257.15,1521.05,2264.72,1524.14Z" transform="translate(0 -162.33)"/><path class="cls-2" d="M2387.93,1578.62c2.61,1.63,11.89,4.89,16.15,12.31,4.94,6.67,4.87,17.5,4.53,17.25-.54.43,7.47-9.92,8-21.56,1.49-11.56-4.54-24.42-10.46-27.14-10.81-7.15-25.6-2.48-27.22,3.69C2377.1,1569.37,2382.53,1574.71,2387.93,1578.62Z" transform="translate(0 -162.33)"/><path class="cls-2" d="M2452.08,1361.09c-1.56-1.29-5.5-6-11.09-7.85-5.26-2.22-12.16-1.5-11.94-1.33-.16.31,4.85-4.61,12.2-5.6,7.1-1.52,16.52.89,19.43,3.88,6.73,5.31,6.69,13.49,3.07,14.74S2455.65,1363.72,2452.08,1361.09Z" transform="translate(0 -162.33)"/><path class="cls-2" d="M2437.14,1327.85c.07,2,1.42,8-.56,13.57-1.45,5.52-6.23,10.55-6.23,10.28-.35-.06,6.61-1,11.88-6.25,5.54-4.69,9.38-13.63,8.79-17.76-.1-8.57-6.6-13.54-9.8-11.43S2437.23,1323.43,2437.14,1327.85Z" transform="translate(0 -162.33)"/><path class="cls-2" d="M2554.79,1510.61c-1.56-1.28-5.5-6-11.09-7.84-5.26-2.22-12.16-1.5-11.94-1.34-.17.32,4.85-4.6,12.2-5.6,7.1-1.51,16.52.9,19.43,3.88,6.73,5.32,6.69,13.5,3.07,14.75S2558.36,1513.25,2554.79,1510.61Z" transform="translate(0 -162.33)"/><path class="cls-2" d="M2536.76,1477.09c.24,2,2.08,7.9.56,13.57-1,5.62-5.35,11-5.37,10.75-.35,0,6.51-1.57,11.34-7.19,5.12-5.14,8.22-14.35,7.3-18.42-.8-8.54-7.69-13-10.71-10.6S2536.5,1472.66,2536.76,1477.09Z" transform="translate(0 -162.33)"/><path class="cls-2" d="M2524.22,1693.71c-76.09,8.34-147,41.93-215.19,74.68-46,22.09-43.68,28.38-53,31.67a1.9,1.9,0,0,1-2.3-2.58c3.6-7.14,13.06-12,19.63-16.08a256.94,256.94,0,0,1,23.77-13c17.37-8.43,35.18-16,52.88-23.7,36-15.65,72.61-30.37,110.65-40.33a389.41,389.41,0,0,1,63.56-11.33.33.33,0,0,1,.34.29.31.31,0,0,1-.29.33h0Z" transform="translate(0 -162.33)"/><path class="cls-2" d="M2455.64,1670.11c.49,3.13,3.75,12.19,1.74,21.14-1.19,8.83-7.64,17.55-7.68,17.12-.56,0,10.05-2.87,17.22-12,7.67-8.34,11.91-22.92,10.21-29.21-1.8-13.27-12.83-19.72-17.39-15.84S2454.94,1663.21,2455.64,1670.11Z" transform="translate(0 -162.33)"/><path class="cls-2" d="M2388.6,1694.12c.5,3.12,3.75,12.18,1.74,21.14-1.19,8.83-7.63,17.55-7.68,17.11-.55,0,10.05-2.87,17.22-12,7.68-8.34,11.92-22.93,10.22-29.22-1.81-13.27-12.84-19.72-17.4-15.84S2387.9,1687.22,2388.6,1694.12Z" transform="translate(0 -162.33)"/><path class="cls-2" d="M2320.49,1724.48c.49,3.12,3.74,12.18,1.74,21.14-1.19,8.83-7.64,17.55-7.68,17.11-.56,0,10-2.87,17.22-12,7.67-8.34,11.91-22.93,10.21-29.22-1.8-13.26-12.84-19.72-17.39-15.84S2319.79,1717.58,2320.49,1724.48Z" transform="translate(0 -162.33)"/><path class="cls-2" d="M2475.65,1732.75c-1.38-2.58-4-11.07-10.51-16.55-5.81-5.85-15.43-8.67-15.22-8.33-.39.33,9-3.49,19.36-.8,10.31,1.86,21.58,10.24,23.84,15.83,6.07,10.78,1.54,21.69-4,21.38S2479,1738.22,2475.65,1732.75Z" transform="translate(0 -162.33)"/><path class="cls-2" d="M2405.92,1757.43c-1.37-2.58-4-11.07-10.51-16.55-5.81-5.85-15.43-8.67-15.22-8.33-.39.33,9-3.49,19.37-.8,10.31,1.86,21.57,10.24,23.83,15.83,6.07,10.78,1.54,21.69-4,21.38S2409.26,1762.9,2405.92,1757.43Z" transform="translate(0 -162.33)"/><path class="cls-2" d="M2528.75,1707.34c-1.2-1.44-4-6.42-8.79-9-4.41-2.91-10.82-3.41-10.65-3.22-.2.26,5.2-3.38,12-3.06,6.72-.19,14.9,3.58,17.06,6.79,5.24,6,3.84,13.42.33,14S2531.57,1710.34,2528.75,1707.34Z" transform="translate(0 -162.33)"/><path class="cls-2" d="M2520.71,1674.56c-.28,1.85-.05,7.56-2.78,12.27-2.25,4.78-7.45,8.57-7.4,8.31-.31-.11,6.2.17,11.87-3.69,5.83-3.35,10.83-10.85,11-14.71,1.34-7.83-3.75-13.45-7-12.06S2521.54,1670.53,2520.71,1674.56Z" transform="translate(0 -162.33)"/><path class="cls-2" d="M475.74,1228.13c-89.42-79.73-135.39-194.22-158.21-276.24-24.78-89-28.39-160.09-28.42-160.8l-4.86-.3c0,.72,3.65,72.3,28.58,161.93,23,82.82,69.5,198.49,160,279.2Z" transform="translate(0 -162.33)"/><path class="cls-2" d="M299.29,770.52c4.41,20.5.72,39.87-8.68,53.85-14.73-10.84-26.32-28.22-30.72-48.72s-.72-39.87,8.68-53.85C283.3,732.64,294.88,750,299.29,770.52Z" transform="translate(0 -162.33)"/><path class="cls-2" d="M271.87,828.9c15.4,14.33,24.41,33.16,26.15,51.28-16.91.77-35.52-6.09-50.92-20.42s-24.41-33.16-26.16-51.29C237.86,807.7,256.46,814.57,271.87,828.9Z" transform="translate(0 -162.33)"/><path class="cls-2" d="M264.64,890.23a78.51,78.51,0,0,1,44.13,35.53c-13.89,8.93-32.5,11.49-51.65,5.49A78.45,78.45,0,0,1,213,895.71C226.88,886.79,245.49,884.22,264.64,890.23Z" transform="translate(0 -162.33)"/><path class="cls-2" d="M294.12,964c15.17,4.79,27.29,17,34.16,32.47-11.5,9.66-26.55,13.32-41.72,8.54s-27.29-17-34.16-32.47C263.9,962.89,279,959.23,294.12,964Z" transform="translate(0 -162.33)"/><path class="cls-2" d="M320,858.71a52.4,52.4,0,0,1,43-15.49,58.83,58.83,0,0,1-16.67,44.62,52.47,52.47,0,0,1-43,15.49A58.83,58.83,0,0,1,320,858.71Z" transform="translate(0 -162.33)"/><path class="cls-2" d="M333.85,911.59a52.44,52.44,0,0,1,43-15.5,58.8,58.8,0,0,1-16.61,44.62,52.44,52.44,0,0,1-43,15.5A58.77,58.77,0,0,1,333.85,911.59Z" transform="translate(0 -162.33)"/><path class="cls-4" d="M421.85,1336.29c-82.57-12-153.23-61-198-99.87-48.56-42.24-77.93-82.16-78.22-82.56l-2.94,1.69c.29.4,29.87,40.62,78.75,83.15C266.61,1278,338,1327.42,421.6,1339.61Z" transform="translate(0 -162.33)"/><path class="cls-4" d="M143.67,1138c10.43,10.22,15.72,22.9,15.62,34.63-12.73-.65-26.13-6.31-36.56-16.53s-15.71-22.9-15.61-34.64A57.47,57.47,0,0,1,143.67,1138Z" transform="translate(0 -162.33)"/><path class="cls-4" d="M150.13,1182.43c14.46,2.42,26.91,9.9,34.88,19.77-9.53,6.94-23,10.09-37.43,7.67s-26.92-9.91-34.89-19.78C122.24,1183.13,135.68,1180,150.13,1182.43Z" transform="translate(0 -162.33)"/><path class="cls-4" d="M169.46,1220.85a54.72,54.72,0,0,1,39.3,3.72c-4.66,10.52-14.49,19.15-27.93,23a54.64,54.64,0,0,1-39.29-3.72C146.24,1233.34,156,1224.71,169.46,1220.85Z" transform="translate(0 -162.33)"/><path class="cls-4" d="M214.91,1252.43c10.66-3,22.4-.58,32.32,5.76a30.22,30.22,0,0,1-21,21c-10.65,3-22.39.58-32.31-5.76A30.24,30.24,0,0,1,214.91,1252.43Z" transform="translate(0 -162.33)"/><path class="cls-4" d="M189.56,1181.28a36.54,36.54,0,0,1,19.07-25.52,41,41,0,0,1,7.44,32.33A36.53,36.53,0,0,1,197,1213.61,40.91,40.91,0,0,1,189.56,1181.28Z" transform="translate(0 -162.33)"/><path class="cls-4" d="M217.89,1206.71A36.55,36.55,0,0,1,237,1181.18a41,41,0,0,1,7.43,32.34A36.53,36.53,0,0,1,225.32,1239,41,41,0,0,1,217.89,1206.71Z" transform="translate(0 -162.33)"/><path class="cls-5" d="M471.57,1583.42c-95.25,36.16-200.09,17.06-271.27-5.33-77.28-24.31-132.69-57.63-133.24-58l-2.11,4c.56.34,56.37,33.92,134.15,58.4,71.89,22.62,177.81,41.9,274.23,5.29Z" transform="translate(0 -162.33)"/><path class="cls-5" d="M55.34,1500.78a68.79,68.79,0,0,1,37.57,35.09c-14,7.13-31.65,8.2-48.94,1.49A68.79,68.79,0,0,1,6.4,1502.27C20.35,1495.13,38.05,1494.07,55.34,1500.78Z" transform="translate(0 -162.33)"/><path class="cls-5" d="M89.09,1554.34a60.92,60.92,0,0,1,49.15,3.79,58.53,58.53,0,0,1-35.25,33.4,61,61,0,0,1-49.12-3.77A58.57,58.57,0,0,1,89.09,1554.34Z" transform="translate(0 -162.33)"/><path class="cls-5" d="M132.9,1592c12-13.42,28.21-20.11,44.12-19.81a63.18,63.18,0,0,1-15.85,47.31c-12,13.42-28.2,20.11-44.11,19.81A63.23,63.23,0,0,1,132.9,1592Z" transform="translate(0 -162.33)"/><path class="cls-5" d="M194.24,1611.47c12-13.41,28.2-20.1,44.11-19.8A63.18,63.18,0,0,1,222.51,1639c-12,13.41-28.2,20.1-44.11,19.81A63.21,63.21,0,0,1,194.24,1611.47Z" transform="translate(0 -162.33)"/><path class="cls-5" d="M136.53,1548.62c-10.55-13.73-15.25-30.28-14.13-45.29,13.89,1.62,28.09,9.69,38.63,23.42S176.28,1557,175.16,1572C161.24,1570.42,147.07,1562.35,136.53,1548.62Z" transform="translate(0 -162.33)"/><path class="cls-5" d="M200.24,1568.55c-10.74-13.57-15.7-30.06-14.83-45.12,13.89,1.38,28.19,9.21,38.93,22.78s15.7,30.07,14.83,45.13C225.24,1590,211,1582.13,200.24,1568.55Z" transform="translate(0 -162.33)"/><path class="cls-5" d="M274.79,1616.8a23.75,23.75,0,0,1,15-14.17,27.18,27.18,0,0,1,.88,21.61,23.72,23.72,0,0,1-15,14.17A27.17,27.17,0,0,1,274.79,1616.8Z" transform="translate(0 -162.33)"/><path class="cls-2" d="M676,1799.13s121.35-480,81.11-528.18c-55.61-66.65-101.49,154.44-106,135.66-42.51-177.34-53.83-404.25-191-428.26-78-13.66,18,168.73,12.23,218.06S326.12,1082,240.76,996.13s-129.46-31.48-75.52,76.41c52.16,104.33,220.89,218.34,186.11,231.87s-245.93-121.18-271.79-63.58c-31.7,70.62,285,166.72,255.21,182.59S153.56,1387,157.7,1441s207.63,52,204.15,75.75c-5.63,38.46-140.22-48.6-146.14,4.62-6.05,54.43,177.07,44.5,173.9,87-1.82,24.4-41.12-12.41-46.91,21.39-13.2,77,228.2,170.92,228.2,170.92Z" transform="translate(0 -162.33)"/><path class="cls-4" d="M768.52,1802S653,1625,597.46,1591.54c-59.22-35.62-14.14,71-14.14,71s-121-144-154.64-114.74-3.11,63.14-3.11,63.14-108.63-32.19-128.16,7.68c-30,61.31,148.83,112.12,148.83,112.12s-76.78-.82-62.65,40.55C404.91,1833.68,768.52,1802,768.52,1802Z" transform="translate(0 -162.33)"/><path class="cls-5" d="M297.41,1618.65c19.53-39.87,128.16-7.68,128.16-7.68s-30.53-33.88,3.11-63.14,130.44,58.3,130.44,58.3-10.15-72.22,62.74-8.6C673.93,1643,768.52,1802,768.52,1802Z" transform="translate(0 -162.33)"/><path class="cls-6" d="M628.33,1357.45l5.18-3.54c-94-142.4-122.73-311.47-130.25-428.23-8.16-126.7,6.17-220.87,6.31-221.81L503.15,702c-.15,1-14.58,95.75-6.39,223.21C504.33,1043,533.3,1213.53,628.33,1357.45Z" transform="translate(0 -162.33)"/><path class="cls-6" d="M528.08,681.69c.21,28.6-9.71,52.25-25.56,66.44a127.51,127.51,0,0,1-26.59-76.68c-.2-28.61,9.72-52.26,25.56-66.45A127.35,127.35,0,0,1,528.08,681.69Z" transform="translate(0 -162.33)"/><path class="cls-6" d="M477.15,746c16,25.29,22.61,53.69,20,78.06-22-6.26-44.15-23.19-60.18-48.48s-22.6-53.69-20-78.06C439,703.76,461.13,720.69,477.15,746Z" transform="translate(0 -162.33)"/><path class="cls-6" d="M451.46,822.81a125.25,125.25,0,0,1,47.4,65.25c-20.29,5.67-45,1-68-15a125.11,125.11,0,0,1-47.4-65.25C403.72,802.13,428.39,806.76,451.46,822.81Z" transform="translate(0 -162.33)"/><path class="cls-6" d="M481.55,956.93a52.3,52.3,0,0,1,21.63,26c-8.26,3.08-18.65,2-28.71-4.06a52.17,52.17,0,0,1-21.63-26C461.1,949.79,471.49,950.92,481.55,956.93Z" transform="translate(0 -162.33)"/><path class="cls-6" d="M489.73,1006.61a52.23,52.23,0,0,1,21.62,26c-8.26,3.07-18.64,1.94-28.7-4.06a52.12,52.12,0,0,1-21.63-26C469.24,999.48,479.66,1000.61,489.73,1006.61Z" transform="translate(0 -162.33)"/><path class="cls-6" d="M531.24,805.51c18.59-10.54,40.33-10.43,59.61-1.72-3.24,21.47-14.81,40.46-33.4,51s-40.33,10.43-59.61,1.72C501.08,835,512.66,816,531.24,805.51Z" transform="translate(0 -162.33)"/><path class="cls-6" d="M535,880.35c18.59-10.53,40.33-10.42,59.61-1.71-3.23,21.47-14.81,40.46-33.4,51s-40.33,10.42-59.61,1.71C504.79,909.88,516.37,890.88,535,880.35Z" transform="translate(0 -162.33)"/><path class="cls-6" d="M531.24,987.47c12.1-6.85,26.25-6.78,38.8-1.11-2.1,14-9.64,26.33-21.74,33.19s-26.25,6.78-38.8,1.11C511.64,1006.69,519.17,994.33,531.24,987.47Z" transform="translate(0 -162.33)"/><path class="cls-7" d="M1953.48,1424.15c-4.68.74-9.46-.15-11.53-4.43C1941.49,1424.8,1949.18,1427.32,1953.48,1424.15Z" transform="translate(0 -162.33)"/><path class="cls-8" d="M2561.19,1803.28H142.5c-3,0-5.47,3.13-5.47,7h0c0,3.86,2.45,7,5.47,7H2561.19c3,0,5.47-3.12,5.47-7h0C2566.66,1806.36,2564.21,1803.28,2561.19,1803.28Z" transform="translate(0 -162.33)"/><path class="cls-9" d="M5709.18-1338.33" transform="translate(0 -162.33)"/><rect class="cls-10" x="541.7" y="481.64" width="1494.06" height="1079.95" rx="112.46"/><polyline class="cls-10" points="2084.48 1374.83 2084.48 1171.84 2011.4 1098.76 2011.4 1374.83 2084.48 1374.83"/><path class="cls-10" d="M939.58,1797h-138a24.36,24.36,0,0,1,0-48.72h138a24.36,24.36,0,0,1,0,48.72Z" transform="translate(0 -162.33)"/><path class="cls-10" d="M1784.05,1797H1646a24.36,24.36,0,0,1,0-48.72h138a24.36,24.36,0,1,1,0,48.72Z" transform="translate(0 -162.33)"/><circle class="cls-8" cx="1101.98" cy="1025.68" r="487.19"/><path class="cls-11" d="M1004.54,1098.69S834,920.05,825.9,855.09s48.72-65,178.64-89.31S1240,782,1191.3,847,1102,952.53,1102,1050C1102,1050,1028.9,1058.09,1004.54,1098.69Z" transform="translate(0 -162.33)"/><path class="cls-11" d="M1129.1,1060s72.59-236,125.37-274.86,80.47,10.8,165.16,112.3,100.85,213.39,20.3,203-135.69-26.39-220.7,21.19C1219.23,1121.26,1176.44,1061.5,1129.1,1060Z" transform="translate(0 -162.33)"/><path class="cls-11" d="M1238.64,1149.85s240.83-54.89,300.43-28.59,30.78,75.2-14.86,199.19-134.63,193.9-165.48,118.79-44.82-130.81-128.54-180.75C1230.52,1258.49,1261.05,1191.58,1238.64,1149.85Z" transform="translate(0 -162.33)"/><path class="cls-11" d="M1205.34,1286.59S1373,1467.9,1380.08,1532.94s-49.69,64.23-180,86.56-235.48-20-185.46-84.12,91-103.77,92.48-201.21C1107.09,1334.17,1180.34,1326.78,1205.34,1286.59Z" transform="translate(0 -162.33)"/><path class="cls-11" d="M1072.18,1328s-78.76,234.5-132.6,272.1-80.39-12.59-162.4-116-95.65-215.82-15.26-203,135.36,29.56,221.75-16.24C983.43,1264.66,1024.84,1325.48,1072.18,1328Z" transform="translate(0 -162.33)"/><path class="cls-11" d="M970.76,1232.35s-240.19,59.11-300.44,33.77-32.47-74.62,11-199.5,131-196.34,163.37-121.8,47.58,129.92,132.43,178.64C976.69,1123.54,947.7,1191,970.76,1232.35Z" transform="translate(0 -162.33)"/><circle class="cls-11" cx="1106.04" cy="1029.74" r="117.74"/><circle class="cls-8" cx="1106.04" cy="1029.74" r="36.54"/><rect class="cls-8" x="1629.77" y="611.56" width="341.04" height="852.59"/><path class="cls-11" d="M1922.09,936.29h-243.6a16.24,16.24,0,0,1,0-32.48h243.6a16.24,16.24,0,0,1,0,32.48Z" transform="translate(0 -162.33)"/><path class="cls-11" d="M1922.09,1082.45h-243.6a16.24,16.24,0,1,1,0-32.48h243.6a16.24,16.24,0,1,1,0,32.48Z" transform="translate(0 -162.33)"/><path class="cls-11" d="M1922.09,1228.61h-243.6a16.24,16.24,0,0,1,0-32.48h243.6a16.24,16.24,0,1,1,0,32.48Z" transform="translate(0 -162.33)"/><path class="cls-11" d="M1922.09,1374.77h-243.6a16.24,16.24,0,0,1,0-32.48h243.6a16.24,16.24,0,0,1,0,32.48Z" transform="translate(0 -162.33)"/><path class="cls-11" d="M1922.09,1520.93h-243.6a16.24,16.24,0,1,1,0-32.48h243.6a16.24,16.24,0,1,1,0,32.48Z" transform="translate(0 -162.33)"/><path class="cls-8" d="M844.28,412.5c5-12.11,10.15-24.24,23.21-30.38,10.57-5,21.61-3.09,31,4,26.61,20,3.42,42.05,33.71,80,9.41,11.79,20.8,21.31,26.44,35.12,7.89,19.34-1.51,28.62-16.58,37.89-72.09,44.3-109.88-46.63-108.5-67.5C834.56,456.15,841,420.33,844.28,412.5Z" transform="translate(0 -162.33)"/><path class="cls-12" d="M769.46,648.35c3-.48,10.42-5.77,13-6.25,2-.37,6.39-1,8.25-1.31,2.28-8.52,13.86-54.93,15.15-68.54,1.41-14.74,11.83-78.51,11.83-78.51l27,4.91S833.5,547.71,830.4,571.5c-2.66,20.43-25.07,66.37-27.92,71.22v.35c-.43,7.21-3.9,4.81-3.9,4.81l-5.65,1.44s-20,1.92-21.28,2.4S766.42,648.83,769.46,648.35Z" transform="translate(0 -162.33)"/><path class="cls-13" d="M841.26,456.5c-19.08,6.47-29.93,58.34-29.93,58.34s29.93,8.36,37.6,4c0,0,8.71-38.59,11.83-37.24Z" transform="translate(0 -162.33)"/><path class="cls-12" d="M693.66,738a204.26,204.26,0,0,0-9.14,32c-.13.87,1.09,5,1,6-11.72,16-28.57,19.48-43,20.5,7.35-7.18,18.16-14,18.68-16.27a283.17,283.17,0,0,0,7.45-42.09C677.62,742.24,683.71,738.94,693.66,738Z" transform="translate(0 -162.33)"/><path class="cls-4" d="M859.72,565.71l25.84,72.63s-41.44,7.8-56.93,10.64-102,6.62-104.24,8.16c-1.63,1.14-19.51,59-27.5,90.85-9.06,2-24.57-.4-32.82-3.24,4.46-45.63,20.56-117.91,25.72-125.78C698.13,606.16,859.72,565.71,859.72,565.71Z" transform="translate(0 -162.33)"/><path class="cls-12" d="M759,769.81A202.72,202.72,0,0,0,756,803c0,.87,2,4.75,2.07,5.65-8.52,17.9-24.41,24.49-38.4,28.2,5.88-8.44,15.22-17.15,15.31-19.48a285,285,0,0,0-.57-42.74C744,777,749.39,772.63,759,769.81Z" transform="translate(0 -162.33)"/><path class="cls-2" d="M889.82,569.5l10,17.08A49,49,0,0,1,875.27,657l-.45.18c-14.68,5.69-99,25.63-100.86,27.55-1.39,1.42-8.11,61.58-10,94.4-8.53,3.65-24.21,4.21-32.85,3-4.17-45.65-1.9-119.67,1.69-128.37C738.68,639.5,889.82,569.5,889.82,569.5Z" transform="translate(0 -162.33)"/><path class="cls-8" d="M754.72,803.5c2.24-2.48,10.48,11.17,12.54,14.08,2.32,3.27,1.66,5.74,1.38,6.25-.73,1.35-44.19,26.92-54.79,28.74a5.3,5.3,0,0,1-3.17-.84c-4.14-3.67,14.92-30.75,23.48-34.3C739.7,815.11,744.62,814.63,754.72,803.5Z" transform="translate(0 -162.33)"/><path class="cls-8" d="M683.14,770.5c2.67-2,8.2,12.94,9.68,16.18,1.66,3.65.55,6,.18,6.41-1,1.19-48.45,18.16-59.2,18a5.25,5.25,0,0,1-3-1.43c-3.38-4.37,20.42-27.4,29.5-29.29C666.2,779.09,671.12,779.55,683.14,770.5Z" transform="translate(0 -162.33)"/><path class="cls-10" d="M859.35,456.32h0a7,7,0,0,1-1.92-.4c-3.55-.63-11.29-1.56-17.32,1-7.33,3.1-18.7,32-18,61.66.27,4.54.55,8.6.78,11.43,1.85,22.41,8.28,64.46,8.63,64.69,8.74,5.63,61.51-16.2,65.14-21s5.77-63,7.53-66L907.66,457C901.56,455.26,868.73,456.25,859.35,456.32Z" transform="translate(0 -162.33)"/><path class="cls-12" d="M880.74,437.66s-3.4,17.58-2.72,24.51-2.59,29.27-17.26,29.33-2.79-28.4-1.41-35.19,1.71-27.81,1.71-27.81Z" transform="translate(0 -162.33)"/><path class="cls-14" d="M860.76,439.05c.23-5.76.3-10.55.3-10.55l19.68,9.16s-.7,3.59-1.4,8.17C870.73,447.56,864.49,444.38,860.76,439.05Z" transform="translate(0 -162.33)"/><path class="cls-12" d="M887.93,389.16a24.35,24.35,0,0,1,10.35,13.34c2.78,9.12-.38,32.64-20,38.32s-28.07-12.95-24-27.51S867.09,380.28,887.93,389.16Z" transform="translate(0 -162.33)"/><path class="cls-12" d="M851.83,407.64c.38,3.91,2.54,6.9,4.82,6.68s3.81-3.58,3.43-7.49-2.54-6.9-4.82-6.68S851.44,403.73,851.83,407.64Z" transform="translate(0 -162.33)"/><path class="cls-8" d="M885.63,388s3.55,26.24,12,31,4.93,16.36,4.93,16.36,7.7-27,1-35.72S885.63,388,885.63,388Z" transform="translate(0 -162.33)"/><path class="cls-12" d="M892.64,422.72c-2.3,3.42-2.29,7.45,0,9s6,0,8.35-3.37,2.3-7.45,0-9S894.94,419.3,892.64,422.72Z" transform="translate(0 -162.33)"/><path class="cls-15" d="M864.11,424.18l13.8,3.47s-1.66,5.24-7.77,3.89C862.68,429.9,864.11,424.18,864.11,424.18Z" transform="translate(0 -162.33)"/><path class="cls-16" d="M932.64,646.16l59.51-3s-24.42,17.55-24.92,17.55-19.45-7.48-20.28-7.48S932.64,646.16,932.64,646.16Z" transform="translate(0 -162.33)"/><path class="cls-12" d="M993.5,643.11c-.25-.63-.8-.64-1.36-.66a137.08,137.08,0,0,1-16.33-1.22,11.29,11.29,0,0,1-2.63-.67,6.81,6.81,0,0,0-4.52-.16,9.24,9.24,0,0,1-2.51.26c-2.74,0-10.58-2.68-14.6-3.38a2.35,2.35,0,0,1-1.88-1.76c-4-15.66-12.45-50.79-13.55-62.35-1.41-14.77-11.61-81.39-11.61-81.39l-27.3,7.62s11.23,49.17,14.34,73c2.4,18.41,20.8,57.48,26.57,68.71,2.81,8.37,9.14,8.6,10.6,8.78a3.42,3.42,0,0,1,2.17,1.15,14.74,14.74,0,0,0,3.44,3,8.31,8.31,0,0,1,2.35,2.34c1.16,1.69,2.2,3.46,3.23,5.24.68,1.17,1.39,1.55,2.4,1.27a2.16,2.16,0,0,0,1.58-2.42,11,11,0,0,0-1.63-5.38,2.92,2.92,0,0,1,.21-3.89,12.07,12.07,0,0,1,2-2.28,3.57,3.57,0,0,1,2.8-1,43.41,43.41,0,0,0,6,1.11l1.65.34.9.19c.14,0,3,.35,4,.35.8,0,2.09.06,3.19.11a18.08,18.08,0,0,0,3.18-.47,3.84,3.84,0,0,0,2.55-1c.29-.27.58-.57.43-1a1,1,0,0,0-.89-.67c-.65-.12-4-.53-4-.67,1,0,4.16-.08,5.17-.1a4.73,4.73,0,0,0,3.47-1.53C993.32,644.14,993.75,643.74,993.5,643.11Z" transform="translate(0 -162.33)"/><path class="cls-10" d="M908,457c13.47-2.45,24.59,57.84,24.59,57.84s-29.94,8.36-37.61,4c0,0-8.71-38.59-11.82-37.24Z" transform="translate(0 -162.33)"/><path class="cls-17" d="M448.36,1366.58a17.86,17.86,0,0,0,1.85,4.5c5.34,9.73,17.74,23.61,17.74,23.61l9.6-21.61s-1.57-6.79-4.28-16.49C464,1359,455.18,1360.4,448.36,1366.58Z" transform="translate(0 -162.33)"/><path class="cls-18" d="M503.35,1347.84s-53.5,23-55.23,22.6c-1.1-.29-21.93-35.15-22.17-67.94-.1-15.14,15.63-33.36,33.17-29.75,8.84,1.81,8.7,4.27,21.78,23.26S503.35,1347.84,503.35,1347.84Z" transform="translate(0 -162.33)"/><path class="cls-12" d="M549,1760.87l-1.28,21c-.46,2.67-2.31,9.26-2.31,11.69,0,9.11,43.26-7.74,33.57-11.78-.88-.36-5.48-3.12-5.77-6.22-.44-4.78-1.57-14.45-1.57-14.45Z" transform="translate(0 -162.33)"/><path class="cls-19" d="M578.9,1781.75s-10.17,2.78-15.36,3.48-12.07-5.17-15.74-3.58c-4,1.74-3.89,17.44-3.89,17.44s54.45,4.47,69.78-.15C619.75,1797.1,599.66,1788.24,578.9,1781.75Z" transform="translate(0 -162.33)"/><path class="cls-12" d="M460.53,1760.87s-1.28,21-1.29,21c-.45,2.67-2.3,9.26-2.3,11.69,0,9.11,43.26-7.74,33.56-11.78-.86-.36-6.82-5.19-7.11-8.29-.45-4.77-.21-12.38-.21-12.38Z" transform="translate(0 -162.33)"/><path class="cls-19" d="M490.41,1781.75s-10.17,2.78-15.36,3.48-12.07-5.17-15.74-3.58c-4,1.74-4.21,17.44-4.21,17.44s54.71,5.21,70.1-.15C531.16,1796.85,511.16,1788.24,490.41,1781.75Z" transform="translate(0 -162.33)"/><path class="cls-12" d="M473.74,1378.23l38.1-53.38c.16-.46.51-1.42,1-2.88,1.93-5.3,5.91-16.32,9.39-27.28v-.12c1.1-3.83,3.42-10.51,5.66-17,2.48-7.19,5.57-16.11,5.68-17.63-.09-.26-.27-.73-.51-1.35-1.4-3.62-3.29-12.26-4-16-.42-2.39-.85-8.21,2-8.21,4.46,0,2.34,5.81,4.4,9.43a91.17,91.17,0,0,0,3.09-12.09l.75-11.35c.14-.85-.77-7.11,2.37-7.11h.15c2.82.21,2.75,6.86,3.92,18.12.37-1.3.74-2.86,1-4.29a42.83,42.83,0,0,1,1-5.94c-.56-3.14-.22-8.09,3.11-7.62,1.68.23,1.54,7.14,1.54,7.14,0,.94-.11,8.24-.07,9.69.34-2.45,1.68-12.9,4.3-12.9,2.18,0,2.35,2.81,2.31,5,0,1.31-1.39,12.63-1.46,14,1-1.72,2.23-11.69,3.25-11.69,4.23,0,2.7,14.18,1.14,17.87a17.61,17.61,0,0,0-.48,2,34.93,34.93,0,0,1-3.63,10.55c-2.66,4.55-6.33,11.79-6.89,12.9-.41,2.26-1.69,10.39-3.29,20.62-.69,4.37-1.44,9.17-2.22,14.14h0c-.15,1.08-.94,4.5-4,17.33-4.12,17.56-4.55,18.32-4.73,18.64-1.79,3.17-42.87,59-44.62,61.33l-1,1.4Z" transform="translate(0 -162.33)"/><path class="cls-14" d="M544.6,1253.75s-3.08-7.91-8.58-7.93a6.29,6.29,0,0,1,5.7,1C544.36,1248.89,544.6,1253.75,544.6,1253.75Z" transform="translate(0 -162.33)"/><path class="cls-12" d="M464.54,1238.47l-4.91,31s18.69,15,29.58,11.84c9.14-2.65,2.88-14.6,2.88-14.6s-4.87-16.56-3.38-25.24S464.54,1238.47,464.54,1238.47Z" transform="translate(0 -162.33)"/><path class="cls-7" d="M468.09,1247.84a76.46,76.46,0,0,0,21.15,6c-.68-4.35-1.07-8.94-.5-12.33.69-4-4.41-5-10.08-4.81-7.45.63-14.08,1.8-14.08,1.8l-1,6A15.26,15.26,0,0,0,468.09,1247.84Z" transform="translate(0 -162.33)"/><path class="cls-12" d="M441,1202.69c-.77,0,7.39,34.65,20,40.61s31.45,2.86,35-6.48c3.91-10.32-10.34-45.67-28.1-50.16S441,1202.69,441,1202.69Z" transform="translate(0 -162.33)"/><path class="cls-20" d="M455.56,1170.85a39.87,39.87,0,0,0-16.27,18c-4.73,2.25-10.46,7.1-13.21,20.2-3.38,16.09,8.64,28.5,21.38,32.23s14.71,12.16,14.71,12.16l1.45-9.07s-2.84-7.9-7.1-11.86,2-9.71,2.57-14.41c.43-3.62-2.24-10.65-1.66-16.59,0,0,7.08-10.73,14.06-13.38C483.4,1183.59,468.5,1163.4,455.56,1170.85Z" transform="translate(0 -162.33)"/><path class="cls-12" d="M460.93,1224.11c1.65,4,1,8-1.51,8.88s-5.83-1.62-7.48-5.62-1-8,1.51-8.88S459.28,1220.11,460.93,1224.11Z" transform="translate(0 -162.33)"/><path class="cls-17" d="M508,1379.08l73.49-12s-8.36-21-11.35-21-55.56,23-55.56,23l-4.19,8.39Z" transform="translate(0 -162.33)"/><path class="cls-21" d="M470.32,1429.47s-7.33,35.44-4.35,62.32,3.23,122.33,3.23,122.33l-11.41,152.74,27,.59s32.08-152.67,31.48-148.75,10.82-107.49,10.82-107.49l-38.24-85.1Z" transform="translate(0 -162.33)"/><path class="cls-8" d="M477.49,1427.79s-4.78,31.91,1.19,45.91,51.25,151.33,51.85,162.52,15.65,135,15.65,135l31.45-.88,6.81-137.6L570.19,1459.8l-13.83-43.73Z" transform="translate(0 -162.33)"/><path class="cls-12" d="M459.64,1269.48s7.76,5.09,15,4.5,17.46-7.26,17.46-7.26l-1.43-4.82s-18.71-2.73-19.18-2.43S459.64,1269.48,459.64,1269.48Z" transform="translate(0 -162.33)"/><path class="cls-17" d="M542.3,1345s27.8,26.24,40.35,21.76,17.74-19.79-12.88-42.19C542.37,1304.53,542.3,1345,542.3,1345Z" transform="translate(0 -162.33)"/><path class="cls-19" d="M561.15,1377.4c-4.13-22.46-34.07-92.37-36.45-105.25-1.16-6.26-17.31-6.4-32.68-5.58-16.24.86-32.38,2.91-32.38,2.91s-14.39,2.37-20.7,8.29-8,22.32,1.08,53.44c7.18,24.57,16.07,38.06,20.48,56,.9,6,1.66,11.92,2.68,18.84,1.61,26.76,0,62.1,0,62.1s78.27,16.24,107.55-8.4C570.7,1459.7,565.37,1400.4,561.15,1377.4Z" transform="translate(0 -162.33)"/><path class="cls-19" d="M581.09,1329.1s-30.7,25.35-32.5,25.35c-1.15,0-43.82-31.39-53.68-57.18-5.44-14.26,6-30.21,19-30.16,9.05,0,13.07,2.37,31,17.48S581.09,1329.1,581.09,1329.1Z" transform="translate(0 -162.33)"/><path class="cls-15" d="M481.7,1229.53l10.41-7.79s2.76,4.21-1.71,7.77C484.93,1233.85,481.7,1229.53,481.7,1229.53Z" transform="translate(0 -162.33)"/><path class="cls-15" d="M2009.17,922.07l17,3.25s-1.63,6.42-9.16,5.21C2007.86,929.05,2009.17,922.07,2009.17,922.07Z" transform="translate(0 -162.33)"/><path class="cls-7" d="M2183.22,1421.66c-4.68.74-9.46-.15-11.53-4.43C2171.23,1422.31,2178.92,1424.83,2183.22,1421.66Z" transform="translate(0 -162.33)"/><path class="cls-15" d="M2010.81,1123a2.43,2.43,0,0,1-1.53-.51,2.57,2.57,0,0,1-.54-3.59h0a588.68,588.68,0,0,0,37-56.24,2.57,2.57,0,0,1,4.45,2.58,589.07,589.07,0,0,1-37.35,56.73A2.55,2.55,0,0,1,2010.81,1123Z" transform="translate(0 -162.33)"/><g class="cls-22"><path class="cls-23" d="M2050.6,870.32a4.84,4.84,0,0,1,7.52-5.32c4.11,3.07,8.4,6,12.74,8.71a4.84,4.84,0,0,1-4.88,8.37l-.24-.16c-4.58-2.85-9.09-5.93-13.41-9.16A4.75,4.75,0,0,1,2050.6,870.32Z" transform="translate(0 -162.33)"/></g><path class="cls-21" d="M2347.12,1795.09l-347.92-671a7.7,7.7,0,0,1,13.67-7.08l347.92,671.05a7.7,7.7,0,1,1-13.49,7.44q-.09-.16-.18-.36Z" transform="translate(0 -162.33)"/><path class="cls-21" d="M2181.84,1800.25l-297.36-683.32a7.7,7.7,0,0,1,13.91-6.6c.07.15.14.3.2.45L2196,1794.07a7.7,7.7,0,0,1-4,10.13h0a7.55,7.55,0,0,1-3.07.65A7.68,7.68,0,0,1,2181.84,1800.25Z" transform="translate(0 -162.33)"/><path class="cls-8" d="M1947.71,1247h120.62a4.81,4.81,0,0,0,0-9.62H1947.71a4.81,4.81,0,1,0,0,9.62Z" transform="translate(0 -162.33)"/><path class="cls-21" d="M1979.94,1321.72h120.62a4.81,4.81,0,0,0,0-9.62H1979.94a4.81,4.81,0,1,0,0,9.62Z" transform="translate(0 -162.33)"/><path class="cls-21" d="M2022.48,1411.25h128.3a4.81,4.81,0,0,0,0-9.62h-128.3a4.81,4.81,0,1,0,0,9.62Z" transform="translate(0 -162.33)"/><path class="cls-21" d="M1915.65,1174.51h115.09a4.81,4.81,0,0,0,0-9.62H1915.65a4.81,4.81,0,1,0,0,9.62Z" transform="translate(0 -162.33)"/><path class="cls-21" d="M2064.78,1514.15h139.41a4.81,4.81,0,0,0,0-9.62H2064.78a4.81,4.81,0,1,0,0,9.62Z" transform="translate(0 -162.33)"/><path class="cls-21" d="M2097.54,1594h149.53a4.82,4.82,0,0,0,0-9.63H2097.54a4.82,4.82,0,0,0,0,9.63Z" transform="translate(0 -162.33)"/><path class="cls-8" d="M2127,1496.92c15.39-13.41,48.48-24.14,48.48-24.14l19.9.43c5.06,5.69,7.34,16.7,8.32,23.6-3.75,2.25-10.78,4.22-23.66,4.83A193.46,193.46,0,0,1,2127,1496.92Z" transform="translate(0 -162.33)"/><path class="cls-21" d="M2127,1496.92a193.14,193.14,0,0,0,53,4.72c12.88-.61,19.91-2.58,23.66-4.83.07.56.15,1.1.21,1.59a5.87,5.87,0,0,1-4.13,6.33c-18.18,5.58-58.17,3.78-73.77,2.82a4.11,4.11,0,0,1-2.94-6.69A35.18,35.18,0,0,1,2127,1496.92Z" transform="translate(0 -162.33)"/><path class="cls-12" d="M2193.71,1456v15.83a6.45,6.45,0,0,1-5.1,6.31,25,25,0,0,1-11.15.11,6.17,6.17,0,0,1-4.61-5.29l-2-17Z" transform="translate(0 -162.33)"/><path class="cls-21" d="M2093.05,1374.92c6.17-13.75,4.41-19.93,16.63-18.56a16.93,16.93,0,0,1,3.72.81,11,11,0,0,1,0,7.17,135.91,135.91,0,0,1-21.41,39,13.4,13.4,0,0,1-10.31,5l-13.48.22C2081,1398.42,2087.93,1386.33,2093.05,1374.92Z" transform="translate(0 -162.33)"/><path class="cls-8" d="M2067.35,1388.25c10.34-7.28,14.21-37,14.21-37l15.94-8.12,12,8.71a11.07,11.07,0,0,1,3.88,5.35,16.93,16.93,0,0,0-3.72-.81c-12.22-1.37-10.46,4.81-16.63,18.56-5.12,11.41-12.06,23.5-24.85,33.72l-9.26.16a5,5,0,0,1-4-8A60.21,60.21,0,0,1,2067.35,1388.25Z" transform="translate(0 -162.33)"/><path class="cls-12" d="M2087.87,1328.14l9.63,15a4.37,4.37,0,0,1-1,5.79c-3.09,2.42-8.44,5.14-15,2.33l-15.47-10.6Z" transform="translate(0 -162.33)"/><path class="cls-19" d="M2160.13,1170.08s5.07,14.27,12.41,64.41,12.18,86.59,16.18,106.48c3.67,18.18,9.44,83.66,9.1,112.3a6.87,6.87,0,0,1-7,6.8h-.12l-18.94-.6a6.12,6.12,0,0,1-5.87-5.1c-5-29.48-39.67-181.62-60.57-225.38,0,0-55.59,15.71-69.45,22,0,0,17.92,7.17,54.64,76,0,0-15.86,12.6-27.09,15.22,0,0-80.36-66.65-88.85-73.62s-16.22-19,5.44-40.89,88.16-56.41,88.16-56.41Z" transform="translate(0 -162.33)"/><path class="cls-19" d="M2108.48,1230.54a.86.86,0,0,0,.41-.1l19.83-7.64a24.89,24.89,0,0,0,14.1-22.23,1,1,0,0,0-1-1,.91.91,0,0,0-1,.8v.15a23,23,0,0,1-13,20.51l-19.83,7.64a1,1,0,0,0-.29,1.39,1,1,0,0,0,.71.44Z" transform="translate(0 -162.33)"/><path class="cls-12" d="M1980.36,1165.86s-20.88-15.81-30.39-12.84-16.49,11.87-16.49,11.87h21s5,9.62,0,9.62h-7.42S1966.65,1195.05,1980.36,1165.86Z" transform="translate(0 -162.33)"/><path class="cls-24" d="M2015.71,1016.8s-24.5,96.89-57.69,135.85c0,0,9,10.24,22.34,13.21,0,0,51-44.66,66.46-75.69S2015.71,1016.8,2015.71,1016.8Z" transform="translate(0 -162.33)"/><path class="cls-12" d="M2048.48,924.57l24.35,44.53h-38.42s-3.09-20.36-13.19-32.61Z" transform="translate(0 -162.33)"/><path class="cls-12" d="M2011.57,871.55s-12.19,28-13,42.72-4,24.25,13,27.21,31.33-5.51,39.09-20.16c0,0,12.16-22.57,9.43-31.82S2011.57,871.55,2011.57,871.55Z" transform="translate(0 -162.33)"/><path class="cls-8" d="M2044.85,910.79h-2.15s8.86-18.17,1.07-21.36-38.6-9.48-45.25-20.42c-6.42-10.54-.7-24.16,7.86-28a1.15,1.15,0,0,1,1.45.53l.71,1.35a1.16,1.16,0,0,0,2.13-.22h0a1.16,1.16,0,0,1,2.07-.32c2,3.27,7.55,8.59,22.34,11.32,21,3.87,34.85,12.36,35.19,26.86a1.14,1.14,0,0,0,1.16,1.14,1.16,1.16,0,0,0,.62-.19c1.55-1,4-1.39,7.34,1.4,5.77,4.84,3.41,17.41-9.22,27.74a1.15,1.15,0,0,0-.24,1.61.91.91,0,0,0,.24.24c2.29,1.49,5.71,5-3.14,9.77-9,4.83-14.4,4.3-16.42,3.79a1.15,1.15,0,0,1-.87-1.2l.79-12.85a1.14,1.14,0,0,0-1.08-1.21h-.07Z" transform="translate(0 -162.33)"/><path class="cls-12" d="M2044.32,913.48s4.65-17.9,12.68-12.88-4.17,20-10.62,20.72Z" transform="translate(0 -162.33)"/><path class="cls-25" d="M2078.21,965.61s-10.86-17.84-81.85-13.46c-36.88,2.27-119.88-29.9-138.37-46.07,0,0-12-.07-23.16,11.55,0,0,76.66,80.89,166,91.24,0,0,67.82,139.78,67.35,162.47,0,0,40.26,27,94.88,7.67,0,0,1.67-38.85-19.64-92.52C2115.78,1016.8,2078.21,965.61,2078.21,965.61Z" transform="translate(0 -162.33)"/><path class="cls-12" d="M1836.24,913.7c-.62,2.26,7.65,5.38,12.12-4,0-4.39,2-23.29-.76-26.77-14.66-18.53-42.61-41.41-42.61-41.41a6.45,6.45,0,0,0-.48,9l13.64,13.2c-2.57,5.07-5.77,9.38-7.12,15.45a18.41,18.41,0,0,0,2.33,13.48c2.46,4.07,5.8,9.35,8.93,13.47A18.16,18.16,0,0,0,1836.24,913.7Z" transform="translate(0 -162.33)"/><path class="cls-15" d="M2003.58,921l17,3.25s-1.63,6.42-9.16,5.21C2002.27,928,2003.58,921,2003.58,921Z" transform="translate(0 -162.33)"/></svg>