<?xml version="1.0" encoding="utf-8"?>
<!-- Generator: Adobe Illustrator 24.0.0, SVG Export Plug-In . SVG Version: 6.00 Build 0)  -->
<svg version="1.1" xmlns="http://www.w3.org/2000/svg" xmlns:xlink="http://www.w3.org/1999/xlink" x="0px" y="0px"
	 viewBox="0 0 2604.4 1817.3" style="enable-background:new 0 0 2604.4 1817.3;" xml:space="preserve">
<style type="text/css">
	.st0{opacity:0.22;fill:#87BAD0;enable-background:new    ;}
	.st1{fill:#347261;}
	.st2{fill:#407F6C;}
	.st3{fill:#2B6050;}
	.st4{fill:#649E89;}
	.st5{fill:#FE875E;}
	.st6{fill:#4D8975;}
	.st7{fill:#0F393A;}
	.st8{fill:#EDCB50;}
	.st9{fill:#1B5151;}
	.st10{fill:#FFDD7E;}
	.st11{fill:#004656;}
	.st12{fill:#F7A491;}
	.st13{fill:#7BAABA;}
	.st14{fill:#87BAD0;}
	.st15{fill:#F47458;}
	.st16{fill:#FFFFFF;}
	.st17{fill:#F8A492;}
	.st18{fill:#E27950;}
	.st19{fill:#EF8351;}
	.st20{fill:#13375B;}
</style>
<g id="Layer_1">
	<title>header-achat-groupes-poemop</title>
</g>
<g id="Calque_2">
	<path class="st0" d="M2447.7,1821.1c-132.5-100.7-359.2-350.6-60.7-742.8c369.1-485-72.9-684-496.7-663.3
		C1549.5,431.7,1165.8,3.2,783.1,79.8C275.2,181.5,605,618.9,260.6,854.6C-33.2,1055.5,93,1668,475.2,1821.1H2447.7z"/>
	<g id="Calque_4">
		<path class="st1" d="M2261.2,532.6c0,0-39.4,85.9-66,122.2c-26.5,36.3-51.8,71-73,171.7c-21.2,100.7-17.6,110.8-23.4,136.8
			c-5.8,26-43.5,131.4-43.7,150.7c-0.2,19.3-76.2,129.3-95.7,180.8c-19.5,51.5-54,125-52,162.4l8.7-2.2c0,0,7.1-87.3,67.2-175.5
			c60.1-88.2,51.5-104.9,119.8-150.2c68.3-45.4,112.3-170.5,112.3-170.5s69.4-136,66.2-206.7
			C2278.2,681.3,2296.6,617.6,2261.2,532.6z"/>
		<path class="st1" d="M2168.8,400.5c0,0-2.3,56.4-20.5,89.9s-33.9,53.9-37.2,90.1c-3.3,36.3-14.7,129.7-65.5,175.4
			c-50.7,45.6-57.2,182.4-95.9,223.7c-38.6,41.4-43.7,71.1-36.5,142s31.4,169.3-24.7,297.6l-12.7-31.9c0,0,40.1-105.6,30.4-167.4
			c-9.7-61.8-43.5-155.2-31.1-200c12.4-44.7-33.6-53.5-5.9-121.3c27.7-67.8,16.3-91.3,54-149.9c0,0,3.9-2.7,13.8-52.3
			c9.9-49.6,89.8-140.4,126.6-171.4C2100.3,494.1,2153.4,444.3,2168.8,400.5z"/>
		<path class="st2" d="M2018.9,679.8c0,0-44.1,75.4-44.7,124s4.6,88.1-17.7,154.6c-22.3,66.5,22,108.5,9.2,145.3
			s-13.8,80.2-13.4,113.1c0.4,33-50.5,142.1-58.2,197.3c-7.7,55.2,2.1,55.4,2.1,55.4s8.5-72.9,20.1-97
			c11.6-24.1,47.3-107.3,55.6-139.4s30.8-52.8,50.3-107.3c19.4-54.5,47.1-100.4,45-177.7C2065.2,870.8,2096.3,789.2,2018.9,679.8z"
			/>
		<path class="st2" d="M1925.6,1418.8c0,0,20.5-95.7,107.2-105.3c86.6-9.6,137.5,7.6,198.8-62.4c61.2-69.9,96.8-180.9,116.3-200.1
			c0,0-30.8-15.9-81.9,32c-51.1,47.8-87.1,84.1-116.7,111.9c-29.6,27.8-53.6,9.7-84.9,28c-26.2,15.4-60.1,59.8-75,83.1
			c-4.8,7.6-10.6,14.5-17.2,20.6c-6,5.5-13.2,12.3-17.7,17.3c-9.2,10-35.6,75.1-35.6,75.1L1925.6,1418.8z"/>
		<path class="st2" d="M1895.1,1401.9c0,0,30.5-117.1,10.1-174.4c-20.5-57.3-84.5-99.7-81.9-135.7s43.7-133.3,10.2-205.7
			c0,0-12.7,64.6-25.3,79c-12.6,14.4-98.8,72.3-83.5,148.9c15.3,76.6,99.1,94.4,119.8,117c20.6,22.5,48.5,22.5,48.7,37.5
			c0.1,15,5.6,69.5-3.6,123.2L1895.1,1401.9z"/>
		<path class="st3" d="M1928.5,1323.6l42.9-123.6c0,0,25.2-99.4,39.8-182.3c14.6-82.9,7.7-337.9,7.7-337.9s-44.1,75.4-44.7,124
			c-0.6,48.6,4.6,88.1-17.7,154.6c-22.3,66.5,22,108.5,9.2,145.3s-13.8,80.2-13.4,113.1c0.4,33-50.5,142.1-58.2,197.3
			c-4.2,30.3-3.2,44-1.4,50.2C1885.9,1415.9,1928.5,1323.6,1928.5,1323.6z"/>
		<path class="st1" d="M2139.8,1250c-38.3,7.6-72.5,5-117.9,38.9c-45.4,33.8-72.1,69.9-72.1,69.9s-20.4,36.5-28.9,55.7
			c-1.2,2.9-1.9,4.7-1.9,4.7l6.7-0.3c0,0,20.5-95.7,107.2-105.3c86.6-9.6,137.5,7.6,198.8-62.4c61.2-69.9,96.8-180.9,116.3-200.1
			c0,0-65.1,50.6-105.3,95.5C2202.3,1191.4,2178.1,1242.3,2139.8,1250z"/>
		<path class="st3" d="M1808.1,965.1c-12.6,14.4-98.8,72.3-83.5,148.9c15.3,76.6,99.1,94.4,119.8,117c20.6,22.5,48.5,22.5,48.7,37.5
			c0.1,15,5.6,69.5-3.6,123.2l2.5,4.5c4.5-21,10.8-52.9,12.8-77.2c3.3-39.4-3-55.7-15.7-87.6c-12.7-31.9-91.4-96.9-111.1-131.1
			c-19.7-34.2,38-91.3,50.8-118.9c12.8-27.6,4.6-95.2,4.6-95.2S1820.7,950.7,1808.1,965.1z"/>
		<path class="st3" d="M2012.7,1345.4l13.5-32.6c10.5-23.9,37.2-35.4,59.7-25.5l0,0c56.8,24.8,81.5,93.8,55.2,154.1l-19.3,44.1
			c-8.5,19.3-5.5,40.6,5.9,55.6c10.3,13.6,12,32.5,4.8,49l-10.1,23.3c-10.8,24.8-31.9,43.6-57.7,51.5c-15.7,4.9-28.4,16.4-34.9,31.5
			l-14.4,32.9c-15.9,36.4-56.6,53.8-90.8,38.8l-19.6-8.5c-34.3-15-49.2-56.6-33.3-93l0,0c25.7-43.5,23.6-76,14.5-98.1
			c-13.5-33-13.1-70.2,1.3-102.9l2-4.7c15-34.5,44.1-60.9,80-72.4C1985,1383.7,2001.2,1371.6,2012.7,1345.4z"/>
		<path class="st4" d="M1770.1,1805.1c27.5-35.7,178.7-227.2,277.2-259.1c108.8-35.2,6.3,104.7,6.3,104.7s193-211,263.8-192
			c64.9,17.4,0,148.2,0,148.2s73.1-72.4,161.8-72.4c86.3,0-60.3,256.9-68.2,270.6L1770.1,1805.1z"/>
		<path class="st1" d="M2351.7,1390.9c-79.5,124.2-136.8,261.4-169.3,405.2l-5.4-1.4c32.8-142.6,89.9-278.5,168.6-401.9
			c18.3-28.6,38.1-62.5,72.3-73.7c0.7-0.2,0.9,0.8,0.3,1.1C2387,1332.1,2368.8,1364.2,2351.7,1390.9z"/>
		<path class="st1" d="M2201.4,1801.3c91.1-124,199.8-234.1,322.6-326.9c1.3-1,3,1.3,1.7,2.2c-121,93-228,202.9-317.6,326.4
			L2201.4,1801.3z"/>
		<path class="st1" d="M2358.9,1314.6c2,3,9.8,10.8,12.1,21c3.1,9.7,0.6,21.8,0.4,21.4c-0.6,0.2,9-7.9,12-20.7
			c3.9-12.4,1.2-29.5-3.7-35.2c-8.3-12.8-22.9-14.1-25.7-7.9C2351,1299.4,2354.8,1307.8,2358.9,1314.6z"/>
		<path class="st1" d="M2377.8,1424.5c-2.9-2.1-10.6-10-20.8-12.5c-9.6-3.2-21.8-1.1-21.4-0.8c-0.2,0.6,8-8.8,21-11.6
			c12.4-3.6,29.5-0.6,35.1,4.3c12.7,8.6,13.7,23.1,7.4,25.8C2392.8,1432.7,2384.5,1428.7,2377.8,1424.5z"/>
		<path class="st1" d="M2349.3,1472.6c-2.9-2.1-10.6-10-20.7-12.5c-9.6-3.3-21.8-1.1-21.4-0.8c-0.3,0.6,8-8.8,21-11.6
			c12.4-3.6,29.5-0.6,35.1,4.3c12.7,8.6,13.7,23.1,7.4,25.8C2364.4,1480.8,2356,1476.9,2349.3,1472.6z"/>
		<path class="st1" d="M2450.8,1584.4c-2.9-2.1-10.6-10-20.8-12.5c-9.6-3.3-21.8-1.1-21.4-0.8c-0.3,0.6,8-8.8,21-11.6
			c12.4-3.6,29.5-0.6,35.1,4.3c12.7,8.6,13.7,23.1,7.4,25.8C2465.9,1592.6,2457.6,1588.6,2450.8,1584.4z"/>
		<path class="st1" d="M2502.7,1538.7c-2.9-2.1-10.6-10-20.8-12.5c-9.6-3.3-21.8-1.1-21.4-0.8c-0.3,0.6,8-8.8,21-11.6
			c12.4-3.6,29.5-0.6,35.1,4.3c12.7,8.6,13.7,23.1,7.4,25.8C2517.8,1546.9,2509.4,1542.9,2502.7,1538.7z"/>
		<path class="st1" d="M2319.1,1369.1c2.5,2.6,11.4,9.1,15.2,18.8c4.6,9.1,4.1,21.5,3.8,21.1c-0.5,0.3,7.6-9.2,8.6-22.4
			c1.9-12.8-3.5-29.3-9.2-34.1c-10.2-11.4-24.8-10.3-26.6-3.8C2308.9,1355.3,2314,1363,2319.1,1369.1z"/>
		<path class="st1" d="M2277.2,1423.7c3.5,1.9,15.9,5.3,22,14.5c7,8.2,7.9,22.2,7.4,21.9c-0.7,0.6,8.8-13.5,8.4-28.6
			c0.9-15.1-8.1-31.2-16-34.2c-14.6-8.3-33.4-0.9-34.9,7.2C2262.4,1412.7,2269.9,1419.1,2277.2,1423.7z"/>
		<path class="st1" d="M2233.2,1506.5c3.8,1.2,16.5,2.5,24.1,10.6c8.3,6.9,11.5,20.6,11,20.4c-0.6,0.7,6.3-14.8,3.4-29.6
			c-1.7-15-13.2-29.4-21.5-31c-15.8-5.7-33,4.7-33.2,13C2216.7,1498.1,2225.2,1503.2,2233.2,1506.5z"/>
		<path class="st1" d="M2363.5,1564.1c2.8,1.7,12.6,5.2,17.1,13c5.2,7.1,5.2,18.5,4.8,18.3c-0.6,0.5,7.9-10.5,8.5-22.8
			c1.6-12.2-4.8-25.8-11.1-28.7c-11.4-7.6-27.1-2.6-28.8,3.9C2352.1,1554.3,2357.8,1560,2363.5,1564.1z"/>
		<path class="st1" d="M2431.4,1333.9c-1.7-1.4-5.8-6.3-11.7-8.3c-5.6-2.3-12.9-1.6-12.6-1.4c-0.2,0.3,5.1-4.9,12.9-5.9
			c7.5-1.6,17.5,0.9,20.6,4.1c7.1,5.6,7.1,14.3,3.2,15.6S2435.2,1336.7,2431.4,1333.9z"/>
		<path class="st1" d="M2415.6,1298.8c0.1,2.1,1.5,8.5-0.6,14.4c-1.5,5.8-6.6,11.2-6.6,10.9c-0.4-0.1,7-1.1,12.6-6.6
			c5.9-5,9.9-14.4,9.3-18.8c-0.1-9.1-7-14.3-10.4-12.1S2415.7,1294.1,2415.6,1298.8z"/>
		<path class="st1" d="M2540.1,1492.1c-1.7-1.4-5.8-6.3-11.7-8.3c-5.6-2.3-12.9-1.6-12.6-1.4c-0.2,0.3,5.1-4.9,12.9-5.9
			c7.5-1.6,17.5,1,20.6,4.1c7.1,5.6,7.1,14.3,3.2,15.6C2548.6,1497.5,2543.9,1494.9,2540.1,1492.1z"/>
		<path class="st1" d="M2521,1456.7c0.3,2.1,2.2,8.4,0.6,14.4c-1.1,5.9-5.7,11.6-5.7,11.4c-0.4,0,6.9-1.7,12-7.6
			c5.4-5.4,8.7-15.2,7.7-19.5c-0.8-9-8.1-13.8-11.3-11.2C2521.1,1446.6,2520.7,1452,2521,1456.7z"/>
		<path class="st1" d="M2507.8,1685.9c-80.5,8.8-155.5,44.4-227.7,79c-48.7,23.4-46.2,30-56.1,33.5c-1.1,0.3-2.2-0.2-2.5-1.3
			c-0.2-0.5-0.1-1,0.1-1.4c3.8-7.6,13.8-12.7,20.8-17c8.1-5,16.5-9.6,25.2-13.8c18.4-8.9,37.2-16.9,56-25.1
			c38.1-16.6,76.8-32.1,117.1-42.7c22-5.9,44.5-9.9,67.3-12c0.2,0,0.3,0.1,0.4,0.3C2508.1,1685.6,2508,1685.8,2507.8,1685.9
			L2507.8,1685.9L2507.8,1685.9z"/>
		<path class="st1" d="M2435.2,1660.9c0.5,3.3,4,12.9,1.8,22.4c-1.3,9.3-8.1,18.6-8.1,18.1c-0.6,0,10.6-3,18.2-12.7
			c8.1-8.8,12.6-24.3,10.8-30.9c-1.9-14-13.6-20.9-18.4-16.8C2434.7,1645.1,2434.4,1653.6,2435.2,1660.9z"/>
		<path class="st1" d="M2364.3,1686.3c0.5,3.3,4,12.9,1.8,22.4c-1.3,9.3-8.1,18.6-8.1,18.1c-0.6,0,10.6-3,18.2-12.7
			c8.1-8.8,12.6-24.3,10.8-30.9c-1.9-14-13.6-20.9-18.4-16.8C2363.8,1670.5,2363.5,1679,2364.3,1686.3z"/>
		<path class="st1" d="M2292.2,1718.4c0.5,3.3,4,12.9,1.8,22.4c-1.3,9.3-8.1,18.6-8.1,18.1c-0.6,0,10.6-3,18.2-12.7
			c8.1-8.8,12.6-24.3,10.8-30.9c-1.9-14-13.6-20.9-18.4-16.8C2291.7,1702.6,2291.5,1711.1,2292.2,1718.4z"/>
		<path class="st1" d="M2456.4,1727.2c-1.5-2.7-4.2-11.7-11.1-17.5c-6.1-6.2-16.3-9.2-16.1-8.8c-0.4,0.3,9.5-3.7,20.5-0.8
			c10.9,2,22.8,10.8,25.2,16.7c6.4,11.4,1.6,22.9-4.2,22.6C2464.8,1739,2459.9,1733,2456.4,1727.2z"/>
		<path class="st1" d="M2382.6,1753.3c-1.4-2.7-4.2-11.7-11.1-17.5c-6.1-6.2-16.3-9.2-16.1-8.8c-0.4,0.3,9.5-3.7,20.5-0.8
			c10.9,2,22.8,10.8,25.2,16.7c6.4,11.4,1.6,22.9-4.2,22.6C2391,1765.2,2386.1,1759.1,2382.6,1753.3z"/>
		<path class="st1" d="M2512.5,1700.3c-1.3-1.5-4.2-6.8-9.3-9.5c-4.7-3.1-11.4-3.6-11.3-3.4c-0.2,0.3,5.5-3.6,12.7-3.2
			c7.1-0.2,15.8,3.8,18.1,7.2c5.5,6.3,4.1,14.2,0.3,14.8C2519.4,1706.6,2515.5,1703.5,2512.5,1700.3z"/>
		<path class="st1" d="M2504,1665.6c-0.3,2-0.1,8-2.9,13c-2.4,5.1-7.9,9.1-7.8,8.8c-0.3-0.1,6.6,0.2,12.6-3.9
			c6.2-3.5,11.5-11.5,11.6-15.6c1.4-8.3-4-14.2-7.4-12.8S2504.9,1661.3,2504,1665.6z"/>
		<path class="st5" d="M1903.9,1400.7c-5,0.8-10-0.2-12.2-4.7C1891.2,1401.3,1899.3,1404,1903.9,1400.7z"/>
	</g>
	<g id="Calque_3">
		<path class="st1" d="M548.6,1191.4C454,1107,405.3,985.9,381.2,899.1c-26.2-94.2-30-169.4-30.1-170.1l-5.1-0.3
			c0,0.8,3.9,76.5,30.2,171.3c24.3,87.6,73.5,210,169.3,295.4L548.6,1191.4z"/>
		<path class="st1" d="M361.9,707.2c4.7,21.7,0.8,42.2-9.2,57c-15.6-11.5-27.8-29.9-32.5-51.5c-4.7-21.7-0.8-42.2,9.2-57
			C345,667.1,357.2,685.5,361.9,707.2z"/>
		<path class="st1" d="M332.9,769c16.3,15.2,25.8,35.1,27.7,54.3c-17.9,0.8-37.6-6.4-53.9-21.6s-25.8-35.1-27.7-54.3
			C296.9,746.5,316.6,753.8,332.9,769z"/>
		<path class="st1" d="M325.2,833.9c19.7,6.3,36.4,19.7,46.7,37.6c-14.7,9.4-34.4,12.2-54.6,5.8c-19.7-6.3-36.4-19.7-46.7-37.6
			C285.3,830.2,305,827.5,325.2,833.9z"/>
		<path class="st1" d="M356.4,911.9c16.1,5.1,28.9,18,36.1,34.4c-12.2,10.2-28.1,14.1-44.1,9c-16.1-5.1-28.9-18-36.1-34.4
			C324.5,910.8,340.4,906.9,356.4,911.9z"/>
		<path class="st1" d="M383.8,800.5c11.9-12.1,28.6-18.2,45.5-16.4c1,17.5-5.4,34.7-17.6,47.2c-11.9,12.1-28.6,18.2-45.5,16.4
			C365.2,830.2,371.6,813.1,383.8,800.5z"/>
		<path class="st1" d="M398.5,856.5c11.9-12.1,28.6-18.2,45.5-16.4c1.1,17.5-5.3,34.7-17.6,47.2c-11.9,12.1-28.6,18.2-45.5,16.4
			C379.8,886.2,386.2,869,398.5,856.5z"/>
		<path class="st3" d="M491.6,1305.8c-87.4-12.7-162.1-64.5-209.5-105.7c-51.4-44.7-82.5-86.9-82.8-87.4l-3.1,1.8
			c0.3,0.4,31.6,43,83.3,88c47.8,41.6,123.3,93.9,211.8,106.8L491.6,1305.8z"/>
		<path class="st3" d="M197.2,1096c11,10.8,16.6,24.2,16.5,36.6c-13.5-0.7-27.6-6.7-38.7-17.5c-11-10.8-16.6-24.2-16.5-36.7
			C172,1079.2,186.2,1085.2,197.2,1096z"/>
		<path class="st3" d="M204.1,1143c15.3,2.6,28.5,10.5,36.9,20.9c-10.1,7.3-24.3,10.7-39.6,8.1s-28.5-10.5-36.9-20.9
			C174.6,1143.8,188.8,1140.5,204.1,1143z"/>
		<path class="st3" d="M224.5,1183.7c13.9-3.9,28.7-2.5,41.6,3.9c-4.9,11.1-15.3,20.3-29.6,24.3c-13.9,3.9-28.7,2.5-41.6-3.9
			C200,1196.9,210.3,1187.8,224.5,1183.7z"/>
		<path class="st3" d="M272.6,1217.1c11.3-3.2,23.7-0.6,34.2,6.1c-3,10.8-11.4,19.2-22.2,22.2c-11.3,3.2-23.7,0.6-34.2-6.1
			C253.4,1228.5,261.8,1220.1,272.6,1217.1z"/>
		<path class="st3" d="M245.8,1141.8c2.2-11.6,9.7-21.6,20.2-27c7.3,9.8,10.2,22.2,7.9,34.2c-2.2,11.6-9.7,21.6-20.2,27
			C246.3,1166.2,243.5,1153.8,245.8,1141.8z"/>
		<path class="st3" d="M275.8,1168.7c2.2-11.6,9.7-21.6,20.2-27c7.3,9.8,10.2,22.2,7.9,34.2c-2.2,11.6-9.7,21.6-20.2,27
			C276.3,1193.2,273.5,1180.7,275.8,1168.7z"/>
		<path class="st4" d="M544.2,1567.3c-100.8,38.3-211.7,18.1-287-5.6c-81.8-25.7-140.4-61-141-61.4l-2.2,4.2
			c0.6,0.4,59.6,35.9,141.9,61.8c76.1,23.9,188.1,44.3,290.2,5.6L544.2,1567.3z"/>
		<path class="st4" d="M103.8,1479.9c17.6,6.8,31.8,20.1,39.8,37.1c-14.8,7.5-33.5,8.7-51.8,1.6c-17.6-6.8-31.8-20.1-39.8-37.1
			C66.8,1473.9,85.5,1472.8,103.8,1479.9z"/>
		<path class="st4" d="M139.5,1536.5c17.1-6.1,36-4.6,52,4c-6.7,16.6-20.3,29.5-37.3,35.3c-17.1,6-36,4.6-52-4
			C108.9,1555.3,122.5,1542.4,139.5,1536.5z"/>
		<path class="st4" d="M185.8,1576.4c12.7-14.2,29.8-21.3,46.7-21c1.5,18.3-4.6,36.4-16.8,50.1c-12.7,14.2-29.8,21.3-46.7,21
			C167.6,1608.2,173.6,1590.1,185.8,1576.4z"/>
		<path class="st4" d="M250.7,1597c12.7-14.2,29.8-21.3,46.7-20.9c1.5,18.3-4.5,36.4-16.8,50.1c-12.7,14.2-29.8,21.3-46.7,21
			C232.5,1628.8,238.5,1610.7,250.7,1597z"/>
		<path class="st4" d="M189.7,1530.5c-11.2-14.5-16.1-32-15-47.9c14.7,1.7,29.7,10.3,40.9,24.8c11.2,14.5,16.1,32,15,47.9
			C215.8,1553.6,200.8,1545,189.7,1530.5z"/>
		<path class="st4" d="M257.1,1551.6c-11.4-14.4-16.6-31.8-15.7-47.7c14.7,1.5,29.8,9.7,41.2,24.1c11.4,14.4,16.6,31.8,15.7,47.8
			C283.5,1574.2,268.4,1566,257.1,1551.6z"/>
		<path class="st4" d="M336,1602.6c2.7-7.2,8.6-12.7,15.9-15c3.5,7.2,3.8,15.4,0.9,22.9c-2.7,7.2-8.6,12.7-15.9,15
			C333.4,1618.3,333.1,1610.1,336,1602.6z"/>
		<path class="st1" d="M760.5,1795.6c0,0,128.4-507.9,85.8-558.9c-58.8-70.5-107.4,163.4-112.2,143.5
			c-45-187.6-57-427.7-202.1-453.1c-82.5-14.5,19,178.5,12.9,230.7s-154.7-121.1-245-211.9s-137-33.3-79.9,80.8
			c55.2,110.4,233.7,231,196.9,245.3c-36.8,14.3-260.2-128.2-287.6-67.3c-33.5,74.7,301.6,176.4,270,193.2
			c-31.5,16.8-191.7-38.5-187.4,18.6c4.4,57.1,219.7,55,216,80.1c-6,40.7-148.4-51.4-154.6,4.9c-6.4,57.6,187.4,47.1,184,92.1
			c-1.9,25.8-43.5-13.1-49.6,22.6c-14,81.5,241.5,180.8,241.5,180.8L760.5,1795.6z"/>
		<path class="st3" d="M858.4,1798.6c0,0-122.2-187.4-181-222.7c-62.7-37.7-15,75.1-15,75.1s-128-152.4-163.6-121.4
			c-35.6,31-3.3,66.8-3.3,66.8s-114.9-34.1-135.6,8.1c-31.7,64.9,157.5,118.6,157.5,118.6s-81.2-0.9-66.3,42.9
			C473.7,1832.1,858.4,1798.6,858.4,1798.6z"/>
		<path class="st4" d="M359.9,1604.6c20.7-42.2,135.6-8.1,135.6-8.1s-32.3-35.8,3.3-66.8c35.6-31,138,61.7,138,61.7
			s-10.7-76.4,66.4-9.1c55.1,48.1,155.2,216.4,155.2,216.4L359.9,1604.6z"/>
		<path class="st6" d="M710,1328.2l5.5-3.7c-99.5-150.7-129.9-329.6-137.8-453.1c-8.6-134.1,6.5-233.7,6.7-234.7l-6.8-2
			c-0.2,1.1-15.4,101.3-6.8,236.2C578.8,995.5,609.5,1175.9,710,1328.2z"/>
		<path class="st6" d="M604,613.2c0.2,30.3-10.3,55.3-27,70.3c-18-23.3-27.8-51.7-28.1-81.1c-0.2-30.3,10.3-55.3,27-70.3
			C593.8,555.3,603.7,583.8,604,613.2z"/>
		<path class="st6" d="M550.1,681.3c16.9,26.8,23.9,56.8,21.2,82.6c-23.3-6.6-46.7-24.5-63.7-51.3c-17-26.8-23.9-56.8-21.2-82.6
			C509.7,636.6,533.1,654.5,550.1,681.3z"/>
		<path class="st6" d="M522.9,762.5c23.9,16.9,41.5,41.1,50.2,69c-21.5,6-47.6,1.1-71.9-15.9c-23.9-16.8-41.5-41.1-50.2-69
			C472.4,740.7,498.5,745.6,522.9,762.5z"/>
		<path class="st6" d="M554.7,904.4c10.5,6.4,18.5,16.1,22.9,27.5c-8.7,3.3-19.7,2.1-30.4-4.3c-10.5-6.4-18.5-16.1-22.9-27.5
			C533.1,896.9,544.1,898.1,554.7,904.4z"/>
		<path class="st6" d="M563.4,957c10.5,6.4,18.5,16.1,22.9,27.5c-8.7,3.2-19.7,2.1-30.4-4.3c-10.5-6.4-18.5-16.1-22.9-27.5
			C541.7,949.5,552.7,950.7,563.4,957z"/>
		<path class="st6" d="M607.3,744.2c19.7-11.2,42.7-11,63.1-1.8c-3.4,22.7-15.7,42.8-35.3,54c-19.7,11.2-42.7,11-63.1,1.8
			C575.4,775.5,587.7,755.4,607.3,744.2z"/>
		<path class="st6" d="M611.3,823.4c19.7-11.1,42.7-11,63.1-1.8c-3.4,22.7-15.7,42.8-35.3,54s-42.7,11-63.1,1.8
			C579.3,854.7,591.6,834.6,611.3,823.4z"/>
		<path class="st6" d="M607.3,936.8c12.8-7.2,27.8-7.2,41.1-1.2c-2.2,14.8-10.2,27.9-23,35.1c-12.8,7.3-27.8,7.2-41.1,1.2
			C586.6,957.1,594.5,944,607.3,936.8z"/>
	</g>
	<g>
		<path class="st7" d="M609.5,899.1L1306,482.1c38.4-23,86.3-23,124.8,0l696.5,416.9l0,679.6l-1517.7-76.1V899.1z"/>
		<rect x="740.2" y="598" class="st8" width="1256.4" height="1085.8"/>
		<g>
			<path class="st7" d="M778.5,645.3c0-7.1,5.8-12.9,12.9-12.9c7.1,0,12.9,5.8,12.9,12.9c0,7.1-5.8,12.9-12.9,12.9
				C784.3,658.3,778.5,652.5,778.5,645.3z"/>
			<path class="st7" d="M1931.6,645.3c0-7.1,5.8-12.9,12.9-12.9c7.1,0,12.9,5.8,12.9,12.9c0,7.1-5.8,12.9-12.9,12.9
				C1937.4,658.3,1931.6,652.5,1931.6,645.3z"/>
			<g>
				<rect x="791.4" y="643.9" class="st7" width="1153.1" height="2.8"/>
			</g>
			<g>
				<rect x="790" y="640.2" class="st7" width="2.8" height="1153.1"/>
			</g>
			<g>
				<rect x="1943.6" y="640.2" class="st7" width="2.8" height="1153.1"/>
			</g>
		</g>
		<g>
			<polygon class="st9" points="2127.2,897.2 2127.2,1805.8 609.5,1805.8 609.5,897.2 1368.4,1351.5 			"/>
			<path class="st7" d="M609.5,1805.8l695.1-498.4c38.1-27.3,89.3-27.3,127.4,0l695.1,498.4H609.5z"/>
		</g>
		<path class="st10" d="M1600,748.4H1142c-6.7,0-12.1-5.4-12.1-12.1l0,0c0-6.7,5.4-12.1,12.1-12.1H1600c6.7,0,12.1,5.4,12.1,12.1
			l0,0C1612.1,743,1606.7,748.4,1600,748.4z"/>
		<path class="st10" d="M1718,796.9H1024c-6.7,0-12.1-5.4-12.1-12.1l0,0c0-6.7,5.4-12.1,12.1-12.1H1718c6.7,0,12.1,5.4,12.1,12.1
			l0,0C1730.1,791.5,1724.7,796.9,1718,796.9z"/>
		<g>
			<path class="st10" d="M1628,947.4h-502.2c-4.8,0-8.8-3.9-8.8-8.8l0,0c0-4.8,3.9-8.7,8.8-8.7H1628c4.8,0,8.7,3.9,8.7,8.7l0,0
				C1636.8,943.5,1632.8,947.4,1628,947.4z"/>
			<g>
				<path class="st10" d="M1176.3,993.1h-141.6c-4.8,0-8.7-3.9-8.7-8.8l0,0c0-4.8,3.9-8.8,8.7-8.8h141.6c4.8,0,8.8,3.9,8.8,8.8l0,0
					C1185,989.2,1181.1,993.1,1176.3,993.1z"/>
				<path class="st10" d="M1389.8,993.1h-171.1c-4.8,0-8.8-3.9-8.8-8.8l0,0c0-4.8,3.9-8.8,8.8-8.8h171.1c4.8,0,8.8,3.9,8.8,8.8l0,0
					C1398.6,989.2,1394.6,993.1,1389.8,993.1z"/>
				<path class="st10" d="M1719.2,993.1h-295.7c-4.8,0-8.8-3.9-8.8-8.8l0,0c0-4.8,3.9-8.8,8.8-8.8h295.7c4.8,0,8.8,3.9,8.8,8.8l0,0
					C1727.9,989.2,1724,993.1,1719.2,993.1z"/>
			</g>
			<g>
				<path class="st10" d="M1390.9,1046.3h-275.1c-4.8,0-8.8-3.9-8.8-8.8l0,0c0-4.8,3.9-8.8,8.8-8.8h275.1c4.8,0,8.8,3.9,8.8,8.8l0,0
					C1399.7,1042.3,1395.8,1046.3,1390.9,1046.3z"/>
				<path class="st10" d="M1638,1046.3h-216.6c-4.8,0-8.8-3.9-8.8-8.8l0,0c0-4.8,3.9-8.8,8.8-8.8H1638c4.8,0,8.8,3.9,8.8,8.8l0,0
					C1646.7,1042.3,1642.8,1046.3,1638,1046.3z"/>
			</g>
		</g>
		<path class="st7" d="M1468.2,1154.3c-16.5,13.7-34.3,25.2-52.9,35.6c1.6-4.9,2.9-10.1,2.7-14.7c-0.3-6.3-5.4-9.1-10.4-11.7
			c-1.2-0.6-2.4-1.3-3.6-2c1.9-1.9,3-4.6,1.7-7.5c-2.1-4.8-8.1-4-10.1,0.4c-0.4,0.8-0.6,1.6-0.7,2.4c-0.8-0.4-1.4-0.9-2-1.5
			c3.1-5.7,6-11.6,8.6-17.5c0.6-1.3-0.2-2.9-1.2-3.7c-4.4-3.3-10.4-2.3-14,1.9c-4.2,5-3.2,12.5-1.1,18.2c0.1,0.4,0.3,0.8,0.5,1.2
			c-3.9,7-8.1,13.9-12.7,20.6c-0.4-0.4-0.9-0.9-1.3-1.3c-1.2-1.2-2.5-2.6-3.5-4.3c2.1-5.4,3.4-11.1,3.9-17.1c0.2-2.7-2.4-4-4.6-3.1
			c-6.1,2.3-9.4,8.5-8.6,14.9c0.3,2.2,1,4.3,2,6.2c-1.4,3-3,5.8-4.9,8.6c-1.2,1.8-0.4,3.6,1.1,4.5c-2,6.7-4.7,13.5-9.3,18.3
			c-3.8,3.9-10.8,6.9-15.4,2.2c-2.9-3-3.3-7.9-3.7-11.8c-1-9.6-1.7-19.6-1.4-29.3c0.2-4.6,0.7-9.2,2.2-13.6c1-2.7,2.3-6.8,3.6-2.1
			c0.6,2.3-0.2,5.8-0.5,8.1c-0.4,4.1,6,4.6,6.4,0.5c0.5-4.9,2.7-15-2.8-18.1c-4.5-2.5-8.7,1.1-10.8,4.9c-7.6,13.6-4.6,32.3-3.4,47.1
			c0.9,11.8,5.3,26.3,20.4,22.5c14.2-3.5,19.4-21.4,22.7-33.7c0.2-0.8,0.1-1.5-0.1-2.1c0.1-0.1,0.1-0.2,0.2-0.3
			c0.6,0.6,1.2,1.2,1.8,1.8c0.8,0.7,1.6,1.5,2.4,2.3c-1.5,2.1-3,4.1-4.6,6.1c-0.9,1.1-0.6,2.9,0.3,3.9c4.8,5.7,13.4,1.5,13.2-5.6
			c0-1.6-0.4-3.1-1.1-4.4c4.5-6.4,8.7-13.1,12.6-19.9c2,2,4.6,3.2,7.7,3.1c0.2,0,0.4,0,0.6-0.1c1.7,1.7,3.7,3.2,5.6,4.3
			c1.8,1,3.9,1.7,5.6,3c3.1,2.5,2.2,5.4,1.5,8.9c-0.9,4.7-2.4,9.3-3.7,13.9c-6.5,3.7-12.9,8.5-15.1,15.9c-2,6.8-0.2,14,5.6,18.2
			c1.8,1.3,4.1,0.2,4.8-1.6c3.7-9,7-18.1,9.8-27.4c0.1-0.3,0.2-0.6,0.3-0.9c5.7-3.3,11.7-6.1,17.4-9.5c15-8.9,29.3-19,42.7-30.2
			C1475.7,1156.5,1471.4,1151.6,1468.2,1154.3z M1389.9,1145.7c-0.1-2.6,1.3-7.3,4.3-7.2c-1.3,2.9-2.7,5.8-4.2,8.6
			C1390,1146.6,1389.9,1146.2,1389.9,1145.7z M1398.1,1220.2c-2.7-5.1,1.2-11.3,5.6-15.5C1402,1209.9,1400.1,1215,1398.1,1220.2z"/>
	</g>
	<g>
		<path class="st8" d="M1029.5,1728.1H837.8c-9.2,0-16.7-7.5-16.7-16.7v-55.5c0-9.2,7.5-16.7,16.7-16.7h191.7
			c9.2,0,16.7,7.5,16.7,16.7v55.5C1046.2,1720.6,1038.7,1728.1,1029.5,1728.1z"/>
		<g>
			<path class="st11" d="M989.2,1661.3H848.1c-1.6,0-2.9-1.3-2.9-2.9l0,0c0-1.6,1.3-2.9,2.9-2.9h141.1c1.6,0,2.9,1.3,2.9,2.9l0,0
				C992,1660,990.7,1661.3,989.2,1661.3z"/>
			<path class="st11" d="M873.1,1673.6h-25c-1.6,0-2.9-1.3-2.9-2.9l0,0c0-1.6,1.3-2.9,2.9-2.9h25c1.6,0,2.9,1.3,2.9,2.9l0,0
				C876,1672.3,874.7,1673.6,873.1,1673.6z"/>
			<path class="st11" d="M951.9,1673.6H883c-1.6,0-2.9-1.3-2.9-2.9l0,0c0-1.6,1.3-2.9,2.9-2.9h68.9c1.6,0,2.9,1.3,2.9,2.9l0,0
				C954.8,1672.3,953.5,1673.6,951.9,1673.6z"/>
		</g>
		<g>
			<path class="st11" d="M989.2,1696.5H848.1c-1.6,0-2.9-1.3-2.9-2.9l0,0c0-1.6,1.3-2.9,2.9-2.9h141.1c1.6,0,2.9,1.3,2.9,2.9l0,0
				C992,1695.2,990.7,1696.5,989.2,1696.5z"/>
			<path class="st11" d="M899.3,1708.9h-51.2c-1.6,0-2.9-1.3-2.9-2.9l0,0c0-1.6,1.3-2.9,2.9-2.9h51.2c1.6,0,2.9,1.3,2.9,2.9l0,0
				C902.2,1707.6,900.9,1708.9,899.3,1708.9z"/>
			<path class="st11" d="M961.6,1708.9h-51.2c-1.6,0-2.9-1.3-2.9-2.9l0,0c0-1.6,1.3-2.9,2.9-2.9h51.2c1.6,0,2.9,1.3,2.9,2.9l0,0
				C964.5,1707.6,963.2,1708.9,961.6,1708.9z"/>
		</g>
	</g>
	<g id="Calque_5">
		<path class="st7" d="M951.6,342.6c5.3-12.8,10.7-25.6,24.6-32.1c11.2-5.3,22.9-3.3,32.8,4.2c28.2,21.2,3.6,44.5,35.7,84.6
			c10,12.5,22,22.5,28,37.2c8.3,20.5-1.6,30.3-17.5,40.1c-76.3,46.9-116.3-49.3-114.8-71.4C941.3,388.8,948.2,350.9,951.6,342.6z"/>
		<path class="st12" d="M872.4,592.1c3.2-0.5,11-6.1,13.8-6.6c2.1-0.4,6.8-1.1,8.7-1.4c2.4-9,14.7-58.1,16-72.5
			c1.5-15.6,12.5-83.1,12.5-83.1l28.6,5.2c0,0-11.8,51.9-15.1,77.1c-2.8,21.6-26.5,70.2-29.5,75.4c0,0.1,0,0.2,0,0.4
			c-0.5,7.6-4.1,5.1-4.1,5.1l-6,1.5c0,0-21.2,2-22.5,2.5C873.4,596.2,869.2,592.6,872.4,592.1z"/>
		<path class="st13" d="M948.4,389.1c-20.2,6.8-31.7,61.7-31.7,61.7s31.7,8.8,39.8,4.2c0,0,9.2-40.8,12.5-39.4L948.4,389.1z"/>
		<path class="st12" d="M792.2,686.9c-4.1,11-7.4,22.3-9.7,33.9c-0.1,0.9,1.2,5.3,1.1,6.3c-12.4,16.9-30.2,20.6-45.5,21.7
			c7.8-7.6,19.2-14.8,19.8-17.2c3.7-14.6,6.4-29.5,7.9-44.5C775.3,691.5,781.7,688,792.2,686.9z"/>
		<path class="st3" d="M967.9,504.7l27.3,76.8c0,0-43.8,8.3-60.2,11.3c-16.4,3-107.9,7-110.3,8.6c-1.7,1.2-20.6,62.4-29.1,96.1
			c-9.6,2.1-26-0.4-34.7-3.4c4.7-48.3,21.8-124.8,27.2-133.1C797,547.5,967.9,504.7,967.9,504.7z"/>
		<path class="st12" d="M861.4,720.6c-2,11.6-3.1,23.3-3.2,35.1c0,0.9,2.1,5,2.2,6c-9,18.9-25.8,25.9-40.6,29.8
			c6.2-8.9,16.1-18.1,16.2-20.6c0.9-15.1,0.7-30.2-0.6-45.2C845.5,728.2,851.2,723.6,861.4,720.6z"/>
		<path class="st1" d="M999.8,508.7l10.6,18.1c14.4,24.7,6.1,56.5-18.6,70.9c-2.4,1.4-4.8,2.6-7.3,3.5l-0.5,0.2
			c-15.5,6-104.7,27.1-106.7,29.1c-1.5,1.5-8.6,65.2-10.6,99.9c-9,3.9-25.6,4.5-34.8,3.2c-4.4-48.3-2-126.6,1.8-135.8
			C839.9,582.7,999.8,508.7,999.8,508.7z"/>
		<path class="st7" d="M856.8,756.3c2.4-2.6,11.1,11.8,13.3,14.9c2.5,3.5,1.8,6.1,1.5,6.6c-0.8,1.4-46.8,28.5-58,30.4
			c-1.2,0.1-2.4-0.2-3.4-0.9c-4.4-3.9,15.8-32.5,24.8-36.3C841,768.6,846.2,768,856.8,756.3z"/>
		<path class="st7" d="M781.1,721.4c2.8-2.1,8.7,13.7,10.2,17.1c1.8,3.9,0.6,6.3,0.2,6.8c-1.1,1.3-51.3,19.2-62.6,19
			c-1.2-0.2-2.3-0.7-3.2-1.5c-3.6-4.6,21.6-29,31.2-31C763.2,730.4,768.4,730.9,781.1,721.4z"/>
		<path class="st14" d="M967.6,388.9L967.6,388.9c-0.7,0-1.4-0.2-2-0.4c-3.8-0.7-11.9-1.7-18.3,1.1c-7.8,3.3-19.8,33.9-19,65.2
			c0.3,4.8,0.6,9.1,0.8,12.1c2,23.7,8.8,68.2,9.1,68.4c9.2,6,65.1-17.1,68.9-22.2c3.8-5.1,6.1-66.7,8-69.8l3.7-53.6
			C1012.2,387.8,977.5,388.9,967.6,388.9z"/>
		<path class="st12" d="M990.2,369.2c0,0-3.6,18.6-2.9,25.9s-2.7,31-18.3,31c-15.5,0.1-3-30-1.5-37.2c1.5-7.2,1.8-29.4,1.8-29.4
			L990.2,369.2z"/>
		<path class="st15" d="M969,370.7c0.2-6.1,0.3-11.2,0.3-11.2l20.8,9.7c0,0-0.7,3.8-1.5,8.6C979.6,379.7,973,376.3,969,370.7z"/>
		<path class="st12" d="M997.8,317.9c5.2,3.3,9.1,8.3,11,14.1c2.9,9.6-0.4,34.5-21.2,40.5s-29.7-13.7-25.4-29.1
			C966.5,328,975.7,308.5,997.8,317.9z"/>
		<path class="st12" d="M959.6,337.4c0.4,4.1,2.7,7.3,5.1,7.1c2.4-0.2,4-3.8,3.6-7.9c-0.4-4.1-2.7-7.3-5.1-7.1
			C960.8,329.7,959.2,333.3,959.6,337.4z"/>
		<path class="st7" d="M995.4,316.6c0,0,3.8,27.8,12.7,32.8c8.9,5,5.2,17.3,5.2,17.3s8.1-28.6,1.1-37.8
			C1007.2,319.7,995.4,316.6,995.4,316.6z"/>
		<path class="st12" d="M1002.8,353.4c-2.4,3.6-2.4,7.9,0,9.5c2.4,1.6,6.3,0,8.8-3.6c2.5-3.6,2.4-7.9,0-9.5
			C1009.2,348.2,1005.2,349.8,1002.8,353.4z"/>
		<path class="st16" d="M972.6,354.9l14.6,3.7c0,0-1.8,5.5-8.2,4.1C971.1,361,972.6,354.9,972.6,354.9z"/>
		<path class="st12" d="M1109.5,586.6c-0.3-0.7-0.8-0.7-1.4-0.7c-5.8-0.1-11.5-0.5-17.3-1.3c-1-0.1-1.9-0.4-2.8-0.7
			c-1.5-0.6-3.2-0.7-4.8-0.2c-0.9,0.2-1.8,0.3-2.7,0.3c-2.9,0-11.2-2.8-15.4-3.6c-1-0.2-1.8-0.9-2-1.9c-4.2-16.6-13.2-53.7-14.3-66
			c-1.5-15.6-12.3-86.1-12.3-86.1l-28.9,8.1c0,0,11.9,52,15.2,77.2c2.5,19.5,22,60.8,28.1,72.7c3,8.9,9.7,9.1,11.2,9.3
			c0.9,0.1,1.7,0.5,2.3,1.2c1,1.2,2.3,2.3,3.6,3.2c1,0.6,1.8,1.5,2.5,2.5c1.2,1.8,2.3,3.7,3.4,5.5c0.7,1.2,1.5,1.6,2.5,1.3
			c1.1-0.3,1.9-1.4,1.7-2.6c-0.1-2-0.7-4-1.7-5.7c-1-1.2-0.9-3,0.2-4.1c0.6-0.9,1.3-1.7,2.1-2.4c0.8-0.8,1.9-1.2,3-1.1
			c2.1,0.5,4.2,0.9,6.3,1.2l1.7,0.4l1,0.2c0.1,0,3.2,0.4,4.2,0.4c0.8,0,2.2,0.1,3.4,0.1c1.1-0.1,2.3-0.2,3.4-0.5c1,0,2-0.4,2.7-1.1
			c0.3-0.3,0.6-0.6,0.5-1.1c-0.1-0.4-0.5-0.7-0.9-0.7c-0.7-0.1-4.2-0.6-4.2-0.7c1.1,0,4.4-0.1,5.5-0.1c1.4,0,2.7-0.6,3.7-1.6
			C1109.3,587.7,1109.8,587.2,1109.5,586.6z"/>
		<path class="st14" d="M1019,389.6c14.3-2.6,26,61.2,26,61.2s-31.7,8.8-39.8,4.2c0,0-9.2-40.8-12.5-39.4L1019,389.6z"/>
	</g>
	<g id="Calque_7">
		<path class="st1" d="M2396.6,1508.6c3.8,1.2,16.5,2.5,24.1,10.6c8.3,6.9,11.5,20.6,11,20.4c-0.6,0.7,6.3-14.8,3.4-29.6
			c-1.7-15-13.2-29.4-21.5-31c-15.8-5.7-33,4.7-33.2,13C2380.1,1500.3,2388.6,1505.4,2396.6,1508.6z"/>
		<path class="st17" d="M2056.5,1387.9c11.6,1.9,10.9,3.8,12.4,4c1.8,0.2,22.6-10.2,22.6-10.2s61.7-30.5,65-32.2l44.5-56.1
			l34.3,15.9c0,0-50.1,59.6-53.3,62.2c-3.2,2.6-91.6,33.7-99.3,36.7c0,0-7.8,7.1-12.8,11.4c-5,4.3-11.7,6-13.3,7
			c-4.3,2.2-8.9,3.8-13.6,4.8c-6.7,1.5-1.1-3.1-1.1-3.1s11.9-5,11.3-5.9c-0.5-0.7-6.8,2.4-14.2,4.1c-1.9,0.4-3.8,0.9-5.5,1.2
			c-4.6,1-6.6-1.6-2-3.4c2.1-0.9,4.2-1.6,6.3-2.1c2.2-0.5,4.1-1.6,5.9-2.3c2.1-0.7,4.1-1.5,6-2.4c-0.2-0.2,0.3-1-1.7-0.6
			c-2.5,0.5-7.4,2.7-11.1,3.1c-2.1,0.2-6.4,1.1-6.4,1.1s-7.7,0.7-7.7-0.3c-0.1-2.3,4.6-3.7,7.5-3.6c2.1-0.8,4.2-1.3,6.3-1.6
			c0,0,8.9-3.5,8.4-4.8c-0.2-0.5-5.6,0.3-11.3,0.7c-6,0.4-10.4,0.4-10.7-0.8c-0.5-1.9,4.3-2.6,4.3-2.6s4.2-0.6,5.6-0.9
			c1.6-0.4,6.3-1.9,6.3-1.9s16.3-6,15.7-7.2c-0.6-1.2-3.3-3.7-4.4-3.7c-1.2,0-3.2,1.2-4.4,1.2c-1.2,0-3.6-0.2-3.8-1.7
			s6.2-4.4,6.2-4.4S2053.2,1387.4,2056.5,1387.9z"/>
		<path class="st18" d="M2170,1328.1c0,0,11.1,10.1,15.7,13.4c3.8,2.8,22.6,11.8,22.6,11.8s18.6-28.6,26.8-42.8
			c9.9-17.4,16.7-43.2,14.4-43.9c-6.6-2-15.6-3.2-23.9,0.7C2196.8,1280.5,2170,1328.1,2170,1328.1z"/>
		<path class="st5" d="M2067.3,1402.8c-5,0.8-10-0.2-12.2-4.7C2054.6,1403.5,2062.7,1406.2,2067.3,1402.8z"/>
		<path class="st12" d="M2352.4,1765.3c0,0,1.2,21.8,1.2,21.9c0.5,2.8,2.2,9.6,2.2,12.1c0,9.5-42-8-32.6-12.2
			c0.8-0.4,5.3-3.3,5.6-6.5c0.4-5,1.5-15,1.5-15L2352.4,1765.3z"/>
		<path class="st8" d="M2322.9,1787.2c4.9,1.5,9.9,2.7,14.9,3.6c5.1,0.7,11.7-5.4,15.3-3.7c3.9,1.8,3.8,18.1,3.8,18.1
			s-52.9,4.6-67.7-0.2C2283.2,1803.2,2302.7,1794,2322.9,1787.2z"/>
		<path class="st12" d="M2422.4,1764.2c0,0,1.2,21.8,1.2,21.9c0.4,2.8,2.2,9.6,2.2,12.1c0,9.5-42-8-32.6-12.2
			c0.9-0.4,6.6-5.4,6.9-8.6c0.4-5,0.2-12.9,0.2-12.9L2422.4,1764.2z"/>
		<path class="st8" d="M2393.4,1785.9c4.9,1.5,9.9,2.7,14.9,3.6c5,0.7,11.7-5.4,15.3-3.7c3.9,1.8,4.1,18.1,4.1,18.1
			s-52.5,2.1-68.1-0.2C2353.5,1802.9,2373.2,1792.7,2393.4,1785.9z"/>
		<path class="st3" d="M2409.9,1417.3c0,0,7.1,36.8,4.2,64.8c-2.9,27.9-3.2,127.2-3.2,127.2l13.4,158.7l-28.6,0.7
			c0,0-31.1-158.7-30.6-154.6c0.6,4.1-10.4-111.7-10.4-111.7l37.1-88.5L2409.9,1417.3z"/>
		<path class="st1" d="M2400,1393.5c0,0,32.3,34,20.3,71.1c-4.8,14.9-49.7,157.3-50.4,169c-0.6,11.6-15.2,140.3-15.2,140.3
			l-30.5-0.9l-6.6-143l8.7-192.7l18.5-32.5L2400,1393.5z"/>
		<path class="st19" d="M2204.1,1282.9c10.6-11.8,33.6-28.6,33.6-28.6s13.8-11.7,19.3-13.6c8.2-2.8,22.3-10.4,42.7,20.5
			c14.6,22.1,106.5,136.4,121.6,140.2l-98.5,47.2c-2.7-22.5-51.4-65.1-58.4-73C2248.6,1357.9,2194.1,1294.2,2204.1,1282.9z"/>
		<path class="st12" d="M2208.7,1235l30.7,18c0,0,0.9,26.2-9.2,33c-8.5,5.7-14.8-8-14.8-8s-11.4-15.9-20.1-20.7
			C2186.6,1252.4,2208.7,1235,2208.7,1235z"/>
		<path class="st15" d="M2213.9,1246.5c-1.5,7-4.2,13.7-8,19.9c-3.4-3.7-7.2-7.2-10.6-9.2c-4-2.3-1.4-7.2,2.4-11.8
			c5.5-5.7,11-10.4,11-10.4l5.9,3.4C2215,1240.7,2214.3,1244.8,2213.9,1246.5z"/>
		<path class="st12" d="M2192.7,1190c0.5-0.6,25.8,30.8,22.6,45.5c-3.1,14.7-18.4,28.2-29,24.5c-11.7-4.1-33.5-41.1-25.7-59
			S2192.7,1190,2192.7,1190z"/>
		<path class="st20" d="M2165.1,1180.1c11-6.1,28.9-7.9,42.3-0.9c16.5,8.6,20.2,30.3,15.1,43.6c-5.2,13.2,0.8,20.7,0.8,20.7
			l-8.8-5.1c0,0-5.1-8-5.8-14.3c-0.7-6.3-9.9-5.2-14.5-8.1c-3.5-2.2-7.9-9.4-13.6-13.2c0,0-14.2-1.7-21.2,2.2
			C2147.7,1211.7,2149.4,1188.9,2165.1,1180.1z"/>
		<path class="st12" d="M2201.4,1221.3c-0.1,4.7,2.1,8.6,5,8.6s5.2-3.7,5.3-8.5c0.1-4.7-2.1-8.6-5-8.6
			C2203.8,1212.8,2201.5,1216.6,2201.4,1221.3z"/>
		<path class="st16" d="M2175.5,1246.3l13.4-10c0,0,3.5,5.4-2.2,10C2179.7,1251.8,2175.5,1246.3,2175.5,1246.3z"/>
		<rect x="1989.7" y="1338.6" class="st9" width="137.5" height="144.5"/>
		<path class="st17" d="M2142,1445.1c3.3-4.9,4.8-11.9,9.4-17.3c2.1-2.2,4.3-4.2,6.8-5.9c22.2-13,80.2-46.6,82.5-49.2
			c2.7-3.1,42.2-68.8,42.2-68.8l-35.5-8.1l-34.7,61.4c-2.9,2.3-58,43.1-58,43.1s-11,8.6-16.9,12.6c-2.7,1.5-5.6,2.8-8.5,3.8
			c-3.2,1.1-9.4,4.2-10.6,5.3c-1.4,1.3-4.3,4-6.1,5.7s-3.8,3.5-4.6,4.5c-1,0.8-2,1.5-3.2,2c-1,0.5-1.4,1.7-0.9,2.7
			c0.3,0.5,0.7,0.9,1.3,1.1c1.7,0.5,4-0.6,5.4-1.2c4-1.9,8.9-6.9,9.1-6.3c0.3,0.6-4.7,11.5-5.2,12.7c-0.5,1.3-6.2,13.9-6.5,16.7
			c-0.3,2.8,1.4,3.5,2.7,2.4c1.1-0.9,10.2-17.8,10.2-17.8s1.2-2.1,1.6-0.9c0.5,1.2-7.8,16.6-8.6,19.1s-0.2,4.6,2.1,3.7
			c2.8-1.1,10.7-18,10.7-18s1.1-2.1,1.7-1.4s-6.6,13.7-6.6,15.2c-0.1,1.5,1.3,3,3.2,1.7c2.3-1.5,9.2-16.6,9.2-16.6s0.8-1,1.1-0.3
			c0.2,0.7-5.1,12.2-4.7,13.9c0.1,0.7,0.8,1.2,1.5,1.1c0,0,0.1,0,0.1,0C2135,1461.8,2138.7,1449.9,2142,1445.1z"/>
		<path class="st19" d="M2273.3,1338.6c0,0-11.6-3.7-19-7.1c-5-2.3-26.7-13.1-26.7-13.1s9.4-39.4,15.7-53.6
			c23.2-52,49.6-16.1,53.1-7.8C2304.4,1275.7,2273.3,1338.6,2273.3,1338.6z"/>
	</g>
	<path class="st8" d="M2522.2,1801.1H103.5c-3,0-5.5,3.1-5.5,7l0,0c0,3.9,2.4,7,5.5,7h2418.7c3,0,5.5-3.1,5.5-7l0,0
		C2527.6,1804.2,2525.2,1801.1,2522.2,1801.1z"/>
</g>
</svg>
