<svg id="Layer_1" data-name="Layer 1" xmlns="http://www.w3.org/2000/svg" xmlns:xlink="http://www.w3.org/1999/xlink" viewBox="0 0 2429.63 1721.14"><defs><style>.cls-1{fill:none;}.cls-2{clip-path:url(#clip-path);}.cls-24,.cls-3{fill:#87bad0;}.cls-3{opacity:0.22;isolation:isolate;}.cls-4{fill:#a8cff0;}.cls-5{fill:#0f393a;}.cls-6{fill:#edcb50;}.cls-7{clip-path:url(#clip-path-2);}.cls-17,.cls-8{fill:#fff;}.cls-8{opacity:0.78;}.cls-9{fill:#347261;}.cls-10{fill:#2b6050;}.cls-11{fill:#649e89;}.cls-12{fill:#4d8975;}.cls-13{fill:#e27950;}.cls-14{fill:#ef8351;}.cls-15{fill:#f7a491;}.cls-16{fill:#ddba4b;}.cls-18{fill:#f47458;}.cls-19{fill:#f8a492;}.cls-20{fill:#7baaba;}.cls-21{fill:#fe875e;}.cls-22{fill:#13375b;}.cls-23{fill:#184c4c;}.cls-25{fill:#407f6c;}.cls-26{opacity:0.3;}.cls-27{fill:#91b3fa;}</style><clipPath id="clip-path" transform="translate(-122.14 -3.93)"><rect class="cls-1" x="569.89" y="-4.64" width="1549.34" height="1407.95"/></clipPath><clipPath id="clip-path-2" transform="translate(-122.14 -3.93)"><path class="cls-1" d="M1107.37,269.74s95.8-95.11,225.2-105.18c0,0,218.22-23,333,207.36,0,0,22.43,161.37,0,240.72,0,0-96.11,190.6-94.84,209.66l-59.58,173.42s-7.76,80.25-41.41,80.24H1229s-44,.66-44-64.71c0,0-48-171.45-77.65-217.43,0,0-93.19-199.3-93.19-261.42C1014.18,532.4,975.36,416.05,1107.37,269.74Z"/></clipPath></defs><title>header-groupement-elec</title><g class="cls-2"><path class="cls-3" d="M1928.14,1483c-31,37-60.35,60.92-83.53,79.79-272.5,221.8-594.93,157.15-663.46,141.36-101.19-23.32-296.79-68.39-438.21-257C529,1161.65,562.3,712,728.26,415.13c30.35-54.29,190.7-355.65,516.61-404,197.24-29.25,427.15,29.74,593.65,188C2188,531.3,2163.13,1202.33,1928.14,1483Z" transform="translate(-122.14 -3.93)"/></g><path class="cls-4" d="M3415.15,407.07" transform="translate(-122.14 -3.93)"/><path class="cls-5" d="M1499.73,1114H1184.67c-13,0-23.62,8.75-23.62,19.56v13c0,10.81,10.59,19.56,23.62,19.56h315.06c13,0,23.62-8.75,23.61-19.56v-13C1523.34,1122.77,1512.76,1114,1499.73,1114Z" transform="translate(-122.14 -3.93)"/><path class="cls-5" d="M1499.73,1173H1184.67c-13,0-23.62,8.76-23.62,19.58v13c0,10.8,10.59,19.55,23.62,19.55h315.06c13,0,23.62-8.75,23.62-19.55v-13C1523.34,1181.74,1512.76,1173,1499.73,1173Z" transform="translate(-122.14 -3.93)"/><path class="cls-5" d="M1499.73,1232H1184.67c-13,0-23.62,8.72-23.62,19.54v13c0,10.8,10.59,19.54,23.62,19.54h315.06c13,0,23.62-8.75,23.62-19.54v-13C1523.35,1240.7,1512.76,1232,1499.73,1232Z" transform="translate(-122.14 -3.93)"/><path class="cls-5" d="M1224.05,1290.92h236.29c0,39.11-63,65.16-118.14,65.16S1224.05,1330,1224.05,1290.92Z" transform="translate(-122.14 -3.93)"/><path class="cls-6" d="M1107.37,269.74s95.8-95.11,225.2-105.18c0,0,218.22-23,333,207.36,0,0,22.43,161.37,0,240.72,0,0-96.11,190.6-94.84,209.66l-59.58,173.42s-7.76,80.25-41.41,80.24H1229s-44,.66-44-64.71c0,0-48-171.45-77.65-217.43,0,0-93.19-199.3-93.19-261.42C1014.18,532.4,975.36,416.05,1107.37,269.74Z" transform="translate(-122.14 -3.93)"/><g class="cls-7"><path class="cls-5" d="M1235.14,1054.45c7.06-13.64,12.61-28.13,18.08-42.46,8.59-22.49,16.41-45.29,23.69-68.24,8.63-27.2,16.49-54.66,23.36-82.36,6.94-28,12.93-56.28,17.1-84.83,3.64-25,6.1-50.41,5-75.68-.85-18.59-3.43-38.61-13.11-54.89a47.52,47.52,0,0,0-15.34-16.3,72.58,72.58,0,0,0-13.2-6.21,38.62,38.62,0,0,0-17.52-2.65c-9.81,1.06-17.24,7.14-19.64,16.73-2.59,10.34-.77,21.7,2,31.79,5.94,21.38,18.44,43.8,39,54,9.31,4.6,19.7,7.06,29.93,8.55a150.22,150.22,0,0,0,37.06.69c23-2.37,49.14-10.58,62.7-30.66,6.91-10.24,9.44-22.39,8.71-34.63s-4.43-24.32-12.39-33.75c-5.81-6.89-14.07-12-23.17-12.88s-19.12,2.47-25,9.8c-7,8.63-7.69,20.62-6.45,31.2a109.81,109.81,0,0,0,6.43,25.27,156,156,0,0,0,10.48,23.42c12.57,22,34.9,41.62,61.74,39.76a55.5,55.5,0,0,0,34.18-15.16c11.59-10.89,18.61-26,23-41.1,3.67-12.68,16.45-69.14-14.26-60.26-10.81,3.13-18.5,12.78-24,22-9.59,16.06-13.29,34.36-16.61,52.54-8.81,48.31-10.55,97.5-8.37,146.48,2.11,47.72,7.59,95.19,11.41,142.78,1.89,23.59,3.37,47.21,4,70.86.05,1.8,7.79.48,7.73-2.07-1.21-47-6-93.76-10.18-140.56-4.1-46-7.39-92.16-5.59-138.36a577.52,577.52,0,0,1,7.36-72.72c3.13-18.65,6.34-37.83,15-54.84a72.13,72.13,0,0,1,10.33-15.47,39.31,39.31,0,0,1,5.18-4.91q.61-.47,1.23-.9c.41-.29,1.11-.72.87-.58.43-.26.88-.5,1.33-.74l.47-.23c.59-.3-.69.22.3-.13.29-.1,1.67-.48.39-.16.5-.13,1.35-.28.32-.11l.67-.11c.8-.13-.89,0-.09,0l.43,0c.94,0-.35-.06.22,0a6.84,6.84,0,0,1,3.43,1.31c3.16,2.3,4.59,6.25,5.42,9.92,1.51,6.67,1.28,13.73.6,20.49a151.39,151.39,0,0,1-5.77,28.74c-4.33,14.22-11.06,28.43-22.16,38.63a48,48,0,0,1-6.95,5.33,38.54,38.54,0,0,1-6.66,3.36,31.5,31.5,0,0,1-6.55,1.83,34.56,34.56,0,0,1-7.47.53c-10.75-.27-21.74-5.15-30.48-11.8-11.13-8.45-19.69-20-25.85-32.42a171.33,171.33,0,0,1-9.78-24.69,94.1,94.1,0,0,1-4.33-22.22c-.56-9.52.91-20.47,8.17-27.38a18.53,18.53,0,0,1,3.75-2.61c.93-.51-.51.15.49-.23l1.16-.44c.85-.31-.93.25-.06,0l.6-.17.61-.15c.69-.18-1,.12.19,0l1.25-.17c-1.11.14.32,0,.55,0,.43,0,.85,0,1.28,0,.87,0-.69,0,.19,0l.9.07a20,20,0,0,1,5.21,1c21.38,6.81,29.41,33.42,27.53,53.57A49.38,49.38,0,0,1,1402,708.62c-7.49,7.88-16.59,12.56-26.48,15.86a3.86,3.86,0,0,1-.48.16l-1.13.34c-.63.2-1.27.38-1.9.56-1.41.39-2.82.76-4.24,1.1-2.64.62-4.89,1.06-8,1.56a124.39,124.39,0,0,1-17.25,1.48,133.48,133.48,0,0,1-32.92-3.26c-8.63-2-17.48-4.89-24.78-10-9.19-6.5-16.16-15.24-21.6-25a106.53,106.53,0,0,1-12-33.68c-1.49-8.86-2.18-19.48,2.53-27.57a15.52,15.52,0,0,1,1.37-2c.27-.32.54-.64.83-.94a8.46,8.46,0,0,1,.75-.72c.39-.31.79-.61,1.2-.89.13-.09.53-.33-.09,0l.66-.37.57-.29c.49-.25-.87.34-.06,0l.73-.28c.87-.33-.9.27,0,0,.26-.08.52-.14.79-.2-1,.25-.36.06-.09,0s1.83-.21.91-.14a19.24,19.24,0,0,1,2.93,0,35,35,0,0,1,7.78,1.59c8.12,2.57,15.84,6.25,21.93,12.28,11.77,11.65,16.48,28.91,18.86,44.8,3.35,22.4,2.44,45.38.27,67.84-2.61,27-7.34,53.73-13.06,80.21-6,27.55-13.07,54.85-21,81.91q-10.74,36.84-23.48,73.08c-6.37,18.08-13.06,36.09-20.65,53.7-2.31,5.35-4.69,10.69-7.36,15.87-.74,1.42,2.67,1.22,3.2,1.14,1.52-.23,3.69-.84,4.46-2.33Z" transform="translate(-122.14 -3.93)"/></g><path class="cls-1" d="M1342.18,183.67c-176.29,0-319.72,143.42-319.72,319.72,0,54.87,14.43,108.74,42.87,160.12,84,151.24,110.75,241.24,126.76,337.4,1.78,10.72,7.22,43.32,17,53.65,3.35,3.54,10,7.16,33.46,7.16h199.32c23.52,0,30.12-3.63,33.47-7.17,9.74-10.32,15.18-42.93,17-53.65,16-96.19,42.8-186.18,126.78-337.42,28.44-51.29,42.87-105.16,42.87-160.09C1661.93,327.09,1518.48,183.67,1342.18,183.67Z" transform="translate(-122.14 -3.93)"/><path class="cls-6" d="M1342.18,152c-194,0-351.38,157.31-351.38,351.39,0,63.88,18,123.28,46.84,175.45,86.29,155.46,109.15,242.75,123.22,327.26,11.8,70.83,28.17,87.27,81.66,87.27h199.32c53.53,0,69.87-16.48,81.67-87.27,14.07-84.51,36.92-171.82,123.23-327.27,28.92-52.13,46.86-111.56,46.86-175.45C1693.59,309.32,1536.24,152,1342.18,152Zm276.88,511.47c-84,151.24-110.77,241.23-126.78,337.42-1.79,10.72-7.23,43.33-17,53.65-3.35,3.54-10,7.17-33.47,7.17H1242.52c-23.51,0-30.11-3.62-33.46-7.16-9.75-10.33-15.19-42.93-17-53.65-16-96.16-42.8-186.16-126.76-337.4-28.44-51.38-42.87-105.25-42.87-160.12,0-176.3,143.43-319.72,319.72-319.72s319.75,143.42,319.75,319.72C1661.93,558.32,1647.5,612.19,1619.06,663.48Z" transform="translate(-122.14 -3.93)"/><path class="cls-8" d="M1155.45,407.53c-13.54,11.14-77.57,72.08-8.87,179.75a16.36,16.36,0,0,1-5,22.61,16.13,16.13,0,0,1-8.77,2.59A16.4,16.4,0,0,1,1119,604.9c-83.58-131-1.6-208.47,15.7-222.66a16.37,16.37,0,0,1,20.78,25.29Z" transform="translate(-122.14 -3.93)"/><path class="cls-9" d="M774.41,841.57C685,761.84,639,647.35,616.2,565.33c-24.78-89-28.39-160.09-28.42-160.8l-4.86-.3c0,.72,3.65,72.3,28.58,161.93,23,82.82,69.5,198.49,160,279.2Z" transform="translate(-122.14 -3.93)"/><path class="cls-9" d="M598,384c4.41,20.5.72,39.87-8.68,53.85C574.55,427,563,409.59,558.56,389.09s-.72-39.87,8.68-53.85C582,346.08,593.55,363.46,598,384Z" transform="translate(-122.14 -3.93)"/><path class="cls-9" d="M570.54,442.34c15.4,14.33,24.41,33.16,26.15,51.28-16.91.77-35.52-6.09-50.92-20.42S521.36,440,519.61,421.91C536.53,421.14,555.13,428,570.54,442.34Z" transform="translate(-122.14 -3.93)"/><path class="cls-9" d="M563.31,503.67a78.51,78.51,0,0,1,44.13,35.53c-13.89,8.93-32.5,11.49-51.65,5.49a78.38,78.38,0,0,1-44.13-35.54C525.55,500.23,544.16,497.66,563.31,503.67Z" transform="translate(-122.14 -3.93)"/><path class="cls-9" d="M592.79,577.45c15.17,4.79,27.29,17,34.16,32.47-11.5,9.66-26.55,13.32-41.72,8.54s-27.29-17-34.16-32.47C562.57,576.33,577.63,572.67,592.79,577.45Z" transform="translate(-122.14 -3.93)"/><path class="cls-9" d="M618.69,472.15a52.44,52.44,0,0,1,43-15.49A58.87,58.87,0,0,1,645,501.28a52.49,52.49,0,0,1-43,15.49A58.81,58.81,0,0,1,618.69,472.15Z" transform="translate(-122.14 -3.93)"/><path class="cls-9" d="M632.52,525a52.51,52.51,0,0,1,43-15.5,58.8,58.8,0,0,1-16.61,44.62,52.44,52.44,0,0,1-43,15.5A58.74,58.74,0,0,1,632.52,525Z" transform="translate(-122.14 -3.93)"/><path class="cls-10" d="M720.52,949.73c-82.57-12-153.23-61-198-99.87C474,807.62,444.59,767.7,444.3,767.3L441.36,769c.29.4,29.87,40.62,78.75,83.15,45.17,39.31,116.57,88.72,200.16,100.91Z" transform="translate(-122.14 -3.93)"/><path class="cls-10" d="M442.34,751.41c10.43,10.22,15.72,22.9,15.62,34.63-12.73-.65-26.13-6.31-36.56-16.53s-15.71-22.9-15.61-34.64A57.47,57.47,0,0,1,442.34,751.41Z" transform="translate(-122.14 -3.93)"/><path class="cls-10" d="M448.8,795.87c14.46,2.42,26.91,9.9,34.88,19.77-9.53,6.94-23,10.09-37.43,7.67s-26.92-9.91-34.89-19.78C420.91,796.57,434.35,793.45,448.8,795.87Z" transform="translate(-122.14 -3.93)"/><path class="cls-10" d="M468.13,834.29a54.72,54.72,0,0,1,39.3,3.72c-4.66,10.52-14.49,19.15-27.93,23a54.63,54.63,0,0,1-39.29-3.72C444.91,846.78,454.7,838.15,468.13,834.29Z" transform="translate(-122.14 -3.93)"/><path class="cls-10" d="M513.58,865.87c10.66-3,22.4-.58,32.32,5.76a30.22,30.22,0,0,1-21,21c-10.65,3-22.39.58-32.31-5.76A30.24,30.24,0,0,1,513.58,865.87Z" transform="translate(-122.14 -3.93)"/><path class="cls-10" d="M488.23,794.72A36.51,36.51,0,0,1,507.3,769.2a41,41,0,0,1,7.44,32.33,36.51,36.51,0,0,1-19.08,25.52A40.9,40.9,0,0,1,488.23,794.72Z" transform="translate(-122.14 -3.93)"/><path class="cls-10" d="M516.56,820.15a36.57,36.57,0,0,1,19.08-25.53A41,41,0,0,1,543.07,827,36.51,36.51,0,0,1,524,852.48,41,41,0,0,1,516.56,820.15Z" transform="translate(-122.14 -3.93)"/><path class="cls-11" d="M770.24,1196.86C675,1233,570.15,1213.92,499,1191.53c-77.28-24.31-132.69-57.63-133.24-58l-2.11,4c.56.34,56.37,33.92,134.15,58.4,71.89,22.62,177.81,41.9,274.23,5.29Z" transform="translate(-122.14 -3.93)"/><path class="cls-11" d="M354,1114.22a68.83,68.83,0,0,1,37.57,35.09c-13.95,7.13-31.65,8.2-48.94,1.49a68.76,68.76,0,0,1-37.57-35.09C319,1108.57,336.72,1107.51,354,1114.22Z" transform="translate(-122.14 -3.93)"/><path class="cls-11" d="M387.76,1167.78a60.92,60.92,0,0,1,49.15,3.79,58.51,58.51,0,0,1-35.25,33.4,61,61,0,0,1-49.12-3.77A58.54,58.54,0,0,1,387.76,1167.78Z" transform="translate(-122.14 -3.93)"/><path class="cls-11" d="M431.57,1205.46c12-13.42,28.21-20.11,44.12-19.81A63.26,63.26,0,0,1,459.84,1233c-12,13.42-28.2,20.11-44.11,19.81A63.15,63.15,0,0,1,431.57,1205.46Z" transform="translate(-122.14 -3.93)"/><path class="cls-11" d="M492.91,1224.91c12-13.41,28.2-20.1,44.11-19.8a63.22,63.22,0,0,1-15.84,47.31c-12,13.41-28.2,20.1-44.11,19.81A63.19,63.19,0,0,1,492.91,1224.91Z" transform="translate(-122.14 -3.93)"/><path class="cls-11" d="M435.2,1162.06c-10.55-13.73-15.25-30.28-14.13-45.29,13.89,1.62,28.09,9.69,38.63,23.42s15.25,30.28,14.13,45.29C459.91,1183.86,445.74,1175.79,435.2,1162.06Z" transform="translate(-122.14 -3.93)"/><path class="cls-11" d="M498.91,1182c-10.74-13.57-15.7-30.06-14.83-45.12,13.89,1.38,28.19,9.21,38.93,22.78s15.7,30.07,14.83,45.13C523.91,1203.4,509.63,1195.57,498.91,1182Z" transform="translate(-122.14 -3.93)"/><path class="cls-11" d="M573.46,1230.24a23.72,23.72,0,0,1,15-14.17,27.18,27.18,0,0,1,.88,21.61,23.7,23.7,0,0,1-15,14.17A27.17,27.17,0,0,1,573.46,1230.24Z" transform="translate(-122.14 -3.93)"/><path class="cls-9" d="M974.66,1412.57s121.35-480,81.11-528.18c-55.61-66.65-101.49,154.44-106,135.66-42.51-177.34-53.83-404.25-191-428.26-78-13.66,18,168.73,12.23,218.06S624.79,695.4,539.43,609.57,410,578.09,463.91,686C516.07,790.31,684.8,904.32,650,917.85S404.09,796.67,378.23,854.27c-31.7,70.62,285,166.72,255.21,182.59s-181.21-36.39-177.07,17.61,207.63,52,204.15,75.75c-5.63,38.46-140.22-48.6-146.14,4.62-6.05,54.43,177.07,44.5,173.9,87-1.82,24.4-41.12-12.41-46.91,21.39-13.2,77,228.2,170.92,228.2,170.92Z" transform="translate(-122.14 -3.93)"/><path class="cls-10" d="M1067.19,1408.48S951.7,1231.41,896.13,1198c-59.22-35.62-14.14,71-14.14,71s-121-144-154.64-114.74-3.11,63.14-3.11,63.14-108.63-32.19-128.16,7.68c-30,61.31,148.83,112.12,148.83,112.12s-76.78-.82-62.65,40.55C703.58,1440.12,1067.19,1408.48,1067.19,1408.48Z" transform="translate(-122.14 -3.93)"/><path class="cls-11" d="M596.08,1232.09c19.53-39.87,128.16-7.68,128.16-7.68s-30.53-33.88,3.11-63.14,130.44,58.3,130.44,58.3-10.15-72.22,62.74-8.6c52.07,45.44,146.66,204.49,146.66,204.49Z" transform="translate(-122.14 -3.93)"/><path class="cls-12" d="M927,970.89l5.18-3.54c-94-142.4-122.73-311.47-130.25-428.23-8.16-126.7,6.17-220.87,6.31-221.81l-6.42-1.87c-.15,1-14.58,95.75-6.39,223.21C803,656.4,832,827,927,970.89Z" transform="translate(-122.14 -3.93)"/><path class="cls-12" d="M826.75,295.13c.21,28.6-9.71,52.25-25.56,66.44a127.45,127.45,0,0,1-26.59-76.68c-.2-28.61,9.72-52.26,25.56-66.45A127.43,127.43,0,0,1,826.75,295.13Z" transform="translate(-122.14 -3.93)"/><path class="cls-12" d="M775.82,359.43c16,25.29,22.61,53.69,20,78.06-22-6.26-44.15-23.19-60.18-48.48s-22.6-53.69-20-78.06C737.65,317.2,759.8,334.13,775.82,359.43Z" transform="translate(-122.14 -3.93)"/><path class="cls-12" d="M750.13,436.25a125.3,125.3,0,0,1,47.4,65.25c-20.29,5.67-45,1-68-15a125.06,125.06,0,0,1-47.4-65.25C702.39,415.57,727.06,420.2,750.13,436.25Z" transform="translate(-122.14 -3.93)"/><path class="cls-12" d="M780.22,570.37a52.3,52.3,0,0,1,21.63,26c-8.26,3.08-18.65,2-28.71-4.06a52.12,52.12,0,0,1-21.63-26C759.77,563.23,770.16,564.36,780.22,570.37Z" transform="translate(-122.14 -3.93)"/><path class="cls-12" d="M788.4,620.05a52.23,52.23,0,0,1,21.62,26c-8.26,3.07-18.64,1.94-28.7-4.06a52.12,52.12,0,0,1-21.63-26C767.91,612.92,778.33,614.05,788.4,620.05Z" transform="translate(-122.14 -3.93)"/><path class="cls-12" d="M829.91,419c18.59-10.54,40.33-10.43,59.61-1.72-3.24,21.47-14.81,40.46-33.4,51s-40.33,10.43-59.61,1.72C799.75,448.47,811.33,429.48,829.91,419Z" transform="translate(-122.14 -3.93)"/><path class="cls-12" d="M833.63,493.79c18.59-10.53,40.33-10.42,59.61-1.71-3.23,21.47-14.81,40.46-33.4,51s-40.33,10.42-59.61,1.71C803.46,523.32,815,504.32,833.63,493.79Z" transform="translate(-122.14 -3.93)"/><path class="cls-12" d="M829.91,600.91c12.1-6.85,26.25-6.78,38.8-1.11-2.1,14-9.64,26.33-21.74,33.19s-26.25,6.78-38.8,1.11C810.31,620.13,817.84,607.77,829.91,600.91Z" transform="translate(-122.14 -3.93)"/><path class="cls-13" d="M1055.24,1183.54c1.58.06,5.88,1.5,12.18,13.4,8,15.2,19.79,61.1,19.79,61.1l-35.08,13.06-4.51-9.58-7.42-73.76S1054.77,1183.52,1055.24,1183.54Z" transform="translate(-122.14 -3.93)"/><path class="cls-14" d="M1008.83,1176.92c10,0,34.85,2.94,46.37,6.62,0,0,8.47,72.73-7.62,128-3.59,12.37,3,51.28,3,51.28l-103.94-1.37s12.32-94.07,7.68-109.27-4.75-68.15-4.75-68.15.71-.11,23.35-4A236.09,236.09,0,0,1,1008.83,1176.92Z" transform="translate(-122.14 -3.93)"/><path class="cls-15" d="M996.72,1497.82s2.3,26.54,6.53,33.89-.22,19.84-.44,21.56-8.9,4.16-22.7,2.69-13.58-4.65-12.46-9.8,8.45-11.76,8.9-16.66-4.23-22.53-4.23-22.53Z" transform="translate(-122.14 -3.93)"/><path class="cls-16" d="M1038.83,1340.92s71.75-4,87.78,5.72-11.37,57.32-11.37,57.32-49.92-2.3-147.71,3.35c-23.16,1.33-25.16-60.38-20.83-65.49S1038.83,1340.92,1038.83,1340.92Z" transform="translate(-122.14 -3.93)"/><path class="cls-14" d="M978.39,1558c-14.21-1.51-12.45-8.49-11.31-13.79.72-3.32,4.8-7.23,7.23-10.92,1.27,1,3.33,2.79,9.5,4.62,6.41,1.89,15.19-1.86,20.79-4.2a68.47,68.47,0,0,1,1.89,18.32C1006.24,1553.82,992.59,1559.54,978.39,1558Z" transform="translate(-122.14 -3.93)"/><path class="cls-15" d="M948.42,1192.11c9.71-3.64,14.47,83.92,15.78,120,17.21,1.66,47.21,0,54.67-.55,3.52-.26,11.62-3.23,15.11-3.68a34.82,34.82,0,0,1,8.59-.41c.64.11,18.58,7.45,20.11,9.06,1.91,2,7,7,6.18,9.2s-9.89-6.06-9.89-6.06l-4.41-2.48c5.49,5.37,16,12.43,14.46,15s-10.92-4.66-17.66-9.54c5.78,5.21,13,14.55,11.3,16-1.49,1.31-9.65-9.5-18.37-12.61-3.23-1.15-6.46,2-9,2.43-1.87.28-4.75.88-6.59.36l-9.44-2.67c-3.22.29-3.3,2.19-6.55,2.88-3.77.8-10,1.65-14.76,2.82-27.67,6.76-36.89,9.9-45.36,9.9C926.94,1341.7,925.45,1200.73,948.42,1192.11Z" transform="translate(-122.14 -3.93)"/><path class="cls-13" d="M930,1274.28c-1.82-36.92-1.55-82.42,19.15-90.18,8.16-3.07,22.56,15.35,20,90.93C958,1276,941.82,1276.72,930,1274.28Z" transform="translate(-122.14 -3.93)"/><path class="cls-15" d="M1093,1520.52s-2.88,9.21,2.27,15.31,26.52,12.07,29.33,15.37,2.61,6.08,2.61,6.08l-60-1.65.66-18.13,2.76-13Z" transform="translate(-122.14 -3.93)"/><path class="cls-14" d="M1099,1538.87s-15.42,6.23-22.87,2.54-7.22-4.72-9.38-3.34-2.92,18.37-2.92,18.37l67.47,2c4.7-.11,7.07-3.57,3.26-6.53a53.42,53.42,0,0,0-7.36-4.37C1122,1544.49,1099,1538.87,1099,1538.87Z" transform="translate(-122.14 -3.93)"/><path class="cls-5" d="M1138.41,1258.46h-98.17a6.42,6.42,0,0,0-5.92,4l-30.21,74H950a2.75,2.75,0,0,0-2.73,2.75h0a2.74,2.74,0,0,0,2.73,2.74h154a10.73,10.73,0,0,0,9.8-6.37l30.43-68a6.42,6.42,0,0,0-5.82-9.07Z" transform="translate(-122.14 -3.93)"/><path class="cls-17" d="M1085.57,1301.52c-.66,3.32-3.55,5.54-6.45,5s-4.71-3.75-4-7.07,3.56-5.54,6.46-5S1086.24,1298.2,1085.57,1301.52Z" transform="translate(-122.14 -3.93)"/><path class="cls-5" d="M1032.16,1088.09a75.55,75.55,0,0,1-8.68-3.48c-3.18-1.53-7.3-3.33-9.9-3.73-5.48-.85-14.89-.28-20.09,5.35-6.47,7-18,1.27-15.65,38,2.62,41.63,25.77,37.06,26.33,36.35s20.64-26.63,20.64-26.63,7,15.36,7,14.8S1067.68,1100.05,1032.16,1088.09Z" transform="translate(-122.14 -3.93)"/><path class="cls-15" d="M1014.58,1163.71l2,14.87s4.48,21.43-1.28,25.56S990.81,1178,990.81,1178l2-37.69Z" transform="translate(-122.14 -3.93)"/><path class="cls-18" d="M992.15,1152.5c4.76,12.85,16.09,20.78,24.09,23.78l-1.7-12.61-21.75-23.39Z" transform="translate(-122.14 -3.93)"/><path class="cls-15" d="M1013.4,1099.28a19.84,19.84,0,0,1,22.62,16.59,20.49,20.49,0,0,1,.22,3.41,148.73,148.73,0,0,1-1.67,19.08c-2.65,17.17-14.37,32.29-22.11,30.94s-27.24-16.16-23.81-40.59C990.77,1113.66,1000.6,1101.33,1013.4,1099.28Z" transform="translate(-122.14 -3.93)"/><path class="cls-15" d="M994,1131.66c-.65,3.78-3.68,6.4-6.76,5.87s-5-4-4.38-7.81,3.67-6.4,6.75-5.87S994.68,1127.89,994,1131.66Z" transform="translate(-122.14 -3.93)"/><path class="cls-5" d="M989.64,1123.85s9.37,2.33,12.84-3.69,15.91-19,31.7-13.64-13.9-13.1-15.16-13.1l-16.43-.11s-11.69,9.62-12.11,10.68-3.8,12.57-3.8,12.57Z" transform="translate(-122.14 -3.93)"/><path class="cls-17" d="M1006.78,1149l17,3.25s-1.63,6.42-9.16,5.21C1005.47,1156,1006.78,1149,1006.78,1149Z" transform="translate(-122.14 -3.93)"/><path class="cls-17" d="M1552.69,526.82l17,3.25s-1.63,6.42-9.16,5.21C1551.38,533.8,1552.69,526.82,1552.69,526.82Z" transform="translate(-122.14 -3.93)"/><path class="cls-19" d="M626.44,968.86a17.71,17.71,0,0,0,1.85,4.5C633.63,983.09,646,997,646,997l9.6-21.61s-1.57-6.79-4.28-16.49C642.09,961.29,633.26,962.68,626.44,968.86Z" transform="translate(-122.14 -3.93)"/><path class="cls-20" d="M681.43,950.12s-53.5,23-55.23,22.6c-1.11-.29-21.94-35.15-22.17-67.94-.1-15.14,15.63-33.36,33.17-29.75,8.84,1.81,8.7,4.27,21.77,23.26S681.43,950.12,681.43,950.12Z" transform="translate(-122.14 -3.93)"/><path class="cls-15" d="M727.09,1363.15l-1.27,21c-.47,2.67-2.31,9.26-2.31,11.69,0,9.11,43.26-7.74,33.57-11.78-.88-.36-5.48-3.12-5.77-6.22-.44-4.78-1.57-14.45-1.57-14.45Z" transform="translate(-122.14 -3.93)"/><path class="cls-14" d="M757,1384s-10.16,2.78-15.36,3.48-12.06-5.17-15.74-3.58c-4,1.74-3.89,17.44-3.89,17.44s54.46,4.47,69.78-.15C797.83,1399.38,777.73,1390.52,757,1384Z" transform="translate(-122.14 -3.93)"/><path class="cls-15" d="M638.6,1363.15s-1.27,21-1.28,21c-.46,2.67-2.3,9.26-2.3,11.69,0,9.11,43.26-7.74,33.56-11.78-.87-.36-6.83-5.19-7.12-8.29-.45-4.77-.21-12.38-.21-12.38Z" transform="translate(-122.14 -3.93)"/><path class="cls-14" d="M668.48,1384s-10.16,2.78-15.36,3.48-12.06-5.17-15.74-3.58c-4,1.74-4.21,17.44-4.21,17.44s54.71,5.21,70.1-.15C709.24,1399.13,689.24,1390.52,668.48,1384Z" transform="translate(-122.14 -3.93)"/><path class="cls-15" d="M651.82,980.51l38.1-53.38c.16-.46.51-1.42,1-2.88,1.92-5.3,5.91-16.32,9.39-27.28v-.12c1.1-3.83,3.41-10.51,5.65-17,2.49-7.19,5.58-16.11,5.69-17.63-.09-.26-.27-.73-.51-1.35-1.4-3.62-3.29-12.26-4-16-.42-2.39-.85-8.21,2-8.21,4.46,0,2.34,5.81,4.4,9.43A91.17,91.17,0,0,0,716.63,834l.75-11.35c.14-.85-.77-7.11,2.37-7.11h.15c2.81.21,2.75,6.86,3.92,18.12.37-1.3.74-2.86,1-4.29a42.83,42.83,0,0,1,1-5.94c-.56-3.14-.23-8.09,3.11-7.62,1.67.23,1.53,7.14,1.53,7.14,0,.94-.11,8.24-.06,9.69.34-2.45,1.68-12.9,4.3-12.9,2.17,0,2.35,2.81,2.3,5,0,1.31-1.39,12.63-1.46,14,1-1.72,2.23-11.69,3.25-11.69,4.23,0,2.7,14.18,1.14,17.87-.19.66-.35,1.33-.48,2a34.31,34.31,0,0,1-3.63,10.55c-2.66,4.55-6.33,11.79-6.89,12.9-.41,2.26-1.69,10.39-3.29,20.62-.69,4.37-1.44,9.17-2.22,14.14h0c-.15,1.08-.94,4.5-4,17.33-4.12,17.56-4.55,18.32-4.73,18.64-1.79,3.17-42.87,58.95-44.62,61.33l-1,1.4Z" transform="translate(-122.14 -3.93)"/><path class="cls-18" d="M722.68,856s-3.09-7.91-8.59-7.93a6.31,6.31,0,0,1,5.71,1C722.44,851.17,722.68,856,722.68,856Z" transform="translate(-122.14 -3.93)"/><path class="cls-15" d="M642.62,840.75l-4.91,31s18.69,15,29.58,11.84c9.14-2.65,2.88-14.6,2.88-14.6s-4.87-16.56-3.38-25.24S642.62,840.75,642.62,840.75Z" transform="translate(-122.14 -3.93)"/><path class="cls-21" d="M646.17,850.12a76.46,76.46,0,0,0,21.15,6c-.69-4.35-1.08-8.94-.5-12.33.69-4-4.41-4.95-10.09-4.81-7.45.63-14.08,1.8-14.08,1.8l-1,6A15.43,15.43,0,0,0,646.17,850.12Z" transform="translate(-122.14 -3.93)"/><path class="cls-15" d="M619,805c-.77,0,7.39,34.65,20,40.61s31.45,2.86,35-6.48c3.91-10.32-10.34-45.67-28.1-50.16S619,805,619,805Z" transform="translate(-122.14 -3.93)"/><path class="cls-22" d="M633.64,773.13a39.87,39.87,0,0,0-16.27,18c-4.73,2.25-10.46,7.1-13.21,20.2-3.38,16.09,8.64,28.5,21.38,32.23s14.71,12.16,14.71,12.16l1.45-9.07s-2.84-7.9-7.1-11.86,2-9.71,2.57-14.41c.43-3.62-2.24-10.65-1.66-16.59,0,0,7.08-10.73,14.06-13.38C661.47,785.87,646.58,765.68,633.64,773.13Z" transform="translate(-122.14 -3.93)"/><path class="cls-15" d="M639,826.39c1.65,4,1,8-1.51,8.88s-5.83-1.62-7.48-5.62-1-8,1.51-8.88S637.36,822.39,639,826.39Z" transform="translate(-122.14 -3.93)"/><path class="cls-19" d="M686,981.36l73.49-12s-8.36-21-11.35-21-55.57,23-55.57,23l-4.18,8.39Z" transform="translate(-122.14 -3.93)"/><path class="cls-23" d="M648.4,1031.75s-7.33,35.44-4.35,62.32,3.23,122.33,3.23,122.33l-11.41,152.74,27,.59S695,1217.06,694.35,1221s10.82-107.49,10.82-107.49l-38.24-85.1Z" transform="translate(-122.14 -3.93)"/><path class="cls-5" d="M655.57,1030.07s-4.78,31.91,1.19,45.91S708,1227.31,708.61,1238.5s15.65,135,15.65,135l31.45-.88,6.81-137.6-14.25-172.94-13.83-43.73Z" transform="translate(-122.14 -3.93)"/><path class="cls-15" d="M637.71,871.76s7.76,5.09,15,4.5S670.18,869,670.18,869l-1.43-4.82s-18.71-2.73-19.18-2.43S637.71,871.76,637.71,871.76Z" transform="translate(-122.14 -3.93)"/><path class="cls-19" d="M720.38,947.29s27.8,26.24,40.35,21.76,17.74-19.79-12.88-42.19C720.45,906.81,720.38,947.29,720.38,947.29Z" transform="translate(-122.14 -3.93)"/><path class="cls-24" d="M739.22,979.68c-4.13-22.46-34.06-92.37-36.45-105.25-1.16-6.26-17.31-6.4-32.68-5.58-16.24.86-32.38,2.91-32.38,2.91s-14.38,2.37-20.7,8.29-8,22.32,1.08,53.44c7.18,24.57,16.08,38.06,20.49,56,.89,6,1.65,11.92,2.67,18.84,1.61,26.76,0,62.1,0,62.1s78.27,16.24,107.55-8.4C748.78,1062,743.45,1002.68,739.22,979.68Z" transform="translate(-122.14 -3.93)"/><path class="cls-24" d="M759.17,931.38s-30.71,25.35-32.5,25.35c-1.15,0-43.83-31.39-53.68-57.18-5.44-14.26,6-30.21,19-30.16,9,0,13.07,2.37,31,17.48S759.17,931.38,759.17,931.38Z" transform="translate(-122.14 -3.93)"/><path class="cls-17" d="M659.78,831.81,670.19,824s2.76,4.21-1.72,7.77C663,836.13,659.78,831.81,659.78,831.81Z" transform="translate(-122.14 -3.93)"/><path class="cls-9" d="M2064.43,206s-37.28,81.16-62.37,115.45-49,67.07-69,162.23S1916.47,588.37,1911,613s-41.13,124.16-41.34,142.42-72.06,122.21-90.47,170.87-51,118.15-49.17,153.53l8.19-2.08s6.67-82.5,63.47-165.88,48.68-99.12,113.19-142S2021,608.69,2021,608.69s65.62-128.52,62.57-195.34S2098,286.3,2064.43,206Z" transform="translate(-122.14 -3.93)"/><path class="cls-9" d="M1977.12,81.13s-2.17,53.32-19.37,85-32,50.91-35.13,85.18-13.93,122.6-61.88,165.74-54.08,172.36-90.59,211.45-41.27,67.2-34.53,134.25,29.64,160-23.31,281.26l-12-30.17s37.88-99.78,28.71-158.21-41.08-146.71-29.4-189S1667.86,616,1694,552s15.41-86.29,51-141.66c0,0,3.65-2.59,13-49.44s84.83-132.71,119.61-162S1962.58,122.56,1977.12,81.13Z" transform="translate(-122.14 -3.93)"/><path class="cls-25" d="M1835.47,345.12s-41.65,71.3-42.24,117.19,4.38,83.23-16.69,146.07,20.75,102.58,8.69,137.28-13,75.78-12.62,106.93-47.7,134.26-55,186.46,2,52.38,2,52.38,8-68.92,19-91.71S1783.3,898.35,1791.16,868s29.15-49.91,47.52-101.39,44.49-94.85,42.5-167.91S1908.63,448.49,1835.47,345.12Z" transform="translate(-122.14 -3.93)"/><path class="cls-25" d="M1747.3,1043.59s19.42-90.49,101.31-99.53,130,7.16,187.86-58.95,91.46-171,109.94-189.09c0,0-29.07-15-77.39,30.22S1986.74,805.7,1958.76,832s-50.69,9.16-80.23,26.5C1853.77,873,1821.76,915,1807.66,937a99.3,99.3,0,0,1-16.25,19.46c-5.67,5.24-12.43,11.66-16.76,16.38-8.67,9.45-33.68,71-33.68,71Z" transform="translate(-122.14 -3.93)"/><path class="cls-25" d="M1718.43,1027.63S1747.3,917,1728,862.8s-79.85-94.23-77.42-128.25,41.29-126,9.61-194.42c0,0-12,61.06-23.91,74.64s-93.37,68.36-78.92,140.71S1651,844.73,1670.5,866s45.86,21.27,46,35.43,5.31,65.65-3.44,116.46Z" transform="translate(-122.14 -3.93)"/><path class="cls-10" d="M1750,953.57l40.55-116.8s23.82-93.95,37.62-172.29,7.31-319.36,7.31-319.36-41.65,71.3-42.24,117.19,4.38,83.23-16.69,146.07,20.75,102.58,8.69,137.28-13,75.78-12.62,106.93-47.7,134.26-55,186.46c-4,28.6-3,41.57-1.29,47.46C1709.8,1040.85,1750,953.57,1750,953.57Z" transform="translate(-122.14 -3.93)"/><path class="cls-9" d="M1949.69,884c-36.17,7.22-68.51,4.76-111.45,36.72s-68.19,66.09-68.19,66.09-19.3,34.49-27.28,52.68c-1.15,2.78-1.82,4.44-1.82,4.44l6.33-.33s19.42-90.49,101.31-99.53,130,7.16,187.86-58.95,91.46-171,109.94-189.09c0,0-61.53,47.87-99.56,90.24S1985.89,876.76,1949.69,884Z" transform="translate(-122.14 -3.93)"/><path class="cls-10" d="M1636.24,614.77c-11.88,13.59-93.37,68.36-78.92,140.71S1651,844.73,1670.5,866s45.86,21.27,46,35.43,5.31,65.65-3.44,116.46l2.34,4.24c4.27-19.83,10.2-50,12.14-73,3.15-37.23-2.88-52.65-14.85-82.81s-86.34-91.61-105-123.91,35.94-86.3,48-112.37,4.37-90,4.37-90S1648.11,601.19,1636.24,614.77Z" transform="translate(-122.14 -3.93)"/><path class="cls-10" d="M1829.57,974.16l12.73-30.77c9.88-22.63,35.15-33.43,56.45-24.13h0c53.69,23.43,77,88.65,52.13,145.68l-18.2,41.69c-8,18.26-5.2,38.36,5.56,52.52,9.76,12.87,11.35,30.76,4.58,46.27l-9.59,22a87.42,87.42,0,0,1-54.54,48.67,53,53,0,0,0-33,29.77L1832.16,1337c-15,34.4-53.45,50.83-85.84,36.7l-18.48-8.07c-32.39-14.14-46.47-53.49-31.45-87.9h0c24.29-41.14,22.35-71.84,13.74-92.67a124.62,124.62,0,0,1,1.19-97.21l1.92-4.4a123.66,123.66,0,0,1,75.57-68.39C1803.45,1010.37,1818.74,999,1829.57,974.16Z" transform="translate(-122.14 -3.93)"/><path class="cls-11" d="M1600.35,1408.69c26-33.78,168.9-214.72,262-244.88,102.82-33.28,5.91,98.92,5.91,98.92s182.39-199.44,249.33-181.46c61.35,16.48,0,140.1,0,140.1s69.1-68.46,152.9-68.46c81.55,0-57,242.78-64.46,255.78Z" transform="translate(-122.14 -3.93)"/><path class="cls-9" d="M2150,1017.21a1202,1202,0,0,0-160,383l-5.11-1.37A1209.78,1209.78,0,0,1,2144.28,1019c17.29-27,36-59.07,68.34-69.61.62-.2.86.75.26,1C2183.31,961.57,2166.19,992,2150,1017.21Z" transform="translate(-122.14 -3.93)"/><path class="cls-9" d="M2008,1405.06a1502,1502,0,0,1,304.89-308.93c1.21-.91,2.83,1.19,1.62,2.12a1500.65,1500.65,0,0,0-300.18,308.5Z" transform="translate(-122.14 -3.93)"/><path class="cls-9" d="M2156.82,945c1.92,2.82,9.26,10.18,11.42,19.84,2.9,9.17.61,20.65.36,20.25-.55.23,8.5-7.42,11.33-19.59,3.66-11.68,1.1-27.87-3.46-33.23-7.86-12.13-21.6-13.36-24.27-7.48C2149.37,930.69,2153,938.62,2156.82,945Z" transform="translate(-122.14 -3.93)"/><path class="cls-9" d="M2174.69,1048.92c-2.78-2-10-9.46-19.62-11.81-9.11-3.07-20.63-1-20.24-.76-.23.55,7.59-8.35,19.82-10.93,11.74-3.43,27.88-.55,33.15,4.11,12,8.1,12.93,21.86,7,24.41C2188.86,1056.69,2181,1052.91,2174.69,1048.92Z" transform="translate(-122.14 -3.93)"/><path class="cls-9" d="M2147.74,1094.45c-2.78-2-10-9.46-19.61-11.8-9.11-3.08-20.64-1-20.24-.77-.24.55,7.59-8.35,19.81-10.93,11.75-3.43,27.89-.55,33.16,4.11,12,8.1,12.93,21.86,7,24.41C2162,1102.19,2154.08,1098.44,2147.74,1094.45Z" transform="translate(-122.14 -3.93)"/><path class="cls-9" d="M2243.69,1200.07c-2.78-2-10-9.47-19.62-11.81-9.11-3.08-20.63-1-20.23-.77-.24.55,7.58-8.35,19.81-10.93,11.74-3.43,27.88-.55,33.15,4.11,12,8.1,12.93,21.86,7,24.41C2257.92,1207.8,2250.05,1204.05,2243.69,1200.07Z" transform="translate(-122.14 -3.93)"/><path class="cls-9" d="M2292.74,1156.87c-2.78-2-10-9.46-19.62-11.81-9.11-3.08-20.63-1-20.24-.76-.24.55,7.59-8.35,19.82-10.94,11.74-3.42,27.88-.54,33.15,4.11,12,8.1,12.93,21.86,7,24.42S2299.08,1160.86,2292.74,1156.87Z" transform="translate(-122.14 -3.93)"/><path class="cls-9" d="M2119.18,996.56c2.34,2.48,10.75,8.59,14.4,17.8,4.31,8.59,3.86,20.29,3.55,19.93-.51.32,7.22-8.67,8.1-21.13,1.77-12.11-3.31-27.69-8.65-32.27-9.68-10.74-23.44-9.78-25.15-3.56C2109.56,983.55,2114.36,990.83,2119.18,996.56Z" transform="translate(-122.14 -3.93)"/><path class="cls-9" d="M2079.61,1048.19c3.33,1.77,15,5,20.82,13.68,6.62,7.74,7.46,21,7,20.72-.62.57,8.29-12.78,7.9-27.07.83-14.27-7.65-29.48-15.12-32.29-13.83-7.83-31.53-.85-33,6.84C2065.58,1037.81,2072.69,1043.87,2079.61,1048.19Z" transform="translate(-122.14 -3.93)"/><path class="cls-9" d="M2038,1126.4c3.58,1.18,15.58,2.38,22.81,10,7.83,6.52,10.89,19.44,10.41,19.25-.52.66,6-14,3.24-28-1.59-14.21-12.5-27.78-20.34-29.3-14.95-5.38-31.22,4.47-31.36,12.29C2022.39,1118.52,2030.41,1123.31,2038,1126.4Z" transform="translate(-122.14 -3.93)"/><path class="cls-9" d="M2161.19,1180.88c2.61,1.63,11.89,4.89,16.15,12.31,4.94,6.67,4.87,17.5,4.53,17.25-.54.43,7.47-9.92,8-21.56,1.49-11.56-4.54-24.42-10.46-27.14-10.81-7.15-25.6-2.48-27.22,3.69C2150.36,1171.63,2155.79,1177,2161.19,1180.88Z" transform="translate(-122.14 -3.93)"/><path class="cls-9" d="M2225.34,963.35c-1.56-1.29-5.5-6-11.09-7.85-5.26-2.22-12.16-1.5-11.94-1.33-.16.31,4.85-4.61,12.2-5.6,7.1-1.52,16.52.89,19.43,3.88,6.73,5.31,6.69,13.49,3.07,14.74S2228.91,966,2225.34,963.35Z" transform="translate(-122.14 -3.93)"/><path class="cls-9" d="M2210.4,930.11c.07,2,1.42,8-.56,13.57-1.45,5.52-6.23,10.55-6.23,10.28-.35-.06,6.61-1,11.88-6.25,5.54-4.69,9.38-13.63,8.79-17.76-.1-8.57-6.6-13.54-9.8-11.43S2210.49,925.69,2210.4,930.11Z" transform="translate(-122.14 -3.93)"/><path class="cls-9" d="M2328.05,1112.87c-1.56-1.28-5.5-6-11.09-7.84-5.26-2.22-12.16-1.5-11.94-1.34-.17.32,4.85-4.6,12.2-5.6,7.1-1.51,16.52.9,19.43,3.88,6.73,5.32,6.69,13.5,3.07,14.75S2331.62,1115.51,2328.05,1112.87Z" transform="translate(-122.14 -3.93)"/><path class="cls-9" d="M2310,1079.35c.24,2,2.08,7.9.56,13.57-1,5.62-5.35,11-5.37,10.75-.35,0,6.51-1.57,11.34-7.19,5.12-5.14,8.22-14.35,7.3-18.42-.8-8.54-7.69-13-10.71-10.6S2309.76,1074.92,2310,1079.35Z" transform="translate(-122.14 -3.93)"/><path class="cls-9" d="M2297.48,1296c-76.09,8.34-147,41.93-215.19,74.68-46,22.09-43.68,28.38-53,31.67a1.9,1.9,0,0,1-2.3-2.58c3.6-7.14,13.06-12,19.63-16.08a256.94,256.94,0,0,1,23.77-13c17.37-8.43,35.18-16,52.88-23.7,36-15.65,72.61-30.37,110.65-40.33a387.28,387.28,0,0,1,63.56-11.33.31.31,0,0,1,.34.28.33.33,0,0,1-.29.34h0Z" transform="translate(-122.14 -3.93)"/><path class="cls-9" d="M2228.9,1272.37c.49,3.13,3.75,12.19,1.74,21.14-1.19,8.83-7.64,17.55-7.68,17.12-.56,0,10.05-2.87,17.22-12,7.67-8.34,11.91-22.92,10.21-29.21-1.8-13.27-12.83-19.72-17.39-15.84S2228.2,1265.47,2228.9,1272.37Z" transform="translate(-122.14 -3.93)"/><path class="cls-9" d="M2161.86,1296.38c.5,3.12,3.75,12.18,1.74,21.14-1.19,8.83-7.63,17.55-7.68,17.11-.55,0,10-2.87,17.22-12,7.68-8.34,11.92-22.93,10.22-29.22-1.81-13.27-12.84-19.72-17.4-15.84S2161.16,1289.48,2161.86,1296.38Z" transform="translate(-122.14 -3.93)"/><path class="cls-9" d="M2093.75,1326.74c.49,3.12,3.74,12.18,1.74,21.14-1.19,8.83-7.64,17.55-7.68,17.11-.56,0,10.05-2.87,17.22-12,7.67-8.34,11.91-22.93,10.21-29.22-1.8-13.26-12.84-19.72-17.39-15.84S2093.05,1319.84,2093.75,1326.74Z" transform="translate(-122.14 -3.93)"/><path class="cls-9" d="M2248.91,1335c-1.38-2.58-4-11.07-10.51-16.55-5.81-5.85-15.43-8.67-15.22-8.33-.39.33,9-3.49,19.36-.8,10.31,1.86,21.58,10.24,23.84,15.83,6.07,10.78,1.54,21.69-4,21.38S2252.24,1340.48,2248.91,1335Z" transform="translate(-122.14 -3.93)"/><path class="cls-9" d="M2179.18,1359.69c-1.37-2.58-4-11.07-10.51-16.55-5.81-5.85-15.43-8.67-15.22-8.33-.39.33,9-3.49,19.37-.8,10.31,1.86,21.57,10.24,23.83,15.83,6.07,10.78,1.54,21.69-4,21.38S2182.52,1365.16,2179.18,1359.69Z" transform="translate(-122.14 -3.93)"/><path class="cls-9" d="M2302,1309.6c-1.2-1.44-4-6.42-8.79-9-4.41-2.91-10.82-3.41-10.65-3.22-.2.26,5.2-3.38,12-3.06,6.72-.19,14.9,3.58,17.06,6.79,5.24,6,3.84,13.42.33,14S2304.83,1312.6,2302,1309.6Z" transform="translate(-122.14 -3.93)"/><path class="cls-9" d="M2294,1276.82c-.28,1.85,0,7.56-2.78,12.27-2.25,4.78-7.45,8.57-7.4,8.31-.31-.11,6.2.17,11.87-3.69,5.83-3.35,10.83-10.85,11-14.71,1.34-7.83-3.75-13.45-7-12.06S2294.8,1272.79,2294,1276.82Z" transform="translate(-122.14 -3.93)"/><path class="cls-21" d="M1726.74,1026.41c-4.68.74-9.46-.15-11.53-4.43C1714.75,1027.06,1722.44,1029.58,1726.74,1026.41Z" transform="translate(-122.14 -3.93)"/><path class="cls-17" d="M1554.33,727.7a2.51,2.51,0,0,1-1.53-.51,2.57,2.57,0,0,1-.53-3.6,589,589,0,0,0,37-56.24,2.57,2.57,0,1,1,4.45,2.58,590.48,590.48,0,0,1-37.35,56.73A2.56,2.56,0,0,1,1554.33,727.7Z" transform="translate(-122.14 -3.93)"/><g class="cls-26"><path class="cls-27" d="M1594.12,475.07a4.84,4.84,0,0,1,7.52-5.32c4.11,3.07,8.4,6,12.74,8.71a4.84,4.84,0,1,1-5.12,8.21c-4.58-2.85-9.09-5.93-13.41-9.16A4.77,4.77,0,0,1,1594.12,475.07Z" transform="translate(-122.14 -3.93)"/></g><path class="cls-5" d="M1890.64,1399.84l-347.92-671a7.7,7.7,0,0,1,13.67-7.08l347.92,671.05a7.7,7.7,0,1,1-13.67,7.08Z" transform="translate(-122.14 -3.93)"/><path class="cls-5" d="M1725.36,1405,1428,721.68a7.7,7.7,0,1,1,14.11-6.15l297.39,683.29a7.7,7.7,0,0,1-4,10.13,7.59,7.59,0,0,1-3.07.65A7.7,7.7,0,0,1,1725.36,1405Z" transform="translate(-122.14 -3.93)"/><path class="cls-5" d="M1491.23,851.75h120.62a4.81,4.81,0,1,0,0-9.62H1491.23a4.81,4.81,0,1,0,0,9.62Z" transform="translate(-122.14 -3.93)"/><path class="cls-5" d="M1523.46,926.47h120.62a4.81,4.81,0,1,0,0-9.62H1523.46a4.81,4.81,0,1,0,0,9.62Z" transform="translate(-122.14 -3.93)"/><path class="cls-5" d="M1566,1016h128.3a4.81,4.81,0,0,0,0-9.62H1566a4.81,4.81,0,1,0,0,9.62Z" transform="translate(-122.14 -3.93)"/><path class="cls-5" d="M1459.17,779.26h115.09a4.81,4.81,0,0,0,0-9.62H1459.17a4.81,4.81,0,0,0,0,9.62Z" transform="translate(-122.14 -3.93)"/><path class="cls-5" d="M1608.3,1118.9h139.41a4.81,4.81,0,0,0,0-9.62H1608.3a4.81,4.81,0,1,0,0,9.62Z" transform="translate(-122.14 -3.93)"/><path class="cls-5" d="M1641.06,1198.76h149.53a4.82,4.82,0,0,0,0-9.63H1641.06a4.82,4.82,0,0,0,0,9.63Z" transform="translate(-122.14 -3.93)"/><path class="cls-24" d="M1670.47,1101.67c15.39-13.41,48.48-24.14,48.48-24.14l19.9.43c5.06,5.69,7.34,16.7,8.32,23.6-3.75,2.25-10.78,4.22-23.66,4.83A193.63,193.63,0,0,1,1670.47,1101.67Z" transform="translate(-122.14 -3.93)"/><path class="cls-20" d="M1670.47,1101.67a193.63,193.63,0,0,0,53,4.72c12.88-.61,19.91-2.58,23.66-4.83.07.56.15,1.1.21,1.59a5.88,5.88,0,0,1-4.13,6.33c-18.18,5.58-58.17,3.78-73.77,2.82a4.11,4.11,0,0,1-2.94-6.69A34.74,34.74,0,0,1,1670.47,1101.67Z" transform="translate(-122.14 -3.93)"/><path class="cls-15" d="M1737.23,1060.78v15.83a6.45,6.45,0,0,1-5.1,6.31,25.07,25.07,0,0,1-11.15.11,6.17,6.17,0,0,1-4.61-5.29l-2-17Z" transform="translate(-122.14 -3.93)"/><path class="cls-20" d="M1636.57,979.67c6.17-13.75,4.41-19.93,16.63-18.56a16.67,16.67,0,0,1,3.72.81,11,11,0,0,1,0,7.17,135.88,135.88,0,0,1-21.41,39,13.43,13.43,0,0,1-10.31,5l-13.48.22C1624.51,1003.17,1631.45,991.08,1636.57,979.67Z" transform="translate(-122.14 -3.93)"/><path class="cls-24" d="M1610.87,993c10.34-7.28,14.21-37,14.21-37l15.94-8.12,12,8.71a11,11,0,0,1,3.88,5.35,16.67,16.67,0,0,0-3.72-.81c-12.22-1.37-10.46,4.81-16.63,18.56-5.12,11.41-12.06,23.5-24.85,33.72l-9.26.16a5,5,0,0,1-4-8A60,60,0,0,1,1610.87,993Z" transform="translate(-122.14 -3.93)"/><path class="cls-15" d="M1631.39,932.89l9.63,15a4.37,4.37,0,0,1-1,5.79c-3.09,2.42-8.44,5.14-15,2.33l-15.47-10.6Z" transform="translate(-122.14 -3.93)"/><path class="cls-14" d="M1703.65,774.83s5.07,14.27,12.41,64.41,12.18,86.59,16.18,106.48c3.67,18.18,9.44,83.66,9.1,112.3a6.87,6.87,0,0,1-7.07,6.79l-18.94-.6a6.13,6.13,0,0,1-5.87-5.1c-5-29.48-39.67-181.62-60.57-225.38,0,0-55.59,15.71-69.45,22,0,0,17.92,7.17,54.64,76,0,0-15.86,12.6-27.09,15.22,0,0-80.36-66.65-88.85-73.62s-16.22-19,5.44-40.89,88.16-56.41,88.16-56.41Z" transform="translate(-122.14 -3.93)"/><path class="cls-14" d="M1652,835.29a.88.88,0,0,0,.41-.1l19.83-7.64a24.9,24.9,0,0,0,14.1-22.23,1,1,0,0,0-1-1,.9.9,0,0,0-1,.95,23,23,0,0,1-13,20.51l-19.83,7.64a1,1,0,0,0,.42,1.83Z" transform="translate(-122.14 -3.93)"/><path class="cls-15" d="M1523.88,770.61s-20.88-15.81-30.39-12.84S1477,769.64,1477,769.64h21s5,9.62,0,9.62h-7.42S1510.17,799.8,1523.88,770.61Z" transform="translate(-122.14 -3.93)"/><path class="cls-23" d="M1559.23,621.55s-24.5,96.89-57.69,135.85c0,0,9,10.24,22.34,13.21,0,0,50.95-44.66,66.46-75.69S1559.23,621.55,1559.23,621.55Z" transform="translate(-122.14 -3.93)"/><path class="cls-15" d="M1592,529.32l24.35,44.53h-38.42s-3.09-20.36-13.19-32.61Z" transform="translate(-122.14 -3.93)"/><path class="cls-15" d="M1555.09,476.3s-12.19,28-13,42.72-4,24.25,13,27.21,31.33-5.51,39.09-20.16c0,0,12.16-22.57,9.43-31.82S1555.09,476.3,1555.09,476.3Z" transform="translate(-122.14 -3.93)"/><path class="cls-5" d="M1588.37,515.54h-2.15s8.86-18.17,1.07-21.36-38.6-9.48-45.25-20.42c-6.42-10.54-.7-24.16,7.86-28a1.14,1.14,0,0,1,1.45.53l.71,1.35a1.16,1.16,0,0,0,2.13-.22h0a1.15,1.15,0,0,1,2.07-.32c2,3.27,7.55,8.59,22.34,11.32,21,3.87,34.85,12.36,35.19,26.86a1.15,1.15,0,0,0,1.78.95c1.55-.95,4-1.39,7.34,1.4,5.77,4.84,3.41,17.41-9.22,27.74a1.15,1.15,0,0,0,0,1.85c2.29,1.49,5.71,5-3.14,9.77-9,4.83-14.4,4.3-16.42,3.79a1.16,1.16,0,0,1-.87-1.2l.79-12.85a1.15,1.15,0,0,0-1.15-1.22Z" transform="translate(-122.14 -3.93)"/><path class="cls-15" d="M1587.84,518.23s4.65-17.9,12.68-12.88-4.17,20-10.62,20.72Z" transform="translate(-122.14 -3.93)"/><path class="cls-5" d="M1621.73,570.36s-10.86-17.84-81.85-13.46C1503,559.17,1420,527,1401.51,510.83c0,0-12-.07-23.16,11.55,0,0,76.66,80.89,166,91.24,0,0,67.82,139.78,67.35,162.47,0,0,40.26,27,94.88,7.67,0,0,1.67-38.85-19.64-92.52C1659.3,621.55,1621.73,570.36,1621.73,570.36Z" transform="translate(-122.14 -3.93)"/><path class="cls-23" d="M1589.54,618.59a1,1,0,0,0,.08-1.92c-.34,0-34.42-2.8-39.73-3.4a1,1,0,1,0-.22,1.91c5.34.6,39.45,3.38,39.79,3.4Z" transform="translate(-122.14 -3.93)"/><path class="cls-15" d="M1379.76,518.45c-.62,2.26,7.65,5.38,12.12-4,0-4.39,2-23.29-.76-26.77-14.66-18.53-42.61-41.41-42.61-41.41a6.45,6.45,0,0,0-.48,9l13.64,13.2c-2.57,5.07-5.77,9.38-7.12,15.45a18.43,18.43,0,0,0,2.33,13.48c2.46,4.07,5.8,9.35,8.93,13.47A18.2,18.2,0,0,0,1379.76,518.45Z" transform="translate(-122.14 -3.93)"/><path class="cls-23" d="M2546.3,1403.46H127.61c-3,0-5.47,3.13-5.47,7h0c0,3.86,2.45,7,5.47,7H2546.3c3,0,5.47-3.12,5.47-7h0C2551.77,1406.54,2549.32,1403.46,2546.3,1403.46Z" transform="translate(-122.14 -3.93)"/><path class="cls-6" d="M986.24,1392.28C989.11,1414,1003.3,1522,1003.3,1522L970.37,1526s-40.5-141-38.42-162.51,17.23-23.37,17.23-23.37S978.64,1334.83,986.24,1392.28Z" transform="translate(-122.14 -3.93)"/><path class="cls-6" d="M1090.75,1357.93c4.64-9.76,15.19-22.47,33.75-14.82,17.7,7.3,22.45,25.24,16.87,43.61s-42.36,126.37-43.64,141.22l-29.36.2s5.34-85.52,6.65-106.19C1076.24,1402.06,1082.72,1374.82,1090.75,1357.93Z" transform="translate(-122.14 -3.93)"/><path class="cls-17" d="M1547.1,525.76l17,3.25s-1.63,6.42-9.16,5.21C1545.79,532.74,1547.1,525.76,1547.1,525.76Z" transform="translate(-122.14 -3.93)"/></svg>