<svg id="Layer_1" data-name="Layer 1" xmlns="http://www.w3.org/2000/svg" viewBox="0 0 2691.66 1560.07"><defs><style>.cls-1,.cls-13,.cls-14,.cls-15,.cls-19,.cls-34{fill:#87bad0;}.cls-1{opacity:0.22;}.cls-2{fill:#a8cff0;}.cls-3{fill:#164949;}.cls-4{fill:#fff;}.cls-5{fill:#347261;}.cls-6{fill:#407f6c;}.cls-7{fill:#2b6050;}.cls-8{fill:#649e89;}.cls-9{fill:#4d8975;}.cls-10{fill:#37344c;}.cls-11{fill:#0b2b2b;}.cls-12{fill:#0f393a;}.cls-13{opacity:0.36;}.cls-14{opacity:0.06;}.cls-15{opacity:0.61;}.cls-16{fill:#aeaccc;}.cls-17{fill:#9b9bbc;}.cls-18{fill:#7f7fa5;}.cls-20{fill:#547b82;}.cls-21{fill:#76a3b2;}.cls-22{fill:#dee7ff;}.cls-23{fill:#f3f7ff;}.cls-24{fill:#c2d1f2;}.cls-25{fill:#163a39;}.cls-26{fill:#f1e3ff;}.cls-27{fill:#f7f7f7;}.cls-28{fill:#cfcfe8;}.cls-29{fill:#b4b4d3;}.cls-30{fill:#ffa543;}.cls-31{fill:#ffb757;}.cls-32{fill:#eaa149;}.cls-33{fill:#ffc76c;}.cls-34{opacity:0.88;}.cls-35{fill:#5a3b72;}.cls-36{fill:#ffb27d;}.cls-37{fill:#d36c44;}.cls-38{fill:#ef8351;}.cls-39{fill:#ed975d;}.cls-40{fill:#edcb50;}.cls-41{fill:#d8b64a;}</style></defs><title>header-groupement-fioul</title><path class="cls-1" d="M222.37,1992.18s-332.88-287.51-120.93-625.56,496.4-167.91,482.77-561.46S1238.67,378,1451.28,492.22s231.37,187.72,670.39,142.4,643.21,289.66,498.95,522.07c-168.5,271.46,339.13,297.8-46.55,836.31Z" transform="translate(-30.85 -434.93)"/><path class="cls-2" d="M3446,842" transform="translate(-30.85 -434.93)"/><polygon class="cls-3" points="827.31 712.06 959.99 712.11 999.93 612.87 867.46 612.82 827.31 712.06"/><path class="cls-4" d="M957.36,1097.4c1-3.49-1-6.32-4.5-6.32a9.05,9.05,0,0,0-8.13,6.32c-1,3.49,1,6.31,4.5,6.32A9.05,9.05,0,0,0,957.36,1097.4Z" transform="translate(-30.85 -434.93)"/><path class="cls-5" d="M2363.65,792.32s-37.28,81.16-62.37,115.45-49,67.07-69,162.23-16.59,104.72-22.07,129.3-41.13,124.16-41.34,142.42-72.06,122.21-90.47,170.87-51,118.15-49.17,153.53l8.19-2.08s6.67-82.5,63.47-165.88,48.68-99.12,113.19-142,106.16-161.15,106.16-161.15,65.62-128.52,62.57-195.34S2397.17,872.65,2363.65,792.32Z" transform="translate(-30.85 -434.93)"/><path class="cls-5" d="M2276.34,667.48s-2.17,53.32-19.37,85-32,50.91-35.13,85.18S2207.92,960.26,2160,1003.4s-54.08,172.36-90.59,211.45-41.27,67.2-34.53,134.25,29.64,160-23.31,281.26l-12-30.17s37.88-99.78,28.71-158.21-41.08-146.71-29.4-189-31.76-50.61-5.6-114.65,15.41-86.29,51-141.66c0,0,3.65-2.59,13-49.44s84.83-132.71,119.61-162S2261.8,708.91,2276.34,667.48Z" transform="translate(-30.85 -434.93)"/><path class="cls-6" d="M2134.69,931.47s-41.65,71.3-42.24,117.19,4.38,83.23-16.69,146.07,20.75,102.58,8.69,137.28-13,75.78-12.62,106.93-47.7,134.26-55,186.46,2,52.38,2,52.38,8-68.92,19-91.71,44.69-101.37,52.55-131.77,29.15-49.91,47.52-101.39,44.49-94.85,42.5-167.91S2207.85,1034.84,2134.69,931.47Z" transform="translate(-30.85 -434.93)"/><path class="cls-6" d="M2046.52,1629.94s19.42-90.49,101.31-99.53,130,7.16,187.86-59,91.46-171,109.94-189.09c0,0-29.07-15-77.39,30.22S2286,1392.05,2258,1418.35s-50.69,9.16-80.23,26.5c-24.76,14.53-56.77,56.54-70.87,78.54a99.07,99.07,0,0,1-16.25,19.46c-5.67,5.24-12.43,11.66-16.76,16.38-8.67,9.45-33.68,71-33.68,71Z" transform="translate(-30.85 -434.93)"/><path class="cls-6" d="M2017.65,1614s28.87-110.67,9.53-164.83-79.85-94.23-77.42-128.25,41.29-126,9.61-194.42c0,0-12,61.06-23.91,74.64s-93.37,68.36-78.92,140.71,93.67,89.25,113.18,110.55,45.86,21.27,46,35.43,5.31,65.65-3.44,116.46Z" transform="translate(-30.85 -434.93)"/><path class="cls-7" d="M2049.21,1539.92l40.55-116.8s23.82-93.95,37.62-172.29,7.31-319.36,7.31-319.36-41.65,71.3-42.24,117.19,4.38,83.23-16.69,146.07,20.75,102.58,8.69,137.28-13,75.78-12.62,106.93-47.7,134.26-55,186.46c-4,28.6-3,41.57-1.29,47.46C2009,1627.2,2049.21,1539.92,2049.21,1539.92Z" transform="translate(-30.85 -434.93)"/><path class="cls-5" d="M2248.93,1470.34c-36.17,7.22-68.51,4.76-111.45,36.72s-68.19,66.09-68.19,66.09-19.3,34.49-27.28,52.68c-1.15,2.78-1.82,4.44-1.82,4.44l6.33-.33s19.42-90.49,101.31-99.53,130,7.16,187.86-59,91.46-171,109.94-189.09c0,0-61.53,47.87-99.56,90.24S2285.11,1463.11,2248.93,1470.34Z" transform="translate(-30.85 -434.93)"/><path class="cls-7" d="M1935.46,1201.12c-11.88,13.59-93.37,68.36-78.92,140.71s93.67,89.25,113.18,110.55,45.86,21.27,46,35.43,5.31,65.65-3.44,116.46l2.34,4.24c4.27-19.83,10.2-50,12.14-73,3.15-37.23-2.88-52.65-14.85-82.81s-86.34-91.61-105-123.91,35.94-86.3,48-112.37,4.37-90,4.37-90S1947.33,1187.54,1935.46,1201.12Z" transform="translate(-30.85 -434.93)"/><path class="cls-7" d="M2128.79,1560.51l12.73-30.77c9.88-22.63,35.15-33.43,56.45-24.13h0c53.69,23.43,77,88.65,52.13,145.68L2231.9,1693c-8,18.26-5.2,38.36,5.56,52.52,9.76,12.87,11.35,30.76,4.58,46.27l-9.59,22a87.44,87.44,0,0,1-54.57,48.69,53,53,0,0,0-33,29.77l-13.58,31.12c-15,34.4-53.45,50.83-85.84,36.7L2027,1952c-32.39-14.14-46.47-53.49-31.45-87.9h0c24.29-41.14,22.35-71.84,13.74-92.67a124.58,124.58,0,0,1,1.19-97.21l1.92-4.4a123.67,123.67,0,0,1,75.57-68.39C2102.67,1596.72,2118,1585.31,2128.79,1560.51Z" transform="translate(-30.85 -434.93)"/><path class="cls-8" d="M1899.57,1995c26-33.78,168.9-214.72,262-244.88,102.82-33.28,5.91,98.92,5.91,98.92s182.39-199.44,249.33-181.46c61.35,16.48,0,140.1,0,140.1s69.1-68.46,152.9-68.46c81.55,0-57,242.78-64.46,255.78Z" transform="translate(-30.85 -434.93)"/><path class="cls-5" d="M2384.09,1593.57a1201.66,1201.66,0,0,0-160,383l-5.11-1.37a1209.49,1209.49,0,0,1,159.38-379.79c17.29-27,36-59.08,68.34-69.62.62-.2.86.75.26,1C2417.39,1537.93,2400.27,1568.3,2384.09,1593.57Z" transform="translate(-30.85 -434.93)"/><path class="cls-5" d="M2242.05,1981.41a1501.87,1501.87,0,0,1,304.89-308.93c1.2-.9,2.83,1.19,1.62,2.12a1500.27,1500.27,0,0,0-300.18,308.51Z" transform="translate(-30.85 -434.93)"/><path class="cls-5" d="M2390.9,1521.39c1.92,2.82,9.26,10.18,11.42,19.85,2.9,9.17.61,20.65.36,20.24-.55.23,8.5-7.42,11.33-19.59,3.66-11.67,1.1-27.87-3.46-33.23-7.86-12.13-21.6-13.36-24.27-7.48C2383.45,1507,2387,1515,2390.9,1521.39Z" transform="translate(-30.85 -434.93)"/><path class="cls-5" d="M2408.73,1625.28c-2.79-2-10-9.46-19.62-11.81-9.11-3.08-20.63-1-20.24-.77-.24.55,7.59-8.34,19.82-10.93,11.74-3.43,27.88-.55,33.15,4.11,12,8.1,12.93,21.86,7,24.41C2422.94,1633,2415.07,1629.26,2408.73,1625.28Z" transform="translate(-30.85 -434.93)"/><path class="cls-5" d="M2381.82,1670.81c-2.78-2-10-9.46-19.61-11.81-9.12-3.08-20.64-1-20.24-.76-.24.54,7.59-8.35,19.81-10.94,11.75-3.43,27.88-.55,33.16,4.11,12,8.1,12.93,21.86,7,24.41C2396,1678.54,2388.16,1674.79,2381.82,1670.81Z" transform="translate(-30.85 -434.93)"/><path class="cls-5" d="M2477.79,1776.42c-2.78-2-10-9.46-19.62-11.81-9.11-3.08-20.63-1-20.24-.76-.24.54,7.59-8.35,19.82-10.94,11.74-3.43,27.88-.55,33.15,4.11,12,8.1,12.93,21.86,7,24.41C2492,1784.15,2484.13,1780.4,2477.79,1776.42Z" transform="translate(-30.85 -434.93)"/><path class="cls-5" d="M2526.82,1733.22c-2.79-2-10-9.46-19.62-11.8-9.11-3.08-20.63-1-20.24-.77-.24.55,7.59-8.35,19.82-10.93,11.74-3.43,27.88-.55,33.15,4.11,12,8.1,12.93,21.86,7,24.41C2541,1741,2533.16,1737.21,2526.82,1733.22Z" transform="translate(-30.85 -434.93)"/><path class="cls-5" d="M2353.26,1572.91c2.34,2.48,10.75,8.59,14.4,17.8,4.31,8.6,3.86,20.29,3.55,19.94-.51.31,7.22-8.68,8.1-21.14,1.77-12.1-3.31-27.69-8.65-32.27-9.68-10.73-23.44-9.78-25.15-3.56C2343.64,1559.9,2348.44,1567.18,2353.26,1572.91Z" transform="translate(-30.85 -434.93)"/><path class="cls-5" d="M2313.69,1624.55c3.33,1.76,15,5,20.82,13.67,6.62,7.74,7.46,21,7,20.72-.63.57,8.29-12.78,7.9-27.06.83-14.28-7.65-29.49-15.12-32.3-13.83-7.82-31.53-.85-33,6.84C2299.66,1614.16,2306.76,1620.22,2313.69,1624.55Z" transform="translate(-30.85 -434.93)"/><path class="cls-5" d="M2272.05,1702.75c3.58,1.18,15.59,2.38,22.82,10,7.83,6.52,10.89,19.44,10.41,19.25-.52.66,6-14,3.24-28-1.59-14.21-12.5-27.78-20.34-29.3-14.95-5.38-31.22,4.47-31.36,12.29C2256.47,1694.88,2264.49,1699.66,2272.05,1702.75Z" transform="translate(-30.85 -434.93)"/><path class="cls-5" d="M2395.27,1757.23c2.61,1.63,11.88,4.89,16.15,12.31,4.94,6.68,4.87,17.5,4.53,17.26-.54.42,7.47-9.93,8-21.57,1.48-11.56-4.54-24.42-10.46-27.13-10.81-7.15-25.6-2.49-27.22,3.68C2384.44,1748,2389.87,1753.32,2395.27,1757.23Z" transform="translate(-30.85 -434.93)"/><path class="cls-5" d="M2459.42,1539.7c-1.56-1.29-5.5-6-11.09-7.84-5.26-2.22-12.16-1.51-11.94-1.34-.17.31,4.85-4.61,12.2-5.6,7.1-1.52,16.52.89,19.43,3.88,6.73,5.32,6.69,13.5,3.07,14.75S2463,1542.33,2459.42,1539.7Z" transform="translate(-30.85 -434.93)"/><path class="cls-5" d="M2444.48,1506.47c.06,2,1.42,8-.56,13.57-1.45,5.51-6.23,10.55-6.23,10.27-.35-.06,6.61-1,11.88-6.24,5.54-4.7,9.38-13.63,8.79-17.77-.1-8.57-6.6-13.54-9.8-11.43S2444.57,1502,2444.48,1506.47Z" transform="translate(-30.85 -434.93)"/><path class="cls-5" d="M2562.12,1689.23c-1.55-1.29-5.49-6-11.08-7.85-5.26-2.22-12.17-1.5-11.94-1.33-.17.31,4.85-4.61,12.2-5.61,7.1-1.51,16.52.9,19.43,3.89,6.73,5.31,6.69,13.49,3.07,14.74S2565.7,1691.86,2562.12,1689.23Z" transform="translate(-30.85 -434.93)"/><path class="cls-5" d="M2544.1,1655.71c.24,2,2.08,7.89.56,13.57-1,5.61-5.35,11-5.37,10.74-.35,0,6.51-1.57,11.33-7.19,5.13-5.13,8.23-14.35,7.31-18.42-.81-8.54-7.69-13-10.71-10.6S2543.83,1651.27,2544.1,1655.71Z" transform="translate(-30.85 -434.93)"/><path class="cls-5" d="M2531.56,1872.32c-76.09,8.34-147,41.93-215.19,74.68-46,22.09-43.68,28.38-53,31.67a1.89,1.89,0,0,1-2.3-2.58c3.6-7.14,13.05-12,19.63-16.08a255.11,255.11,0,0,1,23.77-12.94c17.36-8.43,35.18-16,52.88-23.71,36-15.65,72.61-30.36,110.65-40.33a388.34,388.34,0,0,1,63.56-11.33c.4,0,.44.57,0,.62Z" transform="translate(-30.85 -434.93)"/><path class="cls-5" d="M2463,1848.73c.49,3.12,3.74,12.18,1.74,21.14-1.19,8.83-7.64,17.55-7.69,17.11-.55,0,10-2.87,17.23-12,7.67-8.34,11.91-22.93,10.21-29.22-1.8-13.27-12.84-19.72-17.39-15.84S2462.28,1841.83,2463,1848.73Z" transform="translate(-30.85 -434.93)"/><path class="cls-5" d="M2395.94,1872.73c.5,3.12,3.75,12.18,1.74,21.14-1.19,8.83-7.63,17.55-7.68,17.11-.56,0,10.05-2.87,17.22-12,7.67-8.34,11.92-22.92,10.22-29.22-1.81-13.26-12.84-19.71-17.4-15.84S2395.24,1865.83,2395.94,1872.73Z" transform="translate(-30.85 -434.93)"/><path class="cls-5" d="M2327.83,1903.09c.49,3.12,3.74,12.19,1.74,21.14-1.19,8.83-7.64,17.55-7.69,17.11-.55,0,10.06-2.87,17.23-11.95,7.67-8.34,11.91-22.92,10.21-29.22-1.8-13.26-12.84-19.71-17.39-15.84S2327.13,1896.19,2327.83,1903.09Z" transform="translate(-30.85 -434.93)"/><path class="cls-5" d="M2483,1911.36c-1.38-2.58-4-11.07-10.52-16.55-5.8-5.84-15.42-8.67-15.21-8.33-.39.33,9-3.49,19.36-.8,10.31,1.87,21.58,10.25,23.84,15.83,6.07,10.79,1.54,21.7-4,21.38S2486.32,1916.84,2483,1911.36Z" transform="translate(-30.85 -434.93)"/><path class="cls-5" d="M2413.26,1936c-1.38-2.58-4-11.07-10.51-16.55-5.81-5.84-15.43-8.67-15.22-8.32-.39.32,9-3.5,19.37-.81,10.3,1.87,21.57,10.25,23.83,15.83,6.07,10.79,1.54,21.7-4,21.38C2421.2,1947.4,2416.6,1941.52,2413.26,1936Z" transform="translate(-30.85 -434.93)"/><path class="cls-5" d="M2536.09,1886c-1.2-1.43-4-6.42-8.79-9-4.41-2.9-10.83-3.41-10.65-3.22-.2.26,5.2-3.38,12-3.06,6.72-.19,14.9,3.58,17.06,6.79,5.24,6,3.84,13.42.33,14S2538.91,1889,2536.09,1886Z" transform="translate(-30.85 -434.93)"/><path class="cls-5" d="M2528.05,1853.17c-.28,1.85-.05,7.56-2.78,12.27-2.25,4.79-7.45,8.57-7.4,8.32-.31-.12,6.2.16,11.87-3.7,5.83-3.35,10.83-10.85,11-14.71,1.34-7.83-3.75-13.44-7-12.06S2528.88,1849.14,2528.05,1853.17Z" transform="translate(-30.85 -434.93)"/><path class="cls-5" d="M526.13,1398.5c-89.42-79.73-135.39-194.23-158.21-276.24-24.78-89-28.39-160.09-28.42-160.8l-4.86-.3c0,.72,3.65,72.3,28.58,161.92,23,82.83,69.5,198.5,160,279.21Z" transform="translate(-30.85 -434.93)"/><path class="cls-5" d="M349.68,940.85c4.41,20.5.72,39.87-8.68,53.85-14.73-10.85-26.32-28.23-30.72-48.73s-.72-39.86,8.67-53.84C333.69,903,345.27,920.35,349.68,940.85Z" transform="translate(-30.85 -434.93)"/><path class="cls-5" d="M322.26,999.23c15.4,14.33,24.41,33.16,26.15,51.28-16.91.77-35.52-6.09-50.92-20.42s-24.41-33.16-26.16-51.29C288.24,978,306.85,984.89,322.26,999.23Z" transform="translate(-30.85 -434.93)"/><path class="cls-5" d="M315,1060.56a78.43,78.43,0,0,1,44.13,35.53c-13.89,8.92-32.5,11.49-51.65,5.49A78.45,78.45,0,0,1,263.38,1066C277.27,1057.12,295.88,1054.55,315,1060.56Z" transform="translate(-30.85 -434.93)"/><path class="cls-5" d="M344.51,1134.34c15.17,4.78,27.29,17,34.16,32.47-11.5,9.66-26.55,13.32-41.72,8.53s-27.29-17-34.16-32.46C314.29,1133.22,329.35,1129.56,344.51,1134.34Z" transform="translate(-30.85 -434.93)"/><path class="cls-5" d="M370.41,1029a52.45,52.45,0,0,1,43-15.5,58.83,58.83,0,0,1-16.67,44.62,52.47,52.47,0,0,1-43,15.5A58.8,58.8,0,0,1,370.41,1029Z" transform="translate(-30.85 -434.93)"/><path class="cls-5" d="M384.24,1081.91a52.47,52.47,0,0,1,43-15.49A58.81,58.81,0,0,1,410.61,1111a52.44,52.44,0,0,1-43,15.49A58.78,58.78,0,0,1,384.24,1081.91Z" transform="translate(-30.85 -434.93)"/><path class="cls-7" d="M472.24,1506.62c-82.57-12-153.23-60.95-198-99.87-48.56-42.25-77.93-82.17-78.22-82.56l-2.94,1.69c.29.4,29.87,40.62,78.75,83.15C317,1448.34,388.43,1497.75,472,1509.94Z" transform="translate(-30.85 -434.93)"/><path class="cls-7" d="M194.06,1308.3c10.43,10.22,15.72,22.89,15.62,34.63-12.73-.65-26.13-6.31-36.56-16.54s-15.71-22.89-15.61-34.63C170.23,1292.41,183.63,1298.07,194.06,1308.3Z" transform="translate(-30.85 -434.93)"/><path class="cls-7" d="M200.52,1352.75c14.46,2.42,26.91,9.91,34.88,19.78-9.53,6.94-23,10.09-37.43,7.67s-26.92-9.91-34.89-19.78C172.62,1353.48,186.07,1350.33,200.52,1352.75Z" transform="translate(-30.85 -434.93)"/><path class="cls-7" d="M219.85,1391.18a54.68,54.68,0,0,1,39.3,3.72c-4.66,10.52-14.49,19.15-27.93,23a54.66,54.66,0,0,1-39.29-3.72C196.59,1403.67,206.42,1395,219.85,1391.18Z" transform="translate(-30.85 -434.93)"/><path class="cls-7" d="M265.3,1422.76c10.66-3,22.4-.58,32.32,5.76a30.23,30.23,0,0,1-21,21c-10.65,3-22.39.58-32.31-5.76A30.2,30.2,0,0,1,265.3,1422.76Z" transform="translate(-30.85 -434.93)"/><path class="cls-7" d="M240,1351.61A36.56,36.56,0,0,1,259,1326.08a41,41,0,0,1,7.44,32.34,36.53,36.53,0,0,1-19.08,25.52A40.93,40.93,0,0,1,240,1351.61Z" transform="translate(-30.85 -434.93)"/><path class="cls-7" d="M268.28,1377a36.55,36.55,0,0,1,19.08-25.53,41,41,0,0,1,7.43,32.34,36.55,36.55,0,0,1-19.08,25.52A41,41,0,0,1,268.28,1377Z" transform="translate(-30.85 -434.93)"/><path class="cls-8" d="M522,1753.75c-95.25,36.15-200.09,17.06-271.27-5.33-77.28-24.31-132.69-57.63-133.24-58l-2.11,4c.56.33,56.37,33.91,134.15,58.39,71.88,22.63,177.81,41.91,274.23,5.3Z" transform="translate(-30.85 -434.93)"/><path class="cls-8" d="M105.73,1671.11a68.79,68.79,0,0,1,37.57,35.09c-14,7.13-31.65,8.2-48.94,1.49a68.83,68.83,0,0,1-37.57-35.09C70.74,1665.47,88.44,1664.39,105.73,1671.11Z" transform="translate(-30.85 -434.93)"/><path class="cls-8" d="M139.48,1724.67a60.94,60.94,0,0,1,49.11,3.76,58.48,58.48,0,0,1-35.25,33.4,60.92,60.92,0,0,1-49.12-3.76A58.53,58.53,0,0,1,139.48,1724.67Z" transform="translate(-30.85 -434.93)"/><path class="cls-8" d="M183.29,1762.35c12-13.42,28.21-20.11,44.12-19.81a63.24,63.24,0,0,1-15.85,47.31c-12,13.42-28.2,20.11-44.11,19.81A63.19,63.19,0,0,1,183.29,1762.35Z" transform="translate(-30.85 -434.93)"/><path class="cls-8" d="M244.6,1781.8c12-13.41,28.2-20.1,44.11-19.81a63.21,63.21,0,0,1-15.84,47.32c-12,13.41-28.2,20.1-44.11,19.8A63.2,63.2,0,0,1,244.6,1781.8Z" transform="translate(-30.85 -434.93)"/><path class="cls-8" d="M186.92,1719c-10.55-13.73-15.25-30.28-14.13-45.29,13.89,1.62,28.09,9.69,38.63,23.42s15.25,30.28,14.13,45.29C211.66,1740.75,197.46,1732.68,186.92,1719Z" transform="translate(-30.85 -434.93)"/><path class="cls-8" d="M250.61,1738.88c-10.74-13.57-15.7-30.06-14.83-45.12,13.89,1.37,28.19,9.21,38.93,22.78s15.7,30.06,14.83,45.12C275.65,1760.29,261.35,1752.46,250.61,1738.88Z" transform="translate(-30.85 -434.93)"/><path class="cls-8" d="M325.18,1787.13a23.72,23.72,0,0,1,15-14.17,27.16,27.16,0,0,1,.88,21.61,23.73,23.73,0,0,1-15,14.17A27.2,27.2,0,0,1,325.18,1787.13Z" transform="translate(-30.85 -434.93)"/><path class="cls-5" d="M726.38,1969.44s121.35-479.94,81.11-528.16c-55.61-66.65-101.49,154.44-106,135.66-42.51-177.34-53.83-404.25-191-428.27-78-13.65,18,168.74,12.23,218.07s-146.26-114.45-231.62-200.25S161.69,1135,215.63,1242.9c52.16,104.33,220.89,218.34,186.11,231.87S155.81,1353.56,130,1411.16c-31.71,70.61,285,166.72,255.21,182.58S204,1557.36,208.08,1611.36s207.64,52,204.16,75.74c-5.63,38.47-140.22-48.59-146.14,4.63-6.05,54.43,177.07,44.5,173.9,87-1.82,24.4-41.12-12.4-46.91,21.4-13.2,77.05,228.2,170.92,228.2,170.92Z" transform="translate(-30.85 -434.93)"/><path class="cls-7" d="M818.91,1972.37s-115.49-177.07-171.06-210.5c-59.22-35.63-14.14,71-14.14,71s-121-144-154.64-114.74S476,1781.3,476,1781.3,367.33,1749.11,347.8,1789c-30,61.27,148.85,112.08,148.85,112.08s-76.78-.81-62.65,40.56C455.3,2004,818.91,1972.37,818.91,1972.37Z" transform="translate(-30.85 -434.93)"/><path class="cls-8" d="M347.8,1789c19.53-39.87,128.16-7.68,128.16-7.68s-30.53-33.88,3.11-63.14,130.44,58.32,130.44,58.32-10.15-72.22,62.74-8.6c52.07,45.44,146.66,204.49,146.66,204.49Z" transform="translate(-30.85 -434.93)"/><path class="cls-9" d="M678.72,1527.78l5.18-3.54c-94-142.41-122.73-311.47-130.25-428.23-8.16-126.7,6.17-220.88,6.31-221.81l-6.42-1.87c-.15.94-14.58,95.75-6.39,223.21C554.72,1213.28,583.69,1383.85,678.72,1527.78Z" transform="translate(-30.85 -434.93)"/><path class="cls-9" d="M578.47,852c.21,28.61-9.72,52.26-25.56,66.45a127.51,127.51,0,0,1-26.59-76.69c-.2-28.6,9.72-52.25,25.56-66.44A127.38,127.38,0,0,1,578.47,852Z" transform="translate(-30.85 -434.93)"/><path class="cls-9" d="M527.54,916.31c16,25.3,22.61,53.69,20,78.07-22-6.26-44.15-23.19-60.18-48.48s-22.6-53.69-20-78.07C489.37,874.09,511.52,891,527.54,916.31Z" transform="translate(-30.85 -434.93)"/><path class="cls-9" d="M501.85,993.14a125.2,125.2,0,0,1,47.4,65.25c-20.29,5.66-45,1-68-15a125.18,125.18,0,0,1-47.39-65.25C454.11,972.45,478.78,977.09,501.85,993.14Z" transform="translate(-30.85 -434.93)"/><path class="cls-9" d="M531.94,1127.26a52.25,52.25,0,0,1,21.63,26c-8.26,3.08-18.65,1.94-28.71-4.06a52.2,52.2,0,0,1-21.63-26C511.49,1120.12,521.88,1121.25,531.94,1127.26Z" transform="translate(-30.85 -434.93)"/><path class="cls-9" d="M540.12,1176.94a52.16,52.16,0,0,1,21.62,26c-8.26,3.07-18.64,1.94-28.7-4.06a52.17,52.17,0,0,1-21.63-26C519.67,1169.81,530.05,1170.94,540.12,1176.94Z" transform="translate(-30.85 -434.93)"/><path class="cls-9" d="M581.64,975.83c18.59-10.53,40.33-10.42,59.61-1.71-3.24,21.47-14.81,40.46-33.4,51s-40.33,10.42-59.61,1.71C551.47,1005.36,563.05,986.37,581.64,975.83Z" transform="translate(-30.85 -434.93)"/><path class="cls-9" d="M585.35,1050.68c18.59-10.53,40.33-10.42,59.61-1.71-3.23,21.46-14.81,40.45-33.4,51s-40.33,10.42-59.61,1.71C555.18,1080.2,566.76,1061.21,585.35,1050.68Z" transform="translate(-30.85 -434.93)"/><path class="cls-9" d="M581.66,1157.8c12.1-6.86,26.25-6.78,38.8-1.11-2.1,14-9.64,26.33-21.74,33.18s-26.25,6.79-38.8,1.12C562,1177,569.56,1164.66,581.66,1157.8Z" transform="translate(-30.85 -434.93)"/><path class="cls-4" d="M580.29,1358.53S455,1541,631,1732s296,29,296,29l13-213,173-126,29-111-144-25-190-19Z" transform="translate(-30.85 -434.93)"/><path class="cls-10" d="M1377.93,1235.21l11.72.17a31.57,31.57,0,0,1,16.1-14.11l.16-11.35A42.38,42.38,0,0,0,1377.93,1235.21Z" transform="translate(-30.85 -434.93)"/><path class="cls-11" d="M1417.64,1219.08l101.86,1.41-.23,16.69,10.72.13.22-16.67,33.31.47a34.47,34.47,0,0,0-9.92-10.87l-135.81-1.87c-.38,0-.76,0-1.15,0l-.15,10.73c.24,0,.47,0,.7,0Z" transform="translate(-30.85 -434.93)"/><path class="cls-10" d="M1869.53,1214.62l-47.75-.65,57,1.81A42.86,42.86,0,0,0,1869.53,1214.62Z" transform="translate(-30.85 -434.93)"/><path class="cls-11" d="M1700.44,1223c1.3-.91,2.63-1.79,4-2.61a64.87,64.87,0,0,1,20.5-7.77l-155.54-2.16a52.26,52.26,0,0,1,6.43,10.81Z" transform="translate(-30.85 -434.93)"/><path class="cls-3" d="M516.44,1579.54a7.12,7.12,0,0,1,2.32,4.09l5.06,31.25a5,5,0,0,1-1,4l32.61.45a281.21,281.21,0,0,1-13.19-39.47Z" transform="translate(-30.85 -434.93)"/><path class="cls-12" d="M523.82,1614.88l-5.06-31.25a7.12,7.12,0,0,0-2.32-4.09,6.82,6.82,0,0,0-4.43-1.81l-8.46-.13a4.75,4.75,0,0,0-4.87,5.75l5.07,31.25a7.23,7.23,0,0,0,6.75,5.91l8.46.11a4.82,4.82,0,0,0,3.87-1.7A5,5,0,0,0,523.82,1614.88Z" transform="translate(-30.85 -434.93)"/><path class="cls-12" d="M548.43,1669.91l-5.07-31.25a7.13,7.13,0,0,0-2.31-4.09,7,7,0,0,0-4.44-1.81l-8.46-.12a4.75,4.75,0,0,0-4.87,5.74l5.07,31.25a7.23,7.23,0,0,0,6.75,5.91l8.46.12a4.79,4.79,0,0,0,3.86-1.71A5,5,0,0,0,548.43,1669.91Z" transform="translate(-30.85 -434.93)"/><path class="cls-13" d="M1039,1705.43c10.06,4.42,19.46,11.39,27.86,20.45l48.91,1q-8.37-9.92-15.74-20.62Z" transform="translate(-30.85 -434.93)"/><path class="cls-13" d="M841.73,1721.29l121.06,2.47a81.31,81.31,0,0,1,27.21-19l-162.34-2.25Q834.26,1712.19,841.73,1721.29Z" transform="translate(-30.85 -434.93)"/><path class="cls-13" d="M728.37,1701.12a83.66,83.66,0,0,1,25.83,18.38l81.07,1.66q-7.5-9.06-14.17-18.75Z" transform="translate(-30.85 -434.93)"/><path class="cls-13" d="M1140.91,1672.36l47.14.66q-21-3.86-42-8Z" transform="translate(-30.85 -434.93)"/><path class="cls-13" d="M1086.4,1671.61l18.24.26,9.14-13.47q-18.37-3.86-36.93-8Q1081.23,1661.17,1086.4,1671.61Z" transform="translate(-30.85 -434.93)"/><path class="cls-13" d="M1021.44,1637.56A938.38,938.38,0,0,1,930,1609.39l7.75,24.36-24.9,35.45,166.71,2.32q-5.58-11.19-10.22-22.81Q1045.66,1643.37,1021.44,1637.56Z" transform="translate(-30.85 -434.93)"/><path class="cls-13" d="M1122.24,1727l149.36,3c8.7-9.47,18.5-16.66,29.05-21l-194-2.68C1111.47,1713.49,1116.68,1720.4,1122.24,1727Z" transform="translate(-30.85 -434.93)"/><path class="cls-13" d="M679.35,1700.44l-73.26-1c5.41,6,11.07,11.86,17,17.4l31.11.64A79.83,79.83,0,0,1,679.35,1700.44Z" transform="translate(-30.85 -434.93)"/><path class="cls-13" d="M774.09,1542.1a358.49,358.49,0,0,0,10.73,65.15,320.55,320.55,0,0,0,22.62,60.49l69.14,1,41.71-61.36,6.31.08c-49.49-18.24-96.92-39.76-145.21-62.78Z" transform="translate(-30.85 -434.93)"/><path class="cls-13" d="M1452.76,1707.8l-11.21-.93a6.9,6.9,0,0,1-6.38,4.08c-.25,0-85.5-1.21-85.5-1.21,10.81,4.75,20.82,12.46,29.69,22.52l93.47,1.91a268.05,268.05,0,0,1-19.55-25.58C1453.11,1708.32,1452.94,1708.06,1452.76,1707.8Z" transform="translate(-30.85 -434.93)"/><path class="cls-13" d="M585.69,1671.55a6.89,6.89,0,0,1,6.61-6.78c.63,0,56.22.77,56.22.77l42.07-61.89,11.09.16,8.36,26.27-25.26,36,115.81,1.6A325.84,325.84,0,0,1,778.32,1609a359.19,359.19,0,0,1-11.51-70.38q-27.57-13.26-54.7-27.16l-53.1-1.16-62.68-1.67-31.34-.84-31.34-1,31.36-.1,31.35,0,62.7.08,44.59.26c-53.38-27.84-104.89-58.43-152.15-95.16a281.44,281.44,0,0,0,3.94,207.45q3.28,7.88,7,15.5a285.51,285.51,0,0,0,23.18,39Z" transform="translate(-30.85 -434.93)"/><path class="cls-4" d="M1185.54,1544.31l101.34,1.41c-.94-8.51-1.61-17.1-2-25.75-33.77-.13-67.54-.52-101.31-.87Q1184.13,1531.79,1185.54,1544.31Z" transform="translate(-30.85 -434.93)"/><path class="cls-4" d="M1021.44,1637.56q24.25,5.81,47.89,11.15a339.16,339.16,0,0,1-12.06-35.85,367.12,367.12,0,0,1-12.32-95.41l-9.83-.12-125.38-1.93c-41.79-.79-83.58-1.4-125.37-2.38l-11.26-.24q-.08,14.67,1,29.32l5.3,2.54c48.29,23,95.72,44.54,145.21,62.78l4.78.06.61,1.91A938.38,938.38,0,0,0,1021.44,1637.56Z" transform="translate(-30.85 -434.93)"/><path class="cls-4" d="M1165.53,1518.93c.41,8.43,1.08,16.82,2.07,25.13l7.06.1q-1.35-12.5-1.88-25.16Z" transform="translate(-30.85 -434.93)"/><path class="cls-4" d="M1172.52,1504.91l-7.39-.09c0,2.46.08,4.93.15,7.39l7.32.13C1172.55,1509.87,1172.53,1507.4,1172.52,1504.91Z" transform="translate(-30.85 -434.93)"/><path class="cls-4" d="M1191.79,1247.45a5.32,5.32,0,0,1-.79,2.68,178.93,178.93,0,0,1,63.94-16.62l-63-.88Z" transform="translate(-30.85 -434.93)"/><path class="cls-4" d="M1169,1554.67a345,345,0,0,0,8.24,39.33l6.36.09a359.4,359.4,0,0,1-7.65-39.32Z" transform="translate(-30.85 -434.93)"/><path class="cls-4" d="M766,1512.63l-53.89-1.18q27.1,14,54.7,27.16C766.25,1530,766,1521.28,766,1512.63Z" transform="translate(-30.85 -434.93)"/><path class="cls-4" d="M1194.8,1594.25l101.13,1.4a357.83,357.83,0,0,1-7.41-37l-101.32-1.41A346.16,346.16,0,0,0,1194.8,1594.25Z" transform="translate(-30.85 -434.93)"/><path class="cls-4" d="M1154.33,1496.4c1.45-104.85,46.91-201.08,118.63-251.13a5.4,5.4,0,0,1,6.19,8.86,227.83,227.83,0,0,0-44.92,41.77l6.38.09a241.26,241.26,0,0,1,50.54-48.09,5.4,5.4,0,0,1,6.19,8.86,226.43,226.43,0,0,0-42.93,39.43l97.73,1.35a240.64,240.64,0,0,1,51.15-48.88,5.45,5.45,0,0,1,2.09-.87l.17-12.2-15.9-.21-11.72-.17-114.82-1.58c-1.43,0-2.87.11-4.3.22l-6.15.66c-2.05.22-4.1.4-6.12.81-4,.74-8.14,1.2-12.12,2.27l-6,1.4c-2,.44-3.94,1.15-5.91,1.71a186.15,186.15,0,0,0-44.69,20.2c-28,17.12-51.37,41-69.83,67.92a313.79,313.79,0,0,0-41.51,88.43,364.39,364.39,0,0,0-14.31,93.21l102.31,1.58C1154.33,1506.83,1154.26,1501.62,1154.33,1496.4Z" transform="translate(-30.85 -434.93)"/><path class="cls-4" d="M1400,1520.66l-86.12-.51c1.57,45.81,11.74,90.26,29.78,129.5a5.39,5.39,0,0,1-2.65,7.16,5.52,5.52,0,0,1-2.33.49,5.41,5.41,0,0,1-4.84-3.15,326.34,326.34,0,0,1-16.8-45.25l-6.12-.08a314.39,314.39,0,0,0,14.54,38.19,5.4,5.4,0,0,1-2.65,7.17,5.31,5.31,0,0,1-2.25.49,5.39,5.39,0,0,1-4.91-3.14,326.69,326.69,0,0,1-16.09-42.87l-101.07-1.41a313.74,313.74,0,0,0,14.84,39,5.38,5.38,0,0,1-2.66,7.16,5.31,5.31,0,0,1-2.32.5,5.39,5.39,0,0,1-4.84-3.15,325.57,325.57,0,0,1-17-46l-6.15-.08a314.59,314.59,0,0,0,14.79,39,5.4,5.4,0,0,1-2.64,7.17,5.52,5.52,0,0,1-2.26.49,5.43,5.43,0,0,1-4.92-3.14c-18-39.3-28.48-83.61-30.57-129.33l-102.66-1.27a364.94,364.94,0,0,0,11.71,93.57,324.12,324.12,0,0,0,13.08,39.28q18.57,4.15,36.93,8L1146,1611l11.1.16,8.35,26.27L1146.08,1665q20.94,4.17,42,8l144.63,2,41-60.32,11.09.16,8.36,26.27-24.16,34.4,65.6.9a326.88,326.88,0,0,1-22.27-58.65A367.6,367.6,0,0,1,1400,1520.66Z" transform="translate(-30.85 -434.93)"/><path class="cls-4" d="M1362.34,1310.78l-6.67-.1a281.43,281.43,0,0,0-23.93,38.76l7.31.1A296.49,296.49,0,0,1,1362.34,1310.78Z" transform="translate(-30.85 -434.93)"/><path class="cls-13" d="M1441.55,1706.87l11.21.93q-5.52-8.22-10.41-16.83l-.19,13.17A6.81,6.81,0,0,1,1441.55,1706.87Z" transform="translate(-30.85 -434.93)"/><path class="cls-4" d="M1334,1360.18l-7.41-.1a321.23,321.23,0,0,0-15.06,39l7.61.1A331.55,331.55,0,0,1,1334,1360.18Z" transform="translate(-30.85 -434.93)"/><path class="cls-13" d="M1580.65,1238c.24,1.56.42,3.14.56,4.74a171.78,171.78,0,0,1,28.76-4.34Z" transform="translate(-30.85 -434.93)"/><path class="cls-4" d="M1421.49,1251.29a5.4,5.4,0,1,1,6.18,8.86c-68.91,48.09-112.6,141-114,242.41-.05,4.2,0,8.38.07,12.55L1400,1517a367,367,0,0,1,15-96.75,331,331,0,0,1,18.11-46.59,285.69,285.69,0,0,1,25.37-43.05c19.38-27.07,43.7-51,72.53-67.79a190.63,190.63,0,0,1,39.63-17.21,61.61,61.61,0,0,0-1-7.73l-39.73-.56-10.72-.13-103-1.44-.21,14.82a5.33,5.33,0,0,1-5,5.24,5.21,5.21,0,0,1-1.56,1.72,228.22,228.22,0,0,0-45.57,42.56l6.38.09A241.42,241.42,0,0,1,1421.49,1251.29Z" transform="translate(-30.85 -434.93)"/><path class="cls-4" d="M1474,1520.79l-62.7-.07-4.18,0a364.91,364.91,0,0,0,11.71,95.34,314.22,314.22,0,0,0,39,89.54c.61.94,1.23,1.85,1.85,2.78,45,3.59,89.82,6.38,134.75,9-36.75-51.45-58.81-120.71-57.76-196.64l-31.35.1Z" transform="translate(-30.85 -434.93)"/><path class="cls-4" d="M1463,1333.75a314,314,0,0,0-41.5,88.42,364.27,364.27,0,0,0-14.35,95l4.17.09,62.68,1.67,31.34.84,31.34,1c1.41-101.38,43.64-189.78,106-239.09a204.59,204.59,0,0,1,34-21.9,53.67,53.67,0,0,1,7.86-20.27l-66.38-.92c-1.44.07-2.87.12-4.3.23l-6.15.66c-2,.21-4.1.4-6.12.81-4,.74-8.14,1.2-12.13,2.26l-6,1.41c-.71.16-1.41.37-2.1.57q.18,2.93.14,6a5.36,5.36,0,0,1-10.72-.16c0-.83,0-1.65,0-2.48a188.25,188.25,0,0,0-37.92,18C1504.87,1283,1481.46,1306.82,1463,1333.75Z" transform="translate(-30.85 -434.93)"/><path class="cls-4" d="M1306.38,1559l-6.91-.09a345.83,345.83,0,0,0,8.32,39.34l6.33.08A352.36,352.36,0,0,1,1306.38,1559Z" transform="translate(-30.85 -434.93)"/><path class="cls-4" d="M1302.84,1509.1l-7.38-.11c0,1.91.08,3.81.14,5.72l7.33.15C1302.9,1513,1302.84,1511,1302.84,1509.1Z" transform="translate(-30.85 -434.93)"/><path class="cls-4" d="M1316,1409.67l-7.64-.11a348.47,348.47,0,0,0-8.48,39.11l7.62.11A359,359,0,0,1,1316,1409.67Z" transform="translate(-30.85 -434.93)"/><path class="cls-4" d="M1303.05,1520.09l-7.3,0q.59,14.24,2.27,28.21l7,.1C1304,1539,1303.36,1529.57,1303.05,1520.09Z" transform="translate(-30.85 -434.93)"/><path class="cls-4" d="M1306,1459.33l-7.59-.1a361.7,361.7,0,0,0-2.86,39.18l7.43.11A374.53,374.53,0,0,1,1306,1459.33Z" transform="translate(-30.85 -434.93)"/><path class="cls-4" d="M1200.37,1395.12,1301,1396.5a334.35,334.35,0,0,1,13.83-36.58l-100-1.39A322.23,322.23,0,0,0,1200.37,1395.12Z" transform="translate(-30.85 -434.93)"/><path class="cls-4" d="M973.71,1230.65c-2.05.21-4.1.39-6.12.8-4.05.74-8.15,1.2-12.13,2.26l-6,1.41c-2,.44-3.94,1.15-5.92,1.71a186.26,186.26,0,0,0-44.68,20.2c-28,17.13-51.38,41-69.83,67.93a313.73,313.73,0,0,0-41.51,88.42,364.31,364.31,0,0,0-14.33,94.12l11.26.06c41.8.18,83.59.73,125.39,1.1l125.38,1.55,9.83.14a367,367,0,0,1,15-95,329.28,329.28,0,0,1,18.11-46.59,285.69,285.69,0,0,1,25.37-43c19.38-27.08,43.7-51,72.53-67.78,3.19-1.85,6.45-3.58,9.75-5.23a5.35,5.35,0,0,1-4.69-5.37l.2-14.81-123.35-1.72a66.84,66.84,0,0,0-1.85,14.76,5.41,5.41,0,0,1-5.4,5.3,5.35,5.35,0,0,1-5.32-5.34,77.56,77.56,0,0,1,1.65-14.87l-62.84-.87c-1.44.07-2.87.13-4.31.23Z" transform="translate(-30.85 -434.93)"/><path class="cls-4" d="M1221.27,1345.53l99.67,1.38a296.32,296.32,0,0,1,21.61-36.4l-98.47-1.37A279.85,279.85,0,0,0,1221.27,1345.53Z" transform="translate(-30.85 -434.93)"/><path class="cls-4" d="M1225.91,1306.51a281.57,281.57,0,0,0-24.09,38.75l7.32.1a294.93,294.93,0,0,1,23.43-38.77Z" transform="translate(-30.85 -434.93)"/><path class="cls-4" d="M1188.24,1444.75l101.1,1.4a357.92,357.92,0,0,1,7.89-36.74l-100.81-1.4A348.52,348.52,0,0,0,1188.24,1444.75Z" transform="translate(-30.85 -434.93)"/><path class="cls-4" d="M1196.56,1355.9a319.35,319.35,0,0,0-15.16,38.95l7.6.11a330.31,330.31,0,0,1,15-39Z" transform="translate(-30.85 -434.93)"/><path class="cls-4" d="M766.07,1507.45a367,367,0,0,1,15-96,330.23,330.23,0,0,1,18.11-46.59,284.26,284.26,0,0,1,25.37-43c19.37-27.08,43.7-51,72.53-67.79,24.11-13.89,51.3-22.64,78.92-24.39l-155.15-2.15c-122.46-1.69-228.5,75.61-269.33,184.43,47.26,36.73,98.77,67.32,152.15,95.16Z" transform="translate(-30.85 -434.93)"/><path class="cls-4" d="M1178.23,1405.39a345.31,345.31,0,0,0-8.57,39.1l7.64.11a359.9,359.9,0,0,1,8.59-39.1Z" transform="translate(-30.85 -434.93)"/><path class="cls-4" d="M1183.32,1507.44c0,1.7.07,3.4.11,5.1,33.78.6,67.57,1.14,101.35,1.94,0-1.88-.1-3.75-.12-5.64Z" transform="translate(-30.85 -434.93)"/><path class="cls-4" d="M1168.13,1455.05a359,359,0,0,0-2.93,39.18l7.45.1a374,374,0,0,1,3.1-39.17Z" transform="translate(-30.85 -434.93)"/><path class="cls-4" d="M1183.45,1494.48l101.32,1.41q.46-18.63,2.71-36.81l-101.19-1.4A362.78,362.78,0,0,0,1183.45,1494.48Z" transform="translate(-30.85 -434.93)"/><path class="cls-14" d="M1626.88,1703c3.9-109.33,4.61-217.91,10.09-327.23,1.5-31.39,3-62.78,5.71-94.16-62.36,49.31-104.59,137.71-106,239.09-1,75.93,21,145.19,57.76,196.64-44.93-2.62-89.79-5.41-134.75-9a258.38,258.38,0,0,0,19.58,25.94l99.55,2,47.09.65Q1626.26,1720,1626.88,1703Z" transform="translate(-30.85 -434.93)"/><path class="cls-13" d="M1675.93,1270.06a52.72,52.72,0,0,1,.73-10.33,204.59,204.59,0,0,0-34,21.9c-2.71,31.38-4.21,62.77-5.71,94.16-5.48,109.32-6.19,217.9-10.09,327.23q-.64,17-1,34l39.41.55Z" transform="translate(-30.85 -434.93)"/><path class="cls-15" d="M1589.44,1242.5c4-1.06,8.08-1.52,12.13-2.26,2-.41,4.07-.6,6.12-.81l6.15-.66c1.43-.11,2.86-.16,4.3-.23,2.68-.12,5.37-.21,8.06-.34a159.71,159.71,0,0,0-16.23.22,171.78,171.78,0,0,0-28.76,4.34c0,.57.1,1.14.14,1.72.69-.2,1.39-.41,2.1-.57Z" transform="translate(-30.85 -434.93)"/><path class="cls-15" d="M1457.84,1705.58a314.22,314.22,0,0,1-39-89.54,364.91,364.91,0,0,1-11.71-95.34l4.18,0,62.7.07,31.35,0,31.35-.1-31.34-1-31.34-.84-62.68-1.67-4.17-.09a364.27,364.27,0,0,1,14.35-95,314,314,0,0,1,41.5-88.42c18.46-26.93,41.87-50.8,69.84-67.94a188.25,188.25,0,0,1,37.92-18c0-.74,0-1.47-.09-2.2a190.63,190.63,0,0,0-39.63,17.21c-28.83,16.83-53.15,40.72-72.53,67.79a285.69,285.69,0,0,0-25.37,43.05,331,331,0,0,0-18.11,46.59,367,367,0,0,0-15,96.75l-86.3-1.88c0,1.68.07,3.36.13,5l86.12.51a367.6,367.6,0,0,0,12.32,97.12,326.88,326.88,0,0,0,22.27,58.65l.83,0a6.92,6.92,0,0,1,7,7l-.1,7.55q4.9,8.61,10.41,16.83c.18.26.35.52.52.79a268.05,268.05,0,0,0,19.55,25.58l6.44.13a258.38,258.38,0,0,1-19.58-25.94C1459.07,1707.43,1458.45,1706.52,1457.84,1705.58Z" transform="translate(-30.85 -434.93)"/><path class="cls-15" d="M1100.05,1706.27q7.37,10.7,15.74,20.62l6.45.13c-5.56-6.62-10.77-13.53-15.63-20.65Z" transform="translate(-30.85 -434.93)"/><path class="cls-15" d="M821.1,1702.41q6.67,9.67,14.17,18.75l6.46.13q-7.47-9.07-14.07-18.79Z" transform="translate(-30.85 -434.93)"/><path class="cls-15" d="M824.53,1321.82a284.26,284.26,0,0,0-25.37,43,330.23,330.23,0,0,0-18.11,46.59,367,367,0,0,0-15,96l-62.42-.37-44.59-.26-62.7-.08-31.35,0-31.36.1,31.34,1,31.34.84,62.68,1.67,53.1,1.16,53.89,1.18c0,8.65.25,17.33.81,26A359.19,359.19,0,0,0,778.32,1609a325.84,325.84,0,0,0,22.27,58.65l6.85.1a320.55,320.55,0,0,1-22.62-60.49,358.49,358.49,0,0,1-10.73-65.15q-1.07-14.64-1-29.32l11.26.24c41.79,1,83.58,1.59,125.37,2.38l125.38,1.93,9.83.12a367.12,367.12,0,0,0,12.32,95.41,339.16,339.16,0,0,0,12.06,35.85q4.65,11.61,10.22,22.81l6.85.09q-5.16-10.42-9.55-21.22a324.12,324.12,0,0,1-13.08-39.28,364.94,364.94,0,0,1-11.71-93.57l102.66,1.27q-.17-3.39-.25-6.77l-102.31-1.58a364.39,364.39,0,0,1,14.31-93.21,313.79,313.79,0,0,1,41.51-88.43c18.46-26.92,41.86-50.8,69.83-67.92a186.15,186.15,0,0,1,44.69-20.2c2-.56,3.91-1.27,5.91-1.71l6-1.4c4-1.07,8.07-1.53,12.12-2.27,2-.41,4.07-.59,6.12-.81l6.15-.66c1.43-.11,2.87-.17,4.3-.22,2.68-.13,5.37-.22,8.06-.35a156.91,156.91,0,0,0-16.23.23,178.93,178.93,0,0,0-63.94,16.62,5.34,5.34,0,0,1-4.57,2.61c-.28,0-.47,0-.67-.07-3.3,1.65-6.56,3.38-9.75,5.23-28.83,16.81-53.15,40.7-72.53,67.78a285.69,285.69,0,0,0-25.37,43,329.28,329.28,0,0,0-18.11,46.59,367,367,0,0,0-15,95l-9.83-.14-125.38-1.55c-41.8-.37-83.59-.92-125.39-1.1l-11.26-.06a364.31,364.31,0,0,1,14.33-94.12A313.73,313.73,0,0,1,829,1325c18.45-26.92,41.86-50.8,69.83-67.93a186.26,186.26,0,0,1,44.68-20.2c2-.56,3.92-1.27,5.92-1.71l6-1.41c4-1.06,8.08-1.52,12.13-2.26,2-.41,4.07-.59,6.12-.8l6.14-.67c1.44-.1,2.87-.16,4.31-.23l8.06-.34a159.91,159.91,0,0,0-16.24.23c-27.62,1.75-54.81,10.5-78.92,24.39C868.23,1270.85,843.9,1294.74,824.53,1321.82Z" transform="translate(-30.85 -434.93)"/><path class="cls-15" d="M1183.62,1519.1c33.77.35,67.54.74,101.31.87-.07-1.82-.11-3.66-.15-5.49-33.78-.8-67.57-1.34-101.35-1.94C1183.48,1514.73,1183.53,1516.92,1183.62,1519.1Z" transform="translate(-30.85 -434.93)"/><path class="cls-15" d="M1302.93,1514.86l-7.33-.15c0,1.78.08,3.56.15,5.33l7.3,0C1303,1518.35,1303,1516.61,1302.93,1514.86Z" transform="translate(-30.85 -434.93)"/><path class="cls-15" d="M1172.6,1512.34l-7.32-.13q.1,3.36.25,6.72l7.25.07C1172.69,1516.79,1172.65,1514.56,1172.6,1512.34Z" transform="translate(-30.85 -434.93)"/><path class="cls-3" d="M922.29,1863.51c-.54-6.44-.82-13-.81-19.67.07-50.33,16.46-94.39,41.31-120.08l-121.06-2.47-6.46-.13-81.07-1.66c25.83,26.38,42.93,72,42.85,123.59,0,6.27-.29,12.45-.79,18.49l67.14,1.13c0,.27,0,.52-.06.79l70.58,1,0-.74Z" transform="translate(-30.85 -434.93)"/><path class="cls-3" d="M1233,1867.81q-.83-9.66-.82-19.67c.07-49.07,15.66-92.14,39.47-118.08l-149.36-3-6.45-.13-48.91-1c24.7,26.66,40.9,71.28,40.82,121.52,0,6.27-.29,12.44-.79,18.49L1174,1867c0,.27,0,.52,0,.79l70.58,1c0-.24,0-.49,0-.75Z" transform="translate(-30.85 -434.93)"/><path class="cls-3" d="M611.64,1859.2c-.54-6.44-.82-13-.81-19.67.07-51.67,17.36-96.71,43.34-122.07l-31.11-.64-43.43-.88a28.17,28.17,0,0,0-28,34.36l19.7,87.54a28.17,28.17,0,0,0,27.09,22l24.9.34c0-.24,0-.49,0-.73Z" transform="translate(-30.85 -434.93)"/><path class="cls-3" d="M1526.28,1851.86l1.32-95.47a20.82,20.82,0,0,1,21-20.47l30.18.42-99.55-2-6.44-.13-93.47-1.91c23.66,26.87,39.07,70.47,39,119.45,0,6.27-.29,12.44-.78,18.48l67.13,1.14c0,.26,0,.51-.06.78l130.4,1.8c0-.06-68.29-1-68.29-1A20.81,20.81,0,0,1,1526.28,1851.86Z" transform="translate(-30.85 -434.93)"/><path class="cls-12" d="M1417.57,1870.19c.49-6,.77-12.21.78-18.48.08-49-15.33-92.58-39-119.45-8.87-10.06-18.88-17.77-29.69-22.52l-49-.69c-10.55,4.35-20.35,11.54-29.05,21-23.81,25.94-39.4,69-39.47,118.08q0,10,.82,19.67l11.59.22q-.33-6-.34-12.14c.11-70,34.49-126.1,76.79-125.29s76.52,58.21,76.41,128.22-34.48,126.1-76.79,125.29l88.9,2-.48-.44c39.67.4,71.87-49.5,75.61-113.57,0-.27,0-.52.06-.78Z" transform="translate(-30.85 -434.93)"/><path class="cls-3" d="M1397.4,1858.82c.11-70-34.1-127.42-76.41-128.22s-76.68,55.28-76.79,125.29q0,6.13.34,12.14c0,.26,0,.51,0,.75,3.81,64,36.36,114.57,76,115.33C1362.92,1984.92,1397.3,1928.83,1397.4,1858.82Zm-127,21a141.31,141.31,0,0,1-1.92-23.46c.08-47.78,23.54-86.08,52.42-85.52,12.83.24,24.56,8.13,33.64,21,11.36,16.09,18.56,40,18.52,66.55-.07,47.77-23.54,86.07-52.42,85.52C1296.7,1943.42,1276.55,1916.33,1270.43,1879.81Z" transform="translate(-30.85 -434.93)"/><path class="cls-16" d="M1287.5,1882.21c-.55-2.09-1.06-4.19-1.46-6.31a104.42,104.42,0,0,1-1.82-19.25,97,97,0,0,1,1.88-19.23A77.69,77.69,0,0,1,1292,1819a49.82,49.82,0,0,1,11.27-15.78,30.59,30.59,0,0,1,8.27-5.33,23.53,23.53,0,0,1,9.74-1.88,28.49,28.49,0,0,1,18,7.82,52.67,52.67,0,0,1,11.16,15.22,274.85,274.85,0,0,0,4.08-27.24c-9.08-12.85-20.81-20.74-33.64-21-28.88-.56-52.34,37.74-52.42,85.52a141.31,141.31,0,0,0,1.92,23.46A73.1,73.1,0,0,0,1287.5,1882.21Z" transform="translate(-30.85 -434.93)"/><path class="cls-16" d="M1287.74,1882.2c16.19.24,31.58-5.47,42.71-19.07,9.69-10.63,15.35-24.34,19-39.27-.38-.94-.75-1.87-1.17-2.79a52.17,52.17,0,0,0-10.5-15.53,26.42,26.42,0,0,0-16.48-7.82,22,22,0,0,0-9.17,1.45A29.81,29.81,0,0,0,1304,1804a47.6,47.6,0,0,0-11.53,15.18c-5.77,11.53-8.16,24.56-8.25,37.43A97.88,97.88,0,0,0,1287.74,1882.2Z" transform="translate(-30.85 -434.93)"/><path class="cls-17" d="M1373.09,1858.36c0-26.57-7.16-50.46-18.52-66.55a274.85,274.85,0,0,1-4.08,27.24c.13.27.26.52.39.78,5.81,11.89,8,25.15,8.19,38.23-.09,13.08-2.51,26.33-8.41,38.17a49.4,49.4,0,0,1-12,15.73,31.25,31.25,0,0,1-8.55,5.14,23.85,23.85,0,0,1-9.87,1.59,28.13,28.13,0,0,1-17.58-8.29,53.27,53.27,0,0,1-10.87-16.05,76,76,0,0,1-4.34-12.14,73.1,73.1,0,0,1-17.07-2.4c6.12,36.52,26.27,63.61,50.24,64.07C1349.55,1944.43,1373,1906.13,1373.09,1858.36Z" transform="translate(-30.85 -434.93)"/><path class="cls-17" d="M1287.74,1882.2a71.77,71.77,0,0,0,4.52,12,51.36,51.36,0,0,0,11.18,15.49,26.75,26.75,0,0,0,16.91,7.36,21.93,21.93,0,0,0,9.05-1.75,28.87,28.87,0,0,0,7.79-5A47.91,47.91,0,0,0,1348,1895a76.42,76.42,0,0,0,5.81-18,95,95,0,0,0,1.83-18.9,102.37,102.37,0,0,0-1.79-18.9,78.49,78.49,0,0,0-4.49-15.29c-3.6,14.93-9.26,28.64-19,39.27C1319.32,1876.73,1303.93,1882.44,1287.74,1882.2Z" transform="translate(-30.85 -434.93)"/><path class="cls-18" d="M1339.33,1803.83a28.49,28.49,0,0,0-18-7.82,23.53,23.53,0,0,0-9.74,1.88,30.59,30.59,0,0,0-8.27,5.33A49.82,49.82,0,0,0,1292,1819a77.69,77.69,0,0,0-5.93,18.42,97,97,0,0,0-1.88,19.23c.09-12.87,2.48-25.9,8.25-37.43A47.6,47.6,0,0,1,1304,1804a29.81,29.81,0,0,1,8.08-4.87,22,22,0,0,1,9.17-1.45,26.42,26.42,0,0,1,16.48,7.82,52.17,52.17,0,0,1,10.5,15.53c.42.92.79,1.85,1.17,2.79a78.49,78.49,0,0,1,4.49,15.29,102.37,102.37,0,0,1,1.79,18.9,95,95,0,0,1-1.83,18.9,76.42,76.42,0,0,1-5.81,18,47.91,47.91,0,0,1-10.85,15.24,28.87,28.87,0,0,1-7.79,5,21.93,21.93,0,0,1-9.05,1.75,26.75,26.75,0,0,1-16.91-7.36,51.36,51.36,0,0,1-11.18-15.49,71.77,71.77,0,0,1-4.52-12,97.88,97.88,0,0,1-3.52-25.55,104.42,104.42,0,0,0,1.82,19.25c.4,2.12.91,4.22,1.46,6.31a76,76,0,0,0,4.34,12.14,53.27,53.27,0,0,0,10.87,16.05,28.13,28.13,0,0,0,17.58,8.29,23.85,23.85,0,0,0,9.87-1.59,31.25,31.25,0,0,0,8.55-5.14,49.4,49.4,0,0,0,12-15.73c5.9-11.84,8.32-25.09,8.41-38.17-.15-13.08-2.38-26.34-8.19-38.23-.13-.26-.26-.51-.39-.78A52.67,52.67,0,0,0,1339.33,1803.83Z" transform="translate(-30.85 -434.93)"/><path class="cls-12" d="M1106.91,1865.89c.5-6.05.79-12.22.79-18.49.08-50.24-16.12-94.86-40.82-121.52-8.4-9.06-17.8-16-27.86-20.45l-49-.68a81.31,81.31,0,0,0-27.21,19c-24.85,25.69-41.24,69.75-41.31,120.08,0,6.66.27,13.23.81,19.67l11.6.22q-.35-6-.34-12.15c.11-70,34.49-126.1,76.79-125.29s76.51,58.22,76.41,128.23-34.49,126.09-76.79,125.28l88.91,2-.49-.45c39.67.41,71.87-49.49,75.61-113.57,0-.27,0-.52,0-.79Z" transform="translate(-30.85 -434.93)"/><path class="cls-3" d="M1086.75,1854.52c.1-70-34.1-127.42-76.41-128.23s-76.68,55.29-76.79,125.29q0,6.15.34,12.15l0,.74c3.81,64,36.36,114.57,76,115.33C1052.26,1980.61,1086.65,1924.52,1086.75,1854.52Zm-127,21a141.4,141.4,0,0,1-1.92-23.46c.08-47.79,23.54-86.08,52.42-85.53,12.83.24,24.56,8.14,33.64,21,11.36,16.09,18.56,40,18.52,66.54-.07,47.78-23.54,86.07-52.42,85.52C986.05,1939.11,965.9,1912,959.78,1875.51Z" transform="translate(-30.85 -434.93)"/><path class="cls-16" d="M976.86,1877.9c-.56-2.09-1.07-4.19-1.47-6.3a104.51,104.51,0,0,1-1.82-19.25,97.88,97.88,0,0,1,1.87-19.24,78.56,78.56,0,0,1,5.94-18.41,49.71,49.71,0,0,1,11.27-15.78,30.57,30.57,0,0,1,8.26-5.34,23.57,23.57,0,0,1,9.75-1.87,28.43,28.43,0,0,1,18,7.81,52.81,52.81,0,0,1,11.16,15.22,275.09,275.09,0,0,0,4.08-27.23c-9.08-12.85-20.81-20.75-33.64-21-28.88-.55-52.34,37.74-52.42,85.53a141.4,141.4,0,0,0,1.92,23.46A73.62,73.62,0,0,0,976.86,1877.9Z" transform="translate(-30.85 -434.93)"/><path class="cls-16" d="M977.09,1877.9c16.19.24,31.59-5.47,42.71-19.07,9.69-10.63,15.35-24.35,19-39.27-.38-.94-.75-1.87-1.17-2.79a52,52,0,0,0-10.5-15.53,26.45,26.45,0,0,0-16.48-7.83,22.2,22.2,0,0,0-9.17,1.46,29.53,29.53,0,0,0-8.08,4.86,47.67,47.67,0,0,0-11.53,15.17c-5.77,11.55-8.15,24.58-8.25,37.45A97.51,97.51,0,0,0,977.09,1877.9Z" transform="translate(-30.85 -434.93)"/><path class="cls-17" d="M1062.44,1854.05c0-26.56-7.16-50.45-18.52-66.54a275.09,275.09,0,0,1-4.08,27.23c.13.27.27.52.39.79,5.81,11.89,8,25.14,8.2,38.22-.1,13.09-2.52,26.34-8.42,38.18a49.47,49.47,0,0,1-12,15.72,31.19,31.19,0,0,1-8.56,5.15,23.77,23.77,0,0,1-9.86,1.58,28.12,28.12,0,0,1-17.58-8.28,53.61,53.61,0,0,1-10.88-16,76,76,0,0,1-4.32-12.15,73.62,73.62,0,0,1-17.08-2.39c6.12,36.52,26.27,63.6,50.24,64.06C1038.9,1940.12,1062.37,1901.83,1062.44,1854.05Z" transform="translate(-30.85 -434.93)"/><path class="cls-17" d="M977.09,1877.9a72.11,72.11,0,0,0,4.52,11.95,51.33,51.33,0,0,0,11.17,15.48,26.72,26.72,0,0,0,16.92,7.36,22,22,0,0,0,9-1.75,29,29,0,0,0,7.79-5,47.65,47.65,0,0,0,10.85-15.24,76.11,76.11,0,0,0,5.81-18,95.7,95.7,0,0,0,1.83-18.89,103.26,103.26,0,0,0-1.79-18.91,78.4,78.4,0,0,0-4.49-15.28c-3.6,14.92-9.26,28.64-19,39.27C1008.68,1872.43,993.28,1878.14,977.09,1877.9Z" transform="translate(-30.85 -434.93)"/><path class="cls-18" d="M1028.68,1799.52a28.43,28.43,0,0,0-18-7.81,23.57,23.57,0,0,0-9.75,1.87,30.57,30.57,0,0,0-8.26,5.34,49.71,49.71,0,0,0-11.27,15.78,78.56,78.56,0,0,0-5.94,18.41,97.88,97.88,0,0,0-1.87,19.24c.1-12.87,2.48-25.9,8.25-37.45a47.67,47.67,0,0,1,11.53-15.17,29.53,29.53,0,0,1,8.08-4.86,22.2,22.2,0,0,1,9.17-1.46,26.45,26.45,0,0,1,16.48,7.83,52,52,0,0,1,10.5,15.53c.42.92.79,1.85,1.17,2.79a78.4,78.4,0,0,1,4.49,15.28,103.26,103.26,0,0,1,1.79,18.91,95.7,95.7,0,0,1-1.83,18.89,76.11,76.11,0,0,1-5.81,18,47.65,47.65,0,0,1-10.85,15.24,29,29,0,0,1-7.79,5,22,22,0,0,1-9,1.75,26.72,26.72,0,0,1-16.92-7.36,51.33,51.33,0,0,1-11.17-15.48,72.11,72.11,0,0,1-4.52-11.95,97.51,97.51,0,0,1-3.52-25.55,104.51,104.51,0,0,0,1.82,19.25c.4,2.11.91,4.21,1.47,6.3a76,76,0,0,0,4.32,12.15,53.61,53.61,0,0,0,10.88,16,28.12,28.12,0,0,0,17.58,8.28,23.77,23.77,0,0,0,9.86-1.58,31.19,31.19,0,0,0,8.56-5.15,49.47,49.47,0,0,0,12-15.72c5.9-11.84,8.32-25.09,8.42-38.18-.16-13.08-2.39-26.33-8.2-38.22-.12-.27-.26-.52-.39-.79A52.81,52.81,0,0,0,1028.68,1799.52Z" transform="translate(-30.85 -434.93)"/><path class="cls-12" d="M796.26,1861.58c.5-6,.78-12.22.79-18.49.08-51.59-17-97.21-42.85-123.59a83.66,83.66,0,0,0-25.83-18.38l-49-.68a79.83,79.83,0,0,0-25.18,17c-26,25.36-43.27,70.4-43.34,122.07,0,6.66.27,13.23.81,19.67l11.6.23c-.23-4-.35-8.06-.34-12.15.1-70,34.48-126.1,76.79-125.3s76.51,58.22,76.41,128.23-34.49,126.1-76.79,125.29l88.9,2-.48-.44c39.67.41,71.87-49.5,75.61-113.57,0-.27,0-.52.06-.79Z" transform="translate(-30.85 -434.93)"/><path class="cls-3" d="M776.1,1850.21c.1-70-34.11-127.42-76.41-128.23s-76.69,55.29-76.79,125.3c0,4.09.11,8.15.34,12.15,0,.24,0,.49,0,.73,3.81,64,36.36,114.58,76,115.34C741.61,1976.31,776,1920.22,776.1,1850.21Zm-127,21a141.31,141.31,0,0,1-1.92-23.46c.07-47.78,23.54-86.08,52.42-85.52,12.83.24,24.56,8.12,33.64,21,11.35,16.09,18.56,40,18.52,66.54-.07,47.79-23.54,86.08-52.42,85.53C675.4,1934.81,655.25,1907.72,649.13,1871.2Z" transform="translate(-30.85 -434.93)"/><path class="cls-16" d="M666.2,1873.6c-.56-2.09-1.06-4.19-1.46-6.31a104.42,104.42,0,0,1-1.82-19.25,97.2,97.2,0,0,1,1.87-19.24,78.42,78.42,0,0,1,6-18.41A49.5,49.5,0,0,1,682,1794.61a30.9,30.9,0,0,1,8.27-5.33,23.57,23.57,0,0,1,9.75-1.87,28.37,28.37,0,0,1,18,7.81,52.67,52.67,0,0,1,11.16,15.22,275.29,275.29,0,0,0,4.08-27.24c-9.08-12.86-20.81-20.74-33.64-21-28.88-.56-52.35,37.74-52.42,85.52a141.31,141.31,0,0,0,1.92,23.46A73.63,73.63,0,0,0,666.2,1873.6Z" transform="translate(-30.85 -434.93)"/><path class="cls-16" d="M666.44,1873.6c16.19.24,31.59-5.48,42.72-19.08,9.68-10.63,15.33-24.34,18.94-39.27-.38-.93-.75-1.86-1.17-2.78a51.8,51.8,0,0,0-10.5-15.53A26.36,26.36,0,0,0,700,1789.1a22.2,22.2,0,0,0-9.17,1.46,29.78,29.78,0,0,0-8.08,4.86,47.89,47.89,0,0,0-11.54,15.18c-5.76,11.54-8.14,24.57-8.24,37.44A97.65,97.65,0,0,0,666.44,1873.6Z" transform="translate(-30.85 -434.93)"/><path class="cls-17" d="M751.79,1849.74c0-26.56-7.17-50.45-18.52-66.54a275.29,275.29,0,0,1-4.08,27.24l.39.77c5.81,11.9,8,25.16,8.19,38.24-.09,13.08-2.5,26.33-8.41,38.18a49.44,49.44,0,0,1-12,15.71,30.7,30.7,0,0,1-8.56,5.15,23.61,23.61,0,0,1-9.86,1.58,28,28,0,0,1-17.58-8.28,53.57,53.57,0,0,1-10.88-16,77.4,77.4,0,0,1-4.33-12.15,73.63,73.63,0,0,1-17.07-2.4c6.12,36.52,26.27,63.61,50.24,64.07C728.25,1935.82,751.72,1897.53,751.79,1849.74Z" transform="translate(-30.85 -434.93)"/><path class="cls-17" d="M666.44,1873.6a72,72,0,0,0,4.52,11.94A51.5,51.5,0,0,0,682.13,1901a26.78,26.78,0,0,0,16.92,7.35,21.79,21.79,0,0,0,9.05-1.74,29.31,29.31,0,0,0,7.79-5.06,47.76,47.76,0,0,0,10.85-15.24,75.86,75.86,0,0,0,5.8-18,95.13,95.13,0,0,0,1.84-18.9,103.35,103.35,0,0,0-1.79-18.91,78.6,78.6,0,0,0-4.49-15.28c-3.61,14.93-9.26,28.64-18.94,39.27C698,1868.12,682.63,1873.84,666.44,1873.6Z" transform="translate(-30.85 -434.93)"/><path class="cls-18" d="M718,1795.22a28.37,28.37,0,0,0-18-7.81,23.57,23.57,0,0,0-9.75,1.87,30.9,30.9,0,0,0-8.27,5.33,49.5,49.5,0,0,0-11.25,15.78,78.42,78.42,0,0,0-6,18.41,97.2,97.2,0,0,0-1.87,19.24c.1-12.87,2.48-25.9,8.24-37.44a47.89,47.89,0,0,1,11.54-15.18,29.78,29.78,0,0,1,8.08-4.86,22.2,22.2,0,0,1,9.17-1.46,26.36,26.36,0,0,1,16.48,7.84,51.8,51.8,0,0,1,10.5,15.53c.42.92.79,1.85,1.17,2.78a78.6,78.6,0,0,1,4.49,15.28,103.35,103.35,0,0,1,1.79,18.91,95.13,95.13,0,0,1-1.84,18.9,75.86,75.86,0,0,1-5.8,18,47.76,47.76,0,0,1-10.85,15.24,29.31,29.31,0,0,1-7.79,5.06,21.79,21.79,0,0,1-9.05,1.74,26.78,26.78,0,0,1-16.92-7.35A51.5,51.5,0,0,1,671,1885.54a72,72,0,0,1-4.52-11.94,97.65,97.65,0,0,1-3.52-25.56,104.42,104.42,0,0,0,1.82,19.25c.4,2.12.9,4.22,1.46,6.31a77.4,77.4,0,0,0,4.33,12.15,53.57,53.57,0,0,0,10.88,16,28,28,0,0,0,17.58,8.28,23.61,23.61,0,0,0,9.86-1.58,30.7,30.7,0,0,0,8.56-5.15,49.44,49.44,0,0,0,12-15.71c5.91-11.85,8.32-25.1,8.41-38.18-.15-13.08-2.38-26.34-8.19-38.24l-.39-.77A52.67,52.67,0,0,0,718,1795.22Z" transform="translate(-30.85 -434.93)"/><path class="cls-11" d="M2299.34,1429.2l2.48,9.65,14.14.13c4.42,0,6.91-4.34,5-8.79l-4.35-10.07C2312.93,1425.42,2306.36,1428.11,2299.34,1429.2Z" transform="translate(-30.85 -434.93)"/><path class="cls-3" d="M2316.6,1420.12l-.26-.6a8.44,8.44,0,0,0-6.34-5l-14.26-2a5.17,5.17,0,0,0-.68,0l4.28,16.71C2306.36,1428.11,2312.93,1425.42,2316.6,1420.12Z" transform="translate(-30.85 -434.93)"/><path class="cls-11" d="M2320.31,1511.14l8.34,32.62c.35,0,.69,0,1-.1l16.31-2.51c5.72-.88,8.77-6.64,6.75-12.74l-15.5-46.63c-.65,6.41-2.36,12.42-5.92,17.59A50.5,50.5,0,0,1,2320.31,1511.14Z" transform="translate(-30.85 -434.93)"/><path class="cls-3" d="M2320.31,1511.14a50.5,50.5,0,0,0,11-11.77c3.56-5.17,5.27-11.18,5.92-17.59l-9.63-29c-1.69-5.1-6.46-8.89-11.45-9.12l-12.76-.54c-.17,0-.34,0-.51,0l7.23,28.21Z" transform="translate(-30.85 -434.93)"/><path class="cls-12" d="M2143,1991.9l88.9,2-.48-.44c39.09.4,70.91-48,75.42-110.75l-87.62-1.22C2214.67,1944.39,2182.26,1992.66,2143,1991.9Z" transform="translate(-30.85 -434.93)"/><path class="cls-3" d="M2219.22,1881.5l-24.56-.33c-4.37,40.52-25.82,71-51.6,70.5-24-.46-44.12-27.54-50.24-64.06-.43-2.58-.77-5.21-1.06-7.87l-24.59-.34c4.59,62.67,36.74,111.75,75.83,112.5C2182.26,1992.66,2214.67,1944.39,2219.22,1881.5Z" transform="translate(-30.85 -434.93)"/><path class="cls-16" d="M2091.76,1879.74c.29,2.66.63,5.29,1.06,7.87a74.16,74.16,0,0,0,17.08,2.39c-.56-2.09-1.07-4.19-1.47-6.31-.23-1.24-.43-2.49-.62-3.73l-3.84,0Z" transform="translate(-30.85 -434.93)"/><path class="cls-16" d="M2142.64,1880.44l-34.72-.48a87.63,87.63,0,0,0,2.21,10C2121.82,1890.16,2133.09,1887.21,2142.64,1880.44Z" transform="translate(-30.85 -434.93)"/><path class="cls-17" d="M2110.13,1890a72.79,72.79,0,0,0,4.52,12,51.27,51.27,0,0,0,11.18,15.47,26.68,26.68,0,0,0,16.91,7.37,21.62,21.62,0,0,0,9.05-1.76,28.81,28.81,0,0,0,7.8-5,47.91,47.91,0,0,0,10.85-15.24,76.54,76.54,0,0,0,5.8-18c.25-1.27.47-2.55.67-3.83l-34.27-.47C2133.09,1887.21,2121.82,1890.16,2110.13,1890Z" transform="translate(-30.85 -434.93)"/><path class="cls-17" d="M2161.1,1919.75a30.86,30.86,0,0,1-8.55,5.14,23.85,23.85,0,0,1-9.87,1.59,28.08,28.08,0,0,1-17.58-8.29,53.57,53.57,0,0,1-10.88-16,76.71,76.71,0,0,1-4.32-12.15,74.16,74.16,0,0,1-17.08-2.39c6.12,36.52,26.27,63.6,50.24,64.06,25.78.49,47.23-30,51.6-70.5l-14.41-.2a79.59,79.59,0,0,1-7.2,23.06A49.44,49.44,0,0,1,2161.1,1919.75Z" transform="translate(-30.85 -434.93)"/><path class="cls-18" d="M2109.9,1890a76.71,76.71,0,0,0,4.32,12.15,53.57,53.57,0,0,0,10.88,16,28.08,28.08,0,0,0,17.58,8.29,23.85,23.85,0,0,0,9.87-1.59,30.86,30.86,0,0,0,8.55-5.14,49.44,49.44,0,0,0,12-15.72,79.59,79.59,0,0,0,7.2-23.06l-3.34-.06c-.2,1.28-.42,2.56-.67,3.83a76.54,76.54,0,0,1-5.8,18,47.91,47.91,0,0,1-10.85,15.24,28.81,28.81,0,0,1-7.8,5,21.62,21.62,0,0,1-9.05,1.76,26.68,26.68,0,0,1-16.91-7.37,51.27,51.27,0,0,1-11.18-15.47,72.79,72.79,0,0,1-4.52-12,87.63,87.63,0,0,1-2.21-10,31.82,31.82,0,0,0,.51,3.73C2108.83,1885.81,2109.34,1887.91,2109.9,1890Z" transform="translate(-30.85 -434.93)"/><path class="cls-19" d="M1704.45,1220.39c-1.38.82-2.71,1.7-4,2.61a59.47,59.47,0,0,0-15.92,16.46,53.67,53.67,0,0,0-7.86,20.27,52.72,52.72,0,0,0-.73,10.33l-10.61,467.48-.68,30.11,52.63.73c17-35.51,44.27-58.23,75-57.65a61.93,61.93,0,0,1,17.48,2.94l-3.87-149.56C1713.12,1475.31,1689.76,1343.28,1704.45,1220.39Z" transform="translate(-30.85 -434.93)"/><path class="cls-19" d="M1817.35,1263.19q1.29,2.58,2.46,5.2a34.27,34.27,0,0,1,4,7.75c1.56,5.25,3.24,10.42,5,15.53a60.46,60.46,0,0,1,38.9-14.29c69.5-.06,185.61.67,258,5.58l-6.28-18.9c-6.87-20.69-25.15-36.09-47.4-41-13.31,11-29.37,19-44.91,24.94C1960,1273.51,1887.18,1273.78,1817.35,1263.19Z" transform="translate(-30.85 -434.93)"/><path class="cls-19" d="M1761,1213.59a76.66,76.66,0,0,1,10.23,3.5,85.29,85.29,0,0,1,33.86,26.44,117.54,117.54,0,0,1,12.28,19.66c69.83,10.59,142.67,10.32,209.78-15.14,15.54-6,31.6-13.9,44.91-24.94a70,70,0,0,0-12.87-1.6l-180.42-5.73-57-1.81-70.44-2.25A85.86,85.86,0,0,1,1761,1213.59Z" transform="translate(-30.85 -434.93)"/><path class="cls-19" d="M1805.84,1564.11l-.07-2.51-6.7-187.28c-.2-2.32-.3-4.44-.35-6.25a7.66,7.66,0,0,1,5.78-7.59l1.46-23.16a64.84,64.84,0,0,1,19.78-42.91c-1.28-3.93-2.65-7.82-4.15-11.66l-2-4.83c-.71-1.59-1.27-3.25-2.08-4.8-1.54-3.13-2.93-6.33-4.7-9.32a116.08,116.08,0,0,0-11.34-17.41,90.8,90.8,0,0,0-14.34-14.85,84.46,84.46,0,0,0-17.35-11.16,81.29,81.29,0,0,0-19.7-6.54,76,76,0,0,0-20.94-1.37,50.4,50.4,0,0,1,6.91-1.08,67.82,67.82,0,0,0-11,1.23,64.87,64.87,0,0,0-20.5,7.77C1689.76,1343.28,1713.12,1475.31,1805.84,1564.11Z" transform="translate(-30.85 -434.93)"/><path class="cls-20" d="M1823.83,1276.14a34.27,34.27,0,0,0-4-7.75c1.93,4.31,3.67,8.69,5.18,13.12q1.77,5.29,3.2,10.69l.61-.53C1827.07,1286.56,1825.39,1281.39,1823.83,1276.14Z" transform="translate(-30.85 -434.93)"/><path class="cls-21" d="M1750,1213.84a81.29,81.29,0,0,1,19.7,6.54,84.46,84.46,0,0,1,17.35,11.16,90.8,90.8,0,0,1,14.34,14.85,116.08,116.08,0,0,1,11.34,17.41c1.77,3,3.16,6.19,4.7,9.32.81,1.55,1.37,3.21,2.08,4.8l2,4.83c1.5,3.84,2.87,7.73,4.15,11.66.8-.76,1.62-1.5,2.45-2.21q-1.43-5.4-3.2-10.69c-1.51-4.43-3.25-8.81-5.18-13.12q-1.17-2.62-2.46-5.2a117.54,117.54,0,0,0-12.28-19.66,85.29,85.29,0,0,0-33.86-26.44,76.66,76.66,0,0,0-10.23-3.5,85.86,85.86,0,0,0-9.64-1.87l-1-.11a72,72,0,0,0-14.38-.22,50.4,50.4,0,0,0-6.91,1.08A76,76,0,0,1,1750,1213.84Z" transform="translate(-30.85 -434.93)"/><path class="cls-22" d="M1927.62,1473.76l1.19,9.52q12.45,14.84,24.28,30.17a43.66,43.66,0,0,0,1.72-14.38l-8.08-36.3C1940.78,1463.17,1932.65,1465.42,1927.62,1473.76Z" transform="translate(-30.85 -434.93)"/><path class="cls-22" d="M1910.23,1442.45a13,13,0,0,1,14.19,8.43l19.89,1-9-40.17A167.31,167.31,0,0,1,1910.23,1442.45Z" transform="translate(-30.85 -434.93)"/><path class="cls-23" d="M1883.06,1431l1.38-12.14.09-.74a8.23,8.23,0,0,1,5.81-7l16.7-5a8.23,8.23,0,0,1,10.53,6.7l1.78,12.18.38,2.55a8.24,8.24,0,0,1-6.81,9.32l-20.33,3.38a8,8,0,0,1-1.17.11l4.42,5,13.75-2.77c.21,0,.42-.06.64-.09a167.31,167.31,0,0,0,25.13-30.73l-.56-2.54c-4.39-13.15-13.56-29.72-32-29.56-15.85-.22-39.78-.41-64.8-.25C1852.82,1397,1868,1414.08,1883.06,1431Z" transform="translate(-30.85 -434.93)"/><path class="cls-22" d="M1861.11,1474.37a146.42,146.42,0,0,0,22.51-11.34l.07-4.76a13,13,0,0,1,10.47-12.62l1.68-.34-4.42-5a8.25,8.25,0,0,1-8.38-9.17c-15-17.09-30.22-34.13-45.07-51.8-7.39.05-14.87.12-22.27.23l2.11,29.44c3.67,6,7.51,12.09,11.63,18.18C1840.19,1443.29,1850.7,1459,1861.11,1474.37Z" transform="translate(-30.85 -434.93)"/><path class="cls-24" d="M1883.62,1463a146.42,146.42,0,0,1-22.51,11.34q11,16.31,21.91,32.21l.18-13.36Z" transform="translate(-30.85 -434.93)"/><path class="cls-24" d="M1934.58,1529.36l.18,1.46c7.31-2,15-6.69,18.33-17.37q-11.79-15.37-24.28-30.17Z" transform="translate(-30.85 -434.93)"/><path class="cls-24" d="M1823.45,1487.72l2.57,35.78,16.14,1.44A409.62,409.62,0,0,1,1823.45,1487.72Z" transform="translate(-30.85 -434.93)"/><path class="cls-23" d="M1829.44,1427.22c-4.12-6.09-8-12.14-11.63-18.18l5.35,74.51a137.88,137.88,0,0,0,37.95-9.18C1850.7,1459,1840.19,1443.29,1829.44,1427.22Z" transform="translate(-30.85 -434.93)"/><path class="cls-22" d="M1882.71,1528.55l.31-22q-10.9-15.93-21.91-32.21a137.88,137.88,0,0,1-37.95,9.18l.29,4.17a409.62,409.62,0,0,0,18.71,37.22Z" transform="translate(-30.85 -434.93)"/><path class="cls-19" d="M2055.38,1747.81a502,502,0,0,1-55.84-2.84l-14.27-139.81c-6-30.55-24.69-55.41-49.64-67.42l.31,2.5a19.74,19.74,0,0,1-19.31,22.18l-21,.29a13.05,13.05,0,0,1-13.23-13.24l.28-20.92-40.55-3.61L1826,1523.5l-21.28-1.88,1,40,.07,2.51,3.87,149.56c23.2,7.35,43.32,28.08,56.93,56.78l97,1.34,100.77,1.4-6-25.42C2057.45,1747.78,2056.41,1747.81,2055.38,1747.81Zm-228.83-223.23q3.06,37.45,5.13,75c.2,3.09.32,6.31.58,9.31a35.21,35.21,0,0,0,1.74,8.67,37,37,0,0,0,9.16,14.9,37.41,37.41,0,0,0,6.9,5.44,38.89,38.89,0,0,0,3.87,2.09l2,.87,2.19.88a157.72,157.72,0,0,1,17.25,8.14c11.1,6.22,21.55,13.89,30.12,23.5a86.71,86.71,0,0,1,11.22,15.62c.86,1.36,1.49,2.84,2.23,4.27l2,4.2a42.87,42.87,0,0,0,4.81,7.5,40.43,40.43,0,0,0,14,11,39.19,39.19,0,0,0,8.52,2.93,59.59,59.59,0,0,0,9.1,1.06c12.5,1,25,1.76,37.47,2.88-12.54,0-25.05-.25-37.57-.35a59.94,59.94,0,0,1-9.56-.68,41.77,41.77,0,0,1-9.34-2.76,43.15,43.15,0,0,1-15.71-11.45,46.31,46.31,0,0,1-5.57-8.09l-2.17-4.2c-.72-1.35-1.34-2.73-2.18-4a81.9,81.9,0,0,0-10.93-14.6,112.55,112.55,0,0,0-29-22.28,152.08,152.08,0,0,0-16.64-8l-2.16-.89-2.28-1a41.06,41.06,0,0,1-4.37-2.4,38.87,38.87,0,0,1-7.74-6.24,41.84,41.84,0,0,1-10-17,38.77,38.77,0,0,1-1.74-9.73c-.16-3.23-.18-6.29-.28-9.44Q1826.63,1562.16,1826.55,1524.58Zm116.92,220.27c-2.26,0-4.68,0-7.09-.25a30.82,30.82,0,0,1-3.58-.5,33.3,33.3,0,0,1-3.54-.76,46.59,46.59,0,0,1-24.29-15.11,49.3,49.3,0,0,1-4.29-5.9l-3.41-6.11c-8.65-15.76-21.83-28.77-37.18-38.34a139.58,139.58,0,0,0-24.42-12.05,146.14,146.14,0,0,0-26.43-7.49,118.88,118.88,0,0,1,27.25,5.1,127.3,127.3,0,0,1,25.66,11,109.62,109.62,0,0,1,22.48,16.85,100.54,100.54,0,0,1,17.14,22.41l3.27,6a45.57,45.57,0,0,0,3.78,5.3,44.37,44.37,0,0,0,9.73,8.6,43,43,0,0,0,11.89,5.39,26.5,26.5,0,0,0,3.19.78c1.06.25,2.15.39,3.24.55,2.16.31,4.35.39,6.69.52,18.41.91,36.8,2,55.17,3.62C1980.29,1745,1961.87,1745,1943.47,1744.85Z" transform="translate(-30.85 -434.93)"/><path class="cls-19" d="M2294,1683.8s-9.52,92.44-9.52,92.44l53.57.74a14,14,0,0,1,4.94,1l1.17-129A320.86,320.86,0,0,1,2294,1683.8Z" transform="translate(-30.85 -434.93)"/><path class="cls-19" d="M1926.76,1338.24a87.94,87.94,0,0,1,2.76,15.39c.53,2,1,4.11,1.51,6.16,97.13.42,224.82,2.73,300,11.2-.23-10.38-2.45-40.32-19.41-61.45a395.23,395.23,0,0,1-91.4,23.82C2054.55,1342.8,1990.81,1340.25,1926.76,1338.24Z" transform="translate(-30.85 -434.93)"/><path class="cls-19" d="M1867.7,1277.38a60.46,60.46,0,0,0-38.9,14.29l-.61.53c-.83.71-1.65,1.45-2.45,2.21a64.84,64.84,0,0,0-19.78,42.91l-1.46,23.16a8.24,8.24,0,0,1,1.8-.27c17.69-.2,65.54-.66,124.73-.42-.49-2-1-4.11-1.51-6.16.16,1.8.28,3.61.34,5.4a132.1,132.1,0,0,0-8.73-27.83,93.22,93.22,0,0,0-7-12.6,80.21,80.21,0,0,0-8.85-11.28,93.57,93.57,0,0,0-22.55-17.76,108.66,108.66,0,0,0-13.08-6.32,101.75,101.75,0,0,0-13.92-4.6,69.34,69.34,0,0,1,14.58,2.69,86.45,86.45,0,0,1,13.91,5.4,82.31,82.31,0,0,1,12.84,7.77,85.46,85.46,0,0,1,11.24,10,79.42,79.42,0,0,1,15.8,25.44c1,2.72,1.91,5.47,2.66,8.28,64,2,127.79,4.56,193.5-4.88a395.23,395.23,0,0,0,91.4-23.82,57.33,57.33,0,0,0-27.21-19c-9.92-3.27-31.17-5.73-58.73-7.61C2053.31,1278.05,1937.2,1277.32,1867.7,1277.38Z" transform="translate(-30.85 -434.93)"/><path class="cls-22" d="M2163.34,1534.19q23.13,22.43,47.43,44.38l70.09.3c-19.15-20.37-37.58-41.5-56.36-62.54A487.05,487.05,0,0,1,2163.34,1534.19Zm78.19,17.32q-.84-.16-1.65-.39Q2240.69,1551.35,2241.53,1551.51Zm-2.15-.53-.57-.17C2239,1550.85,2239.18,1550.92,2239.38,1551Z" transform="translate(-30.85 -434.93)"/><path class="cls-23" d="M2163.34,1534.19a487.05,487.05,0,0,0,61.16-17.86c-19.54-21.89-39.45-43.68-60.92-64.38l-12.31-11.86-81-1.84C2100.28,1470.88,2131,1502.88,2163.34,1534.19Z" transform="translate(-30.85 -434.93)"/><path class="cls-24" d="M2280.86,1578.87l23.1.09c.72,0,1.3-.11,1.67-.16,13.3-1.52,12.6-14.84,11.55-21l-18.29-78.67a359,359,0,0,1-74.39,37.2C2243.28,1537.37,2261.71,1558.5,2280.86,1578.87Z" transform="translate(-30.85 -434.93)"/><path class="cls-22" d="M2265.86,1442.7l-114.59-2.61,12.31,11.86c21.47,20.7,41.38,42.49,60.92,64.38a358.12,358.12,0,0,0,74.39-37.22l-2-8.57c-3.62-3.31-7.23-6.59-10.87-9.88Q2276,1451.6,2265.86,1442.7Z" transform="translate(-30.85 -434.93)"/><path class="cls-23" d="M2286,1460.66c3.64,3.29,7.25,6.57,10.87,9.88l-6.35-27.28-24.69-.56Q2276,1451.63,2286,1460.66Z" transform="translate(-30.85 -434.93)"/><path class="cls-24" d="M2124,1541.73q16.11,18.33,32,36.6l54.78.24q-24.33-22-47.43-44.38Q2143.84,1538.58,2124,1541.73Z" transform="translate(-30.85 -434.93)"/><path class="cls-22" d="M2070.24,1438.25l-41-.94c17,18.27,34.24,36.65,51.28,55.74q22.11,24.35,43.47,48.68,19.79-3.17,39.32-7.54C2131,1502.88,2100.28,1470.88,2070.24,1438.25Z" transform="translate(-30.85 -434.93)"/><path class="cls-24" d="M2063.7,1549.11a440.91,440.91,0,0,1-72.92.47l1.37,6.57c2.13,7,7.69,19.42,20.53,20.91a63.29,63.29,0,0,0,7.46.69l71.12.3Q2077.46,1563.62,2063.7,1549.11Z" transform="translate(-30.85 -434.93)"/><path class="cls-22" d="M2063.7,1549.11q-47.73-50.46-94.28-102l21.36,102.51A440.91,440.91,0,0,0,2063.7,1549.11Z" transform="translate(-30.85 -434.93)"/><path class="cls-22" d="M2076.2,1547.94c-4.18.45-8.35.83-12.5,1.17q13.73,14.54,27.56,28.94l64.73.28q-15.88-18.27-32-36.6C2108.13,1544.29,2092.15,1546.32,2076.2,1547.94Z" transform="translate(-30.85 -434.93)"/><path class="cls-23" d="M2063.7,1549.11c4.15-.34,8.32-.72,12.5-1.17,16-1.62,31.93-3.65,47.82-6.21q-21.42-24.32-43.47-48.68c-17-19.09-34.24-37.47-51.28-55.74l-62.18-1.41,2.33,11.17Q2016,1498.69,2063.7,1549.11Z" transform="translate(-30.85 -434.93)"/><path class="cls-3" d="M2070.24,1438.25l81,1.84,114.59,2.61,24.69.56-4.14-17.82c-5.64-13.49-18.22-29.16-46.28-29.21-29.71-1-162.75-5.53-250.39-7-24.42-1-29,8.38-27.5,23.38l4.85,23.28,62.18,1.41Z" transform="translate(-30.85 -434.93)"/><path class="cls-19" d="M1931,1359.79c-59.19-.24-107,.22-124.73.42a8.24,8.24,0,0,0-1.8.27,7.66,7.66,0,0,0-5.78,7.59c0,1.81.15,3.93.35,6.25l6.7,187.28-1-40,21.28,1.88-2.57-35.78-.29-4.17-5.35-74.51-2.11-29.44c7.4-.11,14.88-.18,22.27-.23,25-.16,49,0,64.8.25,18.47-.16,27.64,16.41,32,29.56l.56,2.54,9,40.17,4.61.23a3.92,3.92,0,0,1,3.62,3.11l.58,2.76a3.91,3.91,0,0,1-3.88,4.7c-.78,0-1.62,0-2.51.08l8.08,36.3a43.66,43.66,0,0,1-1.72,14.38c-3.37,10.68-11,15.39-18.33,17.37l.87,6.92c24.95,12,43.69,36.87,49.64,67.42L1999.54,1745a502,502,0,0,0,55.84,2.84c1,0,2.07,0,3.1,0l-39.92-170h1.58a63.29,63.29,0,0,1-7.46-.69c-12.84-1.49-18.4-13.88-20.53-20.91l-1.37-6.57-21.36-102.51-2.33-11.17-4.85-23.28c-1.46-15,3.08-24.42,27.5-23.38,87.64,1.46,220.68,5.94,250.39,7,28.06,0,40.64,15.72,46.28,29.21l4.14,17.82,6.35,27.28,2,8.57s18.29,78.69,18.29,78.69c1.05,6.16,1.75,19.48-11.55,21-.37,0-1,.11-1.67.16h.79l-3.78,36.7c-.29,3-.37,4-.37,4s-6.65,64.13-6.65,64.13a320.86,320.86,0,0,0,50.16-34.79l.57-62.49a18.7,18.7,0,0,0-9.35-16.63l-6.68-26.13-8.34-32.62-10.18-39.8-7.23-28.21-1.08-4.28-2.48-9.65-4.28-16.71-1.48-5.81a37.24,37.24,0,0,0-29.86-31c-9.19-1.77-20.2-3.34-32.65-4.74C2155.85,1362.52,2028.16,1360.21,1931,1359.79Z" transform="translate(-30.85 -434.93)"/><path class="cls-3" d="M2144.45,1738.1l-30.51-.25c-3.31,0-6.32-2.23-7.94-5.79l-2-4.36c-.27,0-1.39-3.08-1.39-3.08l89.56,1.23q18.45-5.64,36.59-12.53l-122-1.31a10.28,10.28,0,0,1-9-5.82l-3.83-7.45,164.32,2.56c1.64-.7,3.27-1.42,4.9-2.14q15.87-7,30.72-15.33s6.61-64.17,6.61-64.17l-43.77-1.38s7.73-18.57,45.68-17.4c-.76,7.3-1.23,11.94-1.5,14.79l3.78-36.7H2304l-23.1-.09-70.09-.3-54.78-.24-64.73-.28-71.12-.3h-1.58l39.92,170A458.14,458.14,0,0,0,2144.45,1738.1Zm-117-122.56s-2.93-12.45-4.53-19.31c55.64,1.29,59.35,20.53,59.35,20.53S2029,1615.56,2027.45,1615.54Zm50.72,39.16-4.87-8.68,212.89,3.59c.36,0-.67,3.22-.67,3.22a14.4,14.4,0,0,0-.89,2.09,13.3,13.3,0,0,1-12.63,8.85l-182.48-2.26A13.22,13.22,0,0,1,2078.17,1654.7Zm194.58,20.46-1.7,5.1c-1.73,5.16-6.18,8.58-11.12,8.53l-160.25-1.71a11.42,11.42,0,0,1-9.95-6.5l-4.26-8.32C2086.32,1672,2272.75,1675.16,2272.75,1675.16Z" transform="translate(-30.85 -434.93)"/><path class="cls-25" d="M2263.23,1699.16c-1.63.72-3.26,1.44-4.9,2.14l4.23.07-1.53,4.57a10.69,10.69,0,0,1-10,7.63l-22.25-.25q-18.14,6.87-36.59,12.53l60.15.82-.87,2.91-.5,1.65c-1.4,4.63-5,7.7-8.92,7.67l-97.6-.8a458.14,458.14,0,0,1-86,9.67l6,25.42,220,3,9.52-92.41Q2279.09,1692.19,2263.23,1699.16Zm-25.84,57.27c-1.18,4.63-4.17,7.71-7.45,7.71l-106.63-.38c-2.75,0-5.25-2.19-6.58-5.74l-2.77-7.42,124.6,1.26Z" transform="translate(-30.85 -434.93)"/><path class="cls-11" d="M2302.47,1600.88c-37.95-1.17-45.68,17.4-45.68,17.4l43.77,1.38s.12-1,.41-4S2301.71,1608.18,2302.47,1600.88Z" transform="translate(-30.85 -434.93)"/><path class="cls-11" d="M2022.92,1596.23c1.6,6.86,4.53,19.31,4.53,19.31,1.54,0,54.82,1.22,54.82,1.22S2078.56,1597.52,2022.92,1596.23Z" transform="translate(-30.85 -434.93)"/><path class="cls-12" d="M2272,1663.77a13.3,13.3,0,0,0,12.63-8.85l.76-2.09-209.85-2.91-2.24-3.9,4.87,8.68a13.22,13.22,0,0,0,11.35,6.81Z" transform="translate(-30.85 -434.93)"/><path class="cls-12" d="M2099.68,1687.08l160.25,1.71c4.94,0,9.39-3.37,11.12-8.53l1.7-5.1-1.25,3.5-184.21-3.06-1.82-3.34,4.26,8.32A11.42,11.42,0,0,0,2099.68,1687.08Z" transform="translate(-30.85 -434.93)"/><path class="cls-12" d="M2095.69,1702l-1.68-3.25,3.83,7.45a10.28,10.28,0,0,0,9,5.82l122,1.31,22.25.25a10.69,10.69,0,0,0,10-7.63l1.53-4.57-1.21,2.92Z" transform="translate(-30.85 -434.93)"/><path class="cls-12" d="M2104,1727.7l2,4.36c1.62,3.56,4.63,5.76,7.94,5.79l30.51.25,97.6.8c3.95,0,7.52-3,8.92-7.67l.5-1.65Z" transform="translate(-30.85 -434.93)"/><path class="cls-12" d="M2115.08,1753.28l-1.12-2.68,2.77,7.42c1.33,3.55,3.83,5.73,6.58,5.74l106.63.38c3.28,0,6.27-3.08,7.45-7.71l1.17-4.57-.66,2.61Z" transform="translate(-30.85 -434.93)"/><path class="cls-3" d="M1661.4,1767.61a9.84,9.84,0,0,0-10,9.69l-1.18,85.51a10.8,10.8,0,0,0,10.66,11l42.81.59-4-.08c-.55-6.44-.83-13-.82-19.67,0-32.43,6.88-62.24,18.37-86.23l-52.63-.73Z" transform="translate(-30.85 -434.93)"/><path class="cls-11" d="M2104,1879.91l-140.85-2a20.85,20.85,0,0,1-20.57-21.14l.9-65.32a20,20,0,0,1,20.24-19.7l-97-1.34c11.65,24.57,18.53,54.94,18.48,87.73q0,9.39-.78,18.48l67.12,1.13,115.71,1.61,24.59.34Z" transform="translate(-30.85 -434.93)"/><path class="cls-3" d="M2345.21,1823l-9.43-.13-25.38-.36a5.09,5.09,0,0,1-5-5.15l.27-19.21a5.06,5.06,0,0,1,5.15-5l26.84.36,8,.12,6,.07,0-2.66a13.82,13.82,0,0,0-8.69-13,14,14,0,0,0-4.94-1l-53.57-.74-220-3-100.77-1.4a20,20,0,0,0-20.24,19.7l-.9,65.32a20.85,20.85,0,0,0,20.57,21.14l140.85,2,3.84,0,34.83.48,34.27.47,3.34.06,14.41.2,24.56.33,87.62,1.22,23.17.32a20.34,20.34,0,0,0,20.62-20.06l.55-39.94Zm-33.77,22.31a5.7,5.7,0,0,1,3.65-1.3,6.35,6.35,0,0,1,1.16.16,5.39,5.39,0,0,1,1.7-.26c3.7,0,6.66,3.86,6.6,8.51a10.33,10.33,0,0,1-.61,3.35c-1.08,3-3.47,5-6.23,5a6.36,6.36,0,0,1-1.16-.17,5.13,5.13,0,0,1-1.7.27c-3.7,0-6.66-3.87-6.59-8.52A9,9,0,0,1,2311.44,1845.27Zm-342.65,1.59a10.94,10.94,0,0,1,3.83-8.47,6.91,6.91,0,0,1,4.39-1.56,6.74,6.74,0,0,1,1.42.19,6.81,6.81,0,0,1,2-.32c4.46.07,8,4.65,7.93,10.25a11.88,11.88,0,0,1-.72,4c-1.29,3.57-4.17,6-7.48,6a6.09,6.09,0,0,1-1.43-.2,6.5,6.5,0,0,1-2,.32C1972.26,1857,1968.72,1852.45,1968.79,1846.86Zm26.8.36a11.33,11.33,0,0,1,3-7.71,6.69,6.69,0,0,1,6.69-2.11,6.57,6.57,0,0,1,2-.32c4.46.06,8,4.65,7.93,10.24a12.59,12.59,0,0,1-.56,3.52c-1.19,3.84-4.18,6.55-7.65,6.51a6.93,6.93,0,0,1-1.44-.19,6.69,6.69,0,0,1-2,.31C1999.06,1857.41,1995.51,1852.83,1995.59,1847.22Zm52.19-19.2-64.11-.89-9.42-.13-2.48,0-2.91,0a3.85,3.85,0,0,1-3.69-4l.46-32.71a4,4,0,0,1,2.15-3.52,3.54,3.54,0,0,1,1.65-.38l2.9,0,2.49,0,9.41.14,64.11.89,11.37.15a8.77,8.77,0,0,1,8.39,9.12l-.25,17.71-.07,4.91a8.75,8.75,0,0,1-8.64,8.88Zm10.42,50.74,36-53a22.1,22.1,0,0,1,18.44-9.68l150.9,1.21a22.06,22.06,0,0,1,19.57,12.22l26,52.24Zm288.15-23.15c-1,3.2-3.47,5.46-6.36,5.41a5.08,5.08,0,0,1-1.17-.16,5.28,5.28,0,0,1-1.68.27c-3.71-.05-6.66-3.87-6.6-8.52a9.39,9.39,0,0,1,2.49-6.42,5.9,5.9,0,0,1,4.33-1.91,5.07,5.07,0,0,0,2.87-.1c3.7,0,6.66,3.86,6.59,8.52A10.19,10.19,0,0,1,2346.35,1855.61Z" transform="translate(-30.85 -434.93)"/><path class="cls-26" d="M2334.08,1810.69c-1.66-.27-3.28-.55-4.88-.84-9.16-1.58-17.83-6.34-22.59-14.63a5.09,5.09,0,0,0-1,2.89l-.27,19.21a5.09,5.09,0,0,0,5,5.15l25.38.36-1.88,0Z" transform="translate(-30.85 -434.93)"/><path class="cls-27" d="M2329.2,1809.85c1.6.29,3.22.57,4.88.83l.23-17.26,3.34,0-26.84-.36a5.07,5.07,0,0,0-4.2,2.11C2311.37,1803.51,2320,1808.27,2329.2,1809.85Z" transform="translate(-30.85 -434.93)"/><path class="cls-12" d="M2067.78,1819.3l.07-4.91.25-17.71a8.77,8.77,0,0,0-8.39-9.12l-11.37-.15-64.11-.89-9.41-.14-2.49,0-2.9,0a3.54,3.54,0,0,0-1.65.38,4,4,0,0,0-2.15,3.52l-.46,32.71a3.85,3.85,0,0,0,3.69,4l2.91,0,2.48,0,9.42.13,64.11.89,11.36.16A8.75,8.75,0,0,0,2067.78,1819.3Zm-2.81-1.79a7.91,7.91,0,0,1-8,7.8l-10.56-.15-68.34-.94-2.3,0-2.71,0a3.49,3.49,0,0,1-3.43-3.52l.4-28.77a3.46,3.46,0,0,1,2-3.1,3.32,3.32,0,0,1,1.52-.33l13.76.18,70.14,1a7.93,7.93,0,0,1,7.81,8l-.22,15.59Z" transform="translate(-30.85 -434.93)"/><path class="cls-28" d="M2057.43,1789.58l-70.14-1,59.58.84a7.91,7.91,0,0,1,7.81,8l-.22,15.56c3.53.09,7.06.14,10.56.17l.22-15.59A7.93,7.93,0,0,0,2057.43,1789.58Z" transform="translate(-30.85 -434.93)"/><path class="cls-29" d="M2054.46,1813l-.06,4.33a7.9,7.9,0,0,1-8,7.8l10.56.15a7.91,7.91,0,0,0,8-7.8l.05-4.31C2061.52,1813.17,2058,1813.12,2054.46,1813Z" transform="translate(-30.85 -434.93)"/><path class="cls-29" d="M1975.74,1824.19l2.3,0Z" transform="translate(-30.85 -434.93)"/><path class="cls-27" d="M1987.15,1799.14c19.95,10.65,43.76,13.28,67.31,13.9l.22-15.57a7.91,7.91,0,0,0-7.81-8l-59.58-.84Z" transform="translate(-30.85 -434.93)"/><path class="cls-26" d="M2054.4,1817.36l.06-4.32c-23.55-.62-47.36-3.25-67.31-13.9,0,0-.35,25.21-.35,25.21l-8.76-.13,68.34.94A7.9,7.9,0,0,0,2054.4,1817.36Z" transform="translate(-30.85 -434.93)"/><path class="cls-30" d="M1986.8,1824.35l.35-25.19a80.06,80.06,0,0,1-15.14-10.4,3.46,3.46,0,0,0-2,3.1l-.4,28.77a3.49,3.49,0,0,0,3.43,3.52l2.71,0,2.3,0Z" transform="translate(-30.85 -434.93)"/><path class="cls-31" d="M1987.15,1799.16s.14-10.55.14-10.55l-13.76-.18a3.32,3.32,0,0,0-1.52.33A80.06,80.06,0,0,0,1987.15,1799.16Z" transform="translate(-30.85 -434.93)"/><path class="cls-32" d="M2334.08,1810.69l-.18,12.11,1.88,0,9.43.13-3.75-.06.15-11.16C2339.07,1811.45,2336.54,1811.1,2334.08,1810.69Z" transform="translate(-30.85 -434.93)"/><path class="cls-31" d="M2337.65,1793.47l-3.34,0-.23,17.26c2.46.42,5,.77,7.53,1l.26-18.2,3.75.06Z" transform="translate(-30.85 -434.93)"/><path class="cls-31" d="M2341.61,1811.74l-.15,11.16,3.75.06,6,.08,1.59,0a2.86,2.86,0,0,0,2.9-2.82l.12-8.32A65.39,65.39,0,0,1,2341.61,1811.74Z" transform="translate(-30.85 -434.93)"/><path class="cls-33" d="M2353.18,1793.69l-1.59,0-6-.07-3.75-.06-.26,18.2a64.77,64.77,0,0,0,14.18.19l.21-15.33A2.86,2.86,0,0,0,2353.18,1793.69Z" transform="translate(-30.85 -434.93)"/><path class="cls-12" d="M1978.74,1856.78c-3.76-.89-6.58-5.07-6.51-10a11,11,0,0,1,3.82-8.48,7.74,7.74,0,0,1,2.38-1.24,6.74,6.74,0,0,0-1.42-.19,6.91,6.91,0,0,0-4.39,1.56,10.94,10.94,0,0,0-3.83,8.47c-.07,5.59,3.47,10.18,7.94,10.24A6.5,6.5,0,0,0,1978.74,1856.78Z" transform="translate(-30.85 -434.93)"/><path class="cls-12" d="M2005.52,1857.16c-3.76-.91-6.57-5.07-6.49-10.06a11.29,11.29,0,0,1,3-7.71,7.57,7.57,0,0,1,3.25-2,6.69,6.69,0,0,0-6.69,2.11,11.33,11.33,0,0,0-3,7.71c-.08,5.61,3.47,10.19,7.93,10.25A6.69,6.69,0,0,0,2005.52,1857.16Z" transform="translate(-30.85 -434.93)"/><path class="cls-26" d="M1976.05,1838.26a11,11,0,0,0-3.82,8.48c-.07,5,2.75,9.15,6.51,10a6.09,6.09,0,0,0,1.43.2c3.31,0,6.19-2.43,7.48-6C1981.29,1850.31,1976.57,1844.73,1976.05,1838.26Z" transform="translate(-30.85 -434.93)"/><path class="cls-27" d="M1987.65,1851a11.88,11.88,0,0,0,.72-4c.09-5.6-3.47-10.18-7.93-10.25a6.81,6.81,0,0,0-2,.32,7.74,7.74,0,0,0-2.38,1.24C1976.57,1844.73,1981.29,1850.31,1987.65,1851Z" transform="translate(-30.85 -434.93)"/><path class="cls-27" d="M2005.54,1848.14a19.1,19.1,0,0,0,9.07,2.7,12.59,12.59,0,0,0,.56-3.52c.08-5.59-3.47-10.18-7.93-10.24a6.57,6.57,0,0,0-2,.32,7.57,7.57,0,0,0-3.25,2C2001.84,1842.86,2002.64,1846.26,2005.54,1848.14Z" transform="translate(-30.85 -434.93)"/><path class="cls-26" d="M2005.54,1848.14c-2.9-1.88-3.7-5.28-3.53-8.75a11.29,11.29,0,0,0-3,7.71c-.08,5,2.73,9.15,6.49,10.06a6.93,6.93,0,0,0,1.44.19c3.47,0,6.46-2.67,7.65-6.51A19.1,19.1,0,0,1,2005.54,1848.14Z" transform="translate(-30.85 -434.93)"/><path class="cls-12" d="M2314.85,1860.82a5.13,5.13,0,0,0,1.7-.27c-3.14-.74-5.49-4.2-5.43-8.35a9.13,9.13,0,0,1,3.17-7,6.36,6.36,0,0,1,2-1,6.35,6.35,0,0,0-1.16-.16,5.7,5.7,0,0,0-3.65,1.3,9,9,0,0,0-3.18,7C2308.19,1857,2311.15,1860.77,2314.85,1860.82Z" transform="translate(-30.85 -434.93)"/><path class="cls-12" d="M2333.4,1852.51a9.41,9.41,0,0,1,2.48-6.41,6.42,6.42,0,0,1,2.68-1.66,5.26,5.26,0,0,0-1.2-.16,5.9,5.9,0,0,0-4.33,1.91,9.39,9.39,0,0,0-2.49,6.42c-.06,4.65,2.89,8.47,6.6,8.52a5.28,5.28,0,0,0,1.68-.27C2335.68,1860.12,2333.34,1856.65,2333.4,1852.51Z" transform="translate(-30.85 -434.93)"/><path class="cls-26" d="M2314.29,1845.16a9.13,9.13,0,0,0-3.17,7c-.06,4.15,2.29,7.61,5.43,8.35a6.36,6.36,0,0,0,1.16.17c2.76,0,5.15-2,6.23-5C2318.65,1855.17,2314.73,1850.53,2314.29,1845.16Z" transform="translate(-30.85 -434.93)"/><path class="cls-27" d="M2323.94,1855.73a10.33,10.33,0,0,0,.61-3.35c.06-4.65-2.9-8.47-6.6-8.51a5.39,5.39,0,0,0-1.7.26,6.36,6.36,0,0,0-2,1C2314.73,1850.53,2318.65,1855.17,2323.94,1855.73Z" transform="translate(-30.85 -434.93)"/><path class="cls-27" d="M2340.23,1844.18a5.21,5.21,0,0,0-1.67.26,6.42,6.42,0,0,0-2.68,1.66c-.14,2.88.52,5.71,2.93,7.27a15.89,15.89,0,0,0,7.54,2.24,10.19,10.19,0,0,0,.47-2.91C2346.89,1848,2343.93,1844.22,2340.23,1844.18Z" transform="translate(-30.85 -434.93)"/><path class="cls-26" d="M2338.81,1853.37c-2.41-1.56-3.07-4.39-2.93-7.27a9.41,9.41,0,0,0-2.48,6.41c-.06,4.14,2.28,7.61,5.42,8.35a5.08,5.08,0,0,0,1.17.16c2.89,0,5.38-2.21,6.36-5.41A15.89,15.89,0,0,1,2338.81,1853.37Z" transform="translate(-30.85 -434.93)"/><path class="cls-5" d="M2285.39,1652.83a31.78,31.78,0,0,0,1.16-3.21L2073.3,1646l2.24,3.9Z" transform="translate(-30.85 -434.93)"/><path class="cls-5" d="M2271.5,1678.66l1.25-3.5s-186.43-3.19-187.28-2.9l1.82,3.34Z" transform="translate(-30.85 -434.93)"/><polygon class="cls-5" points="2063.16 1263.81 2064.84 1267.06 2230.5 1269.36 2231.71 1266.44 2227.49 1266.37 2063.16 1263.81"/><path class="cls-5" d="M2102.63,1724.62l1.12,3.08,147.72,1.88.87-2.91-60.15-.82Z" transform="translate(-30.85 -434.93)"/><polygon class="cls-5" points="2083.11 1315.67 2084.23 1318.35 2207.05 1319.54 2207.72 1316.92 2083.11 1315.67"/><path class="cls-12" d="M2283.09,1829.48a22.06,22.06,0,0,0-19.57-12.22l-150.9-1.21a22.1,22.1,0,0,0-18.44,9.68l-36,53,250.94,3Zm-167.72-2.86,6.58.09,139,1.92a6.44,6.44,0,0,1,6.34,6.52l-.16,11.54-.09,6.53a6.42,6.42,0,0,1-6.51,6.33l-145.6-2a6.43,6.43,0,0,1-6.33-6.51l.25-18.06A6.43,6.43,0,0,1,2115.37,1826.62Z" transform="translate(-30.85 -434.93)"/><path class="cls-27" d="M2247.74,1850a119.51,119.51,0,0,0,19.39-3.26l.16-11.54a6.44,6.44,0,0,0-6.34-6.52l-139-1.92C2158.45,1849.62,2205.12,1853.75,2247.74,1850Z" transform="translate(-30.85 -434.93)"/><path class="cls-26" d="M2108.6,1851a6.43,6.43,0,0,0,6.33,6.51l145.6,2a6.42,6.42,0,0,0,6.51-6.33l.09-6.53a119.51,119.51,0,0,1-19.39,3.26c-42.62,3.8-89.29-.33-125.79-23.24l-6.58-.09a6.43,6.43,0,0,0-6.52,6.34Z" transform="translate(-30.85 -434.93)"/><path class="cls-11" d="M1892.59,1440.23l20.33-3.38a8.24,8.24,0,0,0,6.81-9.32l-.38-2.55c-11.87,1.89-25.81,1.24-34.91-6.14l-1.38,12.14a8.28,8.28,0,0,0,8.36,9.36A8,8,0,0,0,1892.59,1440.23Z" transform="translate(-30.85 -434.93)"/><path class="cls-3" d="M1919.35,1425l-1.78-12.18a8.23,8.23,0,0,0-10.53-6.7l-16.7,5a8.23,8.23,0,0,0-5.81,7l-.09.74C1893.54,1426.22,1907.48,1426.87,1919.35,1425Z" transform="translate(-30.85 -434.93)"/><path class="cls-12" d="M1925.11,1453.71l2.51,20c5-8.34,13.16-10.59,19.11-11,.89-.07,1.73-.09,2.51-.08a3.91,3.91,0,0,0,3.88-4.7l-.58-2.76a3.92,3.92,0,0,0-3.62-3.11l-4.61-.23-19.89-1A12.46,12.46,0,0,1,1925.11,1453.71Z" transform="translate(-30.85 -434.93)"/><path class="cls-11" d="M1897.33,1512.16a51.56,51.56,0,0,1-14.13-18.94l-.18,13.36-.31,22-.28,20.92a13.05,13.05,0,0,0,13.23,13.24l21-.29a19.74,19.74,0,0,0,19.31-22.18l-.31-2.5-.87-6.92-.18-1.46A79,79,0,0,1,1897.33,1512.16Z" transform="translate(-30.85 -434.93)"/><path class="cls-3" d="M1897.33,1512.16a79,79,0,0,0,37.25,17.2l-5.77-46.08-1.19-9.52-2.51-20a12.46,12.46,0,0,0-.69-2.83,13,13,0,0,0-14.19-8.43c-.22,0-.43,0-.64.09l-13.75,2.77-1.68.34a13,13,0,0,0-10.47,12.62l-.07,4.76-.42,30.19A51.56,51.56,0,0,0,1897.33,1512.16Z" transform="translate(-30.85 -434.93)"/><path class="cls-21" d="M1926.76,1338.24c-.75-2.81-1.64-5.56-2.66-8.28a79.42,79.42,0,0,0-15.8-25.44,85.46,85.46,0,0,0-11.24-10,82.31,82.31,0,0,0-12.84-7.77,86.45,86.45,0,0,0-13.91-5.4,69.34,69.34,0,0,0-14.58-2.69,101.75,101.75,0,0,1,13.92,4.6,108.66,108.66,0,0,1,13.08,6.32,93.57,93.57,0,0,1,22.55,17.76,80.21,80.21,0,0,1,8.85,11.28,93.22,93.22,0,0,1,7,12.6,132.1,132.1,0,0,1,8.73,27.83c-.06-1.79-.18-3.6-.34-5.4A87.94,87.94,0,0,0,1926.76,1338.24Z" transform="translate(-30.85 -434.93)"/><path class="cls-21" d="M1998.73,1744.45c-18.37-1.61-36.76-2.71-55.17-3.62-2.34-.13-4.53-.21-6.69-.52-1.09-.16-2.18-.3-3.24-.55a26.5,26.5,0,0,1-3.19-.78,43,43,0,0,1-11.89-5.39,44.37,44.37,0,0,1-9.73-8.6,45.57,45.57,0,0,1-3.78-5.3l-3.27-6a100.54,100.54,0,0,0-17.14-22.41,109.62,109.62,0,0,0-22.48-16.85,127.3,127.3,0,0,0-25.66-11,118.88,118.88,0,0,0-27.25-5.1,146.14,146.14,0,0,1,26.43,7.49,139.58,139.58,0,0,1,24.42,12.05c15.35,9.57,28.53,22.58,37.18,38.34l3.41,6.11a49.3,49.3,0,0,0,4.29,5.9,46.59,46.59,0,0,0,24.29,15.11,33.3,33.3,0,0,0,3.54.76,30.82,30.82,0,0,0,3.58.5c2.41.24,4.83.22,7.09.25C1961.87,1745,1980.29,1745,1998.73,1744.45Z" transform="translate(-30.85 -434.93)"/><path class="cls-21" d="M1827.68,1599.7c.1,3.15.12,6.21.28,9.44a38.77,38.77,0,0,0,1.74,9.73,41.84,41.84,0,0,0,10,17,38.87,38.87,0,0,0,7.74,6.24,41.06,41.06,0,0,0,4.37,2.4l2.28,1,2.16.89a152.08,152.08,0,0,1,16.64,8,112.55,112.55,0,0,1,29,22.28,81.9,81.9,0,0,1,10.93,14.6c.84,1.27,1.46,2.65,2.18,4l2.17,4.2a46.31,46.31,0,0,0,5.57,8.09,43.15,43.15,0,0,0,15.71,11.45,41.77,41.77,0,0,0,9.34,2.76,59.94,59.94,0,0,0,9.56.68c12.52.1,25,.4,37.57.35-12.48-1.12-25-1.91-37.47-2.88a59.59,59.59,0,0,1-9.1-1.06,39.19,39.19,0,0,1-8.52-2.93,40.43,40.43,0,0,1-14-11,42.87,42.87,0,0,1-4.81-7.5l-2-4.2c-.74-1.43-1.37-2.91-2.23-4.27a86.71,86.71,0,0,0-11.22-15.62c-8.57-9.61-19-17.28-30.12-23.5a157.72,157.72,0,0,0-17.25-8.14l-2.19-.88-2-.87a38.89,38.89,0,0,1-3.87-2.09,37.41,37.41,0,0,1-6.9-5.44,37,37,0,0,1-9.16-14.9,35.21,35.21,0,0,1-1.74-8.67c-.26-3-.38-6.22-.58-9.31q-2.07-37.5-5.13-75Q1826.63,1562.17,1827.68,1599.7Z" transform="translate(-30.85 -434.93)"/><path class="cls-12" d="M1885.12,1858.18c.05-32.79-6.83-63.16-18.48-87.73-13.61-28.7-33.73-49.43-56.93-56.78a61.93,61.93,0,0,0-17.48-2.94c-30.69-.58-58,22.14-75,57.65-11.49,24-18.32,53.8-18.37,86.23,0,6.66.27,13.23.82,19.67l4,.08-42.81-.59a10.8,10.8,0,0,1-10.66-11l1.18-85.51a9.84,9.84,0,0,1,10-9.69l3.24,0,.68-30.11-39.41-.55-47.09-.65-30.18-.42a20.82,20.82,0,0,0-21,20.47l-1.32,95.47a20.81,20.81,0,0,0,20.47,21l68.3.95,96.29,1.34c-.25-4.22-.37-8.51-.37-12.83.1-70,34.49-126.1,76.79-125.29s76.52,58.21,76.41,128.22-34.48,126.1-76.79,125.29l88.9,2-.48-.45c39.83.41,72.14-49.9,75.67-114.36l-67.13-1.13Q1885.09,1867.58,1885.12,1858.18Z" transform="translate(-30.85 -434.93)"/><path class="cls-3" d="M1864.17,1865.29c.11-70-34.1-127.41-76.41-128.22s-76.69,55.28-76.79,125.29c0,4.32.12,8.61.37,12.83,3.78,64,36.35,114.63,76,115.39C1829.69,1991.39,1864.06,1935.29,1864.17,1865.29Zm-127,21a141.43,141.43,0,0,1-1.92-23.47c.08-47.78,23.55-86.07,52.42-85.52,12.83.25,24.56,8.12,33.64,21,11.35,16.1,18.56,40,18.52,66.54-.07,47.79-23.54,86.08-52.42,85.53C1763.47,1949.89,1743.32,1922.81,1737.2,1886.29Z" transform="translate(-30.85 -434.93)"/><path class="cls-16" d="M1754.27,1888.68c-.55-2.09-1.06-4.19-1.46-6.31a104.51,104.51,0,0,1-1.82-19.25,98,98,0,0,1,1.87-19.24,78.56,78.56,0,0,1,5.94-18.41,49.56,49.56,0,0,1,11.27-15.78,31,31,0,0,1,8.26-5.34,23.43,23.43,0,0,1,9.75-1.86,28.3,28.3,0,0,1,18,7.81,52.67,52.67,0,0,1,11.16,15.22,275.29,275.29,0,0,0,4.08-27.24c-9.08-12.86-20.81-20.73-33.64-21-28.87-.55-52.34,37.74-52.42,85.52a141.43,141.43,0,0,0,1.92,23.47A74.15,74.15,0,0,0,1754.27,1888.68Z" transform="translate(-30.85 -434.93)"/><path class="cls-16" d="M1754.51,1888.68c16.19.24,31.59-5.48,42.72-19.08,9.68-10.63,15.34-24.35,18.94-39.27-.38-.93-.75-1.87-1.17-2.79a52,52,0,0,0-10.5-15.53,26.42,26.42,0,0,0-16.48-7.82,21.88,21.88,0,0,0-9.17,1.46,29.74,29.74,0,0,0-8.08,4.85,47.64,47.64,0,0,0-11.53,15.19c-5.77,11.53-8.15,24.56-8.25,37.43A98,98,0,0,0,1754.51,1888.68Z" transform="translate(-30.85 -434.93)"/><path class="cls-17" d="M1839.86,1864.82c0-26.56-7.17-50.44-18.52-66.54a275.29,275.29,0,0,1-4.08,27.24l.39.78c5.81,11.89,8,25.15,8.19,38.23-.09,13.07-2.51,26.33-8.41,38.18a49.4,49.4,0,0,1-12,15.71,31.22,31.22,0,0,1-8.56,5.16,23.94,23.94,0,0,1-9.86,1.58,28.22,28.22,0,0,1-17.59-8.28,53.68,53.68,0,0,1-10.87-16.06,76.93,76.93,0,0,1-4.33-12.14,74.15,74.15,0,0,1-17.07-2.39c6.12,36.52,26.27,63.6,50.24,64.06C1816.32,1950.9,1839.79,1912.61,1839.86,1864.82Z" transform="translate(-30.85 -434.93)"/><path class="cls-17" d="M1754.51,1888.68a72,72,0,0,0,4.52,11.94,51.36,51.36,0,0,0,11.18,15.48,26.7,26.7,0,0,0,16.91,7.37,22.09,22.09,0,0,0,9.05-1.75,29.32,29.32,0,0,0,7.8-5,48.15,48.15,0,0,0,10.84-15.24,76.08,76.08,0,0,0,5.8-18,94.32,94.32,0,0,0,1.84-18.9,103.42,103.42,0,0,0-1.78-18.91,79.54,79.54,0,0,0-4.5-15.28c-3.6,14.92-9.26,28.64-18.94,39.27C1786.1,1883.2,1770.7,1888.92,1754.51,1888.68Z" transform="translate(-30.85 -434.93)"/><path class="cls-18" d="M1806.1,1810.3a28.3,28.3,0,0,0-18-7.81,23.43,23.43,0,0,0-9.75,1.86,31,31,0,0,0-8.26,5.34,49.56,49.56,0,0,0-11.27,15.78,78.56,78.56,0,0,0-5.94,18.41,98,98,0,0,0-1.87,19.24c.1-12.87,2.48-25.9,8.25-37.43a47.64,47.64,0,0,1,11.53-15.19,29.74,29.74,0,0,1,8.08-4.85,21.88,21.88,0,0,1,9.17-1.46,26.42,26.42,0,0,1,16.48,7.82,52,52,0,0,1,10.5,15.53c.42.92.79,1.86,1.17,2.79a79.54,79.54,0,0,1,4.5,15.28,103.42,103.42,0,0,1,1.78,18.91,94.32,94.32,0,0,1-1.84,18.9,76.08,76.08,0,0,1-5.8,18,48.15,48.15,0,0,1-10.84,15.24,29.32,29.32,0,0,1-7.8,5,22.09,22.09,0,0,1-9.05,1.75,26.7,26.7,0,0,1-16.91-7.37,51.36,51.36,0,0,1-11.18-15.48,72,72,0,0,1-4.52-11.94,98,98,0,0,1-3.52-25.56,104.51,104.51,0,0,0,1.82,19.25c.4,2.12.91,4.22,1.46,6.31a76.93,76.93,0,0,0,4.33,12.14,53.68,53.68,0,0,0,10.87,16.06,28.22,28.22,0,0,0,17.59,8.28,23.94,23.94,0,0,0,9.86-1.58,31.22,31.22,0,0,0,8.56-5.16,49.4,49.4,0,0,0,12-15.71c5.9-11.85,8.32-25.11,8.41-38.18-.15-13.08-2.38-26.34-8.19-38.23l-.39-.78A52.67,52.67,0,0,0,1806.1,1810.3Z" transform="translate(-30.85 -434.93)"/><polygon class="cls-12" points="679.19 1195.14 670.84 1168.87 627.99 1230.75 653.93 1231.1 679.19 1195.14"/><polygon class="cls-12" points="899.14 1174.45 898.53 1172.55 856.05 1233.91 882 1234.27 906.89 1198.82 899.14 1174.45"/><polygon class="cls-12" points="1134.59 1202.51 1126.23 1176.23 1084.11 1237.06 1110.06 1237.43 1115.23 1230.08 1134.59 1202.51"/><polygon class="cls-12" points="1353.92 1179.93 1312.17 1240.24 1338.12 1240.6 1362.28 1206.2 1353.92 1179.93"/><path class="cls-3" d="M728.37,1701.12l92.73,1.29,6.56.09L990,1704.75l49,.68,61,.84,6.56.1,194,2.68,49,.69,85.25,1.17a6.89,6.89,0,0,1-6.57-7l.29-20.71a6.89,6.89,0,0,1,6.76-6.78l-.83,0-65.6-.9-26-.36,41.75-60.31-11.09-.16-41,60.32-144.63-2-47.14-.66-26-.36,42.12-60.83L1146,1611l-32.2,47.39-9.14,13.47-18.24-.26-6.85-.09-166.71-2.32-25.94-.35,42.48-61.37-4.78-.06-6.31-.08-41.71,61.36-69.14-1-6.85-.1L684.78,1666l-25.94-.36,42.84-61.87-11.09-.16-42.07,61.89-55.59-.78c-4.26.17-7.19,3.11-7.24,6.79l0,2.27a285.51,285.51,0,0,1-23.18-39l-21.42-.3a7.13,7.13,0,0,1,2.31,4.09l5.07,31.25a5,5,0,0,1-1,4l38.23.54-.25,17.77a6.89,6.89,0,0,0,6.42,7c.63,0,14.27.2,14.27.2l73.26,1Z" transform="translate(-30.85 -434.93)"/><path class="cls-12" d="M1441.55,1706.87a6.81,6.81,0,0,0,.61-2.73l.19-13.17.1-7.55a6.91,6.91,0,0,0-6.8-7,7,7,0,0,0-7,6.81l-.29,20.71a6.91,6.91,0,0,0,13.2,2.93Z" transform="translate(-30.85 -434.93)"/><path class="cls-3" d="M1045.35,1245.45a5.36,5.36,0,0,0,10.72.08,66.84,66.84,0,0,1,1.85-14.76c4.46-18.32,16.45-31.43,30.26-31.24l93.54,1.3-.45,31.66-.2,14.81a5.35,5.35,0,0,0,4.69,5.37c.2,0,.39.06.59.07a5.44,5.44,0,0,0,5.44-5.29l.2-14.82.44-31.66,213.56,3-.08,6-.16,11.35-.2,14.32-.17,12.2a5.45,5.45,0,0,0-2.09.87,240.64,240.64,0,0,0-51.15,48.88l-97.73-1.35-13.8-.2-6.38-.09a227.83,227.83,0,0,1,44.92-41.77,5.4,5.4,0,0,0-6.19-8.86c-71.72,50-117.18,146.28-118.63,251.13-.07,5.22,0,10.43.14,15.64q.09,3.38.25,6.77c2.09,45.72,12.52,90,30.57,129.33a5.43,5.43,0,0,0,4.92,3.14,5.52,5.52,0,0,0,2.26-.49,5.4,5.4,0,0,0,2.64-7.17,314.59,314.59,0,0,1-14.79-39l6.15.08,112.35,1.56.72,2.39a326.69,326.69,0,0,0,16.09,42.87,5.39,5.39,0,0,0,4.91,3.14,5.31,5.31,0,0,0,2.25-.49,5.4,5.4,0,0,0,2.65-7.17,314.39,314.39,0,0,1-14.54-38.19q-1.65-5.28-3.11-10.62a345.83,345.83,0,0,1-8.32-39.34c-.53-3.53-1-7-1.45-10.61q-1.69-14-2.27-28.21c-.07-1.77-.11-3.55-.15-5.33s-.12-3.81-.14-5.72c0-3,0-6,0-9,0-.51,0-1,0-1.53a361.7,361.7,0,0,1,2.86-39.18q.67-5.31,1.51-10.56a348.47,348.47,0,0,1,8.48-39.11q1.49-5.31,3.13-10.53a321.23,321.23,0,0,1,15.06-39q2.51-5.4,5.2-10.64a281.43,281.43,0,0,1,23.93-38.76q4-5.43,8.24-10.6a228.22,228.22,0,0,1,45.57-42.56,5.21,5.21,0,0,0,1.56-1.72,5.33,5.33,0,0,0,5-5.24l.21-14.82.22-16.63.15-10.73.06-4.3,123.22,1.7a24.81,24.81,0,0,1,13.68,4.46,34.47,34.47,0,0,1,9.92,10.87,50.59,50.59,0,0,1,6.2,16.76,61.61,61.61,0,0,1,1,7.73c0,.73.07,1.46.09,2.2s0,1.65,0,2.48a5.36,5.36,0,0,0,10.72.16q0-3-.14-6c0-.58-.09-1.15-.14-1.72-.14-1.6-.32-3.18-.56-4.74a64.82,64.82,0,0,0-4.81-16.75,52.26,52.26,0,0,0-6.43-10.81c-7.37-9.47-17.61-15.22-29.34-15.39l-451.74-6.25c-19.53-.27-36.17,17.48-41.33,41.8A77.5,77.5,0,0,0,1045.35,1245.45Zm250.58,350.2-101.13-1.4-11.2-.16-6.36-.09a345,345,0,0,1-8.24-39.33l7,.1,112.25,1.55c.11.79.2,1.59.32,2.38A357.83,357.83,0,0,0,1295.93,1595.65Zm-11.15-81.17c0,1.83.08,3.67.15,5.49.34,8.65,1,17.24,2,25.75l-101.34-1.41-10.88-.15-7.06-.1c-1-8.31-1.66-16.7-2.07-25.13q-.15-3.36-.25-6.72c-.07-2.46-.13-4.93-.15-7.39l7.39.09,112.14,1.56c0,.79,0,1.59,0,2.37C1284.68,1510.73,1284.73,1512.6,1284.78,1514.48Zm0-18.59-101.32-1.41-10.8-.15-7.45-.1a359,359,0,0,1,2.93-39.18l7.62.11,112,1.55c-.11.8-.22,1.58-.32,2.37Q1285.23,1477.23,1284.77,1495.89Zm4.57-49.74-101.1-1.4-10.94-.15-7.64-.11a345.31,345.31,0,0,1,8.57-39.1l7.66.11,112,1.54c-.22.8-.42,1.59-.64,2.37A357.92,357.92,0,0,0,1289.34,1446.15ZM1301,1396.5l-100.59-1.38L1189,1395l-7.6-.11a319.35,319.35,0,0,1,15.16-38.95l7.44.1,111.86,1.56c-.36.79-.72,1.57-1.07,2.36A334.35,334.35,0,0,0,1301,1396.5Zm20-49.59-99.67-1.38-12.13-.17-7.32-.1a281.57,281.57,0,0,1,24.09-38.75l6.66.08,111.6,1.56c-.56.77-1.08,1.56-1.62,2.36A296.32,296.32,0,0,0,1320.94,1346.91Z" transform="translate(-30.85 -434.93)"/><path class="cls-34" d="M1185.89,1405.5a359.9,359.9,0,0,0-8.59,39.1l10.94.15a348.52,348.52,0,0,1,8.18-36.74l100.81,1.4c.22-.78.42-1.57.64-2.37Z" transform="translate(-30.85 -434.93)"/><path class="cls-34" d="M1176,1554.77a359.4,359.4,0,0,0,7.65,39.32l11.2.16a346.16,346.16,0,0,1-7.6-37l101.32,1.41c-.12-.79-.21-1.59-.32-2.38Z" transform="translate(-30.85 -434.93)"/><path class="cls-34" d="M1204,1356a330.31,330.31,0,0,0-15,39l11.37.16a322.23,322.23,0,0,1,14.38-36.59l100,1.39c.35-.79.71-1.57,1.07-2.36Z" transform="translate(-30.85 -434.93)"/><path class="cls-34" d="M1333.82,1654.15a5.41,5.41,0,0,0,4.84,3.15,5.52,5.52,0,0,0,2.33-.49,5.39,5.39,0,0,0,2.65-7.16c-18-39.24-28.21-83.69-29.78-129.5-.06-1.68-.1-3.36-.13-5-.08-4.17-.12-8.35-.07-12.55,1.41-101.42,45.1-194.32,114-242.41a5.4,5.4,0,1,0-6.18-8.86,241.42,241.42,0,0,0-51.2,48.88l-6.38-.09q-4.25,5.18-8.24,10.6l6.67.1a296.49,296.49,0,0,0-23.29,38.76l-7.31-.1q-2.7,5.25-5.2,10.64l7.41.1a331.55,331.55,0,0,0-14.86,39l-7.61-.1q-1.65,5.22-3.13,10.53l7.64.11a359,359,0,0,0-8.5,39.11l-7.62-.11q-.84,5.25-1.51,10.56l7.59.1a374.53,374.53,0,0,0-3,39.19l-7.43-.11c0,.51,0,1,0,1.53,0,3,0,6,0,9l7.38.11c0,1.93.06,3.85.09,5.76,0,1.75.07,3.49.12,5.23.31,9.48,1,18.92,2,28.26l-7-.1c.42,3.56.92,7.08,1.45,10.61l6.91.09a352.36,352.36,0,0,0,7.74,39.33l-6.33-.08q1.47,5.34,3.11,10.62l6.12.08A326.34,326.34,0,0,0,1333.82,1654.15Z" transform="translate(-30.85 -434.93)"/><path class="cls-34" d="M1232.57,1306.59a294.93,294.93,0,0,0-23.43,38.77l12.13.17a279.85,279.85,0,0,1,22.81-36.39l98.47,1.37c.54-.8,1.06-1.59,1.62-2.36Z" transform="translate(-30.85 -434.93)"/><path class="cls-34" d="M1175.75,1455.16a374,374,0,0,0-3.1,39.17l10.8.15a362.78,362.78,0,0,1,2.84-36.8l101.19,1.4c.1-.79.21-1.57.32-2.37Z" transform="translate(-30.85 -434.93)"/><path class="cls-34" d="M1208.33,1653.91a5.31,5.31,0,0,0,2.32-.5,5.38,5.38,0,0,0,2.66-7.16,313.74,313.74,0,0,1-14.84-39l101.07,1.41-.72-2.39-112.35-1.56a325.57,325.57,0,0,0,17,46A5.39,5.39,0,0,0,1208.33,1653.91Z" transform="translate(-30.85 -434.93)"/><path class="cls-34" d="M1297.34,1256.76a5.4,5.4,0,0,0-6.19-8.86,241.26,241.26,0,0,0-50.54,48.09l13.8.2A226.43,226.43,0,0,1,1297.34,1256.76Z" transform="translate(-30.85 -434.93)"/><path class="cls-34" d="M1183.43,1512.54c0-1.7-.1-3.4-.11-5.1l101.34,1.4c0-.78,0-1.58,0-2.37l-112.14-1.56c0,2.49,0,5,.08,7.43.05,2.22.09,4.45.18,6.66q.51,12.68,1.88,25.16l10.88.15q-1.39-12.51-1.92-25.21C1183.53,1516.92,1183.48,1514.73,1183.43,1512.54Z" transform="translate(-30.85 -434.93)"/><path class="cls-35" d="M2239.38,1551l-.58-.19C2239,1550.87,2239.19,1550.92,2239.38,1551Z" transform="translate(-30.85 -434.93)"/><path class="cls-36" d="M887.76,1404a6.88,6.88,0,0,0-1.23,7.36l0,0c1.78,4.91,7.64,10.39,14.46,15.87.87.7,1.64,1.34,2.32,1.93l.52.47.4.36c6.35,5.86,4,7.21,15.38,19.1,13,13.55,22,13.8,24.53,12.57,2.16-1.06-2.22-8.24-7.08-16.32l-.7-1.18c-.65-1.07-1.29-2.16-1.94-3.24-5.68-9.72-4.22-14.28-2.87-28.75,1.1-11.75,18.31-65.66,18.31-65.66l-25-4.31s-7.53,42.93-15.81,49.54c-4.43,3.52-9.38,3.56-13.64,6.17l-.89.56A33.06,33.06,0,0,0,887.76,1404Z" transform="translate(-30.85 -434.93)"/><path class="cls-3" d="M887.76,1404a6.88,6.88,0,0,0-1.23,7.36l0,0c2.18,4.9,7.89,10.36,14.48,15.82.86.71,1.62,1.37,2.3,2l.52.47.4.36c6.35,5.86,4,7.21,15.38,19.1,13,13.55,22,13.8,24.53,12.57,2.16-1.06-2.22-8.24-7.08-16.32a55.57,55.57,0,0,1-23.2-17.11c-7.56-9.65-12.68-21.94-17.82-29.48l-1.47-.28A33.06,33.06,0,0,0,887.76,1404Z" transform="translate(-30.85 -434.93)"/><path class="cls-36" d="M1089,1388.51c1.54,7.71,12.52,6.42,24.79,3.43s9.35.57,26.81-1.36,22.75-8.43,23.28-11c.48-2.3-8.15-3.11-17.4-4.18l-3.5-.42c-10.45-1.32-18.1-8.06-27.58-13.6-9-5.25-22.4-26.62-22.4-26.62l-23.94,1.89s12.56,19.09,17.42,27.39c2.85,4.88,2.7,11.33,2.34,16.31A30.79,30.79,0,0,0,1089,1388.51Z" transform="translate(-30.85 -434.93)"/><path class="cls-3" d="M1113.77,1391.94c12.27-3,9.35.57,26.81-1.36s22.75-8.43,23.28-11c.48-2.3-8.15-3.11-17.4-4.18l-.09.17a49.24,49.24,0,0,1-25,7.77c-11.85.28-24.39-3.12-32.57-3a30.79,30.79,0,0,0,.18,8.19C1090.52,1396.22,1101.5,1394.93,1113.77,1391.94Z" transform="translate(-30.85 -434.93)"/><path class="cls-37" d="M997.28,1235.39l-22.4,60.22-29.25,78.63a47.31,47.31,0,0,1-15.52-1.43c-7-2-15-7.31-15-7.31s8.14-84.43,23.29-132.9c3.89-12.44,8.24-22.5,13-28.16C974.9,1176.72,997.28,1235.39,997.28,1235.39Z" transform="translate(-30.85 -434.93)"/><path class="cls-38" d="M974.56,1139.73c-12.74-4.11-46-.08-82,6.44a24.45,24.45,0,0,1-25.25-11.42h0l-90.74-7.11s-30,66.39-13.59,108.7c2.41,6.22,7.7,10.11,15.86,10.24h0s54.83.1,72.37.1c45.12,0,95.51-31,102-32.29,10.67-2.13,14.93,19.21,25.58,41.61S1079,1355.24,1079,1355.24s13.77.14,19.46-2c6.12-2.29,8.36-5.27,8.36-5.27S1007.62,1150.41,974.56,1139.73Z" transform="translate(-30.85 -434.93)"/><path class="cls-3" d="M857.72,868.29a32.17,32.17,0,0,0-17.33-4.52,47.84,47.84,0,0,1-8.37-.51c-34.63-5.09-55.5,45.21-56.73,60.41-2.25,27.9-17,32.15-37.8,49.62-41.68,35-29.47,75.75-6.7,90.89,13.67,9.08,37.76,0,37.76,0,.35.24,65.91-36.62,98.23-54.4C915.22,1002.92,877.18,879.88,857.72,868.29Z" transform="translate(-30.85 -434.93)"/><path class="cls-36" d="M839.7,994.64c.14.09-15.9,5.56-26.62.81C803,991,795.35,974.38,795.5,974.37c4.59-.21,9.63-4.22,13.52-30.55l2,.7,32.86,11.84s-2.38,10.54-3.92,20.58C838.61,985.37,837.91,993.44,839.7,994.64Z" transform="translate(-30.85 -434.93)"/><path class="cls-39" d="M843.83,956.36s-1.31,5.69-3.23,16.31c-18.87-3.4-27-17.94-29.63-28.15Z" transform="translate(-30.85 -434.93)"/><path class="cls-36" d="M848.72,966.82s-45-6.05-40.76-34,1.23-47.54,30.11-44.86,32.85,14.18,33.71,23.85S860.53,967.68,848.72,966.82Z" transform="translate(-30.85 -434.93)"/><path class="cls-3" d="M870.15,896.5s-28.79,24.8-48.37,26.79-27-4.29-27-4.29a76.5,76.5,0,0,0,18.49-25,13.75,13.75,0,0,1,11.35-8.11C838.62,884.65,865.12,884.1,870.15,896.5Z" transform="translate(-30.85 -434.93)"/><path class="cls-3" d="M852.16,894.28s9.62,9.31,12.65,16.22c2.93,6.66,3.8,22.6,1.47,28.93,0,0,15-29.17,6.52-43.35C863.8,881.05,852.16,894.28,852.16,894.28Z" transform="translate(-30.85 -434.93)"/><path class="cls-40" d="M877.54,1060.89c-1.39,91-.4,72-10.36,80.63-2.4,2.07-9.14,3.31-18,3.9-27.91,1.84-77-2.78-78.83-7.94-6.43-17.84-1.89-23.39-7.25-50.71-.56-2.91-1.25-6-2.06-9.48-4.47-18.77-8.83-25.15,7.07-55.29,14.42-27.31,29.39-49.47,30.74-48.67,38,22.58,41.07,3.62,41.07,3.62S878.22,1016.49,877.54,1060.89Z" transform="translate(-30.85 -434.93)"/><path class="cls-38" d="M974.88,1295.61l-29.25,78.63a47.31,47.31,0,0,1-15.52-1.43c-7-2-15-7.31-15-7.31s8.14-84.43,23.29-132.9Z" transform="translate(-30.85 -434.93)"/><path class="cls-40" d="M839.91,976.94s39.11,6.64,43.69,23.49,19.67,119.06,19.67,119.06-11,10.77-20.21,1.58-28.88-95.65-28.88-95.65Z" transform="translate(-30.85 -434.93)"/><path class="cls-41" d="M849.16,1145.42c-27.91,1.84-77-2.78-78.83-7.94-6.43-17.84-1.89-23.39-7.25-50.71l13.48-37.9s-2.24,42.21,10.2,53.31,51,21.45,57,30.73C846.69,1137.36,848.6,1141.83,849.16,1145.42Z" transform="translate(-30.85 -434.93)"/><path class="cls-36" d="M817.19,1127.65s27.54-6.12,32-3.68,15.3,11.35,16.65,14.45-9.89-2.36-13.54-3.34c-2.37-.63-8.61,1.53-11.7,2.56-13,4.33-21,2.1-21,2.1Z" transform="translate(-30.85 -434.93)"/><path class="cls-40" d="M798.8,973.31s-37,2.27-49.77,20.11c-18,25.12-53.8,132.2-33.32,146.49,23.06,16.09,105,4.24,105,4.24s2.74-12.74-1.06-18.9-65.42-16.14-68.26-19,35.58-55.46,35.58-64S798.8,973.31,798.8,973.31Z" transform="translate(-30.85 -434.93)"/><path class="cls-36" d="M850.5,1131.64s5.77,7.44,7.66,8.33a5.64,5.64,0,0,0,3.11.67l-3.89-7Z" transform="translate(-30.85 -434.93)"/><path class="cls-36" d="M849.17,1124l16.77,8.16a3,3,0,0,1-2.78,1.07c-2.07-.1-7.27-2-7.27-2Z" transform="translate(-30.85 -434.93)"/></svg>