<svg id="Layer_1" data-name="Layer 1" xmlns="http://www.w3.org/2000/svg" viewBox="0 0 2604.43 1381.14"><defs><style>.cls-1,.cls-7{fill:#87bad0;}.cls-1{opacity:0.22;isolation:isolate;}.cls-2{fill:#347261;}.cls-3{fill:#407f6c;}.cls-4{fill:#2b6050;}.cls-5{fill:#649e89;}.cls-6{fill:#4d8975;}.cls-8{fill:#0f393a;}.cls-9{fill:#184c4c;}.cls-10{fill:#ef8351;}.cls-11{fill:#e27950;}.cls-12{fill:#f6a390;}.cls-13{fill:#f47458;}.cls-14{fill:#f48c7f;}.cls-15{fill:#edcb50;}.cls-16{fill:#f7a491;}.cls-17{fill:#ddba4b;}.cls-18{fill:#7baaba;}.cls-19{fill:#606060;}.cls-20{fill:#fcfcfc;}</style></defs><title>header-gaz-poemop</title><path class="cls-1" d="M510.33,1591.55H2244.86c143.76-119.93,69.78-480.8-50.31-554-129.26-78.75,76-351.1-123.12-439.49-130-57.72-336.78,5.19-309-149.23,38.57-214.13-412.23-269-744.35-211.28C659,300,986.94,606.8,592.08,668.6c-203,31.79-163.82,303.77-144.87,359.94,16.49,48.93,125.58,126.62-26,233.5C198.87,1418.81,505.09,1588.64,510.33,1591.55Z" transform="translate(0 -216.13)"/><path class="cls-2" d="M2379,609.87s-30.26,65.87-50.62,93.71-39.78,54.44-56,131.68-13.47,85-17.92,105-33.38,100.79-33.55,115.61-58.49,99.2-73.44,138.69-41.39,95.91-39.91,124.63l6.65-1.69s5.41-67,51.52-134.65,39.51-80.46,91.88-115.26,86.17-130.78,86.17-130.78S2397,832.44,2394.55,778.2,2406.21,675.07,2379,609.87Z" transform="translate(0 -216.13)"/><path class="cls-2" d="M2308.13,508.53s-1.76,43.28-15.72,69-26,41.32-28.52,69.14-11.3,99.51-50.22,134.53-43.9,139.91-73.54,171.64-33.5,54.54-28,109,24,129.87-18.93,228.3l-9.74-24.49s30.75-81,23.31-128.42-33.35-119.09-23.87-153.41-25.78-41.08-4.54-93.07,12.51-70,41.4-115c0,0,3-2.1,10.55-40.13s68.85-107.72,97.09-131.5S2296.33,542.16,2308.13,508.53Z" transform="translate(0 -216.13)"/><path class="cls-3" d="M2193.15,722.81s-33.8,57.88-34.28,95.13,3.55,67.56-13.55,118.56,16.84,83.27,7,111.44-10.55,61.51-10.24,86.79-38.72,109-44.64,151.35,1.62,42.52,1.62,42.52,6.49-55.94,15.42-74.44,36.28-82.28,42.66-107,23.66-40.51,38.57-82.3,36.11-77,34.5-136.29S2252.54,806.72,2193.15,722.81Z" transform="translate(0 -216.13)"/><path class="cls-3" d="M2121.59,1289.77s15.76-73.45,82.23-80.79,105.52,5.81,152.49-47.85,74.24-138.8,89.24-153.49c0,0-23.6-12.17-62.82,24.53s-66.79,64.5-89.5,85.85-41.15,7.43-65.12,21.51c-20.1,11.79-46.08,45.89-57.53,63.75a80.19,80.19,0,0,1-13.19,15.8c-4.6,4.25-10.09,9.46-13.6,13.29-7,7.67-27.34,57.63-27.34,57.63Z" transform="translate(0 -216.13)"/><path class="cls-3" d="M2098.15,1276.81s23.44-89.83,7.74-133.79-64.82-76.49-62.84-104.1,33.51-102.28,7.8-157.81c0,0-9.74,49.56-19.41,60.58s-75.79,55.49-64.06,114.22,76,72.44,91.87,89.73,37.22,17.27,37.34,28.76,4.31,53.29-2.8,94.53Z" transform="translate(0 -216.13)"/><path class="cls-4" d="M2123.77,1216.7l32.91-94.81S2176,1045.63,2187.22,982s5.93-259.23,5.93-259.23-33.8,57.88-34.28,95.13,3.55,67.56-13.55,118.56,16.84,83.27,7,111.44-10.55,61.51-10.24,86.79-38.72,109-44.64,151.35c-3.25,23.22-2.44,33.74-1,38.53C2091.15,1287.54,2123.77,1216.7,2123.77,1216.7Z" transform="translate(0 -216.13)"/><path class="cls-2" d="M2285.87,1160.22c-29.36,5.86-55.61,3.86-90.47,29.81s-55.35,53.64-55.35,53.64-15.66,28-22.14,42.76l-1.48,3.61,5.14-.27s15.76-73.45,82.23-80.79,105.53,5.81,152.49-47.85,74.24-138.8,89.24-153.49c0,0-49.94,38.86-80.81,73.25S2315.25,1154.35,2285.87,1160.22Z" transform="translate(0 -216.13)"/><path class="cls-4" d="M2031.44,941.69c-9.65,11-75.79,55.49-64.06,114.22s76,72.44,91.87,89.73,37.22,17.27,37.34,28.76,4.31,53.29-2.8,94.53l1.9,3.44c3.47-16.09,8.28-40.58,9.86-59.25,2.55-30.22-2.34-42.74-12.06-67.22s-70.08-74.36-85.23-100.58,29.18-70,39-91.21,3.54-73.05,3.54-73.05S2041.07,930.67,2031.44,941.69Z" transform="translate(0 -216.13)"/><path class="cls-4" d="M2188.36,1233.41l10.34-25c8-18.36,28.53-27.13,45.82-19.58h0c43.58,19,62.5,72,42.31,118.25l-14.77,33.84c-6.49,14.82-4.22,31.13,4.51,42.63,7.93,10.44,9.22,25,3.72,37.56l-7.78,17.85a71,71,0,0,1-44.27,39.51,43,43,0,0,0-26.75,24.16l-11,25.26c-12.18,27.93-43.39,41.26-69.68,29.79l-15-6.55c-26.29-11.47-37.72-43.41-25.53-71.35h0c19.72-33.39,18.14-58.31,11.15-75.22a101.16,101.16,0,0,1,1-78.9l1.56-3.57a100.38,100.38,0,0,1,61.34-55.52C2167.16,1262.8,2179.57,1253.54,2188.36,1233.41Z" transform="translate(0 -216.13)"/><path class="cls-5" d="M2002.31,1586.12c21.1-27.42,137.09-174.29,212.66-198.77,83.46-27,4.8,80.29,4.8,80.29s148.05-161.88,202.38-147.29c49.8,13.38,0,113.72,0,113.72s56.09-55.57,124.11-55.57c66.2,0-46.26,197.07-52.32,207.62Z" transform="translate(0 -216.13)"/><path class="cls-2" d="M2448.47,1268.35a975.4,975.4,0,0,0-129.87,310.89l-4.15-1.11a981.77,981.77,0,0,1,129.37-308.29c14-21.92,29.22-47.95,55.47-56.5.5-.16.7.61.21.81C2475.5,1223.19,2461.6,1247.85,2448.47,1268.35Z" transform="translate(0 -216.13)"/><path class="cls-2" d="M2333.17,1583.18a1219.65,1219.65,0,0,1,247.48-250.77c1-.73,2.3,1,1.32,1.73a1217.7,1217.7,0,0,0-243.66,250.41Z" transform="translate(0 -216.13)"/><path class="cls-2" d="M2454,1209.77c1.55,2.29,7.51,8.27,9.27,16.11,2.35,7.44.49,16.76.29,16.44-.45.18,6.9-6,9.19-15.91,3-9.48.9-22.62-2.8-27-6.38-9.85-17.54-10.84-19.7-6.07S2450.86,1204.56,2454,1209.77Z" transform="translate(0 -216.13)"/><path class="cls-2" d="M2468.5,1294.09c-2.26-1.62-8.12-7.67-15.92-9.58-7.4-2.49-16.75-.81-16.43-.62-.19.45,6.16-6.78,16.08-8.87,9.53-2.79,22.63-.45,26.91,3.33,9.74,6.58,10.5,17.75,5.68,19.82C2480,1300.4,2473.61,1297.33,2468.5,1294.09Z" transform="translate(0 -216.13)"/><path class="cls-2" d="M2446.63,1331.05c-2.26-1.62-8.12-7.68-15.92-9.58-7.4-2.5-16.76-.81-16.43-.62-.2.44,6.16-6.78,16.08-8.87,9.54-2.79,22.64-.45,26.92,3.33,9.74,6.58,10.49,17.75,5.68,19.82S2451.77,1334.29,2446.63,1331.05Z" transform="translate(0 -216.13)"/><path class="cls-2" d="M2524.51,1416.78c-2.26-1.62-8.12-7.68-15.93-9.58-7.39-2.5-16.74-.81-16.42-.63-.19.45,6.15-6.78,16.08-8.87,9.53-2.78,22.63-.45,26.91,3.34,9.74,6.57,10.5,17.74,5.68,19.81S2529.67,1420,2524.51,1416.78Z" transform="translate(0 -216.13)"/><path class="cls-2" d="M2564.32,1381.72c-2.25-1.63-8.11-7.68-15.92-9.59-7.4-2.5-16.75-.81-16.43-.62-.2.45,6.16-6.77,16.09-8.88,9.53-2.77,22.63-.43,26.9,3.34,9.74,6.58,10.5,17.74,5.69,19.82S2569.47,1385,2564.32,1381.72Z" transform="translate(0 -216.13)"/><path class="cls-2" d="M2423.44,1251.59c1.9,2,8.73,7,11.69,14.45,3.5,7,3.13,16.47,2.88,16.18-.41.26,5.86-7,6.58-17.15,1.43-9.83-2.69-22.48-7-26.2-7.86-8.71-19-7.93-20.42-2.89S2419.53,1246.94,2423.44,1251.59Z" transform="translate(0 -216.13)"/><path class="cls-2" d="M2391.32,1293.5c2.71,1.44,12.18,4.06,16.9,11.11,5.38,6.28,6.06,17,5.69,16.81-.51.47,6.72-10.37,6.41-22,.67-11.58-6.21-23.93-12.28-26.21-11.22-6.35-25.59-.69-26.78,5.55S2385.71,1290,2391.32,1293.5Z" transform="translate(0 -216.13)"/><path class="cls-2" d="M2357.53,1357c2.91,1,12.65,1.94,18.52,8.12,6.35,5.29,8.84,15.78,8.45,15.63-.42.53,4.87-11.37,2.63-22.73-1.29-11.53-10.15-22.55-16.51-23.78-12.14-4.37-25.34,3.62-25.46,10C2344.88,1350.59,2351.39,1354.48,2357.53,1357Z" transform="translate(0 -216.13)"/><path class="cls-2" d="M2457.54,1401.21c2.12,1.32,9.65,4,13.11,10,4,5.41,4,14.2,3.68,14-.44.35,6.06-8,6.49-17.5,1.21-9.38-3.68-19.82-8.49-22-8.77-5.8-20.78-2-22.09,3C2448.75,1393.7,2453.16,1398,2457.54,1401.21Z" transform="translate(0 -216.13)"/><path class="cls-2" d="M2509.61,1224.64c-1.26-1.05-4.46-4.87-9-6.38a19.75,19.75,0,0,0-9.69-1.08c-.13.26,3.94-3.74,9.9-4.54,5.77-1.23,13.41.72,15.77,3.15,5.47,4.31,5.43,11,2.5,12S2512.51,1226.77,2509.61,1224.64Z" transform="translate(0 -216.13)"/><path class="cls-2" d="M2497.49,1197.66c.05,1.62,1.15,6.49-.46,11A19.65,19.65,0,0,1,2492,1217a20.81,20.81,0,0,0,9.64-5.07c4.5-3.81,7.61-11.06,7.13-14.41-.08-7-5.35-11-7.95-9.28S2497.56,1194.07,2497.49,1197.66Z" transform="translate(0 -216.13)"/><path class="cls-2" d="M2593,1346c-1.26-1-4.46-4.87-9-6.36a19.82,19.82,0,0,0-9.69-1.09,21.31,21.31,0,0,1,9.9-4.54c5.77-1.23,13.41.73,15.77,3.15,5.47,4.31,5.44,10.95,2.5,12S2595.88,1348.15,2593,1346Z" transform="translate(0 -216.13)"/><path class="cls-2" d="M2578.35,1318.79c.19,1.63,1.69,6.42.45,11a19.75,19.75,0,0,1-4.36,8.72,20.89,20.89,0,0,0,9.21-5.83c4.16-4.17,6.67-11.65,5.93-15-.65-6.93-6.25-10.56-8.7-8.61S2578.14,1315.2,2578.35,1318.79Z" transform="translate(0 -216.13)"/><path class="cls-2" d="M2568.17,1494.63c-61.76,6.77-119.32,34-174.67,60.61-37.34,17.93-35.46,23-43,25.71a1.53,1.53,0,0,1-1.93-1,1.49,1.49,0,0,1,.06-1.1c2.92-5.8,10.6-9.74,15.94-13.06a210.68,210.68,0,0,1,19.29-10.55c14.1-6.84,28.56-13,42.92-19.23,29.22-12.71,58.94-24.66,89.82-32.74a315.64,315.64,0,0,1,51.59-9.2.25.25,0,0,1,.27.23.26.26,0,0,1-.23.28h0Z" transform="translate(0 -216.13)"/><path class="cls-2" d="M2512.5,1475.47c.4,2.54,3.05,9.89,1.42,17.16-1,7.17-6.21,14.24-6.24,13.9-.45,0,8.16-2.33,14-9.74,6.23-6.77,9.67-18.61,8.29-23.71-1.46-10.78-10.42-16-14.12-12.86S2511.94,1469.87,2512.5,1475.47Z" transform="translate(0 -216.13)"/><path class="cls-2" d="M2458.09,1495c.4,2.53,3,9.89,1.41,17.16-1,7.17-6.19,14.24-6.23,13.89-.45,0,8.15-2.33,14-9.74,6.24-6.77,9.68-18.62,8.3-23.72-1.47-10.77-10.42-16-14.13-12.86S2457.52,1489.36,2458.09,1495Z" transform="translate(0 -216.13)"/><path class="cls-2" d="M2402.8,1519.6c.4,2.53,3,9.89,1.41,17.16-1,7.17-6.2,14.25-6.23,13.89-.45,0,8.16-2.33,14-9.74,6.22-6.77,9.66-18.61,8.29-23.72-1.47-10.76-10.43-16-14.12-12.86S2402.23,1514,2402.8,1519.6Z" transform="translate(0 -216.13)"/><path class="cls-2" d="M2528.75,1526.32c-1.12-2.1-3.25-9-8.54-13.44-4.71-4.75-12.52-7-12.35-6.76-.32.27,7.31-2.83,15.72-.65,8.36,1.51,17.51,8.31,19.35,12.85,4.92,8.75,1.25,17.61-3.25,17.35S2531.45,1530.76,2528.75,1526.32Z" transform="translate(0 -216.13)"/><path class="cls-2" d="M2472.15,1546.35c-1.12-2.1-3.25-9-8.54-13.44-4.71-4.74-12.52-7-12.35-6.76-.32.27,7.31-2.83,15.72-.65,8.37,1.51,17.51,8.32,19.35,12.85,4.92,8.75,1.25,17.61-3.25,17.36S2474.86,1550.79,2472.15,1546.35Z" transform="translate(0 -216.13)"/><path class="cls-2" d="M2571.85,1505.69c-1-1.17-3.25-5.21-7.14-7.31a18.19,18.19,0,0,0-8.64-2.61,19.7,19.7,0,0,1,9.74-2.48c5.45-.16,12.09,2.9,13.85,5.51,4.25,4.87,3.11,10.89.26,11.32S2574.14,1508.12,2571.85,1505.69Z" transform="translate(0 -216.13)"/><path class="cls-2" d="M2565.32,1479.08c-.23,1.5,0,6.14-2.26,10a18.2,18.2,0,0,1-6,6.75,19.68,19.68,0,0,0,9.63-3c4.74-2.72,8.79-8.81,8.93-11.94,1.09-6.35-3-10.92-5.68-9.79S2566,1475.81,2565.32,1479.08Z" transform="translate(0 -216.13)"/><path class="cls-2" d="M445.21,1037c-84.82-75.64-128.43-184.24-150.08-262-23.5-84.43-26.93-151.86-26.95-152.54l-4.61-.28c0,.68,3.46,68.58,27.11,153.6C312.49,854.26,356.6,964,442.45,1040.54Z" transform="translate(0 -216.13)"/><path class="cls-2" d="M277.83,602.86c4.19,19.45.69,37.82-8.23,51.08-14-10.28-25-26.77-29.14-46.21s-.69-37.82,8.23-51.08C262.66,566.93,273.65,583.42,277.83,602.86Z" transform="translate(0 -216.13)"/><path class="cls-2" d="M251.82,658.24c14.61,13.59,23.16,31.46,24.81,48.64-16,.73-33.7-5.77-48.3-19.37s-23.16-31.45-24.82-48.65C219.56,638.13,237.2,644.65,251.82,658.24Z" transform="translate(0 -216.13)"/><path class="cls-2" d="M245,716.42a74.4,74.4,0,0,1,41.86,33.7c-13.17,8.47-30.82,10.9-49,5.21A74.41,74.41,0,0,1,196,721.62C209.14,713.15,226.8,710.72,245,716.42Z" transform="translate(0 -216.13)"/><path class="cls-2" d="M272.93,786.4c14.39,4.55,25.88,16.13,32.4,30.8-10.91,9.17-25.18,12.64-39.57,8.11s-25.89-16.13-32.41-30.8C244.26,785.34,258.55,781.87,272.93,786.4Z" transform="translate(0 -216.13)"/><path class="cls-2" d="M297.5,686.52a49.72,49.72,0,0,1,40.79-14.7,55.87,55.87,0,0,1-15.82,42.33,49.79,49.79,0,0,1-40.79,14.69A55.79,55.79,0,0,1,297.5,686.52Z" transform="translate(0 -216.13)"/><path class="cls-2" d="M310.62,736.68A49.71,49.71,0,0,1,351.4,722a55.73,55.73,0,0,1-15.75,42.32A49.76,49.76,0,0,1,294.86,779,55.72,55.72,0,0,1,310.62,736.68Z" transform="translate(0 -216.13)"/><path class="cls-4" d="M394.09,1139.54c-78.32-11.38-145.35-57.86-187.82-94.73-46.06-40.07-73.92-77.94-74.2-78.32l-2.79,1.61c.28.38,28.34,38.53,74.7,78.87,42.85,37.29,110.58,84.16,189.87,95.72Z" transform="translate(0 -216.13)"/><path class="cls-4" d="M130.21,951.42c9.9,9.7,14.91,21.72,14.82,32.85a54.34,54.34,0,0,1-34.68-15.68c-9.89-9.69-14.9-21.72-14.81-32.86A54.55,54.55,0,0,1,130.21,951.42Z" transform="translate(0 -216.13)"/><path class="cls-4" d="M136.34,993.59c13.72,2.3,25.53,9.4,33.09,18.76-9,6.58-21.82,9.57-35.51,7.27s-25.53-9.4-33.09-18.76C109.88,994.26,122.63,991.3,136.34,993.59Z" transform="translate(0 -216.13)"/><path class="cls-4" d="M154.68,1030a51.84,51.84,0,0,1,37.28,3.53c-4.42,10-13.75,18.16-26.5,21.82a51.92,51.92,0,0,1-37.27-3.53C132.65,1041.89,141.94,1033.7,154.68,1030Z" transform="translate(0 -216.13)"/><path class="cls-4" d="M197.79,1060c10.11-2.85,21.25-.55,30.66,5.46a28.67,28.67,0,0,1-19.92,19.92c-10.1,2.85-21.24.55-30.65-5.46A28.64,28.64,0,0,1,197.79,1060Z" transform="translate(0 -216.13)"/><path class="cls-4" d="M173.74,992.5a34.65,34.65,0,0,1,18.09-24.2A38.88,38.88,0,0,1,198.89,999a34.63,34.63,0,0,1-18.1,24.21A38.86,38.86,0,0,1,173.74,992.5Z" transform="translate(0 -216.13)"/><path class="cls-4" d="M200.62,1016.63a34.67,34.67,0,0,1,18.1-24.22,38.9,38.9,0,0,1,7,30.68,34.64,34.64,0,0,1-18.1,24.2A38.87,38.87,0,0,1,200.62,1016.63Z" transform="translate(0 -216.13)"/><path class="cls-5" d="M441.25,1374c-90.35,34.3-189.8,16.18-257.32-5.06-73.31-23.06-125.87-54.66-126.39-55l-2,3.79c.53.32,53.47,32.18,127.25,55.4,68.2,21.45,168.67,39.74,260.13,5Z" transform="translate(0 -216.13)"/><path class="cls-5" d="M46.42,1295.58a65.23,65.23,0,0,1,35.64,33.28c-13.23,6.77-30,7.78-46.42,1.42A65.25,65.25,0,0,1,0,1297C13.23,1290.22,30,1289.21,46.42,1295.58Z" transform="translate(0 -216.13)"/><path class="cls-5" d="M78.44,1346.38a57.77,57.77,0,0,1,46.62,3.6,55.52,55.52,0,0,1-33.44,31.68A57.86,57.86,0,0,1,45,1378.09,55.54,55.54,0,0,1,78.44,1346.38Z" transform="translate(0 -216.13)"/><path class="cls-5" d="M120,1382.13c11.38-12.73,26.76-19.08,41.85-18.79a60,60,0,0,1-15,44.87c-11.38,12.73-26.75,19.08-41.84,18.8A59.9,59.9,0,0,1,120,1382.13Z" transform="translate(0 -216.13)"/><path class="cls-5" d="M178.18,1400.58c11.39-12.72,26.75-19.07,41.85-18.78a60,60,0,0,1-15,44.87c-11.38,12.72-26.75,19.07-41.84,18.79A60,60,0,0,1,178.18,1400.58Z" transform="translate(0 -216.13)"/><path class="cls-5" d="M123.44,1341c-10-13-14.47-28.72-13.4-43,13.17,1.53,26.64,9.19,36.64,22.21s14.47,28.73,13.4,43C146.88,1361.64,133.44,1354,123.44,1341Z" transform="translate(0 -216.13)"/><path class="cls-5" d="M183.87,1359.86c-10.18-12.87-14.89-28.51-14.06-42.8,13.17,1.31,26.74,8.74,36.93,21.61s14.89,28.53,14.06,42.81C207.59,1380.17,194,1372.75,183.87,1359.86Z" transform="translate(0 -216.13)"/><path class="cls-5" d="M254.59,1405.63a22.56,22.56,0,0,1,14.23-13.44,25.79,25.79,0,0,1,.84,20.5,22.51,22.51,0,0,1-14.23,13.44A25.79,25.79,0,0,1,254.59,1405.63Z" transform="translate(0 -216.13)"/><path class="cls-2" d="M596.18,1578.59s115.11-455.32,76.94-501c-52.75-63.22-96.27,146.5-100.55,128.69C532.24,1038,521.5,822.78,391.39,800c-74-13,17.07,160,11.6,206.85s-138.69-108.57-219.67-190S60.52,787,111.69,889.35c49.47,99,209.53,207.12,176.54,219.95S54.94,994.35,30.41,1049C.34,1116,300.76,1207.14,272.5,1222.2s-171.89-34.52-168,16.7,197,49.33,193.66,71.86c-5.34,36.48-133-46.11-138.63,4.38-5.74,51.63,168,42.21,165,82.53-1.73,23.14-39-11.78-44.5,20.29C267.5,1491,496.49,1580.09,496.49,1580.09Z" transform="translate(0 -216.13)"/><path class="cls-4" d="M722.94,1581.35s-109.55-168-162.27-199.68c-56.17-33.79-13.41,67.35-13.41,67.35s-114.78-136.59-146.69-108.84-2.95,59.89-2.95,59.89-103-30.53-121.57,7.29c-28.46,58.16,141.18,106.36,141.18,106.36s-72.84-.78-59.43,38.46C378,1611.36,722.94,1581.35,722.94,1581.35Z" transform="translate(0 -216.13)"/><path class="cls-5" d="M276.05,1407.39c18.52-37.82,121.57-7.29,121.57-7.29s-29-32.14,2.95-59.89,123.73,55.3,123.73,55.3-9.62-68.51,59.52-8.16c49.39,43.11,139.12,194,139.12,194Z" transform="translate(0 -216.13)"/><path class="cls-6" d="M590,1159.62l4.91-3.36C504.08,1018.72,480.07,886,471.32,750c-7.74-120.18,5.85-209.51,6-210.4l-6.09-1.78c-.14.95-13.83,90.83-6.06,211.74C472.33,861.3,499.81,1023.1,590,1159.62Z" transform="translate(0 -216.13)"/><path class="cls-6" d="M494.86,518.6c.2,27.13-9.21,49.56-24.25,63a121,121,0,0,1-25.22-72.73c-.19-27.14,9.22-49.58,24.25-63A120.87,120.87,0,0,1,494.86,518.6Z" transform="translate(0 -216.13)"/><path class="cls-6" d="M446.55,579.59c15.18,24,21.45,50.93,19,74-20.87-5.94-41.88-22-57.09-46s-21.43-50.93-19-74C410.34,539.53,431.35,555.59,446.55,579.59Z" transform="translate(0 -216.13)"/><path class="cls-6" d="M422.18,652.46a118.79,118.79,0,0,1,45,61.9c-19.24,5.38-42.68.95-64.5-14.23a118.71,118.71,0,0,1-45-61.9C376.89,632.85,400.29,637.24,422.18,652.46Z" transform="translate(0 -216.13)"/><path class="cls-6" d="M450.72,779.69a49.55,49.55,0,0,1,20.52,24.66c-7.84,2.92-17.69,1.9-27.23-3.85a49.5,49.5,0,0,1-20.52-24.66C431.32,772.92,441.18,774,450.72,779.69Z" transform="translate(0 -216.13)"/><path class="cls-6" d="M458.48,826.81A49.55,49.55,0,0,1,479,851.48c-7.84,2.91-17.68,1.84-27.22-3.85A49.48,49.48,0,0,1,431.25,823C439,820.05,448.93,821.12,458.48,826.81Z" transform="translate(0 -216.13)"/><path class="cls-6" d="M497.86,636.05c17.63-10,38.25-9.89,56.54-1.63-3.07,20.37-14,38.38-31.68,48.38s-38.26,9.89-56.55,1.63C469.25,664.06,480.23,646,497.86,636.05Z" transform="translate(0 -216.13)"/><path class="cls-6" d="M501.39,707.05c17.63-10,38.25-9.89,56.54-1.63-3.06,20.37-14,38.38-31.68,48.38s-38.26,9.89-56.55,1.62C472.77,735.06,483.75,717,501.39,707.05Z" transform="translate(0 -216.13)"/><path class="cls-6" d="M497.86,808.66c11.48-6.5,24.9-6.43,36.8-1-2,13.28-9.14,25-20.62,31.48s-24.9,6.43-36.81,1C479.26,826.89,486.41,815.17,497.86,808.66Z" transform="translate(0 -216.13)"/><path class="cls-7" d="M2230.94,1135.46a18,18,0,0,1-18.2,17.75H1646a18,18,0,0,1-18.22-17.75h0A18,18,0,0,1,1646,1117.7h566.77a18,18,0,0,1,18.2,17.76Z" transform="translate(0 -216.13)"/><path class="cls-7" d="M2230.94,1443.32a18,18,0,0,1-18.2,17.75H1646a18,18,0,0,1-18.22-17.75h0a18,18,0,0,1,18.22-17.75h566.77a18,18,0,0,1,18.2,17.75Z" transform="translate(0 -216.13)"/><path class="cls-8" d="M1752.29,1485.11c0,18.51-15.39,33.53-34.41,33.53h0c-19,0-34.4-15-34.4-33.53V1111.68c0-18.52,15.4-33.55,34.4-33.55h0c19,0,34.41,15,34.41,33.55Z" transform="translate(0 -216.13)"/><path class="cls-9" d="M1752.29,1485.11V1111.68c0-18.52-15.39-33.54-34.41-33.55v440.51C1736.9,1518.63,1752.29,1503.62,1752.29,1485.11Z" transform="translate(0 -216.13)"/><path class="cls-8" d="M1838.32,1485.11c0,18.51-15.4,33.53-34.41,33.53h0c-19,0-34.41-15-34.41-33.53V1111.68c0-18.52,15.41-33.55,34.41-33.55h0c19,0,34.41,15,34.41,33.55Z" transform="translate(0 -216.13)"/><path class="cls-9" d="M1838.32,1485.11V1111.68c0-18.52-15.4-33.54-34.41-33.55v440.51C1822.92,1518.63,1838.32,1503.62,1838.32,1485.11Z" transform="translate(0 -216.13)"/><path class="cls-8" d="M1924.34,1485.11c0,18.51-15.39,33.53-34.41,33.53h0c-19,0-34.4-15-34.4-33.53V1111.68c0-18.52,15.4-33.55,34.4-33.55h0c19,0,34.41,15,34.41,33.55Z" transform="translate(0 -216.13)"/><path class="cls-9" d="M1924.34,1485.11V1111.68c0-18.52-15.39-33.54-34.4-33.55v440.51C1909,1518.63,1924.34,1503.62,1924.34,1485.11Z" transform="translate(0 -216.13)"/><path class="cls-8" d="M2010.37,1485.11c0,18.51-15.4,33.53-34.41,33.53h0c-19,0-34.41-15-34.41-33.53V1111.68c0-18.52,15.41-33.55,34.41-33.55h0c19,0,34.41,15,34.41,33.55Z" transform="translate(0 -216.13)"/><path class="cls-9" d="M2010.37,1485.11V1111.68c0-18.52-15.4-33.54-34.4-33.55v440.51C1995,1518.63,2010.37,1503.62,2010.37,1485.11Z" transform="translate(0 -216.13)"/><path class="cls-8" d="M2096.39,1485.11c0,18.51-15.39,33.53-34.41,33.53h0c-19,0-34.4-15-34.4-33.53V1111.68c0-18.52,15.41-33.55,34.4-33.55h0c19,0,34.41,15,34.41,33.55Z" transform="translate(0 -216.13)"/><path class="cls-9" d="M2096.39,1485.11V1111.68c0-18.52-15.39-33.54-34.41-33.55v440.51C2081,1518.63,2096.39,1503.62,2096.39,1485.11Z" transform="translate(0 -216.13)"/><path class="cls-8" d="M2182.41,1485.11c0,18.51-15.39,33.53-34.39,33.53h0c-19,0-34.42-15-34.42-33.53V1111.68c0-18.52,15.42-33.55,34.42-33.55h0c19,0,34.39,15,34.39,33.55Z" transform="translate(0 -216.13)"/><path class="cls-9" d="M2182.41,1485.11V1111.68c0-18.52-15.39-33.54-34.39-33.55v440.51C2167,1518.63,2182.41,1503.62,2182.41,1485.11Z" transform="translate(0 -216.13)"/><rect class="cls-7" x="2222.6" y="1223.84" width="25.09" height="7.16"/><rect class="cls-7" x="1610.86" y="1223.84" width="25.08" height="7.16"/><rect class="cls-8" x="2242.9" y="1188.37" width="9.57" height="114.14"/><path class="cls-8" d="M2265.21,1399.72a18.33,18.33,0,0,1-18.32,18.34h0a18.34,18.34,0,0,1-18.33-18.34V1372.3a18.32,18.32,0,0,1,18.33-18.3h0a18.31,18.31,0,0,1,18.32,18.3Z" transform="translate(0 -216.13)"/><rect class="cls-8" x="1602.5" y="1188.37" width="9.55" height="114.14"/><path class="cls-8" d="M1624.8,1399.72a18.33,18.33,0,0,1-18.32,18.34h0a18.34,18.34,0,0,1-18.33-18.34V1372.3a18.32,18.32,0,0,1,18.33-18.3h0a18.31,18.31,0,0,1,18.32,18.3Z" transform="translate(0 -216.13)"/><polygon class="cls-9" points="953.64 1365.91 929.07 1365.91 922.43 1300.99 960.28 1300.99 953.64 1365.91"/><polygon class="cls-9" points="819.47 1365.91 794.9 1365.91 788.26 1300.99 826.11 1300.99 819.47 1365.91"/><polygon class="cls-8" points="1062.74 1365.91 1038.17 1365.91 1031.53 1300.99 1069.38 1300.99 1062.74 1365.91"/><rect class="cls-8" x="931.08" y="403.12" width="4.52" height="223.52"/><rect class="cls-8" x="897.06" y="435.03" width="10.97" height="430.8"/><path class="cls-8" d="M984,1087c-38.94,0-70.5-8.45-70.5-18.88,0-1.92,1.08-3.78,3.08-5.53l-.34-.12H887.92l-.09,0c2.06,1.78,3.17,3.66,3.17,5.62,0,13.34-44.19,19-71.39,18.87h0V1091H985.72V1087l0,0Z" transform="translate(0 -216.13)"/><path class="cls-8" d="M861.38,422.31h90a0,0,0,0,1,0,0v2.88a13.2,13.2,0,0,1-13.2,13.2H874.59a13.2,13.2,0,0,1-13.2-13.2v-2.88A0,0,0,0,1,861.38,422.31Z"/><path class="cls-10" d="M1035.52,627.15c0,3.64-15.3,6.92-39.92,9.23-82.34,7.78-220.36,2.1-220.36-9.23,0-.45,85-157.07,85-157.07h90.22S1035.52,626.7,1035.52,627.15Z" transform="translate(0 -216.13)"/><path class="cls-8" d="M941.11,845.11c0,3.87-3.41,7-7.62,7s-7.62-3.14-7.62-7,3.41-7,7.62-7S941.11,841.24,941.11,845.11Z" transform="translate(0 -216.13)"/><rect class="cls-9" x="664.66" y="874.89" width="421.67" height="427.6"/><rect class="cls-8" x="964.05" y="874.89" width="122.28" height="427.6"/><rect class="cls-8" x="676.56" y="1014.96" width="287.89" height="7.37"/><rect class="cls-8" x="676.56" y="1133.27" width="287.89" height="7.37"/><path class="cls-10" d="M1834,1582l-7.27-235.72a19.73,19.73,0,0,0-13-18,19.49,19.49,0,0,0-6.82-1.21h-.63a19.83,19.83,0,0,0-19.19,20.42c0,.42,0,.93.1,1.4L1811,1582Z" transform="translate(0 -216.13)"/><path class="cls-10" d="M1982.51,1583l7.27-235.72a19.78,19.78,0,0,1,19.78-19.2h.63a19.79,19.79,0,0,1,19.18,20.41c0,.42,0,.94-.09,1.4L2005.5,1583Z" transform="translate(0 -216.13)"/><path class="cls-10" d="M2024.62,1369H1781.91a31.53,31.53,0,0,1-31.53-31.53h0a38.94,38.94,0,0,1,38.94-38.93h227.89a38.94,38.94,0,0,1,38.94,38.93h0A31.53,31.53,0,0,1,2024.62,1369Z" transform="translate(0 -216.13)"/><path class="cls-10" d="M2176.06,1582.05a7.28,7.28,0,0,0-6.95-6.33H2042.2a7.28,7.28,0,0,0-7,6.33Z" transform="translate(0 -216.13)"/><path class="cls-10" d="M2080.44,1575.83l-38.83-.1s7.62-15.24,21.26-22.61,37.2-7.21,37.2-7.21Z" transform="translate(0 -216.13)"/><path class="cls-11" d="M2108,1575.91s2.63-29.1-7.43-30-20.12,29.92-20.12,29.92Z" transform="translate(0 -216.13)"/><path class="cls-10" d="M2265.21,1582c-.45-14.94-13.8-26.94-30.21-26.94s-29.76,12-30.2,26.94Z" transform="translate(0 -216.13)"/><path class="cls-10" d="M2269,1582.08c-.3-3.58-1.71-6.29-3.42-6.29h-62.5c-1.71,0-3.12,2.71-3.42,6.29Z" transform="translate(0 -216.13)"/><path class="cls-8" d="M1151.08,749.7c28.61-4.07,55.23,6.66,75.33,27.39,46,47.47,10.52,77.87,25.66,140-8.47,9.42-18.94,16.84-32.59,20.48-64.47,18-136.84,7.87-185.57-41l-.77-.7c13.71-35.46,36.69-84.24,46.07-95.94C1097.36,777.36,1115.73,754.73,1151.08,749.7Z" transform="translate(0 -216.13)"/><path class="cls-12" d="M1147.85,881.5s-.28,1.46-.79,4c-2.41,11.95-10,47.52-16.23,58.41-7.59,13.16,17.16,72.4,49.47,67.28,9.62-1.53-5.46-31.84-2.21-46.52,1.84-8.3,7.41-34.15,11.91-55l6.27-29.19Z" transform="translate(0 -216.13)"/><path class="cls-13" d="M1147.06,885.45c-.23,1.15-.5,2.51-.82,4a56.26,56.26,0,0,0,13.71,15.9c9.76,7.84,19.5,11.09,28.59,11,.49-2.3,1-4.57,1.46-6.78l6.27-29.19-48.42,1.11S1147.57,883,1147.06,885.45Z" transform="translate(0 -216.13)"/><path class="cls-12" d="M1181.31,775.83a58.57,58.57,0,0,0-34,19.49c-14.31,17-29.73,69.48,5.81,98s70.66-3.77,75.86-38S1233.09,774.59,1181.31,775.83Z" transform="translate(0 -216.13)"/><path class="cls-12" d="M1234.41,854.92c-4.24,7.57-11.36,11.76-15.9,9.36s-4.79-10.48-.55-18,11.37-11.76,15.91-9.36S1238.65,847.35,1234.41,854.92Z" transform="translate(0 -216.13)"/><path class="cls-8" d="M1187.33,775S1156.83,825,1135,827.27s-24.68,28.84-24.68,28.84,7.8-61.13,29.4-72.92S1187.33,775,1187.33,775Z" transform="translate(0 -216.13)"/><path class="cls-12" d="M1142.15,839.17c1.78,8.86-1.79,17-8,18.16s-12.62-5.08-14.39-14,1.79-17,8-18.16S1140.38,830.3,1142.15,839.17Z" transform="translate(0 -216.13)"/><path class="cls-10" d="M957.77,985.37l6-3c35.47-18.12,78.41-3.11,96.06,33.57l130.55,271.36c16,33.27,52.54,50.08,87.09,40.09l238.56-69c32.2-9.32,65.51,10.58,73.88,44.13h0L1196.6,1436.2Z" transform="translate(0 -216.13)"/><path class="cls-14" d="M1877.33,1258.55s193.15-11.33,200.7.63-66,29-73,33.34c-59.21,37.2-53.86,14.3-67.07,11.15s-49.32-4.86-49.32-4.86Z" transform="translate(0 -216.13)"/><path class="cls-15" d="M1215.42,1338.36s7,13,13.58,16.18c24.37,11.79,71.56-6.11,71.56-6.11l296.84-68.56L1912,1300.75s10.73-38.45,5.53-54.18l-288.14-60.69-330.77,33.57Z" transform="translate(0 -216.13)"/><path class="cls-10" d="M1589.89,1307.86h0c-1.17-8.95-2.72-17.84-8.2-24.39-14.5-17.33-42-24.43-65.27-18l-283.73,87.54a7.88,7.88,0,0,1-7.19-1.34c-2.81-2.21-6.52-5-7.08-4.42-12.7,12-20,88.21-20,88.21l.38.69Z" transform="translate(0 -216.13)"/><path class="cls-16" d="M1840.17,1265.58s29.22,11.76,53.57,24.08c10.49,5.31,22.33,16.36,26.79,17.45,21,5.16,25.66-7.16,34.16-19.9,5.35-8,28.53-30.43,43.61-45.71,8.83-8.94,14.65-21.62,10.71-25.8-11.79-12.53-40.78,20-64.89,28.38-12.78,4.42-26.6.52-40.24-2.67-16.13-3.78-37.23-16.22-37.23-16.22Z" transform="translate(0 -216.13)"/><path class="cls-4" d="M1179.92,1466.86a27,27,0,0,1-24-14.72l-222.6-433.31a27.42,27.42,0,0,1,11.52-36.78,26.86,26.86,0,0,1,36.4,11.64L1203.85,1427a27.42,27.42,0,0,1-11.51,36.78A26.63,26.63,0,0,1,1179.92,1466.86Z" transform="translate(0 -216.13)"/><path class="cls-4" d="M1612,1313a28.3,28.3,0,0,0-35.12-19.19l-407.19,119.48,22.54,52.36,400.58-117.54A28.29,28.29,0,0,0,1612,1313Z" transform="translate(0 -216.13)"/><path class="cls-4" d="M1145.53,1582l55.1-134.68a23.53,23.53,0,0,0,.79-2.23,25.09,25.09,0,1,0-48-14.54L1108,1580.51c-.15.49-.28,1-.39,1.53Z" transform="translate(0 -216.13)"/><path class="cls-17" d="M1307.9,1217.88s200.43-114.05,279.79-123.86c30.16-3.74,315.82,143.7,315.82,143.7l-29.85,51.61s-174-44.21-227.37-65.94c-15.32-6.25-57.23-33.25-57.23-33.25Z" transform="translate(0 -216.13)"/><path class="cls-14" d="M1174.51,971.69s174,128.15,190.93,130.36c12.77,1.66,140.8-37.48,140.8-37.48l-24,47.83s-105,59.06-142.57,57.47c-44.07-1.86-147.44-89.08-147.44-89.08Z" transform="translate(0 -216.13)"/><path class="cls-18" d="M1316.05,1076.37s-40.75,58.64-41.73,74.36l-85.56-64.53-14.25-114.51Z" transform="translate(0 -216.13)"/><path class="cls-7" d="M1084.57,939.25s-21.09,57.8-12.6,127.63S1215.3,1350.6,1215.3,1350.6s28.5-4.42,50.14-29.85c9.08-10.69,42.46-102.87,42.46-102.87s-42.46-41.52-46.24-68.89-7.93-56.65-19.25-99.11S1125.15,920.38,1084.57,939.25Z" transform="translate(0 -216.13)"/><path class="cls-4" d="M1084.8,1266l378.91-22.85,29,40.41c4.19,195,5.06,270.43,5.24,298.54h36.8c2-31.42,6.2-109.83,14.39-305.33-.06,0-58.37-57.92-73.13-68.91l-393.09,1.56a28.32,28.32,0,1,0,1.9,56.58Z" transform="translate(0 -216.13)"/><path class="cls-12" d="M1221.41,1045.59l-61.73,92.24s-9.46-62-16.85-128.78c-28.66,3.89-54.19,11.58-79.1,25.45,12,65,51,173.65,86.49,186.76,27.64,10.2,79.07-125.4,79.07-125.4Z" transform="translate(0 -216.13)"/><path class="cls-18" d="M1143.31,986.22c-4.25-20.5-9.21-41.08-31.38-47.58-13.74-4-29.15-.18-40.13,8.82-13.06,10.71-16.71,27.88-16.65,44.13.14,36.9,11.53,72.89,22.83,108.77,24.91-13.88,47.72-9.57,76.39-13.46C1157,1054.06,1148.85,1013,1143.31,986.22Z" transform="translate(0 -216.13)"/><path class="cls-19" d="M1259.19,1084h10.4l-1.3-11.08h-9.1c-4.3,0-7.79-5-7.79-11.08v-11.07c0-6.11,3.49-11.08,7.79-11.08h11.69v-11.08h-11.69c-8.6,0-15.59,9.94-15.59,22.16v11.07C1243.6,1074,1250.59,1084,1259.19,1084Z" transform="translate(0 -216.13)"/><path class="cls-5" d="M1330.79,1026.9v52.81a22,22,0,0,1-22,22H1290a22,22,0,0,1-22-22V1020.2h62.76Z" transform="translate(0 -216.13)"/><path class="cls-12" d="M1250.61,1028.3c5.27-.13,17.19,6.83,18.65,12.69s-1.61,12.48-1.33,16.61c.25,3.7,1.18,9.61-.19,14.38-.38,1.33-7.28,9-8.14,11.88s-31.16,14-31.16,14l-7.45-52S1227.94,1028.85,1250.61,1028.3Z" transform="translate(0 -216.13)"/><path class="cls-11" d="M1407.33,947,1365,1125.69c-1,4.27.58,8.59,3.51,9.52l65.14,20.65L1473.29,997s-41.94-39.78-57.68-54.69C1412.7,939.56,1408.53,941.91,1407.33,947Z" transform="translate(0 -216.13)"/><path class="cls-20" d="M1374,1118.12l36.79-155.51c1.2-5.07,5.38-7.42,8.29-4.66l46,43.6-35.54,142.58-52-16.49C1374.53,1126.71,1372.94,1122.39,1374,1118.12Z" transform="translate(0 -216.13)"/><path class="cls-10" d="M1454.3,929.33l-87.44,219.59c-2,5.06-.1,10.23,4,10.78l95.71,12.9,70.48-173.28-71.63-74.5C1462.19,921.46,1456.52,923.76,1454.3,929.33Z" transform="translate(0 -216.13)"/><path class="cls-14" d="M1520.87,1062.36s.72-18.43-6.48-13.64-6.12,15.85-7.92,18.07-6.11,5.89-7.19,13.26-6.12,12.54-6.84,17.33a41.69,41.69,0,0,0-.36,8.85s23.39-3,24.11-12.91S1520.87,1062.36,1520.87,1062.36Z" transform="translate(0 -216.13)"/><path class="cls-4" d="M625.15,1466.47s112-83.14,127.36-119-16.3-31.79-16.3-31.79,45.23-64.08,33.22-85.26-37,5.87-37,5.87,21-86.7,2.74-91.52c-34-9-61.86,84.32-61.86,84.32s2.5-38.74-18.77-33.52c-32.08,7.87-15.11,91.27-15.11,91.27s-10.22-14.79-27.81-.72C580.08,1311.39,625.15,1466.47,625.15,1466.47Z" transform="translate(0 -216.13)"/><path class="cls-8" d="M606.89,1288.3c17.59-14.06,32.56-1.43,32.56-1.43s-17-83.4,15.11-91.27c21.27-5.22,18.77,33.52,18.77,33.52s27.88-93.3,61.86-84.32L624.31,1466.21C619.36,1446.13,577.41,1311.88,606.89,1288.3Z" transform="translate(0 -216.13)"/><path class="cls-5" d="M625.3,1463.58s114.79-.12,138.48-20-5.37-21.45-5.37-21.45,54.86-29.12,54.06-48.53-19.4-15.51-19.4-15.51,37.91-34,30.13-50.43c-12-25.3-66.19,22.68-66.19,22.68s4.15-19.24-12.67-23.26c-25.37-6.06-51.1,66-51.1,66s12.13-32.49-5.29-28.88C656.68,1350.72,625.3,1463.58,625.3,1463.58Z" transform="translate(0 -216.13)"/><path class="cls-4" d="M620.53,1470S518.65,1383,506.22,1348s17.44-29.25,17.44-29.25-39.15-63.72-26.44-83.14,34.83,7.83,34.83,7.83-14.71-83.76,2.94-87.24c32.88-6.49,53.75,84,53.75,84s0-37,19.89-30.76c30,9.43,8.84,87.75,8.84,87.75s11.08-29.28,27-14.83C672.93,1308.29,620.53,1470,620.53,1470Z" transform="translate(0 -216.13)"/><path class="cls-5" d="M648.08,1278.24c-18.41-11-27.56,3.67-27.56,3.67s18.15-63.05-11.89-72.48c-19.92-6.25-19.89,30.76-19.89,30.76s-20.87-90.47-53.75-84l86,312.52C626.92,1449.93,670,1291.4,648.08,1278.24Z" transform="translate(0 -216.13)"/><path class="cls-5" d="M610.27,1457.49s-111.91,0-127.48-1.77,1.63-15.7,1.63-15.7-34.82,1.27-40.13-7.2S453.2,1421,453.2,1421s-34.68-10-33-17.43c3.08-13.73,41.39-4.78,41.39-4.78s-14.23-6.9-8.45-13.32c8.72-9.69,46,16.64,46,16.64s-14-26.45-5.73-29.8C508.15,1366.31,610.27,1457.49,610.27,1457.49Z" transform="translate(0 -216.13)"/><path class="cls-15" d="M529.48,1583.47H715.75c23.72-21.67,38.18-51.52,37.65-84.25-.27-16.53-3.67-31-10.77-45.1l-240.15,2.7a106.93,106.93,0,0,0-9.94,46.7C493.05,1534.71,507.05,1562.83,529.48,1583.47Z" transform="translate(0 -216.13)"/><path class="cls-7" d="M1320,895.39c4.46-14.76-5.41-30.95-20.16-30.32a2.46,2.46,0,0,0-.17,4.9,13.36,13.36,0,0,1,11.67,10.2,17.42,17.42,0,0,1,.37,7.92c-.93,5-3.35,6.81-6.63,11.64l5.79,2.87c11,5.42,17.18,17.78,16.45,27.68-.63,8.51-1.84,13-7.79,20.3-8.45,9.46-19.5,9-20.73,9.24-6.12,1.6-10.49,5-11.52,11.11a77.18,77.18,0,0,0,1.34,21.83,2.67,2.67,0,0,0,5.16.08c1.75-8,1.75-8.57,3.25-20.64a.84.84,0,0,0,.08-.3.82.82,0,0,0,.12-.25c.26-.25.68-1.26,3.37-2a37.21,37.21,0,0,0,24.73-9.49C1344.78,943.27,1343.37,909.69,1320,895.39Zm-19,74.19h0C1301.12,969.56,1301.12,969.56,1301,969.58Z" transform="translate(0 -216.13)"/><path class="cls-20" d="M646.24,1088.8H770c11,0,19.86-9.59,19.86-21.42h0c0-11.83-8.89-21.41-19.86-21.41H646.24a34.84,34.84,0,0,1,.89,41.62Z" transform="translate(0 -216.13)"/><path class="cls-10" d="M788.18,1067.38h0c0-11.83-9-21.41-20.09-21.41H644a1.09,1.09,0,0,1-1-1.13h0a1.08,1.08,0,0,1,1-1.09H840.86c12.24,0,22.17,10.58,22.17,23.63h0c0,13.06-9.93,23.64-22.18,23.64H644a1.08,1.08,0,0,1-1-1.1h0a1.09,1.09,0,0,1,1-1.12h124.1C779.19,1088.8,788.18,1079.21,788.18,1067.38Z" transform="translate(0 -216.13)"/><rect class="cls-8" x="263.57" y="1366.6" width="2287.08" height="14.54"/></svg>