<svg id="Calque_1" data-name="Calque 1" xmlns="http://www.w3.org/2000/svg" viewBox="0 0 383.99 447.99"><defs><style>.cls-1{fill:#f5f3ee;}</style></defs><title>identifiant</title><path class="cls-1" d="M266.66,245.34A106.67,106.67,0,1,1,373.32,138.68,106.78,106.78,0,0,1,266.66,245.34Zm0-181.33a74.67,74.67,0,1,0,74.67,74.67A74.75,74.75,0,0,0,266.66,64Z" transform="translate(-74.67 -32.01)"/><path class="cls-1" d="M442.65,480h-352a16,16,0,0,1-16-16V389.34A101.45,101.45,0,0,1,176,288H357.32A101.45,101.45,0,0,1,458.65,389.34V464A16,16,0,0,1,442.65,480Zm-336-32h320V389.34A69.41,69.41,0,0,0,357.32,320H176a69.41,69.41,0,0,0-69.33,69.33Z" transform="translate(-74.67 -32.01)"/></svg>