<svg id="Calque_2" data-name="Calque 2" xmlns="http://www.w3.org/2000/svg" viewBox="0 0 384.79 472.38"><defs><style>.cls-1{fill:#ef8351;}.cls-2{fill:#fff;stroke:#fff;stroke-miterlimit:10;stroke-width:3px;}</style></defs><title>inscription-gratuite-poemop-blc</title><circle class="cls-1" cx="179.93" cy="115.88" r="21.78"/><path class="cls-2" d="M283.68,467.76c2.1-7.18,4.33-14.38,6.43-21.57,1.9-6.35,4.07-12.72,4.78-19.3a33.24,33.24,0,0,0-2.61-16.79,47.92,47.92,0,0,0-8.92-12.87c-7.31-8-16.22-14.68-22.77-23.43a38,38,0,0,1-6.94-14.48,43.48,43.48,0,0,1-.25-16.59c2.42-15,11.07-27.89,19.3-40.16a2.42,2.42,0,0,0-3.71-3.1c-7.81,11.61-15.73,23.5-19.23,37.2-3,11.59-2.51,24,3.33,34.64,5.33,9.61,14.07,16.8,21.83,24.41,7.3,7.11,14.56,15.31,15.17,25.9.45,7.3-2.07,14.39-4.06,21.16-2.36,8.1-4.86,16.22-7.22,24.32-.37,1.2.86,2.6,2,2.78A2.87,2.87,0,0,0,283.68,467.76Z" transform="translate(1 1)"/><path class="cls-2" d="M290.42,351.58a145.18,145.18,0,0,0,2-24.54,30.24,30.24,0,0,0-5.78-18.43,41.67,41.67,0,0,0-8.77-8.21c-3.39-2.58-7-5-10.37-7.65A150.36,150.36,0,0,1,250,276.6a103.3,103.3,0,0,1-14-18.86,69,69,0,0,1-4.83-10.21,19.45,19.45,0,0,1-1.37-9.83,10.37,10.37,0,0,1,4.26-6.77c2.53-1.66,5.33-1.09,7.87.4,3.11,1.85,5.65,4.85,8.27,7.3,3.08,3,6.24,6,9.38,8.84q19.33,18,40.23,34.37c1.7,1.29,3.41,2.72,5.1,4,2.44,1.91,5.54-1.8,3.1-3.71-14.3-10.94-28.12-22.62-41.44-34.75-3.36-3.06-6.66-6.2-10-9.33-3-2.89-5.89-5.93-9.08-8.6-2.82-2.36-6.15-4.26-9.86-4.34a12,12,0,0,0-9,4.23c-5,5.74-4.26,13.7-1.8,20.41a85,85,0,0,0,11.91,21,139.78,139.78,0,0,0,16.69,18.13c3.06,2.81,6.19,5.55,9.51,8.07,3.54,2.71,7.2,5.26,10.74,8a33.64,33.64,0,0,1,4.83,4,28.52,28.52,0,0,1,3.1,4A22.6,22.6,0,0,1,287,321.3a48.85,48.85,0,0,1,.44,10.94c-.11,4.2-.55,8.35-1,12.51-.23,2.08-.53,4.1-.89,6.19C285.08,353.88,289.9,354.71,290.42,351.58Z" transform="translate(1 1)"/><path class="cls-2" d="M287.72,270.42a25.47,25.47,0,0,1,18,3.33c6.52,3.82,11.46,9.83,15.39,16.14,1.29-.94,2.65-1.82,3.94-2.76-2.4-3.76-4.87-7.59-7.27-11.36a10,10,0,0,1-1-1.7,1,1,0,0,1-.41.79h.41a3.42,3.42,0,0,0,.9.12,58.62,58.62,0,0,1,6,1.25A55.34,55.34,0,0,1,344.56,287l3.09-3.71c-1.91-1.47-3.77-3-5.69-4.5-.28,1.4-.51,2.72-.72,4.18,9.86-2.59,21.21,1.48,27.68,9.27,3.93,4.8,5.61,10.48,6.5,16.51.92,6.44,1.42,12.78,1.73,19.2a250.43,250.43,0,0,1-8.26,76.93,238.22,238.22,0,0,1-15.12,40.88c-1.33,2.8,3,4.81,4.36,2a245.63,245.63,0,0,0,14.29-37.94,251.71,251.71,0,0,0,8-39.49,256.67,256.67,0,0,0,1.69-40.45c-.27-6.77-.82-13.66-1.71-20.44-.8-6.59-2.35-13.17-6.34-18.65a33.36,33.36,0,0,0-30-13.39c-1.42.2-2.91.47-4.32.8-1.81.5-2.06,3.07-.72,4.18,1.91,1.48,3.77,3,5.69,4.51,2.44,1.91,5.47-1.73,3.1-3.71a57.46,57.46,0,0,0-19.72-10.81c-3.6-1.12-7.49-2.35-11.2-2.43a4.65,4.65,0,0,0-4.57,2.6c-.73,1.78.05,3.57,1,5,2.5,4.11,5.19,8.12,7.83,12.21,1.68,2.66,5.68-.16,3.94-2.75-4.48-7-10.08-13.59-17.4-17.81-6.15-3.5-13.51-5.25-20.45-3.74a2.52,2.52,0,0,0-2.16,2.6C285.23,269.47,286.42,270.74,287.72,270.42Z" transform="translate(1 1)"/><path class="cls-2" d="M222,273H78.15C66.86,269.65,56.85,259.8,59,247.09c1.9-11.29,13.4-16.83,23.88-16.84H218.64c2.89,0,2.9-4.5,0-4.5H83c-13.18,0-26.89,7.63-28.56,21.72-1.76,14.82,9.72,26.43,23.23,30.06a2.19,2.19,0,0,0,1.34,0H222C224.92,277.48,224.93,273,222,273Z" transform="translate(1 1)"/><path class="cls-2" d="M297.42,234.8a22.36,22.36,0,0,0-19.26-10.07H252.29c-2.9,0-2.9,4.5,0,4.5h25.82c7.39-.22,13.6,3.93,16.92,10.44s3,13.68,2.64,20.68c-.13,2.89,4.37,2.89,4.5,0C302.58,251.53,302.55,242.38,297.42,234.8Z" transform="translate(1 1)"/><path class="cls-2" d="M357.34,23.35c-.25-6.21.8-12.85-4-17.7S341.34.28,334.86.56a2.74,2.74,0,0,0-.5.07H21.68a1.85,1.85,0,0,0-.47,0c-5.49-.31-9.73.7-13.79,4.9A23.17,23.17,0,0,0,.51,20.88a2.23,2.23,0,0,0,.14.85v280.6c0,2.89,4.5,2.9,4.5,0V21.14a2.05,2.05,0,0,0-.1-.65A18.54,18.54,0,0,1,10.62,8.71c3.47-3.61,7-3.9,11.81-3.43a2.14,2.14,0,0,0,1-.15H335.77a2.11,2.11,0,0,0,.75-.13c4.81-.12,10.11.23,13.63,3.84,3.7,3.79,2.49,9.71,2.69,14.51v.09a1.61,1.61,0,0,0,0,.31V265.88c0,2.89,4.5,2.9,4.5,0V23.72A2.29,2.29,0,0,0,357.34,23.35Z" transform="translate(1 1)"/><path class="cls-1" d="M90.68,250H86.33c1.2-1.41,2.37-2.84,3.55-4.23.93-1.1-.66-2.7-1.59-1.6-1.39,1.64-2.77,3.36-4.2,5,.07-1.95.15-3.89.16-5.77a1.13,1.13,0,0,0-2.25,0c0,1.39,0,2.81-.09,4.25-1.27-1.35-2.55-2.67-3.89-3.86-1.08-1-2.68.63-1.59,1.59,1.6,1.43,3.11,3,4.62,4.59H76.2a1.13,1.13,0,0,0,0,2.25h5A25.05,25.05,0,0,1,76,256.26a1.12,1.12,0,1,0,1.13,1.94,24.79,24.79,0,0,0,4.68-3.47,37.26,37.26,0,0,0,.39,4.48c.22,1.42,2.39.82,2.17-.6A37.74,37.74,0,0,1,84,253a33.92,33.92,0,0,0,5.6,4.61c1.23.77,2.36-1.18,1.14-2a29.07,29.07,0,0,1-4.36-3.46h4.28a1.13,1.13,0,0,0,0-2.22Z" transform="translate(1 1)"/><path class="cls-1" d="M122.83,250h-4.35c1.2-1.41,2.37-2.84,3.55-4.23.93-1.1-.65-2.7-1.59-1.6-1.39,1.64-2.76,3.36-4.2,5,.07-1.95.16-3.89.16-5.77a1.13,1.13,0,0,0-2.25,0c0,1.39,0,2.81-.09,4.25-1.27-1.35-2.55-2.67-3.89-3.86-1.08-1-2.68.63-1.59,1.59,1.6,1.43,3.11,3,4.62,4.59h-4.85a1.13,1.13,0,0,0,0,2.25h5a25.05,25.05,0,0,1-5.21,4.07,1.13,1.13,0,0,0,1.14,1.94,25.16,25.16,0,0,0,4.67-3.47,37.26,37.26,0,0,0,.39,4.48c.23,1.42,2.39.82,2.17-.6a37.74,37.74,0,0,1-.39-5.62,34,34,0,0,0,5.61,4.61c1.23.77,2.36-1.18,1.13-2a29.07,29.07,0,0,1-4.36-3.46h4.28a1.13,1.13,0,0,0,.93-1.3A1.14,1.14,0,0,0,122.83,250Z" transform="translate(1 1)"/><path class="cls-1" d="M154.66,250h-4.35c1.19-1.41,2.37-2.84,3.55-4.23.93-1.1-.66-2.7-1.6-1.6-1.38,1.64-2.76,3.36-4.19,5,.07-1.95.15-3.89.16-5.77a1.13,1.13,0,0,0-2.25,0c0,1.39,0,2.81-.09,4.25-1.28-1.35-2.55-2.67-3.89-3.86-1.08-1-2.68.63-1.6,1.59,1.6,1.43,3.11,3,4.63,4.59h-4.85a1.13,1.13,0,0,0,0,2.25h5a25.05,25.05,0,0,1-5.21,4.07,1.12,1.12,0,1,0,1.13,1.94,24.79,24.79,0,0,0,4.68-3.47,37.26,37.26,0,0,0,.39,4.48c.22,1.42,2.39.82,2.17-.6A37.74,37.74,0,0,1,148,253a33.92,33.92,0,0,0,5.6,4.61c1.23.77,2.36-1.18,1.14-2a29.07,29.07,0,0,1-4.36-3.46h4.28a1.12,1.12,0,0,0,1.13-1.11A1.11,1.11,0,0,0,154.66,250Z" transform="translate(1 1)"/><path class="cls-1" d="M186.82,250h-4.35c1.2-1.41,2.37-2.84,3.55-4.23.93-1.1-.65-2.7-1.59-1.6-1.39,1.64-2.76,3.36-4.2,5,.07-1.95.16-3.89.16-5.77a1.13,1.13,0,0,0-2.25,0c0,1.39,0,2.81-.09,4.25-1.27-1.35-2.55-2.67-3.89-3.86-1.08-1-2.68.63-1.59,1.59,1.6,1.43,3.11,3,4.62,4.59h-4.85a1.13,1.13,0,0,0,0,2.25h5.08a25.05,25.05,0,0,1-5.21,4.07,1.12,1.12,0,1,0,1.13,1.94,24.79,24.79,0,0,0,4.68-3.47,37.26,37.26,0,0,0,.39,4.48c.22,1.42,2.39.82,2.17-.6a37.74,37.74,0,0,1-.39-5.62,33.92,33.92,0,0,0,5.6,4.61c1.23.77,2.37-1.18,1.14-2a29.07,29.07,0,0,1-4.36-3.46h4.28a1.13,1.13,0,0,0,0-2.22Z" transform="translate(1 1)"/><path class="cls-1" d="M218.33,250H214c1.2-1.41,2.37-2.84,3.55-4.23.93-1.1-.65-2.7-1.59-1.6-1.39,1.64-2.76,3.36-4.2,5,.07-1.95.16-3.89.16-5.77a1.13,1.13,0,0,0-2.25,0c0,1.39,0,2.81-.09,4.25-1.27-1.35-2.55-2.67-3.89-3.86-1.08-1-2.68.63-1.59,1.59,1.6,1.43,3.11,3,4.62,4.59h-4.85a1.13,1.13,0,0,0,0,2.25h5.05a25.05,25.05,0,0,1-5.21,4.07,1.13,1.13,0,0,0,1.14,1.94,25.16,25.16,0,0,0,4.67-3.47,37.26,37.26,0,0,0,.39,4.48c.23,1.42,2.39.82,2.17-.6a37.74,37.74,0,0,1-.39-5.62,34,34,0,0,0,5.61,4.61c1.23.77,2.36-1.18,1.13-2a29.07,29.07,0,0,1-4.36-3.46h4.28a1.13,1.13,0,0,0,0-2.22Z" transform="translate(1 1)"/><path class="cls-2" d="M179.58,186.88a64,64,0,1,1,64-64A64,64,0,0,1,179.58,186.88Zm0-123a59,59,0,1,0,59,59A59,59,0,0,0,179.58,63.88Z" transform="translate(1 1)"/><path class="cls-2" d="M179.2,139.16a24.28,24.28,0,1,1,24.29-24.28A24.28,24.28,0,0,1,179.2,139.16Zm0-43.56a19.28,19.28,0,1,0,19.29,19.28A19.28,19.28,0,0,0,179.2,95.6Z" transform="translate(1 1)"/><path class="cls-2" d="M157.93,134c-9.5,5.49-18.85,11.35-24.36,21.14-1.42,2.52,2.47,4.79,3.89,2.27,5.11-9.08,13.94-14.44,22.74-19.52C162.71,136.46,160.42,132.57,157.93,134Z" transform="translate(1 1)"/><path class="cls-2" d="M200.77,134c9.5,5.49,18.84,11.35,24.35,21.14,1.43,2.52-2.46,4.79-3.88,2.27-5.11-9.08-13.94-14.44-22.74-19.52C196,136.46,198.25,132.57,200.77,134Z" transform="translate(1 1)"/><path class="cls-2" d="M246.76,317.72H30.83a2.33,2.33,0,0,0-.53-.07c-5.49-.13-11.47.36-16.89-.66-7.77-1.45-8.66-8-8.35-14.88.13-2.9-4.37-2.89-4.5,0-.31,6.71.36,14.18,7,17.69,6.26,3.32,15,2.28,21.92,2.34a2.25,2.25,0,0,0,.58.08h216.7C249.55,322.22,249.55,317.72,246.76,317.72Z" transform="translate(1 1)"/><path class="cls-2" d="M42.53,26.77c-.46-7.12-9-11.18-15.42-10.29a1.86,1.86,0,0,0-1.36.82,12.33,12.33,0,0,0-9,12C16.68,37.69,23.53,40.89,31,40.36,38.21,39.88,43,34,42.53,26.77Zm-10.17,9c-3.77.9-9.12.53-10.7-3.56-2-5.17,2.25-11.65,8-10.81a2.22,2.22,0,0,0,1.62-.34c3.27.75,6.71,3.16,6.8,6.33.1,3.71-1.85,7.4-5.72,8.33Z" transform="translate(1 1)"/><path class="cls-2" d="M74.1,26.77c-.46-7.12-9-11.18-15.42-10.29a1.81,1.81,0,0,0-1.36.82,12.32,12.32,0,0,0-9,12c-.07,8.39,6.78,11.59,14.25,11.06C69.77,39.88,74.56,34,74.1,26.77Zm-10.17,9c-3.78.9-9.13.53-10.71-3.56-2-5.17,2.26-11.65,8-10.81a2.26,2.26,0,0,0,1.62-.34c3.27.75,6.71,3.16,6.8,6.33.11,3.71-1.84,7.4-5.71,8.33Z" transform="translate(1 1)"/><path class="cls-2" d="M107.42,26.77c-.46-7.12-9-11.18-15.42-10.29a1.86,1.86,0,0,0-1.36.82,12.33,12.33,0,0,0-9,12c-.07,8.39,6.78,11.59,14.25,11.06C103.07,39.88,107.87,34,107.42,26.77Zm-10.17,9c-3.77.9-9.12.53-10.7-3.56-2-5.17,2.25-11.65,8-10.81a2.22,2.22,0,0,0,1.62-.34c3.27.75,6.71,3.16,6.8,6.33.08,3.71-1.87,7.4-5.74,8.33Z" transform="translate(1 1)"/><path class="cls-2" d="M367.78,409.57a130.85,130.85,0,0,1-32.89,18.23c-3.89,1.43-41.48,10.68-40.72,4.2.34-2.87-4.16-2.85-4.5,0-1.6,13.56,31,4.32,36.9,2.93,15.78-3.74,30.57-11.8,43.48-21.47C372.34,411.74,370.1,407.88,367.78,409.57Z" transform="translate(1 1)"/></svg>