<svg id="Calque_2" data-name="Calque 2" xmlns="http://www.w3.org/2000/svg" viewBox="0 0 382.8 470.38"><defs><style>.cls-1{fill:#ef8351;}.cls-2,.cls-5,.cls-6{fill:#11393b;}.cls-2,.cls-3{stroke:#0f393b;}.cls-2,.cls-3,.cls-4,.cls-5{stroke-miterlimit:10;}.cls-3,.cls-4{fill:#0f393b;}.cls-4{stroke:#000;}.cls-5{stroke:#11393b;}</style></defs><title>inscription</title><circle class="cls-1" cx="178.93" cy="114.88" r="21.78"/><path class="cls-2" d="M344.26,471.88c2.1-7.18,4.33-14.38,6.43-21.57,1.9-6.35,4.07-12.72,4.78-19.3a33.2,33.2,0,0,0-2.61-16.79,47.94,47.94,0,0,0-8.92-12.87c-7.31-8-16.22-14.68-22.77-23.43a38,38,0,0,1-6.94-14.48,43.49,43.49,0,0,1-.25-16.59c2.42-15,11.07-27.89,19.3-40.16a2.42,2.42,0,0,0-3.71-3.1c-7.81,11.61-15.73,23.5-19.23,37.2-3,11.59-2.51,24,3.33,34.64,5.33,9.61,14.07,16.8,21.83,24.41,7.3,7.11,14.56,15.31,15.17,25.9.45,7.3-2.07,14.39-4.06,21.16-2.36,8.1-4.86,16.22-7.22,24.32-.37,1.2.86,2.6,2,2.78A2.87,2.87,0,0,0,344.26,471.88Z" transform="translate(-60.58 -4.12)"/><path class="cls-2" d="M351,355.7a144.82,144.82,0,0,0,2-24.54,30.27,30.27,0,0,0-5.78-18.43,41.72,41.72,0,0,0-8.77-8.21c-3.39-2.58-7-5-10.37-7.65a150.56,150.56,0,0,1-17.51-16.15,103.49,103.49,0,0,1-14-18.86,69.15,69.15,0,0,1-4.83-10.21,19.48,19.48,0,0,1-1.37-9.83,10.37,10.37,0,0,1,4.26-6.77c2.53-1.66,5.33-1.09,7.87.4,3.11,1.85,5.65,4.85,8.27,7.3,3.08,2.95,6.24,6,9.38,8.84q19.34,18,40.23,34.37c1.7,1.29,3.41,2.72,5.1,4,2.44,1.91,5.54-1.8,3.1-3.71-14.3-10.94-28.12-22.62-41.44-34.75-3.36-3.06-6.66-6.2-10-9.33-3-2.89-5.89-5.93-9.08-8.6-2.82-2.36-6.15-4.26-9.86-4.34a12,12,0,0,0-9,4.23c-5,5.74-4.26,13.7-1.8,20.41a85.2,85.2,0,0,0,11.91,21A139.59,139.59,0,0,0,316,293c3.06,2.81,6.19,5.55,9.51,8.07,3.54,2.71,7.2,5.26,10.74,8a34,34,0,0,1,4.83,4,28.76,28.76,0,0,1,3.1,4,22.5,22.5,0,0,1,3.36,8.35,48.73,48.73,0,0,1,.44,10.94c-.11,4.2-.55,8.35-1,12.51-.23,2.08-.53,4.1-.89,6.19C345.66,358,350.48,358.83,351,355.7Z" transform="translate(-60.58 -4.12)"/><path class="cls-2" d="M348.3,274.54a25.44,25.44,0,0,1,18,3.33c6.52,3.82,11.46,9.83,15.39,16.14,1.29-.94,2.65-1.82,3.94-2.76-2.4-3.76-4.87-7.59-7.27-11.36a9.8,9.8,0,0,1-1-1.7,1,1,0,0,1-.41.79l.41,0a3.16,3.16,0,0,0,.9.12,58.44,58.44,0,0,1,6,1.25,55.27,55.27,0,0,1,20.88,10.77l3.09-3.71c-1.91-1.47-3.77-3-5.69-4.5-.28,1.4-.51,2.72-.72,4.18,9.86-2.59,21.21,1.48,27.68,9.27,3.93,4.8,5.61,10.48,6.5,16.51.92,6.44,1.42,12.78,1.73,19.2A250.43,250.43,0,0,1,429.47,409a238.13,238.13,0,0,1-15.12,40.88c-1.33,2.8,3,4.81,4.36,2A245.68,245.68,0,0,0,433,413.94a251.32,251.32,0,0,0,8-39.49A256.86,256.86,0,0,0,442.69,334c-.27-6.77-.82-13.66-1.71-20.44-.8-6.59-2.35-13.17-6.34-18.65a33.36,33.36,0,0,0-30-13.39c-1.42.2-2.91.47-4.32.8-1.81.5-2.06,3.07-.72,4.18,1.91,1.48,3.77,3,5.69,4.51,2.44,1.91,5.47-1.73,3.1-3.71a57.46,57.46,0,0,0-19.72-10.81c-3.6-1.12-7.49-2.35-11.2-2.43a4.65,4.65,0,0,0-4.57,2.6c-.73,1.78.05,3.57,1,5,2.5,4.11,5.19,8.12,7.83,12.21,1.68,2.66,5.68-.16,3.94-2.75-4.48-7-10.08-13.59-17.4-17.81-6.15-3.5-13.51-5.25-20.45-3.74a2.51,2.51,0,0,0-2.16,2.6C345.81,273.59,347,274.86,348.3,274.54Z" transform="translate(-60.58 -4.12)"/><path class="cls-3" d="M282.61,277.1H138.73c-11.29-3.33-21.3-13.18-19.17-25.89,1.9-11.29,13.4-16.83,23.88-16.84H279.22c2.89,0,2.9-4.5,0-4.5H143.72l-.15,0c-13.18,0-26.89,7.63-28.56,21.72-1.76,14.82,9.72,26.43,23.23,30.06a2.16,2.16,0,0,0,1.34,0h143C285.5,281.6,285.51,277.1,282.61,277.1Z" transform="translate(-60.58 -4.12)"/><path class="cls-4" d="M358,238.92a22.35,22.35,0,0,0-19.26-10.07h-.05l-.21,0H312.87c-2.9,0-2.9,4.5,0,4.5h25.59l.23,0c7.39-.22,13.6,3.93,16.92,10.44s3,13.68,2.64,20.68c-.13,2.89,4.37,2.89,4.5,0C363.16,255.65,363.13,246.5,358,238.92Z" transform="translate(-60.58 -4.12)"/><path class="cls-3" d="M417.92,27.47c-.25-6.21.8-12.85-4-17.7s-12-5.37-18.48-5.09a2.74,2.74,0,0,0-.5.07H82.26a2.34,2.34,0,0,0-.47,0C76.3,4.44,72.06,5.45,68,9.65A23.16,23.16,0,0,0,61.09,25a2.26,2.26,0,0,0,.14.85v280.6c0,2.89,4.5,2.9,4.5,0V25.26a2.21,2.21,0,0,0-.1-.65A18.55,18.55,0,0,1,71.2,12.83c3.47-3.61,7-3.9,11.81-3.43a2.1,2.1,0,0,0,1-.15H396.35a2.22,2.22,0,0,0,.75-.13c4.81-.12,10.11.23,13.63,3.84,3.7,3.79,2.49,9.71,2.69,14.51,0,0,0,.06,0,.09a3,3,0,0,0,0,.31V270c0,2.89,4.5,2.9,4.5,0V27.84A2.17,2.17,0,0,0,417.92,27.47Z" transform="translate(-60.58 -4.12)"/><path class="cls-1" d="M151.26,254.09h-4.35c1.2-1.41,2.37-2.84,3.55-4.23.93-1.1-.66-2.7-1.59-1.6-1.39,1.64-2.77,3.36-4.2,5,.07-1.95.15-3.89.16-5.77a1.13,1.13,0,0,0-2.25,0c0,1.39-.05,2.81-.09,4.25-1.27-1.35-2.55-2.67-3.89-3.86-1.08-1-2.68.63-1.59,1.59,1.6,1.43,3.11,3,4.62,4.59h-4.85a1.13,1.13,0,0,0,0,2.25h5.05a24.72,24.72,0,0,1-5.21,4.07,1.12,1.12,0,0,0,1.13,1.94,25,25,0,0,0,4.68-3.47,36.91,36.91,0,0,0,.39,4.48c.22,1.42,2.39.82,2.17-.6a38.63,38.63,0,0,1-.39-5.62,33.65,33.65,0,0,0,5.6,4.61c1.23.77,2.36-1.18,1.14-1.95a28.68,28.68,0,0,1-4.36-3.46h4.28A1.13,1.13,0,0,0,151.26,254.09Z" transform="translate(-60.58 -4.12)"/><path class="cls-1" d="M183.41,254.09h-4.35c1.2-1.41,2.37-2.84,3.55-4.23.93-1.1-.65-2.7-1.59-1.6-1.39,1.64-2.76,3.36-4.2,5,.07-1.95.16-3.89.16-5.77a1.13,1.13,0,0,0-2.25,0c0,1.39,0,2.81-.09,4.25-1.27-1.35-2.55-2.67-3.89-3.86-1.08-1-2.68.63-1.59,1.59,1.6,1.43,3.11,3,4.62,4.59h-4.85a1.13,1.13,0,0,0,0,2.25h5a24.72,24.72,0,0,1-5.21,4.07,1.13,1.13,0,0,0,1.14,1.94,25.27,25.27,0,0,0,4.67-3.47,36.91,36.91,0,0,0,.39,4.48c.23,1.42,2.39.82,2.17-.6a38.63,38.63,0,0,1-.39-5.62,34.13,34.13,0,0,0,5.61,4.61c1.23.77,2.36-1.18,1.13-1.95a28.68,28.68,0,0,1-4.36-3.46h4.28A1.13,1.13,0,0,0,183.41,254.09Z" transform="translate(-60.58 -4.12)"/><path class="cls-1" d="M215.24,254.09h-4.35c1.19-1.41,2.37-2.84,3.55-4.23.93-1.1-.66-2.7-1.6-1.6-1.38,1.64-2.76,3.36-4.19,5,.07-1.95.15-3.89.16-5.77a1.13,1.13,0,0,0-2.25,0c0,1.39-.05,2.81-.09,4.25-1.28-1.35-2.55-2.67-3.89-3.86-1.08-1-2.68.63-1.6,1.59,1.6,1.43,3.11,3,4.63,4.59h-4.85a1.13,1.13,0,0,0,0,2.25h5.05a25,25,0,0,1-5.21,4.07,1.12,1.12,0,0,0,1.13,1.94,25,25,0,0,0,4.68-3.47,36.91,36.91,0,0,0,.39,4.48c.22,1.42,2.39.82,2.17-.6a37.28,37.28,0,0,1-.39-5.62,33.65,33.65,0,0,0,5.6,4.61c1.23.77,2.36-1.18,1.14-1.95a28.68,28.68,0,0,1-4.36-3.46h4.28A1.13,1.13,0,0,0,215.24,254.09Z" transform="translate(-60.58 -4.12)"/><path class="cls-1" d="M247.4,254.09h-4.35c1.2-1.41,2.37-2.84,3.55-4.23.93-1.1-.65-2.7-1.59-1.6-1.39,1.64-2.76,3.36-4.2,5,.07-1.95.16-3.89.16-5.77a1.13,1.13,0,0,0-2.25,0c0,1.39,0,2.81-.09,4.25-1.27-1.35-2.55-2.67-3.89-3.86-1.08-1-2.68.63-1.59,1.59,1.6,1.43,3.11,3,4.62,4.59h-4.85a1.13,1.13,0,0,0,0,2.25H238a24.72,24.72,0,0,1-5.21,4.07,1.12,1.12,0,0,0,1.13,1.94,25,25,0,0,0,4.68-3.47,36.91,36.91,0,0,0,.39,4.48c.22,1.42,2.39.82,2.17-.6a38.63,38.63,0,0,1-.39-5.62,34.06,34.06,0,0,0,5.6,4.61c1.23.77,2.37-1.18,1.14-1.95a28.68,28.68,0,0,1-4.36-3.46h4.28A1.13,1.13,0,0,0,247.4,254.09Z" transform="translate(-60.58 -4.12)"/><path class="cls-1" d="M278.91,254.09h-4.35c1.2-1.41,2.37-2.84,3.55-4.23.93-1.1-.65-2.7-1.59-1.6-1.39,1.64-2.76,3.36-4.2,5,.07-1.95.16-3.89.16-5.77a1.13,1.13,0,0,0-2.25,0c0,1.39,0,2.81-.09,4.25-1.27-1.35-2.55-2.67-3.89-3.86-1.08-1-2.68.63-1.59,1.59,1.6,1.43,3.11,3,4.62,4.59h-4.85a1.13,1.13,0,0,0,0,2.25h5.05a24.72,24.72,0,0,1-5.21,4.07,1.13,1.13,0,0,0,1.14,1.94,25.27,25.27,0,0,0,4.67-3.47,36.91,36.91,0,0,0,.39,4.48c.23,1.42,2.39.82,2.17-.6a38.63,38.63,0,0,1-.39-5.62,34.13,34.13,0,0,0,5.61,4.61c1.23.77,2.36-1.18,1.13-1.95a28.68,28.68,0,0,1-4.36-3.46h4.28A1.13,1.13,0,0,0,278.91,254.09Z" transform="translate(-60.58 -4.12)"/><path class="cls-3" d="M240.16,191a64,64,0,1,1,64-64A64.07,64.07,0,0,1,240.16,191Zm0-123a59,59,0,1,0,59,59A59.06,59.06,0,0,0,240.16,68Z" transform="translate(-60.58 -4.12)"/><path class="cls-3" d="M239.78,143.28A24.28,24.28,0,1,1,264.07,119,24.3,24.3,0,0,1,239.78,143.28Zm0-43.56A19.28,19.28,0,1,0,259.07,119,19.3,19.3,0,0,0,239.78,99.72Z" transform="translate(-60.58 -4.12)"/><path class="cls-3" d="M218.51,138.14c-9.5,5.49-18.85,11.35-24.36,21.14-1.42,2.52,2.47,4.79,3.89,2.27,5.11-9.08,13.94-14.44,22.74-19.52C223.29,140.58,221,136.69,218.51,138.14Z" transform="translate(-60.58 -4.12)"/><path class="cls-3" d="M261.35,138.14c9.5,5.49,18.84,11.35,24.35,21.14,1.43,2.52-2.46,4.79-3.88,2.27-5.11-9.08-13.94-14.44-22.74-19.52C256.57,140.58,258.83,136.69,261.35,138.14Z" transform="translate(-60.58 -4.12)"/><path class="cls-5" d="M307.34,321.84H91.41a2.19,2.19,0,0,0-.53-.07c-5.49-.13-11.47.36-16.89-.66-7.77-1.45-8.66-8-8.35-14.88.13-2.9-4.37-2.89-4.5,0-.31,6.71.36,14.18,7,17.69,6.26,3.32,15,2.28,21.92,2.34a2.62,2.62,0,0,0,.58.08H307.34C310.13,326.34,310.13,321.84,307.34,321.84Z" transform="translate(-60.58 -4.12)"/><path class="cls-6" d="M103.11,30.89c-.46-7.12-9-11.18-15.42-10.29a1.84,1.84,0,0,0-1.36.82,12.33,12.33,0,0,0-9,12c-.07,8.39,6.78,11.59,14.25,11.06C98.79,44,103.58,38.09,103.11,30.89Zm-10.17,9c-3.77.9-9.12.53-10.7-3.56-2-5.17,2.25-11.65,8-10.81a2.25,2.25,0,0,0,1.62-.34c3.27.75,6.71,3.16,6.8,6.33C98.76,35.22,96.81,38.91,92.94,39.84Z" transform="translate(-60.58 -4.12)"/><path class="cls-6" d="M134.68,30.89c-.46-7.12-9-11.18-15.42-10.29a1.82,1.82,0,0,0-1.36.82,12.32,12.32,0,0,0-9,12c-.07,8.39,6.78,11.59,14.25,11.06C130.35,44,135.14,38.09,134.68,30.89Zm-10.17,9c-3.78.9-9.13.53-10.71-3.56-2-5.17,2.26-11.65,8-10.81a2.26,2.26,0,0,0,1.62-.34c3.27.75,6.71,3.16,6.8,6.33C130.33,35.22,128.38,38.91,124.51,39.84Z" transform="translate(-60.58 -4.12)"/><path class="cls-6" d="M168,30.89c-.46-7.12-9-11.18-15.42-10.29a1.84,1.84,0,0,0-1.36.82,12.33,12.33,0,0,0-9,12c-.07,8.39,6.78,11.59,14.25,11.06C163.65,44,168.45,38.09,168,30.89Zm-10.17,9c-3.77.9-9.12.53-10.7-3.56-2-5.17,2.25-11.65,8-10.81a2.25,2.25,0,0,0,1.62-.34c3.27.75,6.71,3.16,6.8,6.33C163.63,35.22,161.68,38.91,157.81,39.84Z" transform="translate(-60.58 -4.12)"/><path class="cls-2" d="M428.36,413.69a130.85,130.85,0,0,1-32.89,18.23c-3.89,1.43-41.48,10.68-40.72,4.2.34-2.87-4.16-2.85-4.5,0-1.6,13.56,31,4.32,36.9,2.93,15.78-3.74,30.57-11.8,43.48-21.47C432.92,415.86,430.68,412,428.36,413.69Z" transform="translate(-60.58 -4.12)"/></svg>