<svg id="Calque_1" data-name="Calque 1" xmlns="http://www.w3.org/2000/svg" viewBox="0 0 448.51 462.45"><defs><style>.cls-1{fill:#11393a;}.cls-2,.cls-3{fill:#ecca50;}.cls-3{stroke:#ecca50;stroke-miterlimit:10;}</style></defs><title>livraison-poemop</title><path class="cls-1" d="M364,248.45a6.69,6.69,0,0,0-3,3L325.76,322a4.86,4.86,0,0,1-9-3.5L327,282.71A6.63,6.63,0,0,0,317,275.3l-58.63,37.31a8.59,8.59,0,0,1-8.49.45,8.18,8.18,0,0,1-2.44-1.8,8.64,8.64,0,0,1,1.12-12.82l42.84-32.13A6.63,6.63,0,0,0,286,254.55l-69.34,16a10.11,10.11,0,0,1-12.21-7.88,10.18,10.18,0,0,1,7.81-11.9l76.62-16.42a6.63,6.63,0,0,0-.2-13l-55.18-10a11.07,11.07,0,0,1,2.9-21.93l63.8,5.31a6.57,6.57,0,0,0,6.32-3.32,6.67,6.67,0,0,0-.37-7.13l-25.38-35.52a9.14,9.14,0,0,1,13.46-12.2l41.91,36.68a6.69,6.69,0,0,0,6.83,1.17l60.29-24.12a6.43,6.43,0,0,0,3.59-8.37l-.49-1.24a5.48,5.48,0,0,0-7.13-3.05l-57.41,23-9.53-8.33L308.39,23.28h-.06A6.42,6.42,0,0,0,300.67,18L79.1,59a6.64,6.64,0,0,0-4.25,2.77L32.36,123.53a6.6,6.6,0,0,0-1.05,5L50.2,230.55,16.83,217.2a5.67,5.67,0,0,0-7.37,3.16L8.81,222a5.83,5.83,0,0,0,3.26,7.59l60.85,24.34a6.62,6.62,0,0,0,6.82-1.16l41.92-36.68a9.15,9.15,0,0,1,13.46,12.2l-25.37,35.52a6.61,6.61,0,0,0-.37,7.12,6.52,6.52,0,0,0,6.31,3.33l63.8-5.31a11.07,11.07,0,0,1,2.9,21.93l-55.18,10a6.63,6.63,0,0,0-.2,13l76.62,16.42a10.18,10.18,0,0,1,7.82,11.9,10.14,10.14,0,0,1-12.22,7.88l-69.34-16a6.62,6.62,0,0,0-5.46,11.75L167.27,378a8.64,8.64,0,0,1,2.54,10.76,8.64,8.64,0,0,1-12.35,3.42L98.82,354.84a6.63,6.63,0,0,0-9.49,8.55l13.26,26.51a8.2,8.2,0,0,1-11,11A8.45,8.45,0,0,1,87.84,397L54.8,331a6.69,6.69,0,0,0-3-3L18.1,311.12a6.76,6.76,0,0,0-9,3h0A6.52,6.52,0,0,0,12,322.88l32,16,32.15,64.3a21.3,21.3,0,0,0,12.4,10.76,21.46,21.46,0,0,0,26-29.95l-2.56-5.11,38.45,24.47a21.88,21.88,0,0,0,24.87-36L157.45,354l38.8,9a23.32,23.32,0,0,0,12.43-44.92l24.88-4.61c.21.55.38,1.11.64,1.66a21.88,21.88,0,0,0,31.32,8.67l43.91-27.94-5.44,19a18.08,18.08,0,0,0,11.69,22.16,17.72,17.72,0,0,0,5.67.93,18.2,18.2,0,0,0,16.26-10l34.32-68.64,31.54-15.77a7,7,0,0,0,3.12-9.38l-.36-.72a5.45,5.45,0,0,0-7.32-2.44ZM255.49,80.25,189.2,92.52l31.86-46.33,66.28-12.28ZM137.07,102.17l31.85-46.33,33.7-6.25L170.77,95.93Zm32.3,7.5,13.27,71.68-39.1,7.24L130.27,116.9ZM84.21,71.52l66.28-12.28-31.86,46.34L52.35,117.85Zm28.72,134.57-38.85,34-9.32-3.73L45.55,132.59l71.68-13.27,14.48,78.2a6.59,6.59,0,0,0,2.86,4.24,22.35,22.35,0,0,0-21.64,4.33Zm65.47,49.63-49.54,4.13,17-23.88a22.18,22.18,0,0,0-8.67-33.2,6.7,6.7,0,0,0,1,.17,6.36,6.36,0,0,0,1.22-.11l52.13-9.65a6.63,6.63,0,0,0,5.31-7.72L182.4,107.25,254.09,94,256,104.46a5.43,5.43,0,0,0,6.32,4.34l2.39-.44a5.39,5.39,0,0,0,4.33-6.29l-2.65-14.31,31.86-46.34,17.91,96.74-13.25-11.59a22.4,22.4,0,0,0-33,29.87L287,180.32l-49.54-4.12a24.32,24.32,0,0,0-26.34,23.13,23.92,23.92,0,0,0,2.61,12.12,24.3,24.3,0,0,0,17.36,12.92l22.25,4-43.9,9.41a23.42,23.42,0,0,0-18.22,20.37,24.32,24.32,0,0,0-12.83-2.47Zm54.12,44.46-57,10.55-13-2.8,22.25-4a24,24,0,0,0,19.8-22.07,23.14,23.14,0,0,0,15,1.65l38.8-9-17.76,13.32a22,22,0,0,0-8.12,12.35Z" transform="translate(41.18 47.42)"/><path class="cls-2" d="M333.86,406.82h0a6.62,6.62,0,0,0,6.62,6.63h0a46.48,46.48,0,0,0,45.77-38.77,6.61,6.61,0,0,0-6.55-7.63h0a6.66,6.66,0,0,0-6.54,5.59,33.19,33.19,0,0,1-32.67,27.55h0A6.62,6.62,0,0,0,333.86,406.82Z" transform="translate(41.18 47.42)"/><path class="cls-2" d="M320.6,380.31h0a6.63,6.63,0,0,0-6.63,6.63h0a6.62,6.62,0,0,0,6.63,6.62h0a46.46,46.46,0,0,0,45.82-39.11,6.31,6.31,0,0,0-6.25-7.28h0a7.14,7.14,0,0,0-7,5.95A33.19,33.19,0,0,1,320.6,380.31Z" transform="translate(41.18 47.42)"/><g id="Calque_3" data-name="Calque 3"><path class="cls-3" d="M14.3,86.81a155.47,155.47,0,0,1-46.74-7.32c-2.62-.83-5.25,1.33-5.88,3.77a5.2,5.2,0,0,0,3.77,5.9,165.39,165.39,0,0,0,49.27,7.6,5,5,0,0,0,4.68-5.28,4.72,4.72,0,0,0-4.76-4.65Z" transform="translate(41.18 47.42)"/><path class="cls-3" d="M9.52,98.89a166.89,166.89,0,0,1-44.77-7.6,7.32,7.32,0,0,1-5.31-8.4v-.2a7.9,7.9,0,0,1,3.72-4.8,6.43,6.43,0,0,1,5-.57,152.49,152.49,0,0,0,46,7.23h.41a7,7,0,0,1,7,6.92A7.28,7.28,0,0,1,14.81,99h-.16C13,99,11.25,99,9.52,98.89ZM-36.11,83.73A3,3,0,0,0-33.95,87a162.57,162.57,0,0,0,48.6,7.59,2.81,2.81,0,0,0,2.53-2.92,2.51,2.51,0,0,0-2.47-2.54h-.39A157.06,157.06,0,0,1-33.1,81.66a1.87,1.87,0,0,0-1.51.21A3.41,3.41,0,0,0-36.11,83.73Z" transform="translate(41.18 47.42)"/><path class="cls-3" d="M47.87,29.71C32.77,14.89,17.64-.22,2.56-15a4.91,4.91,0,0,0-6.93-.38A4.9,4.9,0,0,0-4.74-8.5h0A3.64,3.64,0,0,0-4.21-8l.36.33c15.1,14.85,30.21,29.9,45.31,44.75A4.9,4.9,0,1,0,48.28,30,2.69,2.69,0,0,0,47.87,29.71Z" transform="translate(41.18 47.42)"/><path class="cls-3" d="M44.61,40.71a7.1,7.1,0,0,1-4.74-2Q28.53,27.57,17.19,16.32T-5.37-6l-.44-.39a7.16,7.16,0,0,1-.46-10.1h0a7.16,7.16,0,0,1,10.1-.46h0l.28.27Q14.9-6,25.69,4.63,37.53,16.36,49.36,28a4.28,4.28,0,0,1,.45.4,7.15,7.15,0,0,1-5.2,12.29ZM-.75-14.18a2.68,2.68,0,0,0-2.71,2.63h0a2.67,2.67,0,0,0,.8,1.94l.21.17.19.16Q9.05,1.89,20.39,13.12T43.05,35.5a2.66,2.66,0,1,0,3.68-3.85h0l-.2-.17-.19-.17Q34.44,19.64,22.56,7.83L1.05-13.44A2.68,2.68,0,0,0-.75-14.18Z" transform="translate(41.18 47.42)"/><path class="cls-3" d="M100.33,10.81a200.3,200.3,0,0,1,4.33-49.74c1.36-6.24-8.3-8.16-9.64-1.92a219.91,219.91,0,0,0-4.56,52.38C90.69,17.89,100.57,17.15,100.33,10.81Z" transform="translate(41.18 47.42)"/><path class="cls-3" d="M94.93,18.17a7.54,7.54,0,0,1-3.25-.84,6.53,6.53,0,0,1-3.49-5.73,222.73,222.73,0,0,1,4.64-52.9,6.85,6.85,0,0,1,4.67-5.26A7.72,7.72,0,0,1,105-45a6.66,6.66,0,0,1,2,6.54,197.67,197.67,0,0,0-4.29,49.18h0A6.91,6.91,0,0,1,99.46,17,7.94,7.94,0,0,1,94.93,18.17Zm5-60.6a3.39,3.39,0,0,0-1,.13,2.39,2.39,0,0,0-1.56,1.93,217.36,217.36,0,0,0-4.6,51.82,2,2,0,0,0,1.08,1.91A3.37,3.37,0,0,0,97,13.18a2.4,2.4,0,0,0,1-2.29,201,201,0,0,1,4.38-50.3,2.21,2.21,0,0,0-.6-2.27,3.25,3.25,0,0,0-2-.75Z" transform="translate(41.18 47.42)"/></g></svg>