<svg id="Calque_1" data-name="Calque 1" xmlns="http://www.w3.org/2000/svg" viewBox="0 0 1187.19 207.64"><defs><style>.cls-1{fill:#ef8351;}.cls-2{fill:#f8f6f4;stroke:#f8f6f4;stroke-miterlimit:10;stroke-width:0.75px;}</style></defs><title>logo-plus-on-est-moins-on-paie-blc</title><path class="cls-1" d="M86.67,68.8C71.35,83,64,100.34,46.06,109.54c-14,7.18-15.63,23.57-10.88,38.45,4.67,14.64,21.92,25.42,38.07,24.67,16.35-.76,24.36-10.85,28.85-25.43,3.22-10.48,3.8-21.78,10.27-31.32,4.18-6.16,9.22-9.61,16.73-8,7.66,1.59,10.71,7.34,11.82,14.34,4.06,25.69-21,71.74-43.7,80.32-33.06,12.53-65.68,1.94-85.6-28.53-15.41-23.59-15.23-48.57-1-72.07C27,74.75,52.43,64,86.67,68.8Z" transform="translate(0 -31.25)"/><path class="cls-1" d="M113.65,203.23C129.79,190,134.71,172,153.11,163.57c12.9-5.91,18.3-21.61,12.07-37.47-7-17.79-21.11-26.82-40.11-25.88-17.1.85-23.52,12.46-27.47,26.51C94.92,136.25,93.35,146,88.66,155c-4.22,8.11-10.12,11.39-18.93,9.4-8.23-1.86-9.32-8.2-9.73-15.27-2.18-38.46,23.2-76.41,55.35-82.06,30.38-5.34,55.13,4.41,72.07,30,15.69,23.65,16.21,49.09,1.81,73.51C173.24,197.67,148.7,208.38,113.65,203.23Z" transform="translate(0 -31.25)"/><path class="cls-2" d="M1186.82,174.3c-1.18.1-2.37.31-3.55.31H219.85c-1,0-1.92,0-2.88,0s-1.06-.72-.76-1.78H238c.05-6.86,0-13.46,0-20.06V32.55h3.24q32.4,0,64.79,0c22.39,0,38.52,10.51,49.46,29.52a51.1,51.1,0,0,1,7.12,27.52c-.66,19.16-8.15,35-23.9,46.4a48.32,48.32,0,0,1-29,9.18H283.18v27.23c1.79.54,105.87.79,111.81.27.09-1-.79-1.48-1.33-2.07A84.4,84.4,0,0,1,374.39,137c-11.75-39.11,7.25-80.65,44.74-97.9,12-5.52,24.61-7.66,37.78-7.38,31.55.66,61.48,21,73.18,53,11.55,31.58,5.59,60.16-16.63,85.37q-.94,1.07-1.86,2.16s0,.14,0,.38h42.24V33.29l.39-.43c.06,0,.12-.13.19-.14a4.3,4.3,0,0,1,.94-.16H666.26a5,5,0,0,1,.94.11,2.09,2.09,0,0,1,.52.31v39H599.19V94.07c6.52.15,13,.05,19.4.07s13,0,19.43,0h19.37c.53,1.87.65,33.39.13,36.49h-58c-.54,2.09-.61,22.15-.09,24.9,11.65.16,23.38,0,35.1,0s23.34,0,35.25,0c.27,2.92.1,5.7.13,8.46s0,5.58,0,8.31c1.81.59,16.49.75,19.95.24.38-5.11.1-10.28.15-15.44s0-10.4,0-15.59V32.69c1.08-.06,1.93-.14,2.78-.14,14.56,0,29.12,0,43.68,0A3.31,3.31,0,0,1,740,34.79q15.93,35,32,70c.42.92.85,1.84,1.48,3.17.6-1.13,1-1.84,1.39-2.6l31.83-69a22.52,22.52,0,0,0,1-2.19,2.25,2.25,0,0,1,2.55-1.62c5.68.06,11.36,0,17,0H857a64.1,64.1,0,0,1,.21,8.71c0,3,0,5.92,0,8.87V172.31c1.94.59,39.23.74,42.62.2-.51-.62-.89-1.17-1.34-1.65a82,82,0,0,1-21.73-43.54c-4.36-26.69,2.93-50.08,21.26-69.81a78.86,78.86,0,0,1,48.23-25c46.72-6.42,81.44,23.72,91.08,60.27,7.61,28.87.75,54.52-18.88,76.87-.78.89-1.61,1.74-2.38,2.56.12.22.15.3.19.36s.11.15.17.15l41,.08a6.78,6.78,0,0,0,1.18-.25v-140h68.14c22.8,0,39,10.89,49.87,30.41a50.33,50.33,0,0,1,6.63,26.93c-.92,20.47-9.27,37-27,48.08a47.88,47.88,0,0,1-26,7.19h-26.49v27.56c1.07,0,2.08.08,3.1.08H1183c1.28,0,2.55,0,3.83.05ZM994.6,115c0-7.34-.74-13-2.62-18.38-4.22-12.12-12.09-20.51-24.83-23.76a37.85,37.85,0,0,0-15-.74C944,73.3,937,76.78,931.49,83.12a35.91,35.91,0,0,0-6.27,10.16,54.66,54.66,0,0,0-2.07,35,38.55,38.55,0,0,0,10.51,18.52c7.28,7,16.21,9.74,26.12,9.28,12.36-.58,22-6,28.39-16.81A49.67,49.67,0,0,0,994.6,115ZM490,113.42a53.7,53.7,0,0,0-1.6-13.07c-1.61-6.62-4.34-12.71-9.21-17.62a35.83,35.83,0,0,0-22.44-10.79c-11.23-1.12-21.06,1.91-29,10.17a36.55,36.55,0,0,0-8.38,14.39,54.45,54.45,0,0,0-.89,31.65,45,45,0,0,0,3.42,8.92c6.86,13.12,17.9,19.42,32.61,19,12.48-.33,22.29-5.66,28.81-16.52C488.19,131.52,489.8,122.64,490,113.42Zm245.11,59.22H812a12.07,12.07,0,0,0,.22-1.54q-.06-29.25-.14-58.49c0-.06-.08-.13-.14-.16s-.15,0-.41,0l-25.81,57H761.5c-2.19-4.81-4.34-9.53-6.48-14.25s-4.34-9.62-6.51-14.42-4.28-9.46-6.44-14.18a133.43,133.43,0,0,0-6.93-14Zm-452-66.91c.79,0,1.33.12,1.88.12,6.79,0,13.58-.13,20.36.05a11,11,0,0,0,10.4-7.7,32.53,32.53,0,0,0,.11-17.72,11.54,11.54,0,0,0-11.4-8.5q-9.59,0-19.17,0c-.69,0-1.38.1-2.18.16Zm820.67,0c.75.06,1.23.12,1.7.12,6.86,0,13.73-.12,20.6.05a10.88,10.88,0,0,0,10.19-7.31,31.68,31.68,0,0,0,.1-18.62,11.53,11.53,0,0,0-11.07-8c-6.47,0-12.93,0-19.4,0-.69,0-1.37.11-2.12.17Z" transform="translate(0 -31.25)"/><path class="cls-2" d="M701.22,237.52,686.82,206l-.51.12v31.41H682c0-.74-.14-1.43-.14-2.13q0-19.41,0-38.83c0-1.09-.23-2.27,1.3-2.68.23-.06.27-.78.33-1a15.15,15.15,0,0,1,2.29,1.39,5.34,5.34,0,0,1,1.37,1.82c3.06,6.68,6.08,13.37,9.11,20.07q2.67,5.88,5.33,11.78c.33.72.7,1.41,1.23,2.48.53-1.06.92-1.8,1.27-2.57l14.34-31.63c.46-1,.76-2,2.22-2.17.52,0,1-.94,1.37-1.39L724,195V237.5h-4.31c-.11-5.23,0-10.47,0-15.71s0-10.52,0-15.77l-.55-.18c-.36.73-.75,1.44-1.08,2.17l-12.52,27.46C704.36,237.89,704.36,237.89,701.22,237.52Z" transform="translate(0 -31.25)"/><path class="cls-2" d="M954.33,203.7v33.88H950v-43c2.72-.91,3.42-.71,4.91,1.36l21.81,30.4c.46.63,1,1.24,1.81,2.37a80,80,0,0,0,.2-8.73c0-2.87,0-5.75,0-8.63v-17h4.4v43c-2.88.82-3.5.62-5.1-1.61q-10.82-15.1-21.63-30.22c-.49-.7-1-1.37-1.54-2Z" transform="translate(0 -31.25)"/><path class="cls-2" d="M805.56,203.71v33.86h-4.3V194.63c2.6-.93,3.4-.72,4.88,1.34q10.85,15.1,21.66,30.2c.51.71,1,1.4,1.63,2.22.83-.82.55-1.73.55-2.53q0-14.27,0-28.53v-3h4.33v43c-2.8.89-3.39.71-5-1.56L808,206c-.59-.83-1.2-1.64-1.8-2.46Z" transform="translate(0 -31.25)"/><path class="cls-2" d="M485.65,203.66v33.86h-4.27V194.66c2.5-1,3.31-.77,4.81,1.32L508,226.37c.5.7,1,1.39,1.52,2a2.39,2.39,0,0,0,.37-.07c.06,0,.14-.1.14-.15V194.42h4.27V237.3c-2.4,1-3.32.78-4.76-1.24q-11-15.28-21.92-30.6c-.49-.67-1-1.33-1.51-2Z" transform="translate(0 -31.25)"/><path class="cls-2" d="M408,208.3h-4.12a7.13,7.13,0,0,1-.16-1.07c0-4.5-2.49-7.15-6.45-8.52A14.42,14.42,0,0,0,384.83,200c-4.1,2.42-4.29,7.53-.19,9.95,2.51,1.48,5.41,2.29,8.17,3.32,3.28,1.23,6.67,2.21,9.87,3.62a9.92,9.92,0,0,1,5.61,6.52c1.59,5.43-1,10.72-6.4,13.18a20.77,20.77,0,0,1-7.67,1.75,23.82,23.82,0,0,1-9.89-1.49c-4.82-1.86-7.69-5.3-8.31-10.48a25.15,25.15,0,0,1,0-2.76h4.21c.06.69.15,1.3.17,1.92a7.28,7.28,0,0,0,3.35,6c4.54,3.19,12.92,3.29,17.57.22a6.09,6.09,0,0,0,.66-10,10.61,10.61,0,0,0-3.07-1.82c-2.46-.93-5-1.65-7.49-2.5s-5.33-1.71-7.86-2.87c-3.85-1.76-6.19-4.76-6.27-9.14a9.92,9.92,0,0,1,5.94-9.64,19.65,19.65,0,0,1,18.23,0A12.31,12.31,0,0,1,408,208.3Z" transform="translate(0 -31.25)"/><path class="cls-2" d="M613.62,208.32h-3.85a4.25,4.25,0,0,1-.22-.79c-.24-4.72-2.35-7.59-6.88-9a14.69,14.69,0,0,0-12,1.34c-4.23,2.46-4.4,7.61-.17,10.07a47.34,47.34,0,0,0,8,3.22c2.4.86,4.91,1.43,7.28,2.35a19.6,19.6,0,0,1,4.6,2.52,10.38,10.38,0,0,1,1.09,15.76,14.91,14.91,0,0,1-5,3.15,23,23,0,0,1-17.29-.57,11.48,11.48,0,0,1-7.16-12.8h3.87c.06.66.12,1.27.18,1.88a7.48,7.48,0,0,0,4,6.41c5.54,2.84,11.21,3.1,16.72,0,4.33-2.44,4.54-8,.29-10.61-2.53-1.57-5.53-2.4-8.37-3.44s-5.76-1.87-8.6-2.91a11.57,11.57,0,0,1-2.9-1.65,10.15,10.15,0,0,1,.26-16.58c4-2.81,8.56-3.49,13.27-2.93a20.1,20.1,0,0,1,6.16,1.79C612.39,198.21,614.61,204.14,613.62,208.32Z" transform="translate(0 -31.25)"/><path class="cls-2" d="M844.81,223.59h4c.07.58.16,1,.17,1.49a7.57,7.57,0,0,0,4.49,7.1,17.4,17.4,0,0,0,15.49.17,6.22,6.22,0,0,0,4-5.76,6.09,6.09,0,0,0-3.8-5.89c-2.6-1.2-5.36-2-8.06-3-3-1.07-6.11-1.89-9-3.21a10.25,10.25,0,0,1-1.86-17.67c5.58-4.12,15.4-4.33,21.08-.38,4.07,2.83,5.83,6.77,5.48,11.88h-4a3.78,3.78,0,0,1-.24-.83c-.32-4.81-2.55-7.72-7.17-9a14.85,14.85,0,0,0-11.6,1.33c-4.37,2.46-4.61,7.7-.28,10.2a47.27,47.27,0,0,0,8,3.2c2.4.86,4.88,1.49,7.28,2.36a21.66,21.66,0,0,1,3.63,1.83,10.67,10.67,0,0,1,.16,18.06,19.52,19.52,0,0,1-10.73,2.87,23.52,23.52,0,0,1-9.58-1.83C846.91,234.25,844.16,229.53,844.81,223.59Z" transform="translate(0 -31.25)"/><path class="cls-2" d="M1139.71,233.35v4.22h-28.49v-43c1.7-.5,25.4-.64,28.15-.16.87,1.28.55,2.57,0,4.15h-23.39v14.55h20.7v4.34H1115.9c-.19,5.38-.12,10.51,0,15.86Z" transform="translate(0 -31.25)"/><path class="cls-2" d="M550.89,217.46v15.95h23.84v3.93c-1.81.48-25.07.6-28,.17-.5-1.72-.62-40.24-.13-42.95,1.76-.45,25.12-.56,28.08-.1v4.14H550.9v14.6h20.93v4.26Z" transform="translate(0 -31.25)"/><path class="cls-2" d="M938.67,216.69a28.32,28.32,0,0,1-1.17,10c-3.63,10.86-14,13.18-21.53,10.88a15.71,15.71,0,0,1-11.18-12.08,40.6,40.6,0,0,1-.08-18.54c2.87-12.47,14.89-15.34,23.31-12a15.41,15.41,0,0,1,8.3,7.58,20.76,20.76,0,0,1,2.34,9C938.7,213,938.67,214.52,938.67,216.69Zm-30.48-.59c.11,3.54.19,7,1.58,10.38a11.18,11.18,0,0,0,8.35,7.21c8.76,1.74,14.3-2.91,15.68-10.15a41.71,41.71,0,0,0,0-15,12.08,12.08,0,0,0-5.62-8.54c-6.41-4-17.23-1.91-19.27,8.28A75.57,75.57,0,0,0,908.19,216.1Z" transform="translate(0 -31.25)"/><path class="cls-2" d="M770.16,216.53c-.33,2.92-.34,5.93-1,8.76a17.08,17.08,0,0,1-26.78,9.84A16.15,16.15,0,0,1,735.9,225a44.8,44.8,0,0,1-.06-17.61c1.59-8,6.89-12.68,14.95-13.65a16.46,16.46,0,0,1,17.2,9.59C769.64,207.11,770.17,210.58,770.16,216.53Zm-4.44-.45-.24,0c0-1.67.11-3.36,0-5-.31-3.84-1.4-7.41-4.52-10a12.64,12.64,0,0,0-12.86-2.19c-4.76,1.66-7.31,5.31-8.05,10.16a46.39,46.39,0,0,0-.07,13.62,13.65,13.65,0,0,0,3.37,7.54c3.61,3.88,8.19,4.57,13,3.37s7.63-4.83,8.61-9.63A72.94,72.94,0,0,0,765.72,216.08Z" transform="translate(0 -31.25)"/><path class="cls-2" d="M470.2,216.25c-.33,3-.34,6.09-1.06,9A17.06,17.06,0,0,1,443,235.57a16.08,16.08,0,0,1-7-10.48,45.62,45.62,0,0,1-.09-17.62c1.45-7.4,6.45-12.25,13.25-13.45,10.75-1.91,19.61,4.81,20.65,15.73.21,2.14,0,4.31,0,6.47Zm-4.44-.33-.27,0c0-1.67.13-3.36,0-5-.51-5.35-2.63-9.67-7.93-11.86-6.2-2.58-16.07-.21-17.48,10.18a62.86,62.86,0,0,0-.3,11.48,20.59,20.59,0,0,0,1.61,6.45,10.31,10.31,0,0,0,7.1,6.3c8.82,2.41,15.07-2.26,16.54-9.65A75.57,75.57,0,0,0,465.76,215.92Z" transform="translate(0 -31.25)"/><path class="cls-2" d="M1083.3,237.63h-4.63l-4.77-11.95h-18.56c-.43,1-.92,2.07-1.35,3.16-.94,2.38-1.89,4.75-2.74,7.15a2.27,2.27,0,0,1-2.68,1.76,24.19,24.19,0,0,0-2.59,0c.23-.84.34-1.44.56-2,5.13-13.24,10.31-26.47,15.4-39.72a2.62,2.62,0,0,1,2.57-2,2.7,2.7,0,0,1,2.83,2c1.9,5,3.86,10,5.8,14.95q4.6,11.82,9.19,23.65C1082.67,235.51,1082.91,236.42,1083.3,237.63Zm-18.43-35.45-.5,0-7.36,19h15.19Z" transform="translate(0 -31.25)"/><path class="cls-2" d="M1019.78,220.59c-.4,5.9.25,11.4-.42,17h-3.9c-.46-1.75-.59-40-.15-43.12a3.6,3.6,0,0,1,.87-.23c5.59.06,11.2-.12,16.76.29s9.64,3.22,11.26,8.62c2.21,7.38-.72,15.73-10.65,17.08a96.88,96.88,0,0,1-10.52.36C1022,220.61,1021,220.59,1019.78,220.59Zm0-4.59c4.52,0,8.84.27,13.11-.09a7.67,7.67,0,0,0,7.19-5.78c1.62-5.62-1.73-10.77-7.73-11.31-4-.37-8.14-.1-12.21-.09-.12,0-.23.2-.47.43v15C1019.65,214.69,1019.71,215.24,1019.76,216Z" transform="translate(0 -31.25)"/><path class="cls-2" d="M261.26,237.53V194.58c.21-.1.42-.29.63-.29,5.83.06,11.67-.14,17.48.28a11.83,11.83,0,0,1,11.13,9.66c1.66,9-2.89,15.13-11.35,16.05-3.48.39-7,.23-10.53.31-.94,0-1.87,0-3.08,0v16.94ZM265.63,216c4.55,0,8.84,0,13.13,0a6.54,6.54,0,0,0,1.86-.44,8,8,0,0,0,5.85-7.84,8.17,8.17,0,0,0-5.57-8.31,15.07,15.07,0,0,0-4.21-.74c-3.11-.12-6.22-.06-9.33-.06-.54,0-1.07.13-1.73.21Z" transform="translate(0 -31.25)"/><path class="cls-2" d="M361.78,194.35H366c0,.94.11,1.78.11,2.63,0,8.47-.19,17,.05,25.41.28,9.59-5.73,16.29-16.62,15.9a20.09,20.09,0,0,1-5.86-1.07c-5.62-2-8.92-6.13-9.09-12-.29-10.06-.08-20.13-.08-30.19a2.81,2.81,0,0,1,.18-.64h4.11v2.71c0,8.63.06,17.26,0,25.89-.07,6.43,4,10.27,10.09,10.85a14.61,14.61,0,0,0,5-.4c5.25-1.35,7.92-4.85,7.94-10.25,0-8.71,0-17.41,0-26.12Z" transform="translate(0 -31.25)"/><path class="cls-2" d="M655.3,198.63H639.87v38.91h-4.4V198.67H620.3v-4.32h34.79a14.85,14.85,0,0,1,.21,1.5C655.33,196.64,655.3,197.43,655.3,198.63Z" transform="translate(0 -31.25)"/><path class="cls-2" d="M305.67,194.37v38.86a55.72,55.72,0,0,0,7.26.17c2.32,0,4.64,0,6.95,0h7.33v3.92c-1.72.49-22.38.64-25.68.16V194.37Z" transform="translate(0 -31.25)"/><path class="cls-2" d="M782.67,194.34h4v43.24h-3.89C782.31,235.85,782.18,197.54,782.67,194.34Z" transform="translate(0 -31.25)"/><path class="cls-2" d="M1096.63,237.57c-.83.07-1.45.15-2.08.15s-1.25-.08-2-.13V194.37l4.14-.19a24,24,0,0,1,.37,2.9q0,18.71,0,37.41A24.71,24.71,0,0,1,1096.63,237.57Z" transform="translate(0 -31.25)"/></svg>