<svg id="Calque_1" data-name="Calque 1" xmlns="http://www.w3.org/2000/svg" xmlns:xlink="http://www.w3.org/1999/xlink" viewBox="0 0 1190.11 252.15"><defs><style>.cls-1,.cls-6{fill:none;}.cls-2{clip-path:url(#clip-path);}.cls-3{font-size:227.74px;font-family:Raleway-Black, Raleway;font-weight:800;}.cls-15,.cls-3,.cls-4,.cls-5,.cls-7{fill:#0f393a;}.cls-15,.cls-4,.cls-6{stroke:#0f393a;stroke-miterlimit:10;}.cls-4{stroke-width:0.75px;}.cls-6{stroke-width:2px;}.cls-7{font-size:57.3px;font-family:Roboto-Thin, Roboto;font-weight:200;letter-spacing:0.08em;}.cls-8{letter-spacing:0.05em;}.cls-9{letter-spacing:0.07em;}.cls-10{letter-spacing:0.07em;}.cls-11{letter-spacing:0.05em;}.cls-12{letter-spacing:0.07em;}.cls-13{letter-spacing:0.01em;}.cls-14{letter-spacing:0em;}.cls-15{stroke-width:3px;}.cls-16{fill:#ef8351;}</style><clipPath id="clip-path" transform="translate(-88 -255.46)"><rect class="cls-1" x="307.01" y="276.23" width="970.99" height="152.28"/></clipPath></defs><title>logo-plus-on-est-moins-on-paie3</title><g class="cls-2"><text class="cls-3" transform="translate(227.45 194.72)">POEMOP</text><path class="cls-4" d="M329.34,450.18V288.48H399a49,49,0,0,1,21.86,4.9,56.64,56.64,0,0,1,17.2,12.75,59.64,59.64,0,0,1,11.27,18,54,54,0,0,1,4.1,20.39,59.31,59.31,0,0,1-14.69,38.83,51.6,51.6,0,0,1-16.85,12.52,50.3,50.3,0,0,1-21.75,4.67H373.75v49.65Zm44.41-88.37h23.46q4.1,0,7.63-3.75t3.53-13.55q0-10-4.1-13.67c-2.73-2.43-5.47-3.64-8.2-3.64H373.75Z" transform="translate(-88 -255.46)"/><path class="cls-4" d="M544.1,451.55a77.88,77.88,0,0,1-33.48-7.06,82.78,82.78,0,0,1-25.73-18.57,84,84,0,0,1-16.63-26.3,81.41,81.41,0,0,1-5.92-30.52,79.39,79.39,0,0,1,6.15-30.74,81.75,81.75,0,0,1,17.19-26.08,83.85,83.85,0,0,1,26.2-18A80.74,80.74,0,0,1,545,287.57a77.88,77.88,0,0,1,33.48,7.06,82,82,0,0,1,25.74,18.68,83.89,83.89,0,0,1,16.51,26.41,82.32,82.32,0,0,1,5.8,30.29,78.6,78.6,0,0,1-6.14,30.64,83,83,0,0,1-17.09,26,84,84,0,0,1-26.07,18.1A79.61,79.61,0,0,1,544.1,451.55Zm-36.67-82a55,55,0,0,0,2.28,15.83,41.47,41.47,0,0,0,6.83,13.55A34.4,34.4,0,0,0,528,408.5a38.91,38.91,0,0,0,33.14-.11,33.7,33.7,0,0,0,11.5-9.79,42.42,42.42,0,0,0,6.61-13.78,58.22,58.22,0,0,0,2.16-15.72,55,55,0,0,0-2.28-15.83,39.06,39.06,0,0,0-6.94-13.43,37.51,37.51,0,0,0-44.41-9.23,33.85,33.85,0,0,0-11.5,9.68A41,41,0,0,0,509.6,354,56.66,56.66,0,0,0,507.43,369.56Z" transform="translate(-88 -255.46)"/><path class="cls-4" d="M760.69,411.46v38.72H645.45V288.48H758.64V327.2H689.86V350h58.76v36H689.86v25.5Z" transform="translate(-88 -255.46)"/><path class="cls-4" d="M903.71,450.18V365L876.6,424.9H852.92L825.82,365v85.18H781.41V288.48h48.51l34.84,76.07,35.07-76.07h48.29v161.7Z" transform="translate(-88 -255.46)"/><path class="cls-4" d="M1048.78,451.55a77.88,77.88,0,0,1-33.48-7.06,82.71,82.71,0,0,1-42.36-44.87A81.41,81.41,0,0,1,967,369.1a79.39,79.39,0,0,1,6.15-30.74,81.42,81.42,0,0,1,17.19-26.08,83.69,83.69,0,0,1,26.19-18,80.79,80.79,0,0,1,33.14-6.72,77.88,77.88,0,0,1,33.48,7.06,81.93,81.93,0,0,1,25.73,18.68,83.72,83.72,0,0,1,16.51,26.41,82.33,82.33,0,0,1,5.81,30.29,78.61,78.61,0,0,1-6.15,30.64,83,83,0,0,1-17.08,26,84,84,0,0,1-26.08,18.1A79.56,79.56,0,0,1,1048.78,451.55Zm-36.67-82a55,55,0,0,0,2.28,15.83,41.28,41.28,0,0,0,6.83,13.55,34.3,34.3,0,0,0,11.5,9.56,38.91,38.91,0,0,0,33.14-.11,33.8,33.8,0,0,0,11.5-9.79,42.19,42.19,0,0,0,6.6-13.78,58.23,58.23,0,0,0,2.17-15.72,55,55,0,0,0-2.28-15.83,39.08,39.08,0,0,0-6.95-13.43,35.15,35.15,0,0,0-11.61-9.34,39.31,39.31,0,0,0-32.8.11,34,34,0,0,0-11.5,9.68,41,41,0,0,0-6.72,13.67A57,57,0,0,0,1012.11,369.56Z" transform="translate(-88 -255.46)"/><path class="cls-4" d="M1150.12,450.18V288.48h69.69a49.09,49.09,0,0,1,21.87,4.9,56.59,56.59,0,0,1,17.19,12.75,59.64,59.64,0,0,1,11.27,18,53.86,53.86,0,0,1,4.1,20.39,59.31,59.31,0,0,1-14.69,38.83,51.49,51.49,0,0,1-16.85,12.52,50.27,50.27,0,0,1-21.75,4.67h-26.42v49.65Zm44.41-88.37H1218q4.1,0,7.63-3.75t3.53-13.55q0-10-4.1-13.67c-2.73-2.43-5.47-3.64-8.2-3.64h-22.32Z" transform="translate(-88 -255.46)"/></g><line class="cls-5" x1="218.99" y1="173.89" x2="1190" y2="173.89"/><line class="cls-6" x1="218.99" y1="173.89" x2="1190" y2="173.89"/><text class="cls-7" transform="translate(259.81 236.62) scale(1.04 1)">P<tspan class="cls-8" x="38.71" y="0">L</tspan><tspan class="cls-9" x="71.04" y="0">US</tspan><tspan class="cls-10" x="151.71" y="0" xml:space="preserve"> O</tspan><tspan class="cls-9" x="212.07" y="0">N</tspan><tspan class="cls-10" x="256.91" y="0"> </tspan><tspan x="274.87" y="0">ES</tspan><tspan class="cls-11" x="349.97" y="0">T</tspan><tspan x="387.37" y="0"> </tspan><tspan class="cls-12" x="405.38" y="0">M</tspan><tspan x="458.76" y="0">O</tspan><tspan class="cls-10" x="501.22" y="0">IN</tspan><tspan x="565.19" y="0">S </tspan><tspan class="cls-10" x="621.38" y="0">O</tspan><tspan class="cls-9" x="663.78" y="0">N</tspan><tspan class="cls-10" x="708.63" y="0"> </tspan><tspan class="cls-13" x="726.58" y="0">P</tspan><tspan x="761.39" y="0">A</tspan><tspan class="cls-10" x="799.91" y="0">I</tspan><tspan class="cls-14" x="819.09" y="0">E</tspan></text><path class="cls-15" d="M355.18,474.87v17.21h-1.56V451.33h13.21q6.48,0,10.06,3.15a11,11,0,0,1,3.59,8.75q0,5.53-3.5,8.56t-10,3.08Zm0-1.51h11.65q5.71,0,8.9-2.66a9.14,9.14,0,0,0,3.18-7.42,9.63,9.63,0,0,0-3.18-7.68c-2.12-1.84-5.09-2.75-8.9-2.75H355.18Z" transform="translate(-88 -255.46)"/><path class="cls-15" d="M395.39,490.56h21.7v1.52H393.8V451.33h1.59Z" transform="translate(-88 -255.46)"/><path class="cls-15" d="M455.81,451.33v27.59q0,6.46-3.9,10.09t-10.54,3.62q-6.64,0-10.54-3.62t-3.92-10V451.33h1.57v27.54a11.63,11.63,0,0,0,3.53,8.95,14.91,14.91,0,0,0,18.71,0,11.7,11.7,0,0,0,3.52-9V451.33Z" transform="translate(-88 -255.46)"/><path class="cls-15" d="M496.77,482.31a7.47,7.47,0,0,0-1.27-4.41,10.65,10.65,0,0,0-4-3.19,44.18,44.18,0,0,0-8.21-2.84,40.05,40.05,0,0,1-8.23-2.93,10.72,10.72,0,0,1-4-3.45,8.9,8.9,0,0,1,2.61-12c2.6-1.84,6-2.75,10.14-2.75a16.88,16.88,0,0,1,7.3,1.52,11.72,11.72,0,0,1,5,4.28,11.28,11.28,0,0,1,1.77,6.23h-1.57a9.49,9.49,0,0,0-3.48-7.54,13.41,13.41,0,0,0-9-3,15.44,15.44,0,0,0-9,2.39,7.1,7.1,0,0,0-3.44,6,7,7,0,0,0,3,5.9q3,2.25,9.87,4t10.08,4a9,9,0,0,1,4.07,7.72,8.75,8.75,0,0,1-1.8,5.45,11.57,11.57,0,0,1-5.12,3.65,20.28,20.28,0,0,1-7.43,1.28,22,22,0,0,1-8.25-1.46,11.67,11.67,0,0,1-5.5-4.19,11.1,11.1,0,0,1-1.84-6.4H470a9,9,0,0,0,3.89,7.77q3.9,2.77,10.14,2.77a15.94,15.94,0,0,0,9.15-2.44A7.43,7.43,0,0,0,496.77,482.31Z" transform="translate(-88 -255.46)"/><path class="cls-15" d="M559.64,474.75a21.26,21.26,0,0,1-2,9.36,14.55,14.55,0,0,1-5.59,6.3,15.68,15.68,0,0,1-8.36,2.22,14.85,14.85,0,0,1-11.56-4.89q-4.41-4.9-4.41-13.21v-5.87a21.3,21.3,0,0,1,2-9.35,14.59,14.59,0,0,1,5.6-6.31,16.87,16.87,0,0,1,16.73,0,14.67,14.67,0,0,1,5.62,6.32,21.24,21.24,0,0,1,2,9.34Zm-1.56-6.15q0-7.39-3.89-11.85a14.55,14.55,0,0,0-20.94,0q-3.9,4.44-3.89,12.07v6a20,20,0,0,0,1.75,8.61,13.12,13.12,0,0,0,5,5.75,14.2,14.2,0,0,0,7.61,2,13.15,13.15,0,0,0,10.48-4.45q3.87-4.44,3.87-12.14Z" transform="translate(-88 -255.46)"/><path class="cls-15" d="M604.18,492.08h-1.57l-27.3-38.17v38.17h-1.59V451.33h1.59l27.3,38.09V451.33h1.57Z" transform="translate(-88 -255.46)"/><path class="cls-15" d="M661.65,471.87h-21.2v18.69h24.17v1.52H638.89V451.33h25.73v1.52H640.45v17.51h21.2Z" transform="translate(-88 -255.46)"/><path class="cls-15" d="M702.53,482.31a7.54,7.54,0,0,0-1.26-4.41,10.77,10.77,0,0,0-4-3.19,44.18,44.18,0,0,0-8.21-2.84,40.28,40.28,0,0,1-8.23-2.93,10.72,10.72,0,0,1-4-3.45,8.9,8.9,0,0,1,2.61-12q3.9-2.76,10.14-2.75a16.88,16.88,0,0,1,7.3,1.52,11.72,11.72,0,0,1,5,4.28,11.28,11.28,0,0,1,1.77,6.23h-1.57a9.49,9.49,0,0,0-3.48-7.54,13.38,13.38,0,0,0-9-3,15.46,15.46,0,0,0-9,2.39,7.1,7.1,0,0,0-3.44,6,7,7,0,0,0,3,5.9q3,2.25,9.88,4t10.07,4a9,9,0,0,1,4.07,7.72,8.75,8.75,0,0,1-1.8,5.45,11.53,11.53,0,0,1-5.11,3.65,20.38,20.38,0,0,1-7.44,1.28,22,22,0,0,1-8.25-1.46A11.67,11.67,0,0,1,676,487a11.1,11.1,0,0,1-1.84-6.4h1.57a9,9,0,0,0,3.89,7.77q3.89,2.77,10.13,2.77a15.94,15.94,0,0,0,9.15-2.44A7.43,7.43,0,0,0,702.53,482.31Z" transform="translate(-88 -255.46)"/><path class="cls-15" d="M745,452.85H729.58v39.23H728V452.85H712.63v-1.52H745Z" transform="translate(-88 -255.46)"/><path class="cls-15" d="M776.58,451.33,794,489.86l17.45-38.53h2.3v40.75h-1.57V453.57l-17.54,38.51h-1.25l-17.45-38.31v38.31h-1.57V451.33Z" transform="translate(-88 -255.46)"/><path class="cls-15" d="M859.68,474.75a21.4,21.4,0,0,1-2,9.36,14.67,14.67,0,0,1-5.59,6.3,15.72,15.72,0,0,1-8.37,2.22,14.85,14.85,0,0,1-11.56-4.89q-4.41-4.9-4.41-13.21v-5.87a21.3,21.3,0,0,1,2-9.35,14.59,14.59,0,0,1,5.6-6.31,16.87,16.87,0,0,1,16.73,0,14.67,14.67,0,0,1,5.62,6.32,21.25,21.25,0,0,1,2,9.34Zm-1.57-6.15q0-7.39-3.89-11.85a14.55,14.55,0,0,0-20.94,0q-3.9,4.44-3.89,12.07v6a20,20,0,0,0,1.75,8.61,13.25,13.25,0,0,0,5,5.75,14.2,14.2,0,0,0,7.61,2,13.17,13.17,0,0,0,10.49-4.45q3.86-4.44,3.86-12.14Z" transform="translate(-88 -255.46)"/><path class="cls-15" d="M876.54,492.08H875V451.33h1.57Z" transform="translate(-88 -255.46)"/><path class="cls-15" d="M924.18,492.08h-1.57l-27.3-38.17v38.17h-1.6V451.33h1.6l27.3,38.09V451.33h1.57Z" transform="translate(-88 -255.46)"/><path class="cls-15" d="M965.52,482.31a7.47,7.47,0,0,0-1.27-4.41,10.65,10.65,0,0,0-4-3.19,44.18,44.18,0,0,0-8.21-2.84,40.05,40.05,0,0,1-8.23-2.93,10.72,10.72,0,0,1-4-3.45,8.9,8.9,0,0,1,2.61-12q3.89-2.76,10.14-2.75a16.88,16.88,0,0,1,7.3,1.52,11.72,11.72,0,0,1,5,4.28,11.28,11.28,0,0,1,1.77,6.23h-1.57a9.49,9.49,0,0,0-3.48-7.54,13.41,13.41,0,0,0-9-3,15.44,15.44,0,0,0-9,2.39,7.07,7.07,0,0,0-3.44,6,7,7,0,0,0,3,5.9q3,2.25,9.87,4t10.08,4a9,9,0,0,1,4.06,7.72,8.75,8.75,0,0,1-1.8,5.45,11.48,11.48,0,0,1-5.11,3.65,20.28,20.28,0,0,1-7.43,1.28,22,22,0,0,1-8.25-1.46A11.67,11.67,0,0,1,939,487a11.11,11.11,0,0,1-1.85-6.4h1.57a9,9,0,0,0,3.89,7.77q3.9,2.77,10.14,2.77a15.94,15.94,0,0,0,9.15-2.44A7.43,7.43,0,0,0,965.52,482.31Z" transform="translate(-88 -255.46)"/><path class="cls-15" d="M1028.45,474.75a21.26,21.26,0,0,1-2,9.36,14.55,14.55,0,0,1-5.59,6.3,15.71,15.71,0,0,1-8.36,2.22,14.84,14.84,0,0,1-11.56-4.89q-4.41-4.9-4.41-13.21v-5.87a21.3,21.3,0,0,1,2-9.35,14.53,14.53,0,0,1,5.6-6.31,16.87,16.87,0,0,1,16.73,0,14.67,14.67,0,0,1,5.62,6.32,21.38,21.38,0,0,1,2,9.34Zm-1.57-6.15q0-7.39-3.89-11.85a14.54,14.54,0,0,0-20.93,0q-3.9,4.44-3.89,12.07v6a20,20,0,0,0,1.75,8.61,13.12,13.12,0,0,0,5,5.75,14.2,14.2,0,0,0,7.61,2,13.15,13.15,0,0,0,10.48-4.45q3.87-4.44,3.86-12.14Z" transform="translate(-88 -255.46)"/><path class="cls-15" d="M1073,492.08h-1.57l-27.3-38.17v38.17h-1.6V451.33h1.6l27.3,38.09V451.33H1073Z" transform="translate(-88 -255.46)"/><path class="cls-15" d="M1109.26,474.87v17.21h-1.57V451.33h13.22q6.46,0,10.06,3.15a11,11,0,0,1,3.59,8.75q0,5.53-3.5,8.56t-10,3.08Zm0-1.51h11.65q5.71,0,8.9-2.66a9.14,9.14,0,0,0,3.18-7.42,9.63,9.63,0,0,0-3.18-7.68c-2.12-1.84-5.09-2.75-8.9-2.75h-11.65Z" transform="translate(-88 -255.46)"/><path class="cls-15" d="M1166.1,479.9h-20.7l-4.71,12.18H1139l15.83-40.75h1.91l15.83,40.75h-1.71ZM1146,478.39h19.54l-9.76-25.24Z" transform="translate(-88 -255.46)"/><path class="cls-15" d="M1186.54,492.08H1185V451.33h1.57Z" transform="translate(-88 -255.46)"/><path class="cls-15" d="M1226.48,471.87h-21.2v18.69h24.16v1.52h-25.73V451.33h25.73v1.52h-24.16v17.51h21.2Z" transform="translate(-88 -255.46)"/><path class="cls-16" d="M174.67,324.26C159.35,338.44,152,355.8,134.06,365c-14,7.18-15.63,23.57-10.88,38.45,4.67,14.64,21.92,25.42,38.07,24.67,16.35-.76,24.36-10.85,28.85-25.43,3.22-10.48,3.8-21.78,10.27-31.32,4.18-6.16,9.22-9.61,16.73-8.05,7.66,1.59,10.71,7.34,11.82,14.34,4.06,25.69-21,71.74-43.7,80.32-33.06,12.53-65.68,1.94-85.6-28.53-15.41-23.59-15.23-48.57-1-72.07C115,330.21,140.43,319.41,174.67,324.26Z" transform="translate(-88 -255.46)"/><path class="cls-16" d="M201.65,458.69c16.14-13.26,21.06-31.24,39.46-39.66,12.9-5.91,18.3-21.61,12.07-37.47-7-17.79-21.11-26.82-40.11-25.88-17.1.85-23.52,12.46-27.47,26.51-2.68,9.52-4.25,19.28-8.94,28.27-4.22,8.11-10.12,11.39-18.93,9.4-8.23-1.86-9.32-8.2-9.73-15.27-2.18-38.46,23.2-76.41,55.35-82.06,30.38-5.34,55.13,4.41,72.07,30,15.69,23.65,16.21,49.09,1.81,73.51C261.24,453.13,236.7,463.84,201.65,458.69Z" transform="translate(-88 -255.46)"/></svg>