<svg xmlns="http://www.w3.org/2000/svg" viewBox="0 0 453.15 512.08"><defs><style>.cls-1{fill:#f5f3ee;stroke:#f5f3ee;stroke-miterlimit:10;stroke-width:5px;}.cls-2{fill:#edcb50;}</style></defs><title>ma_commande_fioul</title><g id="Calque_2" data-name="Calque 2"><path class="cls-1" d="M164.38,326.67a8,8,0,0,1-7.87-6.69L137.31,202.1a8,8,0,0,1,1.17-5.62l54.58-84.43a8,8,0,1,1,13.4,8.66l-52.91,81.86,17.37,106.66,56.75-11.51L209.05,188.79a8,8,0,0,1,1.19-5.72l55.35-84.46a8,8,0,1,1,13.34,8.75L225.3,189.19l19.41,113.47a8,8,0,0,1-6.28,9.17L166,326.51A7.8,7.8,0,0,1,164.38,326.67Z" transform="translate(-0.58 -1.82)"/><path class="cls-1" d="M338.47,204.6a8,8,0,0,1-7.84-6.58l-5.49-30.82a8,8,0,0,1,15.71-2.8l5.49,30.82a8,8,0,0,1-6.46,9.25A7.47,7.47,0,0,1,338.47,204.6Z" transform="translate(-0.58 -1.82)"/><path class="cls-1" d="M28.65,230.52a8,8,0,0,1-6.72-12.28L76,133.71a8,8,0,0,1,5.27-3.55L391.61,72.82a8,8,0,0,1,8,12.45L339.51,170.4a8,8,0,0,1-5.06,3.25L30.11,230.38A8.11,8.11,0,0,1,28.65,230.52Zm58.93-85.3-42.29,66.1,283-52.76,46.91-66.49Z" transform="translate(-0.58 -1.82)"/><path class="cls-1" d="M79.7,511.4a8,8,0,0,1-7.85-6.55L20.8,224a8,8,0,1,1,15.7-2.86l49.61,273L384,437.74,434.9,335.61,385.23,82.2a8,8,0,0,1,15.66-3.07L451.08,335.2a8,8,0,0,1-.69,5.1L396.47,448.4a8,8,0,0,1-5.66,4.28L81.18,511.26A7.42,7.42,0,0,1,79.7,511.4Z" transform="translate(-0.58 -1.82)"/><g id="Calque_3" data-name="Calque 3"><path class="cls-2" d="M57.46,118.18a172.43,172.43,0,0,1-46-25.1c-2.42-1.85-6-.58-7.54,1.73a5.78,5.78,0,0,0,1.72,7.57,183.66,183.66,0,0,0,48.56,26.34A5.54,5.54,0,0,0,61,125a5.23,5.23,0,0,0-3.23-6.63Z" transform="translate(-0.58 -1.82)"/><path class="cls-2" d="M47.94,129A184.75,184.75,0,0,1,4.08,104.33a8.11,8.11,0,0,1-2.4-10.75l.07-.21a8.77,8.77,0,0,1,5.68-3.61A7.16,7.16,0,0,1,12.86,91a168.91,168.91,0,0,0,45.28,24.74l.43.15a7.75,7.75,0,0,1,4.71,9.83,8.06,8.06,0,0,1-9.86,5.33l-.17-.06C51.53,130.41,49.7,129.75,47.94,129ZM6,96.12a3.33,3.33,0,0,0,1,4.22A179.93,179.93,0,0,0,54.9,126.42a3.12,3.12,0,0,0,3.73-2.1A2.78,2.78,0,0,0,57,120.75l-.4-.15A174.07,174.07,0,0,1,9.92,95.09a2.07,2.07,0,0,0-1.65-.35A3.74,3.74,0,0,0,6,96.12Z" transform="translate(-0.58 -1.82)"/><path class="cls-2" d="M113.8,71.16C103.59,50.05,93.46,28.63,83.25,7.58a5.42,5.42,0,0,0-10.18,3.71,3.42,3.42,0,0,0,.13.34h0a4.89,4.89,0,0,0,.37.72l.25.48C84,34,94.12,55.3,104.36,76.45a5.47,5.47,0,0,0,9.81-4.82A2.84,2.84,0,0,0,113.8,71.16Z" transform="translate(-0.58 -1.82)"/><path class="cls-2" d="M106.29,81.41a7.82,7.82,0,0,1-4.19-3.85Q94.42,61.69,86.8,45.72T71.61,14l-.31-.57a7.93,7.93,0,0,1,3.29-10.7h0a7.94,7.94,0,0,1,10.7,3.32h0l.19.39Q92.76,21.58,100,36.7,108,53.37,116,69.91c.12.19.22.39.32.59a7.93,7.93,0,0,1-10,10.88ZM79.49,7.2a3,3,0,0,0-3.81,1.73h0a3,3,0,0,0,.11,2.32l.15.26.14.24Q83.7,27.64,91.35,43.54T106.61,75.4a3,3,0,0,0,5.28-2.65h0l-.14-.25-.16-.25q-8-16.62-16-33.38L81.09,8.64A3,3,0,0,0,79.49,7.2Z" transform="translate(-0.58 -1.82)"/><path class="cls-2" d="M175.58,71A221.94,221.94,0,0,1,198.7,20.79c3.75-6-5.61-11.62-9.34-5.61A243.33,243.33,0,0,0,165,68.12C162.89,74.83,173.48,77.75,175.58,71Z" transform="translate(-0.58 -1.82)"/><path class="cls-2" d="M167.21,76.71a8.43,8.43,0,0,1-3.08-2.09,7.24,7.24,0,0,1-1.49-7.29,246.76,246.76,0,0,1,24.61-53.45,7.58,7.58,0,0,1,6.84-3.74,8.61,8.61,0,0,1,7.24,4.43,7.4,7.4,0,0,1-.36,7.57,219,219,0,0,0-22.86,49.7h0a7.65,7.65,0,0,1-5.74,5.34A8.85,8.85,0,0,1,167.21,76.71Zm27.87-61.35a3.44,3.44,0,0,0-1.09-.24,2.64,2.64,0,0,0-2.35,1.43,240.55,240.55,0,0,0-24.17,52.34,2.23,2.23,0,0,0,.41,2.4,3.74,3.74,0,0,0,3.36,1,2.66,2.66,0,0,0,1.89-2A223.43,223.43,0,0,1,196.5,19.42a2.43,2.43,0,0,0,.23-2.59,3.62,3.62,0,0,0-1.81-1.53Z" transform="translate(-0.58 -1.82)"/></g></g></svg>