<svg id="Calque_1" data-name="Calque 1" xmlns="http://www.w3.org/2000/svg" viewBox="0 0 429.77 251.48"><defs><style>.cls-1{fill:#11393a;stroke:#11393a;}.cls-1,.cls-2{stroke-miterlimit:10;stroke-width:5px;}.cls-2{fill:#ecca50;stroke:#ecca50;}</style></defs><title>mail-poemop</title><path class="cls-1" d="M431.68,474.13v-191a6.25,6.25,0,0,0-.13-1.26c0-.11,0-.2,0-.31.5-7.54-.1-15.81-6.61-20.79-5.35-4.1-13.29-4.4-20.18-4.9a5.85,5.85,0,0,0-2.45-.5H90.87c-7.53,0-7.54,11.7,0,11.7H400.21a6.8,6.8,0,0,0,.94.18c4.73.52,10.76.25,15.2,2,4.73,1.91,3.82,8.08,3.54,12.26a6,6,0,0,0,.09,1.55V474.22a6.13,6.13,0,0,0,0,2.29c.69,3.45-1.71,6.69-3.83,9.17-2.8,3.27-4.81,3.91-9.13,3.89a5.88,5.88,0,0,0-2.75.62H90.09c-7.53,0-7.54,11.7,0,11.7H408.61a5.64,5.64,0,0,0,3.24-.94c5.38-.81,9.53-3.22,13.44-8,4.35-5.27,7-11.06,6.29-17.79A6.07,6.07,0,0,0,431.68,474.13Z" transform="translate(-4.46 -252.91)"/><path class="cls-2" d="M98.7,324.28H12.61c-7.53,0-7.54,11.7,0,11.7H98.7C106.22,336,106.24,324.28,98.7,324.28Z" transform="translate(-4.46 -252.91)"/><path class="cls-2" d="M125.3,372.8H42.35c-7.53,0-7.54,11.7,0,11.7H125.3C132.83,384.5,132.85,372.8,125.3,372.8Z" transform="translate(-4.46 -252.91)"/><path class="cls-2" d="M156.61,422.11H70.52c-7.53,0-7.54,11.7,0,11.7h86.09C164.14,433.81,164.15,422.11,156.61,422.11Z" transform="translate(-4.46 -252.91)"/><path class="cls-1" d="M391.81,454.26l-60.87-60.88c-5.32-5.32-13.61,2.94-8.27,8.28l60.87,60.87C388.86,467.85,397.14,459.59,391.81,454.26Z" transform="translate(-4.46 -252.91)"/><path class="cls-1" d="M387.13,294.26l-50.31,38.2c-15.68,11.91-31,25-47.65,35.45-7.5,4.73-15.86,9-24.86,9.57s-17.21-2.68-24.82-7.2c-17.32-10.3-33.34-23.32-49.72-35L132,293.82c-6.13-4.39-12,5.75-5.91,10.1l53.81,38.54c17.28,12.38,34.19,25.86,52.27,37,16.5,10.2,33.84,12.53,51.78,4.57,18.14-8.05,33.72-22.43,49.4-34.33L393,304.36C399,299.87,393.13,289.7,387.13,294.26Z" transform="translate(-4.46 -252.91)"/></svg>