<svg id="Calque_1" data-name="Calque 1" xmlns="http://www.w3.org/2000/svg" viewBox="0 0 384 448.01"><defs><style>.cls-1{fill:#f5f3ee;}</style></defs><title>mon-compte</title><path class="cls-1" d="M192,213.34A106.67,106.67,0,1,1,298.67,106.65h0A106.79,106.79,0,0,1,192,213.34ZM192,32a74.67,74.67,0,1,0,74.67,74.67h0A74.67,74.67,0,0,0,192,32Z" transform="translate(-0.02 0)"/><path class="cls-1" d="M368,448H16A16,16,0,0,1,0,432V357.34A101.45,101.45,0,0,1,101.35,256H282.67A101.46,101.46,0,0,1,384,357.34V432A16,16,0,0,1,368,448ZM32,416H352V357.34A69.4,69.4,0,0,0,282.67,288H101.35A69.4,69.4,0,0,0,32,357.33Z" transform="translate(-0.02 0)"/></svg>