<svg xmlns="http://www.w3.org/2000/svg" viewBox="0 0 453.23 512"><defs><style>.cls-1{fill:#edcb50;}.cls-2{fill:#f5f3ee;}.cls-3{fill:none;}</style></defs><title>mon_compte</title><g id="Calque_2" data-name="Calque 2"><g id="Calque_3" data-name="Calque 3"><path class="cls-1" d="M101.36,116.36a172.05,172.05,0,0,1-46-25.1c-2.42-1.85-6-.58-7.54,1.73a5.77,5.77,0,0,0,1.73,7.57A183.45,183.45,0,0,0,98.07,126.9a5.54,5.54,0,0,0,6.86-3.76,5.23,5.23,0,0,0-3.23-6.63Z" transform="translate(0 0)"/><path class="cls-1" d="M91.83,127.17A185,185,0,0,1,48,102.51a8.11,8.11,0,0,1-2.4-10.75l.07-.21a8.77,8.77,0,0,1,5.68-3.61,7.14,7.14,0,0,1,5.43,1.27A168.91,168.91,0,0,0,102,114l.43.15a7.77,7.77,0,0,1,4.72,9.84,8.07,8.07,0,0,1-9.87,5.32l-.17-.06C95.42,128.59,93.6,127.93,91.83,127.17ZM49.9,94.3a3.33,3.33,0,0,0,1,4.22A180.08,180.08,0,0,0,98.79,124.6a3.1,3.1,0,0,0,3.73-2.1,2.78,2.78,0,0,0-1.62-3.57l-.41-.15A173.79,173.79,0,0,1,53.81,93.27a2.07,2.07,0,0,0-1.65-.35A3.83,3.83,0,0,0,49.9,94.3Z" transform="translate(0 0)"/><path class="cls-1" d="M157.7,69.34c-10.22-21.11-20.35-42.52-30.56-63.58A5.42,5.42,0,0,0,117,9.48c0,.11.09.22.14.33h0a4.84,4.84,0,0,0,.36.72l.25.48c10.21,21.14,20.3,42.47,30.55,63.62a5.46,5.46,0,1,0,9.8-4.82A2.79,2.79,0,0,0,157.7,69.34Z" transform="translate(0 0)"/><path class="cls-1" d="M150.18,79.59A7.82,7.82,0,0,1,146,75.74Q138.32,59.87,130.7,43.9T115.5,12.19l-.31-.58a7.92,7.92,0,0,1,3.3-10.7h0a7.93,7.93,0,0,1,10.69,3.32h0l.19.39q7.27,15.13,14.56,30.26,8,16.67,15.92,33.22a4.08,4.08,0,0,1,.32.58,7.93,7.93,0,0,1-10,10.88ZM123.38,5.38a3,3,0,0,0-3.81,1.73h0a3,3,0,0,0,.11,2.32l.16.26.13.24q7.62,15.88,15.28,31.79T150.5,73.58a3,3,0,0,0,5.28-2.64h0l-.14-.26-.16-.25q-8-16.62-16-33.38L125,6.82A3,3,0,0,0,123.38,5.38Z" transform="translate(0 0)"/><path class="cls-1" d="M219.48,69.23A221.78,221.78,0,0,1,242.59,19c3.75-6-5.61-11.62-9.34-5.61A243.55,243.55,0,0,0,208.92,66.3C206.78,73,217.37,75.93,219.48,69.23Z" transform="translate(0 0)"/><path class="cls-1" d="M211.1,74.89A8.31,8.31,0,0,1,208,72.8a7.23,7.23,0,0,1-1.5-7.28,246.61,246.61,0,0,1,24.61-53.46A7.61,7.61,0,0,1,238,8.32a8.59,8.59,0,0,1,7.24,4.43,7.38,7.38,0,0,1-.36,7.57A219.41,219.41,0,0,0,222,70h0a7.66,7.66,0,0,1-5.73,5.34A8.88,8.88,0,0,1,211.1,74.89ZM239,13.54a4.09,4.09,0,0,0-1.09-.24,2.64,2.64,0,0,0-2.35,1.43,241,241,0,0,0-24.17,52.34,2.23,2.23,0,0,0,.41,2.4,3.72,3.72,0,0,0,3.36,1,2.68,2.68,0,0,0,1.9-2A222.31,222.31,0,0,1,240.4,17.61a2.47,2.47,0,0,0,.22-2.6,3.62,3.62,0,0,0-1.81-1.53Z" transform="translate(0 0)"/></g><path class="cls-2" d="M226.83,297.37a82.62,82.62,0,1,1,82.61-82.63h0A82.7,82.7,0,0,1,226.83,297.37Zm0-140.44a57.83,57.83,0,1,0,57.83,57.83h0A57.83,57.83,0,0,0,226.83,156.93Z" transform="translate(0 0)"/><path class="cls-2" d="M363.14,479.11H90.52a12.39,12.39,0,0,1-12.39-12.39V408.9a78.57,78.57,0,0,1,78.49-78.49H297.05a78.58,78.58,0,0,1,78.48,78.49v57.82A12.39,12.39,0,0,1,363.14,479.11ZM102.91,454.33H350.75V408.9a53.76,53.76,0,0,0-53.7-53.71H156.62a53.76,53.76,0,0,0-53.71,53.7Z" transform="translate(0 0)"/><rect class="cls-3" y="432.89" width="453.23" height="79.11"/><rect class="cls-3" y="1" width="82.15" height="440.78"/><rect class="cls-3" x="372.28" y="1" width="80.95" height="452.33"/></g></svg>