<svg id="Calque_1" data-name="Calque 1" xmlns="http://www.w3.org/2000/svg" viewBox="0 0 395.56 517.95"><defs><style>.cls-1{fill:#edcb50;}.cls-2{fill:#11393a;stroke:#11393a;stroke-miterlimit:10;stroke-width:2px;}</style></defs><title>moyenne-poemop</title><path class="cls-1" d="M256.84,53.71a156.36,156.36,0,0,1-8.09-47c-.06-2.78-3-4.58-5.49-4.4a5.24,5.24,0,0,0-4.42,5.5,166.35,166.35,0,0,0,8.64,49.49A5.07,5.07,0,0,0,254,60.09,4.77,4.77,0,0,0,256.94,54Z" transform="translate(-16.98 0)"/><path class="cls-1" d="M243.77,53.05a168.9,168.9,0,0,1-7.17-45.2A7.38,7.38,0,0,1,242.93.07l.18,0a7.85,7.85,0,0,1,5.76,2A6.42,6.42,0,0,1,251,6.62,153.36,153.36,0,0,0,259,52.84l.12.39a7.05,7.05,0,0,1-4.34,8.94,7.35,7.35,0,0,1-9.38-4l0-.16C244.81,56.38,244.28,54.71,243.77,53.05Zm-.2-48.47a3,3,0,0,0-2.41,3.1,163.86,163.86,0,0,0,8.44,48.83A2.83,2.83,0,0,0,253.21,58a2.52,2.52,0,0,0,1.62-3.17h0l-.11-.38a158.36,158.36,0,0,1-8.2-47.66,1.88,1.88,0,0,0-.68-1.38A3.49,3.49,0,0,0,243.57,4.58Z" transform="translate(-16.98 0)"/><path class="cls-1" d="M322.21,67.31C331.51,48.11,341,28.8,350.3,9.63a4.94,4.94,0,1,0-8.41-5.18,2.59,2.59,0,0,0-.19.33,5,5,0,0,0-.32.66l-.19.45c-9.32,19.21-18.8,38.48-28.1,57.69A4.95,4.95,0,0,0,322,67.81,4.24,4.24,0,0,0,322.21,67.31Z" transform="translate(-16.98 0)"/><path class="cls-1" d="M310.66,67.76a7.06,7.06,0,0,1,.38-5.17q7-14.43,14-28.88T339.1,5l.23-.54A7.21,7.21,0,0,1,352.62,10a1.75,1.75,0,0,1-.11.24l-.16.35q-6.64,13.71-13.41,27.47-7.32,15.06-14.58,30.11a5.55,5.55,0,0,1-.24.56,7.21,7.21,0,0,1-13.4-1Zm37.76-61A2.69,2.69,0,0,0,345,5a2.66,2.66,0,0,0-1.61,1.42l-.09.25-.09.23q-7,14.33-14.07,28.82L315.13,64.58A2.68,2.68,0,0,0,320,66.85h0l.1-.25.1-.24q7.32-15.11,14.74-30.26L348.28,8.68A2.77,2.77,0,0,0,348.42,6.74Z" transform="translate(-16.98 0)"/><path class="cls-1" d="M357.18,111.29a201.21,201.21,0,0,1,48.87-11.91c6.4-.72,5.12-10.56-1.28-9.83a221.89,221.89,0,0,0-51.46,12.55C347.36,104.36,351.2,113.57,357.18,111.29Z" transform="translate(-16.98 0)"/><path class="cls-1" d="M348.41,108.51a7.53,7.53,0,0,1-.24-3.37,6.52,6.52,0,0,1,4.34-5.15,223.73,223.73,0,0,1,52-12.65A6.91,6.91,0,0,1,411,90.1a7.8,7.8,0,0,1,.9,7.63,6.75,6.75,0,0,1-5.61,4A199.1,199.1,0,0,0,358,113.5h0a7,7,0,0,1-7-1A8,8,0,0,1,348.41,108.51ZM407.86,93.7a3.63,3.63,0,0,0-.46-1,2.43,2.43,0,0,0-2.35-.87,219.57,219.57,0,0,0-50.94,12.36,2.11,2.11,0,0,0-1.47,1.65,3.41,3.41,0,0,0,1.19,3,2.42,2.42,0,0,0,2.55.34,202.85,202.85,0,0,1,49.36-12,2.22,2.22,0,0,0,2-1.31,3.27,3.27,0,0,0,.14-2.16Z" transform="translate(-16.98 0)"/><path class="cls-2" d="M393.88,416.06a7.16,7.16,0,0,0,.69-.77c6.83-9.33,5.88-22.83-2.74-30.74-9.88-9.07-22.32-6.41-33.42-1.35-1.74.8-3.45,1.66-5.15,2.54a24.57,24.57,0,0,0-12.8-15.27c-9.24-4.69-20-3.74-29.63-.87a112.57,112.57,0,0,0-17.59,7.11,30.88,30.88,0,0,0-32.68-13.95c-8.7,1.91-17.32,6-25.47,9.48-4.09,1.74-8.15,3.54-12.18,5.44-4.45,2.09-8.82,4.89-13.73,5.67a4.79,4.79,0,0,0-1.6.53c-32.39-9.1-66.41-14.85-98.79-2.43-20,7.68-38.91,18.69-58,28.48-5.72,2.94-.67,11.57,5,8.63,3.51-1.8,7-3.67,10.55-5.56a241.84,241.84,0,0,0-9.93,38.48c-1.25,7.3-2.48,14.94,1,21.83a28.08,28.08,0,0,0,9.46,10.15C52.09,492,37.87,501.74,21.45,507c-6.1,2-3.49,11.63,2.66,9.64,21-6.8,38.41-20.65,58.17-30.09A138.2,138.2,0,0,1,145,473.47a135.49,135.49,0,0,1,32.71,4.77c11.09,3,21.74,7.5,32.71,10.94,21.37,6.71,44.13,10.82,66.58,9.07,22.93-1.79,43.06-10.58,62.72-22,10.38-6,20.68-12.24,31-18.37,8.57-5.08,18.82-9.93,24.13-18.81,4-6.68,4.59-16-.36-22.36A6.07,6.07,0,0,0,393.88,416.06Zm-66.59-38.91c7.2.38,15.83,4.59,16.79,12.6a4.43,4.43,0,0,0,.16.79c-1.2.64-2.41,1.28-3.63,1.89-6.93,3.47-14.27,5.74-21.6,8.22a320.11,320.11,0,0,0-38.6,16,34.19,34.19,0,0,0-14.36-13.83c-.63-.33-1.27-.62-1.91-.92,12.58-5,24.19-12.46,36.57-17.88,8.18-3.65,17.47-7.4,26.58-6.9ZM254.89,375c6-2.2,11.82-4.19,18.2-2.2a20.77,20.77,0,0,1,11.16,8.39c-11.19,5.93-22.27,11.93-34.59,14.71a4.35,4.35,0,0,0-1,.33l-6.27-1.88q-9.34-2.88-18.71-5.73c2.91-1.48,5.77-3.06,8.59-4.34q11.14-5,22.62-9.25Zm131.59,58.39c-4.47,8.44-16.47,13.18-24.27,17.8-9.72,5.77-19.4,11.61-29.19,17.27-19.26,11.13-39,19.23-61.46,20-21.41.78-42.63-3.67-62.86-10.41-10.29-3.42-20.37-7.52-30.89-10.2a148.87,148.87,0,0,0-94.28,7.2c-2.07.88-4.11,1.83-6.13,2.82-4.82-2.45-10.13-5.75-11.76-11.22-2-6.59.89-15.31,2.26-21.81a244.32,244.32,0,0,1,11.77-39c21.47-11.32,43.67-21.58,68.2-21.85,32.45-.35,64,11.4,94.64,20.79,7.67,2.35,15.93,4.31,22.6,9,5.94,4.15,10.83,12.22,7,19.32a3.22,3.22,0,0,0-.31.68c-10.22-1.37-20.27-3.25-30.06-6.82-12.29-4.47-24.14-9.07-37.18-10.95a130,130,0,0,0-38.84.32c-6.34,1-3.64,10.62,2.66,9.64,22.38-3.45,43.75.36,64.69,8.37a149.67,149.67,0,0,0,32.56,8.69c10.53,1.49,21.28,3.11,32,3,19.17-.1,34.79-9.14,51.42-17.5,7.79-3.91,16.11-7.63,24.9-8.43,3.93-.35,9.86-.83,12.61,2.62,2.45,3,1.62,7.56,0,10.69Zm-.52-23.2a4.93,4.93,0,0,0-.45.73c-5-1.39-10.8-1.05-15.82-.26-19.25,3-34.7,16-52.8,22.19-11.37,3.88-23,3.51-34.72,2.22a20.85,20.85,0,0,0,1.2-8.82,301.06,301.06,0,0,1,32.09-13.81c11-4,22.15-7.16,32.56-12.61,8.48-4.44,20-13.18,30.12-11.46,10.7,1.83,13.72,13.76,7.82,21.82Z" transform="translate(-16.98 0)"/><path class="cls-2" d="M223.71,326.69a116.19,116.19,0,0,0,116-116.06C339.71,110.23,220.57,58,146.49,124a5.69,5.69,0,0,0,7.56,8.5,104.67,104.67,0,1,1,69.61,182.85c-86,0-135-98.34-84.14-167a5.69,5.69,0,1,0-8.93-7.07l-.21.3C74.15,217.5,128.24,326.69,223.71,326.69Z" transform="translate(-16.98 0)"/><path class="cls-2" d="M192.65,172.64a13.16,13.16,0,1,1-13.16-13.16,13.16,13.16,0,0,1,13.16,13.16Z" transform="translate(-16.98 0)"/><path class="cls-2" d="M281.08,172.64a13.16,13.16,0,1,1-13.16-13.16H268A13.14,13.14,0,0,1,281.08,172.64Z" transform="translate(-16.98 0)"/><path class="cls-2" d="M196.63,198.31a5.69,5.69,0,0,0-5.69,5.69h0v11.33a32.77,32.77,0,1,0,65.54,0V204a5.69,5.69,0,0,0-11.38,0v11.33a21.39,21.39,0,1,1-42.78,0V204a5.69,5.69,0,0,0-5.69-5.69Z" transform="translate(-16.98 0)"/></svg>