<?xml version="1.0" encoding="utf-8"?>
<!-- Generator: Adobe Illustrator 24.0.0, SVG Export Plug-In . SVG Version: 6.00 Build 0)  -->
<svg version="1.1" id="Calque_1" xmlns="http://www.w3.org/2000/svg" xmlns:xlink="http://www.w3.org/1999/xlink" x="0px" y="0px"
	 viewBox="0 0 445.3 445.3" style="enable-background:new 0 0 445.3 445.3;" xml:space="preserve">
<style type="text/css">
	.st0{fill:#87BAD0;}
	.st1{fill:#11393A;}
</style>
<title>pas-de-commande-poemop</title>
<g id="outline">
	<path d="M371.6-35.6"/>
</g>
<path class="st0" d="M107.4,27.5h7.8v7.9c0.1,3.6,3.2,6.4,6.8,6.3c3.4-0.1,6.1-2.9,6.3-6.3v-7.9h7.9c3.6-0.3,6.2-3.5,5.9-7.1
	c-0.3-3.1-2.8-5.6-5.9-5.9h-7.9V6.5c-0.1-3.6-3.2-6.4-6.8-6.3c-3.4,0.1-6.1,2.9-6.3,6.3v7.9h-7.9c-3.6,0.3-6.2,3.5-5.9,7.1
	C101.8,24.6,104.3,27.1,107.4,27.5L107.4,27.5z"/>
<path class="st0" d="M337.9,417.8H330v-7.9c-0.3-3.6-3.5-6.2-7.1-5.9c-3.1,0.3-5.6,2.8-5.9,5.9v7.9h-7.9c-3.6,0.1-6.4,3.2-6.3,6.8
	c0.1,3.4,2.9,6.1,6.3,6.3h7.9v7.9c0.3,3.6,3.5,6.2,7.1,5.9c3.1-0.3,5.6-2.8,5.9-5.9v-7.9h7.9c3.6-0.1,6.4-3.2,6.3-6.8
	C344,420.7,341.3,417.9,337.9,417.8L337.9,417.8z"/>
<path class="st0" d="M121.1,265.9c0-11.6-9.4-20.9-20.9-20.9s-20.9,9.4-20.9,20.9c0,11.6,9.4,20.9,20.9,20.9c0,0,0,0,0,0
	C111.7,286.7,121.1,277.4,121.1,265.9z M100.2,273.7c-4.4,0-7.9-3.5-7.9-7.9c0-4.4,3.5-7.9,7.9-7.9c4.4,0,7.9,3.5,7.9,7.9
	c0,0,0,0,0,0C108.1,270.2,104.6,273.7,100.2,273.7z"/>
<path class="st0" d="M114.6,229.2c11.6,0,20.9-9.4,20.9-20.9c0-11.6-9.4-20.9-20.9-20.9s-20.9,9.4-20.9,20.9l0,0
	C93.7,219.8,103,229.1,114.6,229.2z M114.6,200.3c4.4,0,7.9,3.5,7.9,7.9s-3.5,7.9-7.9,7.9s-7.9-3.5-7.9-7.9c0,0,0,0,0,0
	C106.7,203.9,110.2,200.3,114.6,200.3z"/>
<path class="st1" d="M402,222.3c0-6.4-5.3-11.6-11.7-11.6c-4.6,0-8.8,2.8-10.6,7c-18.2,42.7-60.2,70.4-106.6,70.4h-0.3
	c-63.6-0.2-115.4-52-115.6-115.6c-0.2-46.6,27.6-88.7,70.4-106.9c5.9-2.5,8.6-9.4,6.1-15.3c-1.8-4.3-6-7-10.7-7h-0.3
	c-42.9,0-84.4,15.4-116.9,43.3c-2.7,2.3-3,6.5-0.7,9.2s6.5,3,9.2,0.7l0,0c28.5-24.5,64.5-38.6,102-40.1
	c-44.3,21.7-72.3,66.8-72.1,116.2c0.2,70.7,57.9,128.4,128.6,128.6h0.4c49.2,0,94.2-28,115.8-72.2c-3.4,88.8-76.6,160-166.2,160
	c-7.3,0-14.6-0.5-21.8-1.4c-0.4-0.1-0.6-0.5-0.6-0.8c-0.1-0.9-0.2-1.7-0.4-2.5c-2.2-11.3-13.2-18.7-24.6-16.5
	c-5.6,1.1-10.6,4.5-13.6,9.4c-0.2,0.2-0.5,0.2-0.7,0.1c-17.1-6.8-32.9-16.4-46.8-28.4c-2.7-2.3-6.8-2-9.2,0.7s-2,6.8,0.7,9.2
	c15,12.9,32.1,23.3,50.5,30.6c6.1,2.5,13,0.3,16.5-5.2c1.5-2.4,4.3-3.8,7.2-3.7c3.6,0.3,6.5,2.9,7.2,6.4c0.1,0.3,0.1,0.7,0.1,1
	c0.4,6.6,5.4,11.9,11.9,12.8c7.8,1,15.6,1.5,23.5,1.5c98.9,0,179.4-80.5,179.4-179.4L402,222.3L402,222.3z"/>
<path class="st1" d="M56.2,222.7c0-39.8,14.3-78.3,40.2-108.4c2.3-2.8,1.8-6.9-1-9.2c-2.7-2.2-6.6-1.9-8.9,0.7
	c-57.8,67.2-57.8,166.6,0,233.9c2.3,2.7,6.5,3,9.2,0.7s3-6.5,0.7-9.2l0,0C70.5,300.9,56.2,262.4,56.2,222.7z"/>
<path class="st0" d="M402.7,331.4c-3.6,0-6.5,2.9-6.5,6.5v14.4c0.3,3.6,3.5,6.2,7.1,5.9c3.1-0.3,5.6-2.8,5.9-5.9v-14.4
	C409.2,334.3,406.3,331.4,402.7,331.4C402.7,331.4,402.7,331.4,402.7,331.4L402.7,331.4z"/>
<path class="st0" d="M402.7,389c-3.6,0-6.5,2.9-6.5,6.5v14.4c0.3,3.6,3.5,6.2,7.1,5.9c3.1-0.3,5.6-2.8,5.9-5.9v-14.4
	C409.2,391.9,406.3,389,402.7,389z"/>
<path class="st0" d="M438.7,367.4h-14.4c-3.6-0.3-6.7,2.4-7,6c-0.3,3.6,2.4,6.7,6,7c0.3,0,0.7,0,1,0h14.4c3.6,0.3,6.7-2.4,7-6
	c0.3-3.6-2.4-6.7-6-7C439.4,367.4,439.1,367.4,438.7,367.4z"/>
<path class="st0" d="M381.1,367.4h-14.4c-3.6,0.3-6.3,3.4-6,7c0.3,3.2,2.8,5.7,6,6h14.4c3.6,0.3,6.7-2.4,7-6c0.3-3.6-2.4-6.7-6-7
	C381.8,367.4,381.4,367.4,381.1,367.4z"/>
<path class="st0" d="M42.5,56.3c3.6,0,6.5-2.9,6.5-6.5l0,0V35.3c-0.3-3.6-3.4-6.3-7-6c-3.2,0.3-5.7,2.8-6,6v14.4
	C36.1,53.3,39,56.2,42.5,56.3z"/>
<path class="st0" d="M49.1,107.4V93c-0.3-3.6-3.4-6.3-7-6c-3.2,0.3-5.7,2.8-6,6v14.4c0.3,3.6,3.4,6.3,7,6
	C46.3,113.1,48.8,110.6,49.1,107.4z"/>
<path class="st0" d="M64.2,77.9h14.4c3.6,0.3,6.7-2.4,7-6s-2.4-6.7-6-7c-0.3,0-0.7,0-1,0H64.2c-3.6,0.3-6.3,3.4-6,7
	C58.4,75.1,61,77.6,64.2,77.9z"/>
<path class="st0" d="M20.9,64.8H6.5c-3.6,0.3-6.3,3.4-6,7c0.3,3.2,2.8,5.7,6,6h14.4c3.6,0.3,6.7-2.4,7-6c0.3-3.6-2.4-6.7-6-7
	C21.6,64.8,21.3,64.8,20.9,64.8z"/>
</svg>
