<svg id="Calque_1" data-name="Calque 1" xmlns="http://www.w3.org/2000/svg" viewBox="0 0 442.36 518.48"><defs><style>.cls-1,.cls-3{fill:#ecca50;}.cls-1{stroke:#ecca50;stroke-miterlimit:10;}.cls-2{fill:#11393a;}</style></defs><title>poemop</title><g id="Calque_3" data-name="Calque 3"><path class="cls-1" d="M109.51,174.19A110.25,110.25,0,0,1,76,176.8c-2-.14-3.41,1.79-3.45,3.58a3.7,3.7,0,0,0,3.58,3.46A117.84,117.84,0,0,0,111.43,181a3.56,3.56,0,0,0,2.37-4.42,3.35,3.35,0,0,0-4-2.44Z" transform="translate(0 -67.01)"/><path class="cls-1" d="M108.19,183.33A118.91,118.91,0,0,1,76,185.43a5.21,5.21,0,0,1-5-4.94l0-.14a5.55,5.55,0,0,1,1.78-3.93A4.56,4.56,0,0,1,76,175.2a108.07,108.07,0,0,0,33-2.55l.28-.06a5,5,0,0,1,6,3.63,5.18,5.18,0,0,1-3.44,6.33l-.11,0C110.6,182.84,109.4,183.11,108.19,183.33Zm-34-3a2.12,2.12,0,0,0,2,1.89A115.41,115.41,0,0,0,111,179.5a2,2,0,0,0,1.27-2.43,1.77,1.77,0,0,0-2.12-1.35l-.27.06a111.53,111.53,0,0,1-34,2.63,1.28,1.28,0,0,0-1,.4A2.41,2.41,0,0,0,74.14,180.34Z" transform="translate(0 -67.01)"/><path class="cls-1" d="M123.35,129.19c-12.88-7.77-25.82-15.74-38.68-23.51a3.48,3.48,0,1,0-4,5.72h0a3.35,3.35,0,0,0,.45.27l.31.16c12.88,7.8,25.8,15.72,38.68,23.52a3.49,3.49,0,0,0,3.56-6A1.5,1.5,0,0,0,123.35,129.19Z" transform="translate(0 -67.01)"/><path class="cls-1" d="M122.9,137.33a5,5,0,0,1-3.6-.6q-9.67-5.85-19.37-11.76T80.67,113.25l-.37-.2a5.08,5.08,0,0,1-2-6.91h0a5.09,5.09,0,0,1,6.91-2h0l.24.14,18.4,11.18q10.11,6.18,20.21,12.3a2,2,0,0,1,.38.2,5.08,5.08,0,0,1-1.58,9.35ZM82.52,106.82a1.89,1.89,0,0,0-1.44,2.26h0A1.92,1.92,0,0,0,82,110.3l.17.08.16.08,19.34,11.77L121,134a1.89,1.89,0,0,0,1.91-3.27h0l-.16-.09-.16-.08q-10.14-6.14-20.31-12.34L83.89,107A1.88,1.88,0,0,0,82.52,106.82Z" transform="translate(0 -67.01)"/><path class="cls-1" d="M156.53,107.5a142.25,142.25,0,0,1-5.17-35.11c-.08-4.54-7.08-4.28-7,.26a156.62,156.62,0,0,0,5.44,37C151,114,157.74,111.85,156.53,107.5Z" transform="translate(0 -67.01)"/><path class="cls-1" d="M154,113.48a5.18,5.18,0,0,1-2.38,0,4.63,4.63,0,0,1-3.36-3.39,157.65,157.65,0,0,1-5.47-37.34,4.84,4.84,0,0,1,2.37-4.41,5.49,5.49,0,0,1,5.41-.13,4.72,4.72,0,0,1,2.45,4.2,140.5,140.5,0,0,0,5.11,34.71h0a4.94,4.94,0,0,1-1.18,4.87A5.74,5.74,0,0,1,154,113.48Zm-6.49-42.73a2.36,2.36,0,0,0-.67.25,1.71,1.71,0,0,0-.76,1.59,154.53,154.53,0,0,0,5.33,36.6,1.44,1.44,0,0,0,1.06,1.14,2.37,2.37,0,0,0,2.15-.64,1.72,1.72,0,0,0,.35-1.76,142.51,142.51,0,0,1-5.23-35.5A1.57,1.57,0,0,0,149,71a2.25,2.25,0,0,0-1.51-.2Z" transform="translate(0 -67.01)"/></g><path class="cls-2" d="M221.18,246.35a44.24,44.24,0,1,0,44.24,44.24A44.24,44.24,0,0,0,221.18,246.35Zm0,73.73a29.49,29.49,0,1,1,29.49-29.49A29.49,29.49,0,0,1,221.18,320.08Z" transform="translate(0 -67.01)"/><path class="cls-2" d="M300.22,354.36a94.74,94.74,0,0,0-7.69-6.89l.08-.22a180.47,180.47,0,0,0-67.15-202.74,7.36,7.36,0,0,0-8.56,0,180.47,180.47,0,0,0-67.15,202.74l.08.22a94.13,94.13,0,0,0-7.59,140,7.37,7.37,0,0,0,12.51-4.17l5.57-38.95a7.37,7.37,0,0,1,7.29-6.33h22.46l-5.61,28a7.38,7.38,0,0,0,7.23,8.84h59a7.39,7.39,0,0,0,7.38-7.37,7.26,7.26,0,0,0-.15-1.47l-5.61-28h22.46a7.37,7.37,0,0,1,7.29,6.33l5.57,38.95a7.37,7.37,0,0,0,12.51,4.17A94.14,94.14,0,0,0,300.22,354.36Zm-79-194.69a166.43,166.43,0,0,1,43.59,49.82H177.59A166.43,166.43,0,0,1,221.18,159.67ZM167.61,423.3a22.22,22.22,0,0,0-21.89,19l-3.19,22.36a79.29,79.29,0,0,1-12.9-50.41h0a79.49,79.49,0,0,1,25.06-51.68L174.2,423.3Zm33.07,36.86L205.11,438h32.14l4.43,22.12Zm-11-36.86-24.27-75.51-1.62-5.06a165.75,165.75,0,0,1,6.38-118.5h102a165.75,165.75,0,0,1,6.38,118.5l-1.62,5.06L252.67,423.3Zm110.14,41.35-3.19-22.36a22.22,22.22,0,0,0-21.89-19h-6.59l19.52-60.74a79.62,79.62,0,0,1,12.15,102.09Z" transform="translate(0 -67.01)"/><path class="cls-2" d="M191.69,489.06v24A51.1,51.1,0,0,0,141,525.5a59.18,59.18,0,0,0-45.13-21.1A58,58,0,0,0,80,506.61a73.36,73.36,0,0,0-72.6-61.2H0v14.75H7.37a58.65,58.65,0,0,1,58.52,52.65,59.2,59.2,0,0,0-18.22,16.54A73.34,73.34,0,0,0,0,511.77v14.74a59.06,59.06,0,0,1,59,59H73.73a73.24,73.24,0,0,0-15.49-45.07,44.49,44.49,0,0,1,18.33-16.86.29.29,0,0,0,.23-.07,43.76,43.76,0,0,1,19-4.35,44.37,44.37,0,0,1,35.95,18.67,55,55,0,0,0-6.45,25.57h14.74a39.82,39.82,0,0,1,6.14-21.3h0c.1-.14.24-.25.34-.39a36.73,36.73,0,0,1,45.17-13V548h14.74v-59Z" transform="translate(0 -67.01)"/><path class="cls-2" d="M435,460.16h7.37V445.41H435a73.36,73.36,0,0,0-72.6,61.2,58,58,0,0,0-15.87-2.21,59.17,59.17,0,0,0-45.13,21.07,51.14,51.14,0,0,0-50.72-12.4V489H235.93v59h14.74V528.73a36.73,36.73,0,0,1,45.17,12.95c.1.15.24.25.34.39h0a39.88,39.88,0,0,1,6.14,21.31H317a55,55,0,0,0-6.45-25.57,44.37,44.37,0,0,1,35.95-18.67,43.64,43.64,0,0,1,19,4.37l.23.07a44.39,44.39,0,0,1,18.36,16.84,73.31,73.31,0,0,0-15.52,45.07h14.75a59.06,59.06,0,0,1,59-59V511.77a73.34,73.34,0,0,0-47.67,17.58,59.2,59.2,0,0,0-18.22-16.54A58.65,58.65,0,0,1,435,460.16Z" transform="translate(0 -67.01)"/><rect class="cls-3" x="184.32" y="289.93" width="14.75" height="14.75"/><rect class="cls-3" x="213.81" y="289.93" width="14.75" height="14.75"/><rect class="cls-3" x="243.3" y="289.93" width="14.75" height="14.75"/><rect class="cls-3" x="81.1" y="463.37" width="14.75" height="14.75"/><rect class="cls-3" y="345.4" width="14.75" height="14.75"/><rect class="cls-3" x="412.87" y="411.76" width="14.75" height="14.75"/><rect class="cls-3" x="353.89" y="382.27" width="14.75" height="14.75"/><rect class="cls-3" x="272.79" y="500.23" width="14.75" height="14.75"/><rect class="cls-3" x="427.61" y="330.66" width="14.75" height="14.75"/></svg>