<svg id="Calque_1" data-name="Calque 1" xmlns="http://www.w3.org/2000/svg" viewBox="0 0 221.27 40.12"><defs><style>.cls-1{fill:#0f393a;}.cls-2{fill:none;stroke:#0f393a;stroke-miterlimit:10;stroke-width:0.75px;}</style></defs><title>prix-electricite</title><path class="cls-1" d="M14.15,15.89a6.8,6.8,0,0,1,2.64,3,10.28,10.28,0,0,1,.95,4.57A10.28,10.28,0,0,1,16.79,28a6.85,6.85,0,0,1-2.64,3,7.14,7.14,0,0,1-3.8,1,6.29,6.29,0,0,1-3.6-1,5.51,5.51,0,0,1-2.13-2.7V39.74H.37V15.08H4.62v3.46a5.42,5.42,0,0,1,2.13-2.68,6.29,6.29,0,0,1,3.6-1A7.17,7.17,0,0,1,14.15,15.89Zm-8.31,4a4.9,4.9,0,0,0-1.25,3.54,4.92,4.92,0,0,0,1.25,3.51A4.22,4.22,0,0,0,9,28.25,4.19,4.19,0,0,0,12.22,27a5,5,0,0,0,1.21-3.54,5,5,0,0,0-1.21-3.56A4.17,4.17,0,0,0,9,18.57,4.27,4.27,0,0,0,5.84,19.89Z" transform="translate(0 0)"/><path class="cls-1" d="M27.48,15.76a6.47,6.47,0,0,1,3.43-.92v4.55H29.68c-3.12,0-4.68,1.44-4.68,4.34v8.05H20.75V15.08H25v3.19A7,7,0,0,1,27.48,15.76Z" transform="translate(0 0)"/><path class="cls-1" d="M33.51,8.61a3.08,3.08,0,0,1,3.79,0,2.25,2.25,0,0,1,.14,3.18.93.93,0,0,1-.14.14,3.14,3.14,0,0,1-3.79,0,2.25,2.25,0,0,1-.14-3.18A.93.93,0,0,1,33.51,8.61Zm4,6.47v16.7H33.28V15.08Z" transform="translate(0 0)"/><path class="cls-1" d="M51.53,31.78l-3.79-5.37-3.2,5.37H39.87l5.51-8.71-5.63-8h4.76l3.71,5.27,3.19-5.27h4.68l-5.61,8.48,5.8,8.23Z" transform="translate(0 0)"/><path class="cls-2" d="M14.15,15.89a6.8,6.8,0,0,1,2.64,3,10.28,10.28,0,0,1,.95,4.57A10.28,10.28,0,0,1,16.79,28a6.85,6.85,0,0,1-2.64,3,7.14,7.14,0,0,1-3.8,1,6.29,6.29,0,0,1-3.6-1,5.51,5.51,0,0,1-2.13-2.7V39.74H.37V15.08H4.62v3.46a5.42,5.42,0,0,1,2.13-2.68,6.29,6.29,0,0,1,3.6-1A7.17,7.17,0,0,1,14.15,15.89Zm-8.31,4a4.9,4.9,0,0,0-1.25,3.54,4.92,4.92,0,0,0,1.25,3.51A4.22,4.22,0,0,0,9,28.25,4.19,4.19,0,0,0,12.22,27a5,5,0,0,0,1.21-3.54,5,5,0,0,0-1.21-3.56A4.17,4.17,0,0,0,9,18.57,4.27,4.27,0,0,0,5.84,19.89Z" transform="translate(0 0)"/><path class="cls-2" d="M27.48,15.76a6.47,6.47,0,0,1,3.43-.92v4.55H29.68c-3.12,0-4.68,1.44-4.68,4.34v8.05H20.75V15.08H25v3.19A7,7,0,0,1,27.48,15.76Z" transform="translate(0 0)"/><path class="cls-2" d="M33.51,8.61a3.08,3.08,0,0,1,3.79,0,2.25,2.25,0,0,1,.14,3.18.93.93,0,0,1-.14.14,3.14,3.14,0,0,1-3.79,0,2.25,2.25,0,0,1-.14-3.18A.93.93,0,0,1,33.51,8.61Zm4,6.47v16.7H33.28V15.08Z" transform="translate(0 0)"/><path class="cls-2" d="M51.53,31.78l-3.79-5.37-3.2,5.37H39.87l5.51-8.71-5.63-8h4.76l3.71,5.27,3.19-5.27h4.68l-5.61,8.48,5.8,8.23Z" transform="translate(0 0)"/><path class="cls-1" d="M74.87,24.09H61.64a5.83,5.83,0,0,0,1.64,4.25A5.29,5.29,0,0,0,67,29.76a5.46,5.46,0,0,0,3.34-1A4.16,4.16,0,0,0,72,26.06H74.9a6.91,6.91,0,0,1-4,5.19,9.06,9.06,0,0,1-3.74.75,8.51,8.51,0,0,1-4.22-1,7.28,7.28,0,0,1-2.88-2.94,9.24,9.24,0,0,1-1-4.5,9.43,9.43,0,0,1,1-4.52,7.3,7.3,0,0,1,2.88-3,8.61,8.61,0,0,1,4.22-1,8.34,8.34,0,0,1,4.21,1,7.07,7.07,0,0,1,2.74,2.74,7.63,7.63,0,0,1,1,3.8A8.54,8.54,0,0,1,74.87,24.09Zm-3.25-4.4a4.5,4.5,0,0,0-1.9-1.84,5.86,5.86,0,0,0-2.63-.6,5.37,5.37,0,0,0-3.81,1.4,5.64,5.64,0,0,0-1.66,4.11h10.6A5.64,5.64,0,0,0,71.62,19.69ZM72,10.4l-6.42,3.53v-2L72,8.18Z" transform="translate(0 0)"/><path class="cls-1" d="M81.28,9.47V31.78h-2.7V9.47Z" transform="translate(0 0)"/><path class="cls-1" d="M100.83,24.09H87.59a5.79,5.79,0,0,0,1.62,4.25,5.18,5.18,0,0,0,3.72,1.42,5.43,5.43,0,0,0,3.33-1,4.18,4.18,0,0,0,1.65-2.7h2.92a6.91,6.91,0,0,1-4,5.19,9.06,9.06,0,0,1-3.74.75,8.51,8.51,0,0,1-4.22-1A7.28,7.28,0,0,1,86,28.06a9.24,9.24,0,0,1-1-4.5A9.43,9.43,0,0,1,86,19a7.3,7.3,0,0,1,2.88-3,8.61,8.61,0,0,1,4.22-1,8.34,8.34,0,0,1,4.21,1A7.07,7.07,0,0,1,100,18.78a7.79,7.79,0,0,1,1,3.8A7.73,7.73,0,0,1,100.83,24.09Zm-3.26-4.4a4.47,4.47,0,0,0-1.89-1.84,5.86,5.86,0,0,0-2.63-.6,5.43,5.43,0,0,0-3.8,1.4,5.69,5.69,0,0,0-1.66,4.11H98.18A5.54,5.54,0,0,0,97.57,19.69Z" transform="translate(0 0)"/><path class="cls-1" d="M117.11,16.7a7.19,7.19,0,0,1,2.56,4.53h-2.89a4.28,4.28,0,0,0-1.64-2.79,5.83,5.83,0,0,0-6-.35,4.71,4.71,0,0,0-1.86,2.09,7.22,7.22,0,0,0-.72,3.39,7.22,7.22,0,0,0,.72,3.39,4.81,4.81,0,0,0,1.92,2,5.25,5.25,0,0,0,2.63.67,5.33,5.33,0,0,0,3.34-1,4.3,4.3,0,0,0,1.64-2.8h2.89a7.1,7.1,0,0,1-2.56,4.54A8.14,8.14,0,0,1,111.89,32a8.51,8.51,0,0,1-4.22-1,7.28,7.28,0,0,1-2.88-2.94,9.24,9.24,0,0,1-1-4.5,9.43,9.43,0,0,1,1-4.52,7.3,7.3,0,0,1,2.88-3,8.61,8.61,0,0,1,4.22-1A8.09,8.09,0,0,1,117.11,16.7Z" transform="translate(0 0)"/><path class="cls-1" d="M131.16,29.37v2.41h-2a5.26,5.26,0,0,1-3.88-1.21,5.47,5.47,0,0,1-1.25-4v-9h-2.47V15.23H124V11.1h2.78v4.13h4.28v2.38h-4.28v9a3.07,3.07,0,0,0,.59,2.19,2.83,2.83,0,0,0,2,.59Z" transform="translate(0 0)"/><path class="cls-1" d="M139.63,15.91a7,7,0,0,1,3.74-.95v3h-.85a5.82,5.82,0,0,0-3.79,1.22,4.77,4.77,0,0,0-1.45,3.89v8.71h-2.75V15.23h2.75v3.34A6.06,6.06,0,0,1,139.63,15.91Z" transform="translate(0 0)"/><path class="cls-1" d="M146.11,9.18a2.18,2.18,0,0,1,2.71,0,1.69,1.69,0,0,1,.05,2.39l-.05,0a2.18,2.18,0,0,1-2.71,0,1.72,1.72,0,0,1,0-2.42Zm2.71,6.08V31.78h-2.74V15.23Z" transform="translate(0 0)"/><path class="cls-1" d="M165.8,16.7a7.19,7.19,0,0,1,2.56,4.53h-2.89a4.19,4.19,0,0,0-1.65-2.79,5.3,5.3,0,0,0-3.33-1,5.42,5.42,0,0,0-2.64.66,4.78,4.78,0,0,0-1.91,2,7.22,7.22,0,0,0-.72,3.39,7.22,7.22,0,0,0,.72,3.39,4.84,4.84,0,0,0,1.91,2,5.74,5.74,0,0,0,6-.36,4.25,4.25,0,0,0,1.65-2.8h2.89a7.1,7.1,0,0,1-2.56,4.54,8.14,8.14,0,0,1-5.25,1.67,8.51,8.51,0,0,1-4.22-1A7.28,7.28,0,0,1,153.48,28a9.24,9.24,0,0,1-1-4.5,9.43,9.43,0,0,1,1-4.52,7.3,7.3,0,0,1,2.88-3,8.61,8.61,0,0,1,4.22-1A8.09,8.09,0,0,1,165.8,16.7Z" transform="translate(0 0)"/><path class="cls-1" d="M172,9.18a2.18,2.18,0,0,1,2.71,0,1.72,1.72,0,0,1,0,2.42l0,0a2.18,2.18,0,0,1-2.71,0,1.72,1.72,0,0,1,0-2.42Zm2.71,6.08V31.78H172V15.23Z" transform="translate(0 0)"/><path class="cls-1" d="M187,29.37v2.41h-2.05a5.2,5.2,0,0,1-3.78-1.21,5.37,5.37,0,0,1-1.25-4v-9h-2.47V15.23h2.47V11.1h2.77v4.13H187v2.38h-4.28v9a3.12,3.12,0,0,0,.6,2.17,2.83,2.83,0,0,0,2,.59Z" transform="translate(0 0)"/><path class="cls-1" d="M205.44,24.09H192.21a5.82,5.82,0,0,0,1.61,4.25,5.29,5.29,0,0,0,3.72,1.42,5.46,5.46,0,0,0,3.34-1,4.16,4.16,0,0,0,1.64-2.7h2.92a6.87,6.87,0,0,1-1.34,3.12,7,7,0,0,1-2.7,2.11,9.06,9.06,0,0,1-3.74.75,8.51,8.51,0,0,1-4.22-1,7.19,7.19,0,0,1-2.87-2.94,9.24,9.24,0,0,1-1-4.5,9.32,9.32,0,0,1,1-4.52,7.22,7.22,0,0,1,2.87-3,8.61,8.61,0,0,1,4.22-1,8.34,8.34,0,0,1,4.21,1,7.07,7.07,0,0,1,2.74,2.74,7.63,7.63,0,0,1,.95,3.8A9.11,9.11,0,0,1,205.44,24.09Zm-3.25-4.4a4.5,4.5,0,0,0-1.9-1.84,5.86,5.86,0,0,0-2.63-.6,5.39,5.39,0,0,0-3.79,1.4,5.64,5.64,0,0,0-1.66,4.11h10.58A5.64,5.64,0,0,0,202.19,19.69Z" transform="translate(0 0)"/><path class="cls-1" d="M197.78,11.68h-.1a.9.9,0,0,1-.9-.9V4.38a.9.9,0,0,1,.9-.9h.1a.9.9,0,0,1,.9.9v6.4A.9.9,0,0,1,197.78,11.68Z" transform="translate(0 0)"/><path class="cls-1" d="M209.58,23.88v-.1a.9.9,0,0,1,.9-.9h6.4a.9.9,0,0,1,.9.9v.1a.9.9,0,0,1-.9.9h-6.4A.9.9,0,0,1,209.58,23.88Z" transform="translate(0 0)"/><path class="cls-1" d="M206.18,15.38l-.1-.1a1,1,0,0,1,0-1.3l4.5-4.5a1,1,0,0,1,1.3,0l.1.1a1,1,0,0,1,0,1.3l-4.5,4.5A1,1,0,0,1,206.18,15.38Z" transform="translate(0 0)"/><path class="cls-1" d="M202.18,12.68h0a1,1,0,0,1-.6-1.2l4.3-10.9A.88.88,0,0,1,207,.05l.07,0h0a.88.88,0,0,1,.53,1.13l0,.07-4.3,10.9a.8.8,0,0,1-1,.53Z" transform="translate(0 0)"/><path class="cls-1" d="M208.58,19.28h0a1,1,0,0,1,.5-1.3l10.9-4.5a.88.88,0,0,1,1.17.43l0,.07h0a.88.88,0,0,1-.43,1.17l-.07,0-10.9,4.5a.79.79,0,0,1-1.11-.22A.76.76,0,0,1,208.58,19.28Z" transform="translate(0 0)"/></svg>