<svg id="Calque_1" data-name="Calque 1" xmlns="http://www.w3.org/2000/svg" viewBox="0 0 123.36 49"><defs><style>.cls-1,.cls-3{fill:#0f393a;}.cls-2,.cls-3{isolation:isolate;}.cls-3{font-size:29.12px;font-family:Minimo-Light, Minimo;font-weight:300;letter-spacing:-0.05em;}.cls-4{fill:none;stroke:#0f393a;stroke-miterlimit:10;}</style></defs><title>prix-du-carburant</title><path class="cls-1" d="M100.72,8.22H90.6a.64.64,0,0,0-.63.64V12a.63.63,0,0,0,.63.63h10.12a.63.63,0,0,0,.63-.63h0V8.86A.64.64,0,0,0,100.72,8.22Zm-.63,3.17H91.24V9.49h8.85Z" transform="translate(-1.63 -0.04)"/><path class="cls-1" d="M85.17,8.86h.75a.26.26,0,0,1,.26.25V21.25a.26.26,0,0,1-.26.25h-.75a.26.26,0,0,1-.26-.25V9.11A.26.26,0,0,1,85.17,8.86Z" transform="translate(-1.63 -0.04)"/><path class="cls-1" d="M122.85,45.7h1.73a.41.41,0,0,1,.41.41h0v1.72a.41.41,0,0,1-.4.42h-1.74a.41.41,0,0,1-.41-.41h0V46.12a.41.41,0,0,1,.4-.42Z" transform="translate(-1.63 -0.04)"/><path class="cls-1" d="M90.18,13.92H91a.22.22,0,0,1,.21.2V15a.21.21,0,0,1-.21.21h-.85A.21.21,0,0,1,90,15h0v-.85a.2.2,0,0,1,.2-.2Z" transform="translate(-1.63 -0.04)"/><path class="cls-1" d="M116.74,17.71h.85a.21.21,0,0,1,.21.21h0v.85a.22.22,0,0,1-.21.2h-.85a.2.2,0,0,1-.21-.19h0v-.85a.21.21,0,0,1,.21-.21Z" transform="translate(-1.63 -0.04)"/><path class="cls-1" d="M90.18,16.45H91a.22.22,0,0,1,.21.2v.85a.21.21,0,0,1-.21.21h-.85A.21.21,0,0,1,90,17.5h0v-.85a.2.2,0,0,1,.2-.2Z" transform="translate(-1.63 -0.04)"/><path class="cls-1" d="M85.12,22.77H86a.22.22,0,0,1,.21.2v.86A.22.22,0,0,1,86,24h-.85a.2.2,0,0,1-.21-.19h0V23a.2.2,0,0,1,.2-.2Z" transform="translate(-1.63 -0.04)"/><path class="cls-1" d="M94.64,5.69h-5.3a1.9,1.9,0,0,0-1.9,1.9v19h-.59a.64.64,0,0,0-.63.64v2.53a.63.63,0,0,0,.63.63h17.71a.63.63,0,0,0,.63-.63h0V27.2a.64.64,0,0,0-.63-.64h-.71V17.08h1.9a.63.63,0,0,0,.63-.63h0V13.28a1.9,1.9,0,0,1,1.9,1.9v9.17a3.5,3.5,0,0,0,7,0V15.81h.63a.63.63,0,0,0,.63-.63h0v-1.9h.63a.64.64,0,0,0,.64-.63V.65a.63.63,0,0,0-.3-.53.62.62,0,0,0-.62,0l-2.54,1.21a.65.65,0,0,0-.35.57v4L111.85,7a.62.62,0,0,0-.35.56v5.06a.64.64,0,0,0,.64.63h.63v1.9a.63.63,0,0,0,.63.63H114v8.54a2.21,2.21,0,0,1-4.42,0V15.18A3.17,3.17,0,0,0,106.44,12V8.86a.64.64,0,0,0-.63-.64h-2V7.58A1.9,1.9,0,0,0,102,5.68H95.88m8,23.4H87.44V27.83h16.41Zm-15.17-2.5v-19A.63.63,0,0,1,89.34,7H102a.63.63,0,0,1,.63.63h0v19Zm16.44-10.77h-1.3V9.49h1.27ZM115.27,2.29l1.26-.63v3l-1.26.63Zm0,12.26H114V13.28h1.27ZM116.53,12h-3.79V8l3.79-1.89Z" transform="translate(-1.63 -0.04)"/><path class="cls-1" d="M116.53,24a5,5,0,0,1-4.76,5,.32.32,0,0,0-.3.3V30a.31.31,0,0,0,.31.31h0a6.34,6.34,0,0,0,6-6.32V20.58a.31.31,0,0,0-.31-.3h-.63a.31.31,0,0,0-.31.3Z" transform="translate(-1.63 -0.04)"/><g class="cls-2"><g class="cls-2"><path class="cls-1" d="M14.28,45.37a.39.39,0,0,1,.26.52C13.5,48,11.15,49,8.41,49c-3.81,0-6.78-2.21-6.78-6.17s3-6.17,6.78-6.17c2.87,0,5.29,1.16,6.23,3.4.1.2,0,.41-.29.5l-2,.49a.42.42,0,0,1-.59-.26,3.93,3.93,0,0,0-3.39-1.57c-1.66,0-3.78.7-3.78,3.61s2.12,3.61,3.78,3.61A3.89,3.89,0,0,0,11.71,45a.47.47,0,0,1,.62-.23Z" transform="translate(-1.63 -0.04)"/></g><g class="cls-2"><path class="cls-1" d="M29.64,48.28c0,.26-.16.41-.46.41H27.1c-.3,0-.46-.15-.46-.41V47.12A5.49,5.49,0,0,1,22.2,49a5.92,5.92,0,0,1-6.26-6c0-3.94,3.07-6.26,6.92-6.26s6.78,2.09,6.78,6.28Zm-6.78-9c-1.67,0-3.88.87-3.88,3.61a3.41,3.41,0,0,0,3.49,3.69c1.63.09,4.17-.72,4.17-3.6S24.52,39.26,22.86,39.26Z" transform="translate(-1.63 -0.04)"/><path class="cls-1" d="M39.78,39.17a.39.39,0,0,1-.52.32,9.83,9.83,0,0,0-1.6-.15c-1.43,0-2.74.47-2.74,2.33v6.61c0,.26-.16.41-.45.41H32.38c-.29,0-.46-.15-.46-.41V41.67c0-3.61,2.42-4.92,5.42-4.92a10.11,10.11,0,0,1,2.41.29c.26.09.46.3.36.53Z" transform="translate(-1.63 -0.04)"/><path class="cls-1" d="M41.51,28.72c0-.26.17-.41.46-.41h2.09c.29,0,.45.15.45.41v9.4A5.55,5.55,0,0,1,48.3,36.7c3.81,0,6.78,2.12,6.78,6.17,0,3.58-3,6.17-6.78,6.17s-6.79-2.13-6.79-6.17ZM48.3,46.48c1.66,0,3.78-.79,3.78-3.61S50,39.26,48.3,39.26s-3.79.7-3.79,3.61S46.63,46.48,48.3,46.48Z" transform="translate(-1.63 -0.04)"/><path class="cls-1" d="M66.82,43.22V37.45c0-.26.16-.41.46-.41h2.08c.3,0,.46.15.46.41v5.77c0,3.87-2.77,5.82-6.39,5.82S57,47.09,57,43.22V37.45c0-.26.16-.41.45-.41h2.09c.29,0,.46.15.46.41v5.77c0,2.67,1.92,3.26,3.39,3.26S66.82,45.89,66.82,43.22Z" transform="translate(-1.63 -0.04)"/></g><g class="cls-2"><path class="cls-1" d="M80,39.17a.39.39,0,0,1-.52.32,9.93,9.93,0,0,0-1.6-.15c-1.43,0-2.74.47-2.74,2.33v6.61c0,.26-.16.41-.45.41H72.57c-.29,0-.46-.15-.46-.41V41.67c0-3.61,2.42-4.92,5.42-4.92a10.17,10.17,0,0,1,2.41.29c.26.09.46.3.36.53Z" transform="translate(-1.63 -0.04)"/></g><g class="cls-2"><path class="cls-1" d="M94.25,48.28c0,.26-.16.41-.45.41H91.71c-.29,0-.46-.15-.46-.41V47.12A5.48,5.48,0,0,1,86.82,49a5.92,5.92,0,0,1-6.26-6c0-3.94,3.06-6.26,6.91-6.26s6.78,2.09,6.78,6.28Zm-6.78-9c-1.66,0-3.88.87-3.88,3.61a3.41,3.41,0,0,0,3.49,3.69c1.63.09,4.17-.72,4.17-3.6S89.13,39.26,87.47,39.26Z" transform="translate(-1.63 -0.04)"/><path class="cls-1" d="M99.54,42.52v5.76c0,.26-.16.41-.46.41H97c-.3,0-.46-.15-.46-.41V42.52c0-3.87,2.77-5.82,6.39-5.82s6.39,1.95,6.39,5.82v5.76c0,.26-.16.41-.46.41h-2.08c-.3,0-.46-.15-.46-.41V42.52c0-2.68-1.92-3.26-3.39-3.26S99.54,39.84,99.54,42.52Z" transform="translate(-1.63 -0.04)"/><path class="cls-1" d="M117.54,48.28c0,.26-.16.41-.46.41H115c-.3,0-.46-.15-.46-.41V39.61h-3.46c-.29,0-.45-.15-.45-.41V37.45c0-.26.16-.41.45-.41h3.46V32.5c0-.26.16-.4.46-.4h2.08c.3,0,.46.14.46.4V37H121c.29,0,.45.15.45.41V39.2c0,.26-.16.41-.45.41h-3.46Z" transform="translate(-1.63 -0.04)"/></g></g><g class="cls-2"><path class="cls-1" d="M2.28,20.58c0-4,3-6.17,6.78-6.17s6.79,2.41,6.79,6.17c0,4-3,6.17-6.79,6.17a5.55,5.55,0,0,1-3.78-1.43v9.41c0,.26-.16.4-.45.4H2.74c-.29,0-.46-.14-.46-.4Zm6.78,3.61c1.67,0,3.79-.7,3.79-3.61S10.73,17,9.06,17s-3.78.7-3.78,3.61S7.4,24.19,9.06,24.19Z" transform="translate(-1.63 -0.04)"/><path class="cls-1" d="M25.67,16.88a.4.4,0,0,1-.53.32,9.81,9.81,0,0,0-1.59-.15c-1.44,0-2.74.47-2.74,2.33V26c0,.26-.17.41-.46.41H18.26c-.29,0-.45-.15-.45-.41V19.38c0-3.61,2.41-4.92,5.41-4.92a10.11,10.11,0,0,1,2.41.29c.26.09.46.3.36.53Z" transform="translate(-1.63 -0.04)"/><path class="cls-1" d="M28.9,8.5a1.72,1.72,0,0,1,1.82,1.63,1.84,1.84,0,0,1-3.65,0A1.73,1.73,0,0,1,28.9,8.5ZM30.4,26c0,.26-.17.41-.46.41H27.85c-.29,0-.45-.15-.45-.41V15.16c0-.26.16-.41.45-.41h2.09c.29,0,.46.15.46.41Z" transform="translate(-1.63 -0.04)"/><path class="cls-1" d="M40.15,20.58l4.4,5.5c.1.12,0,.32-.2.32H41.61a.8.8,0,0,1-.71-.35l-2.48-3.26-2.48,3.26a.85.85,0,0,1-.72.35H32.48c-.23,0-.29-.2-.19-.32l4.4-5.5-4.4-5.51c-.1-.11,0-.32.19-.32h2.74a.85.85,0,0,1,.72.35l2.48,3.26L40.9,15.1a.8.8,0,0,1,.71-.35h2.74c.23,0,.3.21.2.32Z" transform="translate(-1.63 -0.04)"/></g><text class="cls-3" transform="translate(44.94 26.36) scale(1.12 1)">du</text><g class="cls-2"><path class="cls-4" d="M60.2,16.76V6.28c0-.17.1-.26.29-.26h1c.2,0,.3.09.3.26V20.55c0,3.84-3,6.2-6.79,6.2s-6.78-2.42-6.78-6.17,2.84-6.17,6.65-6.17A6.24,6.24,0,0,1,60.2,16.76Zm0,3.82c0-3-2-4.92-5.22-4.92s-5.21,1.89-5.21,4.92c0,2.85,1.95,4.86,5.21,4.86S60.2,23.43,60.2,20.58Z" transform="translate(-1.63 -0.04)"/><path class="cls-4" d="M75.2,20.93V15q0-.27.3-.27h1q.3,0,.3.27v5.91c0,3.87-2.58,5.82-6.2,5.82s-6.19-1.95-6.19-5.82V15c0-.18.09-.27.29-.27h1c.19,0,.29.09.29.27v5.91c0,3.69,2.64,4.54,4.63,4.54S75.2,24.62,75.2,20.93Z" transform="translate(-1.63 -0.04)"/></g></svg>