<svg xmlns="http://www.w3.org/2000/svg" viewBox="0 0 82.64 49.43"><defs><style>.cls-1{fill:#347261;}.cls-2{fill:#0f393a;}</style></defs><title>prix-fioul</title><g id="Calque_3" data-name="Calque 3"><polygon class="cls-1" points="54.53 0.29 56.94 3 54.07 25.57 45.85 25.57 43.38 23.09 54.53 0.29"/><polygon class="cls-1" points="78.75 0.53 81.01 3.06 72.2 14.15 78.07 25.57 70.38 25.57 67.7 23.09 68.16 10.96 78.75 0.53"/><polygon class="cls-1" points="63.66 0.53 67.31 3 67.31 6.78 65.48 6.49 63.66 0.91 63.66 0.53"/><polygon class="cls-1" points="68.35 20.09 64.11 25.57 56.16 25.57 53.81 22.83 66.98 15.85 68.35 20.09"/><path class="cls-1" d="M-3.6-3.39S2.65.93,2,4.91s-1.17,9-8.54,9.39h-4l-.91,7.29h-6.13l-3.91-3.18Z" transform="translate(21.94 4.67)"/><polygon class="cls-1" points="0 23.48 4.44 27.07 5.16 21.52 0.4 23.48 0 23.48"/><polygon class="cls-1" points="21.06 23.09 24.4 25.83 31.7 25.83 32.35 15.13 30.82 14.28 21.06 23.09"/><polygon class="cls-1" points="33.79 18.98 33.79 25.83 36.66 24.73 38.48 24.73 37.83 17.54 33.79 17.28 33.79 18.98"/><path class="cls-1" d="M17.79-3.39s5.47,4,5.67,8.17S20.89,12,19,11.89l4.45,11L11,10.65Z" transform="translate(21.94 4.67)"/><polygon class="cls-1" points="22.96 25.57 25.51 27.59 25.51 48.39 18.14 48.39 15.4 45.85 22.96 25.57"/><polygon class="cls-1" points="13.77 25.57 16.44 27.07 16.44 33.75 10.98 34.17 13.3 34.17 16.44 35.87 16.05 40.96 10.51 40.96 10.51 48.39 2.81 48.39 0 46.17 5.55 32.41 6.79 28.57 13.77 25.57"/><path class="cls-1" d="M18.26,19.05s10.22,10.32,10,11.82S28,43.07,16.54,44.63,2.26,33,2.46,29.92s5.87-5,5.87-5Z" transform="translate(21.94 4.67)"/><polygon class="cls-1" points="54.98 25.57 57.53 27.59 57.53 40.11 52.24 39 54.98 25.57"/><path class="cls-1" d="M27.24,38.5s4.56,7.5,11.9,5.74S48,37.91,48,37.91l-1.63-15-2.87-2L40,31.9l-.82,5.17L33,37.91Z" transform="translate(21.94 4.67)"/><polygon class="cls-1" points="73.73 24.73 77.68 27.98 77.68 40.56 76.57 42.33 73.31 39.72 73.73 24.73"/><path class="cls-1" d="M57.89,35.43l2.81,2.22v6.07H48s-3.29-2-2.67-2.48S48,35.43,48,35.43s2.55-6.33,2.61-6.36S57.89,35.43,57.89,35.43Z" transform="translate(21.94 4.67)"/></g><g id="Calque_2" data-name="Calque 2"><path class="cls-2" d="M-21.94,18.8h8.29l1-6.94s9,1.56,11.93-5.68S-4.07-4.38-6.8-4.38H-18.74Z" transform="translate(21.94 4.67)"/><path class="cls-1" d="M-11.4,1.82l-.48,3.43s2.74.68,3.17-1.3S-10.07,1.92-11.4,1.82Z" transform="translate(21.94 4.67)"/><path class="cls-2" d="M-.94,18.81H7.28l1.18-7.5,2.6,7.11s3.4-1.56,2.74-5.15l5.87,5.54L16.41,9.75S20.85,8.64,21,1.82s-8.58-6.19-8.58-6.19l-10.24,0Z" transform="translate(21.94 4.67)"/><path class="cls-1" d="M9.6,1.82,9.12,5.25s2.74.68,3.17-1.3S10.93,1.92,9.6,1.82Z" transform="translate(21.94 4.67)"/><polygon class="cls-2" points="46.12 0.29 42.89 23.09 51.46 23.09 54.53 0.29 46.12 0.29"/><polygon class="cls-2" points="52.96 23.09 62.48 12.52 56.16 0.29 64.18 0.29 66.4 5.09 69.98 0 79.18 0 69.85 11.54 75.79 23.09 67.7 23.09 64.96 18.2 61.83 23.09 52.96 23.09"/><polygon class="cls-2" points="0 25.24 14.16 25.24 14.16 30.98 7.83 30.98 7.83 33.72 13.57 33.72 13.57 38.54 8.03 38.54 8.03 46.17 0 46.17 0 25.24"/><rect class="cls-2" x="15.4" y="25.24" width="7.57" height="20.61"/><path class="cls-2" d="M2.46,30.93c0-.13,0-7.64,8.28-10.81,0,0,3.91-2,4.5-4.38,0,0,7.89,8.35,8.93,11.15s3.46,8.74-5.87,14.35c0,0-6.39,3.78-12.39-2.28A12.2,12.2,0,0,1,2.46,30.93Z" transform="translate(21.94 4.67)"/><path class="cls-1" d="M5.13,29.24s.07-7.31,7.5-7.63c0,0-2.87-.59-5,4.89S5.13,29.24,5.13,29.24Z" transform="translate(21.94 4.67)"/><path class="cls-2" d="M26.46,20.57H33V33.09a1.53,1.53,0,0,0,1.89,1.37s2,.19,2-1.31V20.57h6.65v16s-.06,5.41-8.28,5.22-8.8-5.16-8.8-5.16Z" transform="translate(21.94 4.67)"/><polygon class="cls-2" points="67.31 25.24 75.01 25.24 75.01 39.72 80.16 39.72 80.16 45.85 67.31 45.85 67.31 25.24"/></g></svg>