<svg id="Calque_2" data-name="Calque 2" xmlns="http://www.w3.org/2000/svg" viewBox="0 0 470.26 580"><defs><style>.cls-1{fill:#f8f6f4;}.cls-2{fill:#edcb50;stroke:#edcb50;stroke-miterlimit:10;stroke-width:2px;}.cls-3{fill:#ecca50;}</style></defs><title>rejoindre-poemop-blc</title><path class="cls-1" d="M468.27,452.86c-12.14-8.77-25.84-16.89-35.8-28.19-6.42-7.28-11.92-15.43-17.27-23.64a3.7,3.7,0,0,0-.77-1.18c-2.59-4-5.16-8-7.78-11.92-14.2-21.23-35.74-45.78-31.77-73.15A37.59,37.59,0,0,0,379,301.59c1.4-14-9.59-24.82-23.28-25.49a29.85,29.85,0,0,0-8.63.82c.23-.52.46-1,.66-1.58a28.7,28.7,0,0,0-6-30,28.36,28.36,0,0,0-28.81-7.94c1.17-10.5-1.6-22.57-9.37-29.88-5.14-4.83-12.52-10.39-20.07-11.29a25.68,25.68,0,0,0,3.89-9.07c1.78-9.45-4.5-16.94-11.75-22.08-10.53-7.45-21.55-6.79-31.24-1.87-19.92,4.34-40.3-6.77-59.4-10.72-9.55-2-22-3.62-29.53,4.12a17.48,17.48,0,0,0-4.76,10.47h-.11c-14.88,2.6-31.8,6.85-38.15,22.33-3.56,8.69-1.22,16.32,3.46,22.91a43.45,43.45,0,0,0-7.49,4.71,40.08,40.08,0,0,0-13.67,18.22,33.62,33.62,0,0,0,1.5,26.29,55.9,55.9,0,0,0-9.45,4.79c-6.18,3.65-11.62,8.38-15.11,14.73-6.58,12-3,24.84,6.06,34.32,1,1,2,2.07,3.11,3.08a35.56,35.56,0,0,0-5.73,5.09c-5.29,5.66-11.29,11.51-15.23,18.25-8.66,14.83,2.21,27.65,13.92,36.54l1.51,1.16A272.14,272.14,0,0,1,2,461.58c-5.18,3.83,1,11.66,6.21,7.84A279.15,279.15,0,0,0,49,432.48c1.6,12.25,3.17,24.68,6.87,36.35,4.57,14.37,14.45,25.43,25.71,35.08C93.31,514,106,524.7,121.37,528.37c11.06,2.65,22.45,1.91,33.66.42l-30.67,43.29c-3.72,5.25,4.34,11.17,8.06,5.91q15.21-21.45,30.41-42.92c10-14.09,19.59-28.56,30.11-42.26,9.6-12.5,21-19.93,35.76-25.09,12.44-4.35,25.49-7.41,37.08-13.87a61.13,61.13,0,0,0,6.82-4.42c14.23,20.43,26.52,41.91,39.16,63.43,12.82,21.79,26.69,42.84,45.42,60,4.73,4.35,10.6-3.75,5.91-8.06-18.66-17.15-32.23-38.89-44.88-60.62Q314,497,309.85,489.86a79.08,79.08,0,0,0,27.44,1c13.14-1.68,27.27-5.49,37.85-13.76,5.6-4.38,10.18-9.94,14.59-15.46A219.81,219.81,0,0,0,404.27,442a75,75,0,0,0,10.22-24.07c3,4.24,6.15,8.37,9.52,12.28,10.71,12.39,25.17,21.23,38.35,30.74C467.61,464.66,473.49,456.6,468.27,452.86ZM184,162.45c15.79,3.29,31,10,46.73,11.23a63.58,63.58,0,0,0-5,6c-6.65,9.08-11.66,19.74-20.08,27.42-1.58,1.44-4.38,4.54-6.77,4.41-1.88-.11-5.23-3.16-6.7-4.14-4.6-3.06-9.15-6.22-13.44-9.72-7.71-6.28-16.65-15.14-18-25.51C158.86,158,175,160.58,184,162.45Zm-62.39,40.09c-2.61-7.13,1.69-14,7.42-18.11,6.52-4.65,14.86-6,22.59-7.34a34.51,34.51,0,0,0,1.79,5.12c4.39,9.91,12.44,18,20.82,24.57,4.35,3.43,8.93,6.55,13.55,9.6,3.77,2.49,7.89,5.68,12.7,5.13a14.59,14.59,0,0,0,3.62-.92c4.71,5,9.25,11.12,9.67,18.24.44,7.51-3.92,14.31-11.81,14.78s-16.14-3.12-23-6.24a136.32,136.32,0,0,1-22.88-13.51c-6.92-4.92-13.55-10.25-20.14-15.62C130.61,213.86,124,209.21,121.61,202.54Zm-15.15,31.37a31.42,31.42,0,0,1,6.89-8c2.13-1.77,7.57-6.45,10.42-4.93l.14.07c1.54,1.41,3.11,2.75,4.67,4,13.89,11.37,28.07,22.63,44.34,30.46,2.76,1.33,5.86,2.73,9.15,4,5.17,11.52,3.2,26-7.93,33.35-14,9.16-26.44-.83-37.68-9.18l-19.7-14.63c-5.73-4.26-11.18-8.48-13.15-15.68a25.29,25.29,0,0,1,2.82-19.46ZM78.57,297.67c-1.47-6.36,1.49-12.66,5.91-17.14a36.63,36.63,0,0,1,8.38-6.15c1.47-.82,7.3-4.62,9.11-4.15a4.88,4.88,0,0,0,.55.12,23.78,23.78,0,0,0,2,1.89c6.65,5.84,14.22,10.79,21.32,16.06,6.66,5,13.18,10.42,20.53,14.33a34.19,34.19,0,0,0,4.85,2.11,4.77,4.77,0,0,0,.18,1.4c3.2,11.83-.54,26-11.4,32.8-6.25,3.9-12.08,1.73-17.73-2-6.35-4.22-12.39-9-18.55-13.45-2.55-1.86-5.47-3.81-8.4-5.91A5,5,0,0,0,93.14,316c-6.64-4.95-12.85-10.76-14.6-18.32Zm1.22,72.64c-4.25-3.23-8.52-6.79-11.31-11.41-2.93-4.84-2-9.22,1.17-13.7,2.94-4.23,6.65-8,10.07-11.77,2.47-2.76,5.58-7.24,9.51-7.81,7.76,6.1,16.19,11.55,24,17.2a68.67,68.67,0,0,0,7.75,5,4.85,4.85,0,0,0-.13,3.88c3.69,10.12-3.22,19.89-11.67,25-4.58,2.75-10,4.55-15.26,2.73a35.32,35.32,0,0,1-9.07-5.17,5.33,5.33,0,0,0-1-.77c-1.41-1.11-2.77-2.18-4.09-3.18Zm232.21,15C302.34,398.52,292.93,412,283,424.92A85.08,85.08,0,0,1,270.61,438l-.07.06a67.62,67.62,0,0,1-18.81,11.31c-11.14,4.48-22.9,7.21-34,11.78a75.69,75.69,0,0,0-30.6,22.8c-8.69,10.67-16.46,22.2-24.31,33.59l-.52,0c-12.76,2-26.22,4.2-39,1-13.77-3.41-25.37-13.76-35.89-22.76s-19.34-19.39-23-33c-3.55-13.1-4.83-27-6.75-40.44a278.28,278.28,0,0,0,25.82-37.08,30.71,30.71,0,0,0,11.43,4.52c7,1.06,14-1.36,19.87-5,11.76-7.27,19.35-20.26,16.23-33.8,6.75.66,13.24-2.3,18.22-6.7a39.9,39.9,0,0,0,12.44-37.85,32.28,32.28,0,0,0,22.58-8.95c9.42-9,12.31-22.35,9.45-34.61,8.23,1.51,16.48.81,22.66-5,13.2-12.53,6.48-31.23-3.94-43,4.72-4.48,8.69-10.35,11.59-14.67,6.44-9.58,12.23-21.18,22.48-27.31l.41-.23a50.94,50.94,0,0,0,5.42-1.45,4.62,4.62,0,0,0,2.09-1.32c8.33-1.54,17.12,1.48,22,9.47,2.81,4.66.38,9.06-2.36,13.06s-5.74,7.91-7.88,12.34c-1,1.12-1.89,2.25-2.8,3.34a189,189,0,0,0-13,17.48c-3.53,5.35,4.52,11.3,8.07,5.91,2.77-4.21,5.67-8.33,8.76-12.32,1.81-2.33,3.67-5,5.72-7.33a4.85,4.85,0,0,0,1.71-1.83,23,23,0,0,1,2.18-2c6.64-5.29,16.46,2.83,21,7.82,5,5.39,7.48,18.58,3.28,24.88-1.11,1.68-2.27,3.33-3.45,5-6.19,5.37-11.1,12.34-15.36,19.37-2.92,4.8,3,10,6.68,7.41a4.71,4.71,0,0,0,2.56-1.84l12.24-16.57,1-1.39a30.79,30.79,0,0,1,7.84-4.76c8.31-3.43,17.24-1.74,22.87,5.47,13.54,17.34-10,33.72-17.73,47.61a5.58,5.58,0,0,0,2.29,7.54h0l.14.07c2,1.7,5,2,6.73-1,6.33-11,16.62-24.42,31.11-21.27,12.24,2.65,12.29,14.05,8,23.34a5.1,5.1,0,0,0-.67,1.34l-.28.55c-6.76,12.36-16.55,23.55-24.84,34.89Zm57,84c-9.05,7.07-21.18,10.07-32.36,11.61-11.68,1.61-23.4.78-34.28-3.95l-.23-.09c-7-11.5-14.15-22.85-21.9-33.89,6.5-6.3,12-13.61,17.46-21.07L329,379.16l31.85-43.56c1.36-1.85,2.79-3.73,4.22-5.65,3.35,22.44,19.41,42.63,31.67,61,3.07,4.59,6.06,9.28,9.09,14,.69,12.5-4.73,24.21-11.58,34.37-7.11,10.3-15.29,22.14-25.28,29.93Z" transform="translate(-0.05 -0.04)"/><path class="cls-2" d="M207.87,446.56c-24.51,9.72-38,34.86-52,55.64-2.43,3.62,3.41,7,5.83,3.41,12.76-19,25.49-43.64,47.94-52.54C213.61,451.49,211.91,445,207.87,446.56Z" transform="translate(-0.05 -0.04)"/><path class="cls-2" d="M385.61,391c-6.87-15.44-19.4-27.35-23-44.29-.91-4.24-7.41-2.45-6.5,1.8,3.77,17.58,16.59,29.9,23.71,45.89C381.53,398.39,387.35,395,385.61,391Z" transform="translate(-0.05 -0.04)"/><path class="cls-3" d="M269.25,5.86a7.67,7.67,0,0,1,.33,4.52q-5.7,38-11.42,76a8.51,8.51,0,0,1-9.43,7.48l-.27,0a8.56,8.56,0,0,1-7.37-9.59l.06-.37c2.79-19,5.68-38,8.53-57,1-6.44,1.87-12.88,2.88-19.32a8.62,8.62,0,0,1,16.69-1.68Z" transform="translate(-0.05 -0.04)"/><path class="cls-3" d="M356.37,79c5.32-2,10.19-.29,12.16,4.41s0,9.13-5.44,11.6c-2.6,1.19-5.16,2.46-7.72,3.71a254.72,254.72,0,0,0-42.65,26.89c-3,2.34-6.21,2.21-9.38.34a8.47,8.47,0,0,1-4.37-9,8.31,8.31,0,0,1,3.46-5.31,264.67,264.67,0,0,1,49.21-30.26C353.25,80.7,354.8,79.86,356.37,79Z" transform="translate(-0.05 -0.04)"/><path class="cls-3" d="M155.15,49.47A182.88,182.88,0,0,0,178,91.75c3,4.14,2.51,8.92-1.08,11.94a8.7,8.7,0,0,1-12.28-.76,6.78,6.78,0,0,1-.53-.67,194,194,0,0,1-13.9-22c-4.84-8.62-8.44-17.8-12.27-26.88a44.45,44.45,0,0,1-2.07-6.77,8.73,8.73,0,0,1,5.35-9.82c4.22-1.45,9.33.62,11,4.59C153.26,44.06,154.16,46.78,155.15,49.47Z" transform="translate(-0.05 -0.04)"/></svg>