<svg xmlns="http://www.w3.org/2000/svg" viewBox="0 0 412.72 478.14"><defs><style>.cls-1{fill:#edcb50;}.cls-2{fill:#11393a;}</style></defs><title>rejoignez-poemop</title><g id="Calque_1" data-name="Calque 1"><path class="cls-1" d="M17.07,42.14c-2,2.4-6.1,5.41-9.55,15.17a18,18,0,0,1-1.08,2.56A1.56,1.56,0,0,1,3.7,60C2,57.65,1.78,53.8-4,47.25c-3.41-3.85-6.67-5-3.93-7.44,6.82-6,9-14.92,10.25-17.28a1.5,1.5,0,0,1,2.55-.25,12.6,12.6,0,0,1,1.67,3.19A36.13,36.13,0,0,0,16.74,39.16C17.23,39.61,17.75,41.31,17.07,42.14Z" transform="translate(68.93 -4.22)"/><path class="cls-1" d="M-3.88,181.89c-2,2.41-6.09,5.42-9.55,15.18a16.92,16.92,0,0,1-1.08,2.56,1.56,1.56,0,0,1-2.74.17C-19,197.41-19.17,193.55-25,187c-3.4-3.84-6.67-5-3.93-7.43,6.83-6,9-14.92,10.26-17.29A1.5,1.5,0,0,1-16.1,162a12.7,12.7,0,0,1,1.68,3.2A36,36,0,0,0-4.21,178.92C-3.72,179.37-3.2,181.06-3.88,181.89Z" transform="translate(68.93 -4.22)"/><path class="cls-1" d="M-38.95,108.75a19.86,19.86,0,0,1-1.49,1.68c-7.49,7.37-9.12,15.77-10.75,18.75a1.8,1.8,0,0,1-3.16.2,12.7,12.7,0,0,1-1.48-2.83c-6-15.41-16.65-16.3-11.93-20.47,7.86-7,10.4-17.19,11.81-19.91A1.72,1.72,0,0,1-53,85.88a14.36,14.36,0,0,1,1.93,3.68,41.61,41.61,0,0,0,11.76,15.76C-38.76,105.84-38.16,107.8-38.95,108.75Z" transform="translate(68.93 -4.22)"/></g><g id="Calque_2" data-name="Calque 2"><path class="cls-2" d="M339.55,318.88c-4.45-16.94-14.83-33-15.89-50.65l1.52-8.52a7.31,7.31,0,0,0,.11-1.11l1.52-8.74a6.73,6.73,0,0,0,.09-1.27,4.8,4.8,0,0,0-2.4-5,3.55,3.55,0,0,0-1.57-.6h-.07l-.2,0-32-6c5.15-6.49,8.13-14.26,5.41-22.92-3.2-10.15-12.57-15.94-22.84-16.66-9.84-.69-21,3.15-25.79,12.3a25.21,25.21,0,0,0-2.21,18.64l-32.4-6a6.12,6.12,0,0,0-1.32-.12,4.63,4.63,0,0,0-4.4,2.52,5.18,5.18,0,0,0-.63,2.3l-8,44.17a4.52,4.52,0,0,0,1.66,4.6,4.24,4.24,0,0,0,5.81.65c6.6-4.43,15-7.09,22.3-2.17,6.18,4.17,7.65,14.68,3.9,20.8-3.66,6-13.53,9.07-19.89,5.53-5.26-2.92-8.59-12.65-16-9.54a5.28,5.28,0,0,0-1.79,1.21,11.79,11.79,0,0,0-.72,2c-.4,1.5,0,3.06-.56,4.6l-.07.15-7.28,40.12a4.92,4.92,0,0,0-.22,1.62,4.73,4.73,0,0,0,4,4.71,4.92,4.92,0,0,0,.71.17L233,353.53a79.14,79.14,0,0,0,.75,18.31c1.59,9.78,6,18.57,9.12,27.87,1.75,5.14,3.11,10.46,2.7,15.93s-2.44,11-4.19,16.19a195.33,195.33,0,0,1-15.45,34.23c-3,5.33,5.19,10.14,8.23,4.81a212,212,0,0,0,13.25-27.81c3.45-8.87,7.39-18.63,7.74-28.26s-3.33-18.53-6.74-27.24c-3.75-9.57-6.31-18.94-6.15-29.3s2.53-20.55,5.8-30.34c2.11-6.31,6.38-23.89,15.49-23.11,10.94.93,1.66,20.75-.23,25.68-2.91,7.61-7.33,18.7-3.73,26.78,4.13,9.31,17.42,5.61,24.3,2,9.65-5,17.76-13.38,26-20.38a4.07,4.07,0,0,0,1.57-3.09h0a7,7,0,0,0,.44-1.51l7.54-42.3c2.37,6.28,5.05,12.49,7.26,18.89,4.85,14.06,9.3,30.54,6.36,45.44-4.88,24.74-24.1,43.71-31.26,67.69-2.27,7.63-2.85,15.42-2.85,23.35a181.54,181.54,0,0,1-2,28.72c-1,6.29,8.63,9,9.64,2.66A175.15,175.15,0,0,0,308.89,455c.19-8.09-.39-16.21,1.44-24.17,2.85-12.43,9.46-23.51,15.79-34.44s12.9-22.23,15.94-34.63C345.56,347.54,343.22,332.84,339.55,318.88Zm-24.2-61.45a5.52,5.52,0,0,0-.09,1l-1.43,8a4.57,4.57,0,0,0-.16.85L302,332.54c0,.22-.07.44-.09.65-7.2,6.26-14.38,13.51-22.87,17.88a21.72,21.72,0,0,1-6.5,2.25c-2.59.4-4.45,1-4.58-1.93-.25-5.08,1.57-10.31,3.26-15,3.23-9,8.76-18.89,6.39-28.76-1.85-7.68-8.72-13.4-16.77-12.09-8.95,1.44-13.79,9.24-17.07,16.94A143.18,143.18,0,0,0,234.5,342c-.1.54-.18,1.09-.27,1.63l-37.77-7,5.71-31.44c.19.2.38.4.58.59a23,23,0,0,0,5.79,4.2c4.47,2.14,10.22,2.14,15,1.5A24,24,0,0,0,244,291c1.39-9.46-2.78-20.86-11.28-25.78-7.25-4.19-15.22-4.41-22.61-2l5.5-30.29L253.5,240c5.29,1,7.67-4.18,5.62-7.45a5.42,5.42,0,0,0-1-1.47c-4.67-4.82-4.94-12.08-1.26-17.66,3.37-5.12,10.72-6.55,16.44-6.06,6.34.54,12.15,4.23,13.59,10.73,1.68,7.62-4.1,13.51-9.32,18.12a4.77,4.77,0,0,0-1.36,1.92,4.94,4.94,0,0,0,3.87,7l36.24,6.76Z" transform="translate(68.93 -4.22)"/><path class="cls-2" d="M330,85.6l-.23-.14L240.29,39.2l-.38-.18c-2.23-1.39-5.61-.83-7.61,3L219.9,66a23.24,23.24,0,0,0-15.4-9.69,25.38,25.38,0,0,0-24.81,11.43c-5.41,8.46-4.68,21.39,2.15,29,5.21,5.78,11.67,7.57,18.52,7.48l-12.68,24.49c-1.67,3.21-.9,5.9.81,7.29a8.75,8.75,0,0,0,2.13,1.52l32.29,16.72c.26.13.51.25.76.35a4.18,4.18,0,0,0,2.76.61,4.57,4.57,0,0,0,4.81-5.58,5.24,5.24,0,0,0-.59-1.95c-2.52-4.88-1.14-13.13,3.65-16.07a17,17,0,0,1,16.9-.12c5.48,3,7,8.11,6.31,14.09-.54,4.63-3.84,7-7.47,9-1.36.63-2.7,1.22-3.94,1.79a4.66,4.66,0,0,0-1.82.91.39.39,0,0,0-.1.08c-2.37,2-2.32,6.27,2.3,8.65l32.29,16.73a9.76,9.76,0,0,0,1.28.54,4.94,4.94,0,0,0,7.05-2.34l45.23-88.14A5,5,0,0,0,330,85.6Zm-49.72,86.61L258.67,161a18.21,18.21,0,0,0,4.52-4.21,20.9,20.9,0,0,0,4.34-12c.36-10.62-4-19-14-23.3-8.79-3.77-19.81-2.71-27.24,3.55-4.48,3.78-6.65,10-6.76,16.15l-21.35-11.06,14.66-28.31a8.63,8.63,0,0,0,.38-.83,4.66,4.66,0,0,0,.54-2.48,4.77,4.77,0,0,0-3-4.7,5,5,0,0,0-3.28-.4c-6.29,1.23-12.48,2-17.58-2.75-4.56-4.28-5-12.84-1.61-17.87a15.28,15.28,0,0,1,15-6.6c6.21,1.08,10.05,6.47,11.45,12.25,1,4.32,6,4.39,8.42,2a8,8,0,0,0,1.74-2.31L239.44,50,321.3,92.33Z" transform="translate(68.93 -4.22)"/><path class="cls-2" d="M55.19,8.82a2.38,2.38,0,0,0,0,.26L41.05,108.86c0,.14,0,.27,0,.41-.57,2.56,1.07,5.57,5.37,6.18l26.7,3.79A23.19,23.19,0,0,0,69,137a25.39,25.39,0,0,0,19,19.64c9.77,2.3,21.74-2.66,26.62-11.6,3.74-6.83,3.29-13.52,1-20l27.3,3.87c3.58.51,5.86-1.1,6.61-3.18a8.63,8.63,0,0,0,.73-2.51l5.11-36c0-.29.07-.57.08-.84a4.21,4.21,0,0,0-.33-2.8,4.58,4.58,0,0,0-6.87-2.69,5.38,5.38,0,0,0-1.64,1.19c-3.77,4-12,5.42-16.37,1.87a17,17,0,0,1-5.7-15.91c1-6.17,5.34-9.28,11.21-10.61,4.55-1,7.87,1.31,11,4.08,1.05,1.07,2.05,2.14,3,3.12a4.8,4.8,0,0,0,1.46,1.42l.12.07c2.71,1.56,6.67.11,7.4-5l5.11-36a9.54,9.54,0,0,0,.1-1.38,5,5,0,0,0-4.55-5.88L61.17,4.29A5,5,0,0,0,55.19,8.82Zm98.18,18.3-3.43,24.13a17.94,17.94,0,0,0-5.46-2.88,20.82,20.82,0,0,0-12.78-.12c-10.14,3.16-16.62,10-17.37,20.91-.65,9.54,4,19.6,12.37,24.53,5,3,11.62,3,17.47,1l-3.38,23.81-31.56-4.48a7.46,7.46,0,0,0-.92-.08,4.53,4.53,0,0,0-2.51.3,4.76,4.76,0,0,0-3.46,4.36,5.07,5.07,0,0,0,.7,3.23c3.25,5.53,6,11.11,3.22,17.49-2.53,5.72-10.49,8.92-16.34,7.43a15.29,15.29,0,0,1-11.17-11.94c-1-6.22,2.79-11.63,7.78-14.86,3.73-2.42,2.17-7.09-.94-8.59a8,8,0,0,0-2.75-.89l-31.3-4.44L64.43,14.83Z" transform="translate(68.93 -4.22)"/><path class="cls-2" d="M5.78,259l.25.11,94.34,35.39.39.13c2.37,1.12,5.67.17,7.2-3.89l9.49-25.25a23.22,23.22,0,0,0,16.44,7.81A25.39,25.39,0,0,0,157.18,259c4.37-9,2.12-21.8-5.55-28.51-5.85-5.12-12.48-6.14-19.27-5.25l9.71-25.81c1.27-3.38.19-6-1.67-7.14a8.42,8.42,0,0,0-2.29-1.26l-34.05-12.8c-.27-.1-.53-.19-.79-.26a4.21,4.21,0,0,0-2.81-.28,4.57,4.57,0,0,0-4.11,6.11,5.1,5.1,0,0,0,.8,1.86c3.09,4.56,2.68,12.92-1.72,16.4a17.05,17.05,0,0,1-16.77,2.11c-5.8-2.37-7.9-7.23-7.92-13.25,0-4.66,3-7.4,6.35-9.82,1.27-.79,2.54-1.53,3.7-2.24a4.78,4.78,0,0,0,1.7-1.11l.09-.1c2.11-2.31,1.56-6.49-3.3-8.32l-34-12.8a11.58,11.58,0,0,0-1.33-.4,5,5,0,0,0-6.73,3.17L2.66,252.17A5,5,0,0,0,5.78,259ZM45,167.12l22.81,8.58a17.68,17.68,0,0,0-4,4.71,20.79,20.79,0,0,0-2.9,12.44c.89,10.59,6.18,18.4,16.65,21.5,9.17,2.7,20,.35,26.63-6.75,4-4.28,5.43-10.7,4.81-16.83l22.5,8.47-11.22,29.84a8.57,8.57,0,0,0-.27.87,4.5,4.5,0,0,0-.25,2.52,4.75,4.75,0,0,0,3.5,4.32,5,5,0,0,0,3.31,0c6.1-2,12.15-3.48,17.77.66,5,3.71,6.43,12.17,3.71,17.56a15.29,15.29,0,0,1-14.08,8.32c-6.3-.35-10.75-5.25-12.82-10.82-1.55-4.16-6.45-3.66-8.59-1a8,8,0,0,0-1.46,2.49L99.94,283.65,13.66,251.28Z" transform="translate(68.93 -4.22)"/></g></svg>