<svg id="Calque_1" data-name="Calque 1" xmlns="http://www.w3.org/2000/svg" viewBox="0 0 450.73 449.24"><defs><style>.cls-1{fill:#9e84b5;stroke:#9e84b5;stroke-width:5px;}.cls-1,.cls-2{stroke-miterlimit:10;}.cls-2{fill:#11393a;stroke:#11393a;stroke-width:4px;}</style></defs><title>statut_10</title><path class="cls-1" d="M150,7.24v77.4c0,9,9.25,9,9.25,0V7.24C159.2-1.71,150-1.72,150,7.24Z" transform="translate(2.5 1.98)"/><path class="cls-1" d="M243.69,45.61l-54.91,54.55c-6.35,6.31.16,12.88,6.52,6.57l54.91-54.55C256.56,45.87,250.05,39.3,243.69,45.61Z" transform="translate(2.5 1.98)"/><path class="cls-1" d="M99.48,189.83,44.57,244.38c-6.35,6.3.16,12.88,6.52,6.56L106,196.39C112.35,190.08,105.84,183.51,99.48,189.83Z" transform="translate(2.5 1.98)"/><path class="cls-1" d="M251.67,314.82l-33.59-99.5c-3.88-11.51-15.78-7.51-11.89,4l33.59,99.51C243.66,330.34,255.56,326.35,251.67,314.82Z" transform="translate(2.5 1.98)"/><path class="cls-1" d="M84.08,143.33,6.68,144c-8.95.08-8.89,9.33.08,9.25l77.39-.64C93.1,152.51,93,143.26,84.08,143.33Z" transform="translate(2.5 1.98)"/><path class="cls-1" d="M105.81,100.18l-54.48-55c-6.3-6.36-12.88.14-6.57,6.51l54.48,55C105.53,113,112.12,106.54,105.81,100.18Z" transform="translate(2.5 1.98)"/><path class="cls-2" d="M444.23,375.81l-.32-.36-87.65-87.54L408.43,235c3.72-3.77,1.16-8.84-2.65-10.27a.35.35,0,0,0-.19-.24l-12.44-4L149.62,137.54a6.54,6.54,0,0,0-2.32-.36c-4-.16-8.18,3.19-6.57,8.07l59.87,181.9a6.8,6.8,0,0,0,.32,1.59L225.73,405a6.86,6.86,0,0,0,10.93,2.53L288.51,355l87.42,87.31a5.36,5.36,0,0,0,2.3,2,6.2,6.2,0,0,0,8.65-2.36l.05,0,56.27-55.5C447.33,382.35,446.8,377.92,444.23,375.81Zm-63,54.08-86.12-86a5.43,5.43,0,0,0-2.09-2.08v0a6.39,6.39,0,0,0-3.68-1.92,5.73,5.73,0,0,0-5.29,1.77l-49.21,49.88a6.92,6.92,0,0,0-.3-1.34l-78-237,231.85,79v0l.78.25,3.14,1.07-49.17,49.86a5.79,5.79,0,0,0-1.8,4.49,6,6,0,0,0,1.92,4.88l88,87.88Z" transform="translate(2.5 1.98)"/></svg>