<?xml version="1.0" encoding="utf-8"?>
<!-- Generator: Adobe Illustrator 24.0.0, SVG Export Plug-In . SVG Version: 6.00 Build 0)  -->
<svg version="1.1" id="Calque_1" xmlns="http://www.w3.org/2000/svg" xmlns:xlink="http://www.w3.org/1999/xlink" x="0px" y="0px"
	 viewBox="0 0 450.7 449.2" style="enable-background:new 0 0 450.7 449.2;" xml:space="preserve">
<style type="text/css">
	.st0{fill:#EDCB50;}
	.st1{fill:#11393A;stroke:#11393A;stroke-width:0.5;stroke-miterlimit:10;}
	.st2{fill:#11393A;}
</style>
<title>statut_10</title>
<circle class="st0" cx="237.2" cy="180.8" r="59.2"/>
<path class="st1" d="M402.7,358.7l0.6-0.6c6.2-8.4,5.1-20.1-2.4-27.4c-8.9-8.1-19.9-5.7-29.8-1.2l-4.6,2.3
	c-1.6-5.9-5.6-10.8-11.1-13.6c-8.5-3.7-18.1-4-26.7-0.7c-5.4,1.6-10.7,3.7-15.7,6.3c-6.1-9.9-17.7-14.9-29.1-12.5
	c-7.8,2.2-15.4,5.2-22.6,8.9c-3.7,1.5-7.3,3.1-10.9,4.8c-3.8,2.3-7.9,4-12.2,5.1c-0.5,0.1-1,0.2-1.4,0.4
	c-28.8-8.1-59.1-13.2-87.9-2.1c-17.6,7.5-34.9,16-51.6,25.3c-5.2,2.7-0.6,10.3,4.4,7.7l9.4-4.9c-3.9,11.1-6.9,22.6-8.9,34.2
	c-1.9,6.4-1.5,13.2,0.9,19.4c2,3.6,4.9,6.7,8.4,8.9c-12.7,8.4-26.2,15.5-40.4,21c-5.4,1.8-3.1,10.3,2.3,8.9
	c18.7-6.1,34.2-18.4,51.8-26.7c17.4-8.4,36.6-12.5,56-12.1c9.8,0.2,19.6,1.6,29.1,4.2c9.9,2.7,19.3,6.7,29.1,9.7
	c19.1,6.5,39.2,9.2,59.3,8.1c19.9-2.2,38.9-8.9,55.8-19.6l27.7-16.6c8.4-3.7,15.8-9.5,21.5-16.8c4-6,4-13.9,0-19.9L402.7,358.7z
	 M343.4,324.2c7-0.2,13.2,4.4,15,11.2c0,0,0,0,0,0.7l-3.2,1.7c-6.2,2.9-12.7,5.3-19.3,7.3c-11.6,4-23,8.8-34,14.3
	c-2.9-5.3-7.3-9.6-12.7-12.3l-1.7-0.9c11.1-4.5,21.5-11.1,32.5-15.9c7.3-3.9,15.4-6,23.6-6.2L343.4,324.2z M279,322.3
	c5-2.5,10.7-3.2,16.2-2c4.1,1.2,7.6,3.9,9.9,7.5c-9.6,5.7-20,10.1-30.8,13h-0.9l-5.6-1.7l-16.6-5.1c2.6-1.3,5.1-2.8,7.6-3.9
	C265.5,327.6,272.2,324.8,279,322.3z M396.1,374.5c-4,7.5-14.6,11.7-21.6,15.8c-8.9,5.2-17.3,10.3-26,15.4
	c-16.4,10.4-35.2,16.5-54.6,17.8c-19,0.3-38-2.7-56-8.9c-8.9-3-17.8-6.7-27.5-8.9c-27.9-7.1-57.4-4.8-84,6.4
	c-1.8,0.7-3.7,1.6-5.4,2.5c-4.7-1.8-8.4-5.4-10.4-10c-0.8-6.5-0.1-13.2,2-19.4c2.6-11.8,6.1-23.4,10.5-34.7
	c18.3-11.7,39.1-18.7,60.7-20.6c28.9,0,57,10.1,84.2,18.5c7.1,1.6,13.8,4.3,20.1,8c6.1,3.4,8.8,10.7,6.2,17.2v0.6
	c-9.1-1.1-18.1-3.1-26.7-6.1c-10.7-4.4-21.7-7.7-33.1-9.8c-11.5-1.7-23.1-1.7-34.6,0c-5.6,0.9-3.2,9.4,2.4,8.9
	c19.5-2.7,39.3-0.1,57.5,7.4c9.4,3.7,19.1,6.3,29.1,7.8c9.4,1.6,18.9,2.5,28.4,2.7c17,0,30.9-8.1,45.7-15.6
	c6.8-3.8,14.3-6.4,22.1-7.5c3.6,0,8.9-0.7,11.2,2.3c1.8,2.9,1.8,6.6,0,9.5L396.1,374.5z M396.1,353.8v0.6c-4.6-0.9-9.4-0.9-14.1,0
	c-17.1,2.7-30.8,14.3-47,19.7c-10,3-20.5,3.7-30.8,2.1c0.9-2.5,1.2-5.2,1.1-7.9c9.3-4.6,18.8-8.7,28.5-12.2
	c9.9-3.1,19.6-6.9,29-11.2c7.6-4,17.8-11.8,26.7-10.3c6.5,1.2,10.8,7.4,9.6,13.9c-0.4,2-1.3,3.9-2.6,5.5L396.1,353.8z"/>
<path class="st2" d="M252.7,179.2c-3.7-2.8-7.6-5.3-11.8-7.4c-3.7-2-8.1-3.6-8.9-8.2c-0.5-2.2,0-4.5,1.2-6.3
	c1.7-1.9,4.2-2.8,6.7-2.5c3.6,0,12.3,2,9.7,7.4c-1.8,3.7,3.7,6.9,5.5,3.1c4.5-9.4-3.9-15.9-12.9-16.8v-9.9c-0.3-1.7-1.9-2.9-3.7-2.6
	c-1.3,0.2-2.4,1.3-2.6,2.6v10.3c-5.1,0.8-9.2,4.8-10.2,9.9c-0.7,3.7-0.1,7.6,1.9,10.9c2.6,3.4,6.1,6.1,10.2,7.7
	c6.3,3.3,20,9.9,14.9,19.1c-3,4.2-7.9,6.5-13,6.1c-4.8,0-10.9-3.2-8.9-8.9c0.3-1.7-0.9-3.4-2.7-3.7c-1.5-0.2-2.9,0.6-3.5,2
	c-1.6,7.5,3.2,14.8,10.7,16.4c0.2,0.1,0.5,0.1,0.7,0.1c0,3.7,0,7.4,0,11.1c0,1.8,1.5,3.2,3.2,3.2c1.7,0,3.2-1.4,3.2-3.2
	c0-3.6,0-7.1,0-10.7c6.5-0.1,12.6-3.5,16.2-8.9C262.4,192.5,259.8,183.5,252.7,179.2z"/>
<path class="st1" d="M238.8,223.5c-2.2,0.1-4.1-1.7-4.2-3.9l0,0c0-3.5,0-7,0-10.4c-4.1-1-7.6-3.6-9.8-7.1c-1.9-3.1-2.5-6.8-1.5-10.3
	c0.3-1.4,1.3-2.5,2.7-2.9c1.5-0.3,3.1,0.1,4.2,1.2c1,1,1.4,2.5,1,3.8c-0.5,1.5-0.2,3.2,0.8,4.5c2,2.1,4.8,3.3,7.7,3.3
	c4.8,0.4,9.4-1.7,12.3-5.6c1-1.6,1.2-3.6,0.6-5.4c-1.6-5.3-9.7-9.5-14.5-12l-1.7-0.9c-3.8-1.5-7-4.1-9.4-7.4
	c-2.1-3.5-2.8-7.6-2-11.6c1-5.2,4.9-9.3,10.1-10.5v-9.5c0.3-2.2,2.4-3.8,4.7-3.5c1.8,0.3,3.2,1.7,3.5,3.5v8.9
	c5.2,0.4,9.9,3.1,12.7,7.5c1.8,3.3,1.8,7.2,0,10.5c-0.5,1.2-1.6,2-2.9,2.1c-1.6,0.1-3.1-0.6-3.9-2c-0.8-1.3-0.8-2.8,0-4.1
	c0.5-0.9,0.5-2,0-2.9c-2.4-2.2-5.6-3.4-8.9-3.3c-2.9,0-4.7,0-6,2.1c-1.1,1.6-1.5,3.7-1.1,5.6c0.7,3.7,3.8,5.3,7.1,6.9l1.4,0.7
	c4.2,2.1,8.1,4.6,11.9,7.5l0,0c7.1,4.6,9.6,13.9,5.6,21.5c-3.5,5.6-9.5,9.2-16.1,9.6c0,3.3,0,6.6,0,9.9c0.1,2.1-1.5,3.9-3.6,4l0,0
	L238.8,223.5z M227,190.6h-0.6c-0.7,0.2-1.2,0.8-1.4,1.5c-0.8,3-0.3,6.3,1.3,8.9c2.2,3.3,5.6,5.6,9.4,6.4h0.7v0.7
	c0,3.7,0,7.4,0,11.1c0,1.2,1,2.2,2.2,2.2l0,0c1.1,0.1,2-0.8,2-1.9c0,0,0,0,0,0l0,0c0-3.6,0-7.2,0-10.8v-0.8h0.9
	c6.3-0.2,12.1-3.6,15.5-8.9c3.4-6.8,1.1-15.1-5.3-19.3c-3.6-2.8-7.4-5.2-11.5-7.3l-1.4-0.7c-3.4-1.7-7.2-3.6-8.1-8.1
	c-0.5-2.4,0-5,1.4-7c1.8-2.1,4.6-3.2,7.4-2.9c3.9-0.2,7.7,1.3,10.4,4.1c0.8,1.4,0.8,3.1,0,4.5c-0.5,0.7-0.5,1.7,0,2.4
	c0.5,0.7,1.3,1.2,2.2,1.2c0.7-0.1,1.2-0.5,1.4-1.2c1.5-2.8,1.5-6.1,0-8.9c-2.8-4-7.3-6.5-12.2-6.8h-0.8v-10.4c0-1.3-1-2.3-2.3-2.3
	l0,0c-1.3,0-2.3,1-2.3,2.3c0,0,0,0,0,0v11h-0.6c-4.7,0.8-8.4,4.3-9.4,8.9c-0.7,3.5-0.1,7.1,1.8,10.2c2.3,3,5.4,5.4,8.9,6.8l1.7,0.9
	c5.2,2.7,13.6,7,15.5,13.1c0.6,2.3,0.3,4.7-0.9,6.8c-3.1,4.5-8.4,7-13.8,6.6c-3.4,0-6.7-1.5-8.9-4.1c-1.3-1.7-1.7-3.8-1.2-5.9
	c0.3-0.7,0.1-1.6-0.4-2.1C228.2,190.5,227.6,190.4,227,190.6L227,190.6z"/>
<path class="st2" d="M238.4,242.9c-35.2,0.1-63.9-28.3-64.1-63.6c-0.1-35.2,28.3-63.9,63.6-64.1c35.2-0.1,63.9,28.3,64.1,63.6
	c0,0.1,0,0.2,0,0.3l0,0C301.9,214.2,273.6,242.7,238.4,242.9z M238.4,121.6c-31.8,0-57.5,25.7-57.5,57.5c0,31.8,25.7,57.5,57.5,57.5
	c31.8,0,57.5-25.7,57.5-57.5l0,0C295.8,147.3,270.1,121.7,238.4,121.6z"/>
<path class="st1" d="M238.4,243.8c-35.7,0-64.7-29-64.7-64.7s29-64.7,64.7-64.7c35.7,0,64.7,29,64.7,64.7l0,0
	C303.1,214.8,274.2,243.7,238.4,243.8z M238.4,116.1L238.4,116.1c-34.8,0-62.9,28.2-62.9,62.9c0,34.7,28.2,62.9,62.9,62.9l0,0
	c34.8,0.3,63.2-27.6,63.6-62.4c0.3-34.8-27.6-63.2-62.4-63.6L238.4,116.1z M238.4,237.4L238.4,237.4c-32.2,0-58.4-26.1-58.4-58.3
	c0-32.2,26.1-58.4,58.3-58.4c0,0,0,0,0.1,0l0,0c32.2,0,58.4,26.2,58.3,58.4C296.8,211.3,270.7,237.4,238.4,237.4z M238.4,122.5
	c-31.3,0-56.6,25.3-56.6,56.6c0,31.3,25.3,56.6,56.6,56.6l0,0c31.3,0,56.6-25.3,56.6-56.6C295,147.8,269.7,122.5,238.4,122.5z"/>
<path class="st2" d="M238.7,268.4c-49.5,0-89.6-40.1-89.5-89.6s40.1-89.6,89.6-89.5c22.8,0,44.8,8.7,61.4,24.4
	c1.2,1.1,1.3,3.1,0.2,4.3c-0.1,0.1-0.1,0.1-0.2,0.2c-1.2,1.1-3.1,1.1-4.3,0l0,0c-33.3-31.4-85.8-29.8-117.2,3.5
	c-31.4,33.3-29.8,85.8,3.5,117.2s85.8,29.8,117.2-3.5c22.5-23.9,28.8-58.7,16.1-88.9c-0.7-1.6,0-3.5,1.6-4.2
	c1.5-0.8,3.3-0.2,4.1,1.3c0,0.1,0.1,0.1,0.1,0.2l0,0c19.4,45.6-1.8,98.2-47.4,117.6C262.8,266,250.8,268.5,238.7,268.4L238.7,268.4z
	"/>
<path class="st1" d="M238.7,269.3c-50-0.2-90.3-40.8-90.2-90.8c0.2-50,40.8-90.3,90.8-90.2c23,0.1,45.1,8.9,61.8,24.7
	c1.6,1.6,1.6,4.1,0,5.7c0,0,0,0,0,0c-1.6,1.6-4.2,1.6-5.8,0c-33-31.1-85-29.5-116,3.5c-31.1,33-29.5,85,3.5,116
	c33,31.1,85,29.5,116-3.5c22.2-23.6,28.5-58.1,15.9-88.1c-0.9-2,0-4.4,2-5.3c0,0,0,0,0.1,0c1.9-1,4.3-0.2,5.3,1.8
	c0,0.1,0.1,0.1,0.1,0.2l0,0l0,0c19.3,46.1-2.3,99.1-48.4,118.4c-11.1,4.7-23.1,7.1-35.1,7.1L238.7,269.3z M238.7,90.1L238.7,90.1
	c-49.2,0-89.1,39.9-89.1,89.1s39.9,89.1,89.1,89.1s89.1-39.9,89.1-89.1c0-0.1,0-0.3,0-0.4c0-11.8-2.3-23.5-7-34.4l0,0
	c-0.5-1.1-1.8-1.6-3-1.1c0,0-0.1,0-0.1,0l0,0c-1.1,0.5-1.6,1.8-1.1,3c0,0,0,0.1,0,0.1c4.3,10.3,6.5,21.4,6.5,32.6
	c0.2,46.5-37.3,84.4-83.8,84.6c-46.5,0.2-84.4-37.3-84.6-83.8c-0.2-46.5,37.3-84.4,83.8-84.6c21.5-0.1,42.2,8,57.9,22.7
	c0.9,0.9,2.3,0.9,3.2,0c0.9-0.9,0.9-2.4,0-3.3c0,0,0,0,0,0l0,0c-16.4-15.6-38.1-24.2-60.7-24.2L238.7,90.1z"/>
<g id="Calque_3-2">
	<path class="st0" d="M105.9,163.3c-16.2,4.8-33,7.2-49.9,7c-2.9,0.2-5,2.7-4.8,5.6c0.3,2.8,2.8,5,5.6,4.9
		c17.8,0.1,35.5-2.4,52.6-7.5c2.7-1,4.1-4.1,3.1-6.9c-0.8-2.6-3.5-4-6.1-3.2c0,0-0.1,0-0.1,0L105.9,163.3z"/>
	<path class="st0" d="M104.7,177c-15.6,4.2-31.8,6.2-48,6.2c-4.1,0.1-7.6-2.9-8-7l0,0c0-2.2,0.8-4.4,2.3-6.1c1.3-1.3,3-2.1,4.9-2.1
		c16.6,0.1,33.2-2.4,49-7.4h0.9c3.8-0.9,7.7,1.2,8.9,4.9c1.3,3.9-0.7,8.2-4.5,9.7l0,0C108.3,176,106.5,176.7,104.7,177z M53.6,175.7
		c0.3,1.6,1.6,2.7,3.2,2.7c17.6,0.2,35.1-2.3,51.9-7.3c1.5-0.6,2.2-2.3,1.6-3.7c-0.4-1.4-1.8-2.2-3.2-1.8c0,0-0.1,0-0.1,0l0,0
		c-16.4,4.9-33.5,7.3-50.6,7c-0.6,0-1.1,0.3-1.5,0.7C54.1,173.9,53.7,174.7,53.6,175.7z"/>
	<path class="st0" d="M122.4,94.7l-60-31.6c-2.5-1.4-5.6-0.6-7.1,1.8c-1.5,2.4-0.7,5.6,1.7,7.1c0,0,0,0,0,0l0,0h0.6h0.5l60,31.6
		c2.6,1.3,5.7,0.3,7-2.3c1.3-2.6,0.3-5.7-2.3-7L122.4,94.7z"/>
	<path class="st0" d="M122.5,107.1c-1.8,0.5-3.8,0.2-5.4-0.6L87,90.7L57.1,75h-0.5c-3.8-1.8-5.4-6.3-3.7-10.2l0,0
		c1.9-3.7,6.4-5.3,10.2-3.6l0,0l0,0l28.6,15.1l32,16.2h0.5c3.7,1.9,5.2,6.5,3.3,10.2c0,0,0,0,0,0.1c-1,1.9-2.7,3.3-4.8,3.8
		L122.5,107.1z M59.3,65.1c-1.5,0.5-2.3,2.1-1.9,3.6l0,0c0.2,0.7,0.7,1.4,1.4,1.7l0,0l0,0l30,15.8c10,5.3,20,10.6,29.9,15.8
		c1.4,0.7,3.1,0.2,3.8-1.2c0.7-1.4,0.2-3-1.2-3.7c0,0,0,0,0,0l0,0l0,0l0,0c-10.3-5.6-20.9-11.1-31.6-16.6L61.3,65.2
		c-0.6-0.3-1.4-0.4-2-0.3L59.3,65.1z"/>
	<path class="st0" d="M170.1,59.3c-5.8-16.8-9.4-34.3-10.7-52.1c-0.5-2.9-3.3-4.7-6.1-4.2c-2.5,0.5-4.3,2.6-4.3,5.2
		c1.6,18.7,5.5,37.1,11.5,54.8C162.4,69.4,172.2,65.6,170.1,59.3z"/>
	<path class="st0" d="M166.8,68.4c-1.2,0.3-2.4,0.3-3.6,0c-2.5-0.5-4.5-2.3-5.3-4.7c-6.1-17.9-10-36.5-11.7-55.4
		c-0.3-2.7,0.9-5.3,3.1-6.8c2.4-1.7,5.5-2,8.1-0.8c2.4,1.1,3.9,3.4,4.1,6.1c1.4,17.5,5.1,34.8,10.8,51.4l0,0c1,2.5,0.5,5.4-1.3,7.4
		C170,67,168.5,67.9,166.8,68.4z M153.1,5.1l-1,0.4c-0.7,0.6-1.1,1.6-1,2.5c1.6,18.6,5.4,36.9,11.3,54.5c0.3,0.8,0.9,1.4,1.7,1.6
		c1.2,0.2,2.4-0.3,3.2-1.2c0.5-0.8,0.5-1.8,0-2.6c-5.9-17-9.6-34.7-11.1-52.7c0-0.9-0.5-1.7-1.3-2.1c-0.7-0.3-1.5-0.3-2.2,0
		L153.1,5.1z"/>
</g>
</svg>
