<svg id="Calque_1" data-name="Calque 1" xmlns="http://www.w3.org/2000/svg" viewBox="0 0 434.58 450.3"><defs><style>.cls-1,.cls-2{fill:#11393b;stroke:#0f393b;stroke-linecap:round;stroke-linejoin:round;}.cls-1,.cls-3{stroke-width:1.2px;}.cls-3{fill:#649e89;stroke:#649e89;stroke-miterlimit:10;}</style></defs><title>statut_20</title><path class="cls-1" d="M313.37,445.9c2.66-9.26,5.53-18.52,8.3-27.77a144.41,144.41,0,0,0,6.17-24.91,42.56,42.56,0,0,0-3.4-21.28,61.9,61.9,0,0,0-11.71-16.82c-9.47-10.64-21.28-18.94-29.37-30.22a48.65,48.65,0,0,1-8.94-18.62,55.66,55.66,0,0,1,0-21.29,132.83,132.83,0,0,1,24.79-51.93,3.19,3.19,0,0,0-.63-4.47,3.08,3.08,0,0,0-4.15,0,157.89,157.89,0,0,0-24.8,47.89,61.29,61.29,0,0,0,4.26,44.7,152.07,152.07,0,0,0,28.2,31.92,53.19,53.19,0,0,1,19.47,33.31,78.4,78.4,0,0,1-5.21,27.25c-3,10.64-6.28,21.28-9.26,31.92-.53,1.6,1.06,3.3,2.55,3.62A3.73,3.73,0,0,0,313.37,445.9Z" transform="translate(-6.89 0.5)"/><path class="cls-1" d="M322,296.27a186.51,186.51,0,0,0,2.66-31.92,39.27,39.27,0,0,0-7.45-23.73A56.7,56.7,0,0,0,305.81,230c-4.36-3.29-8.94-6.38-13.3-9.79A189.94,189.94,0,0,1,270,198.9a134.31,134.31,0,0,1-18.09-24.26,88.08,88.08,0,0,1-6.18-13.2,24.74,24.74,0,0,1-1.8-12.66,13.25,13.25,0,0,1,5.53-8.73,9.26,9.26,0,0,1,10.64.53A59.32,59.32,0,0,1,270.69,150c4.05,3.83,8.09,7.77,12.14,11.38,16.6,15.54,33.84,30.23,51.82,44.27l6.6,5.22c3.09,2.45,7.13-2.34,3.94-4.79C326.78,191.88,309,176.87,292,161.23l-13-12c-3.83-3.72-7.55-7.66-11.7-10.64a20.66,20.66,0,0,0-12.67-5.64,15.77,15.77,0,0,0-11.6,5.53,25.67,25.67,0,0,0-2.34,26.29,113,113,0,0,0,15.33,27,179.53,179.53,0,0,0,21.28,23.41c3.94,3.62,8,7.13,12.24,10.64l13.84,10.65a48.6,48.6,0,0,1,6.17,5.21,36.89,36.89,0,0,1,4,5.11A30.53,30.53,0,0,1,318,257.43a71.28,71.28,0,0,1,0,14.16c0,5.42-.75,10.64-1.28,16.06,0,2.77-.75,5.33-1.17,8a3.26,3.26,0,1,0,6.49.63Z" transform="translate(-6.89 0.5)"/><path class="cls-1" d="M318.58,191.66a32.76,32.76,0,0,1,23.2,4.26,61,61,0,0,1,19.8,21.28l5.1-3.51L357.32,199a7.8,7.8,0,0,1-1.28-2.24,1.29,1.29,0,0,1-.53,1.07h1.7a64.2,64.2,0,0,1,7.66,1.7,70,70,0,0,1,26.93,13.83l4-4.79-7.34-5.74a40.09,40.09,0,0,0-1,5.32,36.28,36.28,0,0,1,35.65,11.92,42.59,42.59,0,0,1,8.41,21.28c1.17,8.3,1.81,16.5,2.23,24.8a324.31,324.31,0,0,1-10.64,99.18A313.53,313.53,0,0,1,403.72,418a3.08,3.08,0,0,0,5.53,2.55,308.77,308.77,0,0,0,18.52-48.95,317.56,317.56,0,0,0,10.64-50.87,328,328,0,0,0,2.24-52.14,199.28,199.28,0,0,0-2.24-26.29,49.67,49.67,0,0,0-8.19-24,42.59,42.59,0,0,0-39.06-17.14,51.54,51.54,0,0,0-5.53,1,3.2,3.2,0,0,0-1.89,4.11,3.15,3.15,0,0,0,.93,1.32l7.34,5.85a3.1,3.1,0,1,0,3.94-4.79h0a73.28,73.28,0,0,0-25.33-13.94,53.18,53.18,0,0,0-14.47-3.19,6,6,0,0,0-5.85,3.41,6.58,6.58,0,0,0,1.27,6.38A166.81,166.81,0,0,0,362.21,217c2.13,3.41,7.24,0,5-3.51a68,68,0,0,0-22.56-23,38.51,38.51,0,0,0-26.4-4.79,3.19,3.19,0,0,0-2.76,3.3A2.59,2.59,0,0,0,318.58,191.66Z" transform="translate(-6.89 0.5)"/><path class="cls-1" d="M421.7,371.41a165.17,165.17,0,0,1-42.56,23.52c-5,1.8-53.21,13.72-52.47,5.42,0-3.72-5.43-3.72-5.85,0-2,17.46,40,5.54,47.57,3.73a153.81,153.81,0,0,0,56.08-27.67C427.66,373.85,424.68,368.85,421.7,371.41Z" transform="translate(-6.89 0.5)"/><path class="cls-2" d="M187.15,154.52V23a1.59,1.59,0,0,0,0-.75,22.23,22.23,0,0,0-3.61-16A13.74,13.74,0,0,0,171.83,0H24.65A17.81,17.81,0,0,0,11.77,5.43,21.32,21.32,0,0,0,7.62,21.5h0V159.84h0a19.16,19.16,0,0,0,20,18.3c.43,0,.87,0,1.31-.1H169.06a20.08,20.08,0,0,0,15.22-6.28A32.78,32.78,0,0,0,187.15,154.52Zm-9.25,12.13c-1.07,3.09-6.5,4.26-9.48,4H34.23a23.56,23.56,0,0,1-3.94,0H28.8a12.62,12.62,0,0,1-2.13,0,14.68,14.68,0,0,1-7.13-2.56,8.72,8.72,0,0,1-3.19-7.23,1.38,1.38,0,0,1,0-.64V23.63a3.82,3.82,0,0,0,0-1.17A15.65,15.65,0,0,1,18,11.81a10.65,10.65,0,0,1,9.58-2.87H171.3a6.06,6.06,0,0,1,5.85,3.83,9.16,9.16,0,0,1,1.17,4.05,7.42,7.42,0,0,1,0,1.49V23a4.58,4.58,0,0,1,0,1.17h0V156.54A29.11,29.11,0,0,1,177.9,166.65Z" transform="translate(-6.89 0.5)"/><path class="cls-2" d="M396,154.52V22.24a22.24,22.24,0,0,0-3.62-16A13.71,13.71,0,0,0,380.63,0H233.45a17.58,17.58,0,0,0-12.88,5.43,21.27,21.27,0,0,0-4.15,16.07h0V159.84h0a19.14,19.14,0,0,0,20,18.3c.44,0,.88,0,1.31-.1h7.88a6.9,6.9,0,0,1,0-8.72h-2a25.91,25.91,0,0,1-3.94,0h-1.49a12.63,12.63,0,0,1-2.13,0,14.75,14.75,0,0,1-7.13-2.56,8.41,8.41,0,0,1-3.19-7.24,1.34,1.34,0,0,1,0-.63V23.63a3.82,3.82,0,0,0,0-1.17,15.64,15.64,0,0,1,1.59-10.65,10.67,10.67,0,0,1,9.58-2.87H380.52a6.07,6.07,0,0,1,6,3.83,9.43,9.43,0,0,1,1.17,4.05,7.42,7.42,0,0,1,0,1.49V23a4.58,4.58,0,0,1,0,1.17h0V155.48a3.76,3.76,0,0,0,0,1.06,31.75,31.75,0,0,1,0,10.11c-1.06,3.09-6.49,4.26-9.47,4H302.3a6.81,6.81,0,0,1-.21,9.15h75.66A19.92,19.92,0,0,0,393,173.57,32,32,0,0,0,396,154.52Z" transform="translate(-6.89 0.5)"/><path class="cls-3" d="M131.82,116,70.62,55.55a5.85,5.85,0,1,0-8.9,7.61,6.6,6.6,0,0,0,.71.69l61.3,60.34a5.76,5.76,0,0,0,8.09-8.19Z" transform="translate(-6.89 0.5)"/><path class="cls-3" d="M70.2,124.41l61.62-60.56a5.85,5.85,0,0,0-7.49-9,5.79,5.79,0,0,0-.71.69L62,116a5.87,5.87,0,0,0,8.2,8.41Z" transform="translate(-6.89 0.5)"/><path class="cls-3" d="M305.17,106.53,280.8,82.05a5.79,5.79,0,0,0-8.19,8.2l24.26,24.47a5.83,5.83,0,0,0,8.3-8.19Z" transform="translate(-6.89 0.5)"/><path class="cls-3" d="M346,57.26,296.87,107c-4.89,5,3.3,13.09,8.3,8.09l49.06-49.59C359.24,60.45,350.93,52.15,346,57.26Z" transform="translate(-6.89 0.5)"/></svg>