<svg id="Calque_1" data-name="Calque 1" xmlns="http://www.w3.org/2000/svg" viewBox="0 0 318.35 328.03"><defs><style>.cls-1{fill:#11393a;}.cls-2{fill:#87bad0;}</style></defs><title>statut_30</title><path class="cls-1" d="M348.16,209.78A4.29,4.29,0,0,0,346,211.9l-25,50a3.52,3.52,0,0,1-4.66,1.49,3.6,3.6,0,0,1-1.77-4l7.07-25.38a4.66,4.66,0,0,0-3.08-5.83l-.1,0a4.92,4.92,0,0,0-3.89.56L272.87,255.3a6.08,6.08,0,0,1-6,0A6.48,6.48,0,0,1,265.1,254a6.16,6.16,0,0,1,0-8.7l.49-.42,30.47-22.83a4.74,4.74,0,0,0-3.89-8.35l-49.48,11.38a7.06,7.06,0,0,1-8.57-5.14l-.06-.23h0a7.07,7.07,0,0,1,5.45-8.38l.14,0L294,199.67a4.74,4.74,0,0,0,0-9.26l-39.16-7.07a7.85,7.85,0,0,1,2-15.55l45.31,3.74a4.65,4.65,0,0,0,4.45-2.33,4.73,4.73,0,0,0,0-5.09l-18-25.24a6.5,6.5,0,0,1,9.54-8.62l29.76,26a4.73,4.73,0,0,0,4.88.85L375.23,140a4.59,4.59,0,0,0,2.54-5.94h0v-.92a3.82,3.82,0,0,0-4.95-2.15l-.06,0h0l-40.37,16.54-7.07-5.94-17-91.9h0a4.66,4.66,0,0,0-5.23-3.81h0L145.63,75.25a4.71,4.71,0,0,0-3,2l-30.11,43.83a4.91,4.91,0,0,0-.78,3.53l13.43,72.46-23.68-9.47a4,4,0,0,0-5.18,2.13.69.69,0,0,1,0,.13h0L95.73,191a4.15,4.15,0,0,0,2.33,5.37h0l43.19,17.32a4.87,4.87,0,0,0,4.88-.85l29.76-26a6.43,6.43,0,0,1,9.07.59l0,.05a6.51,6.51,0,0,1,.42,8l-18,25.23a4.61,4.61,0,0,0,0,5,4.73,4.73,0,0,0,4.53,2.4l45.31-3.74a7.78,7.78,0,0,1,8.48,7v.07a7.84,7.84,0,0,1-6.43,8.48L180.06,247a4.74,4.74,0,0,0-3.75,5.51,4.8,4.8,0,0,0,3.61,3.75l54.43,11.66a7.22,7.22,0,1,1-2.9,14.14h0L182,270.71a4.6,4.6,0,0,0-5.56,3.38l0,.15a4.66,4.66,0,0,0,1.7,4.81l30.46,22.83a6.15,6.15,0,0,1-6.43,10.39h-.56l-41.78-27a4.67,4.67,0,0,0-7.07,6.08l9.4,18.8a5.82,5.82,0,1,1-10.39,5.25l-.07-.16-23.47-46.86a4.29,4.29,0,0,0-2.12-2.12l-24-12a4.81,4.81,0,0,0-6.36,2.12h0a4.65,4.65,0,0,0,2,6.22h0L120.54,274l22.83,45.67A15.23,15.23,0,0,0,170.59,306l-1.77-3.6,27.28,17.39a15.55,15.55,0,0,0,17.68-25.59l-12.73-9.47,27.57,6.36a16.54,16.54,0,0,0,8.84-31.88h0l17.67-3.25a8.12,8.12,0,0,0,.42,1.13,15.57,15.57,0,0,0,20.75,7.3l.46-.23,1.41-.85,31.18-19.8L305.46,257a12.79,12.79,0,0,0,8.27,15.69,13.5,13.5,0,0,0,4,.71,13,13,0,0,0,11.59-7.07l24.32-48.71,22.41-11.24a5,5,0,0,0,2.27-6.62v-.52a3.88,3.88,0,0,0-5.16-1.76h0ZM271.11,90.31,224,99l22.62-32.88,47.08-8.69ZM187,105.86,209.61,73l24-4.45L211,101.48Zm23,5.37,9.4,50.9-27.78,5.09-9.4-50.9ZM149.45,84l47.08-8.7-22.62,32.94-47.08,8.7Zm20.43,95.57L142.31,203.7,135.67,201,122,127.35l50.9-9.4,10.32,55.49a4.5,4.5,0,0,0,2,3,15.79,15.79,0,0,0-15.34,3.18Zm46.51,35.34-35.34,2.9,12.09-17a15.78,15.78,0,0,0-3.47-22,14.93,14.93,0,0,0-2.68-1.55h1.55l37-7.07a4.61,4.61,0,0,0,3.78-5.29l0-.15-10.25-55.57L270,99.78l1.35,7.07a3.87,3.87,0,0,0,4.45,3.11h1.7a3.89,3.89,0,0,0,3.11-4.45h0L278.67,95.4l22.48-32.66,12.72,68.71-9.4-8.27a15.91,15.91,0,0,0-23.4,21.21l12.09,17-35.34-2.89a17.24,17.24,0,0,0-18.66,15.71v.68a17.26,17.26,0,0,0,14.14,17.82l15.77,2.83-31.18,6.64A16.74,16.74,0,0,0,225,216.63a17.64,17.64,0,0,0-9.12-1.76Zm38.39,31.53-40.44,7.5-9.26-2,15.84-2.83a17,17,0,0,0,14.13-15.69,16.93,16.93,0,0,0,10.68,1.2l27.57-6.44-12.66,9.48a16,16,0,0,0-5.72,8.76Z" transform="translate(-60.51 0)"/><path class="cls-2" d="M326.74,322.17h0a4.74,4.74,0,0,0,4.66,4.74h0a33,33,0,0,0,32.45-27.5,4.59,4.59,0,0,0-3.7-5.34l-.19,0h-.78a4.66,4.66,0,0,0-4.59,4,23.62,23.62,0,0,1-23.19,19.58h0a4.66,4.66,0,0,0-4.73,4.59v.07Z" transform="translate(-60.51 0)"/><path class="cls-2" d="M317.34,303.09h0a4.73,4.73,0,0,0-4.74,4.73h0a4.74,4.74,0,0,0,4.74,4.67h0a32.94,32.94,0,0,0,32.51-27.78,4.45,4.45,0,0,0-3.71-5.09h-.74a5.08,5.08,0,0,0-4.95,4.24A23.54,23.54,0,0,1,317.34,303.09Z" transform="translate(-60.51 0)"/><g id="Calque_3" data-name="Calque 3"><path class="cls-2" d="M99.83,95a110.42,110.42,0,0,1-33.16-5.16,3.46,3.46,0,0,0-4.16,2.58v0a3.67,3.67,0,0,0,2.69,4.24A116.82,116.82,0,0,0,100.11,102a3.52,3.52,0,0,0,3.11-3.9v0a3.33,3.33,0,0,0-3.32-3.33Z" transform="translate(-60.51 0)"/><path class="cls-2" d="M96.15,103.53a115.63,115.63,0,0,1-31.74-5.37,5.17,5.17,0,0,1-3.82-5.94h0a5.7,5.7,0,0,1,2.69-3.46,4.69,4.69,0,0,1,3.53,0,109.06,109.06,0,0,0,32.66,5.09h0a4.94,4.94,0,0,1,5,4.94,5.17,5.17,0,0,1-4.81,5.38h0A34,34,0,0,1,96.15,103.53ZM63.77,92.78a2.14,2.14,0,0,0,1.56,2.34,114.1,114.1,0,0,0,34.5,5.37,1.9,1.9,0,0,0,1.76-2h0a1.84,1.84,0,0,0-1.76-1.84h0a108.89,108.89,0,0,1-33.65-5.3,1.91,1.91,0,0,0-1.06,0,2.82,2.82,0,0,0-1.06,1.48Z" transform="translate(-60.51 0)"/><path class="cls-2" d="M123.65,54.47C113,43.94,102.44,33.26,91.48,22.66a3.38,3.38,0,0,0-4.79-.08.6.6,0,0,0-.08.08,3.46,3.46,0,0,0,0,4.88h0l.35.35h0C97.71,38.42,108.17,49.1,119.12,59.7A3.54,3.54,0,0,0,124,54.61Z" transform="translate(-60.51 0)"/><path class="cls-2" d="M121.39,62.25a5.14,5.14,0,0,1-3.4-1.42l-16.11-15.9-16-15.84h0a5.1,5.1,0,0,1,0-7.07h0A5,5,0,0,1,93,22h0l15.34,15.13,16.75,16.54h0a5.09,5.09,0,0,1-3.67,8.77ZM89.08,23.3a1.84,1.84,0,0,0-1.91,1.76v.08h0a2.24,2.24,0,0,0,.57,1.41h0l16,15.9L119.9,58.36a1.91,1.91,0,0,0,2.88-2.51,3.07,3.07,0,0,0-.26-.25h0l-16.9-16.68L90.35,23.79A1.69,1.69,0,0,0,89.08,23.3Z" transform="translate(-60.51 0)"/><path class="cls-2" d="M160.9,41A144.63,144.63,0,0,1,164,5.7a3.6,3.6,0,1,0-7.07-1.35,156.86,156.86,0,0,0-3.25,37.18C154.11,46.06,161.11,45.49,160.9,41Z" transform="translate(-60.51 0)"/><path class="cls-2" d="M157.08,46.27a6.23,6.23,0,0,1-2.26-.64,4.64,4.64,0,0,1-2.54-4A159.9,159.9,0,0,1,155.6,4,5,5,0,0,1,158.92.25a5.5,5.5,0,0,1,5.3,1.13,4.69,4.69,0,0,1,1.42,4.67,141.25,141.25,0,0,0-3,34.92h0a5,5,0,0,1-2.26,4.45A6.66,6.66,0,0,1,157.08,46.27Zm3.54-43.05h-.71a1.7,1.7,0,0,0-1.06,1.42,152.75,152.75,0,0,0-3.32,36.75,1.42,1.42,0,0,0,.78,1.35,2.56,2.56,0,0,0,2.26,0,1.93,1.93,0,0,0,.71-1.63,141.37,141.37,0,0,1,3.1-35.77A1.53,1.53,0,0,0,162,3.72a2.65,2.65,0,0,0-1.41-.5Z" transform="translate(-60.51 0)"/></g></svg>