<svg id="Calque_1" data-name="Calque 1" xmlns="http://www.w3.org/2000/svg" viewBox="0 0 434.58 328.03"><defs><style>.cls-1{fill:#11393a;}.cls-2{fill:#d64545;}</style></defs><title>statut_25</title><path class="cls-1" d="M392.18,244.1l-9.74-39.22a6,6,0,0,0,4.7-5.84v-6.28a25.06,25.06,0,0,0-25-25H317.46v-13a12.22,12.22,0,0,0-11.76-12.66H77.37a12.31,12.31,0,0,0-12.31,12.3h0V262.34a5.93,5.93,0,0,0,11.86,0V154.78H304.8V262.34a5.94,5.94,0,0,0,11.87,0v-6.73h70a19.4,19.4,0,0,1,18.42,13.46H386.69a5.94,5.94,0,0,0-5.93,5.93v12.66a18.59,18.59,0,0,0,18.59,18.59h6.73v26.56H391.3a37.63,37.63,0,0,0-70.83,0h-2.83V287.66a5.93,5.93,0,0,0-11.86,0v44.71H182.45a37.53,37.53,0,0,0-70.82,0H77.54V319.18h25.77a5.93,5.93,0,0,0,0-11.86H46a5.93,5.93,0,1,0,0,11.86H65.42v13.1A12.21,12.21,0,0,0,77.63,344.5H91.18v7.61H86.31a5.58,5.58,0,0,0,0,11.16h9.91A5.66,5.66,0,0,0,101.8,358a5.32,5.32,0,0,0,.53-2.39V344.23h7.44a37.62,37.62,0,0,0,75.16,0H318.61a37.63,37.63,0,0,0,75.17,0h19.39a5.93,5.93,0,0,0,5.93-5.93V274.91A31.36,31.36,0,0,0,392.18,244.1Zm-74.72-64.45h44.71a13.19,13.19,0,0,1,13.1,13.11H317.46Zm0,64.1V205h53.12l9.65,38.78ZM147,370.35a25.77,25.77,0,1,1,25.76-25.76v.09A25.67,25.67,0,0,1,147,370.35Zm208.94,0a25.77,25.77,0,1,1,25.67-25.85v.18a25.68,25.68,0,0,1-25.67,25.67Zm51-76h-6.73a6.73,6.73,0,0,1-6.73-6.73h0v-6.73h13.46Z" transform="translate(0 -52)"/><path class="cls-1" d="M147,332.37a12.22,12.22,0,1,0,.18,0Z" transform="translate(0 -52)"/><path class="cls-1" d="M355.89,332.37a12.31,12.31,0,1,0,12.21,12.39v-.08A12.3,12.3,0,0,0,355.89,332.37Z" transform="translate(0 -52)"/><path class="cls-2" d="M286.21,307.05H197.68a5.93,5.93,0,0,0,0,11.86h88.53a5.93,5.93,0,0,0,0-11.86Z" transform="translate(0 -52)"/><path class="cls-2" d="M134.56,281.73h-76a5.93,5.93,0,0,0,0,11.86h76a5.93,5.93,0,1,0,0-11.86Z" transform="translate(0 -52)"/><path class="cls-2" d="M221.85,236.58a13.72,13.72,0,0,0,.34-19.4c-.11-.12-.23-.23-.34-.34l-19.3-18.77a17.7,17.7,0,0,0-24.88,0L174,201.79a4.7,4.7,0,0,0,0,6.55L192.63,226,174,243.75a4.3,4.3,0,0,0-1.33,3.19A4.73,4.73,0,0,0,174,250.3l3.63,3.63a17.7,17.7,0,0,0,24.88,0Zm-37.63,11.77h0L202.9,230.2a4.67,4.67,0,0,0,1.42-3.36,4.58,4.58,0,0,0-1.42-3.28l-18.68-17.7h0a8.32,8.32,0,0,1,11.77,0h0l19.3,18.68a4.44,4.44,0,0,1,.2,6.26l-.2.2-19.39,18.86a8.32,8.32,0,0,1-11.77,0h0Z" transform="translate(0 -52)"/><path class="cls-2" d="M35.85,281.73h-11a5.58,5.58,0,0,0,0,11.15h11a5.58,5.58,0,0,0,0-11.15Z" transform="translate(0 -52)"/><path class="cls-2" d="M25.58,307.58h-20a5.58,5.58,0,0,0,0,11.16h20a5.58,5.58,0,0,0,0-11.16Z" transform="translate(0 -52)"/><path class="cls-2" d="M103.75,307.14H42.49a5.84,5.84,0,1,0,0,11.68h61.26a5.84,5.84,0,0,0,0-11.68Z" transform="translate(0 -52)"/><g id="Calque_3-3" data-name="Calque 3-3"><path class="cls-2" d="M316.36,93.36a122.29,122.29,0,0,1-5.07-36.06,3.79,3.79,0,1,0-7.55.56A124.72,124.72,0,0,0,309.15,96a3.72,3.72,0,0,0,4.71,2.35l.25-.09a3.72,3.72,0,0,0,2.37-4.51Z" transform="translate(0 -52)"/><path class="cls-2" d="M306.33,92.57a128.25,128.25,0,0,1-4.39-34.71A5.75,5.75,0,0,1,307,52h0a6.58,6.58,0,0,1,4.4,1.69,5,5,0,0,1,1.46,3.49,122.27,122.27,0,0,0,5,35.62h0a5.3,5.3,0,0,1-3.47,6.64h0a5.64,5.64,0,0,1-7.1-3.27h0A36,36,0,0,0,306.33,92.57Zm1-37.08a2.37,2.37,0,0,0-1.92,2.37,123.86,123.86,0,0,0,5.3,37.53,2.14,2.14,0,0,0,2.7,1.24,2,2,0,0,0,1.36-2.37h0a118.52,118.52,0,0,1-5.08-36.62,1.57,1.57,0,0,0,0-1.13,2.81,2.81,0,0,0-2.36-1Z" transform="translate(0 -52)"/><path class="cls-2" d="M366,105.42c7.56-14.54,15.33-29.08,22.55-43.5a3.72,3.72,0,0,0-1.16-5.13l-.08-.06A4,4,0,0,0,382.07,58h0l-22.54,43.39a4.06,4.06,0,0,0,1.69,5.19,3.72,3.72,0,0,0,5-1.58l.05-.11Z" transform="translate(0 -52)"/><path class="cls-2" d="M356.94,105.42a5.36,5.36,0,0,1,0-3.94l11.27-21.75c3.83-7.22,7.66-14.43,11.27-21.64h0a5.41,5.41,0,0,1,7.17-2.67l.16.07h0a5.31,5.31,0,0,1,2.76,7c-.05.12-.11.24-.17.36h0L378.13,83.56c-4.06,7.55-8,15.1-11.95,22.54h0A5.52,5.52,0,0,1,355.92,105Zm30.32-45.76a2,2,0,0,0-2.48-1.35h0a1.58,1.58,0,0,0-1.24,1h0L372.27,81.08,361,102.83a2,2,0,0,0,3.6,1.8h0l11.95-22.54,11.27-20.62a2.61,2.61,0,0,0-.34-1.81Z" transform="translate(0 -52)"/><path class="cls-2" d="M391.65,139.91a154.34,154.34,0,0,1,37.76-8,3.83,3.83,0,0,0-.79-7.55A175.8,175.8,0,0,0,389,132.7a3.85,3.85,0,1,0,2.7,7.21Z" transform="translate(0 -52)"/><path class="cls-2" d="M385,137.54a6.64,6.64,0,0,1,0-2.59,5.19,5.19,0,0,1,3.5-3.83,173.55,173.55,0,0,1,40.12-8.45,5.06,5.06,0,0,1,4.84,2.25,5.75,5.75,0,0,1,.57,5.86,4.74,4.74,0,0,1-4.4,2.93,154.6,154.6,0,0,0-37.19,7.89h0a5.3,5.3,0,0,1-5.41-1A6.66,6.66,0,0,1,385,137.54Zm45.87-9.91V127a1.59,1.59,0,0,0-1.69-.68,167.24,167.24,0,0,0-39.33,8.12,1.78,1.78,0,0,0-1.13,1.24,3,3,0,0,0,.79,2.36,2.38,2.38,0,0,0,1.92,0,158.06,158.06,0,0,1,38.09-8.11,1.81,1.81,0,0,0,1.58-.9,3,3,0,0,0,0-1.69Z" transform="translate(0 -52)"/></g></svg>