<svg id="Calque_1" data-name="Calque 1" xmlns="http://www.w3.org/2000/svg" viewBox="0 0 1179.81 159"><defs><style>.cls-1,.cls-19{fill:#f8f6f4;}.cls-1{stroke:#cecece;stroke-width:2px;}.cls-1,.cls-2,.cls-23,.cls-24,.cls-26,.cls-29,.cls-3,.cls-30,.cls-32{stroke-miterlimit:10;}.cls-2,.cls-20{fill:#0f393a;}.cls-2{stroke:#0f393a;}.cls-18,.cls-23,.cls-3{fill:#87bad0;}.cls-23,.cls-3{stroke:#87bad0;}.cls-20,.cls-4{font-size:15.45px;font-family:GoldplayAlt-SemiBold, Goldplay Alt;font-weight:600;}.cls-4{fill:#bbbcbc;}.cls-5{letter-spacing:-0.02em;}.cls-6{letter-spacing:0em;}.cls-7{letter-spacing:-0.01em;}.cls-8{letter-spacing:0em;}.cls-9{letter-spacing:-0.02em;}.cls-10{letter-spacing:-0.02em;}.cls-11{letter-spacing:-0.01em;}.cls-12{letter-spacing:-0.08em;}.cls-13{letter-spacing:0em;}.cls-14{letter-spacing:-0.02em;}.cls-15{letter-spacing:0em;}.cls-16{letter-spacing:-0.08em;}.cls-17,.cls-24,.cls-26{fill:#11393a;}.cls-21{letter-spacing:-0.06em;}.cls-22{letter-spacing:-0.02em;}.cls-23,.cls-26{stroke-width:0.5px;}.cls-24,.cls-26{stroke:#11393a;}.cls-24{stroke-width:0.75px;}.cls-25{fill:#edcb50;}.cls-27,.cls-28{fill:#11393b;stroke:#0f393b;stroke-linecap:round;stroke-linejoin:round;}.cls-27,.cls-29{stroke-width:1.2px;}.cls-29{fill:#649e89;stroke:#649e89;}.cls-30{fill:#9e84b5;stroke:#9e84b5;}.cls-31{fill:#d64545;}.cls-32,.cls-33{fill:#e27847;}.cls-32{stroke:#e27847;}.cls-34{fill:none;}</style></defs><title>etat_commande</title><line class="cls-1" x1="45.41" y1="66.65" x2="1130.16" y2="66.65"/><circle class="cls-2" cx="1136.1" cy="66.65" r="6.53"/><circle class="cls-2" cx="234.32" cy="66.65" r="6.53"/><circle class="cls-3" cx="44.82" cy="67.24" r="15.45"/><circle class="cls-2" cx="414.91" cy="66.65" r="6.53"/><circle class="cls-2" cx="776.1" cy="66.65" r="6.53"/><circle class="cls-2" cx="956.69" cy="66.65" r="6.53"/><circle class="cls-2" cx="595.51" cy="66.65" r="6.53"/><text class="cls-4" transform="translate(191.58 106.53)">INTENT<tspan class="cls-5" x="55.5" y="0">I</tspan><tspan class="cls-6" x="61.71" y="0">ON</tspan><tspan x="-14.56" y="18.53">DE </tspan><tspan class="cls-7" x="9.21" y="18.53">C</tspan><tspan class="cls-8" x="19.5" y="18.53">O</tspan><tspan class="cls-6" x="31.5" y="18.53">MMANDE</tspan><tspan x="-8.56" y="37.07">ENR</tspan><tspan class="cls-9" x="21.6" y="37.07">E</tspan><tspan class="cls-10" x="30.22" y="37.07">G</tspan><tspan x="41.48" y="37.07">I</tspan><tspan class="cls-11" x="47.95" y="37.07">S</tspan><tspan x="56.73" y="37.07">TRÉE</tspan></text><text class="cls-4" transform="translate(372.18 106.53)">INTENT<tspan class="cls-5" x="55.5" y="0">I</tspan><tspan class="cls-6" x="61.71" y="0">ON</tspan><tspan x="-14.56" y="18.53">DE </tspan><tspan class="cls-7" x="9.21" y="18.53">C</tspan><tspan class="cls-8" x="19.5" y="18.53">O</tspan><tspan class="cls-6" x="31.5" y="18.53">MMANDE</tspan><tspan x="6.42" y="37.07">G</tspan><tspan class="cls-11" x="17.93" y="37.07">R</tspan><tspan x="27.77" y="37.07">OUPÉE</tspan></text><text class="cls-4" transform="translate(573.83 116.03)"><tspan class="cls-12">T<tspan class="cls-13" x="7.59" y="0">ARI</tspan><tspan class="cls-14" x="34.77" y="0">F</tspan></tspan><tspan x="-14.1" y="18.53">P</tspan><tspan class="cls-11" x="-4.5" y="18.53">R</tspan><tspan x="5.34" y="18.53">OP</tspan><tspan class="cls-15" x="27.01" y="18.53">O</tspan><tspan x="39.01" y="18.53">SÉ</tspan></text><text class="cls-4" transform="translate(754.43 117.22)"><tspan class="cls-12">T</tspan><tspan x="7.59" y="0">ARI</tspan><tspan class="cls-14" x="34.77" y="0">F</tspan><tspan class="cls-16" x="-5.9" y="18.53">V</tspan><tspan x="3.36" y="18.53">ALIDÉ</tspan></text><text class="cls-4" transform="translate(911.28 116.03)"><tspan class="cls-7">C<tspan class="cls-15" x="10.29" y="0">O</tspan><tspan class="cls-13" x="22.29" y="0">MMANDE</tspan></tspan><tspan x="9.05" y="18.53">LIVRABLE</tspan></text><text class="cls-4" transform="translate(1089.5 116.03)"><tspan class="cls-7">C<tspan class="cls-15" x="10.29" y="0">O</tspan><tspan class="cls-13" x="22.29" y="0">MMANDE</tspan></tspan><tspan x="18.76" y="18.53">LIVRÉE</tspan><tspan x="29.54" y="37.07" xml:space="preserve">         </tspan></text><path class="cls-17" d="M1153.65,53.8a.62.62,0,0,0-.3.3l-3.54,7.08a.5.5,0,0,1-.66.21.51.51,0,0,1-.25-.56l1-3.59a.66.66,0,0,0-.45-.83.7.7,0,0,0-.55.08L1143,60.24a.86.86,0,0,1-.85,0,.94.94,0,0,1-.25-.18.87.87,0,0,1,0-1.23l.07-.06,4.31-3.23a.67.67,0,0,0-.55-1.18l-7,1.61a1,1,0,0,1-1.22-.76v0a1,1,0,0,1,.79-1.19l7.69-1.65a.67.67,0,0,0,0-1.31l-5.54-1a1.11,1.11,0,0,1,.29-2.2l6.41.53a.66.66,0,0,0,.63-.33.67.67,0,0,0,0-.72l-2.55-3.57a.92.92,0,0,1,1.35-1.22l4.21,3.68a.67.67,0,0,0,.69.12l6-2.42a.65.65,0,0,0,.36-.84h0l0-.13a.54.54,0,0,0-.71-.3h0L1151.42,45l-1-.84-2.4-13h0a.66.66,0,0,0-.74-.54h0L1125,34.77a.66.66,0,0,0-.43.28l-4.26,6.2a.69.69,0,0,0-.11.5l1.9,10.25-3.35-1.34a.56.56,0,0,0-.74.32h0l-.07.16a.59.59,0,0,0,.33.76h0l6.11,2.45a.69.69,0,0,0,.69-.12l4.21-3.68a.91.91,0,0,1,1.29.09.92.92,0,0,1,.06,1.13l-2.55,3.57a.65.65,0,0,0,0,.71.67.67,0,0,0,.64.34l6.41-.53a1.1,1.1,0,0,1,1.2,1,1.11,1.11,0,0,1-.91,1.2l-5.55,1a.67.67,0,0,0-.53.78.68.68,0,0,0,.51.53l7.7,1.65a1,1,0,0,1-.41,2h0l-7-1.6a.65.65,0,0,0-.79.5.66.66,0,0,0,.24.68l4.31,3.23a.87.87,0,0,1-.91,1.47l-.08,0L1127,64.48a.66.66,0,0,0-1,.86l1.33,2.66a.83.83,0,0,1-.37,1.11.82.82,0,0,1-1.11-.39l-3.32-6.63a.62.62,0,0,0-.3-.3l-3.39-1.7a.68.68,0,0,0-.9.3h0a.66.66,0,0,0,.29.88h0l3.22,1.61,3.23,6.46a2.15,2.15,0,1,0,3.85-1.93l-.25-.51,3.86,2.46a2.2,2.2,0,0,0,2.5-3.62l-1.8-1.34,3.9.9a2.34,2.34,0,0,0,1.25-4.51l2.5-.46a1,1,0,0,0,.06.16,2.2,2.2,0,0,0,3,1l.2-.12,4.41-2.8-.55,1.91a1.81,1.81,0,0,0,1.17,2.22,1.9,1.9,0,0,0,.57.1,1.84,1.84,0,0,0,1.64-1l3.44-6.89,3.17-1.59a.7.7,0,0,0,.32-.94l0-.07a.55.55,0,0,0-.73-.25h0Zm-10.9-16.9-6.66,1.23,3.2-4.65,6.66-1.23Zm-11.9,2.2,3.2-4.65,3.39-.63-3.2,4.66Zm3.25.76,1.33,7.2-3.93.72-1.33-7.2ZM1125.54,36l6.66-1.23-3.2,4.66-6.66,1.23Zm2.89,13.52-3.9,3.42-.94-.38-1.93-10.42,7.2-1.33,1.46,7.85a.64.64,0,0,0,.28.43A2.23,2.23,0,0,0,1128.43,49.54Zm6.58,5-5,.41,1.71-2.4a2.23,2.23,0,0,0-.49-3.11,2.08,2.08,0,0,0-.38-.22l.1,0,.12,0,5.24-1a.65.65,0,0,0,.53-.77l-1.45-7.86,7.2-1.33.19,1a.55.55,0,0,0,.63.44l.24,0a.55.55,0,0,0,.44-.63h0l-.27-1.43L1147,33l1.8,9.72-1.33-1.17a2.25,2.25,0,0,0-3.31,3l1.71,2.4-5-.41a2.44,2.44,0,0,0-2.64,2.23s0,.06,0,.09a2.44,2.44,0,0,0,2,2.52l2.23.4-4.41.94a2.37,2.37,0,0,0-1.83,2.05,2.49,2.49,0,0,0-1.29-.25Zm5.43,4.46-5.72,1.06-1.31-.28,2.24-.4a2.4,2.4,0,0,0,2-2.22,2.38,2.38,0,0,0,1.51.17l3.9-.91-1.79,1.34a2.26,2.26,0,0,0-.81,1.24Z" transform="translate(-1.22 -23)"/><path class="cls-18" d="M1150.62,69.7h0a.67.67,0,0,0,.66.67h0a4.66,4.66,0,0,0,4.59-3.89.65.65,0,0,0-.55-.76h-.11a.66.66,0,0,0-.65.56,3.34,3.34,0,0,1-3.28,2.77h0a.66.66,0,0,0-.67.66Z" transform="translate(-1.22 -23)"/><path class="cls-18" d="M1149.29,67h0a.67.67,0,0,0-.67.67h0a.67.67,0,0,0,.67.66h0a4.66,4.66,0,0,0,4.6-3.93.63.63,0,0,0-.53-.72h-.1a.72.72,0,0,0-.7.6A3.33,3.33,0,0,1,1149.29,67Z" transform="translate(-1.22 -23)"/><g id="Calque_3" data-name="Calque 3"><path class="cls-18" d="M1118.52,37.56a15.57,15.57,0,0,1-4.69-.73.49.49,0,0,0-.59.37.52.52,0,0,0,.38.6,16.59,16.59,0,0,0,4.94.76A.5.5,0,0,0,1119,38a.47.47,0,0,0-.47-.47Z" transform="translate(-1.22 -23)"/><path class="cls-18" d="M1118,38.77a16.31,16.31,0,0,1-4.49-.76.73.73,0,0,1-.54-.84v0a.81.81,0,0,1,.38-.49.67.67,0,0,1,.5,0,15.38,15.38,0,0,0,4.62.72h0a.7.7,0,0,1,.7.7.73.73,0,0,1-.68.76h0A4.61,4.61,0,0,1,1118,38.77Zm-4.58-1.52a.3.3,0,0,0,.22.33,16.15,16.15,0,0,0,4.88.76.27.27,0,0,0,.25-.29.26.26,0,0,0-.25-.26h0a15.43,15.43,0,0,1-4.76-.75.26.26,0,0,0-.15,0A.4.4,0,0,0,1113.46,37.25Z" transform="translate(-1.22 -23)"/><path class="cls-18" d="M1121.89,31.83c-1.51-1.49-3-3-4.55-4.5a.48.48,0,0,0-.69,0,.49.49,0,0,0,0,.69h0l.05.05,0,0c1.52,1.49,3,3,4.55,4.5a.5.5,0,0,0,.69-.72Z" transform="translate(-1.22 -23)"/><path class="cls-18" d="M1121.57,32.93a.72.72,0,0,1-.48-.2l-2.28-2.25-2.26-2.24,0,0a.72.72,0,0,1,0-1h0a.71.71,0,0,1,1,0h0l0,0,2.17,2.14,2.37,2.34,0,0a.72.72,0,0,1-.52,1.24ZM1117,27.42a.26.26,0,0,0-.27.26h0a.32.32,0,0,0,.08.2h0l0,0,2.27,2.25,2.28,2.25a.27.27,0,1,0,.37-.39h0l0,0h0l-2.39-2.36-2.16-2.14A.24.24,0,0,0,1117,27.42Z" transform="translate(-1.22 -23)"/><path class="cls-18" d="M1127.16,29.93a20.46,20.46,0,0,1,.44-5,.49.49,0,0,0-1-.19,22.11,22.11,0,0,0-.46,5.26C1126.2,30.64,1127.19,30.56,1127.16,29.93Z" transform="translate(-1.22 -23)"/><path class="cls-18" d="M1126.62,30.67a.9.9,0,0,1-.32-.09.66.66,0,0,1-.36-.57,22.62,22.62,0,0,1,.47-5.32.7.7,0,0,1,.47-.53.78.78,0,0,1,.75.16.66.66,0,0,1,.2.66,20,20,0,0,0-.43,4.94h0a.7.7,0,0,1-.32.63A.93.93,0,0,1,1126.62,30.67Zm.5-6.09h-.1a.24.24,0,0,0-.15.2,21.62,21.62,0,0,0-.47,5.2.2.2,0,0,0,.11.19.36.36,0,0,0,.32,0,.27.27,0,0,0,.1-.23,20,20,0,0,1,.44-5.06.22.22,0,0,0-.06-.23.37.37,0,0,0-.2-.07Z" transform="translate(-1.22 -23)"/></g><circle class="cls-19" cx="44.82" cy="67.24" r="6.53"/><text class="cls-20" transform="translate(19.21 117.22)"><tspan class="cls-21">P</tspan><tspan class="cls-22" x="8.72" y="0">A</tspan><tspan x="19.16" y="0">S DE</tspan><tspan class="cls-7"><tspan x="-19.21" y="18.53">C</tspan><tspan class="cls-8" x="-8.92" y="18.53">O</tspan><tspan class="cls-6" x="3.08" y="18.53">MMANDE</tspan></tspan></text><path class="cls-23" d="M35.22,32.44H36v.74a.61.61,0,0,0,.61.61.61.61,0,0,0,.61-.61v-.74h.74a.61.61,0,0,0,.61-.61.61.61,0,0,0-.61-.61h-.74v-.74a.61.61,0,0,0-.61-.61.62.62,0,0,0-.61.61v.74h-.74a.62.62,0,0,0-.61.61A.61.61,0,0,0,35.22,32.44Z" transform="translate(-1.22 -23)"/><path class="cls-23" d="M56.81,69h-.74v-.74a.61.61,0,0,0-.61-.61.61.61,0,0,0-.61.61V69h-.74a.61.61,0,0,0,0,1.22h.74V71a.61.61,0,0,0,.61.61.61.61,0,0,0,.61-.61v-.74h.74a.61.61,0,0,0,0-1.22Z" transform="translate(-1.22 -23)"/><path class="cls-18" d="M36.51,54.76a2,2,0,1,0-2,2A2,2,0,0,0,36.51,54.76Zm-2,.74a.74.74,0,1,1,.74-.74A.74.74,0,0,1,34.55,55.5Z" transform="translate(-1.22 -23)"/><path class="cls-18" d="M35.9,51.33a2,2,0,1,0-2-2A2,2,0,0,0,35.9,51.33Zm0-2.7a.74.74,0,1,1-.74.74A.74.74,0,0,1,35.9,48.63Z" transform="translate(-1.22 -23)"/><path class="cls-24" d="M62.81,50.69a1.09,1.09,0,0,0-2.09-.43,10.83,10.83,0,0,1-10,6.59h0A10.86,10.86,0,0,1,46.47,36a1.08,1.08,0,0,0,.64-1.22A1.09,1.09,0,0,0,46,33.92h0a16.78,16.78,0,0,0-11,4.06.61.61,0,0,0-.07.86.61.61,0,0,0,.86.06,15.64,15.64,0,0,1,9.56-3.75A12.08,12.08,0,0,0,50.7,58.07h0a12.05,12.05,0,0,0,10.84-6.76A15.6,15.6,0,0,1,46,66.29a15.42,15.42,0,0,1-2-.13.08.08,0,0,1-.06-.07,1,1,0,0,0,0-.24,2,2,0,0,0-1.8-1.58,2,2,0,0,0-1.78.91s0,0-.06,0a15.48,15.48,0,0,1-4.38-2.66.63.63,0,0,0-.87.06.61.61,0,0,0,.07.86,16.6,16.6,0,0,0,4.73,2.87,1.27,1.27,0,0,0,1.55-.49.73.73,0,0,1,1.34.26s0,.06,0,.09a1.27,1.27,0,0,0,1.11,1.19,17.8,17.8,0,0,0,2.2.14A16.81,16.81,0,0,0,62.81,50.72v0Z" transform="translate(-1.22 -23)"/><path class="cls-24" d="M30.44,50.72A15.59,15.59,0,0,1,34.2,40.57a.63.63,0,0,0-.06-.87.61.61,0,0,0-.86.07,16.78,16.78,0,0,0,0,21.89.6.6,0,0,0,.46.21.6.6,0,0,0,.46-1A15.61,15.61,0,0,1,30.44,50.72Z" transform="translate(-1.22 -23)"/><path class="cls-23" d="M62.88,60.9a.61.61,0,0,0-.62.61v1.35a.62.62,0,0,0,1.23,0V61.51a.61.61,0,0,0-.61-.61Z" transform="translate(-1.22 -23)"/><path class="cls-23" d="M62.88,66.29a.61.61,0,0,0-.62.61v1.35a.62.62,0,0,0,1.23,0V66.9A.61.61,0,0,0,62.88,66.29Z" transform="translate(-1.22 -23)"/><path class="cls-23" d="M66.25,64.27H64.9a.61.61,0,0,0,0,1.22h1.35a.61.61,0,0,0,0-1.22Z" transform="translate(-1.22 -23)"/><path class="cls-23" d="M60.85,64.27H59.5a.61.61,0,0,0,0,1.22h1.35a.61.61,0,0,0,0-1.22Z" transform="translate(-1.22 -23)"/><path class="cls-23" d="M29.16,35.14a.61.61,0,0,0,.61-.61V33.18a.62.62,0,0,0-1.23,0v1.35A.61.61,0,0,0,29.16,35.14Z" transform="translate(-1.22 -23)"/><path class="cls-23" d="M29.77,39.93V38.58a.62.62,0,0,0-1.23,0v1.35a.62.62,0,0,0,1.23,0Z" transform="translate(-1.22 -23)"/><path class="cls-23" d="M31.18,36.66h1.35c.33,0,.61-.16.61-.36s-.28-.36-.61-.36H31.18c-.34,0-.61.16-.61.36S30.84,36.66,31.18,36.66Z" transform="translate(-1.22 -23)"/><path class="cls-23" d="M27.13,35.94H25.78a.62.62,0,0,0-.61.61.61.61,0,0,0,.61.61h1.35a.61.61,0,0,0,.61-.61A.61.61,0,0,0,27.13,35.94Z" transform="translate(-1.22 -23)"/><rect class="cls-18" x="15.71" y="155.44" width="58.22" height="3.56"/><circle class="cls-25" cx="596.51" cy="20.27" r="6.64"/><path class="cls-26" d="M616.3,63.23l.07-.07a2.34,2.34,0,0,0-.27-3.07c-1-.91-2.23-.64-3.34-.14l-.52.26A2.46,2.46,0,0,0,611,58.68a4,4,0,0,0-3-.08,10.29,10.29,0,0,0-1.76.71,3.08,3.08,0,0,0-3.26-1.4,14.38,14.38,0,0,0-2.54,1c-.41.17-.82.35-1.22.54a5.3,5.3,0,0,1-1.37.57.43.43,0,0,0-.16.05c-3.23-.91-6.63-1.48-9.86-.24a59.65,59.65,0,0,0-5.79,2.84c-.58.3-.07,1.16.49.86l1.06-.55a23.29,23.29,0,0,0-1,3.84,3.39,3.39,0,0,0,.1,2.18,2.76,2.76,0,0,0,.94,1,24.38,24.38,0,0,1-4.53,2.36c-.61.2-.35,1.16.26,1,2.1-.68,3.84-2.06,5.81-3A13.79,13.79,0,0,1,591.45,69a13.3,13.3,0,0,1,3.26.47c1.11.3,2.17.75,3.27,1.09a17.65,17.65,0,0,0,6.65.91,14.65,14.65,0,0,0,6.26-2.2L614,67.41a6.29,6.29,0,0,0,2.41-1.88,2,2,0,0,0,0-2.23Zm-6.65-3.88a1.68,1.68,0,0,1,1.68,1.26s0,0,0,.08l-.36.19a17.48,17.48,0,0,1-2.16.82A32.22,32.22,0,0,0,605,63.3a3.34,3.34,0,0,0-1.43-1.38l-.19-.1c1.25-.5,2.41-1.24,3.65-1.78a5.87,5.87,0,0,1,2.65-.69Zm-7.23-.21a2.74,2.74,0,0,1,1.82-.22,2,2,0,0,1,1.11.84,13.76,13.76,0,0,1-3.45,1.46l-.1,0-.63-.19-1.86-.57c.29-.15.57-.31.85-.44C600.91,59.73,601.66,59.42,602.42,59.14ZM615.56,65c-.45.84-1.64,1.31-2.42,1.77-1,.58-1.94,1.16-2.92,1.73a13.05,13.05,0,0,1-6.13,2,18.16,18.16,0,0,1-6.28-1c-1-.34-2-.75-3.08-1a14.85,14.85,0,0,0-9.42.72c-.2.08-.41.18-.61.28a2.08,2.08,0,0,1-1.17-1.12,4.92,4.92,0,0,1,.22-2.18,24.93,24.93,0,0,1,1.18-3.89A15,15,0,0,1,591.74,60c3.24,0,6.39,1.13,9.45,2.07a7.86,7.86,0,0,1,2.25.9,1.56,1.56,0,0,1,.7,1.93l0,.07a14.8,14.8,0,0,1-3-.68,18.59,18.59,0,0,0-3.71-1.1,13.28,13.28,0,0,0-3.88,0c-.63.1-.36,1.06.27,1a12.39,12.39,0,0,1,6.45.83,15.23,15.23,0,0,0,3.26.87,21.26,21.26,0,0,0,3.19.3c1.91,0,3.47-.91,5.13-1.75a7.15,7.15,0,0,1,2.48-.84c.4,0,1-.08,1.26.26a1,1,0,0,1,0,1.07Zm0-2.32,0,.07a4,4,0,0,0-1.58,0c-1.92.3-3.46,1.6-5.27,2.21a7.93,7.93,0,0,1-3.46.23,2.26,2.26,0,0,0,.12-.89,29,29,0,0,1,3.2-1.37,26.63,26.63,0,0,0,3.25-1.26c.85-.45,2-1.32,3-1.15a1.34,1.34,0,0,1,.78,2.18Z" transform="translate(-1.22 -23)"/><path class="cls-17" d="M599.47,43.09a8.15,8.15,0,0,0-1.32-.83c-.42-.22-.91-.4-1-.92a.93.93,0,0,1,.14-.71.85.85,0,0,1,.75-.28c.4,0,1.38.22,1.09.83-.2.41.42.77.62.35.5-1.05-.44-1.78-1.45-1.89V38.53a.36.36,0,0,0-.71,0v1.16a1.39,1.39,0,0,0-1.14,1.11,1.73,1.73,0,0,0,.21,1.22,2.7,2.7,0,0,0,1.14.86c.71.37,2.24,1.11,1.67,2.14a1.64,1.64,0,0,1-1.46.68c-.54,0-1.22-.36-1-1a.36.36,0,0,0-.69-.19,1.55,1.55,0,0,0,1.28,1.85c0,.41,0,.83,0,1.24a.36.36,0,0,0,.72,0q0-.6,0-1.2a2.23,2.23,0,0,0,1.82-1A1.77,1.77,0,0,0,599.47,43.09Z" transform="translate(-1.22 -23)"/><path class="cls-26" d="M597.91,48.06a.46.46,0,0,1-.47-.44h0c0-.39,0-.79,0-1.17a1.83,1.83,0,0,1-1.1-.8,1.44,1.44,0,0,1-.17-1.16.42.42,0,0,1,.3-.32.51.51,0,0,1,.47.13.45.45,0,0,1,.11.43.54.54,0,0,0,.09.5,1.14,1.14,0,0,0,.86.37,1.56,1.56,0,0,0,1.38-.63.73.73,0,0,0,.07-.61c-.18-.6-1.09-1.07-1.63-1.35l-.19-.1a2.46,2.46,0,0,1-1.06-.83,1.75,1.75,0,0,1-.22-1.3,1.49,1.49,0,0,1,1.13-1.18V38.53a.46.46,0,0,1,.91,0v1a1.87,1.87,0,0,1,1.43.84,1.23,1.23,0,0,1,0,1.18.38.38,0,0,1-.32.24.48.48,0,0,1-.44-.22.45.45,0,0,1,0-.46.31.31,0,0,0,0-.32,1.41,1.41,0,0,0-1-.37c-.32,0-.53,0-.67.24a.78.78,0,0,0-.12.63c.08.41.43.59.8.77l.16.08a8.29,8.29,0,0,1,1.33.84h0a1.85,1.85,0,0,1,.63,2.41,2.29,2.29,0,0,1-1.81,1.08q0,.55,0,1.11a.43.43,0,0,1-.4.45h0Zm-1.32-3.7h-.07a.25.25,0,0,0-.16.17,1.28,1.28,0,0,0,.15,1,1.66,1.66,0,0,0,1.06.72l.08,0v.08c0,.41,0,.83,0,1.24a.25.25,0,0,0,.25.25h0a.22.22,0,0,0,.23-.21,0,0,0,0,0,0,0c0-.4,0-.81,0-1.21v-.09h.1a2.14,2.14,0,0,0,1.74-1,1.68,1.68,0,0,0-.59-2.16,8.27,8.27,0,0,0-1.29-.82l-.16-.08c-.38-.19-.81-.4-.91-.91a1,1,0,0,1,.16-.79.94.94,0,0,1,.83-.32,1.56,1.56,0,0,1,1.17.46.52.52,0,0,1,0,.51.24.24,0,0,0,0,.27.3.3,0,0,0,.25.13.2.2,0,0,0,.16-.13,1.05,1.05,0,0,0,0-1,1.8,1.8,0,0,0-1.37-.76h-.09V38.54a.26.26,0,0,0-.26-.26.26.26,0,0,0-.26.26v1.23l-.07,0a1.31,1.31,0,0,0-1.06,1,1.57,1.57,0,0,0,.2,1.14,2.34,2.34,0,0,0,1,.76l.19.1c.58.3,1.53.79,1.74,1.47a1,1,0,0,1-.1.76,1.75,1.75,0,0,1-1.55.74,1.34,1.34,0,0,1-1-.46.75.75,0,0,1-.13-.66.23.23,0,0,0-.05-.24A.32.32,0,0,0,596.59,44.36Z" transform="translate(-1.22 -23)"/><path class="cls-17" d="M597.87,50.23A7.16,7.16,0,1,1,605,43.07h0A7.17,7.17,0,0,1,597.87,50.23Zm0-13.61a6.45,6.45,0,1,0,6.45,6.45h0A6.47,6.47,0,0,0,597.87,36.62Z" transform="translate(-1.22 -23)"/><path class="cls-26" d="M597.87,50.33a7.26,7.26,0,1,1,7.26-7.26h0a7.27,7.27,0,0,1-7.26,7.26Zm0-14.32h0a7.06,7.06,0,0,0,0,14.12h0A7.06,7.06,0,0,0,598,36Zm0,13.61h0a6.55,6.55,0,1,1,0-13.1h0a6.55,6.55,0,0,1,0,13.1Zm0-12.9a6.35,6.35,0,0,0,0,12.7h0a6.35,6.35,0,1,0,0-12.7Z" transform="translate(-1.22 -23)"/><path class="cls-17" d="M597.9,53.09a10.05,10.05,0,1,1,6.9-17.36.34.34,0,0,1,0,.5.35.35,0,0,1-.48,0h0a9.3,9.3,0,1,0,2.2,3.17.36.36,0,0,1,.18-.47.34.34,0,0,1,.47.17v0a10.06,10.06,0,0,1-9.27,14Z" transform="translate(-1.22 -23)"/><path class="cls-26" d="M597.9,53.19a10.15,10.15,0,1,1,7-17.53.45.45,0,0,1,0,.64.46.46,0,0,1-.65,0,9.21,9.21,0,1,0,2.18,3.14.45.45,0,0,1,.23-.6.44.44,0,0,1,.6.22h0l0,0a10.15,10.15,0,0,1-9.37,14.08Zm0-20.1h0a10,10,0,1,0,10,9.95,9.83,9.83,0,0,0-.78-3.86s0,0,0,0a.25.25,0,0,0-.34-.12h0a.25.25,0,0,0-.12.34,9.56,9.56,0,0,1,.73,3.66,9.45,9.45,0,1,1-3-6.86.26.26,0,0,0,.36,0,.26.26,0,0,0,0-.37h0a9.84,9.84,0,0,0-6.81-2.71Z" transform="translate(-1.22 -23)"/><g id="Calque_3-2" data-name="Calque 3"><path class="cls-25" d="M583,41.3a18.67,18.67,0,0,1-5.6.78.59.59,0,0,0-.54.63.62.62,0,0,0,.63.55,20,20,0,0,0,5.9-.84.6.6,0,0,0,.35-.77.55.55,0,0,0-.7-.36Z" transform="translate(-1.22 -23)"/><path class="cls-25" d="M582.87,42.84a20.36,20.36,0,0,1-5.38.69.88.88,0,0,1-.9-.78v0a1,1,0,0,1,.26-.68.77.77,0,0,1,.55-.24A18,18,0,0,0,582.9,41H583a.84.84,0,0,1,1,.55.87.87,0,0,1-.51,1.09h0C583.27,42.73,583.07,42.8,582.87,42.84Zm-5.74-.15a.36.36,0,0,0,.36.3,19.45,19.45,0,0,0,5.82-.82.33.33,0,0,0,.18-.42.29.29,0,0,0-.37-.2h0a18.83,18.83,0,0,1-5.68.79.25.25,0,0,0-.17.08A.4.4,0,0,0,577.13,42.69Z" transform="translate(-1.22 -23)"/><path class="cls-25" d="M584.85,33.6l-6.73-3.54a.6.6,0,0,0-.8.2.58.58,0,0,0,.2.8h0l.07,0,.06,0,6.73,3.54a.59.59,0,0,0,.79-.26.59.59,0,0,0-.26-.79Z" transform="translate(-1.22 -23)"/><path class="cls-25" d="M584.86,35a.86.86,0,0,1-.61-.07l-3.37-1.77-3.35-1.77-.06,0a.86.86,0,0,1-.41-1.14h0a.87.87,0,0,1,1.14-.4h0l0,0,3.21,1.69L585,33.36l.06,0a.85.85,0,0,1,.37,1.15.84.84,0,0,1-.54.43Zm-7.09-4.71a.33.33,0,0,0-.21.4h0a.3.3,0,0,0,.16.19h0l0,0,3.37,1.77c1.12.59,2.24,1.19,3.36,1.77a.32.32,0,0,0,.43-.14.31.31,0,0,0-.14-.42h0l0,0h0Q583,32.92,581.2,32L578,30.3A.34.34,0,0,0,577.77,30.27Z" transform="translate(-1.22 -23)"/><path class="cls-25" d="M590.2,29.63A23.38,23.38,0,0,1,589,23.79a.59.59,0,0,0-1.17.11,26.31,26.31,0,0,0,1.29,6.15C589.34,30.77,590.44,30.34,590.2,29.63Z" transform="translate(-1.22 -23)"/><path class="cls-25" d="M589.83,30.65a.77.77,0,0,1-.4,0,.76.76,0,0,1-.59-.53,26.43,26.43,0,0,1-1.31-6.21.81.81,0,0,1,.35-.76.93.93,0,0,1,.91-.09.81.81,0,0,1,.46.68,23.62,23.62,0,0,0,1.21,5.77h0a.81.81,0,0,1-.15.83A.86.86,0,0,1,589.83,30.65Zm-1.53-7.1-.11.05a.33.33,0,0,0-.11.28A26.32,26.32,0,0,0,589.35,30a.27.27,0,0,0,.19.18.4.4,0,0,0,.36-.13.28.28,0,0,0,0-.29,23.84,23.84,0,0,1-1.24-5.91.25.25,0,0,0-.15-.23.36.36,0,0,0-.25,0Z" transform="translate(-1.22 -23)"/></g><path class="cls-27" d="M786.06,72c.25-.87.52-1.74.78-2.61a13.56,13.56,0,0,0,.58-2.34,4,4,0,0,0-.32-2A5.81,5.81,0,0,0,786,63.47c-.89-1-2-1.78-2.76-2.84a4.58,4.58,0,0,1-.84-1.75,5.23,5.23,0,0,1,0-2A12.47,12.47,0,0,1,784.73,52a.3.3,0,0,0-.06-.42.29.29,0,0,0-.39,0,14.84,14.84,0,0,0-2.33,4.5,5.76,5.76,0,0,0,.4,4.2,14.31,14.31,0,0,0,2.65,3,5,5,0,0,1,1.83,3.13,7.37,7.37,0,0,1-.49,2.56c-.28,1-.59,2-.87,3-.05.15.1.31.24.34A.35.35,0,0,0,786.06,72Z" transform="translate(-1.22 -23)"/><path class="cls-27" d="M786.87,57.94a17.43,17.43,0,0,0,.25-3,3.69,3.69,0,0,0-.7-2.23,5.34,5.34,0,0,0-1.07-1c-.41-.31-.84-.6-1.25-.92a17.9,17.9,0,0,1-2.12-2,12.64,12.64,0,0,1-1.7-2.28,8.22,8.22,0,0,1-.58-1.24,2.33,2.33,0,0,1-.17-1.19,1.25,1.25,0,0,1,.52-.82.87.87,0,0,1,1,.05,5.58,5.58,0,0,1,1,.88c.38.36.76.73,1.14,1.07,1.56,1.46,3.18,2.84,4.87,4.16l.62.49c.29.23.67-.22.37-.45-1.73-1.33-3.4-2.74-5-4.21l-1.22-1.13c-.36-.35-.71-.72-1.1-1a1.94,1.94,0,0,0-1.19-.53,1.48,1.48,0,0,0-1.09.52,2.41,2.41,0,0,0-.22,2.47,10.61,10.61,0,0,0,1.44,2.54,16.92,16.92,0,0,0,2,2.2c.37.34.75.67,1.15,1l1.3,1a4.55,4.55,0,0,1,.58.49,3.48,3.48,0,0,1,.38.48,2.87,2.87,0,0,1,.41,1,6.58,6.58,0,0,1,0,1.33c0,.51-.07,1-.12,1.51,0,.26-.07.5-.11.75A.3.3,0,0,0,786.87,57.94Z" transform="translate(-1.22 -23)"/><path class="cls-27" d="M786.55,48.11a3.08,3.08,0,0,1,2.18.4,5.72,5.72,0,0,1,1.86,2l.48-.33-.88-1.38a.72.72,0,0,1-.12-.21.12.12,0,0,1-.05.1h.16a6.2,6.2,0,0,1,.72.16,6.56,6.56,0,0,1,2.53,1.3l.38-.45-.69-.54a3.71,3.71,0,0,0-.09.5,3.41,3.41,0,0,1,3.35,1.12,4,4,0,0,1,.79,2c.11.78.17,1.55.21,2.33a30.52,30.52,0,0,1-1,9.32,29.43,29.43,0,0,1-1.83,4.95.29.29,0,0,0,.52.24,29,29,0,0,0,1.74-4.6,29.76,29.76,0,0,0,1-4.78,30.81,30.81,0,0,0,.21-4.9c0-.82-.1-1.65-.21-2.47a4.66,4.66,0,0,0-.77-2.26A4,4,0,0,0,793.37,49a4.71,4.71,0,0,0-.52.09.3.3,0,0,0-.09.51l.69.55a.29.29,0,0,0,.37-.45,6.86,6.86,0,0,0-2.38-1.31,5,5,0,0,0-1.36-.3.56.56,0,0,0-.55.32.62.62,0,0,0,.12.6c.3.5.63,1,1,1.48.2.32.68,0,.47-.33A6.38,6.38,0,0,0,789,48a3.61,3.61,0,0,0-2.48-.45.3.3,0,0,0-.26.31C786.25,48,786.39,48.15,786.55,48.11Z" transform="translate(-1.22 -23)"/><path class="cls-27" d="M796.24,65a15.51,15.51,0,0,1-4,2.21c-.47.17-5,1.29-4.93.51,0-.35-.51-.35-.55,0-.19,1.64,3.76.52,4.47.35a14.45,14.45,0,0,0,5.27-2.6C796.8,65.23,796.52,64.76,796.24,65Z" transform="translate(-1.22 -23)"/><path class="cls-28" d="M774.2,44.62s0-.06,0-.09V32.26a.15.15,0,0,0,0-.07,2.09,2.09,0,0,0-.34-1.5,1.29,1.29,0,0,0-1.1-.59H758.93a1.67,1.67,0,0,0-1.21.51,2,2,0,0,0-.39,1.51s0,0,0,0v13s0,0,0,0a1.8,1.8,0,0,0,2,1.71H772.5a1.89,1.89,0,0,0,1.43-.59A3.08,3.08,0,0,0,774.2,44.62Zm-.87,1.14c-.1.29-.61.4-.89.38H759.83a2.23,2.23,0,0,1-.37,0l-.14,0a1.2,1.2,0,0,1-.2,0,1.38,1.38,0,0,1-.67-.24.82.82,0,0,1-.3-.68.13.13,0,0,1,0-.06V32.32a.37.37,0,0,0,0-.11,1.47,1.47,0,0,1,.15-1,1,1,0,0,1,.9-.27h13.51a.57.57,0,0,1,.55.36.87.87,0,0,1,.11.38.68.68,0,0,1,0,.14c0,.14,0,.29,0,.44a.41.41,0,0,1,0,.11,0,0,0,0,1,0,0V44.71s0,.07,0,.1A2.73,2.73,0,0,1,773.33,45.76Z" transform="translate(-1.22 -23)"/><path class="cls-28" d="M793.82,44.62s0-.06,0-.09V32.26s0,0,0-.07a2.09,2.09,0,0,0-.34-1.5,1.29,1.29,0,0,0-1.1-.59H778.55a1.65,1.65,0,0,0-1.21.51,2,2,0,0,0-.39,1.51s0,0,0,0v13a.09.09,0,0,0,0,0,1.8,1.8,0,0,0,2,1.71h.74a.65.65,0,0,1,0-.82h-.19a2.3,2.3,0,0,1-.37,0l-.14,0a1.06,1.06,0,0,1-.2,0,1.38,1.38,0,0,1-.67-.24.79.79,0,0,1-.3-.68.13.13,0,0,1,0-.06V32.32a.37.37,0,0,0,0-.11,1.47,1.47,0,0,1,.15-1,1,1,0,0,1,.9-.27h13.5a.57.57,0,0,1,.56.36.87.87,0,0,1,.11.38.68.68,0,0,1,0,.14c0,.14,0,.29,0,.44a.41.41,0,0,1,0,.11,0,0,0,0,1,0,0V44.71a.34.34,0,0,0,0,.1,3,3,0,0,1,0,.95c-.1.29-.61.4-.89.38h-7.13A.64.64,0,0,1,785,47h7.11a1.87,1.87,0,0,0,1.43-.59A3,3,0,0,0,793.82,44.62Z" transform="translate(-1.22 -23)"/><path class="cls-29" d="M769,41l-5.75-5.68a.55.55,0,1,0-.77.78l5.76,5.67A.54.54,0,1,0,769,41Z" transform="translate(-1.22 -23)"/><path class="cls-29" d="M763.21,41.79,769,36.1a.55.55,0,1,0-.77-.78L762.44,41A.55.55,0,1,0,763.21,41.79Z" transform="translate(-1.22 -23)"/><path class="cls-29" d="M785.29,40.11,783,37.81a.54.54,0,1,0-.77.77l2.28,2.3A.54.54,0,1,0,785.29,40.11Z" transform="translate(-1.22 -23)"/><path class="cls-29" d="M789.13,35.48l-4.62,4.67c-.46.47.31,1.23.78.76l4.61-4.66C790.37,35.78,789.59,35,789.13,35.48Z" transform="translate(-1.22 -23)"/><path class="cls-30" d="M228.8,28.51v7.33c0,.85.87.85.87,0V28.51C229.67,27.66,228.8,27.66,228.8,28.51Z" transform="translate(-1.22 -23)"/><path class="cls-30" d="M237.68,32.14l-5.2,5.17c-.61.6,0,1.22.61.62l5.21-5.16C238.9,32.17,238.28,31.55,237.68,32.14Z" transform="translate(-1.22 -23)"/><path class="cls-30" d="M224,45.8,218.82,51c-.61.6,0,1.22.61.62l5.2-5.16C225.24,45.83,224.62,45.21,224,45.8Z" transform="translate(-1.22 -23)"/><path class="cls-30" d="M238.43,57.64l-3.18-9.42c-.37-1.09-1.49-.71-1.12.38L237.31,58C237.67,59.11,238.8,58.74,238.43,57.64Z" transform="translate(-1.22 -23)"/><path class="cls-30" d="M222.56,41.4l-7.33.06c-.85,0-.84.88,0,.88l7.34-.06C223.41,42.27,223.41,41.39,222.56,41.4Z" transform="translate(-1.22 -23)"/><path class="cls-30" d="M224.62,37.31l-5.16-5.21c-.6-.6-1.22,0-.63.62L224,37.93C224.59,38.53,225.21,37.92,224.62,37.31Z" transform="translate(-1.22 -23)"/><path class="cls-24" d="M256.67,63.42l0,0-8.3-8.29,4.94-5a.59.59,0,0,0-.25-1,0,0,0,0,0,0,0l-1.18-.38-23.06-7.86-.22,0a.59.59,0,0,0-.63.76l5.68,17.23a.4.4,0,0,0,0,.15L236,66.19a.65.65,0,0,0,1,.24l4.91-5,8.28,8.27a.57.57,0,0,0,.22.19.59.59,0,0,0,.82-.22h0l5.32-5.25C257,64,256.92,63.62,256.67,63.42Zm-6,5.12-8.16-8.14a.48.48,0,0,0-.2-.2h0A.57.57,0,0,0,242,60a.54.54,0,0,0-.5.16l-4.66,4.73a.35.35,0,0,0,0-.13l-7.39-22.45,22,7.48h0l.07,0,.3.1-4.66,4.72a.54.54,0,0,0-.17.43.57.57,0,0,0,.18.46l8.34,8.32Z" transform="translate(-1.22 -23)"/><path class="cls-17" d="M980.57,53.26l-1.26-5a.76.76,0,0,0,.6-.74v-.82a3.2,3.2,0,0,0-3.2-3.2H971V41.77a1.57,1.57,0,0,0-1.58-1.57H940.11a1.57,1.57,0,0,0-1.57,1.57V55.6a.76.76,0,1,0,1.52,0V41.77a0,0,0,0,1,.05-.05h29.28a0,0,0,0,1,.05.05V55.6a.76.76,0,0,0,.76.76.77.77,0,0,0,.77-.76v-.87h9a2.5,2.5,0,0,1,2.37,1.73H980a.76.76,0,0,0-.76.77v1.62a2.39,2.39,0,0,0,2.39,2.39h.86V64.6h-2a4.83,4.83,0,0,0-9.13,0H971V58.85a.77.77,0,0,0-.77-.76.76.76,0,0,0-.76.76V64.6H953.62a4.82,4.82,0,0,0-9.12,0h-4.39a.06.06,0,0,1-.05-.06V62.87h3.31a.77.77,0,0,0,0-1.53h-7.32a.77.77,0,1,0,0,1.53h2.49v1.67a1.57,1.57,0,0,0,1.57,1.58h1.74v1h-.63a.72.72,0,0,0,0,1.43h1.28a.72.72,0,0,0,.71-.69.71.71,0,0,0,.07-.31V66.12h1v0a4.83,4.83,0,0,0,9.66,0v0h17.18v0a4.83,4.83,0,0,0,9.66,0s0,0,0,0h2.5a.76.76,0,0,0,.76-.76V57.23A4,4,0,0,0,980.57,53.26ZM971,45h5.74a1.68,1.68,0,0,1,1.68,1.67v.05H971Zm0,8.23v-5h6.77l1.25,5ZM949.06,69.48a3.31,3.31,0,1,1,3.3-3.31A3.32,3.32,0,0,1,949.06,69.48Zm26.84,0a3.31,3.31,0,1,1,3.3-3.31A3.32,3.32,0,0,1,975.9,69.48Zm6.55-9.76h-.86a.86.86,0,0,1-.86-.87V58h1.72Z" transform="translate(-1.22 -23)"/><path class="cls-17" d="M949.06,64.6a1.58,1.58,0,1,0,1.57,1.57A1.57,1.57,0,0,0,949.06,64.6Z" transform="translate(-1.22 -23)"/><path class="cls-17" d="M975.9,64.6a1.58,1.58,0,1,0,1.57,1.57A1.57,1.57,0,0,0,975.9,64.6Z" transform="translate(-1.22 -23)"/><path class="cls-31" d="M967,61.34H955.56a.77.77,0,0,0,0,1.53H967a.77.77,0,0,0,0-1.53Z" transform="translate(-1.22 -23)"/><path class="cls-31" d="M947.43,58.09h-9.76a.76.76,0,1,0,0,1.52h9.76a.76.76,0,1,0,0-1.52Z" transform="translate(-1.22 -23)"/><path class="cls-31" d="M958.68,52.29a1.77,1.77,0,0,0,0-2.54l-2.48-2.41a2.25,2.25,0,0,0-3.19,0l-.47.47a.6.6,0,0,0,0,.84L954.93,51l-2.39,2.32a.6.6,0,0,0-.18.42.59.59,0,0,0,.17.42l.47.48a2.26,2.26,0,0,0,3.19,0Zm-4.83,1.55-.05-.05,2.4-2.34a.6.6,0,0,0,.18-.42.62.62,0,0,0-.18-.43l-2.4-2.33.05-.05a1.06,1.06,0,0,1,1.51,0l2.48,2.41a.56.56,0,0,1,0,.82l-2.49,2.43a1.07,1.07,0,0,1-1.51,0Z" transform="translate(-1.22 -23)"/><path class="cls-31" d="M934.79,58.09h-1.41a.72.72,0,0,0,0,1.43h1.41A.72.72,0,0,0,934.79,58.09Z" transform="translate(-1.22 -23)"/><path class="cls-31" d="M933.46,61.41h-2.57a.72.72,0,0,0,0,1.43h2.57A.72.72,0,0,0,933.46,61.41Z" transform="translate(-1.22 -23)"/><path class="cls-31" d="M943.51,61.35h-7.87a.76.76,0,0,0,0,1.51h7.87A.76.76,0,0,0,943.51,61.35Z" transform="translate(-1.22 -23)"/><g id="Calque_3-3" data-name="Calque 3"><path class="cls-31" d="M973.5,31.72a18.11,18.11,0,0,1-.76-5.42.57.57,0,0,0-.61-.53.61.61,0,0,0-.53.62,19,19,0,0,0,.81,5.71.58.58,0,0,0,.75.34.54.54,0,0,0,.35-.68Z" transform="translate(-1.22 -23)"/><path class="cls-31" d="M972,31.6a19.56,19.56,0,0,1-.66-5.22.85.85,0,0,1,.75-.87h0a.9.9,0,0,1,.66.25.72.72,0,0,1,.23.53,17.86,17.86,0,0,0,.75,5.34v.05a.8.8,0,0,1-.53,1,.84.84,0,0,1-1.06-.49v0C972.11,32,972.05,31.79,972,31.6Zm.15-5.57a.35.35,0,0,0-.29.35,18.89,18.89,0,0,0,.79,5.64.33.33,0,0,0,.41.18.29.29,0,0,0,.2-.36l0,0a18.27,18.27,0,0,1-.76-5.5.24.24,0,0,0-.07-.16A.43.43,0,0,0,972.15,26Z" transform="translate(-1.22 -23)"/><path class="cls-31" d="M981,33.52c1.14-2.17,2.3-4.35,3.43-6.52a.56.56,0,0,0-.19-.78.57.57,0,0,0-.77.19h0a.2.2,0,0,0,0,.08l0,.05-3.44,6.52a.57.57,0,0,0,1,.52S981,33.54,981,33.52Z" transform="translate(-1.22 -23)"/><path class="cls-31" d="M979.63,33.53a.76.76,0,0,1,.06-.59c.57-1.09,1.14-2.18,1.72-3.27l1.71-3.25,0-.06a.83.83,0,0,1,1.1-.39h0a.83.83,0,0,1,.39,1.11h0l0,0c-.55,1-1.09,2.07-1.63,3.1l-1.8,3.41s0,0,0,.06a.82.82,0,0,1-1.11.36.84.84,0,0,1-.42-.52Zm4.55-6.87a.31.31,0,0,0-.38-.21h0a.32.32,0,0,0-.19.15v.06l-1.72,3.26-1.72,3.26a.31.31,0,0,0,.14.42.31.31,0,0,0,.41-.14h0v-.05c.6-1.14,1.2-2.29,1.81-3.43l1.63-3.09A.3.3,0,0,0,984.18,26.66Z" transform="translate(-1.22 -23)"/><path class="cls-31" d="M984.81,38.7a23.32,23.32,0,0,1,5.65-1.19.57.57,0,0,0-.11-1.14,25.35,25.35,0,0,0-6,1.26C983.7,37.87,984.12,38.94,984.81,38.7Z" transform="translate(-1.22 -23)"/><path class="cls-31" d="M983.81,38.35a.86.86,0,0,1,0-.39.74.74,0,0,1,.51-.58,25.81,25.81,0,0,1,6-1.26.76.76,0,0,1,.74.34.89.89,0,0,1,.08.88.76.76,0,0,1-.66.44A22.83,22.83,0,0,0,984.9,39h0a.82.82,0,0,1-.81-.15A1,1,0,0,1,983.81,38.35Zm6.88-1.49a.24.24,0,0,0-.05-.1.25.25,0,0,0-.26-.11,25.29,25.29,0,0,0-5.9,1.23.23.23,0,0,0-.17.18.39.39,0,0,0,.13.35.28.28,0,0,0,.28,0,23.31,23.31,0,0,1,5.72-1.2.25.25,0,0,0,.23-.15.33.33,0,0,0,0-.24Z" transform="translate(-1.22 -23)"/></g><path class="cls-26" d="M436.11,63.6a18.6,18.6,0,0,1-3.2-2.52A18.86,18.86,0,0,1,431.36,59a.41.41,0,0,0-.07-.11c-.23-.36-.46-.71-.7-1.06-1.27-1.91-3.2-4.11-2.84-6.56a3.53,3.53,0,0,0,.37-1.18A2.11,2.11,0,0,0,426,47.76a2.84,2.84,0,0,0-.77.08.78.78,0,0,0,.05-.14,2.56,2.56,0,0,0-.53-2.69,2.52,2.52,0,0,0-2.58-.71,3.29,3.29,0,0,0-.84-2.68,3.56,3.56,0,0,0-1.8-1,2.48,2.48,0,0,0,.35-.82,2,2,0,0,0-1.06-2,2.58,2.58,0,0,0-2.8-.17c-1.78.39-3.61-.61-5.32-1a2.83,2.83,0,0,0-2.65.37,1.54,1.54,0,0,0-.42.93h0c-1.34.24-2.85.62-3.42,2a2,2,0,0,0,.31,2,4.19,4.19,0,0,0-.67.42,3.62,3.62,0,0,0-1.23,1.63,3,3,0,0,0,.14,2.36,5.21,5.21,0,0,0-.85.43,3.56,3.56,0,0,0-1.35,1.32,2.55,2.55,0,0,0,.54,3.07l.28.28a2.79,2.79,0,0,0-.51.46,9.25,9.25,0,0,0-1.37,1.63c-.78,1.33.2,2.48,1.25,3.28l.13.1a24.2,24.2,0,0,1-6.57,7.35c-.46.35.09,1.05.56.71a24.92,24.92,0,0,0,3.65-3.31,19.63,19.63,0,0,0,.62,3.25,7.06,7.06,0,0,0,2.3,3.15A9,9,0,0,0,405,70.37a8.28,8.28,0,0,0,3,0l-2.75,3.88c-.34.47.39,1,.72.53L408.74,71c.9-1.26,1.76-2.56,2.7-3.79a6.46,6.46,0,0,1,3.21-2.24A20.76,20.76,0,0,0,418,63.69a6.33,6.33,0,0,0,.61-.39c1.28,1.83,2.38,3.75,3.51,5.68a22.77,22.77,0,0,0,4.07,5.38c.42.39.95-.33.53-.72a22.77,22.77,0,0,1-4-5.43l-.75-1.29a7.26,7.26,0,0,0,2.46.09,7,7,0,0,0,3.39-1.23,9.07,9.07,0,0,0,1.31-1.39,20.48,20.48,0,0,0,1.3-1.76,6.78,6.78,0,0,0,.92-2.16,12.89,12.89,0,0,0,.85,1.1,19.19,19.19,0,0,0,3.44,2.76A.45.45,0,0,0,436.11,63.6Zm-25.47-26a35.9,35.9,0,0,0,4.19,1c-.16.17-.31.35-.45.53a15.08,15.08,0,0,1-1.8,2.46c-.14.13-.39.41-.61.4s-.46-.29-.6-.38a12.62,12.62,0,0,1-1.2-.87,4,4,0,0,1-1.61-2.28C408.39,37.18,409.83,37.41,410.64,37.58Zm-5.59,3.59a1.44,1.44,0,0,1,.67-1.62,4.77,4.77,0,0,1,2-.66,2.51,2.51,0,0,0,.16.46,5.92,5.92,0,0,0,1.87,2.2c.39.31.8.59,1.21.86a1.77,1.77,0,0,0,1.14.46,1.16,1.16,0,0,0,.32-.08,2.79,2.79,0,0,1,.87,1.63,1.16,1.16,0,0,1-1.06,1.33,4.6,4.6,0,0,1-2.06-.56A12.41,12.41,0,0,1,408.14,44c-.62-.44-1.21-.92-1.81-1.4A3.69,3.69,0,0,1,405.05,41.17ZM403.69,44a3,3,0,0,1,.62-.71c.19-.16.68-.58.93-.45h0a4.71,4.71,0,0,0,.42.36,20,20,0,0,0,4,2.73c.25.12.52.24.82.36a2.37,2.37,0,0,1-.71,3c-1.26.82-2.37-.08-3.38-.83l-1.76-1.31a2.65,2.65,0,0,1-1.18-1.4,2.24,2.24,0,0,1,.25-1.75Zm-2.5,5.72a1.72,1.72,0,0,1,.53-1.54,3.61,3.61,0,0,1,.75-.55c.14-.07.66-.41.82-.37h0l.18.17c.59.52,1.27,1,1.91,1.44a14.41,14.41,0,0,0,1.84,1.28,2.35,2.35,0,0,0,.43.19.59.59,0,0,0,0,.13,2.66,2.66,0,0,1-1,2.94,1.4,1.4,0,0,1-1.59-.18c-.57-.38-1.11-.81-1.66-1.21l-.76-.53a.45.45,0,0,0-.19-.14,3.14,3.14,0,0,1-1.31-1.64Zm.11,6.51a3.81,3.81,0,0,1-1-1,1,1,0,0,1,.1-1.22,11.54,11.54,0,0,1,.91-1.06c.22-.25.5-.65.85-.7.69.55,1.45,1,2.15,1.54a5.1,5.1,0,0,0,.69.45.47.47,0,0,0,0,.35,2,2,0,0,1-1,2.24,1.6,1.6,0,0,1-1.37.24,3.09,3.09,0,0,1-.81-.46l-.09-.07-.37-.28Zm20.81,1.34c-.86,1.18-1.71,2.39-2.6,3.55a7.69,7.69,0,0,1-1.11,1.17h0a6.07,6.07,0,0,1-1.69,1c-1,.4-2,.65-3,1.06a6.81,6.81,0,0,0-2.74,2c-.78,1-1.47,2-2.18,3h0a9,9,0,0,1-3.5.09,8.58,8.58,0,0,1-3.21-2,6,6,0,0,1-2.07-3,31.41,31.41,0,0,1-.6-3.62,25.35,25.35,0,0,0,2.31-3.33,2.72,2.72,0,0,0,1,.41,2.68,2.68,0,0,0,1.78-.45,2.88,2.88,0,0,0,1.45-3,2.22,2.22,0,0,0,1.64-.6,3.57,3.57,0,0,0,1.11-3.39,2.87,2.87,0,0,0,2-.8,3.22,3.22,0,0,0,.85-3.1,2.26,2.26,0,0,0,2-.45c1.18-1.13.58-2.8-.35-3.86a7.83,7.83,0,0,0,1-1.31,7.25,7.25,0,0,1,2-2.45l0,0a4.27,4.27,0,0,0,.48-.13.35.35,0,0,0,.19-.12,1.88,1.88,0,0,1,2,.85c.25.42,0,.81-.21,1.17a10.48,10.48,0,0,0-.71,1.11l-.25.3c-.41.5-.8,1-1.16,1.56s.41,1,.73.53.5-.74.78-1.1.33-.45.51-.66a.41.41,0,0,0,.16-.16,1.07,1.07,0,0,1,.19-.18c.6-.47,1.48.25,1.88.7a2.2,2.2,0,0,1,.3,2.23l-.31.45a7,7,0,0,0-1.38,1.73c-.26.43.27.9.6.67a.48.48,0,0,0,.23-.17l1.1-1.48.09-.13a2.61,2.61,0,0,1,.7-.42,1.69,1.69,0,0,1,2.05.49c1.21,1.55-.9,3-1.59,4.26a.5.5,0,0,0,.2.68h0a.38.38,0,0,0,.6-.09c.57-1,1.49-2.19,2.79-1.91,1.1.24,1.1,1.26.72,2.09a.34.34,0,0,0-.06.12l0,.05a29.65,29.65,0,0,1-2.23,3.13Zm5.11,7.53a6.12,6.12,0,0,1-2.9,1,5.64,5.64,0,0,1-3.07-.36h0c-.63-1-1.27-2.05-2-3a14.32,14.32,0,0,0,1.57-1.89l2.8-3.83,2.86-3.9.38-.51c.3,2,1.74,3.82,2.83,5.47.28.41.55.83.82,1.25a5.08,5.08,0,0,1-1,3.08,12.37,12.37,0,0,1-2.26,2.68Z" transform="translate(-1.22 -23)"/><path class="cls-32" d="M411.93,62.19c-2.19.87-3.4,3.13-4.66,5-.21.32.31.62.53.3,1.14-1.7,2.28-3.91,4.29-4.71C412.45,62.63,412.29,62.05,411.93,62.19Z" transform="translate(-1.22 -23)"/><path class="cls-32" d="M428.71,59.76c-.62-1.39-1.74-2.45-2.06-4-.08-.38-.67-.22-.59.16.34,1.58,1.49,2.68,2.13,4.11C428.34,60.42,428.86,60.11,428.71,59.76Z" transform="translate(-1.22 -23)"/><path class="cls-33" d="M418.28,24.4a.68.68,0,0,1,0,.4l-1,6.81a.76.76,0,0,1-.85.67h0a.77.77,0,0,1-.66-.86v0c.25-1.7.51-3.4.77-5.1.09-.58.16-1.16.25-1.73a.77.77,0,0,1,.69-.67A.75.75,0,0,1,418.28,24.4Z" transform="translate(-1.22 -23)"/><path class="cls-33" d="M426.09,31a.8.8,0,0,1,1.09.4.77.77,0,0,1-.49,1c-.23.1-.46.22-.69.33a22.33,22.33,0,0,0-3.82,2.41.69.69,0,0,1-.84,0,.74.74,0,0,1-.09-1.28,23.53,23.53,0,0,1,4.41-2.71Z" transform="translate(-1.22 -23)"/><path class="cls-33" d="M408.06,28.3a16.5,16.5,0,0,0,2,3.79.76.76,0,0,1-.09,1.07.77.77,0,0,1-1.1-.07l-.05-.06a16,16,0,0,1-1.25-2,25,25,0,0,1-1.1-2.41,4.14,4.14,0,0,1-.18-.6.78.78,0,0,1,.48-.88.8.8,0,0,1,1,.41C407.89,27.82,408,28.06,408.06,28.3Z" transform="translate(-1.22 -23)"/><rect class="cls-34" x="1026.78" y="1" width="42" height="52"/></svg>