<?xml version="1.0" encoding="utf-8"?>
<!-- Generator: Adobe Illustrator 24.0.0, SVG Export Plug-In . SVG Version: 6.00 Build 0)  -->
<svg version="1.1" id="Calque_1" xmlns="http://www.w3.org/2000/svg" xmlns:xlink="http://www.w3.org/1999/xlink" x="0px" y="0px"
	 viewBox="0 0 450.7 449.2" style="enable-background:new 0 0 450.7 449.2;" xml:space="preserve">
<style type="text/css">
	.st0{fill:#11393A;stroke:#11393A;stroke-width:0.5;stroke-miterlimit:10;}
	.st1{fill:#E27847;stroke:#E27847;stroke-width:7;stroke-miterlimit:10;}
	.st2{fill:#E27847;}
</style>
<title>statut_10</title>
<path class="st0" d="M409.6,349.2c-10.2-6.3-19.6-13.8-28.2-22.2c-5-5.8-9.5-11.9-13.6-18.3c-0.2-0.4-0.4-0.7-0.6-1
	c-2-3.2-4-6.2-6.2-9.3c-11.2-16.8-28.2-36.2-25-57.7c1.7-3.2,2.8-6.8,3.3-10.4c1.1-10.2-6.3-19.3-16.5-20.4
	c-0.7-0.1-1.4-0.1-2.1-0.1c-2.3-0.1-4.6,0.2-6.8,0.7c0.2-0.4,0.3-0.8,0.4-1.2c3.2-8.1,1.3-17.3-4.7-23.7c-5.7-6.3-14.6-8.7-22.7-6.2
	c1.2-8.6-1.5-17.2-7.4-23.6c-4.3-4.4-9.8-7.5-15.8-8.8c1.5-2.2,2.5-4.6,3.1-7.2c0.8-7.2-2.9-14.2-9.3-17.6
	c-7.2-5.3-16.8-5.9-24.6-1.5c-15.7,3.4-31.8-5.4-46.8-8.8c-7.8-2.9-16.6-1.7-23.3,3.3c-2.1,2.2-3.4,5.1-3.7,8.2l0,0
	c-11.8,2.1-25.1,5.5-30.1,17.6c-2.3,5.9-1.3,12.7,2.7,17.6c-2.1,1-4.1,2.3-5.9,3.7c-4.9,3.6-8.7,8.6-10.8,14.3
	c-2.4,6.8-2,14.3,1.2,20.8c-2.6,1-5.1,2.3-7.5,3.8c-4.9,2.7-9,6.7-11.9,11.6c-4.7,9-2.8,20.1,4.8,27l2.5,2.5c-1.7,1.2-3.2,2.5-4.5,4
	c-4.6,4.3-8.6,9.1-12.1,14.3c-6.9,11.7,1.8,21.8,11,28.9l1.1,0.9c-14.6,25.3-34.3,47.3-57.8,64.7c-4,3.1,0.8,9.2,4.9,6.2
	c11.6-8.6,22.4-18.4,32.1-29.1c1,9.7,2.8,19.2,5.5,28.6c4,11,11,20.6,20.2,27.7c8.7,9.2,19.4,16.1,31.3,20.3
	c8.7,1.6,17.7,1.6,26.4,0L138,443c-3,4.1,3.4,8.8,6.3,4.7l24.4-33.3c7.9-11.1,15.5-22.5,23.8-33.4c7.2-9.3,17-16.2,28.2-19.7
	c10.1-2.9,20-6.7,29.5-11.3c1.9-1,3.6-2.2,5.4-3.4c11.3,16.1,20.9,33,30.9,50c9.5,17.5,21.6,33.4,35.8,47.3c3.7,3.4,8.4-2.9,4.7-6.3
	c-14-14.1-25.9-30.2-35.2-47.8l-6.6-11.4c7.1,1.5,14.4,1.8,21.6,0.8c10.7-0.9,21-4.7,29.8-10.8c4.3-3.7,8.1-7.8,11.5-12.2
	c4.1-5,7.9-10.1,11.4-15.5c3.8-5.8,6.5-12.2,8.1-19c2.3,3.4,4.8,6.6,7.5,9.7c9.1,9.2,19.3,17.4,30.3,24.3c2.1,0.7,4.3-0.5,5-2.6
	C410.8,351.7,410.5,350.3,409.6,349.2z M185.4,120.4c12.1,3.7,24.4,6.6,36.9,8.8c-1.4,1.5-2.7,3.1-4,4.7c-4.5,7.7-9.8,15-15.8,21.6
	c-1.2,1.1-3.4,3.6-5.4,3.5c-1.9-0.1-4-2.6-5.3-3.3c-3.7-2.3-7.2-4.9-10.6-7.7c-7-4.8-12-11.9-14.2-20.1c-1.5-11.3,11.2-9.2,18.3-7.7
	L185.4,120.4z M136.2,152c-1.5-5.5,0.9-11.4,5.9-14.3c5.4-3.2,11.4-5.2,17.6-5.8c0.3,1.4,0.8,2.7,1.4,4c3.8,7.7,9.5,14.4,16.5,19.4
	c3.4,2.7,7,5.2,10.6,7.6c2.8,2.5,6.3,3.9,10,4c1-0.1,1.9-0.3,2.8-0.7c4.1,3.8,6.8,8.8,7.7,14.3c0.8,5.6-3,10.8-8.6,11.6
	c-0.3,0-0.5,0.1-0.8,0.1c-6.3-0.2-12.6-1.9-18.1-4.9c-6.3-3-12.3-6.5-17.9-10.6c-5.5-3.9-10.6-8.1-15.9-12.3
	c-4.8-3.1-8.7-7.5-11.3-12.6V152z M124.3,176.8c1.5-2.4,3.3-4.5,5.5-6.2c1.7-1.4,6-5.1,8.2-4l0,0c1.2,1.1,2.4,2.2,3.7,3.2
	c10.7,9.4,22.5,17.5,35.2,24c2.2,1.1,4.6,2.1,7.2,3.2c4.7,9.1,2.1,20.3-6.2,26.4c-11.1,7.2-20.9-0.7-29.7-7.3l-15.5-11.5
	c-4.8-2.7-8.5-7.1-10.4-12.3C120.8,186.9,121.5,181.4,124.3,176.8L124.3,176.8z M102.3,227.1c-0.8-5,0.9-10.1,4.7-13.6
	c2-1.9,4.2-3.5,6.6-4.8c1.2-0.6,5.8-3.6,7.2-3.3l0,0l1.6,1.5c5.2,4.6,11.2,8.8,16.8,12.7c5.1,4.2,10.5,7.9,16.2,11.3
	c1.2,0.7,2.5,1.2,3.8,1.7c0,0.4,0,0.8,0,1.1c2.9,9.6-0.6,20-8.8,25.9c-4.5,2.5-10.1,1.8-14-1.6c-5-3.3-9.8-7.1-14.6-10.6l-6.7-4.7
	c-0.4-0.6-1-1-1.7-1.2c-5.4-3.3-9.5-8.4-11.5-14.4L102.3,227.1z M103.2,284.4c-3.5-2.4-6.4-5.3-8.8-8.8c-2.2-3.4-1.8-7.8,0.9-10.7
	c2.5-3.3,5.2-6.4,8-9.3c1.9-2.2,4.4-5.7,7.5-6.2c6.1,4.8,12.8,8.8,18.9,13.6c1.9,1.5,3.9,2.8,6.1,4c-0.4,1-0.4,2.1,0,3.1
	c1.9,7.8-1.7,15.9-8.8,19.7c-3.5,2.5-7.9,3.3-12.1,2.1c-2.6-1-5-2.3-7.1-4l-0.8-0.6l-3.3-2.5L103.2,284.4z M286.4,296.2
	c-7.6,10.4-15,21-22.9,31.2c-2.9,3.8-6.2,7.2-9.8,10.3l0,0c-4.4,3.7-9.5,6.7-14.9,8.8c-8.8,3.5-17.6,5.7-26.4,9.3
	c-9.4,3.7-17.7,9.8-24.1,17.6c-6.9,8.8-12.9,17.6-19.2,26.4l0,0c-10.1,2.3-20.6,2.5-30.8,0.8c-10.6-3.7-20.3-9.7-28.2-17.6
	c-8.7-6.7-15-15.9-18.2-26.4c-2.4-10.5-4.1-21.1-5.3-31.9c7.5-9.2,14.3-19,20.3-29.3c2.7,1.8,5.7,3,8.8,3.6c5.5,0.6,11.1-0.8,15.7-4
	c9.4-5.2,14.5-15.8,12.8-26.4c5.3,0.3,10.5-1.6,14.4-5.3c8.3-7.5,12.1-18.9,9.8-29.8c6.6,0,12.9-2.5,17.6-7
	c7.2-7.1,10-17.5,7.5-27.3c6.2,1.6,12.7,0.1,17.6-4c10.4-9.9,5.1-24.6-3.1-34c3.3-3.5,6.3-7.4,8.8-11.5c4.2-8.4,10.2-15.8,17.6-21.6
	l0,0c1.4-0.3,2.8-0.7,4.2-1.1c0.7-0.2,1.2-0.5,1.7-1.1c6.9-1.5,13.9,1.5,17.6,7.5c2.2,3.7,0,7.1-1.8,10.3c-2.3,3.1-4.4,6.4-6.2,9.8
	l-2.2,2.6c-3.6,4.4-7,8.8-10.2,13.7c-3.2,4.9,3.6,8.8,6.4,4.7s4.4-6.5,6.9-9.7c2.5-3.2,2.9-4,4.5-5.8c0.6-0.3,1.1-0.8,1.4-1.4
	c0.5-0.6,1.1-1.1,1.7-1.6c5.3-4.1,13,2.2,16.5,6.2c4.4,5.6,5.4,13.1,2.6,19.6l-2.7,4c-4.8,4.4-8.9,9.5-12.1,15.2
	c-2.3,3.8,2.4,7.9,5.3,5.9c0.8-0.3,1.5-0.8,2-1.5l9.7-13l0.8-1.1c1.8-1.5,3.9-2.8,6.2-3.7c6.3-2.9,13.8-1.2,18,4.3
	c10.6,13.6-7.9,26.4-14,37.5c-1.2,2.1-0.4,4.8,1.7,6c0,0,0,0,0,0l0,0c1.3,1.3,3.4,1.3,4.7,0c0.2-0.2,0.4-0.5,0.6-0.7
	c5-8.8,13.1-19.3,24.6-16.8c9.7,2.1,9.7,11.1,6.3,18.4c-0.2,0.3-0.4,0.7-0.5,1.1v0.4c-5.9,9.6-12.5,18.8-19.6,27.5L286.4,296.2z
	 M331.3,362.4c-7.6,5.1-16.4,8.1-25.5,8.8c-9.1,1.5-18.5,0.4-27-3.2l0,0c-5.5-8.8-11.2-18-17.6-26.4c5.1-5.1,9.7-10.7,13.8-16.6
	l24.6-33.7l25.2-34.3l3.3-4.5c2.6,17.6,15.3,33.6,24.9,48.1c2.5,3.6,4.8,7.3,7.2,11c0.1,9.8-3,19.3-8.8,27.1
	c-5.5,8.8-12.2,16.7-19.9,23.6L331.3,362.4z"/>
<path class="st1" d="M196.8,336.8c-19.3,7.7-29.9,27.5-41,44c-1.8,2.8,2.7,5.5,4.7,2.6c10-15,20.1-34.4,37.8-41.4
	C201.4,340.7,200,335.6,196.8,336.8z"/>
<path class="st1" d="M344.5,315.5c-5.5-12.2-15.3-21.6-18.1-35.2c-0.7-3.3-5.9-1.9-5.2,1.4c3,13.9,13.1,23.6,18.7,36.2
	C341.2,321.3,345.8,318.5,344.5,315.5z"/>
<path class="st2" d="M252.7,4.3c0.4,1.1,0.4,2.4,0,3.5l-8.8,59.9c-0.4,3.7-3.7,6.3-7.4,5.9c0,0-0.1,0-0.1,0l0,0
	c-3.7-0.5-6.3-3.9-5.8-7.6l0,0c2.2-15,4.5-29.9,6.8-44.9c0.8-5.1,1.4-10.2,2.2-15.2c0.4-3.1,2.9-5.6,6.1-5.9
	C248.7-0.3,251.6,1.4,252.7,4.3z"/>
<path class="st2" d="M321.4,62.4c3.5-1.7,7.7-0.3,9.4,3.2c0.1,0.1,0.1,0.2,0.2,0.3c1.3,3.5-0.5,7.4-4,8.7c-0.1,0-0.2,0.1-0.3,0.1
	c-2,0.9-4,1.9-6.1,2.9c-11.9,5.9-23.2,13-33.6,21.2c-2.2,1.7-5.2,1.7-7.4,0c-3.2-1.6-4.6-5.5-3-8.7c0.5-1,1.3-1.9,2.2-2.6
	c12-9.4,25-17.4,38.8-23.8L321.4,62.4z"/>
<path class="st2" d="M162.7,38.6c4.4,11.8,10.3,23,17.6,33.4c2.4,2.8,2,7-0.8,9.4c-2.8,2.5-7.1,2.3-9.6-0.5c0,0-0.1-0.1-0.1-0.1
	l-0.4-0.5c-4.1-5.6-7.8-11.5-11-17.6c-3.6-6.9-6.8-14-9.7-21.2c-0.7-1.7-1.2-3.5-1.6-5.3c-0.7-3.3,1.1-6.5,4.2-7.7
	c3.4-1.3,7.2,0.3,8.8,3.6C161.2,34.4,162.2,36.5,162.7,38.6z"/>
</svg>
