<svg id="Calque_1" data-name="Calque 1" xmlns="http://www.w3.org/2000/svg" viewBox="0 0 274.43 394.94"><defs><style>.cls-1{fill:#ecca50;}</style></defs><title>trait</title><path class="cls-1" d="M714.34,429.57c-2.9.28-5.66-.95-8.34-2.42q-64.61-35.47-129.19-71c-8.46-4.66-11.24-14.11-6.94-22.37s14.24-11.22,22.94-6.48c32.36,17.64,64.62,35.46,96.92,53.2,10.94,6,21.93,11.91,32.83,18,7,3.91,10.33,11.52,8.32,18.7C728.73,424.87,722.51,429.61,714.34,429.57Z" transform="translate(-469.28 -161.73)"/><path class="cls-1" d="M525,537.71c.13,10.91-6.24,18.52-16,18.94-10,.42-16.41-6.11-17.26-17.48-.41-5.46-1-10.91-1.55-16.35a487,487,0,0,0-20.06-94.54c-2.19-7,.15-12.65,5.63-17.1,5.9-4.81,12.83-5.41,19-1.92,3.87,2.18,6,5.7,7.25,9.76a506.27,506.27,0,0,1,21.78,108.57C524.07,531,524.57,534.34,525,537.71Z" transform="translate(-469.28 -161.73)"/><path class="cls-1" d="M711.69,195.44a350.88,350.88,0,0,0-91.17,12.95c-9.42,2.58-17.7-1.41-20.75-9.87a16.67,16.67,0,0,1,11.07-22.09c15.95-4.77,32.29-7.82,48.72-10.41,18.71-3,37.61-3.37,56.47-4.24a84.44,84.44,0,0,1,13.56.77c7.73.89,14.27,8.53,14.11,16.14-.19,8.55-7.31,16.36-15.55,16.71C722.67,195.63,717.18,195.44,711.69,195.44Z" transform="translate(-469.28 -161.73)"/></svg>